
<svg xmlns="http://www.w3.org/2000/svg" style="display: none">
  <symbol id="eye" viewBox="0 0 20 20">
    <path d="M18.7036 9.75556C16.9087 5.58667 13.5321 3 9.88889 3C6.24571 3 2.86911 5.58667 1.07418 9.75556C1.02525 9.8677 1 9.98875 1 10.1111C1 10.2335 1.02525 10.3545 1.07418 10.4667C2.86911 14.6356 6.24571 17.2222 9.88889 17.2222C13.5321 17.2222 16.9087 14.6356 18.7036 10.4667C18.7525 10.3545 18.7778 10.2335 18.7778 10.1111C18.7778 9.98875 18.7525 9.8677 18.7036 9.75556ZM9.88889 15.4444C7.07209 15.4444 4.40636 13.4089 2.86911 10.1111C4.40636 6.81333 7.07209 4.77778 9.88889 4.77778C12.7057 4.77778 15.3714 6.81333 16.9087 10.1111C15.3714 13.4089 12.7057 15.4444 9.88889 15.4444ZM9.88889 6.55556C9.18591 6.55556 8.49872 6.76409 7.91422 7.15477C7.32971 7.54546 6.87415 8.10077 6.60513 8.75046C6.33611 9.40015 6.26572 10.1151 6.40287 10.8048C6.54001 11.4945 6.87853 12.128 7.37561 12.6253C7.87269 13.1225 8.50601 13.4612 9.19548 13.5983C9.88495 13.7355 10.5996 13.6651 11.2491 13.396C11.8985 13.1269 12.4536 12.6712 12.8442 12.0865C13.2347 11.5018 13.4432 10.8143 13.4432 10.1111C13.4432 9.16812 13.0687 8.26375 12.4022 7.59695C11.7356 6.93016 10.8316 6.55556 9.88889 6.55556ZM9.88889 11.8889C9.5374 11.8889 9.19381 11.7846 8.90155 11.5893C8.6093 11.3939 8.38152 11.1163 8.24701 10.7914C8.1125 10.4666 8.07731 10.1091 8.14588 9.76428C8.21445 9.41943 8.38371 9.10266 8.63225 8.85403C8.88079 8.60541 9.19745 8.43609 9.54218 8.36749C9.88692 8.2989 10.2442 8.3341 10.569 8.46866C10.8937 8.60321 11.1713 8.83108 11.3665 9.12343C11.5618 9.41578 11.666 9.7595 11.666 10.1111C11.666 10.5826 11.4788 11.0348 11.1455 11.3682C10.8122 11.7016 10.3602 11.8889 9.88889 11.8889Z"></path>
  </symbol>
  <symbol id="eyeclose" viewBox="0 0 20 20">
    <path d="M9.0457 4.67387C9.36123 4.6255 9.68002 4.60144 9.99923 4.6019C12.8598 4.6019 15.5495 6.66188 17.1147 9.99923C16.8753 10.5071 16.605 10.9998 16.3051 11.4745C16.2099 11.6219 16.1599 11.7938 16.1612 11.9693C16.1632 12.1656 16.2294 12.3558 16.3496 12.511C16.4699 12.6662 16.6376 12.7778 16.8272 12.8288C17.0168 12.8798 17.2178 12.8673 17.3997 12.7933C17.5815 12.7193 17.7342 12.5879 17.8344 12.419C18.2535 11.7605 18.6175 11.0685 18.9228 10.3501C18.9711 10.2378 18.996 10.1169 18.996 9.99473C18.996 9.87255 18.9711 9.75166 18.9228 9.63941C17.1057 5.4205 13.6874 2.80279 9.99923 2.80279C9.57704 2.80066 9.15553 2.83679 8.73986 2.91074C8.62172 2.93082 8.5087 2.97397 8.40725 3.03773C8.3058 3.10149 8.2179 3.18461 8.14856 3.28235C8.07923 3.38008 8.02983 3.49051 8.00318 3.60733C7.97652 3.72416 7.97314 3.84509 7.99322 3.96322C8.01331 4.08135 8.05646 4.19437 8.12022 4.29582C8.18398 4.39728 8.2671 4.48518 8.36483 4.55451C8.46256 4.62384 8.57299 4.67324 8.68982 4.6999C8.80664 4.72655 8.92757 4.72993 9.0457 4.70985V4.67387ZM2.54192 1.26455C2.45805 1.18068 2.35847 1.11415 2.24889 1.06875C2.1393 1.02336 2.02185 1 1.90324 1C1.78462 1 1.66717 1.02336 1.55758 1.06875C1.448 1.11415 1.34842 1.18068 1.26455 1.26455C1.09516 1.43394 1 1.66368 1 1.90324C1 2.14279 1.09516 2.37253 1.26455 2.54192L4.05317 5.32155C2.78082 6.54632 1.76817 8.0148 1.07564 9.63941C1.02611 9.7529 1.00055 9.8754 1.00055 9.99923C1.00055 10.1231 1.02611 10.2456 1.07564 10.3591C2.89275 14.578 6.31106 17.1957 9.99923 17.1957C11.6158 17.1845 13.1942 16.7032 14.542 15.8104L17.4565 18.7339C17.5402 18.8182 17.6397 18.8851 17.7493 18.9308C17.8589 18.9765 17.9765 19 18.0952 19C18.214 19 18.3316 18.9765 18.4412 18.9308C18.5508 18.8851 18.6503 18.8182 18.7339 18.7339C18.8182 18.6503 18.8851 18.5508 18.9308 18.4412C18.9765 18.3316 19 18.214 19 18.0952C19 17.9765 18.9765 17.8589 18.9308 17.7493C18.8851 17.6397 18.8182 17.5402 18.7339 17.4565L2.54192 1.26455ZM8.26309 9.53146L10.467 11.7354C10.315 11.779 10.1574 11.8002 9.99923 11.7983C9.52208 11.7983 9.06447 11.6088 8.72707 11.2714C8.38967 10.934 8.20012 10.4764 8.20012 9.99923C8.19828 9.84108 8.21949 9.6835 8.26309 9.53146ZM9.99923 15.3966C7.13865 15.3966 4.44898 13.3366 2.89275 9.99923C3.47394 8.71624 4.29882 7.55836 5.32155 6.58992L6.91376 8.20012C6.53977 8.8827 6.39718 9.66815 6.50739 10.4386C6.6176 11.2091 6.97467 11.9231 7.52503 12.4734C8.07539 13.0238 8.78936 13.3809 9.55984 13.4911C10.3303 13.6013 11.1158 13.4587 11.7983 13.0847L13.2286 14.497C12.2491 15.0735 11.1358 15.3836 9.99923 15.3966Z"></path>
  </symbol>
  <symbol id="close" viewBox="0 0 16 16">
    <path fill-rule="evenodd" clip-rule="evenodd" d="M15.3214 0.696592C15.7101 1.08893 15.7071 1.72209 15.3148 2.11079L9.42505 7.94581L15.3214 13.8965C15.7102 14.2889 15.7073 14.922 15.315 15.3107C14.9226 15.6995 14.2895 15.6966 13.9008 15.3043L8.00425 9.35341L2.11493 15.188C1.72259 15.5767 1.08943 15.5737 0.70073 15.1814C0.312033 14.7891 0.314989 14.1559 0.707332 13.7672L6.59654 7.93272L0.821347 2.10431C0.432618 1.71199 0.435523 1.07884 0.827834 0.690107C1.22015 0.301379 1.8533 0.304283 2.24203 0.696594L8.01734 6.52512L13.9072 0.68999C14.2995 0.301293 14.9327 0.304249 15.3214 0.696592Z"></path>
  </symbol>
  <symbol id="whatsapp" viewBox="0 0 20 20">
    <path d="M1 19.8377L2.32733 14.9024C1.25687 12.9798 0.916776 10.7364 1.36945 8.58366C1.82213 6.43096 3.03721 4.51343 4.79174 3.18295C6.54626 1.85246 8.72253 1.19827 10.9212 1.3404C13.1199 1.48254 15.1935 2.41147 16.7615 3.95675C18.3295 5.50202 19.2867 7.55998 19.4575 9.75298C19.6283 11.946 19.0012 14.1269 17.6914 15.8956C16.3815 17.6643 14.4767 18.9021 12.3264 19.3818C10.1762 19.8616 7.92478 19.5511 5.98534 18.5074L1 19.8377ZM6.22572 16.6605L6.53404 16.8431C7.93882 17.6744 9.57958 18.0184 11.2006 17.8215C12.8217 17.6246 14.332 16.8979 15.4961 15.7546C16.6603 14.6113 17.4129 13.1157 17.6368 11.5008C17.8606 9.88589 17.5431 8.24241 16.7336 6.82648C15.9242 5.41055 14.6683 4.30171 13.1617 3.67276C11.6551 3.0438 9.98244 2.93006 8.40434 3.34925C6.82624 3.76845 5.43136 4.69704 4.43708 5.99031C3.4428 7.28359 2.90496 8.8689 2.90739 10.4992C2.90607 11.851 3.28054 13.1766 3.98911 14.3285L4.18246 14.6468L3.44041 17.4014L6.22572 16.6605Z"></path>
    <path fill-rule="evenodd" clip-rule="evenodd" d="M13.8138 11.7554C13.6331 11.6098 13.4215 11.5074 13.1951 11.4559C12.9687 11.4043 12.7335 11.4051 12.5074 11.458C12.1677 11.5989 11.9483 12.131 11.7288 12.3971C11.6825 12.4609 11.6145 12.5056 11.5375 12.5229C11.4606 12.5402 11.3799 12.5288 11.3107 12.491C10.0672 12.0047 9.02482 11.113 8.35297 9.96071C8.29566 9.8888 8.26854 9.7975 8.27731 9.70603C8.28608 9.61455 8.33007 9.53005 8.4 9.4703C8.64479 9.22837 8.82452 8.92871 8.92257 8.59905C8.94434 8.23543 8.8609 7.87323 8.68219 7.55564C8.54403 7.1104 8.2811 6.71393 7.92446 6.41311C7.74051 6.33051 7.53656 6.30282 7.3372 6.33337C7.13784 6.36392 6.95159 6.4514 6.80093 6.58527C6.53936 6.81056 6.33175 7.09156 6.19338 7.40758C6.05501 7.72359 5.9894 8.06656 6.00139 8.41124C6.0022 8.6048 6.02677 8.79753 6.07455 8.98512C6.1959 9.43582 6.38251 9.86642 6.62848 10.2633C6.80594 10.5673 6.99957 10.8616 7.20853 11.145C7.88764 12.0757 8.74129 12.8659 9.7221 13.4718C10.2143 13.7797 10.7403 14.03 11.2898 14.2178C11.8606 14.4761 12.4909 14.5753 13.1136 14.5048C13.4684 14.4511 13.8046 14.3113 14.0925 14.0975C14.3805 13.8837 14.6114 13.6026 14.7649 13.2788C14.8551 13.0831 14.8825 12.8645 14.8433 12.6527C14.7492 12.2197 14.1692 11.9641 13.8138 11.7554Z"></path>
  </symbol>
  <symbol id="telegram" viewBox="0 0 20 20">
    <path d="M2.70923 9.85383C2.70923 9.85383 10.2279 6.56104 12.8355 5.40158C13.8352 4.93783 17.2251 3.4537 17.2251 3.4537C17.2251 3.4537 18.7897 2.80445 18.6593 4.38126C18.6158 5.03058 18.2681 7.30304 17.9205 9.76108C17.3989 13.2394 16.8339 17.0424 16.8339 17.0424C16.8339 17.0424 16.747 18.1091 16.0082 18.2946C15.2694 18.4801 14.0524 17.6453 13.8352 17.4598C13.6613 17.3207 10.5756 15.2336 9.44562 14.2133C9.14139 13.9351 8.79372 13.3786 9.48905 12.7293C11.0537 11.1988 12.9224 9.29733 14.0524 8.09151C14.574 7.53495 15.0955 6.23639 12.9224 7.8132C9.83677 10.0857 6.79453 12.2191 6.79453 12.2191C6.79453 12.2191 6.09914 12.6829 4.79534 12.2654C3.49148 11.8481 1.97036 11.2915 1.97036 11.2915C1.97036 11.2915 0.927363 10.5959 2.70923 9.85383Z"></path>
  </symbol>
  <symbol id="instagram" viewBox="0 0 20 20">
    <path d="M7.17086 10.5795C7.17086 8.87518 8.55171 7.49319 10.2556 7.49319C11.9594 7.49319 13.341 8.87518 13.341 10.5795C13.341 12.2838 11.9594 13.6658 10.2556 13.6658C8.55171 13.6658 7.17086 12.2838 7.17086 10.5795ZM5.50294 10.5795C5.50294 13.2051 7.63068 15.3335 10.2556 15.3335C12.8804 15.3335 15.0082 13.2051 15.0082 10.5795C15.0082 7.95388 12.8804 5.82553 10.2556 5.82553C7.63068 5.82553 5.50294 7.95388 5.50294 10.5795ZM14.0856 5.63703C14.0856 5.85676 14.1506 6.07158 14.2726 6.25433C14.3945 6.43708 14.568 6.57955 14.7709 6.66372C14.9738 6.74789 15.1971 6.76998 15.4126 6.7272C15.628 6.68442 15.826 6.57868 15.9814 6.42337C16.1367 6.26806 16.2426 6.07014 16.2855 5.85465C16.3285 5.63916 16.3066 5.41577 16.2226 5.21273C16.1386 5.00969 15.9963 4.83612 15.8137 4.71397C15.6311 4.59182 15.4164 4.52657 15.1968 4.52649H15.1963C14.9019 4.52662 14.6195 4.64366 14.4113 4.85188C14.203 5.06011 14.0859 5.34249 14.0856 5.63703ZM6.51631 18.1155C5.61393 18.0744 5.12346 17.924 4.79752 17.797C4.36539 17.6287 4.05707 17.4283 3.7329 17.1045C3.40874 16.7807 3.20808 16.4726 3.04059 16.0403C2.91353 15.7144 2.76322 15.2237 2.7222 14.321C2.67733 13.3451 2.66837 13.052 2.66837 10.5796C2.66837 8.1072 2.67807 7.81486 2.7222 6.83815C2.76329 5.93551 2.91471 5.44572 3.04059 5.11886C3.20882 4.68662 3.40918 4.37821 3.7329 4.05395C4.05663 3.72969 4.36465 3.52897 4.79752 3.36143C5.12331 3.23433 5.61393 3.08398 6.51631 3.04295C7.49192 2.99806 7.78499 2.9891 10.2556 2.9891C12.7261 2.9891 13.0195 2.9988 13.9959 3.04295C14.8983 3.08405 15.3879 3.23552 15.7147 3.36143C16.1468 3.52897 16.4551 3.73013 16.7793 4.05395C17.1035 4.37776 17.3034 4.68662 17.4716 5.11886C17.5987 5.44475 17.749 5.93551 17.79 6.83815C17.8349 7.81486 17.8438 8.1072 17.8438 10.5796C17.8438 13.052 17.8349 13.3443 17.79 14.321C17.7489 15.2237 17.5979 15.7143 17.4716 16.0403C17.3034 16.4726 17.103 16.781 16.7793 17.1045C16.4556 17.428 16.1468 17.6287 15.7147 17.797C15.3889 17.9241 14.8983 18.0744 13.9959 18.1155C13.0203 18.1604 12.7272 18.1693 10.2556 18.1693C7.78387 18.1693 7.49162 18.1604 6.51631 18.1155ZM6.43967 1.37736C5.45436 1.42224 4.78108 1.57852 4.19309 1.80738C3.58415 2.04373 3.06865 2.3608 2.55353 2.87526C2.0384 3.38972 1.72223 3.90618 1.48595 4.5153C1.25716 5.10383 1.10092 5.77694 1.05605 6.76253C1.01044 7.74968 1 8.06527 1 10.5795C1 13.0937 1.01044 13.4093 1.05605 14.3965C1.10092 15.3822 1.25716 16.0552 1.48595 16.6437C1.72223 17.2525 2.03847 17.7695 2.55353 18.2838C3.06858 18.798 3.58415 19.1146 4.19309 19.3516C4.78219 19.5805 5.45436 19.7368 6.43967 19.7817C7.42705 19.8265 7.74204 19.8377 10.2556 19.8377C12.7691 19.8377 13.0846 19.8273 14.0714 19.7817C15.0568 19.7368 15.7297 19.5805 16.318 19.3516C16.9266 19.1146 17.4424 18.7982 17.9576 18.2838C18.4727 17.7693 18.7882 17.2525 19.0251 16.6437C19.2539 16.0552 19.4109 15.3821 19.455 14.3965C19.4999 13.4086 19.5104 13.0937 19.5104 10.5795C19.5104 8.06527 19.4999 7.74968 19.455 6.76253C19.4102 5.77686 19.2539 5.10346 19.0251 4.5153C18.7882 3.90655 18.4719 3.39054 17.9576 2.87526C17.4433 2.35999 16.9266 2.04373 16.3188 1.80738C15.7297 1.57852 15.0567 1.4215 14.0722 1.37736C13.0853 1.33247 12.7698 1.32129 10.2563 1.32129C7.74278 1.32129 7.42705 1.33173 6.43967 1.37736Z"></path>
  </symbol>
  <symbol id="facebook" viewBox="0 0 20 20">
    <path d="M14.3363 11.7352L14.8635 8.38566H11.6161V6.20849C11.6161 5.29261 12.0694 4.39766 13.5192 4.39766H15.0164V1.54536C14.1445 1.40632 13.2635 1.3311 12.3805 1.32031C9.70769 1.32031 7.96273 2.92702 7.96273 5.83167V8.38566H5V11.7352H7.96273V19.8368H11.6161V11.7352H14.3363Z"></path>
  </symbol>
  <symbol id="hamburger" viewBox="0 0 32 32">
    <path d="M1.6 9.42857H30.4C30.8243 9.42857 31.2313 9.24796 31.5314 8.92647C31.8314 8.60498 32 8.16894 32 7.71429C32 7.25963 31.8314 6.82359 31.5314 6.5021C31.2313 6.18061 30.8243 6 30.4 6H1.6C1.17565 6 0.768687 6.18061 0.468629 6.5021C0.168571 6.82359 0 7.25963 0 7.71429C0 8.16894 0.168571 8.60498 0.468629 8.92647C0.768687 9.24796 1.17565 9.42857 1.6 9.42857ZM30.4 23.1429H1.6C1.17565 23.1429 0.768687 23.3235 0.468629 23.645C0.168571 23.9664 0 24.4025 0 24.8571C0 25.3118 0.168571 25.7478 0.468629 26.0693C0.768687 26.3908 1.17565 26.5714 1.6 26.5714H30.4C30.8243 26.5714 31.2313 26.3908 31.5314 26.0693C31.8314 25.7478 32 25.3118 32 24.8571C32 24.4025 31.8314 23.9664 31.5314 23.645C31.2313 23.3235 30.8243 23.1429 30.4 23.1429ZM30.4 14.5714H1.6C1.17565 14.5714 0.768687 14.752 0.468629 15.0735C0.168571 15.395 0 15.8311 0 16.2857C0 16.7404 0.168571 17.1764 0.468629 17.4979C0.768687 17.8194 1.17565 18 1.6 18H30.4C30.8243 18 31.2313 17.8194 31.5314 17.4979C31.8314 17.1764 32 16.7404 32 16.2857C32 15.8311 31.8314 15.395 31.5314 15.0735C31.2313 14.752 30.8243 14.5714 30.4 14.5714Z"></path>
  </symbol>
  <symbol id="angle" viewBox="0 0 12 12">
    <path fill-rule="evenodd" clip-rule="evenodd" d="M1.66272 3.17574C1.87968 2.94142 2.23143 2.94142 2.44839 3.17574L6.5 7.55147L10.5516 3.17574C10.7686 2.94142 11.1203 2.94142 11.3373 3.17574C11.5542 3.41005 11.5542 3.78995 11.3373 4.02426L6.89284 8.82426C6.67588 9.05858 6.32412 9.05858 6.10716 8.82426L1.66272 4.02426C1.44576 3.78995 1.44576 3.41005 1.66272 3.17574Z"></path>
  </symbol>
  <symbol id="arrowleft" viewBox="0 0 16 16">
    <path d="M3.0007 8.02635L13 7.97332ZM3.0007 8.02635L8.02771 3ZM3.0007 8.02635L7.97436 13Z"></path>
    <path fill-rule="evenodd" clip-rule="evenodd" d="M8.73486 2.29294C9.12536 2.68349 9.12532 3.31665 8.73477 3.70715L5.42803 7.01346L12.9947 6.97333C13.547 6.9704 13.9971 7.41574 14 7.96802C14.0029 8.52029 13.5576 8.97038 13.0053 8.97331L5.4022 9.01363L8.68147 12.2929C9.07199 12.6834 9.07199 13.3166 8.68147 13.7071C8.29094 14.0976 7.65778 14.0976 7.26725 13.7071L2.29359 8.73346C2.10605 8.54591 2.00069 8.29155 2.0007 8.02632C2.00071 7.76109 2.10608 7.50673 2.29364 7.3192L7.32065 2.29285C7.7112 1.90235 8.34436 1.90239 8.73486 2.29294Z"></path>
  </symbol>
  <symbol id="arrowright" viewBox="0 0 16 16">
    <path d="M12.9993 8.02635L3 7.97332ZM12.9993 8.02635L7.97229 3ZM12.9993 8.02635L8.02564 13Z"></path>
    <path fill-rule="evenodd" clip-rule="evenodd" d="M7.26514 2.29294C7.65564 1.90239 8.2888 1.90235 8.67935 2.29285L13.7064 7.3192C13.8939 7.50673 13.9993 7.76109 13.9993 8.02632C13.9993 8.29155 13.8939 8.54591 13.7064 8.73346L8.73275 13.7071C8.34222 14.0976 7.70906 14.0976 7.31853 13.7071C6.92801 13.3166 6.92801 12.6834 7.31853 12.2929L10.5978 9.01363L2.9947 8.97331C2.44242 8.97038 1.99708 8.52029 2.00001 7.96802C2.00294 7.41574 2.45303 6.9704 3.0053 6.97333L10.572 7.01346L7.26523 3.70715C6.87468 3.31665 6.87464 2.68349 7.26514 2.29294Z"></path>
  </symbol>
  <symbol id="arrowtopright" viewBox="0 0 16 16">
    <path fill-rule="evenodd" clip-rule="evenodd" d="M3.73371 2.78087L12.2642 2.78031C12.5295 2.78029 12.7838 2.88564 12.9714 3.07318C13.1589 3.26072 13.2643 3.51508 13.2643 3.78031V12.2209C13.2643 12.7732 12.8166 13.2209 12.2643 13.2209C11.712 13.2209 11.2643 12.7732 11.2643 12.2209V6.17654L4.438 12.9308C4.04541 13.3193 3.41225 13.3159 3.0238 12.9233C2.63536 12.5308 2.63871 11.8976 3.0313 11.5092L9.83171 4.78047L3.73385 4.78087C3.18156 4.78091 2.73382 4.33322 2.73378 3.78094C2.73374 3.22865 3.18143 2.78091 3.73371 2.78087Z"></path>
  </symbol>
  <symbol id="star" viewBox="0 0 16 16">
    <path d="M7.66038 0.481759C7.90156 -0.00694002 8.59843 -0.00694089 8.83962 0.481758L10.8024 4.45874C10.8982 4.6528 11.0833 4.78731 11.2975 4.81843L15.6863 5.45617C16.2256 5.53454 16.441 6.1973 16.0507 6.5777L12.8749 9.67334C12.7199 9.8244 12.6492 10.042 12.6858 10.2553L13.4355 14.6265C13.5276 15.1636 12.9639 15.5732 12.4815 15.3196L8.55597 13.2558C8.36442 13.1551 8.13558 13.1551 7.94403 13.2558L4.01851 15.3196C3.53614 15.5732 2.97236 15.1636 3.06448 14.6265L3.81419 10.2553C3.85077 10.042 3.78006 9.8244 3.62509 9.67335L0.449282 6.5777C0.0590326 6.1973 0.274377 5.53454 0.813688 5.45617L5.20255 4.81843C5.41671 4.78731 5.60184 4.6528 5.69762 4.45874L7.66038 0.481759Z"></path>
  </symbol>
  <symbol id="heart" viewBox="0 0 23 21">
    <path d="M20.4897 2.61287C19.2945 1.41453 17.7101 0.68313 16.0228 0.55079C14.3354 0.41845 12.6564 0.893897 11.289 1.89125C9.85433 0.824183 8.06868 0.340325 6.29159 0.53711C4.5145 0.733896 2.87798 1.59671 1.71157 2.9518C0.545168 4.30689 -0.0644767 6.05359 0.00540702 7.84018C0.0752908 9.62676 0.819512 11.3205 2.0882 12.5804L9.09024 19.5937C9.67659 20.1707 10.4663 20.4941 11.289 20.4941C12.1116 20.4941 12.9013 20.1707 13.4877 19.5937L20.4897 12.5804C21.8062 11.2558 22.5451 9.46413 22.5451 7.59661C22.5451 5.72909 21.8062 3.93744 20.4897 2.61287ZM18.8999 11.0243L11.8978 18.0264C11.8181 18.1068 11.7233 18.1707 11.6188 18.2143C11.5143 18.2579 11.4022 18.2803 11.289 18.2803C11.1757 18.2803 11.0636 18.2579 10.9591 18.2143C10.8546 18.1707 10.7598 18.1068 10.6801 18.0264L3.67804 10.9905C2.79377 10.0866 2.29861 8.87239 2.29861 7.60789C2.29861 6.34339 2.79377 5.12916 3.67804 4.22526C4.57912 3.33562 5.79441 2.83677 7.06067 2.83677C8.32693 2.83677 9.54221 3.33562 10.4433 4.22526C10.5481 4.33094 10.6728 4.41483 10.8102 4.47207C10.9476 4.52931 11.095 4.55879 11.2439 4.55879C11.3927 4.55879 11.5401 4.52931 11.6775 4.47207C11.8149 4.41483 11.9396 4.33094 12.0444 4.22526C12.9455 3.33562 14.1608 2.83677 15.427 2.83677C16.6933 2.83677 17.9086 3.33562 18.8097 4.22526C19.7061 5.11732 20.2175 6.32496 20.2344 7.58949C20.2512 8.85403 19.7722 10.0749 18.8999 10.9905V11.0243Z"></path>
  </symbol>
  <symbol id="smile" viewBox="0 0 21 21">
    <path d="M12.8544 12.7241C12.1592 13.2631 11.293 13.557 10.4 13.557C9.50696 13.557 8.64082 13.2631 7.9456 12.7241C7.73322 12.5544 7.4594 12.4727 7.1844 12.4971C6.9094 12.5215 6.65573 12.6499 6.4792 12.8541C6.30268 13.0584 6.21775 13.3216 6.2431 13.5861C6.26846 13.8505 6.40202 14.0944 6.6144 14.2641C7.67659 15.1167 9.01635 15.5838 10.4 15.5838C11.7837 15.5838 13.1234 15.1167 14.1856 14.2641C14.398 14.0944 14.5315 13.8505 14.5569 13.5861C14.5823 13.3216 14.4973 13.0584 14.3208 12.8541C14.2334 12.753 14.1261 12.6694 14.0051 12.6082C13.8841 12.5469 13.7518 12.5092 13.6156 12.4971C13.3406 12.4727 13.0668 12.5544 12.8544 12.7241ZM7.28 9.49414C7.48569 9.49414 7.68677 9.43549 7.8578 9.32561C8.02882 9.21573 8.16212 9.05955 8.24084 8.87682C8.31955 8.6941 8.34015 8.49303 8.30002 8.29905C8.25989 8.10507 8.16084 7.92688 8.01539 7.78703C7.86995 7.64718 7.68464 7.55194 7.4829 7.51335C7.28116 7.47477 7.07205 7.49457 6.88201 7.57026C6.69198 7.64595 6.52955 7.77412 6.41527 7.93857C6.301 8.10302 6.24 8.29636 6.24 8.49414C6.24 8.75935 6.34957 9.01371 6.54461 9.20124C6.73965 9.38878 7.00418 9.49414 7.28 9.49414ZM13.52 7.49414C13.3143 7.49414 13.1132 7.55279 12.9422 7.66267C12.7712 7.77255 12.6379 7.92873 12.5592 8.11145C12.4805 8.29418 12.4599 8.49525 12.5 8.68923C12.5401 8.88321 12.6392 9.06139 12.7846 9.20124C12.9301 9.3411 13.1154 9.43634 13.3171 9.47492C13.5188 9.51351 13.728 9.4937 13.918 9.41802C14.108 9.34233 14.2705 9.21416 14.3847 9.04971C14.499 8.88526 14.56 8.69192 14.56 8.49414C14.56 8.22892 14.4504 7.97457 14.2554 7.78703C14.0604 7.5995 13.7958 7.49414 13.52 7.49414ZM10.4 0.494141C8.34308 0.494141 6.33234 1.08063 4.62207 2.17944C2.9118 3.27826 1.57881 4.84004 0.791657 6.6673C0.00450617 8.49457 -0.201448 10.5052 0.199838 12.445C0.601124 14.3848 1.59163 16.1667 3.04609 17.5652C4.50056 18.9637 6.35366 19.9161 8.37106 20.302C10.3885 20.6878 12.4796 20.4898 14.3799 19.7329C16.2803 18.9761 17.9045 17.6943 19.0473 16.0498C20.19 14.4053 20.8 12.472 20.8 10.4941C20.8 9.18092 20.531 7.88056 20.0083 6.6673C19.4857 5.45405 18.7196 4.35166 17.7539 3.42307C16.7882 2.49449 15.6417 1.75789 14.3799 1.25535C13.1181 0.752798 11.7657 0.494141 10.4 0.494141ZM10.4 18.4941C8.75446 18.4941 7.14587 18.0249 5.77766 17.1459C4.40944 16.2668 3.34305 15.0174 2.71333 13.5556C2.08361 12.0938 1.91884 10.4853 2.23987 8.93342C2.5609 7.38157 3.3533 5.9561 4.51687 4.83729C5.68045 3.71847 7.16293 2.95654 8.77685 2.64786C10.3908 2.33918 12.0636 2.4976 13.5839 3.1031C15.1042 3.7086 16.4036 4.73398 17.3178 6.04958C18.232 7.36517 18.72 8.91189 18.72 10.4941C18.72 12.6159 17.8434 14.6507 16.2831 16.151C14.7228 17.6513 12.6066 18.4941 10.4 18.4941Z"></path>
  </symbol>
  <symbol id="bolt" viewBox="0 0 16 21">
    <path d="M15.572 7.09347C15.4989 6.92222 15.38 6.77525 15.229 6.66923C15.078 6.5632 14.9008 6.50236 14.7176 6.49358H10.2194L11.4667 1.75449C11.5064 1.60619 11.512 1.45057 11.4831 1.29971C11.4541 1.14885 11.3914 1.00682 11.2997 0.884653C11.2082 0.763661 11.0907 0.665609 10.9562 0.598019C10.8217 0.530428 10.6738 0.495094 10.5238 0.494727H3.64887C3.42714 0.486995 3.20937 0.555915 3.03103 0.690262C2.85269 0.824608 2.72429 1.01647 2.66673 1.23459L0.0345998 11.2327C-0.00512563 11.381 -0.0107275 11.5366 0.0182296 11.6875C0.0471868 11.8383 0.109923 11.9803 0.201563 12.1025C0.294066 12.2248 0.413141 12.3237 0.549457 12.3914C0.685774 12.459 0.835627 12.4936 0.987274 12.4924H4.78815L3.01048 19.2311C2.95224 19.4484 2.96778 19.6794 3.05458 19.8866C3.14139 20.0938 3.29437 20.265 3.48874 20.3726C3.68312 20.4803 3.90749 20.5179 4.12551 20.4795C4.34352 20.4411 4.54241 20.3288 4.68994 20.161L15.3953 8.16326C15.5227 8.02117 15.6072 7.84465 15.6386 7.65489C15.6699 7.46513 15.6468 7.27019 15.572 7.09347ZM5.9569 15.7718L7.00779 11.7726C7.04751 11.6243 7.05311 11.4687 7.02416 11.3178C6.9952 11.1669 6.93246 11.0249 6.84082 10.9027C6.74933 10.7817 6.63183 10.6837 6.49733 10.6161C6.36284 10.5485 6.21492 10.5132 6.06493 10.5128H2.29352L4.3953 2.49434H9.23724L7.98992 7.23344C7.94988 7.38447 7.9452 7.54295 7.97628 7.69615C8.00735 7.84935 8.0733 7.99299 8.16883 8.11553C8.26436 8.23806 8.3868 8.33606 8.5263 8.40165C8.66581 8.46725 8.81849 8.4986 8.97206 8.4932H12.4783L5.9569 15.7718Z"></path>
  </symbol>
  <symbol id="inyan" viewBox="0 0 20 21">
    <path d="M10 13.9941C9.80222 13.9941 9.60887 14.0528 9.44442 14.1627C9.27997 14.2726 9.1518 14.4287 9.07611 14.6115C9.00042 14.7942 8.98062 14.9952 9.0192 15.1892C9.05779 15.3832 9.15303 15.5614 9.29288 15.7012C9.43274 15.8411 9.61092 15.9363 9.80491 15.9749C9.99889 16.0135 10.2 15.9937 10.3827 15.918C10.5654 15.8423 10.7216 15.7142 10.8315 15.5497C10.9414 15.3853 11 15.1919 11 14.9941C11 14.7289 10.8947 14.4746 10.7071 14.287C10.5196 14.0995 10.2652 13.9941 10 13.9941ZM10 0.494143C9.81242 0.494137 9.62496 0.503649 9.43834 0.522643C6.83944 0.667267 4.39951 1.82016 2.63758 3.73608C0.875656 5.652 -0.0692183 8.17974 0.00395381 10.7816C0.0771259 13.3835 1.16257 15.8541 3.02939 17.668C4.89621 19.4819 7.39707 20.4958 10 20.4941C10.1876 20.4941 10.375 20.4846 10.5617 20.4656C13.1606 20.321 15.6005 19.1681 17.3624 17.2522C19.1243 15.3363 20.0692 12.8085 19.996 10.2067C19.9229 7.60482 18.8374 5.13417 16.9706 3.3203C15.1038 1.50643 12.6029 0.49248 10 0.494143ZM10 18.4941C8.37579 18.4964 6.78948 18.0036 5.45251 17.0813C4.11555 16.159 3.09145 14.8512 2.51673 13.3321C1.94202 11.813 1.84399 10.1548 2.23571 8.57853C2.62743 7.00229 3.49029 5.58288 4.70928 4.50952C4.47673 5.32674 4.43727 6.18682 4.594 7.0219C4.75073 7.85698 5.09937 8.64421 5.6124 9.32151C6.12544 9.9988 6.78884 10.5476 7.55027 10.9247C8.3117 11.3017 9.15033 11.4967 10 11.4941C10.9283 11.4941 11.8185 11.8629 12.4749 12.5193C13.1313 13.1756 13.5001 14.0659 13.5001 14.9941C13.5001 15.9224 13.1313 16.8126 12.4749 17.469C11.8185 18.1254 10.9283 18.4941 10 18.4941ZM15.2907 16.4788C15.5233 15.6615 15.5627 14.8015 15.406 13.9664C15.2493 13.1313 14.9006 12.3441 14.3876 11.6668C13.8746 10.9895 13.2112 10.4407 12.4497 10.0636C11.6883 9.68658 10.8497 9.49163 10 9.49414C9.07173 9.49414 8.18148 9.12539 7.52509 8.46901C6.86871 7.81264 6.49995 6.9224 6.49995 5.99414C6.49995 5.06588 6.86871 4.17565 7.52509 3.51927C8.18148 2.86289 9.07173 2.49414 10 2.49414C11.6242 2.49188 13.2105 2.98473 14.5475 3.90699C15.8845 4.82924 16.9086 6.1371 17.4833 7.65621C18.058 9.17531 18.156 10.8335 17.7643 12.4098C17.3726 13.986 16.5097 15.4054 15.2907 16.4788ZM10 4.99414C9.80222 4.99414 9.60887 5.05279 9.44442 5.16267C9.27997 5.27255 9.1518 5.42873 9.07611 5.61146C9.00042 5.79418 8.98062 5.99525 9.0192 6.18923C9.05779 6.38321 9.15303 6.5614 9.29288 6.70125C9.43274 6.8411 9.61092 6.93634 9.80491 6.97493C9.99889 7.01351 10.2 6.99371 10.3827 6.91802C10.5654 6.84233 10.7216 6.71416 10.8315 6.54971C10.9414 6.38526 11 6.19192 11 5.99414C11 5.72893 10.8947 5.47457 10.7071 5.28703C10.5196 5.0995 10.2652 4.99414 10 4.99414Z"></path>
  </symbol>
  <symbol id="info" viewBox="0 0 30 30">
    <path d="M15 8.75C14.6685 8.75 14.3505 8.8817 14.1161 9.11612C13.8817 9.35054 13.75 9.66848 13.75 10V15C13.75 15.3315 13.8817 15.6495 14.1161 15.8839C14.3505 16.1183 14.6685 16.25 15 16.25C15.3315 16.25 15.6495 16.1183 15.8839 15.8839C16.1183 15.6495 16.25 15.3315 16.25 15V10C16.25 9.66848 16.1183 9.35054 15.8839 9.11612C15.6495 8.8817 15.3315 8.75 15 8.75ZM16.15 19.525C16.1226 19.4453 16.0848 19.3697 16.0375 19.3L15.8875 19.1125C15.7117 18.9391 15.4885 18.8216 15.246 18.7748C15.0035 18.7281 14.7526 18.7543 14.525 18.85C14.3735 18.9133 14.234 19.0021 14.1125 19.1125C13.9967 19.2293 13.905 19.3678 13.8428 19.5201C13.7806 19.6724 13.7491 19.8355 13.75 20C13.752 20.1633 13.786 20.3247 13.85 20.475C13.9061 20.6301 13.9957 20.771 14.1124 20.8876C14.229 21.0043 14.3699 21.0939 14.525 21.15C14.6746 21.2161 14.8364 21.2503 15 21.2503C15.1636 21.2503 15.3254 21.2161 15.475 21.15C15.6301 21.0939 15.771 21.0043 15.8876 20.8876C16.0043 20.771 16.0939 20.6301 16.15 20.475C16.2141 20.3247 16.248 20.1633 16.25 20C16.2561 19.9168 16.2561 19.8332 16.25 19.75C16.2285 19.6703 16.1948 19.5944 16.15 19.525V19.525ZM15 2.5C12.5277 2.5 10.111 3.23311 8.05538 4.60663C5.99976 5.98015 4.39761 7.93238 3.45151 10.2165C2.50542 12.5005 2.25787 15.0139 2.74019 17.4386C3.2225 19.8634 4.41301 22.0907 6.16117 23.8388C7.90933 25.587 10.1366 26.7775 12.5614 27.2598C14.9861 27.7421 17.4995 27.4946 19.7835 26.5485C22.0676 25.6024 24.0199 24.0002 25.3934 21.9446C26.7669 19.889 27.5 17.4723 27.5 15C27.5 13.3585 27.1767 11.733 26.5485 10.2165C25.9203 8.69989 24.9996 7.3219 23.8388 6.16117C22.6781 5.00043 21.3001 4.07969 19.7835 3.45151C18.267 2.82332 16.6415 2.5 15 2.5V2.5ZM15 25C13.0222 25 11.0888 24.4135 9.4443 23.3147C7.79981 22.2159 6.51809 20.6541 5.76121 18.8268C5.00433 16.9996 4.8063 14.9889 5.19215 13.0491C5.57801 11.1093 6.53041 9.32746 7.92894 7.92893C9.32746 6.53041 11.1093 5.578 13.0491 5.19215C14.9889 4.8063 16.9996 5.00433 18.8268 5.7612C20.6541 6.51808 22.2159 7.79981 23.3147 9.4443C24.4135 11.0888 25 13.0222 25 15C25 17.6522 23.9464 20.1957 22.0711 22.0711C20.1957 23.9464 17.6522 25 15 25V25Z"></path>
  </symbol>
  <symbol id="upload" viewBox="0 0 18 18">
    <path d="M2.7 10.4C2.88565 10.4 3.0637 10.4738 3.19498 10.605C3.32625 10.7363 3.4 10.9143 3.4 11.1V13.9C3.4 14.0857 3.47375 14.2637 3.60503 14.395C3.7363 14.5263 3.91435 14.6 4.1 14.6H13.9C14.0857 14.6 14.2637 14.5263 14.395 14.395C14.5263 14.2637 14.6 14.0857 14.6 13.9V11.1C14.6 10.9143 14.6737 10.7363 14.805 10.605C14.9363 10.4738 15.1143 10.4 15.3 10.4C15.4857 10.4 15.6637 10.4738 15.795 10.605C15.9263 10.7363 16 10.9143 16 11.1V13.9C16 14.457 15.7788 14.9911 15.3849 15.3849C14.9911 15.7788 14.457 16 13.9 16H4.1C3.54305 16 3.0089 15.7788 2.61508 15.3849C2.22125 14.9911 2 14.457 2 13.9V11.1C2 10.9143 2.07375 10.7363 2.20502 10.605C2.3363 10.4738 2.51435 10.4 2.7 10.4ZM9.497 11.597C9.43043 11.6607 9.35193 11.7107 9.266 11.744C9.18221 11.781 9.09161 11.8002 9 11.8002C8.90839 11.8002 8.81779 11.781 8.734 11.744C8.64807 11.7107 8.56957 11.6607 8.503 11.597L5.703 8.797C5.57119 8.66519 5.49714 8.48641 5.49714 8.3C5.49714 8.11359 5.57119 7.93481 5.703 7.803C5.83481 7.67119 6.01359 7.59714 6.2 7.59714C6.38641 7.59714 6.56519 7.67119 6.697 7.803L8.3 9.413V2.7C8.3 2.51435 8.37375 2.3363 8.50503 2.20503C8.6363 2.07375 8.81435 2 9 2C9.18565 2 9.3637 2.07375 9.49497 2.20503C9.62625 2.3363 9.7 2.51435 9.7 2.7V9.413L11.303 7.803C11.3683 7.73773 11.4457 7.68596 11.531 7.65064C11.6163 7.61532 11.7077 7.59714 11.8 7.59714C11.8923 7.59714 11.9837 7.61532 12.069 7.65064C12.1542 7.68596 12.2317 7.73773 12.297 7.803C12.3623 7.86827 12.414 7.94575 12.4494 8.03102C12.4847 8.1163 12.5029 8.2077 12.5029 8.3C12.5029 8.3923 12.4847 8.4837 12.4494 8.56897C12.414 8.65425 12.3623 8.73173 12.297 8.797L9.497 11.597Z" fill="#FEFEFE"></path>
  </symbol>
  <symbol id="copy" viewBox="0 0 20 20">
    <path d="M17.5 7.45033C17.4913 7.37377 17.4746 7.29835 17.45 7.22533V7.15033C17.4099 7.06464 17.3565 6.98588 17.2917 6.91699V6.91699L12.2917 1.91699C12.2228 1.85217 12.144 1.79873 12.0583 1.75866C12.0335 1.75513 12.0082 1.75513 11.9833 1.75866C11.8987 1.71011 11.8052 1.67895 11.7083 1.66699H8.33333C7.67029 1.66699 7.03441 1.93038 6.56557 2.39923C6.09673 2.86807 5.83333 3.50395 5.83333 4.16699V5.00033H5C4.33696 5.00033 3.70107 5.26372 3.23223 5.73256C2.76339 6.2014 2.5 6.83728 2.5 7.50033V15.8337C2.5 16.4967 2.76339 17.1326 3.23223 17.6014C3.70107 18.0703 4.33696 18.3337 5 18.3337H11.6667C12.3297 18.3337 12.9656 18.0703 13.4344 17.6014C13.9033 17.1326 14.1667 16.4967 14.1667 15.8337V15.0003H15C15.663 15.0003 16.2989 14.7369 16.7678 14.2681C17.2366 13.7993 17.5 13.1634 17.5 12.5003V7.50033C17.5 7.50033 17.5 7.50033 17.5 7.45033ZM12.5 4.50866L14.6583 6.66699H13.3333C13.1123 6.66699 12.9004 6.57919 12.7441 6.42291C12.5878 6.26663 12.5 6.05467 12.5 5.83366V4.50866ZM12.5 15.8337C12.5 16.0547 12.4122 16.2666 12.2559 16.4229C12.0996 16.5792 11.8877 16.667 11.6667 16.667H5C4.77899 16.667 4.56702 16.5792 4.41074 16.4229C4.25446 16.2666 4.16667 16.0547 4.16667 15.8337V7.50033C4.16667 7.27931 4.25446 7.06735 4.41074 6.91107C4.56702 6.75479 4.77899 6.66699 5 6.66699H5.83333V12.5003C5.83333 13.1634 6.09673 13.7993 6.56557 14.2681C7.03441 14.7369 7.67029 15.0003 8.33333 15.0003H12.5V15.8337ZM15.8333 12.5003C15.8333 12.7213 15.7455 12.9333 15.5893 13.0896C15.433 13.2459 15.221 13.3337 15 13.3337H8.33333C8.11232 13.3337 7.90036 13.2459 7.74408 13.0896C7.5878 12.9333 7.5 12.7213 7.5 12.5003V4.16699C7.5 3.94598 7.5878 3.73402 7.74408 3.57774C7.90036 3.42146 8.11232 3.33366 8.33333 3.33366H10.8333V5.83366C10.8333 6.4967 11.0967 7.13259 11.5656 7.60143C12.0344 8.07027 12.6703 8.33366 13.3333 8.33366H15.8333V12.5003Z"></path>
  </symbol>
  <symbol id="plus" viewBox="0 0 16 16">
    <path fill-rule="evenodd" clip-rule="evenodd" d="M8 1C8.55229 1 9 1.44772 9 2V6.99996H14C14.5523 6.99996 15 7.44768 15 7.99996C15 8.55225 14.5523 8.99996 14 8.99996H9V14C9 14.5523 8.55229 15 8 15C7.44772 15 7 14.5523 7 14V8.99996H2C1.44772 8.99996 1 8.55225 1 7.99996C1 7.44768 1.44772 6.99996 2 6.99996H7V2C7 1.44772 7.44772 1 8 1Z"></path>
  </symbol>
  <symbol id="minus" viewBox="0 0 16 16">
    <path fill-rule="evenodd" clip-rule="evenodd" d="M1 8C1 7.44772 1.44772 7 2 7H14C14.5523 7 15 7.44772 15 8C15 8.55228 14.5523 9 14 9H2C1.44772 9 1 8.55228 1 8Z"></path>
  </symbol>
  <symbol id="calendar" viewBox="0 0 22 22">
    <path d="M17.3 3.8H15.5V2.9C15.5 2.66131 15.4052 2.43239 15.2364 2.2636C15.0676 2.09482 14.8387 2 14.6 2C14.3613 2 14.1324 2.09482 13.9636 2.2636C13.7948 2.43239 13.7 2.66131 13.7 2.9V3.8H8.3V2.9C8.3 2.66131 8.20518 2.43239 8.0364 2.2636C7.86761 2.09482 7.63869 2 7.4 2C7.1613 2 6.93239 2.09482 6.7636 2.2636C6.59482 2.43239 6.5 2.66131 6.5 2.9V3.8H4.7C3.98392 3.8 3.29716 4.08446 2.79081 4.59081C2.28446 5.09716 2 5.78392 2 6.5V17.3C2 18.0161 2.28446 18.7028 2.79081 19.2092C3.29716 19.7155 3.98392 20 4.7 20H17.3C18.0161 20 18.7028 19.7155 19.2092 19.2092C19.7155 18.7028 20 18.0161 20 17.3V6.5C20 5.78392 19.7155 5.09716 19.2092 4.59081C18.7028 4.08446 18.0161 3.8 17.3 3.8ZM18.2 17.3C18.2 17.5387 18.1052 17.7676 17.9364 17.9364C17.7676 18.1052 17.5387 18.2 17.3 18.2H4.7C4.46131 18.2 4.23239 18.1052 4.0636 17.9364C3.89482 17.7676 3.8 17.5387 3.8 17.3V11H18.2V17.3ZM18.2 9.2H3.8V6.5C3.8 6.2613 3.89482 6.03239 4.0636 5.8636C4.23239 5.69482 4.46131 5.6 4.7 5.6H6.5V6.5C6.5 6.73869 6.59482 6.96761 6.7636 7.1364C6.93239 7.30518 7.1613 7.4 7.4 7.4C7.63869 7.4 7.86761 7.30518 8.0364 7.1364C8.20518 6.96761 8.3 6.73869 8.3 6.5V5.6H13.7V6.5C13.7 6.73869 13.7948 6.96761 13.9636 7.1364C14.1324 7.30518 14.3613 7.4 14.6 7.4C14.8387 7.4 15.0676 7.30518 15.2364 7.1364C15.4052 6.96761 15.5 6.73869 15.5 6.5V5.6H17.3C17.5387 5.6 17.7676 5.69482 17.9364 5.8636C18.1052 6.03239 18.2 6.2613 18.2 6.5V9.2Z"></path>
  </symbol>
</svg>