<svg width="100" height="101" viewBox="0 0 100 101" fill="none" xmlns="http://www.w3.org/2000/svg">
<g clip-path="url(#clip0_2111_1993)">
<path d="M39.1887 31.5195L39.2182 31.5249C39.2244 31.5165 39.2308 31.5082 39.2373 31.5C39.2511 31.4821 39.2649 31.4644 39.2769 31.4454C39.342 31.3431 39.4071 31.2408 39.4723 31.1386C39.7 30.7812 39.9277 30.4239 40.151 30.0639C40.2054 29.9761 40.2617 29.9568 40.3554 29.9816C40.8016 30.1001 41.2487 30.2154 41.6958 30.3303C41.7761 30.351 41.857 30.3693 41.9379 30.3877C41.9751 30.3961 42.0122 30.4045 42.0493 30.4131L42.0659 30.3821L42.0373 30.3475C42.0188 30.3253 42.0005 30.3031 41.9821 30.2809L41.7269 29.972C41.4755 29.6681 41.2243 29.3641 40.9731 29.0601C40.8694 28.9345 40.8697 28.934 40.953 28.8029L40.9543 28.8007C41.2426 28.3464 41.5307 27.8919 41.8181 27.4368C41.8297 27.4184 41.8382 27.3981 41.8495 27.3711C41.8539 27.3606 41.8587 27.349 41.8642 27.3362L41.8672 27.3296L41.8697 27.3237L41.8718 27.3191L41.8614 27.3224L41.8507 27.3258L41.8379 27.3298L41.8295 27.3324L41.8185 27.3358C41.7925 27.3439 41.7739 27.3497 41.756 27.3567C41.6369 27.4039 41.5178 27.4509 41.3987 27.4979L41.3945 27.4997C41.0112 27.6509 40.628 27.8021 40.2468 27.9582C40.1422 28.0011 40.0797 27.9902 40.0072 27.9007C39.7311 27.5602 39.4507 27.2232 39.1702 26.8862L38.9852 26.6637C38.9659 26.6406 38.9436 26.6199 38.9213 26.5993C38.9109 26.5897 38.9006 26.5801 38.8905 26.5703C38.8864 26.8707 38.904 27.1572 38.9223 27.4435C38.9301 27.5649 38.938 27.6863 38.946 27.8077C38.9576 27.9842 38.9692 28.1606 38.9801 28.337C38.984 28.3997 38.9864 28.4571 38.906 28.488C38.5899 28.6097 38.275 28.7349 37.9602 28.86C37.8878 28.8887 37.8155 28.9175 37.7431 28.9463C37.6313 28.9906 37.5197 29.0358 37.4083 29.0809C37.3574 29.1015 37.3067 29.122 37.2559 29.1425L37.2571 29.1739C37.2624 29.1761 37.2676 29.1783 37.2729 29.1806C37.2779 29.1828 37.2829 29.185 37.2879 29.1873C37.3099 29.197 37.332 29.2068 37.355 29.2128C37.8861 29.3497 38.4172 29.4863 38.9491 29.6203C39.0279 29.6401 39.0652 29.6774 39.0701 29.7619C39.0976 30.2375 39.1284 30.7129 39.1592 31.1882L39.1594 31.1908L39.1651 31.2788C39.1687 31.3339 39.1746 31.3887 39.1807 31.4435C39.1834 31.4687 39.1862 31.4942 39.1887 31.5195Z" fill="#FEFEFE"/>
<path d="M44.1408 29.4943L44.1131 29.483C44.114 29.4733 44.115 29.4634 44.116 29.4537L44.118 29.4339L44.1204 29.4084L44.1206 29.4068C44.1259 29.352 44.1311 29.2971 44.1388 29.2425L44.1512 29.1539L44.1516 29.1513L44.1524 29.1457C44.2183 28.6763 44.2842 28.2068 44.3534 27.7379C44.3657 27.6541 44.3367 27.6101 44.2635 27.5747C43.7699 27.3357 43.2776 27.094 42.7853 26.8524C42.7639 26.8419 42.7443 26.8278 42.7247 26.8137C42.7156 26.8072 42.7065 26.8006 42.6973 26.7944L42.7025 26.7634C42.7564 26.7537 42.8102 26.7439 42.8641 26.734C42.9825 26.7125 43.1008 26.6909 43.2193 26.6701L43.4492 26.6296C43.7827 26.571 44.1169 26.5122 44.451 26.4572C44.5359 26.4432 44.5453 26.3865 44.5542 26.3244C44.5792 26.1492 44.6037 25.974 44.6282 25.7988L44.6473 25.662C44.6578 25.5872 44.6683 25.5125 44.6788 25.4377C44.7189 25.1535 44.7598 24.8695 44.8247 24.5762C44.83 24.584 44.8354 24.5919 44.841 24.5996L44.849 24.6108C44.8667 24.6355 44.8844 24.6602 44.8985 24.6868C44.9437 24.7718 44.989 24.8567 45.0342 24.9416C45.2405 25.3285 45.4471 25.716 45.6484 26.1054C45.7013 26.2077 45.7603 26.231 45.8714 26.2103C46.2778 26.1344 46.6853 26.0638 47.0927 25.9931C47.2189 25.9712 47.345 25.9494 47.4712 25.9273C47.4902 25.924 47.5093 25.9221 47.5365 25.9196C47.5521 25.9181 47.5702 25.9163 47.5923 25.9139C47.5795 25.9315 47.5692 25.9467 47.56 25.9601C47.5434 25.9844 47.5308 26.0027 47.5157 26.0184C47.1421 26.4057 46.7678 26.7924 46.3933 27.1788L46.3916 27.1806C46.2835 27.2921 46.2831 27.2925 46.3592 27.4366C46.5353 27.7698 46.7116 28.103 46.8878 28.4363L47.1611 28.9527L47.1387 28.9797L47.1194 28.9709L47.1016 28.9627C47.0793 28.9525 47.057 28.9423 47.0346 28.9321C46.9591 28.8978 46.8836 28.8634 46.8092 28.8269C46.3947 28.6237 45.9803 28.4201 45.5674 28.2137C45.4807 28.1704 45.4216 28.1779 45.3506 28.2528C45.0588 28.5601 44.7633 28.8639 44.4678 29.1677C44.3833 29.2546 44.2988 29.3415 44.2145 29.4284C44.1988 29.4444 44.1816 29.4591 44.1645 29.4737C44.1635 29.4746 44.1626 29.4754 44.1616 29.4763C44.1546 29.4822 44.1476 29.4882 44.1408 29.4943Z" fill="#FEFEFE"/>
<path d="M58.4238 30.0421L58.4413 30.0664C58.4517 30.0647 58.462 30.0632 58.4724 30.0617C58.4947 30.0584 58.517 30.0552 58.5388 30.0499C58.6565 30.0213 58.7742 29.9928 58.8918 29.9644C59.3037 29.8649 59.7161 29.7652 60.1266 29.6607C60.2267 29.6352 60.2807 29.6603 60.3309 29.7432C60.5703 30.138 60.8124 30.531 61.0548 30.9239C61.0984 30.9945 61.1439 31.0637 61.1895 31.1331C61.2104 31.1649 61.2314 31.1969 61.2522 31.2288L61.2856 31.218C61.2889 31.1742 61.2921 31.1305 61.2954 31.0869L61.3297 30.6341C61.3581 30.2586 61.3865 29.8831 61.4151 29.5076C61.4275 29.3452 61.428 29.3451 61.5789 29.3083L61.5813 29.3077C62.1042 29.1804 62.627 29.0527 63.1495 28.9241C63.1707 28.9189 63.1909 28.91 63.2179 28.8984C63.2263 28.8947 63.2359 28.8906 63.2459 28.8864C63.2533 28.8833 63.2613 28.8799 63.2699 28.8765C63.2501 28.8668 63.234 28.8587 63.2201 28.8517C63.1958 28.8394 63.1781 28.8306 63.1604 28.8233C63.1127 28.8037 63.065 28.7842 63.0173 28.7646C62.9466 28.7355 62.8758 28.7064 62.8051 28.6772L62.8034 28.6766C62.4216 28.5194 62.0396 28.3623 61.6559 28.2101C61.5509 28.1684 61.5133 28.1172 61.5232 28.0025C61.5603 27.5666 61.5918 27.1303 61.6234 26.6939L61.6237 26.6916C61.6306 26.5953 61.6376 26.4989 61.6446 26.4025C61.6469 26.3724 61.6451 26.3421 61.6432 26.3118C61.6424 26.2976 61.6416 26.2836 61.6412 26.2695C61.4299 26.4832 61.244 26.7017 61.0586 26.9207C60.9799 27.0137 60.9013 27.1067 60.8228 27.1999L60.8219 27.2009C60.7083 27.3356 60.5947 27.4703 60.4806 27.6046C60.4399 27.6523 60.4018 27.6953 60.3225 27.6619C60.0107 27.5305 59.6975 27.4025 59.3842 27.2745L59.3832 27.2741L59.1669 27.1856C59.0555 27.14 58.9438 27.0952 58.8322 27.0504C58.7813 27.03 58.7305 27.0096 58.6798 26.9891L58.6588 27.0126C58.6633 27.0228 58.6675 27.0332 58.6718 27.0436C58.6808 27.0659 58.6899 27.0883 58.7024 27.1085C58.9902 27.5754 59.278 28.0423 59.5683 28.5075C59.6113 28.5766 59.6124 28.6293 59.5573 28.6936C59.2467 29.0559 58.9387 29.4204 58.6307 29.7849L58.5737 29.8523C58.5382 29.8944 58.5045 29.938 58.4708 29.9817C58.4552 30.0018 58.4396 30.0221 58.4238 30.0421Z" fill="#FEFEFE"/>
<path d="M49.1001 28.9479L49.0739 28.9335C49.0761 28.9236 49.0783 28.9138 49.0804 28.904C49.0837 28.8889 49.087 28.8739 49.0902 28.8588C49.102 28.8049 49.1136 28.751 49.1277 28.6978L49.1502 28.6121C49.2717 28.1506 49.3932 27.6892 49.5179 27.2287C49.5401 27.1471 49.5164 27.0999 49.4479 27.0561C48.9859 26.7606 48.5254 26.4628 48.065 26.1648C48.045 26.1519 48.0272 26.1356 48.0094 26.1193C48.0012 26.1117 47.9929 26.1041 47.9844 26.0969L47.9932 26.0667L48.1506 26.057L48.1569 26.0566C48.2771 26.0491 48.3973 26.0416 48.5175 26.0349C48.5952 26.0306 48.6728 26.0262 48.7505 26.0218C49.0886 26.0028 49.4274 25.9838 49.7657 25.9684C49.8517 25.9645 49.8676 25.9094 49.8838 25.8487C49.9293 25.6778 49.9742 25.5067 50.0191 25.3356C50.05 25.218 50.0808 25.1004 50.1119 24.9829C50.1852 24.7054 50.2593 24.4282 50.3583 24.1445C50.3617 24.1514 50.3654 24.1582 50.369 24.1649L50.3733 24.1727L50.3783 24.1818C50.3929 24.2084 50.4076 24.235 50.4185 24.2631C50.4535 24.3532 50.4887 24.4432 50.5237 24.5332L50.5241 24.5343C50.6832 24.9422 50.8423 25.3502 50.9962 25.7602C51.0366 25.8679 51.0925 25.8981 51.2052 25.8906C51.6178 25.863 52.0308 25.8409 52.4438 25.8187C52.5716 25.8118 52.6994 25.8049 52.8273 25.7978C52.8464 25.7968 52.8658 25.7973 52.8931 25.7978C52.9086 25.7982 52.9268 25.7986 52.9491 25.7988C52.9426 25.8059 52.9365 25.8125 52.9309 25.8188C52.9239 25.8268 52.9174 25.8341 52.9115 25.841C52.8921 25.8631 52.8776 25.8797 52.8607 25.8935C52.4441 26.2341 52.0269 26.574 51.6095 26.9137L51.6076 26.9154C51.4871 27.0134 51.4867 27.0137 51.5453 27.1657C51.6853 27.5286 51.8254 27.8913 51.9655 28.2541L52.1632 28.7657L52.1377 28.7899C52.1052 28.7699 52.0726 28.7502 52.04 28.7304C51.9691 28.6874 51.8981 28.6444 51.8284 28.5994C51.4408 28.3487 51.0533 28.0978 50.6675 27.8442C50.5865 27.791 50.527 27.7915 50.4476 27.8574C50.1223 28.1278 49.7936 28.3943 49.465 28.6606L49.4634 28.6621C49.3692 28.7383 49.275 28.8147 49.181 28.8911C49.1636 28.9053 49.1448 28.9178 49.1261 28.9303L49.1158 28.9372C49.1151 28.9377 49.1145 28.9381 49.1138 28.9385C49.1092 28.9416 49.1046 28.9448 49.1001 28.9479Z" fill="#FEFEFE"/>
<path d="M53.7708 29.0806L53.794 29.0996C53.8035 29.0953 53.8131 29.0911 53.8227 29.087C53.8435 29.0781 53.8641 29.0692 53.8839 29.0585C53.9902 29.0006 54.0968 28.9429 54.2032 28.885C54.5754 28.683 54.9485 28.4806 55.3183 28.274C55.4084 28.2237 55.467 28.2341 55.5369 28.3012C55.8697 28.6211 56.2048 28.9387 56.5401 29.2561C56.6003 29.3131 56.6622 29.3684 56.7241 29.4237C56.7525 29.4491 56.7809 29.4744 56.8092 29.5L56.8387 29.4809C56.8307 29.4378 56.8226 29.3948 56.8145 29.3517L56.7369 28.936C56.6659 28.5556 56.5949 28.1752 56.524 27.7948C56.4941 27.6347 56.4946 27.6344 56.631 27.5601L56.6332 27.5588C57.1058 27.3013 57.5781 27.0435 58.05 26.7848C58.0691 26.7744 58.0864 26.7606 58.1095 26.7424C58.1222 26.7323 58.1367 26.7209 58.1541 26.7078C58.1323 26.7035 58.1145 26.6998 58.0993 26.6967C58.0726 26.6911 58.0536 26.6871 58.0345 26.6846C57.9076 26.6682 57.7807 26.6516 57.6536 26.6349C57.2437 26.5811 56.8335 26.5274 56.423 26.479C56.3107 26.4657 56.2613 26.4259 56.2413 26.3125C56.165 25.8809 56.0831 25.4502 56.0012 25.0196L55.9473 24.7351C55.9416 24.7055 55.9321 24.6766 55.9226 24.6478C55.9182 24.6344 55.9138 24.621 55.9097 24.6074C55.7606 24.8682 55.637 25.1273 55.5142 25.3866C55.4621 25.4965 55.4102 25.6066 55.3583 25.7167C55.2829 25.8766 55.2074 26.0364 55.1315 26.196C55.1045 26.2527 55.0787 26.304 54.9935 26.2921C54.659 26.2454 54.324 26.2024 53.989 26.1593L53.9859 26.1589L53.7542 26.1291C53.6348 26.1137 53.5152 26.0991 53.3957 26.0844L53.233 26.0644L53.2188 26.0925C53.2213 26.0958 53.2239 26.099 53.2264 26.1022C53.2294 26.1061 53.2325 26.1101 53.2354 26.1141L53.2392 26.1192C53.2538 26.1384 53.2683 26.1577 53.2855 26.174C53.6837 26.5512 54.0819 26.9283 54.4821 27.3033C54.5414 27.3589 54.556 27.4096 54.5193 27.4859C54.3122 27.9162 54.1082 28.348 53.9041 28.7798L53.8669 28.8587C53.8433 28.9084 53.822 28.9592 53.8007 29.0101C53.7908 29.0336 53.7809 29.0571 53.7708 29.0806Z" fill="#FEFEFE"/>
<path d="M35.2229 40.0432C36.343 41.2926 36.9031 43.0913 36.9031 45.4394H32.4439C32.4439 45.0085 32.3901 44.567 32.2824 44.1146C32.1962 43.6622 32.0454 43.2529 31.83 42.8866C31.6146 42.499 31.3345 42.1866 30.9899 41.9496C30.6668 41.6911 30.2682 41.5618 29.7943 41.5618C28.6741 41.5618 27.8663 42.1866 27.3708 43.436C26.8754 44.6854 26.6277 46.7534 26.6277 49.64C26.6277 51.0187 26.6707 52.2681 26.7569 53.3884C26.843 54.5085 26.9939 55.4671 27.2093 56.2642C27.4463 57.0397 27.7694 57.6428 28.1787 58.0737C28.6095 58.483 29.1588 58.6876 29.8266 58.6876C30.1067 58.6876 30.4082 58.6123 30.7314 58.4614C31.076 58.3107 31.3884 58.0845 31.6684 57.7828C31.9701 57.4813 32.2177 57.1043 32.4116 56.6519C32.6055 56.178 32.7025 55.6287 32.7025 55.004V52.6452H29.6327V49.2199H37.1616V61.6604H33.7364V59.5278H33.6719C33.1117 60.4325 32.4332 61.0788 31.6361 61.4666C30.8606 61.8328 29.9235 62.0158 28.8249 62.0158C27.4031 62.0158 26.2399 61.7681 25.3351 61.2727C24.452 60.7772 23.7518 60.0124 23.2348 58.9785C22.7393 57.9444 22.4054 56.6735 22.2331 55.1656C22.0608 53.6361 21.9746 51.8696 21.9746 49.8662C21.9746 47.9275 22.0931 46.2256 22.3301 44.7609C22.5886 43.296 23.0194 42.0789 23.6225 41.1094C24.2258 40.1185 25.0228 39.3753 26.0137 38.8799C27.0046 38.3844 28.2433 38.1367 29.7297 38.1367C32.2716 38.1367 34.1027 38.7722 35.2229 40.0432Z" fill="#FEFEFE"/>
<path d="M50.4628 54.8735L47.1669 38.5879H40.252V61.6592H44.5172V43.2409H44.5819L48.6856 61.6592H52.3046L56.4083 43.2409H56.4729V61.6592H60.7382V38.5879H53.8557L50.5274 54.8735H50.4628Z" fill="#FEFEFE"/>
<path fill-rule="evenodd" clip-rule="evenodd" d="M74.2205 52.03C73.3157 52.31 72.314 52.45 71.2154 52.45H68.7273V61.6592H64.0742V38.5879H72.2171C73.4019 38.5879 74.3928 38.7925 75.1898 39.2018C76.0084 39.5895 76.6655 40.1066 77.1609 40.7528C77.6564 41.399 78.0118 42.1423 78.2273 42.9824C78.4426 43.8009 78.5504 44.6411 78.5504 45.5028C78.5504 46.6876 78.3673 47.7216 78.0011 48.6048C77.6564 49.4881 77.1609 50.2097 76.5147 50.7698C75.89 51.3299 75.1252 51.75 74.2205 52.03ZM73.1541 42.9177C72.6587 42.3146 71.8293 42.013 70.666 42.013H68.7273V49.0249H70.7953C71.7217 49.0249 72.4648 48.7448 73.0249 48.1848C73.6065 47.6247 73.8974 46.7522 73.8974 45.5674C73.8974 44.4042 73.6496 43.5209 73.1541 42.9177Z" fill="#FEFEFE"/>
<path d="M40.3878 66.7238C40.4611 66.8589 40.4977 67.0767 40.4977 67.3776H41.3308C41.3308 67.2271 41.3192 67.0671 41.2961 66.8974C41.2768 66.7239 41.2247 66.5638 41.1399 66.4173C41.0551 66.2668 40.9258 66.1434 40.7523 66.0471C40.5826 65.9506 40.3493 65.9023 40.0523 65.9023C39.7399 65.9023 39.4911 65.9564 39.306 66.0643C39.1209 66.1685 38.9782 66.3151 38.8779 66.504C38.7815 66.693 38.7179 66.9206 38.687 67.1867C38.66 67.449 38.6465 67.7362 38.6465 68.0487C38.6465 68.3649 38.66 68.6542 38.687 68.9164C38.7179 69.1787 38.7815 69.4043 38.8779 69.5933C38.9782 69.7823 39.1209 69.9269 39.306 70.0271C39.4911 70.1275 39.7399 70.1776 40.0523 70.1776C40.3262 70.1776 40.5479 70.1352 40.7176 70.0503C40.8911 69.9655 41.0242 69.8479 41.1167 69.6974C41.2132 69.547 41.2787 69.3715 41.3134 69.171C41.3481 68.9704 41.3655 68.7583 41.3655 68.5346H40.5324C40.5324 68.7583 40.519 68.9395 40.4919 69.0784C40.465 69.2134 40.4283 69.3195 40.382 69.3966C40.3357 69.4699 40.2799 69.52 40.2143 69.547C40.1526 69.5702 40.0851 69.5817 40.0118 69.5817C39.9231 69.5817 39.844 69.5643 39.7746 69.5296C39.709 69.4911 39.6531 69.4197 39.6068 69.3156C39.5644 69.2076 39.5316 69.0572 39.5085 68.8643C39.4892 68.6715 39.4795 68.4189 39.4795 68.1065C39.4795 67.8134 39.4873 67.5666 39.5027 67.366C39.5181 67.1616 39.5452 66.9977 39.5837 66.8742C39.6223 66.747 39.6743 66.6564 39.7399 66.6024C39.8093 66.5445 39.8961 66.5156 40.0002 66.5156C40.1892 66.5156 40.3184 66.585 40.3878 66.7238Z" fill="#FEFEFE"/>
<path fill-rule="evenodd" clip-rule="evenodd" d="M46.9757 66.2505C46.7829 66.0731 46.5129 65.9844 46.1658 65.9844H44.627V70.1149H45.46V68.3678H45.9055C46.079 68.3678 46.2024 68.4141 46.2757 68.5067C46.349 68.5992 46.3895 68.7265 46.3972 68.8885L46.4203 69.6811C46.4242 69.7621 46.4319 69.8411 46.4435 69.9183C46.4551 69.9916 46.4821 70.0571 46.5245 70.1149H47.427V70.0803C47.3498 70.0378 47.2997 69.9588 47.2765 69.8431C47.2611 69.7273 47.2495 69.5596 47.2418 69.3397C47.2379 69.2279 47.2341 69.1277 47.2303 69.0389C47.2264 68.9464 47.2206 68.8616 47.2129 68.7845C47.1898 68.5531 47.13 68.3852 47.0336 68.2811C46.9371 68.1769 46.7848 68.1095 46.5765 68.0786V68.067C46.8118 68.0169 46.9854 67.905 47.0972 67.7315C47.209 67.5541 47.265 67.3266 47.265 67.0489C47.265 66.6902 47.1685 66.424 46.9757 66.2505ZM46.2699 67.6505C46.1619 67.7431 46.0077 67.7893 45.8071 67.7893H45.46V66.5976H45.8534C46.2391 66.5976 46.4319 66.7885 46.4319 67.1703C46.4319 67.394 46.3779 67.5541 46.2699 67.6505Z" fill="#FEFEFE"/>
<path fill-rule="evenodd" clip-rule="evenodd" d="M61.0711 66.129C60.8938 66.0326 60.6604 65.9844 60.3711 65.9844H59.0059V70.1149H60.3191C60.5968 70.1149 60.8263 70.0726 61.0075 69.9878C61.1888 69.9029 61.3335 69.7736 61.4414 69.6001C61.5494 69.4266 61.6246 69.2067 61.667 68.9406C61.7133 68.6707 61.7364 68.3544 61.7364 67.9918C61.7364 67.6872 61.7191 67.4114 61.6844 67.1645C61.6497 66.9178 61.5822 66.7075 61.4819 66.534C61.3855 66.3566 61.2486 66.2216 61.0711 66.129ZM60.5621 69.4265C60.4734 69.4767 60.3558 69.5017 60.2092 69.5017H59.8389V66.5976H60.1918C60.35 66.5976 60.4753 66.6285 60.5678 66.6902C60.6643 66.748 60.7356 66.8368 60.7819 66.9564C60.8321 67.0721 60.8649 67.2186 60.8802 67.3959C60.8957 67.5734 60.9034 67.7797 60.9034 68.015C60.9034 68.2965 60.8938 68.5318 60.8745 68.7207C60.8591 68.9097 60.8244 69.0621 60.7703 69.1778C60.7202 69.2935 60.6508 69.3764 60.5621 69.4265Z" fill="#FEFEFE"/>
<path d="M48.9574 80.5281L56.0488 72.2637L49.1813 76.9417L44.4785 75.8502L48.9574 80.5281Z" fill="#FEFEFE"/>
<path d="M41.8418 65.9844H44.1501V66.667H42.6749V67.6389H44.0633V68.3216H42.6749V69.4323H44.2079V70.1149H41.8418V65.9844Z" fill="#FEFEFE"/>
<path d="M47.5195 65.9844H50.1575V66.667H49.2551V70.1149H48.422V66.667H47.5195V65.9844Z" fill="#FEFEFE"/>
<path d="M50.5586 70.1149H51.3917V65.9844H50.5586V70.1149Z" fill="#FEFEFE"/>
<path d="M52.8428 70.1149H52.0098V65.9844H54.318V66.667H52.8428V67.6389H54.2313V68.3216H52.8428V70.1149Z" fill="#FEFEFE"/>
<path d="M54.7285 70.1149H55.5616V65.9844H54.7285V70.1149Z" fill="#FEFEFE"/>
<path d="M56.1797 65.9844H58.488V66.667H57.0127V67.6389H58.4012V68.3216H57.0127V69.4323H58.5458V70.1149H56.1797V65.9844Z" fill="#FEFEFE"/>
<path fill-rule="evenodd" clip-rule="evenodd" d="M50.2384 85.9631C69.865 85.9631 85.7756 70.0525 85.7756 50.4259C85.7756 30.7993 69.865 14.8887 50.2384 14.8887C30.6118 14.8887 14.7012 30.7993 14.7012 50.4259C14.7012 70.0525 30.6118 85.9631 50.2384 85.9631ZM50.2384 84.3102C68.9522 84.3102 84.1227 69.1397 84.1227 50.4259C84.1227 31.7121 68.9522 16.5416 50.2384 16.5416C31.5246 16.5416 16.3541 31.7121 16.3541 50.4259C16.3541 69.1397 31.5246 84.3102 50.2384 84.3102Z" fill="#FEFEFE"/>
<path fill-rule="evenodd" clip-rule="evenodd" d="M99.8259 50.4266C99.8259 77.8127 77.6252 100.013 50.2391 100.013C22.8531 100.013 0.652344 77.8127 0.652344 50.4266C0.652344 23.0406 22.8531 0.839844 50.2391 0.839844C77.6252 0.839844 99.8259 23.0406 99.8259 50.4266ZM98.173 50.4266C98.173 76.8998 76.7123 98.3605 50.2391 98.3605C23.766 98.3605 2.30524 76.8998 2.30524 50.4266C2.30524 23.9535 23.766 2.49274 50.2391 2.49274C76.7123 2.49274 98.173 23.9535 98.173 50.4266Z" fill="#FEFEFE"/>
<path d="M6.73392 51.8413L6.66187 50.4243C5.91569 50.4622 5.35313 50.6693 4.97418 51.0455C4.58839 51.422 4.41603 52.0141 4.4571 52.8219C4.48111 53.2942 4.57986 53.6839 4.75332 53.9907C4.92678 54.2977 5.17583 54.5389 5.50048 54.7146C5.81828 54.8906 6.21202 55.0078 6.68169 55.0664C7.15102 55.1179 7.69375 55.1281 8.30986 55.0968C8.94646 55.0645 9.50646 55.0085 9.98969 54.929C10.4661 54.8499 10.8646 54.7232 11.1852 54.5491C11.5055 54.3681 11.7371 54.1332 11.8803 53.8445C12.0232 53.5491 12.0831 53.1754 12.0601 52.7235C12.0423 52.3745 11.969 52.0796 11.8401 51.8391C11.704 51.5921 11.4877 51.3869 11.1911 51.2236L11.1901 51.203L11.8678 51.1685L11.8124 50.0801L7.8591 50.2811L7.98075 52.6736L9.06919 52.6183L9.0196 51.6428L9.76919 51.6046C9.9677 51.5945 10.1438 51.6165 10.2976 51.6704C10.4445 51.7248 10.5683 51.7974 10.669 51.8883C10.7694 51.9725 10.8463 52.0681 10.8998 52.1752C10.9529 52.2755 10.9818 52.3701 10.9863 52.459C10.997 52.6712 10.9409 52.8491 10.8178 52.9926C10.6875 53.1297 10.501 53.2421 10.2584 53.3299C10.0086 53.4112 9.70646 53.4747 9.35183 53.5202C8.99729 53.5656 8.60092 53.5995 8.1628 53.6218C7.24549 53.6684 6.5843 53.6231 6.17925 53.4859C5.7742 53.3486 5.56261 53.102 5.54451 52.746C5.53686 52.5955 5.57149 52.4667 5.64842 52.3598C5.71815 52.2464 5.81289 52.1524 5.93263 52.0777C6.04553 52.0033 6.17316 51.9488 6.31553 51.9141C6.45754 51.8726 6.597 51.8483 6.73392 51.8413Z" fill="#FEFEFE"/>
<path d="M8.28253 47.8992C7.79089 47.8561 7.37527 47.8094 7.03565 47.759C6.69662 47.7018 6.42084 47.6295 6.20832 47.542C5.99639 47.4478 5.84831 47.3316 5.76408 47.1935C5.67361 47.048 5.63794 46.8659 5.65708 46.6474C5.67622 46.429 5.74269 46.2593 5.85648 46.1386C5.96403 46.0103 6.13006 45.9217 6.35455 45.8725C6.57963 45.8166 6.86378 45.7933 7.20698 45.8027C7.55079 45.8053 7.96852 45.8281 8.46016 45.8711C8.95179 45.9143 9.37055 45.9647 9.71641 46.0225C10.056 46.0729 10.3318 46.1452 10.5437 46.2395C10.7494 46.3263 10.8975 46.4425 10.988 46.588C11.0722 46.7261 11.1048 46.9044 11.0856 47.123C11.0665 47.3414 11.0031 47.5148 10.8956 47.643C10.7818 47.7637 10.6158 47.8524 10.3975 47.909C10.173 47.9581 9.88889 47.9814 9.54509 47.9788C9.19501 47.9688 8.77417 47.9423 8.28253 47.8992ZM8.15335 49.3741C8.71327 49.4231 9.22749 49.4441 9.696 49.437C10.1651 49.423 10.5744 49.3454 10.924 49.2039C11.2741 49.0557 11.5523 48.8255 11.7586 48.5133C11.9648 48.2011 12.0921 47.7684 12.1405 47.2154C12.1891 46.6622 12.1388 46.214 11.99 45.8707C11.8412 45.5274 11.6069 45.2558 11.2873 45.0558C10.9682 44.8489 10.5786 44.7012 10.1186 44.6128C9.65898 44.5175 9.14922 44.4453 8.58934 44.3963C8.03624 44.3478 7.52515 44.3306 7.05603 44.3445C6.5807 44.3511 6.16795 44.4284 5.81782 44.5767C5.46827 44.7181 5.18697 44.9446 4.97389 45.2562C4.75399 45.5672 4.61982 45.9992 4.57137 46.5524C4.52293 47.1054 4.57996 47.5543 4.74244 47.8987C4.8981 48.2427 5.13545 48.5181 5.45448 48.7249C5.77412 48.9249 6.16712 49.0729 6.6335 49.1687C7.09364 49.2573 7.60025 49.3257 8.15335 49.3741Z" fill="#FEFEFE"/>
<path d="M9.02697 42.2402C8.54572 42.1307 8.14031 42.0279 7.81069 41.9318C7.4826 41.829 7.21923 41.7198 7.02057 41.6043C6.82343 41.4821 6.69253 41.3468 6.62786 41.1986C6.55803 41.0421 6.54746 40.8569 6.59614 40.643C6.64482 40.4292 6.73374 40.2701 6.8629 40.166C6.98689 40.0536 7.16343 39.9883 7.39251 39.9701C7.62312 39.9453 7.90779 39.961 8.24653 40.0169C8.58679 40.0663 8.99755 40.1457 9.47871 40.2552C9.95995 40.3648 10.368 40.4717 10.7028 40.576C11.0323 40.6721 11.2957 40.7812 11.4928 40.9034C11.6848 41.0174 11.8157 41.1527 11.8856 41.3092C11.9502 41.4575 11.9582 41.6386 11.9095 41.8524C11.8609 42.0663 11.7745 42.2294 11.6505 42.3418C11.5214 42.4459 11.3448 42.5112 11.1209 42.5376C10.8918 42.5558 10.6071 42.5401 10.2669 42.4908C9.92144 42.4333 9.50813 42.3497 9.02697 42.2402ZM8.69836 43.6839C9.24639 43.8087 9.75301 43.8993 10.2181 43.956C10.6847 44.0059 11.1009 43.9847 11.4664 43.8921C11.8334 43.7929 12.1404 43.6026 12.3871 43.3214C12.6339 43.0401 12.819 42.6288 12.9422 42.0874C13.0654 41.5461 13.0766 41.0952 12.9758 40.7349C12.8751 40.3745 12.68 40.0735 12.3905 39.8319C12.1026 39.5835 11.7367 39.3843 11.2928 39.234C10.8505 39.0772 10.3554 38.9363 9.8073 38.8115C9.26598 38.6883 8.76196 38.6018 8.2953 38.5518C7.82349 38.4936 7.40406 38.5141 7.03702 38.6134C6.67149 38.7059 6.362 38.892 6.10853 39.1718C5.84837 39.45 5.65668 39.8598 5.53345 40.4011C5.41024 40.9425 5.40569 41.3949 5.51981 41.7583C5.62725 42.1202 5.82493 42.4253 6.11287 42.6736C6.40234 42.9153 6.77157 43.1153 7.22056 43.2737C7.66439 43.4239 8.157 43.5606 8.69836 43.6839Z" fill="#FEFEFE"/>
<path d="M13.0608 37.3538L8.24043 35.5089L8.46462 34.9232C8.56507 34.6607 8.69592 34.4723 8.85714 34.3578C9.01446 34.2346 9.20702 34.1725 9.43487 34.1716C9.65876 34.1618 9.92281 34.2006 10.2271 34.2877C10.5314 34.3747 10.8788 34.4931 11.2693 34.6425C11.7366 34.8213 12.121 34.9868 12.4224 35.1389C12.7263 35.2846 12.9571 35.439 13.1148 35.6021C13.275 35.7588 13.3686 35.9267 13.3955 36.1058C13.4223 36.2849 13.3892 36.4961 13.296 36.7393L13.0608 37.3538ZM6.69336 36.5021L13.5495 39.1262L14.3837 36.9464C14.5602 36.4855 14.6355 36.0776 14.6098 35.7229C14.5841 35.3681 14.4616 35.046 14.2421 34.7565C14.0226 34.467 13.7055 34.2025 13.2907 33.963C12.8721 33.7147 12.3618 33.4754 11.7601 33.2451C11.2544 33.0515 10.7856 32.9051 10.3539 32.8059C9.92206 32.7067 9.53033 32.6852 9.17859 32.7414C8.82283 32.7888 8.51179 32.9303 8.24544 33.1659C7.9727 33.3991 7.74445 33.7558 7.5607 34.236L6.69336 36.5021Z" fill="#FEFEFE"/>
<path d="M10.4082 27.9571L16.5122 32.0356L17.2661 30.9071L12.3932 27.6512L12.4046 27.6341L18.003 29.8043L18.6428 28.8469L14.4953 24.5052L14.5067 24.4881L19.3797 27.744L20.1337 26.6155L14.0297 22.5371L12.813 24.358L16.5333 28.1175L16.5219 28.1346L11.6306 26.1277L10.4082 27.9571Z" fill="#FEFEFE"/>
<path d="M20.6397 22.0455L17.7396 20.3179L17.7255 20.333L19.6597 23.0998L20.6397 22.0455ZM17.4219 18.7871L24.1216 22.3625L23.0715 23.492L21.7034 22.6834L20.3732 24.1141L21.2793 25.4197L20.2292 26.5493L16.1758 20.1275L17.4219 18.7871Z" fill="#FEFEFE"/>
<path d="M20.8825 15.5769L19.5586 16.6542L24.1921 22.3483L25.2448 21.4917L22.0001 17.5042L22.016 17.4912L26.6643 20.3366L27.9722 19.2723L23.3388 13.5781L22.2861 14.4347L25.4594 18.3346L25.4435 18.3475L20.8825 15.5769Z" fill="#FEFEFE"/>
<path d="M25.8139 11.9773L24.5488 12.7466L27.2092 17.1215C27.4656 17.5431 27.7297 17.8519 28.0011 18.0478C28.2727 18.2437 28.5467 18.3578 28.8231 18.3903C29.096 18.4169 29.3668 18.3805 29.6354 18.2815C29.904 18.1823 30.1672 18.0543 30.4249 17.8977C30.6825 17.7409 30.9154 17.5632 31.1235 17.3644C31.3316 17.1658 31.483 16.9333 31.5778 16.667C31.6726 16.4008 31.6973 16.105 31.6519 15.7796C31.6029 15.4484 31.4573 15.0837 31.2151 14.6854L28.5548 10.3105L27.2897 11.0798L29.9502 15.4547C30.0463 15.6129 30.1236 15.7663 30.1821 15.9153C30.2429 16.0548 30.2742 16.1922 30.2762 16.3274C30.2805 16.4531 30.2535 16.5738 30.1955 16.6893C30.1339 16.7991 30.0268 16.9001 29.8746 16.9928C29.7282 17.0818 29.5892 17.1302 29.4576 17.1381C29.3283 17.1365 29.2058 17.1067 29.0902 17.0486C28.977 16.981 28.8695 16.89 28.7677 16.7754C28.6683 16.6514 28.5704 16.5103 28.4742 16.3522L25.8139 11.9773Z" fill="#FEFEFE"/>
<path d="M29.8828 9.65496L32.8688 16.3614L34.2213 15.7592L32.9249 12.8474L35.1792 11.8437L34.6857 10.7354L32.4314 11.7391L31.7288 10.1611L34.1241 9.09472L33.6306 7.98633L29.8828 9.65496Z" fill="#FEFEFE"/>
<path d="M38.9448 11.0809L37.3112 8.12665L37.2915 8.13259L37.5669 11.4972L38.9448 11.0809ZM37.8086 6.64453L41.7918 13.11L40.3155 13.556L39.5417 12.1679L37.6717 12.7329L37.7959 14.3172L36.3195 14.7632L36.0566 7.1738L37.8086 6.64453Z" fill="#FEFEFE"/>
<path d="M44.195 7.83883L45.6569 7.60464C45.6147 7.34069 45.5494 7.06305 45.461 6.77176C45.3784 6.47261 45.242 6.20636 45.0519 5.97302C44.8608 5.73292 44.5994 5.55266 44.2676 5.43225C43.9428 5.31074 43.5197 5.29173 42.9985 5.37522C42.4504 5.46304 42.029 5.62772 41.7345 5.86927C41.4389 6.10406 41.2296 6.40135 41.1068 6.76119C40.9907 7.11993 40.943 7.53714 40.9637 8.01282C40.99 8.48064 41.0471 8.98864 41.1349 9.5369C41.2238 10.0919 41.3288 10.5957 41.4499 11.0484C41.5778 11.4999 41.7529 11.878 41.9752 12.1825C42.2043 12.486 42.4954 12.6996 42.8485 12.8236C43.2015 12.9475 43.6522 12.9656 44.2004 12.8777C44.6809 12.8008 45.0582 12.664 45.3321 12.4674C45.6128 12.2697 45.8133 12.0258 45.9334 11.7359C46.0604 11.4448 46.1261 11.1184 46.1306 10.7567C46.1352 10.395 46.106 10.0179 46.0431 9.62533L44.5812 9.85954C44.6441 10.2521 44.6714 10.574 44.663 10.8252C44.6535 11.0697 44.619 11.2662 44.5595 11.4145C44.4989 11.5561 44.4148 11.6598 44.3074 11.7256C44.2056 11.7836 44.0904 11.8229 43.9619 11.8434C43.8061 11.8684 43.6625 11.8601 43.5309 11.8187C43.4051 11.7695 43.2868 11.66 43.1764 11.4903C43.0715 11.3127 42.9718 11.058 42.8769 10.7261C42.7889 10.3931 42.7009 9.95244 42.6131 9.40425C42.5307 8.88987 42.4748 8.45452 42.4456 8.09824C42.4152 7.73519 42.4165 7.43995 42.4495 7.21253C42.4814 6.97834 42.5472 6.80464 42.6471 6.69146C42.7527 6.57042 42.8969 6.49526 43.0796 6.46599C43.4113 6.41287 43.6575 6.49838 43.8184 6.72252C43.9849 6.9388 44.1104 7.31091 44.195 7.83883Z" fill="#FEFEFE"/>
<path d="M51.1705 4.90039L46.4844 5.04824L46.5226 6.26088L48.1258 6.2103L48.319 12.3351L49.7988 12.2885L49.6056 6.16361L51.2088 6.11304L51.1705 4.90039Z" fill="#FEFEFE"/>
<path d="M53.6557 5.07598L52.1818 4.93555L51.6961 10.0328C51.6494 10.524 51.6761 10.9294 51.7765 11.2488C51.8769 11.5682 52.0282 11.8236 52.2303 12.015C52.433 12.1996 52.6717 12.3325 52.9462 12.4138C53.2208 12.495 53.5082 12.55 53.8085 12.5786C54.1087 12.6072 54.4016 12.6041 54.6872 12.5693C54.9728 12.5346 55.2332 12.4389 55.4685 12.2823C55.7038 12.1257 55.9005 11.9034 56.0588 11.6155C56.2177 11.3208 56.3193 10.9414 56.3635 10.4775L56.8492 5.38026L55.3752 5.23982L54.8896 10.3371C54.872 10.5213 54.8422 10.6905 54.7999 10.8449C54.7651 10.9931 54.708 11.1219 54.6288 11.2314C54.557 11.3348 54.4632 11.4153 54.3475 11.4731C54.2325 11.5242 54.0863 11.5412 53.9089 11.5243C53.7383 11.5081 53.598 11.4637 53.4878 11.3912C53.3851 11.3126 53.3048 11.2154 53.247 11.0997C53.1966 10.9779 53.165 10.8406 53.152 10.6879C53.1465 10.529 53.1525 10.3574 53.17 10.1732L53.6557 5.07598Z" fill="#FEFEFE"/>
<path d="M58.3275 5.62305L56.6445 12.7687L58.0857 13.1081L58.7975 10.0857L59.5681 10.2672C59.8683 10.3379 60.063 10.4683 60.152 10.6583C60.2411 10.8483 60.2593 11.085 60.2067 11.3683L59.9238 12.7488C59.8974 12.8905 59.8786 13.0304 59.8671 13.1685C59.8573 13.3 59.8773 13.4245 59.9271 13.5418L61.4883 13.9095L61.5025 13.8495C61.3863 13.7446 61.3318 13.5874 61.3389 13.3778C61.3593 13.1714 61.4077 12.8764 61.484 12.4931C61.5229 12.298 61.557 12.123 61.5865 11.9679C61.6175 11.8062 61.6421 11.6571 61.6601 11.5205C61.7144 11.1107 61.6794 10.7962 61.555 10.5768C61.4306 10.3574 61.1946 10.1785 60.8469 10.0402L60.8516 10.0202C61.279 10.0293 61.6249 9.90661 61.889 9.6519C62.1548 9.39058 62.3443 9.01975 62.4574 8.53935C62.6035 7.91886 62.5452 7.41922 62.2823 7.04041C62.021 6.65493 61.5901 6.39148 60.9897 6.25005L58.3275 5.62305ZM59.0332 9.08496L59.5188 7.02331L60.1993 7.18359C60.8665 7.34074 61.1223 7.74957 60.9668 8.41009C60.8756 8.79702 60.717 9.05198 60.4909 9.17471C60.2663 9.29091 59.9806 9.3081 59.6337 9.22636L59.0332 9.08496Z" fill="#FEFEFE"/>
<path d="M61.9258 14.1371L63.3254 14.62L65.7193 7.68008L64.3197 7.19727L61.9258 14.1371Z" fill="#FEFEFE"/>
<path d="M68.7875 8.92716L67.2401 8.20703L64.1426 14.8627L65.373 15.4353L67.5422 10.7745L67.5608 10.7832L67.0322 16.2076L68.561 16.919L71.6585 10.2634L70.428 9.69072L68.3066 14.249L68.288 14.2403L68.7875 8.92716Z" fill="#FEFEFE"/>
<path d="M74.56 14.6313L75.7511 15.4023C76.1571 14.7751 76.3185 14.1978 76.2353 13.6704C76.1559 13.1371 75.7766 12.6508 75.0977 12.2113C74.7006 11.9542 74.3269 11.8063 73.9765 11.7673C73.6262 11.7283 73.2848 11.789 72.9523 11.9494C72.6236 12.1041 72.2981 12.3547 71.9758 12.7013C71.6592 13.0515 71.3333 13.4856 70.998 14.0035C70.6516 14.5386 70.3692 15.0254 70.1508 15.4637C69.9361 15.8963 69.8055 16.2935 69.7591 16.6554C69.7184 17.021 69.7732 17.3463 69.9235 17.6314C70.0794 17.9202 70.3473 18.1875 70.7271 18.4333C71.0206 18.6233 71.3026 18.7364 71.573 18.7727C71.853 18.8069 72.1459 18.7516 72.452 18.6068L72.4692 18.618L72.1005 19.1876L73.0154 19.7799L75.1664 16.4568L73.1554 15.155L72.5631 16.0699L73.3831 16.6007L72.9753 17.2308C72.8673 17.3976 72.7464 17.5276 72.6126 17.6207C72.4826 17.708 72.3512 17.7659 72.2186 17.7943C72.0916 17.8264 71.9691 17.8328 71.8509 17.8135C71.7385 17.798 71.645 17.7659 71.5702 17.7175C71.3917 17.602 71.2804 17.4523 71.2361 17.2685C71.2013 17.0827 71.2193 16.8657 71.2901 16.6176C71.3703 16.3675 71.4958 16.0853 71.6664 15.7712C71.8371 15.4571 72.0416 15.1159 72.2801 14.7476C72.7792 13.9766 73.2029 13.4671 73.5513 13.219C73.8997 12.9709 74.2235 12.9437 74.5226 13.1374C74.6493 13.2193 74.7334 13.3228 74.775 13.4476C74.8261 13.5705 74.8469 13.7024 74.8373 13.8433C74.8316 13.9783 74.8011 14.1137 74.7459 14.2495C74.6964 14.3889 74.6345 14.5161 74.56 14.6313Z" fill="#FEFEFE"/>
<path d="M79.1424 19.7713L80.6968 18.1708L81.1393 18.6006C81.4048 18.8585 81.5273 19.1111 81.5067 19.3587C81.4861 19.6062 81.3468 19.8627 81.0889 20.1282C80.8262 20.3987 80.5664 20.5334 80.3095 20.5322C80.0575 20.5359 79.8258 20.4351 79.6143 20.2297L79.1424 19.7713ZM80.3941 16.3574L75.2793 21.6235L76.3414 22.6551L78.383 20.553L78.9509 21.1047C79.2017 21.3482 79.4614 21.5383 79.73 21.6749C79.9986 21.8116 80.2662 21.8853 80.533 21.8959C80.8047 21.9114 81.0777 21.8565 81.3522 21.7313C81.6316 21.6109 81.9026 21.4154 82.1653 21.145C82.3563 20.9483 82.518 20.7327 82.6503 20.4981C82.7874 20.2586 82.871 20.0101 82.9012 19.7528C82.9314 19.4954 82.896 19.2318 82.7952 18.9618C82.7039 18.6917 82.5231 18.4253 82.2527 18.1626L80.3941 16.3574Z" fill="#FEFEFE"/>
<path d="M84.5447 20.5195L78.7832 25.0688L79.7006 26.2308L82.1377 24.3066L82.6282 24.928C82.8194 25.17 82.8908 25.3932 82.8424 25.5973C82.794 25.8014 82.6611 25.9981 82.4436 26.1873L81.3635 27.0925C81.2549 27.1871 81.153 27.2849 81.0582 27.386C80.9687 27.4828 80.907 27.5927 80.873 27.7156L81.867 28.9744L81.9154 28.9362C81.8897 28.7818 81.9447 28.6249 82.0806 28.4652C82.225 28.3162 82.4463 28.1153 82.7444 27.8624C82.8962 27.7338 83.0318 27.618 83.1513 27.515C83.2762 27.4076 83.3885 27.3061 83.4868 27.2104C83.7844 26.9233 83.953 26.6551 83.9918 26.4059C84.0306 26.1567 83.9571 25.8699 83.7711 25.5454L83.7868 25.5327C84.1158 25.8056 84.4629 25.9245 84.8282 25.8894C85.1992 25.85 85.5777 25.6774 85.9654 25.3715C86.4654 24.9765 86.7306 24.549 86.7604 24.0888C86.7951 23.6244 86.6216 23.1501 86.2397 22.666L84.5447 20.5195ZM82.9446 23.6694L84.6067 22.3569L85.0406 22.9056C85.4654 23.4436 85.4108 23.9228 84.8786 24.3433C84.5662 24.5897 84.2835 24.6907 84.0306 24.6462C83.7819 24.5975 83.548 24.4333 83.3265 24.1536L82.9446 23.6694Z" fill="#FEFEFE"/>
<path d="M85.9687 30.5114L88.4629 28.2364L88.4521 28.2186L85.2439 29.2677L85.9687 30.5114ZM90.0199 28.3761L84.6563 33.7518L83.8794 32.4193L85.0497 31.3444L84.0662 29.6567L82.554 30.1453L81.7773 28.8129L89.0984 26.7949L90.0199 28.3761Z" fill="#FEFEFE"/>
<path d="M90.3303 34.8364L90.8964 36.2044C91.1435 36.1022 91.3989 35.9744 91.6617 35.8211C91.9336 35.6714 92.1609 35.4771 92.3444 35.2382C92.5336 34.9966 92.6485 34.7006 92.689 34.3501C92.732 34.0059 92.6526 33.5899 92.4502 33.1022C92.2378 32.5893 91.9807 32.2174 91.6774 31.9868C91.3807 31.7536 91.0427 31.6189 90.6642 31.5826C90.2882 31.5527 89.8716 31.6028 89.4138 31.7331C88.9642 31.8669 88.4832 32.0401 87.97 32.2524C87.451 32.4673 86.9849 32.686 86.5725 32.9086C86.1634 33.1375 85.8361 33.3954 85.5915 33.6822C85.3485 33.9753 85.208 34.3079 85.1692 34.6801C85.1303 35.0522 85.2171 35.4948 85.4295 36.0079C85.6154 36.4575 85.8361 36.7928 86.0906 37.0139C86.3485 37.2412 86.632 37.3798 86.9419 37.4295C87.2543 37.4856 87.5873 37.4741 87.9402 37.3947C88.2931 37.3155 88.6526 37.1998 89.0204 37.0478L88.4543 35.6798C88.0865 35.8317 87.7799 35.9328 87.5336 35.9828C87.294 36.0302 87.0948 36.0422 86.9361 36.0185C86.7849 35.9923 86.6642 35.9346 86.575 35.8453C86.4956 35.7597 86.4303 35.6567 86.3807 35.5364C86.3204 35.3907 86.2956 35.249 86.3047 35.1115C86.3237 34.9776 86.4031 34.8373 86.5427 34.6905C86.6907 34.5474 86.9154 34.3913 87.2171 34.2223C87.5204 34.0596 87.9287 33.8721 88.4419 33.6598C88.9229 33.4605 89.3336 33.3055 89.6733 33.1945C90.0196 33.0808 90.3072 33.0138 90.5361 32.9932C90.7708 32.9701 90.9551 32.994 91.0882 33.065C91.2303 33.1397 91.3369 33.2625 91.408 33.4335C91.5361 33.7438 91.5105 34.0032 91.3295 34.2116C91.1576 34.4236 90.8245 34.6319 90.3303 34.8364Z" fill="#FEFEFE"/>
<path d="M94.7555 40.7573L93.5208 36.2344L92.3506 36.554L92.7729 38.1013L86.8613 39.7155L87.2514 41.1438L93.163 39.5296L93.5853 41.0769L94.7555 40.7573Z" fill="#FEFEFE"/>
<path d="M87.6895 43.0873L87.9465 44.5454L95.1762 43.2726L94.9192 41.8145L87.6895 43.0873Z" fill="#FEFEFE"/>
<path d="M90.5266 46.5788L90.4167 45.1022L90.12 45.1243C89.4431 45.1744 88.9365 45.3906 88.601 45.7729C88.2655 46.1621 88.1283 46.7736 88.1903 47.6075C88.2489 48.4074 88.4696 49.0165 88.8514 49.435C89.2398 49.8598 89.8208 50.0436 90.5936 49.9864C90.8192 49.9697 91.0225 49.934 91.2035 49.8793C91.3853 49.8246 91.5473 49.737 91.6894 49.6165C91.839 49.5023 91.9721 49.3516 92.0894 49.1642C92.2126 48.9764 92.3258 48.7377 92.4283 48.4484L92.8357 47.2737C92.9423 46.9497 93.0671 46.7342 93.2109 46.6274C93.3605 46.52 93.5489 46.458 93.7737 46.4413C93.8836 46.4332 93.9903 46.4356 94.0944 46.4485C94.1985 46.4683 94.2911 46.5061 94.3704 46.5621C94.458 46.6244 94.5291 46.7084 94.5853 46.8142C94.6415 46.9201 94.6754 47.055 94.6878 47.2191C94.7084 47.5062 94.6283 47.7184 94.4456 47.8555C94.2704 47.9922 94.0084 48.0736 93.6597 48.0993L93.7646 49.5144L93.9696 49.4992C94.3184 49.4733 94.6117 49.3932 94.8489 49.2588C95.0936 49.1307 95.2869 48.9583 95.4291 48.7415C95.5787 48.5312 95.677 48.2833 95.725 47.9979C95.7795 47.7189 95.7952 47.4154 95.7704 47.0873C95.7184 46.3832 95.4993 45.8427 95.1142 45.4657C94.7291 45.0887 94.1737 44.927 93.4498 44.9808C93.1489 45.003 92.8845 45.0603 92.658 45.1527C92.4382 45.2446 92.2448 45.3758 92.0787 45.5462C91.92 45.7229 91.7845 45.9357 91.6729 46.1846C91.5605 46.4335 91.4622 46.726 91.377 47.0622C91.3126 47.3144 91.2456 47.5255 91.1762 47.6956C91.1134 47.8722 91.0382 48.0151 90.9506 48.1248C90.8622 48.2344 90.758 48.3143 90.6382 48.3644C90.5258 48.4209 90.3869 48.4552 90.2233 48.4674C89.915 48.4901 89.6795 48.4148 89.515 48.2414C89.3589 48.0743 89.2721 47.8779 89.2555 47.6524C89.2415 47.461 89.2564 47.2983 89.3018 47.1644C89.3473 47.0373 89.415 46.9326 89.5051 46.8503C89.5952 46.768 89.7076 46.7081 89.8423 46.6707C89.9836 46.6327 90.1398 46.6074 90.3109 46.5947L90.5266 46.5788Z" fill="#FEFEFE"/>
<path d="M95.6028 54.9814L95.8045 50.8839L88.4722 50.5234L88.2656 54.7235L89.4772 54.7831L89.6111 52.0618L91.583 52.1587L91.4615 54.6234L92.6731 54.6829L92.7945 52.2183L94.5193 52.3031L94.3912 54.9218L95.6028 54.9814Z" fill="#FEFEFE"/>
<path d="M17.624 76.6183C17.9986 76.2971 18.3227 76.0327 18.5963 75.8253C18.8743 75.623 19.1188 75.4764 19.33 75.3857C19.5455 75.3002 19.7322 75.2756 19.8898 75.3121C20.0571 75.3492 20.2122 75.451 20.3549 75.6175C20.4977 75.7841 20.5724 75.9502 20.5792 76.116C20.5955 76.2825 20.5428 76.4632 20.4209 76.658C20.3035 76.858 20.1213 77.0774 19.8745 77.316C19.6322 77.56 19.3237 77.8426 18.9491 78.1638C18.5745 78.485 18.2455 78.749 17.9622 78.9558C17.6887 79.1632 17.4441 79.3098 17.2285 79.3953C17.0226 79.4816 16.836 79.5061 16.6688 79.469C16.5111 79.4326 16.3609 79.3312 16.2181 79.1646C16.0754 78.9981 15.9958 78.8316 15.9793 78.665C15.9726 78.4993 16.0254 78.3186 16.1376 78.1231C16.2595 77.9283 16.4417 77.7089 16.684 77.465C16.936 77.2218 17.2493 76.9396 17.624 76.6183ZM16.0413 81.7542L17.2112 81.9023L17.2812 80.7993C17.7027 80.7539 18.1283 80.5922 18.558 80.314C18.9877 80.0359 19.4393 79.6938 19.9128 79.2878C20.3343 78.9264 20.7041 78.5731 21.0222 78.2281C21.3501 77.8838 21.5835 77.5347 21.7224 77.1808C21.8659 76.8321 21.9007 76.4726 21.827 76.1024C21.7586 75.7277 21.5436 75.3296 21.1822 74.9081C20.8208 74.4866 20.4602 74.2135 20.1003 74.0886C19.7457 73.9593 19.3829 73.9364 19.0119 74.0197C18.6454 74.1082 18.2647 74.2856 17.87 74.5518C17.485 74.8188 17.0817 75.133 16.6602 75.4944C16.2335 75.8602 15.8588 76.2131 15.5363 76.553C15.2181 76.8979 14.9874 77.2449 14.8439 77.5936C14.705 77.9474 14.6749 78.3074 14.7538 78.6731C14.8326 79.0389 15.0528 79.4325 15.4142 79.854C15.6596 80.1402 15.9002 80.3628 16.1359 80.5218L16.0413 81.7542Z" fill="#FEFEFE"/>
<path d="M24.073 78.1468L22.9674 77.1621L19.5618 80.9857C19.2336 81.3542 19.0155 81.697 18.9076 82.0139C18.7997 82.3309 18.7707 82.6262 18.8205 82.9001C18.8749 83.1689 18.9888 83.4168 19.1621 83.6449C19.3355 83.873 19.5348 84.0871 19.76 84.2879C19.9853 84.4887 20.2233 84.659 20.4742 84.8003C20.7251 84.9408 20.9917 85.0176 21.2741 85.03C21.5564 85.0433 21.8464 84.9805 22.1443 84.8416C22.4467 84.6978 22.7529 84.4524 23.0629 84.1044L26.4684 80.2805L25.3629 79.2957L21.9573 83.1193C21.8342 83.2573 21.71 83.3763 21.5847 83.4755C21.469 83.5747 21.3469 83.6449 21.2182 83.6862C21.0992 83.7276 20.9759 83.7367 20.8484 83.7152C20.7255 83.6879 20.5975 83.6152 20.4644 83.497C20.3364 83.3829 20.2495 83.2639 20.2035 83.1408C20.1672 83.0164 20.1599 82.8906 20.1817 82.7632C20.2131 82.6351 20.2688 82.5057 20.3485 82.3748C20.438 82.2434 20.5444 82.1086 20.6674 81.9704L24.073 78.1468Z" fill="#FEFEFE"/>
<path d="M26.9204 86.1433L28.1708 83.0079L28.1537 82.9965L25.7253 85.3416L26.9204 86.1433ZM29.6326 82.4536L27.1547 89.6317L25.8742 88.7722L26.4577 87.2945L24.8357 86.2052L23.6887 87.3052L22.4082 86.4457L28.113 81.4336L29.6326 82.4536Z" fill="#FEFEFE"/>
<path d="M28.1484 90.1348L31.8168 91.9711L32.3599 90.886L30.0155 89.7125L32.7588 84.2331L31.435 83.5703L28.1484 90.1348Z" fill="#FEFEFE"/>
<path d="M32.9102 92.3838L34.2895 92.9218L36.9573 86.0829L35.578 85.5449L32.9102 92.3838Z" fill="#FEFEFE"/>
<path d="M41.9548 87.6276L37.4495 86.3301L37.1137 87.4954L38.655 87.94L36.959 93.8284L38.3817 94.2383L40.0777 88.3491L41.619 88.7937L41.9548 87.6276Z" fill="#FEFEFE"/>
<path d="M43.3357 87.8501L41.6914 87.584L42.8584 92.2832L42.3971 95.1352L43.8587 95.3716L44.3199 92.5195L46.9084 88.4278L45.325 88.1716L43.857 90.8088L43.8367 90.8055L43.3357 87.8501Z" fill="#FEFEFE"/>
<path d="M51.1681 91.82L51.0954 89.5902L51.712 89.5696C52.0819 89.558 52.3488 89.6448 52.5126 89.8316C52.6764 90.0183 52.7644 90.2968 52.7764 90.6663C52.7888 91.0431 52.7053 91.3241 52.5261 91.5084C52.3538 91.6919 52.1203 91.7886 51.8258 91.7985L51.1681 91.82ZM49.5801 88.5489L49.8193 95.8861L51.2992 95.8382L51.2036 92.9092L51.9949 92.8836C52.3443 92.872 52.6614 92.8167 52.9462 92.7183C53.2311 92.62 53.4699 92.4787 53.6628 92.2935C53.8625 92.1092 54.0126 91.8745 54.1131 91.5902C54.2203 91.3051 54.2678 90.9745 54.2555 90.5977C54.2466 90.3241 54.2036 90.058 54.1266 89.7993C54.0494 89.5349 53.9287 89.3018 53.7644 89.1018C53.6001 88.901 53.3858 88.7439 53.1215 88.6291C52.8637 88.5068 52.5464 88.4522 52.1697 88.4646L49.5801 88.5489Z" fill="#FEFEFE"/>
<path d="M54.5781 88.3481L55.784 95.5894L57.2444 95.3465L56.7344 92.2836L57.5153 92.1531C57.8196 92.1027 58.0495 92.1481 58.205 92.2886C58.3604 92.4291 58.4686 92.6407 58.5294 92.9225L58.8013 94.3051C58.8318 94.4465 58.8684 94.5828 58.9112 94.7142C58.9528 94.839 59.0193 94.9465 59.1106 95.0357L60.6928 94.7721L60.6826 94.7109C60.535 94.6597 60.424 94.5357 60.3497 94.339C60.2889 94.1407 60.2196 93.8506 60.1419 93.4671C60.1025 93.2721 60.0665 93.0977 60.0338 92.9431C60 92.782 59.9651 92.6349 59.929 92.5018C59.8209 92.1027 59.6671 91.8266 59.4677 91.6721C59.2683 91.5175 58.9815 91.444 58.6074 91.4506L58.604 91.4299C59.0018 91.2737 59.2734 91.0266 59.4189 90.6894C59.5632 90.3465 59.5947 89.9307 59.5137 89.444C59.409 88.815 59.1623 88.377 58.7735 88.1291C58.3837 87.8737 57.8845 87.7977 57.276 87.8985L54.5781 88.3481ZM56.5656 91.2688L56.2176 89.1795L56.9073 89.0646C57.5834 88.9522 57.9772 89.2308 58.0887 89.9002C58.154 90.2927 58.1061 90.5886 57.9449 90.7894C57.7826 90.9828 57.5256 91.1093 57.1741 91.1679L56.5656 91.2688Z" fill="#FEFEFE"/>
<path d="M62.1762 90.5309C62.029 90.0598 61.914 89.6573 61.8314 89.3243C61.7552 88.9887 61.7171 88.7061 61.7171 88.4763C61.7236 88.2449 61.7747 88.0639 61.8704 87.9334C61.9705 87.7937 62.1252 87.692 62.3346 87.6268C62.544 87.5606 62.7262 87.5582 62.8811 87.6168C63.0406 87.6681 63.1857 87.7879 63.3166 87.9763C63.4541 88.1631 63.5838 88.4168 63.7057 88.7383C63.8341 89.0573 63.9719 89.4524 64.1192 89.9234C64.2665 90.3945 64.3792 90.8003 64.4574 91.1425C64.54 91.4755 64.5781 91.7582 64.5716 91.9904C64.5695 92.2135 64.5185 92.3945 64.4183 92.5334C64.3227 92.6639 64.1702 92.7623 63.9608 92.8276C63.7514 92.8929 63.5671 92.9003 63.4076 92.8499C63.2526 92.7904 63.1074 92.6706 62.972 92.4904C62.8412 92.3011 62.7115 92.0474 62.583 91.7284C62.4591 91.4011 62.3235 91.002 62.1762 90.5309ZM60.7631 90.9722C60.9309 91.5086 61.1071 91.992 61.292 92.4226C61.4835 92.8515 61.7111 93.2003 61.9748 93.4697C62.2452 93.7375 62.564 93.9069 62.9312 93.9788C63.2984 94.0507 63.747 94.0036 64.2768 93.8383C64.8067 93.6722 65.2021 93.4557 65.463 93.1871C65.7238 92.9185 65.8859 92.5987 65.9492 92.2276C66.019 91.8532 66.0074 91.4367 65.9141 90.978C65.8273 90.5168 65.7 90.0177 65.5324 89.4813C65.3666 88.9515 65.1881 88.4722 64.9966 88.0433C64.8097 87.6069 64.5811 87.254 64.3108 86.9871C64.047 86.7177 63.7305 86.5433 63.3612 86.4648C62.9899 86.3805 62.5393 86.4201 62.0094 86.5863C61.4795 86.7515 61.0862 86.9755 60.8294 87.2565C60.5706 87.5317 60.4062 87.8557 60.3364 88.2292C60.2731 88.6011 60.2858 89.021 60.3747 89.4887C60.4679 89.9482 60.5974 90.4425 60.7631 90.9722Z" fill="#FEFEFE"/>
<path d="M68.9523 90.775L66.7385 86.1121L67.3051 85.8436C67.559 85.7229 67.7837 85.6766 67.9794 85.7047C68.1782 85.7245 68.3605 85.8122 68.5258 85.9692C68.6946 86.1171 68.8589 86.327 69.0189 86.5998C69.1789 86.8733 69.3485 87.1989 69.528 87.5766C69.7425 88.0287 69.9064 88.413 70.0195 88.7312C70.1388 89.0469 70.1992 89.3179 70.2007 89.5444C70.2084 89.7683 70.1601 89.9543 70.056 90.1031C69.9518 90.251 69.782 90.3807 69.5467 90.4923L68.9523 90.775ZM64.9336 85.7626L68.0823 92.394L70.1907 91.3931C70.6365 91.1816 70.9726 90.9386 71.1989 90.6642C71.4252 90.3898 71.559 90.0717 71.6 89.7113C71.6411 89.3502 71.5943 88.9394 71.4595 88.4799C71.3281 88.0113 71.1241 87.4865 70.8477 86.9039C70.6155 86.4146 70.3774 85.9857 70.1335 85.6155C69.8896 85.246 69.621 84.9601 69.3278 84.7576C69.0377 84.546 68.715 84.4336 68.3596 84.4204C68.0013 84.4006 67.59 84.5014 67.1256 84.7221L64.9336 85.7626Z" fill="#FEFEFE"/>
<path d="M70.952 82.6253L69.7148 83.4384L72.5272 87.7169C72.7983 88.1293 73.0729 88.4293 73.3512 88.6153C73.6295 88.8012 73.9073 88.9062 74.1848 88.9285C74.4584 88.9458 74.7277 88.8996 74.9927 88.7913C75.2577 88.683 75.5161 88.5458 75.7682 88.3797C76.0201 88.2144 76.2467 88.0285 76.4477 87.8227C76.6486 87.6169 76.7918 87.3789 76.8772 87.1095C76.9625 86.8401 76.9768 86.5434 76.9201 86.2202C76.8595 85.8913 76.7011 85.5318 76.4451 85.1417L73.6327 80.8633L72.3954 81.6765L75.2079 85.9549C75.3096 86.1103 75.3922 86.2607 75.4559 86.4078C75.5215 86.545 75.5577 86.6806 75.5644 86.8161C75.5731 86.9417 75.5505 87.0632 75.4965 87.1806C75.4387 87.2921 75.3354 87.3971 75.1865 87.4954C75.0433 87.5888 74.906 87.6425 74.7748 87.6549C74.6455 87.6582 74.522 87.6326 74.4045 87.5781C74.289 87.5153 74.1783 87.4277 74.0726 87.3169C73.9688 87.1963 73.8661 87.0591 73.7644 86.9037L70.952 82.6253Z" fill="#FEFEFE"/>
<path d="M78.2 80.224L79.3165 79.2516C79.1409 79.05 78.9386 78.849 78.7095 78.6486C78.4811 78.4384 78.2245 78.2847 77.9397 78.1874C77.6504 78.0848 77.3332 78.0702 76.9881 78.1436C76.6481 78.2124 76.2791 78.4202 75.8811 78.7668C75.4624 79.1314 75.1921 79.4941 75.07 79.855C74.9434 80.2106 74.9232 80.5736 75.0094 80.9439C75.1007 81.3098 75.2811 81.689 75.5503 82.0817C75.8203 82.4646 76.1376 82.8655 76.5022 83.2845C76.8714 83.7084 77.2271 84.0803 77.5694 84.4002C77.9169 84.715 78.2655 84.9431 78.6153 85.0845C78.9703 85.2208 79.3303 85.2481 79.6955 85.1663C80.0607 85.0845 80.4526 84.8613 80.8712 84.4969C81.2383 84.177 81.4859 83.8613 81.6144 83.5498C81.7479 83.2332 81.7889 82.9202 81.7374 82.6106C81.6911 82.2964 81.5741 81.9847 81.3865 81.6754C81.199 81.3661 80.9746 81.0616 80.7135 80.7617L79.597 81.7341C79.8582 82.0339 80.0517 82.2926 80.1775 82.5102C80.2989 82.7226 80.3736 82.9075 80.4016 83.065C80.4251 83.2175 80.4087 83.3498 80.3523 83.4622C80.2966 83.5655 80.2197 83.6597 80.1215 83.7456C80.0026 83.8489 79.8764 83.9175 79.7428 83.9522C79.6099 83.977 79.4517 83.9465 79.2681 83.8613C79.0852 83.7663 78.8657 83.6026 78.6096 83.3712C78.3587 83.1357 78.0509 82.808 77.6863 82.3893C77.3441 81.9965 77.0664 81.6567 76.8529 81.3699C76.635 81.0779 76.4798 80.8268 76.3875 80.6163C76.2907 80.4007 76.2546 80.2185 76.2795 80.0696C76.305 79.911 76.3875 79.771 76.5271 79.6494C76.7803 79.4288 77.0345 79.3711 77.2897 79.4761C77.5455 79.5715 77.8488 79.8207 78.2 80.224Z" fill="#FEFEFE"/>
<path d="M80.9347 73.752L77.8164 77.253L78.7224 78.06L79.7891 76.8623L84.3653 80.938L85.3496 79.8324L80.7738 75.7567L81.8407 74.5589L80.9347 73.752Z" fill="#FEFEFE"/>
</g>
<defs>
<clipPath id="clip0_2111_1993">
<rect width="99.1736" height="100" fill="white" transform="translate(0.652344 0.425781)"/>
</clipPath>
</defs>
</svg>
