<svg width="100" height="101" viewBox="0 0 100 101" fill="none" xmlns="http://www.w3.org/2000/svg">
<g clip-path="url(#clip0_2111_2053)">
<path d="M81.523 45.0908C80.9252 43.5213 79.6975 42.1201 78.2032 41.1098C73.8894 38.3707 67.3153 38.1756 62.8704 40.652C60.4463 41.8878 58.853 44.3336 58.3571 46.8524C57.4577 50.9905 57.69 55.914 60.8781 59.0157C64.5955 62.2745 70.0059 62.9944 74.8171 61.6558C75.0457 61.6119 75.7701 61.4295 76.2696 61.1644L76.4104 61.1041C77.9047 60.4832 79.3297 59.4721 80.3936 58.1029C82.8491 54.5128 83.0173 49.1336 81.523 45.0908ZM73.6899 54.3833C73.5201 55.168 72.9923 55.981 72.1599 56.2758C70.8346 56.8588 69.0418 56.6972 67.8141 56.0153C66.7844 55.2953 66.6519 54.0899 66.5193 52.9493C66.4188 50.7008 66.2565 48.3198 66.8864 46.2642C67.38 44.991 68.7417 44.6634 69.9732 44.5674C71.2664 44.5674 72.5254 44.7647 73.3244 45.8077C73.8217 46.556 73.7911 47.5351 73.8894 48.4166C73.8544 50.2742 74.0212 52.4899 73.6899 54.3833ZM34.3587 56.4084C33.2628 56.3414 32.035 56.4374 30.9741 56.3071L31.0068 44.8577L31.0739 44.7624L34.3587 44.7305C34.393 42.8721 34.4257 40.879 34.3244 39.1852L21.8141 39.1502L19.754 39.1859C19.7213 40.9133 19.7213 42.9332 19.754 44.6962C20.8835 44.7312 21.9437 44.6962 23.0397 44.7982V55.8864L23.0076 56.3421L19.7213 56.4091C19.6528 58.2023 19.6528 59.9974 19.7213 61.7905H34.3579L34.3587 56.4084ZM71.1979 64.2341C69.8057 66.2258 68.0463 68.1496 66.1255 69.6461C66.0555 69.7481 65.8567 69.7094 65.7934 69.6156C64.9611 69.0951 64.0654 68.6692 63.2673 68.1496C64.3304 66.8787 65.3601 65.607 66.1568 64.1991H65.1241C64.2992 65.4105 63.434 66.6814 62.3396 67.7543C60.8781 67.1683 59.5513 66.6471 58.0577 66.2525L57.8917 66.1282C58.124 65.4693 58.5544 64.8505 58.6862 64.1977H57.7905L56.8949 65.9599C54.9389 65.5362 52.7806 65.3055 50.789 65.1767C50.6884 64.8841 50.8202 64.4597 50.6884 64.1977H49.8255C49.757 64.59 49.9253 64.8856 49.7258 65.211C47.6679 65.3055 45.677 65.5363 43.7539 65.9316L42.8545 64.1977C42.5262 64.1977 42.1569 64.1351 41.9276 64.2326L42.7555 66.1572L42.6564 66.2525C41.1689 66.6829 39.7064 67.1954 38.2757 67.7877L38.1439 67.7207C37.2125 66.7096 36.3161 65.6055 35.5849 64.4962C35.4204 63.9386 34.7563 64.2646 34.3907 64.1991C35.1844 65.6361 36.2498 66.9063 37.31 68.2129C36.4144 68.7363 35.5216 69.32 34.588 69.7481C32.5578 68.2019 30.7881 66.3409 29.3458 64.2356C28.9468 64.1715 28.6839 64.2006 28.2826 64.2356C30.6725 67.9538 34.3907 71.214 38.2742 73.1386C38.2742 73.1386 38.2742 73.1096 38.3099 73.1096C38.3382 73.1096 38.4044 73.17 38.3382 73.2042C40.9619 74.4766 43.7516 75.3894 46.703 75.7824C56.8934 77.1181 66.6191 72.7828 72.2582 64.2356C71.9057 64.1993 71.5505 64.1988 71.1979 64.2341ZM57.3609 67.1691L57.4584 67.1035C58.8894 67.4296 60.2474 67.8867 61.5094 68.5048C60.4463 69.7086 59.0852 70.7547 57.8255 71.6347C57.0631 72.0896 56.297 72.584 55.4996 72.9726L54.0753 72.3532L54.1728 72.1276C55.3701 70.5306 56.4325 68.8978 57.3609 67.1691ZM50.8202 66.19C52.7135 66.2258 54.6062 66.4208 56.3625 66.8429L56.3975 66.942C55.4698 68.7013 54.3054 70.401 53.0463 71.9958C52.479 72.0628 51.9504 71.8372 51.3868 71.8022L50.8195 71.7353C50.7547 69.8106 50.7197 68.1146 50.8202 66.19ZM44.4173 66.7767C46.1431 66.4506 47.9344 66.19 49.792 66.19L49.8263 71.7077C49.1279 71.8655 48.3648 71.8655 47.7006 72.033C46.3397 70.4308 45.2125 68.7013 44.2512 66.9062L44.4173 66.7767ZM39.0708 68.5397C40.3685 67.9181 41.7273 67.4586 43.1196 67.1028L43.2544 67.137C44.214 68.9313 45.4105 70.6258 46.6047 72.322C46.1439 72.5848 45.5765 72.7419 45.1134 73.0069C42.8689 71.8981 40.8266 70.4203 39.0716 68.635L39.0708 68.5397ZM43.3541 74.1162C40.5659 73.3962 37.9749 72.1574 35.5857 70.4643V70.363C36.3823 69.8784 37.182 69.355 38.0419 68.9924C39.9352 70.8567 41.8918 72.2594 44.016 73.5936C43.8507 73.7894 43.5856 73.9859 43.3541 74.1162ZM55.6663 74.5377C52.1492 75.2926 48.2307 75.3216 44.7144 74.4751C44.6473 74.3128 44.8804 74.2778 44.9794 74.1825C48.0662 72.1909 52.8766 72.1909 55.9002 74.341C55.9984 74.5377 55.7334 74.4751 55.6663 74.5377ZM58.8537 73.6278L57.2939 74.1155C57.0273 73.9852 56.7965 73.7894 56.562 73.5929L56.629 73.493C58.7539 72.2586 60.6777 70.7539 62.5041 68.9604C63.4005 69.3185 64.2642 69.8106 65.063 70.3623C63.2025 71.8372 61.0441 72.811 58.8537 73.6278ZM29.2811 36.6724C30.102 35.5363 31 34.4579 31.9687 33.4448C32.8287 32.6296 33.6283 31.8472 34.559 31.2575C35.4226 31.8114 36.3838 32.273 37.2132 32.7927C36.185 34.0584 35.1225 35.336 34.3594 36.7022C34.5902 36.8042 35.0235 36.7722 35.3563 36.7022C36.185 35.4976 37.0785 34.2914 38.1446 33.2141C39.5682 33.7375 40.9641 34.2899 42.4264 34.683L42.5552 34.8126L41.7288 36.7022C42.0951 36.7722 42.3274 36.7379 42.69 36.7022C42.9878 36.1512 43.2186 35.5333 43.5506 34.9757C45.4782 35.4015 47.5034 35.6286 49.5612 35.6919C49.8248 35.9234 49.6268 36.4104 49.7265 36.7022H50.6221C50.7197 36.382 50.5887 36.0187 50.7197 35.7283C52.6465 35.6271 54.6701 35.4313 56.5352 34.9742L56.6968 35.0084L57.5932 36.7007C57.8925 36.7007 58.2901 36.7707 58.5224 36.6337L57.6907 34.7471L57.76 34.6815C59.284 34.2899 60.7135 33.7033 62.1735 33.1173C63.2054 34.1931 64.1651 35.4648 65.0311 36.7C65.3944 36.7 65.7599 36.7357 66.0257 36.6329C65.6159 35.9048 65.1377 35.2172 64.5977 34.5796C64.1593 33.9549 63.6703 33.3675 63.1354 32.8232V32.6542L65.4592 31.3192L65.7942 31.189C67.8149 32.7185 69.5833 34.5555 71.0349 36.6329C71.4332 36.6329 71.766 36.77 72.0988 36.6054C67.6466 29.9575 60.313 25.6802 52.3844 25.0645L52.3495 25.1277L52.2817 25.0645C51.3868 24.9684 50.2872 24.9305 49.3259 25.0265C48.9619 24.9982 48.5316 25.0265 48.099 25.0645C40.1348 25.6802 32.8004 29.7595 28.2178 36.7037C28.5499 36.6724 28.9482 36.8049 29.2811 36.6724ZM43.057 33.8067L42.9245 33.835C41.562 33.4799 40.233 33.0518 38.9718 32.4993L39.0359 32.3035C40.8614 30.5755 42.786 29.1393 44.9101 28.0329C45.4105 28.2287 45.9078 28.3903 46.4052 28.6219L46.3077 28.8765C45.0442 30.4459 44.051 32.1382 43.057 33.8067ZM49.6595 34.6845C48.7325 34.8148 47.9024 34.6555 46.9695 34.5833C46.0776 34.4522 44.9466 34.3577 44.051 34.0599C45.0136 32.2745 46.1439 30.5427 47.5034 28.9486L49.6282 29.2383C49.7265 30.9314 49.6595 32.8895 49.6595 34.6845ZM50.6877 34.7196C50.6222 32.9855 50.6564 31.0639 50.6877 29.2696C51.354 29.1743 52.0807 29.073 52.7463 28.977C54.0403 30.6053 55.3045 32.2745 56.1682 34.0599C54.3735 34.4941 52.5341 34.7155 50.6877 34.7196ZM61.2786 32.4331C59.9816 32.9848 58.6526 33.5074 57.2277 33.8067C56.1994 32.0779 55.0715 30.3499 53.8065 28.6799C54.2719 28.4245 54.8392 28.2287 55.3358 27.9689C57.4972 29.044 59.5855 30.5755 61.3426 32.331L61.2786 32.4331ZM57.0273 26.8566C59.8156 27.5758 62.4378 28.8132 64.8278 30.5092L64.7615 30.6395L62.4735 31.9096H62.3045C60.5482 30.1548 58.4911 28.6219 56.3975 27.412C56.4637 27.1834 56.7973 27.0189 57.0273 26.8566ZM55.7013 26.529V26.5982C52.8118 28.6799 48.1332 28.8765 45.0814 26.9519C44.9101 26.8215 44.5825 26.7583 44.5468 26.5297C48.0669 25.7181 52.2132 25.6526 55.7013 26.529ZM35.4539 30.5755C37.5468 29.044 39.869 27.9026 42.3259 27.1194C42.4264 27.0174 42.4904 26.9213 42.6215 26.9213V26.9883C42.8865 27.0524 43.0868 26.7568 43.3183 26.9504C43.5187 27.1194 43.7531 27.2481 43.9169 27.4105C41.8606 28.6799 39.8347 30.1831 37.9756 32.0058C37.0792 31.6856 36.2528 31.1934 35.4531 30.6395L35.4539 30.5755ZM49.6938 56.663C46.5742 57.5125 43.1866 56.8648 40.9306 54.5128C40.6663 54.1867 40.4988 53.7981 40.2323 53.4734L35.7532 53.5047C35.6825 56.1456 35.6512 59.1795 35.7532 61.7898L40.7297 61.7578L40.7959 60.1913C41.3625 60.4519 41.9276 60.7772 42.4904 61.0699C45.942 62.5068 50.3854 62.8329 53.805 61.0699C56.2963 59.7037 57.6244 57.0628 57.2582 54.2195C56.8949 51.4506 54.2383 48.9377 51.552 48.255L43.5179 45.9373L42.9238 45.6425C42.6579 45.4162 42.4912 45.1243 42.5559 44.7624C43.1866 43.6888 44.6488 44.0149 45.744 44.044C48.0669 44.3708 50.4562 45.1534 51.8179 47.2745C53.2764 47.2745 54.9687 47.3028 56.5606 47.2402C56.6282 44.5667 56.5344 42.2199 56.495 39.512C55.0015 39.4778 53.1752 39.4778 51.6839 39.5463C51.6168 39.9342 51.7479 40.4867 51.5819 40.8797L50.0563 40.0638C46.4037 38.5315 41.2917 38.3715 37.9741 40.7524C35.8158 42.3152 35.1539 45.1228 35.7182 47.6006C36.1478 49.9451 38.4044 51.6754 40.5629 52.4884C43.5164 53.5308 46.6017 54.2858 49.5939 55.2953C49.8903 55.4278 50.2879 55.7234 50.2239 56.0815C50.2254 56.3711 49.9245 56.5386 49.6938 56.663Z" fill="#FEFEFE"/>
<path d="M16.8496 73.488L16.3342 72.6875L12.3652 75.2433L12.8806 76.0437L16.8496 73.488Z" fill="#FEFEFE"/>
<path d="M12.0885 72.6655L15.2441 71.024L14.823 70.2146L12.7291 71.3038C12.3811 71.4848 12.1328 71.4327 11.9843 71.1472C11.9213 71.026 11.9087 70.9207 11.9467 70.8314C11.9809 70.7441 12.0799 70.6577 12.2442 70.5723L14.4203 69.4403L13.9992 68.6309L11.659 69.8483C11.3422 70.0131 11.15 70.2024 11.0825 70.4165C11.0129 70.6266 11.0452 70.8606 11.1795 71.1187C11.271 71.2947 11.3895 71.4318 11.5351 71.5299C11.6766 71.6302 11.848 71.6827 12.0492 71.6873L12.0552 71.699L11.6857 71.8913L12.0885 72.6655Z" fill="#FEFEFE"/>
<path d="M8.94465 68.6445L9.88725 68.2595L10.0622 68.6879L10.6376 68.4529L10.4625 68.0245L12.3477 67.2544C12.515 67.186 12.6496 67.1192 12.7514 67.0537C12.8532 66.9883 12.928 66.915 12.9757 66.8335C13.0177 66.7497 13.03 66.6519 13.0128 66.5398C12.9899 66.4255 12.9451 66.2866 12.8784 66.1234C12.8384 66.0255 12.7968 65.9353 12.7536 65.853C12.7129 65.7649 12.6734 65.6739 12.635 65.5801L12.0474 65.8201C12.0632 65.8469 12.0798 65.8759 12.0972 65.9069C12.1106 65.9395 12.1239 65.9721 12.1372 66.0048C12.1872 66.1272 12.194 66.2197 12.1577 66.2821C12.1155 66.3422 12.0291 66.3989 11.8986 66.4522L10.1175 67.1798L9.91749 66.6902L9.34212 66.9252L9.5422 67.4149L8.59961 67.7999L8.94465 68.6445Z" fill="#FEFEFE"/>
<path d="M9.45663 63.1233L9.72589 64.0158L9.59291 64.0559C9.51274 64.0801 9.43068 64.098 9.34671 64.1095C9.26142 64.1168 9.182 64.1132 9.10853 64.0985C9.03085 64.0851 8.96474 64.0567 8.91021 64.0133C8.85018 63.967 8.8068 63.8995 8.78007 63.8109C8.75333 63.7223 8.75068 63.6448 8.77211 63.5785C8.78804 63.5092 8.82742 63.449 8.89025 63.3978C8.94758 63.3437 9.02498 63.295 9.12241 63.2518C9.21564 63.2099 9.32704 63.1671 9.45663 63.1233ZM10.2449 63.8592L9.72357 62.1312L9.52737 62.1905C9.26572 62.2694 9.0345 62.3576 8.83369 62.4549C8.62866 62.5536 8.4663 62.6717 8.34661 62.809C8.22271 62.9477 8.1455 63.1114 8.11497 63.3002C8.07895 63.486 8.09913 63.7055 8.17552 63.9587C8.26464 64.2541 8.38446 64.4758 8.53499 64.6238C8.68552 64.7717 8.85771 64.8694 9.05156 64.9167C9.24415 64.96 9.45101 64.9666 9.67217 64.9367C9.89208 64.9026 10.116 64.8511 10.3439 64.7824C10.5591 64.7175 10.7718 64.6441 10.9818 64.5623C11.1907 64.4762 11.3689 64.365 11.5165 64.2284C11.664 64.0918 11.7638 63.919 11.8158 63.7099C11.8679 63.5008 11.8461 63.2381 11.7507 62.9215C11.6246 62.5038 11.4289 62.229 11.1636 62.0973C10.8983 61.9656 10.5647 61.9511 10.1629 62.0539L10.3998 62.8388C10.6226 62.7992 10.797 62.7972 10.9228 62.8329C11.0487 62.8686 11.1339 62.9603 11.1784 63.108C11.2027 63.1881 11.2019 63.262 11.1763 63.3296C11.1464 63.3985 11.1007 63.4606 11.0391 63.5161C10.9733 63.5727 10.8966 63.6235 10.8089 63.6684C10.7156 63.7103 10.6184 63.7466 10.5171 63.7771L10.2449 63.8592Z" fill="#FEFEFE"/>
<path d="M7.33971 60.6673L10.829 59.9763L10.6518 59.0814L8.55689 59.4962C8.44016 59.5193 8.33902 59.5191 8.25348 59.4956C8.16363 59.4729 8.0885 59.4339 8.02809 59.3785C7.96336 59.3239 7.91249 59.2598 7.87545 59.1862C7.83842 59.1127 7.81221 59.037 7.79679 58.9592C7.78737 58.9116 7.78054 58.8658 7.7763 58.8217C7.76689 58.7742 7.75964 58.7262 7.75454 58.6777L6.89844 58.8472C6.89925 58.8741 6.90265 58.9026 6.90864 58.9329C6.90946 58.9596 6.91244 58.986 6.91757 59.0119C6.95439 59.1979 7.03752 59.3454 7.16697 59.4546C7.29211 59.5646 7.44798 59.6483 7.63459 59.7057L7.63716 59.7187L7.17019 59.8112L7.33971 60.6673Z" fill="#FEFEFE"/>
<path d="M6.62027 56.9677L10.1599 56.6159L10.0696 55.708L7.72088 55.9414C7.33052 55.9802 7.11943 55.8395 7.08761 55.5193C7.0741 55.3834 7.10158 55.281 7.17004 55.2121C7.23412 55.1438 7.35826 55.1004 7.54248 55.0821L9.98334 54.8396L9.89309 53.9316L7.26804 54.1925C6.91277 54.2278 6.66403 54.3323 6.52181 54.5059C6.37917 54.675 6.32222 54.9044 6.35099 55.1939C6.3706 55.3912 6.42971 55.5626 6.5283 55.7078C6.6225 55.8535 6.76212 55.9659 6.94716 56.0449L6.94846 56.0581L6.53398 56.0992L6.62027 56.9677Z" fill="#FEFEFE"/>
<path d="M7.98509 50.4965L8.68588 50.5043C8.78284 50.5054 8.86639 50.524 8.93651 50.56C9.00664 50.596 9.06342 50.643 9.10683 50.7008C9.15038 50.7541 9.18278 50.814 9.20402 50.8803C9.22096 50.9466 9.22906 51.0107 9.2284 51.0724C9.22699 51.1958 9.17757 51.2834 9.07998 51.3352C8.98243 51.387 8.86534 51.4122 8.72871 51.4107C8.57004 51.4089 8.44487 51.3679 8.3532 51.2874C8.26152 51.2071 8.19688 51.0741 8.15926 50.8886C8.14668 50.8312 8.12755 50.767 8.10189 50.6962C8.07183 50.6254 8.03289 50.5588 7.98509 50.4965ZM7.27903 52.155L7.28814 51.3351L7.18897 51.3341C7.04793 51.3325 6.93593 51.296 6.85297 51.2246C6.77002 51.1531 6.72932 51.0468 6.73088 50.9058C6.73259 50.7515 6.77346 50.644 6.85348 50.5832C6.92914 50.5179 7.03529 50.486 7.17192 50.4875C7.29092 50.4889 7.38098 50.5163 7.4421 50.5698C7.50321 50.6235 7.55064 50.7188 7.58439 50.8558L7.7175 51.373C7.75981 51.5322 7.80898 51.6694 7.865 51.7846C7.92107 51.8954 7.99277 51.9888 8.08009 52.0646C8.16305 52.1361 8.26603 52.1901 8.38905 52.2268C8.50766 52.2633 8.6507 52.2826 8.81819 52.2844C8.93719 52.2857 9.05857 52.2717 9.18228 52.2422C9.30162 52.2127 9.41021 52.1654 9.5079 52.1003C9.60559 52.0353 9.68369 51.948 9.7422 51.8384C9.79633 51.7289 9.82426 51.5947 9.826 51.436C9.82848 51.2157 9.80402 51.0369 9.75261 50.8997C9.69691 50.758 9.57707 50.6332 9.39311 50.5254L9.39327 50.5122C9.45509 50.4997 9.51914 50.4871 9.58542 50.4746C9.64732 50.4577 9.70707 50.4341 9.76476 50.4039L9.77443 49.5312C9.66815 49.5741 9.56864 49.6039 9.47592 49.6205C9.38319 49.6327 9.25311 49.6379 9.08563 49.636L7.21466 49.6152C7.056 49.6135 6.91036 49.6294 6.77774 49.6632C6.64077 49.6926 6.52328 49.753 6.42529 49.8445C6.32731 49.936 6.25093 50.0651 6.19618 50.2321C6.14144 50.3989 6.11255 50.619 6.10951 50.8922C6.1076 51.0641 6.12563 51.2274 6.16358 51.3822C6.19717 51.5324 6.25741 51.6653 6.34429 51.7809C6.4268 51.892 6.53821 51.9814 6.67852 52.0491C6.81442 52.1167 6.98594 52.1517 7.19309 52.154L7.27903 52.155Z" fill="#FEFEFE"/>
<path d="M5.32227 46.9976L6.33475 47.1052L6.28584 47.5653L6.90384 47.631L6.95276 47.1708L8.97772 47.386C9.15745 47.4051 9.30761 47.41 9.42827 47.4006C9.54893 47.3913 9.6496 47.3621 9.73018 47.313C9.80679 47.2591 9.86406 47.1788 9.90199 47.072C9.93604 46.9604 9.96241 46.8169 9.981 46.6416C9.99216 46.5364 9.99827 46.4373 9.99927 46.3444C10.0051 46.2475 10.0135 46.1486 10.0241 46.0478L9.39298 45.9807C9.39414 46.0119 9.39505 46.0452 9.39571 46.0807C9.39199 46.1158 9.38819 46.1509 9.38447 46.1859C9.37051 46.3174 9.33274 46.402 9.27108 46.4398C9.20555 46.4728 9.10265 46.4818 8.96237 46.4668L7.04917 46.2635L7.10508 45.7376L6.48707 45.6719L6.43117 46.1978L5.41869 46.0902L5.32227 46.9976Z" fill="#FEFEFE"/>
<path d="M5.51953 43.646L6.28729 43.7845L6.44935 42.8866L5.68159 42.748L5.51953 43.646ZM6.71671 43.862L10.2172 44.4938L10.3793 43.596L6.87877 42.9642L6.71671 43.862Z" fill="#FEFEFE"/>
<path d="M9.19707 40.504C9.02284 40.4559 8.86256 40.4071 8.7162 40.3575C8.56985 40.308 8.44766 40.2536 8.34966 40.1945C8.25283 40.1312 8.18347 40.0595 8.1416 39.9793C8.09971 39.8992 8.09344 39.806 8.12277 39.6998C8.17205 39.5213 8.29956 39.424 8.50527 39.4076C8.71099 39.3912 9.0284 39.4423 9.45748 39.5608C9.88666 39.6793 10.1852 39.7984 10.3534 39.918C10.5216 40.0376 10.581 40.1866 10.5318 40.3651C10.5024 40.4713 10.4492 40.5481 10.3721 40.5954C10.2951 40.6426 10.1987 40.6687 10.0831 40.6733C9.96872 40.6737 9.83591 40.6576 9.68492 40.625C9.53384 40.5925 9.3712 40.5521 9.19707 40.504ZM8.95414 41.3835C9.25153 41.4656 9.52087 41.5172 9.76203 41.538C9.99889 41.5578 10.2079 41.5378 10.3891 41.478C10.5659 41.4171 10.7145 41.3095 10.8348 41.1553C10.951 40.9998 11.0432 40.7898 11.1117 40.5253C11.181 40.2746 11.2029 40.0543 11.1776 39.8644C11.1535 39.6702 11.0818 39.4996 10.9624 39.3523C10.8388 39.2038 10.6708 39.0751 10.4586 38.9662C10.2462 38.8573 9.9936 38.7623 9.70037 38.6814C9.39872 38.5981 9.12947 38.5465 8.89255 38.5268C8.65563 38.5072 8.44662 38.5272 8.26551 38.5869C8.0844 38.6466 7.93367 38.7536 7.81333 38.9078C7.68875 39.0609 7.59221 39.2697 7.52371 39.5344C7.45448 39.785 7.43618 40.0086 7.4688 40.2051C7.49834 40.3962 7.57492 40.5659 7.69854 40.7144C7.8179 40.8616 7.98373 40.9897 8.196 41.0987C8.40828 41.2076 8.66099 41.3025 8.95414 41.3835Z" fill="#FEFEFE"/>
<path d="M8.60352 36.1459L11.9082 37.462L12.2457 36.6143L10.0528 35.7411C9.68844 35.5959 9.56571 35.3739 9.68472 35.0749C9.7353 34.948 9.80679 34.8697 9.89927 34.8401C9.98762 34.8089 10.1178 34.8275 10.2898 34.896L12.5686 35.8035L12.9061 34.9559L10.4553 33.9798C10.1236 33.8478 9.85472 33.8261 9.64861 33.9148C9.44406 33.9994 9.28803 34.1768 9.18042 34.4471C9.10704 34.6314 9.0807 34.8106 9.10142 34.985C9.11803 35.1577 9.19034 35.3216 9.31828 35.477L9.3134 35.4892L8.92639 35.3352L8.60352 36.1459Z" fill="#FEFEFE"/>
<path d="M12.786 31.0385L13.4045 31.3679C13.4901 31.4136 13.5558 31.4685 13.6015 31.5327C13.6471 31.597 13.6759 31.6648 13.6879 31.7361C13.7019 31.8036 13.7031 31.8716 13.6915 31.9403C13.6759 32.0069 13.6537 32.0675 13.6247 32.122C13.5667 32.2309 13.4824 32.2859 13.372 32.287C13.2615 32.2881 13.146 32.2565 13.0253 32.1922C12.8853 32.1177 12.7931 32.0236 12.7487 31.9101C12.7044 31.7965 12.7082 31.6488 12.7601 31.4667C12.7754 31.4099 12.788 31.3441 12.7978 31.2695C12.8037 31.1927 12.7998 31.1157 12.786 31.0385ZM11.3958 32.1857L11.7813 31.4622L11.6937 31.4155C11.5692 31.3492 11.4866 31.2652 11.4458 31.1636C11.4051 31.062 11.4179 30.9489 11.4842 30.8245C11.5568 30.6883 11.6425 30.6117 11.7415 30.5945C11.8387 30.5713 11.9477 30.5919 12.0682 30.6561C12.1733 30.7121 12.2406 30.7779 12.2702 30.8536C12.2998 30.9293 12.2981 31.0357 12.2649 31.1729L12.145 31.6933C12.1093 31.8541 12.0898 31.9985 12.0865 32.1266C12.0853 32.2508 12.1059 32.3667 12.1485 32.4743C12.1893 32.5759 12.2558 32.6713 12.3482 32.7604C12.4367 32.8475 12.5548 32.9304 12.7026 33.0092C12.8077 33.0651 12.9219 33.1085 13.0453 33.1393C13.1649 33.168 13.283 33.176 13.3996 33.1632C13.5163 33.1504 13.6258 33.1089 13.7282 33.0386C13.8267 32.9662 13.9132 32.86 13.9878 32.7199C14.0915 32.5254 14.152 32.3555 14.1696 32.21C14.1853 32.0585 14.1363 31.8926 14.0227 31.7122L14.0289 31.7006C14.0896 31.7179 14.1522 31.7363 14.2168 31.7557C14.2796 31.7692 14.3434 31.7757 14.4086 31.7755L14.8188 31.0051C14.7048 30.9943 14.6027 30.975 14.5128 30.9469C14.4249 30.9151 14.307 30.8598 14.1591 30.7811L12.5077 29.9014C12.3677 29.8269 12.231 29.774 12.0977 29.743C11.9626 29.706 11.8306 29.7055 11.7015 29.7416C11.5724 29.7777 11.4451 29.8573 11.3196 29.9802C11.1942 30.1031 11.0672 30.2852 10.9388 30.5265C10.858 30.6782 10.7988 30.8314 10.7613 30.9862C10.722 31.135 10.7143 31.2807 10.7382 31.4234C10.7603 31.56 10.8181 31.6907 10.9115 31.8153C11.001 31.9379 11.1372 32.0479 11.32 32.1453L11.3958 32.1857Z" fill="#FEFEFE"/>
<path d="M11.8027 26.799L15.7546 29.3811L16.2536 28.6173L12.3018 26.0352L11.8027 26.799Z" fill="#FEFEFE"/>
<path d="M17.8531 22.5366C17.6206 22.3206 17.4282 22.1327 17.2758 21.973C17.1263 21.8101 17.0149 21.6644 16.9416 21.5361C16.8713 21.4046 16.8421 21.2872 16.8539 21.1838C16.8654 21.0742 16.9192 20.9677 17.0153 20.8644C17.1112 20.7611 17.212 20.7013 17.3174 20.6849C17.4226 20.6624 17.5419 20.683 17.6752 20.7467C17.8116 20.8072 17.9649 20.9076 18.1354 21.0479C18.3088 21.185 18.5118 21.3616 18.7443 21.5777C18.9767 21.7937 19.1692 21.9847 19.322 22.1506C19.4744 22.3103 19.5858 22.4559 19.6561 22.5875C19.7262 22.7128 19.7554 22.8302 19.7439 22.9398C19.7321 23.0432 19.6781 23.1465 19.5821 23.2498C19.4861 23.3531 19.3854 23.4161 19.2802 23.4387C19.1748 23.455 19.0555 23.4344 18.9225 23.3769C18.7892 23.3132 18.6358 23.2128 18.4623 23.0757C18.2887 22.9323 18.0856 22.7526 17.8531 22.5366ZM17.2049 23.234C17.4697 23.4801 17.7224 23.6938 17.963 23.8752C18.2065 24.0534 18.4449 24.1757 18.6782 24.242C18.9144 24.3051 19.1464 24.2981 19.3744 24.2211C19.6024 24.1442 19.8379 23.9749 20.081 23.7134C20.324 23.4519 20.4755 23.2046 20.5356 22.9716C20.5957 22.7387 20.5841 22.5082 20.501 22.2805C20.4207 22.0496 20.2814 21.8207 20.0828 21.5941C19.8873 21.3642 19.6571 21.1263 19.3924 20.8802C19.1308 20.6372 18.8783 20.4266 18.6347 20.2484C18.3909 20.0639 18.1509 19.9402 17.9147 19.8771C17.6815 19.8108 17.4492 19.8146 17.2181 19.8886C16.9836 19.9596 16.7449 20.1258 16.5019 20.3873C16.2588 20.6489 16.1105 20.8992 16.0568 21.1382C16 21.3741 16.0117 21.6076 16.0919 21.8386C16.1751 22.0663 16.3161 22.2967 16.5149 22.5295C16.7134 22.7561 16.9435 22.991 17.2049 23.234Z" fill="#FEFEFE"/>
<path d="M20.0605 18.5181L22.4024 21.1955L23.0891 20.5948L21.6832 18.9874C21.6048 18.8978 21.5545 18.8101 21.5321 18.7242C21.5068 18.6351 21.5031 18.5505 21.521 18.4705C21.5359 18.3871 21.566 18.3111 21.6112 18.2423C21.6564 18.1734 21.7089 18.1129 21.7686 18.0607C21.8051 18.0287 21.8414 18 21.8775 17.9742C21.9139 17.9423 21.9519 17.9121 21.9913 17.8834L21.4167 17.2266C21.3939 17.2406 21.371 17.2578 21.3477 17.2781C21.3249 17.2923 21.3035 17.308 21.2836 17.3254C21.141 17.4502 21.0547 17.5959 21.0248 17.7626C20.992 17.926 20.9973 18.1028 21.0409 18.2931L21.0309 18.3019L20.7175 17.9435L20.0605 18.5181Z" fill="#FEFEFE"/>
<path d="M24.7229 17.0689C24.5842 16.8754 24.4709 16.7099 24.383 16.5723C24.2961 16.4285 24.2387 16.3069 24.2108 16.2076C24.1804 16.1046 24.1774 16.0173 24.2019 15.9455C24.2263 15.8737 24.2797 15.8083 24.362 15.7492C24.5089 15.6439 24.6619 15.6454 24.821 15.7536C24.9836 15.8594 25.1908 16.0878 25.4425 16.4387C25.5299 16.5605 25.6037 16.6784 25.6639 16.7926C25.725 16.9006 25.7652 17.002 25.7844 17.0967C25.8071 17.1889 25.807 17.2758 25.7841 17.3573C25.7623 17.4326 25.7119 17.4986 25.6331 17.5551C25.5544 17.6116 25.4758 17.6382 25.3973 17.6347C25.3199 17.6251 25.2425 17.5966 25.165 17.5491C25.0886 17.4954 25.0129 17.4278 24.9379 17.3459C24.8665 17.2615 24.7949 17.1692 24.7229 17.0689ZM25.1035 14.4688L24.3944 14.9774L24.6256 15.2998L24.6149 15.3075C24.4353 15.2085 24.2695 15.1702 24.1173 15.1925C23.9652 15.2148 23.8372 15.2632 23.7333 15.3378C23.5328 15.4816 23.4037 15.642 23.3462 15.8188C23.2922 15.9932 23.2844 16.1751 23.3227 16.3646C23.362 16.548 23.4339 16.7351 23.5382 16.926C23.6462 17.1144 23.7606 17.2927 23.8813 17.461C24.259 17.9875 24.6022 18.3109 24.9109 18.4312C25.2206 18.5454 25.5223 18.4971 25.816 18.2864C25.9342 18.2016 26.0239 18.0885 26.0851 17.9469C26.1498 17.8028 26.1813 17.6501 26.1795 17.4887L26.1902 17.481L26.4638 17.8624C26.5666 18.0056 26.6222 18.1474 26.6307 18.2878C26.6392 18.4283 26.5682 18.5524 26.4177 18.6602C26.3712 18.6936 26.3213 18.7186 26.2681 18.7351C26.2184 18.7491 26.1667 18.7564 26.1129 18.7569C25.9991 18.7572 25.9088 18.7107 25.842 18.6176L25.1329 19.1263C25.3101 19.3735 25.5305 19.5029 25.7939 19.5146C26.0635 19.5274 26.3558 19.4207 26.671 19.1947C27.1043 18.8838 27.3455 18.5697 27.3946 18.2525C27.4473 17.9326 27.34 17.5865 27.0728 17.214L25.1035 14.4688Z" fill="#FEFEFE"/>
<path d="M29.3553 13.8958L29.6977 14.5073C29.7451 14.5919 29.7706 14.6735 29.7744 14.7523C29.7781 14.8312 29.7657 14.9037 29.7372 14.9702C29.7126 15.0345 29.6768 15.0924 29.6299 15.1439C29.5808 15.1916 29.5294 15.2305 29.4755 15.2607C29.3678 15.321 29.2672 15.3217 29.1737 15.263C29.0801 15.2042 29.0001 15.1152 28.9333 14.9959C28.8558 14.8575 28.829 14.7285 28.853 14.609C28.877 14.4895 28.9601 14.3672 29.1022 14.2421C29.1458 14.2026 29.1919 14.154 29.2405 14.0965C29.2869 14.0352 29.3252 13.9683 29.3553 13.8958ZM27.5657 14.1098L28.281 13.7093L28.2326 13.6227C28.1637 13.4997 28.1396 13.3844 28.1601 13.2769C28.1808 13.1693 28.2526 13.0812 28.3757 13.0122C28.5103 12.9369 28.6239 12.9187 28.7165 12.9578C28.8108 12.9908 28.8913 13.067 28.9581 13.1862C29.0162 13.2901 29.0372 13.3818 29.0213 13.4615C29.0053 13.5412 28.9463 13.6298 28.8443 13.7274L28.4621 14.1004C28.3453 14.2164 28.2508 14.3274 28.1787 14.4334C28.1106 14.5372 28.0654 14.6459 28.0431 14.7594C28.0225 14.8669 28.0269 14.9831 28.0564 15.1081C28.0838 15.2291 28.1384 15.3627 28.2202 15.5088C28.2784 15.6127 28.351 15.7109 28.4382 15.8035C28.5234 15.8923 28.6184 15.9629 28.7234 16.0151C28.8286 16.0674 28.9431 16.0917 29.0672 16.0878C29.1892 16.0802 29.3195 16.0376 29.4579 15.9601C29.6502 15.8524 29.793 15.7421 29.8864 15.6292C29.9815 15.5102 30.03 15.3442 30.0319 15.131L30.0434 15.1245C30.0851 15.172 30.1278 15.2212 30.1717 15.2725C30.2172 15.3177 30.2674 15.3578 30.3224 15.3927L31.0839 14.9664C30.9937 14.8955 30.9183 14.8241 30.8577 14.752C30.801 14.6777 30.7316 14.5674 30.6498 14.4213L29.7357 12.7887C29.6582 12.6502 29.5717 12.532 29.4763 12.4338C29.3827 12.3297 29.2718 12.2578 29.1436 12.2185C29.0155 12.1791 28.8654 12.1773 28.6934 12.213C28.5215 12.2486 28.3163 12.3332 28.0778 12.4667C27.9278 12.5507 27.7953 12.6477 27.68 12.7577C27.5665 12.8616 27.4812 12.9801 27.4243 13.113C27.3691 13.2399 27.3471 13.3811 27.3583 13.5364C27.3673 13.6879 27.4225 13.854 27.5237 14.0349L27.5657 14.1098Z" fill="#FEFEFE"/>
<path d="M31.2773 10.835L32.6601 14.1123L33.5007 13.7576L32.5832 11.583C32.4307 11.2215 32.5027 10.9783 32.7992 10.8531C32.925 10.8001 33.031 10.796 33.1169 10.8411C33.2012 10.8821 33.2793 10.9879 33.3513 11.1584L34.3049 13.4184L35.1454 13.0637L34.12 10.6331C33.9811 10.3042 33.8078 10.0975 33.6 10.013C33.3961 9.92678 33.1602 9.94017 32.8922 10.0532C32.7094 10.1303 32.5633 10.2375 32.4537 10.3746C32.3424 10.5077 32.2764 10.6743 32.2555 10.8744L32.2434 10.8796L32.0815 10.4958L31.2773 10.835Z" fill="#FEFEFE"/>
<path d="M35.3965 7.86458L35.6331 8.60801L36.5025 8.33132L36.2659 7.58789L35.3965 7.86458ZM35.7654 9.02383L36.8441 12.4133L37.7135 12.1366L36.6348 8.74714L35.7654 9.02383Z" fill="#FEFEFE"/>
<path d="M39.1982 10.908L39.3522 11.5917L41.7902 11.0423L41.6274 10.3199L40.2407 10.6324L41.1624 8.25595L41.0083 7.57227L38.6348 8.10712L38.7975 8.82946L40.1197 8.53155L39.1982 10.908Z" fill="#FEFEFE"/>
<path d="M44.9428 8.71395L45.025 9.4099C45.0364 9.50618 45.0287 9.59147 45.0019 9.6656C44.9752 9.73982 44.936 9.80213 44.8842 9.85263C44.8369 9.90255 44.7816 9.94238 44.7185 9.97205C44.655 9.99726 44.5925 10.0135 44.5312 10.0207C44.4087 10.0353 44.3155 9.99742 44.2515 9.90734C44.1876 9.81726 44.1477 9.70436 44.1317 9.56866C44.1131 9.41106 44.1377 9.28164 44.2056 9.1804C44.2736 9.07916 44.3972 8.998 44.5764 8.93693C44.6317 8.91709 44.6929 8.8899 44.7598 8.85536C44.8262 8.81643 44.8872 8.76932 44.9428 8.71395ZM43.2076 8.22639L44.0217 8.13027L44.0102 8.03178C43.9936 7.8917 44.0155 7.77595 44.0756 7.68451C44.1359 7.59307 44.236 7.53909 44.3761 7.52255C44.5293 7.50446 44.6412 7.5312 44.7118 7.60275C44.7862 7.66942 44.8315 7.77059 44.8474 7.9063C44.8614 8.02448 44.8458 8.11731 44.8005 8.1848C44.7552 8.25229 44.6668 8.31155 44.5352 8.36259L44.0393 8.56093C43.887 8.62331 43.7571 8.68967 43.6501 8.75998C43.5474 8.82982 43.464 8.91288 43.3998 9.00924C43.3397 9.10064 43.2993 9.20974 43.2787 9.33643C43.2576 9.45874 43.257 9.60312 43.2766 9.7694C43.2905 9.88759 43.3201 10.0062 43.3652 10.1251C43.4098 10.2397 43.4706 10.3413 43.5476 10.4298C43.6246 10.5183 43.7212 10.5846 43.8374 10.6287C43.953 10.6682 44.0896 10.6787 44.2472 10.6601C44.466 10.6343 44.6403 10.5871 44.7698 10.5186C44.9031 10.4451 45.0114 10.3102 45.0948 10.114L45.1079 10.1125C45.1283 10.1722 45.1489 10.2341 45.1698 10.2982C45.1946 10.3574 45.2256 10.4137 45.263 10.467L46.1297 10.3647C46.0735 10.2648 46.0312 10.1699 46.0029 10.0801C45.9789 9.98965 45.9571 9.86131 45.9374 9.69494L45.7181 7.8368C45.6994 7.67922 45.6649 7.53683 45.6144 7.40965C45.5677 7.27757 45.4927 7.16881 45.3894 7.08336C45.2861 6.99791 45.1483 6.93874 44.9757 6.90585C44.8031 6.87296 44.5812 6.87254 44.3098 6.90457C44.1391 6.92473 43.9794 6.96355 43.8309 7.02103C43.6862 7.07362 43.5622 7.15041 43.4586 7.25139C43.359 7.34747 43.2846 7.46943 43.2355 7.61726C43.1859 7.7607 43.1732 7.9353 43.1975 8.14102L43.2076 8.22639Z" fill="#FEFEFE"/>
<path d="M48.0556 5.63125L48.0779 6.64919L47.6152 6.6593L47.6288 7.28063L48.0914 7.27053L48.1359 9.30639C48.1399 9.48705 48.1542 9.63663 48.1788 9.75515C48.2034 9.87366 48.2452 9.96977 48.3041 10.0434C48.3674 10.1126 48.4543 10.1592 48.5651 10.1832C48.6801 10.2027 48.8258 10.2106 49.0021 10.2067C49.1078 10.2044 49.2069 10.1979 49.2992 10.187C49.3961 10.1805 49.4952 10.1761 49.5966 10.1739L49.5827 9.53936C49.5519 9.5444 49.519 9.54953 49.4838 9.55473C49.4485 9.55548 49.4133 9.5563 49.378 9.55705C49.2458 9.55994 49.1571 9.53316 49.1118 9.47688C49.0708 9.41606 49.0487 9.31515 49.0456 9.17415L49.0037 7.25061L49.5324 7.23906L49.5189 6.61772L48.99 6.62927L48.9679 5.61133L48.0556 5.63125Z" fill="#FEFEFE"/>
<path d="M51.4048 5.40234L51.3648 6.18148L52.2759 6.22823L52.3159 5.44909L51.4048 5.40234ZM51.3424 6.61727L51.1602 10.1696L52.0714 10.2164L52.2536 6.66402L51.3424 6.61727Z" fill="#FEFEFE"/>
<path d="M54.9762 8.65018C55.0019 8.47129 55.03 8.30612 55.0605 8.15465C55.0911 8.00319 55.1296 7.87511 55.1757 7.7704C55.2262 7.66631 55.2886 7.58842 55.3628 7.5367C55.437 7.48499 55.5286 7.46695 55.6377 7.48257C55.821 7.50881 55.9337 7.62292 55.976 7.8249C56.0184 8.02688 56.008 8.34821 55.9448 8.78893C55.8818 9.22959 55.8015 9.54091 55.7043 9.72289C55.6069 9.90488 55.4667 9.98273 55.2834 9.95653C55.1743 9.94091 55.0914 9.89785 55.0348 9.82736C54.9781 9.75694 54.94 9.66463 54.9208 9.55058C54.9058 9.43711 54.9049 9.30339 54.9181 9.14942C54.9312 8.99554 54.9506 8.82909 54.9762 8.65018ZM54.073 8.52084C54.0293 8.82628 54.0124 9.09992 54.0223 9.34174C54.0328 9.57926 54.0791 9.78405 54.1614 9.95612C54.2443 10.1238 54.3698 10.2576 54.5381 10.3574C54.707 10.4528 54.927 10.5177 55.1981 10.5521C55.4556 10.5889 55.6768 10.5828 55.862 10.5336C56.0515 10.485 56.2117 10.3922 56.3427 10.2551C56.4743 10.1136 56.5806 9.93074 56.6617 9.70636C56.7429 9.48198 56.8049 9.21926 56.8481 8.91827C56.8924 8.60844 56.9093 8.33479 56.8988 8.0973C56.8883 7.8598 56.8419 7.65502 56.7597 7.48294C56.6775 7.31088 56.5522 7.17494 56.3839 7.07515C56.2163 6.97099 55.9969 6.90173 55.7258 6.86736C55.4683 6.83049 55.2443 6.8407 55.0535 6.89798C54.8677 6.95153 54.7091 7.04903 54.5775 7.19049C54.4465 7.32758 54.3405 7.50831 54.2594 7.73269C54.1782 7.95707 54.1162 8.21979 54.073 8.52084Z" fill="#FEFEFE"/>
<path d="M59.2124 7.50586L58.3281 10.9512L59.2118 11.178L59.7987 8.89183C59.8962 8.51186 60.1008 8.36188 60.4125 8.44187C60.5448 8.47584 60.6316 8.53679 60.6727 8.62471C60.7149 8.70836 60.7131 8.83984 60.6671 9.01918L60.0571 11.395L60.9409 11.6219L61.5968 9.0667C61.6856 8.72083 61.6728 8.4514 61.5585 8.25825C61.4486 8.0662 61.2528 7.93401 60.9709 7.86168C60.7789 7.81236 60.5976 7.80909 60.4274 7.85185C60.2583 7.89034 60.1048 7.98292 59.9671 8.12959L59.9542 8.1263L60.0578 7.72284L59.2124 7.50586Z" fill="#FEFEFE"/>
<path d="M66.699 10.4798L65.5137 13.1654L66.3484 13.5338L67.5338 10.8482L68.0176 11.0618L68.2686 10.4932L67.7847 10.2796L67.9102 9.99535C67.9511 9.90262 68.0047 9.84676 68.0709 9.82783C68.1371 9.80882 68.2286 9.82519 68.3456 9.87676L68.4243 9.91147C68.4605 9.9275 68.4878 9.94196 68.5062 9.95494L68.7679 9.36213C68.624 9.28419 68.4775 9.21229 68.3283 9.14643C68.1952 9.08775 68.068 9.04841 67.9466 9.02858C67.8271 9.00477 67.7157 9.00618 67.6124 9.03279C67.5131 9.06122 67.421 9.117 67.3362 9.19998C67.2514 9.28304 67.177 9.39709 67.1128 9.54229L66.95 9.91122L66.5266 9.72436L66.2757 10.2929L66.699 10.4798Z" fill="#FEFEFE"/>
<path d="M69.7182 13.1537C69.8061 12.9958 69.8914 12.8515 69.9741 12.721C70.0569 12.5906 70.1385 12.4847 70.2191 12.4034C70.3035 12.3243 70.3896 12.2739 70.4774 12.2521C70.5651 12.2303 70.6572 12.2463 70.7535 12.2998C70.9152 12.3899 70.9798 12.5368 70.947 12.7406C70.9143 12.9443 70.7897 13.2406 70.5731 13.6296C70.3566 14.0186 70.1703 14.2806 70.0144 14.4158C69.8584 14.551 69.6996 14.5735 69.5379 14.4834C69.4416 14.4298 69.3795 14.36 69.3518 14.2739C69.3241 14.1878 69.3216 14.0881 69.3444 13.9747C69.371 13.8634 69.418 13.7382 69.4853 13.5991C69.5527 13.4601 69.6303 13.3115 69.7182 13.1537ZM68.921 12.7099C68.7709 12.9794 68.6573 13.2289 68.58 13.4583C68.5049 13.6839 68.475 13.8917 68.4902 14.0818C68.5075 14.2681 68.5769 14.4378 68.6984 14.5912C68.822 14.7407 69.0043 14.8801 69.2452 15.0091C69.4724 15.1356 69.6812 15.209 69.8717 15.2293C70.0661 15.2517 70.2489 15.2224 70.4203 15.1411C70.5937 15.0561 70.7584 14.9234 70.9144 14.7428C71.0704 14.5623 71.2224 14.3391 71.3703 14.0734C71.5226 13.8 71.6362 13.5506 71.7113 13.3249C71.7865 13.0994 71.8164 12.8916 71.8012 12.7015C71.7859 12.5114 71.7175 12.3396 71.5961 12.1863C71.4768 12.0291 71.2967 11.8859 71.0558 11.7568C70.8286 11.6303 70.6156 11.5597 70.417 11.545C70.2244 11.5286 70.0413 11.5629 69.8679 11.6479C69.6965 11.7291 69.5329 11.86 69.3769 12.0405C69.2209 12.221 69.0689 12.4441 68.921 12.7099Z" fill="#FEFEFE"/>
<path d="M74.1083 13.6406L72.0742 16.5586L72.8226 17.0804L74.0439 15.3285C74.1119 15.2309 74.185 15.1608 74.2628 15.1184C74.3433 15.0724 74.4245 15.0484 74.5065 15.0465C74.5909 15.0409 74.672 15.0517 74.7497 15.0791C74.8274 15.1063 74.8988 15.1426 74.9639 15.188C75.0036 15.2157 75.0403 15.244 75.074 15.2729C75.1137 15.3005 75.1522 15.33 75.1895 15.3615L75.6886 14.6455C75.6694 14.6267 75.6472 14.6086 75.6218 14.5909C75.6027 14.5722 75.5822 14.5553 75.5606 14.5401C75.405 14.4317 75.2428 14.3831 75.0739 14.3943C74.9074 14.4019 74.7371 14.4496 74.5628 14.5377L74.552 14.5302L74.8242 14.1396L74.1083 13.6406Z" fill="#FEFEFE"/>
<path d="M78.6761 19.8265L77.9988 19.1574L77.864 19.2938C77.5573 19.6042 77.4034 19.9231 77.4023 20.2503C77.4043 20.5807 77.5966 20.9349 77.9791 21.3128C78.346 21.6752 78.7104 21.8772 79.0722 21.9186C79.4402 21.96 79.7992 21.8036 80.1493 21.4492C80.2514 21.3457 80.335 21.2424 80.3999 21.1391C80.4647 21.0359 80.5061 20.925 80.524 20.8064C80.5482 20.6878 80.549 20.5585 80.5263 20.4183C80.5068 20.2751 80.4606 20.1117 80.3878 19.9283L80.0887 19.1868C80.0033 18.9847 79.9728 18.8275 79.9971 18.7151C80.0244 18.5997 80.0892 18.4902 80.1914 18.3867C80.2409 18.3365 80.2937 18.2926 80.3495 18.2549C80.4085 18.2202 80.4692 18.1996 80.5315 18.193C80.6 18.1863 80.6703 18.1968 80.7421 18.2244C80.8139 18.2521 80.8875 18.303 80.9628 18.3774C81.0945 18.5074 81.1452 18.6443 81.1148 18.7878C81.0876 18.9283 80.9951 19.0784 80.8371 19.2383L81.4861 19.8796L81.5791 19.7855C81.7371 19.6256 81.8452 19.4629 81.9034 19.2973C81.9678 19.1317 81.9886 18.9664 81.9658 18.8014C81.9492 18.6363 81.8922 18.4745 81.7946 18.3162C81.7033 18.1578 81.5823 18.0042 81.4318 17.8555C81.1088 17.5365 80.7742 17.3671 80.4282 17.3474C80.0821 17.3277 79.7449 17.484 79.4166 17.8164C79.2802 17.9544 79.1766 18.0936 79.1058 18.2344C79.0381 18.3719 79 18.5171 78.9916 18.6698C78.9894 18.8226 79.0137 18.983 79.0647 19.1509C79.1156 19.3189 79.1914 19.5024 79.2924 19.7012C79.3681 19.8504 79.425 19.9809 79.4631 20.0929C79.5075 20.2049 79.5314 20.3059 79.5351 20.3964C79.5387 20.4867 79.5221 20.5694 79.4852 20.6445C79.4544 20.7194 79.4019 20.7945 79.3275 20.8698C79.1882 21.0109 79.0421 21.0741 78.8893 21.0595C78.7427 21.0448 78.6176 20.9864 78.5142 20.8841C78.4264 20.7974 78.3651 20.7121 78.3303 20.6281C78.2986 20.5473 78.2872 20.4678 78.2961 20.3898C78.305 20.3119 78.3342 20.2354 78.3836 20.1602C78.4361 20.082 78.501 20.0037 78.5785 19.9253L78.6761 19.8265Z" fill="#FEFEFE"/>
<path d="M83.9663 20.8281L83.1844 21.4806L82.8878 21.1253L82.4107 21.5235L82.7073 21.8789L81.1439 23.1837C81.0052 23.2995 80.8972 23.404 80.82 23.4972C80.7427 23.5904 80.6937 23.683 80.6729 23.775C80.6583 23.8675 80.6762 23.9646 80.7264 24.0661C80.783 24.1682 80.8677 24.287 80.9807 24.4223C81.0485 24.5035 81.1154 24.5768 81.1815 24.6423C81.247 24.7139 81.3123 24.7886 81.3772 24.8664L81.8645 24.4597C81.8414 24.4389 81.8168 24.4163 81.7908 24.392C81.7682 24.365 81.7456 24.3379 81.723 24.3109C81.6383 24.2093 81.6038 24.1232 81.6196 24.0528C81.6415 23.9828 81.7066 23.9025 81.8149 23.8122L83.292 22.5793L83.6308 22.9854L84.1077 22.5871L83.7688 22.181L84.5506 21.5286L83.9663 20.8281Z" fill="#FEFEFE"/>
<path d="M84.8339 26.4858L84.2554 26.881C84.1752 26.9357 84.0959 26.9683 84.0174 26.979C83.9397 26.9897 83.8661 26.9837 83.7975 26.9612C83.7314 26.9425 83.6703 26.912 83.6149 26.8697C83.5628 26.8251 83.5198 26.7773 83.4851 26.7264C83.4154 26.6245 83.4057 26.5243 83.456 26.4259C83.5058 26.3276 83.5876 26.2398 83.7008 26.1628C83.8314 26.0733 83.9579 26.0352 84.0785 26.0486C84.2 26.0619 84.3289 26.1338 84.4661 26.2643C84.5099 26.3042 84.562 26.3458 84.624 26.3891C84.6893 26.4299 84.7587 26.4621 84.8339 26.4858ZM84.462 24.7221L84.9248 25.3992L85.0066 25.3432C85.1232 25.2637 85.2355 25.2294 85.3446 25.2405C85.4537 25.2515 85.5479 25.3152 85.6273 25.4317C85.7141 25.5591 85.7422 25.6707 85.7116 25.7664C85.6868 25.8632 85.6182 25.9502 85.5058 26.0272C85.4074 26.0943 85.3174 26.1235 85.2372 26.1145C85.1562 26.1057 85.0628 26.0548 84.9562 25.9618L84.5512 25.6142C84.4248 25.508 84.3058 25.4238 84.1942 25.3614C84.0843 25.3027 83.9727 25.2673 83.857 25.2551C83.7488 25.2441 83.6331 25.2588 83.5116 25.2993C83.3932 25.3373 83.2649 25.4035 83.1265 25.498C83.0283 25.5651 82.9369 25.6462 82.8523 25.7412C82.7714 25.8339 82.7096 25.9348 82.6668 26.044C82.6241 26.1534 82.61 26.2697 82.6249 26.393C82.6433 26.5138 82.6973 26.6397 82.7868 26.7707C82.911 26.9528 83.0336 27.0853 83.1543 27.1683C83.2811 27.2525 83.4508 27.286 83.6636 27.269L83.6711 27.2799C83.6273 27.3256 83.5818 27.3726 83.5347 27.4208C83.4942 27.4702 83.4584 27.5237 83.4284 27.5816L83.9207 28.3023C83.9835 28.2062 84.0479 28.1248 84.1141 28.0581C84.1827 27.995 84.2868 27.9162 84.4248 27.8217L85.9703 26.7666C86.1017 26.6771 86.2116 26.5805 86.3008 26.4769C86.3959 26.3743 86.4579 26.2575 86.486 26.1264C86.5141 25.9952 86.5025 25.8456 86.4513 25.6774C86.4008 25.5093 86.2984 25.3124 86.1438 25.0867C86.0471 24.9447 85.9389 24.8212 85.819 24.7162C85.7058 24.6123 85.5802 24.5379 85.4422 24.493C85.3116 24.4492 85.1686 24.4398 85.0149 24.4647C84.8645 24.4872 84.7041 24.5569 84.5331 24.6736L84.462 24.7221Z" fill="#FEFEFE"/>
<path d="M88.1274 28.2402L84.9844 29.9059L85.4116 30.7121L87.4968 29.6068C87.8439 29.4231 88.0926 29.4735 88.2431 29.7578C88.3067 29.8784 88.3207 29.9836 88.2827 30.0732C88.2497 30.1608 88.1513 30.2479 87.9877 30.3346L85.8199 31.4833L86.2472 32.2894L88.5786 31.054C88.8935 30.8868 89.0844 30.696 89.1505 30.4816C89.2183 30.2709 89.1844 30.0371 89.048 29.7801C88.9554 29.6048 88.8356 29.4686 88.6893 29.3716C88.5472 29.2724 88.3753 29.2212 88.1745 29.2181L88.1678 29.2064L88.5356 29.0114L88.1274 28.2402Z" fill="#FEFEFE"/>
<path d="M88.0142 35.2565L87.6638 35.3964L87.9878 36.2067L92.3712 34.4549L92.0332 33.6076L90.6456 34.1622L90.6407 34.1498C90.7357 34.0074 90.7927 33.8659 90.8126 33.7251C90.834 33.5884 90.8126 33.4403 90.7489 33.2807C90.6101 32.9327 90.3704 32.7317 90.0307 32.6776C89.6952 32.6218 89.2208 32.7166 88.6068 32.962C87.9927 33.2074 87.5853 33.465 87.3845 33.7351C87.1845 34.0051 87.1531 34.3141 87.2927 34.6621C87.3613 34.834 87.4489 34.9649 87.5564 35.055C87.6646 35.1492 87.8159 35.2122 88.0092 35.2442L88.0142 35.2565ZM88.9448 33.8093C89.3051 33.6653 89.5861 33.584 89.7878 33.5652C89.9944 33.5488 90.1349 33.6328 90.2084 33.817C90.2836 34.0053 90.2398 34.1628 90.077 34.2897C89.92 34.4189 89.6613 34.5555 89.301 34.6995C88.9407 34.8434 88.6572 34.9236 88.4497 34.9398C88.2489 34.9586 88.1101 34.8739 88.0349 34.6856C87.9613 34.5014 88.0035 34.3447 88.1605 34.2154C88.3233 34.0886 88.5853 33.9532 88.9448 33.8093Z" fill="#FEFEFE"/>
<path d="M90.8169 39.0997L90.1409 39.2844C90.0475 39.3099 89.9624 39.315 89.8847 39.2996C89.8078 39.2841 89.7401 39.2546 89.6822 39.2109C89.626 39.1715 89.5781 39.1228 89.5401 39.0649C89.5054 39.0057 89.4797 38.9464 89.464 38.8869C89.431 38.7678 89.4549 38.67 89.5343 38.5934C89.6136 38.5169 89.7194 38.4606 89.8516 38.4245C90.0045 38.3827 90.1359 38.3879 90.2467 38.4401C90.3566 38.4922 90.4549 38.6023 90.5425 38.7705C90.5698 38.8222 90.6062 38.8787 90.65 38.9397C90.6987 38.9997 90.7541 39.053 90.8169 39.0997ZM91.0417 37.3113L91.2574 38.1021L91.3533 38.076C91.4888 38.0388 91.607 38.0433 91.7062 38.0892C91.8054 38.1352 91.8739 38.2262 91.9111 38.3623C91.9516 38.5111 91.9417 38.6257 91.8814 38.7061C91.8268 38.7897 91.7335 38.8494 91.602 38.8854C91.4872 38.9168 91.393 38.9151 91.3194 38.8803C91.2459 38.8455 91.1739 38.7669 91.1037 38.6444L90.8343 38.1835C90.75 38.0421 90.6649 37.9236 90.5797 37.8282C90.4954 37.7369 90.4004 37.6669 90.2963 37.6178C90.1963 37.5718 90.083 37.5481 89.9541 37.5466C89.8301 37.544 89.6872 37.5646 89.526 37.6088C89.4111 37.6402 89.2979 37.6869 89.1872 37.7492C89.0806 37.8104 88.9888 37.8856 88.9128 37.975C88.8368 38.0643 88.7855 38.1697 88.7591 38.2911C88.7376 38.4112 88.7475 38.5479 88.7888 38.701C88.8475 38.9135 88.9202 39.0788 89.007 39.1967C89.0996 39.3177 89.2492 39.4048 89.4549 39.458L89.4591 39.4708C89.4029 39.4998 89.3442 39.5294 89.2839 39.5596C89.2293 39.5929 89.1781 39.6319 89.131 39.6768L89.3607 40.5187C89.4516 40.4483 89.5392 40.3924 89.6235 40.351C89.7095 40.3138 89.8335 40.2732 89.9946 40.2291L91.7996 39.736C91.9525 39.6942 92.0888 39.6389 92.207 39.57C92.3301 39.5043 92.4268 39.414 92.4963 39.2991C92.5649 39.1843 92.6029 39.0391 92.6103 38.8635C92.6169 38.6881 92.5847 38.4685 92.512 38.2049C92.4673 38.0391 92.4054 37.8869 92.326 37.7486C92.2525 37.6133 92.1582 37.5021 92.0425 37.4147C91.9335 37.3305 91.8012 37.275 91.6483 37.2484C91.4987 37.2207 91.3244 37.234 91.1244 37.2887L91.0417 37.3113Z" fill="#FEFEFE"/>
<path d="M93.289 41.6055L89.7832 42.2052L89.9369 43.1046L92.0419 42.7445C92.1592 42.7244 92.2601 42.7272 92.3452 42.753C92.4344 42.7779 92.5088 42.8189 92.5675 42.8759C92.6311 42.9322 92.6799 42.9975 92.7154 43.072C92.7501 43.1465 92.7749 43.2228 92.7882 43.3011C92.7964 43.3489 92.8014 43.3948 92.8047 43.439C92.813 43.4868 92.8187 43.535 92.8229 43.5835L93.6832 43.4364C93.6832 43.4095 93.6799 43.3809 93.6749 43.3505C93.6749 43.3237 93.6725 43.2973 93.6683 43.2713C93.6361 43.0844 93.5568 42.9347 93.4303 42.8222C93.308 42.709 93.1543 42.6213 92.9692 42.559L92.9675 42.546L93.4361 42.4657L93.289 41.6055Z" fill="#FEFEFE"/>
<path d="M90.888 47.5017L90.5119 47.5279L90.5731 48.3985L95.2822 48.0704L95.2186 47.1602L93.7277 47.264L93.7268 47.2509C93.8607 47.1443 93.9591 47.0271 94.021 46.899C94.083 46.7754 94.1078 46.6278 94.0962 46.4563C94.0698 46.0826 93.9037 45.818 93.5962 45.6627C93.2938 45.5071 92.8128 45.4522 92.1533 45.4981C91.4938 45.5441 91.0277 45.665 90.7541 45.8608C90.4805 46.0566 90.3566 46.3414 90.3822 46.7151C90.3954 46.8998 90.4392 47.0513 90.5136 47.1699C90.5888 47.2928 90.7128 47.399 90.8872 47.4885L90.888 47.5017ZM92.2169 46.4083C92.6037 46.3814 92.8962 46.3897 93.0938 46.4334C93.2954 46.4812 93.4037 46.604 93.4177 46.8018C93.4318 47.0042 93.3417 47.1407 93.1475 47.2117C92.9582 47.2867 92.6706 47.3377 92.2839 47.3647C91.8971 47.3916 91.602 47.3813 91.3996 47.3335C91.2029 47.2898 91.0971 47.1668 91.083 46.9646C91.069 46.7666 91.1566 46.6302 91.3458 46.5552C91.5392 46.4842 91.8301 46.4353 92.2169 46.4083Z" fill="#FEFEFE"/>
<path d="M95.4143 50.17L94.6341 50.1556L94.6176 51.0678L95.3977 51.0822L95.4143 50.17ZM94.1977 50.1476L90.6415 50.082L90.625 50.9943L94.1812 51.0598L94.1977 50.1476Z" fill="#FEFEFE"/>
<path d="M91.3099 52.9002L90.6132 52.8262L90.3496 55.3114L91.086 55.3896L91.2356 53.9761L93.1893 55.6132L93.8868 55.6872L94.1438 53.2678L93.4075 53.1896L93.2637 54.5373L91.3099 52.9002Z" fill="#FEFEFE"/>
<path d="M91.5451 59.0689L90.8599 58.922C90.7649 58.9017 90.6872 58.8669 90.6252 58.8176C90.5641 58.7683 90.5178 58.711 90.4864 58.6458C90.4542 58.5848 90.4343 58.5197 90.4269 58.4504C90.4236 58.3821 90.4285 58.3178 90.4409 58.2574C90.4674 58.1367 90.5327 58.0607 90.6393 58.0293C90.7451 57.9979 90.8649 57.9966 90.998 58.0252C91.1533 58.0585 91.2682 58.1236 91.3418 58.2207C91.4153 58.3176 91.4525 58.4608 91.4525 58.6501C91.4533 58.7089 91.4591 58.7755 91.4707 58.85C91.4856 58.9255 91.5112 58.9984 91.5451 59.0689ZM92.5665 57.5841L92.3946 58.3856L92.4922 58.4065C92.6302 58.436 92.7327 58.4941 92.7996 58.5806C92.8666 58.6671 92.8856 58.7793 92.8558 58.9173C92.8236 59.0681 92.7616 59.1654 92.6715 59.209C92.5847 59.258 92.474 59.2681 92.3401 59.2395C92.2244 59.2145 92.1409 59.1697 92.0922 59.105C92.0426 59.0404 92.0153 58.9376 92.0095 58.7965L91.9814 58.2632C91.9723 58.0988 91.9508 57.9546 91.9194 57.8305C91.8864 57.7107 91.8343 57.605 91.7641 57.5132C91.6971 57.4268 91.607 57.3533 91.493 57.293C91.3847 57.2335 91.2484 57.1862 91.0839 57.1511C90.9682 57.1261 90.8459 57.1158 90.7186 57.1201C90.5963 57.1253 90.4806 57.1501 90.3715 57.1944C90.2632 57.2387 90.169 57.3088 90.0897 57.4045C90.0153 57.5011 89.9608 57.627 89.9277 57.7822C89.8814 57.9976 89.8699 58.1777 89.893 58.3224C89.9194 58.4723 90.012 58.6184 90.1707 58.7607L90.1682 58.7736C90.1054 58.7736 90.0401 58.7731 89.9723 58.7722C89.9087 58.7765 89.8451 58.7877 89.7831 58.8059L89.5996 59.6592C89.712 59.6383 89.8161 59.6289 89.9104 59.6311C90.0029 59.6376 90.1318 59.6584 90.2955 59.6935L92.1252 60.0859C92.2806 60.1192 92.4261 60.1324 92.5624 60.1256C92.7029 60.1241 92.8302 60.0883 92.9442 60.0181C93.0583 59.9479 93.1591 59.8365 93.2459 59.6839C93.3327 59.5312 93.4046 59.3212 93.4624 59.0541C93.498 58.886 93.5128 58.7223 93.5062 58.5631C93.5037 58.4093 93.4707 58.267 93.4087 58.1364C93.35 58.0112 93.2583 57.9014 93.1343 57.8072C93.0145 57.7139 92.8533 57.6455 92.6509 57.6021L92.5665 57.5841Z" fill="#FEFEFE"/>
<path d="M93.5319 62.8027L92.5592 62.4996L92.6972 62.0578L92.1038 61.8729L91.9666 62.3147L90.022 61.7085C89.8492 61.6548 89.703 61.6206 89.5831 61.6062C89.4633 61.5919 89.3583 61.6009 89.2699 61.6333C89.184 61.6712 89.1121 61.7388 89.0542 61.8362C88.9988 61.939 88.9451 62.0746 88.893 62.2429C88.8616 62.3438 88.836 62.4399 88.817 62.5309C88.7922 62.6248 88.765 62.72 88.7344 62.8168L89.341 63.0057C89.3459 62.975 89.3509 62.9421 89.3575 62.9072C89.3683 62.8735 89.3782 62.8399 89.3889 62.8062C89.4286 62.68 89.4823 62.6043 89.5501 62.5793C89.6203 62.5598 89.7236 62.571 89.8575 62.613L91.6947 63.1857L91.5369 63.6906L92.1302 63.8757L92.2881 63.3707L93.26 63.6738L93.5319 62.8027Z" fill="#FEFEFE"/>
<path d="M92.6196 66.2524L91.8948 65.9638L91.5576 66.8115L92.2824 67.1L92.6196 66.2524ZM91.4898 65.8024L88.1849 64.4863L87.8477 65.334L91.1518 66.65L91.4898 65.8024Z" fill="#FEFEFE"/>
<path d="M88.4753 68.4461C88.6364 68.5275 88.7835 68.607 88.9174 68.6843C89.0513 68.7617 89.1604 68.8389 89.2447 68.9161C89.3273 68.9972 89.3819 69.0812 89.4067 69.168C89.4323 69.2549 89.4199 69.3475 89.3703 69.4459C89.2868 69.6111 89.143 69.6816 88.9381 69.6572C88.7331 69.6327 88.4315 69.5203 88.0339 69.3198C87.6364 69.1193 87.367 68.9438 87.2257 68.7935C87.0843 68.6432 87.0554 68.4854 87.1389 68.3201C87.1885 68.2217 87.2562 68.157 87.3405 68.1257C87.4257 68.0945 87.5248 68.0879 87.6397 68.106C87.7521 68.1282 87.8786 68.17 88.0207 68.2317C88.162 68.2932 88.3133 68.3648 88.4753 68.4461ZM88.886 67.6316C88.6108 67.4926 88.3562 67.3892 88.124 67.3213C87.8959 67.2555 87.6868 67.234 87.4976 67.257C87.3124 67.2819 87.1455 67.3582 86.9967 67.4858C86.8529 67.6154 86.7207 67.8032 86.6017 68.0491C86.4843 68.2813 86.4199 68.493 86.4075 68.6841C86.3926 68.8792 86.4298 69.0607 86.5174 69.2286C86.61 69.3984 86.7488 69.5576 86.9356 69.7061C87.1224 69.8546 87.3521 69.9974 87.6232 70.1344C87.9025 70.2754 88.1562 70.3788 88.3852 70.4446C88.6133 70.5105 88.8224 70.532 89.0116 70.509C89.2009 70.486 89.3695 70.4108 89.5182 70.2832C89.6703 70.1575 89.8058 69.9717 89.9248 69.7258C90.0422 69.4936 90.1042 69.2779 90.1108 69.0789C90.1191 68.8858 90.0777 68.7042 89.986 68.5344C89.8976 68.3665 89.7604 68.2084 89.5736 68.0598C89.3868 67.9113 89.1579 67.7685 88.886 67.6316Z" fill="#FEFEFE"/>
<path d="M88.1658 72.9203L85.1881 70.9746L84.6889 71.7384L86.665 73.0295C86.9939 73.2441 87.0699 73.4861 86.8939 73.7554C86.8187 73.8698 86.7336 73.9324 86.6369 73.943C86.5443 73.9561 86.4203 73.912 86.265 73.8107L84.2121 72.469L83.7129 73.2328L85.9212 74.6758C86.2203 74.8711 86.479 74.9457 86.6988 74.8997C86.9162 74.8573 87.1046 74.7144 87.2633 74.4709C87.3716 74.3049 87.4335 74.1344 87.4476 73.9594C87.4658 73.7868 87.4269 73.6117 87.3327 73.4341L87.3402 73.423L87.6889 73.6509L88.1658 72.9203Z" fill="#FEFEFE"/>
<path d="M34.5977 88.5309L36.3001 89.0805L36.3949 88.7871C36.4581 88.5912 36.5217 88.4392 36.5857 88.3301C36.6583 88.2169 36.728 88.135 36.7947 88.0846C36.8679 88.0359 36.9371 88.0119 37.0021 88.0111C37.0692 88.0036 37.1354 88.0111 37.2006 88.0317C37.3441 88.078 37.4404 88.1706 37.4894 88.3086C37.5384 88.4466 37.5155 88.6631 37.4207 88.9565C37.3365 89.2177 37.2289 89.4169 37.098 89.5549C36.9757 89.6879 36.7981 89.8144 36.5651 89.9334L34.9538 90.7747C34.4232 91.0573 34.0124 91.3929 33.7212 91.7813C33.4387 92.1656 33.2185 92.602 33.0605 93.0912L37.6201 94.5631L38.0624 93.1937L35.6749 92.4226C35.7412 92.3293 35.8358 92.2483 35.9587 92.1797C36.0882 92.1136 36.2047 92.0532 36.3082 92.0003L37.7225 91.3012C38.0677 91.1243 38.3701 90.902 38.6299 90.6326C38.8896 90.3631 39.0953 89.9937 39.2469 89.5243C39.3312 89.2631 39.3776 89.0086 39.386 88.759C39.401 88.5119 39.3511 88.2764 39.2362 88.0516C39.1301 87.8226 38.9492 87.6135 38.6939 87.4226C38.4384 87.2326 38.0824 87.0631 37.6258 86.916C37.1496 86.7623 36.7468 86.6929 36.4175 86.7094C36.0882 86.7251 35.8083 86.8119 35.5778 86.9681C35.3495 87.1169 35.1586 87.3293 35.0051 87.6036C34.8537 87.8722 34.7179 88.1813 34.5977 88.5309Z" fill="#FEFEFE"/>
<path d="M41.5196 90.7324L43.292 90.9754L43.3339 90.6696C43.3619 90.4655 43.3978 90.3052 43.4418 90.1861C43.4935 90.0622 43.5477 89.9688 43.6045 89.9076C43.6682 89.8473 43.732 89.8109 43.7958 89.7985C43.8607 89.7804 43.9271 89.7754 43.995 89.7845C44.1444 89.8052 44.2553 89.8795 44.3277 90.0068C44.4002 90.1341 44.4155 90.3506 44.3735 90.6564C44.3363 90.9283 44.2653 91.1432 44.1606 91.3018C44.0634 91.4547 43.9107 91.6101 43.7022 91.768L42.263 92.8787C41.7901 93.2498 41.4444 93.6514 41.2258 94.0853C41.0149 94.5134 40.8745 94.982 40.8047 95.4911L45.5515 96.1423L45.7472 94.7159L43.2616 94.3754C43.3105 94.2713 43.3895 94.1746 43.4985 94.0861C43.6144 93.9977 43.7186 93.9184 43.8113 93.8481L45.0812 92.9126C45.3901 92.6779 45.6489 92.4051 45.8575 92.0952C46.0661 91.7845 46.2039 91.3853 46.2711 90.8961C46.3082 90.6242 46.3092 90.3647 46.2739 90.1184C46.2454 89.8721 46.1549 89.649 46.0026 89.4481C45.858 89.2415 45.6433 89.0663 45.3584 88.9233C45.0736 88.7804 44.6935 88.6771 44.2182 88.6118C43.7225 88.5432 43.3139 88.5465 42.9925 88.62C42.671 88.6936 42.4105 88.8275 42.2109 89.0209C42.0123 89.2085 41.8615 89.4506 41.7584 89.7481C41.6563 90.0382 41.5768 90.3663 41.5196 90.7324Z" fill="#FEFEFE"/>
<path d="M50.771 94.0504L50.6652 91.6471C50.6426 91.1339 50.6719 90.786 50.7531 90.6042C50.8339 90.4149 50.9737 90.3166 51.1723 90.3075C51.3709 90.2984 51.5187 90.3851 51.6159 90.5661C51.7128 90.7397 51.7725 91.0835 51.7951 91.5975L51.9009 94.0008C51.9235 94.5149 51.8944 94.8661 51.8134 95.0546C51.7323 95.2364 51.5924 95.3323 51.3938 95.3405C51.1953 95.3496 51.0475 95.267 50.9506 95.0926C50.8534 94.9116 50.7936 94.5645 50.771 94.0504ZM48.8076 92.9331C48.8401 93.6728 48.9148 94.2802 49.0318 94.7554C49.1553 95.2232 49.3225 95.5934 49.5335 95.8653C49.751 96.1298 50.0161 96.3066 50.3287 96.3959C50.6483 96.4851 51.0203 96.5199 51.4449 96.5017C51.8695 96.4827 52.2335 96.4149 52.5372 96.2992C52.8477 96.1827 53.0962 95.9827 53.2827 95.7C53.4758 95.4099 53.6099 95.0273 53.6849 94.5504C53.7666 94.0661 53.7911 93.4546 53.7586 92.7149C53.7263 91.9827 53.6482 91.3785 53.5244 90.9042C53.4075 90.429 53.2401 90.0554 53.0223 89.7835C52.8114 89.5116 52.546 89.3273 52.2262 89.2323C51.9132 89.1356 51.5444 89.0975 51.1198 89.1157C50.6953 89.1347 50.3279 89.2058 50.0177 89.3289C49.7144 89.4521 49.4662 89.6587 49.2731 89.9488C49.0869 90.238 48.9529 90.6248 48.8713 91.1083C48.7966 91.5918 48.7753 92.2 48.8076 92.9331Z" fill="#FEFEFE"/>
<path d="M58.4307 93.3165L57.9039 90.9685C57.7912 90.4669 57.7589 90.1198 57.8069 89.9264C57.8533 89.7264 57.9735 89.6041 58.1674 89.5611C58.3613 89.5173 58.5221 89.576 58.6495 89.7371C58.7755 89.8917 58.8948 90.2198 59.0074 90.7214L59.5343 93.0685C59.6469 93.5702 59.6799 93.9214 59.6335 94.1214C59.5856 94.3148 59.4647 94.433 59.2707 94.4768C59.0768 94.5198 58.9168 94.4644 58.7908 94.3107C58.6634 94.1495 58.5433 93.8181 58.4307 93.3165ZM56.3013 92.5611C56.4635 93.2834 56.6439 93.8685 56.8426 94.3157C57.0464 94.7545 57.2762 95.0892 57.5317 95.3198C57.7924 95.5421 58.0845 95.6702 58.4079 95.7033C58.7381 95.7338 59.1105 95.7033 59.5252 95.6099C59.9398 95.5173 60.2864 95.3867 60.5649 95.219C60.85 95.0495 61.0595 94.809 61.1934 94.4983C61.3325 94.1793 61.3971 93.7776 61.3871 93.2958C61.3824 92.8049 61.2989 92.1983 61.1368 91.476C60.9762 90.7603 60.7931 90.1801 60.5878 89.7338C60.3891 89.2867 60.1586 88.9487 59.8964 88.7198C59.6409 88.4892 59.3474 88.3545 59.0157 88.3165C58.6907 88.2768 58.3209 88.3041 57.9062 88.3975C57.4916 88.49 57.1424 88.6247 56.8588 88.8008C56.5818 88.9752 56.3738 89.2223 56.2347 89.5413C56.1023 89.8595 56.0384 90.2636 56.0432 90.7545C56.0547 91.2429 56.1407 91.8454 56.3013 92.5611Z" fill="#FEFEFE"/>
<path d="M65.8232 91.2526L64.8963 89.0327C64.6982 88.5583 64.606 88.2211 64.6195 88.0228C64.6304 87.8178 64.7276 87.6765 64.911 87.6005C65.0945 87.5236 65.263 87.5534 65.4165 87.6897C65.5674 87.8203 65.7418 88.122 65.9399 88.5964L66.8669 90.817C67.065 91.2914 67.1585 91.6311 67.1476 91.836C67.1341 92.0352 67.0356 92.1724 66.8522 92.2492C66.6687 92.3261 66.5016 92.2988 66.3507 92.1691C66.1971 92.0327 66.0213 91.7269 65.8232 91.2526ZM63.595 90.879C63.8803 91.5625 64.1595 92.1071 64.433 92.5129C64.7101 92.9096 64.9945 93.1997 65.2862 93.3823C65.5816 93.5559 65.8914 93.6311 66.2156 93.6071C66.5462 93.5798 66.9076 93.4848 67.2998 93.3211C67.6919 93.1575 68.0106 92.9691 68.2556 92.755C68.507 92.5385 68.6715 92.2658 68.7493 91.936C68.8308 91.598 68.8246 91.1914 68.731 90.7178C68.641 90.236 68.4534 89.6534 68.1682 88.9699C67.8856 88.293 67.6044 87.7534 67.3247 87.3501C67.0513 86.9443 66.7656 86.6509 66.4675 86.4707C66.1758 86.2881 65.8633 86.2071 65.5301 86.2278C65.2032 86.2451 64.8437 86.336 64.4515 86.4997C64.0594 86.6633 63.7389 86.8567 63.4902 87.079C63.2478 87.2988 63.0859 87.5782 63.0044 87.917C62.9293 88.2534 62.9367 88.6625 63.0266 89.1443C63.123 89.6245 63.3124 90.2021 63.595 90.879Z" fill="#FEFEFE"/>
<path d="M79.3387 83.4018C79.3387 84.0861 78.7837 84.6414 78.099 84.6414C77.4144 84.6414 76.8594 84.0861 76.8594 83.4018C76.8594 82.7172 77.4144 82.1621 78.099 82.1621C78.7837 82.1621 79.3387 82.7172 79.3387 83.4018Z" fill="#FEFEFE"/>
<path d="M24.7938 83.4018C24.7938 84.0861 24.2388 84.6414 23.5541 84.6414C22.8695 84.6414 22.3145 84.0861 22.3145 83.4018C22.3145 82.7172 22.8695 82.1621 23.5541 82.1621C24.2388 82.1621 24.7938 82.7172 24.7938 83.4018Z" fill="#FEFEFE"/>
<path fill-rule="evenodd" clip-rule="evenodd" d="M87.6028 50.4264C87.6028 70.9659 70.9522 87.6165 50.4127 87.6165C29.8732 87.6165 13.2227 70.9659 13.2227 50.4264C13.2227 29.8869 29.8732 13.2363 50.4127 13.2363C70.9522 13.2363 87.6028 29.8869 87.6028 50.4264ZM85.9499 50.4264C85.9499 70.053 70.0394 85.9636 50.4127 85.9636C30.7861 85.9636 14.8755 70.053 14.8755 50.4264C14.8755 30.7998 30.7861 14.8892 50.4127 14.8892C70.0394 14.8892 85.9499 30.7998 85.9499 50.4264Z" fill="#FEFEFE"/>
<path fill-rule="evenodd" clip-rule="evenodd" d="M99.9997 50.4266C99.9997 77.8127 77.799 100.013 50.4129 100.013C23.0269 100.013 0.826172 77.8127 0.826172 50.4266C0.826172 23.0406 23.0269 0.839844 50.4129 0.839844C77.799 0.839844 99.9997 23.0406 99.9997 50.4266ZM98.3468 50.4266C98.3468 76.8998 76.8861 98.3605 50.4129 98.3605C23.9398 98.3605 2.47906 76.8998 2.47906 50.4266C2.47906 23.9535 23.9398 2.49274 50.4129 2.49274C76.8861 2.49274 98.3468 23.9535 98.3468 50.4266Z" fill="#FEFEFE"/>
</g>
<defs>
<clipPath id="clip0_2111_2053">
<rect width="99.1736" height="100" fill="white" transform="translate(0.826172 0.425781)"/>
</clipPath>
</defs>
</svg>
