<svg width="60" height="60" viewBox="0 0 60 60" fill="none" xmlns="http://www.w3.org/2000/svg">
<path d="M29.8063 42.1548C27.6928 42.1548 25.8463 41.818 24.267 41.1445C22.7109 40.4477 21.5031 39.3909 20.6438 37.9742C19.7844 36.5342 19.3547 34.7109 19.3547 32.5045V18.2903C19.3547 18.0348 19.436 17.8258 19.5986 17.6632C19.7612 17.5006 19.9702 17.4193 20.2257 17.4193H24.7199C24.9754 17.4193 25.1844 17.5006 25.347 17.6632C25.5328 17.8258 25.6257 18.0348 25.6257 18.2903V32.4696C25.6257 33.9793 25.9857 35.1174 26.7057 35.8838C27.4257 36.6271 28.4476 36.9987 29.7715 36.9987C31.0722 36.9987 32.0825 36.6271 32.8025 35.8838C33.5457 35.1174 33.9173 33.9793 33.9173 32.4696V18.2903C33.9173 18.0348 33.9986 17.8258 34.1612 17.6632C34.347 17.5006 34.556 17.4193 34.7883 17.4193H39.3173C39.5496 17.4193 39.747 17.5006 39.9096 17.6632C40.0954 17.8258 40.1883 18.0348 40.1883 18.2903V32.5045C40.1883 34.7109 39.7586 36.5342 38.8993 37.9742C38.0399 39.3909 36.8322 40.4477 35.276 41.1445C33.7199 41.818 31.8967 42.1548 29.8063 42.1548Z" fill="#163D2D"/>
<path fill-rule="evenodd" clip-rule="evenodd" d="M30 54.1935C43.3617 54.1935 54.1935 43.3617 54.1935 30C54.1935 16.6383 43.3617 5.80645 30 5.80645C16.6383 5.80645 5.80645 16.6383 5.80645 30C5.80645 43.3617 16.6383 54.1935 30 54.1935ZM30 60C46.5685 60 60 46.5685 60 30C60 13.4315 46.5685 0 30 0C13.4315 0 0 13.4315 0 30C0 46.5685 13.4315 60 30 60Z" fill="#163D2D"/>
</svg>
