<svg width="109" height="34" viewBox="0 0 109 34" fill="none" xmlns="http://www.w3.org/2000/svg">
<g clip-path="url(#clip0_36_7951)">
<mask id="mask0_36_7951" style="mask-type:luminance" maskUnits="userSpaceOnUse" x="84" y="0" width="20" height="34">
<path d="M92.6201 0.823166C89.8855 1.62843 87.7764 3.29264 86.5431 5.90527C85.8103 7.46211 85.6137 9.12632 85.7745 10.8263C85.989 13.1705 86.9542 15.1032 88.7415 16.6242C88.9739 16.8211 89.2241 17.0179 89.4744 17.1968C89.5995 17.2863 89.7067 17.3758 89.8318 17.4474C89.9212 17.5011 89.9927 17.5547 90.0821 17.6084C90.2072 17.6979 90.3502 17.7695 90.4932 17.8589C90.6183 17.9484 90.7434 18.02 90.8864 18.0916C91.1545 18.2347 91.4226 18.3779 91.6907 18.5211C91.7979 18.5747 91.8873 18.6284 91.9945 18.6642C92.1197 18.7179 92.2448 18.7716 92.3699 18.8253C92.7095 18.9863 93.067 19.1295 93.4066 19.2726C93.764 19.4158 94.1215 19.5589 94.479 19.7021C95.5514 20.1316 96.6238 20.5432 97.6605 21.0084C98.3039 21.2947 98.9474 21.6705 99.4657 22.1537C99.5193 22.2074 99.5908 22.261 99.6266 22.3326C99.7874 22.5116 99.9125 22.7084 100.002 22.9053C100.091 23.1021 100.145 23.3168 100.163 23.5316C100.181 23.8358 100.163 24.1221 100.073 24.4084C100.038 24.4979 100.02 24.5874 99.9662 24.6589C99.9125 24.7842 99.841 24.8916 99.7517 25.0168C99.6623 25.1242 99.5729 25.2316 99.4657 25.3389C99.3585 25.4284 99.2333 25.5358 99.1082 25.6074C98.8759 25.7684 98.5899 25.8937 98.3218 26.001C98.1609 26.0547 97.9822 26.1084 97.8035 26.1442C96.1948 26.4663 94.6577 26.2695 93.1385 25.7147C92.9955 25.6611 92.8525 25.6074 92.7095 25.5358C92.5665 25.4821 92.4235 25.4105 92.2805 25.3389C91.9945 25.2137 91.7264 25.0526 91.4762 24.9095C91.083 24.6768 90.7076 24.4263 90.3323 24.14C90.0821 23.9611 89.8318 23.7821 89.5995 23.5853C89.1169 23.2095 88.7952 23.1916 88.4377 23.5495C88.4198 23.5853 88.3841 23.6032 88.3662 23.6389C87.1865 24.9453 86.0248 26.2695 84.863 27.5937C84.6664 27.8084 84.5949 28.0232 84.6128 28.22C84.6128 28.2737 84.6306 28.3095 84.6485 28.3632C84.6664 28.4168 84.6842 28.4526 84.7021 28.5063C84.7379 28.5779 84.7915 28.6495 84.8451 28.7211C84.9702 28.8642 85.0953 29.0253 85.2383 29.1684C85.2741 29.2221 85.3277 29.2579 85.3813 29.3116C86.1499 30.0632 86.9363 30.7253 87.7764 31.28C87.9909 31.4232 88.2053 31.5484 88.402 31.6737C88.6164 31.7989 88.8309 31.9242 89.0454 32.0316C90.2429 32.6579 91.4941 33.1231 92.781 33.4274C93.0133 33.481 93.2457 33.5347 93.478 33.5705C94.0679 33.6779 94.6577 33.7495 95.2654 33.8032C95.3905 33.821 95.5335 33.821 95.6586 33.821C100.52 29.3116 103.577 22.8695 103.63 15.7116C103.309 15.4968 102.969 15.3 102.611 15.139C101.325 14.4947 99.9662 14.0295 98.6256 13.5105C97.6068 13.1168 96.5702 12.7768 95.5514 12.3295C95.0509 12.0968 94.5505 11.7747 94.1572 11.3811C93.2636 10.5042 93.3887 9.09053 94.4253 8.37474C94.8007 8.10632 95.2654 7.92737 95.7122 7.8379C97.0706 7.56948 98.3933 7.78421 99.6266 8.37474C100.52 8.80421 101.378 9.34106 102.254 9.82421C102.558 10.0032 102.79 10.0747 102.987 10.0211C102.165 6.40632 100.574 3.0958 98.3754 0.286325C97.8213 0.214746 97.2494 0.178955 96.6774 0.178955C95.3548 0.19685 93.9964 0.411588 92.6201 0.823166Z" fill="white"/>
</mask>
<g mask="url(#mask0_36_7951)">
<path d="M86.436 -5.43994L113.568 3.47164L101.771 39.4937L74.6394 30.5822L86.436 -5.43994Z" fill="#FEFEFE"/>
</g>
<mask id="mask1_36_7951" style="mask-type:luminance" maskUnits="userSpaceOnUse" x="28" y="0" width="26" height="34">
<path d="M36.1576 15.4073V7.85577C36.1576 7.76629 36.2291 7.67682 36.3363 7.67682H39.5C41.5733 7.67682 43.736 8.83998 43.736 11.4168V11.8463C43.736 14.2263 41.4839 15.5684 39.4285 15.5684H36.3363C36.247 15.5684 36.1576 15.4968 36.1576 15.4073ZM30.2415 0.626294C28.8831 3.90103 28.1145 7.49787 28.1145 11.2737C28.1145 18.8789 31.1888 25.7684 36.1576 30.7789V22.6189H38.1237C38.2309 22.78 38.3382 22.941 38.4454 23.1021C40.4651 26.2695 42.4849 29.4547 44.5046 32.64C44.7905 33.0873 45.1123 33.3021 45.5949 33.3558C45.6664 33.3558 45.7379 33.3737 45.8093 33.3737C46.2562 33.3737 46.703 33.3737 47.1677 33.3558C48.401 33.3558 49.6343 33.3558 50.8676 33.3558H52.6549C52.9588 33.3558 53.0303 33.1947 53.066 33.1231C53.2269 32.7831 52.9409 32.4073 52.7443 32.1031C50.6173 28.8284 45.7736 21.3305 45.7021 21.2231C46.0238 21.0621 46.3455 20.9368 46.6494 20.7579C48.7585 19.5052 50.1884 17.6621 50.9212 15.2284C51.4753 13.421 51.5646 11.5779 51.2965 9.71682C50.8139 6.42419 49.1696 3.90103 46.2383 2.25472C44.1828 1.10945 41.9487 0.67998 39.643 0.64419C38.1773 0.626295 36.6938 0.608398 35.2282 0.608398C33.5302 0.608398 31.8858 0.626294 30.2415 0.626294Z" fill="white"/>
</mask>
<g mask="url(#mask1_36_7951)">
<mask id="mask2_36_7951" style="mask-type:luminance" maskUnits="userSpaceOnUse" x="28" y="0" width="26" height="34">
<path d="M53.1911 0.626343H28.1323V33.3558H53.1911V0.626343Z" fill="white"/>
</mask>
<g mask="url(#mask2_36_7951)">
<rect x="28.1248" y="0.617432" width="25.1374" height="32.8118" fill="#FEFEFE"/>
</g>
</g>
<mask id="mask3_36_7951" style="mask-type:luminance" maskUnits="userSpaceOnUse" x="0" y="0" width="26" height="34">
<path d="M8.82886 26.1621V19.8453C8.82886 19.7558 8.90036 19.6663 9.0076 19.6663H14.5127C16.2285 19.6663 17.6227 21.0621 17.6227 22.78V23.1379C17.6227 24.8916 16.2107 26.3232 14.4412 26.3232H9.0076C8.90036 26.3232 8.82886 26.2516 8.82886 26.1621ZM8.81099 12.9558V7.87369C8.81099 7.78422 8.88248 7.69474 8.98973 7.69474H13.2615C14.5663 7.69474 15.6208 8.75053 15.6208 10.039V10.5221C15.6208 11.9537 14.459 13.099 13.047 13.099H8.97185C8.88248 13.1169 8.81099 13.0453 8.81099 12.9558ZM1.67943 0.680005C1.0181 0.680005 0.785747 0.858952 0.75 1.43158V7.40843C1.50069 17.2505 5.32564 26.2337 11.2954 33.3737C12.2963 33.3737 13.3151 33.3558 14.3161 33.3558C16.1034 33.3379 17.855 33.1053 19.5709 32.5326C21.3046 31.96 22.8596 31.0832 23.9857 29.58C24.933 28.3095 25.3619 26.86 25.5407 25.3211C25.916 22.0821 24.933 19.2547 22.3056 17.2863C21.4655 16.66 20.5361 16.2484 19.5351 15.8726C19.9284 15.5684 20.4288 15.2463 20.8399 14.8347C22.0911 13.6179 22.7703 12.079 22.949 10.3611C23.3065 6.90737 22.1983 4.0979 19.2134 2.18316C17.5691 1.14527 15.7281 0.6979 13.8156 0.680005C11.7601 0.66211 9.70467 0.662109 7.63133 0.662109C5.66524 0.680004 3.6634 0.680005 1.67943 0.680005Z" fill="white"/>
</mask>
<g mask="url(#mask3_36_7951)">
<path d="M42.2167 18.0021L12.5822 45.9537L-15.5508 16.0516L14.0836 -11.9L42.2167 18.0021Z" fill="#FEFEFE"/>
</g>
<mask id="mask4_36_7951" style="mask-type:luminance" maskUnits="userSpaceOnUse" x="53" y="0" width="27" height="34">
<path d="M65.6131 0.769483C63.1287 1.48527 60.8945 2.77369 58.982 4.61685C55.3716 8.08843 53.6557 12.24 53.6915 16.9284C53.6915 17 53.6915 17.0716 53.6915 17.1253C53.7093 17.9126 53.763 18.7179 53.8881 19.5411C53.8881 19.559 53.8881 19.5768 53.8881 19.5947C53.9059 19.7021 53.9238 19.7916 53.9417 19.8811C54.9426 26.2874 59.5182 31.3337 65.5059 33.1947C65.5595 33.1947 65.631 33.1947 65.6846 33.1947C71.4578 33.1947 76.5339 30.1705 79.4116 25.6074C79.2149 25.5537 79.0183 25.6074 78.7681 25.7863C78.643 25.8758 78.4285 26.0547 78.3034 26.1442C75.8905 28.0947 73.1379 29.0611 70.01 28.8821C66.0421 28.6674 62.9321 26.8779 60.8409 23.5495C58.6603 20.1137 58.3743 16.4095 59.7506 12.6337C62.2172 5.83369 69.9028 3.13159 76.2122 6.46001C77.0522 6.90738 78.1425 7.74843 78.929 8.30316C79.1792 8.48211 79.3758 8.57158 79.5367 8.57158C79.5009 8.50001 79.4473 8.42843 79.3937 8.35685C76.5339 3.79369 71.4578 0.751587 65.6668 0.751587H65.6131V0.769483Z" fill="white"/>
</mask>
<g mask="url(#mask4_36_7951)">
<mask id="mask5_36_7951" style="mask-type:luminance" maskUnits="userSpaceOnUse" x="53" y="0" width="27" height="34">
<path d="M79.5189 0.769531H53.6379V33.2127H79.5189V0.769531Z" fill="white"/>
</mask>
<g mask="url(#mask5_36_7951)">
<rect x="53.6365" y="0.768311" width="25.9095" height="32.4682" fill="#FEFEFE"/>
</g>
</g>
<mask id="mask6_36_7951" style="mask-type:luminance" maskUnits="userSpaceOnUse" x="70" y="15" width="6" height="5">
<path d="M71.3327 15.5147C71.2434 15.5147 71.1719 15.5147 71.0825 15.5326C70.868 15.5684 70.7429 15.6758 70.7429 15.8905C70.7429 16.821 70.7429 17.7516 70.7429 18.6642C70.7429 18.8789 70.868 18.9863 71.0468 19.0221C71.154 19.04 74.7645 19.04 74.9611 19.04C75.1577 18.3063 75.2471 17.5189 75.2471 16.7137C75.2471 16.3021 75.2292 15.8905 75.1756 15.4968C73.9065 15.5147 72.6196 15.5147 71.3327 15.5147Z" fill="white"/>
</mask>
<g mask="url(#mask6_36_7951)">
<mask id="mask7_36_7951" style="mask-type:luminance" maskUnits="userSpaceOnUse" x="70" y="15" width="6" height="5">
<path d="M75.2649 15.5148H70.7429V19.0579H75.2649V15.5148Z" fill="white"/>
</mask>
<g mask="url(#mask7_36_7951)">
<rect x="70.7395" y="15.5063" width="4.54704" height="3.60758" fill="#FEFEFE"/>
</g>
</g>
<mask id="mask8_36_7951" style="mask-type:luminance" maskUnits="userSpaceOnUse" x="61" y="8" width="14" height="18">
<path d="M68.8842 8.21362C68.5625 8.2852 68.2587 8.39257 67.9369 8.49994C64.3443 9.82415 62.2174 12.4189 61.8778 16.2663C61.8599 16.5168 61.842 16.7673 61.842 17.0178V17.3399C61.8778 19.9526 63.0217 22.2073 65.1308 23.9431C65.9351 24.6052 66.7752 25.1242 67.651 25.482C70.761 25.1599 73.2811 23.1557 74.4965 20.4536C74.1391 20.9547 73.6207 21.3305 72.9773 21.5631C72.0836 21.9031 71.1542 21.9568 70.2069 21.8136C68.7591 21.581 67.651 20.8473 66.9181 19.5768C66.2926 18.4673 66.1496 17.2863 66.3641 16.0515C66.65 14.5305 67.4722 13.3494 68.8842 12.6873C70.5822 11.882 72.2623 12.0789 73.8531 13.0452C74.0855 13.1884 74.2284 13.2778 74.4608 13.4389C74.6217 13.5463 74.7646 13.582 74.8898 13.4926C73.8531 10.8978 71.6189 8.89362 68.8842 8.21362Z" fill="white"/>
</mask>
<g mask="url(#mask8_36_7951)">
<mask id="mask9_36_7951" style="mask-type:luminance" maskUnits="userSpaceOnUse" x="61" y="8" width="14" height="18">
<path d="M74.8719 8.21362H61.8242V25.482H74.8719V8.21362Z" fill="white"/>
</mask>
<g mask="url(#mask9_36_7951)">
<rect x="61.8306" y="8.20532" width="13.1264" height="17.3507" fill="#FEFEFE"/>
</g>
</g>
<mask id="mask10_36_7951" style="mask-type:luminance" maskUnits="userSpaceOnUse" x="28" y="0" width="9" height="34">
<path d="M28.1323 32.3716C28.1323 33.1053 28.3468 33.32 29.0796 33.3379C31.1351 33.3379 33.1905 33.3379 35.2639 33.3379C35.9252 33.3379 36.1397 33.1231 36.1754 32.461C36.1754 32.3179 36.1754 32.1568 36.1754 32.0137V30.7789C31.2066 25.7684 28.1323 18.8789 28.1323 11.2737V32.3716ZM29.1154 0.626294C28.3468 0.626294 28.1323 0.84103 28.1323 1.59261V11.2558C28.1323 7.47998 28.883 3.88314 30.2593 0.608398C29.8661 0.626293 29.4907 0.626294 29.1154 0.626294Z" fill="white"/>
</mask>
<g mask="url(#mask10_36_7951)">
<path d="M40.2506 32.8189L28.2575 34.3399L24.0393 1.1452L36.0325 -0.375854L40.2506 32.8189Z" fill="#FEFEFE"/>
</g>
<mask id="mask11_36_7951" style="mask-type:luminance" maskUnits="userSpaceOnUse" x="0" y="7" width="12" height="27">
<path d="M0.75 32.6221C0.785747 33.2127 1.03598 33.3737 1.73305 33.3737C4.91455 33.3737 8.11392 33.3737 11.2954 33.3737C5.32564 26.2337 1.50069 17.2506 0.75 7.40845V32.6221Z" fill="white"/>
</mask>
<g mask="url(#mask11_36_7951)">
<path d="M23.4136 25.0348L4.14585 38.3306L-11.3684 15.7832L7.8993 2.48743L23.4136 25.0348Z" fill="#FEFEFE"/>
</g>
<mask id="mask12_36_7951" style="mask-type:luminance" maskUnits="userSpaceOnUse" x="67" y="15" width="13" height="12">
<path d="M75.265 16.7316C75.265 17.5368 75.1578 18.3063 74.9791 19.0579C74.9612 19.201 74.9612 19.3084 74.9433 19.3979C74.8539 19.8095 74.6931 20.1495 74.4965 20.4537C73.2811 23.1737 70.7609 25.16 67.6509 25.4821C67.6866 25.5 67.7045 25.5 67.7402 25.5179C67.7939 25.5358 67.8654 25.5716 67.919 25.5895C68.0441 25.6431 68.1692 25.6789 68.2765 25.7147C68.3301 25.7326 68.4016 25.7505 68.4552 25.7684C68.5803 25.8042 68.7054 25.84 68.8484 25.8758C68.9199 25.8937 68.9914 25.9116 69.045 25.9295C69.1165 25.9473 69.188 25.9652 69.2595 25.9652C69.331 25.9831 69.4204 26.001 69.4919 26.001C69.5455 26.0189 69.617 26.0189 69.6706 26.0368C69.7421 26.0547 69.8136 26.0547 69.8851 26.0726C69.9387 26.0726 70.0102 26.0905 70.0817 26.0905C70.1532 26.0905 70.2426 26.1084 70.314 26.1084C70.5285 26.1263 70.743 26.1263 70.9396 26.1263C71.8333 26.1263 72.7627 25.9831 73.71 25.7147C73.8709 25.661 74.0318 25.6073 74.1926 25.5537C74.3535 25.5 74.4965 25.4463 74.6395 25.3747C74.6931 25.3568 74.7467 25.321 74.8003 25.3031C74.9076 25.2495 75.0148 25.1958 75.122 25.1421C75.1757 25.1242 75.2293 25.0884 75.2829 25.0526C75.4259 24.981 75.551 24.8916 75.6761 24.82C75.8012 24.7305 75.9264 24.641 76.0515 24.5516C76.3017 24.3726 76.5162 24.1758 76.7485 23.961C76.8379 23.8716 76.9451 23.7642 77.0345 23.6747C77.0703 23.6389 77.106 23.6031 77.1418 23.5495C77.2669 23.4063 77.3741 23.2631 77.4992 23.1021C77.5529 23.0484 77.5886 22.9768 77.6422 22.9052C77.7316 22.78 77.821 22.6547 77.8925 22.5116C77.9818 22.3863 78.0533 22.2431 78.1248 22.1C78.1963 21.9568 78.2678 21.8137 78.3393 21.6705C78.518 21.3126 78.661 20.9189 78.7861 20.5252C79.1615 19.38 79.2151 18.1989 79.1972 17.0179V15.8726C79.1972 15.6579 79.0364 15.4968 78.8219 15.4968C78.8219 15.4968 76.1408 15.4968 75.2293 15.4968C75.2472 15.9084 75.265 16.32 75.265 16.7316Z" fill="white"/>
</mask>
<g mask="url(#mask12_36_7951)">
<path d="M71.4042 10.0927L84.1481 18.9684L75.4079 31.5484L62.6641 22.6548L71.4042 10.0927Z" fill="#FEFEFE"/>
</g>
<mask id="mask13_36_7951" style="mask-type:luminance" maskUnits="userSpaceOnUse" x="65" y="0" width="18" height="9">
<path d="M68.5089 0.196816C67.5079 0.304185 66.5428 0.501026 65.5955 0.769447H65.6491C71.5295 0.769447 76.6592 3.90103 79.5011 8.58945C79.662 8.58945 79.8228 8.49998 80.0194 8.32103L80.8774 7.46208C81.217 7.12208 81.5566 6.79998 81.8783 6.45998L82.1285 6.20945C82.5039 5.81577 82.629 5.54734 82.5217 5.27892C82.4502 5.09997 82.2715 4.92103 82.0034 4.6884C78.7147 1.80734 74.711 0.107343 70.3856 0.107343C69.7958 0.0715531 69.1523 0.107343 68.5089 0.196816Z" fill="white"/>
</mask>
<g mask="url(#mask13_36_7951)">
<path d="M61.3594 4.52739L73.7458 -8.44629L86.9007 4.13371L74.5322 17.1253L61.3594 4.52739Z" fill="#FEFEFE"/>
</g>
<mask id="mask14_36_7951" style="mask-type:luminance" maskUnits="userSpaceOnUse" x="65" y="25" width="18" height="9">
<path d="M65.6668 33.2126C65.6132 33.2126 65.5417 33.2126 65.488 33.2126C67.0788 33.7137 68.7589 33.9821 70.5105 34C71.2076 33.9463 71.8868 33.9105 72.5838 33.8389C74.6751 33.5884 76.7305 32.8726 78.5358 31.8526C78.6251 31.7989 78.7145 31.7452 78.8039 31.7095C79.0541 31.5663 79.2686 31.4231 79.5188 31.28C79.6082 31.2263 79.6975 31.1547 79.7869 31.101C79.9656 30.9758 80.1444 30.8505 80.3231 30.7252C80.5019 30.6 80.6806 30.4747 80.8414 30.3316C80.9308 30.2779 81.0023 30.2063 81.0917 30.1347C81.1632 30.081 81.2525 30.0094 81.324 29.9379C81.4134 29.8663 81.4849 29.7947 81.5743 29.7231C81.6636 29.6516 81.753 29.5621 81.8245 29.4905C81.896 29.4368 81.9675 29.3652 82.0211 29.3116C82.0569 29.2758 82.0926 29.2579 82.1105 29.2221C82.4501 28.8642 82.4322 28.56 82.0747 28.1842C82.0032 28.1126 81.9317 28.0231 81.8424 27.9516C81.3598 27.4326 80.8414 26.9494 80.341 26.4484C80.1444 26.2516 79.9478 26.0726 79.7512 25.8758C79.6082 25.7326 79.5009 25.661 79.3758 25.6252C76.5339 30.1705 71.4578 33.2126 65.6668 33.2126Z" fill="white"/>
</mask>
<g mask="url(#mask14_36_7951)">
<path d="M75.3901 17.2505L86.579 30.5105L72.5482 42.3568L61.3594 29.0968L75.3901 17.2505Z" fill="#FEFEFE"/>
</g>
<mask id="mask15_36_7951" style="mask-type:luminance" maskUnits="userSpaceOnUse" x="68" y="7" width="10" height="7">
<path d="M69.2772 8.12426C69.2415 8.12426 69.2058 8.14216 69.1521 8.14216C69.0628 8.16005 68.9734 8.17794 68.884 8.21373C71.6187 8.91163 73.8529 10.8979 74.8896 13.4927C74.9432 13.4569 74.9789 13.4211 75.0325 13.3674C75.7296 12.6158 76.4803 11.9716 77.1774 11.2201C77.4455 10.9337 77.4276 10.7727 77.1595 10.4864C76.4803 9.77058 75.6939 9.19795 74.7823 8.78637C73.5312 8.23163 72.28 7.94531 71.011 7.94531C70.4212 7.94531 69.8492 7.999 69.2772 8.12426Z" fill="white"/>
</mask>
<g mask="url(#mask15_36_7951)">
<path d="M66.1494 10.3611L73.7099 3.70422L80.1802 11.0769L72.6018 17.7337L66.1494 10.3611Z" fill="#FEFEFE"/>
</g>
<mask id="mask16_36_7951" style="mask-type:luminance" maskUnits="userSpaceOnUse" x="98" y="0" width="9" height="11">
<path d="M98.3755 0.322144C100.574 3.14951 102.183 6.46004 102.987 10.0569C103.166 10.0211 103.309 9.89583 103.487 9.68109C104.56 8.33899 105.65 6.99688 106.705 5.65478C107.116 5.13583 107.098 4.83162 106.562 4.38425C105.954 3.8653 105.346 3.34635 104.703 2.89898C102.719 1.4853 100.592 0.608459 98.3755 0.322144Z" fill="white"/>
</mask>
<g mask="url(#mask16_36_7951)">
<path d="M95.3191 1.39583L106.15 -2.45154L110.19 8.9653L99.3585 12.8127L95.3191 1.39583Z" fill="#FEFEFE"/>
</g>
<mask id="mask17_36_7951" style="mask-type:luminance" maskUnits="userSpaceOnUse" x="95" y="15" width="14" height="19">
<path d="M95.6587 33.8568C95.7659 33.8568 95.8732 33.8747 95.9804 33.8747C97.5533 33.8568 98.8938 33.6778 100.163 33.3378C100.377 33.2842 100.574 33.2126 100.788 33.1589C101.003 33.0873 101.199 33.0157 101.396 32.9442C101.628 32.8547 101.861 32.7652 102.093 32.6578C103.344 32.1031 104.452 31.3515 105.4 30.3852C105.65 30.1168 105.9 29.8305 106.133 29.5442C106.222 29.4368 106.293 29.3294 106.383 29.2221C106.454 29.1147 106.526 29.0073 106.597 28.8821C106.74 28.6673 106.865 28.4347 106.991 28.2021C107.116 27.9694 107.223 27.7368 107.312 27.5042C107.455 27.1463 107.58 26.7884 107.67 26.4305C107.902 25.6073 107.991 24.7484 108.009 23.8715V23.7821C108.009 23.2094 107.956 22.6368 107.884 22.0642C107.866 21.8852 107.831 21.7063 107.795 21.5452C107.777 21.4736 107.777 21.4021 107.759 21.3305C107.741 21.241 107.723 21.1336 107.688 21.0442C107.67 20.9726 107.652 20.8831 107.634 20.8115C107.616 20.7757 107.616 20.7578 107.616 20.7221C107.598 20.6505 107.58 20.5789 107.562 20.5073C107.545 20.4536 107.527 20.4 107.509 20.3463C107.491 20.2747 107.455 20.2031 107.437 20.1494C107.437 20.1315 107.42 20.1136 107.42 20.0957C107.384 20.0063 107.348 19.9168 107.312 19.8094C107.277 19.7199 107.241 19.6305 107.187 19.5231C107.151 19.4336 107.098 19.3442 107.062 19.2547C107.026 19.201 107.008 19.1294 106.973 19.0757C106.865 18.861 106.74 18.6642 106.615 18.4673C106.579 18.4136 106.544 18.3778 106.526 18.3242C106.472 18.2526 106.419 18.1631 106.365 18.0915C106.293 18.0021 106.222 17.9126 106.15 17.841C106.079 17.7515 106.007 17.6799 105.936 17.5905C105.865 17.501 105.793 17.4294 105.704 17.3578C105.579 17.2326 105.436 17.1073 105.293 16.9821C104.774 16.5347 104.22 16.1231 103.648 15.7473C103.577 22.8873 100.52 29.3294 95.6587 33.8568Z" fill="white"/>
</mask>
<g mask="url(#mask17_36_7951)">
<path d="M101.289 9.57361L117.018 23.9968L102.361 40.0126L86.6326 25.5894L101.289 9.57361Z" fill="#FEFEFE"/>
</g>
</g>
<defs>
<clipPath id="clip0_36_7951">
<rect width="107.42" height="34" fill="white" transform="translate(0.75)"/>
</clipPath>
</defs>
</svg>
