<svg width="54" height="60" viewBox="0 0 54 60" fill="none" xmlns="http://www.w3.org/2000/svg">
<g clip-path="url(#clip0_36_7911)">
<path fill-rule="evenodd" clip-rule="evenodd" d="M20.2331 6.03259C2.8733 13.5856 0.466293 28.8125 4.86925 39.9008C11.0539 55.4755 28.2196 59.1304 39.8543 52.4796C47.3247 48.2092 54.1575 40.5013 52.2317 24.6454C56.6872 43.0638 44.9878 58.9878 27.1414 60.0013C-6.13207 58.7609 -9.25875 13.8152 20.2331 6.03259Z" fill="#163D2D"/>
<path fill-rule="evenodd" clip-rule="evenodd" d="M22.911 3.41302C34.0134 -5.95247 45.0309 5.86546 49.8732 15.8899C39.004 20.1834 26.7722 18.6535 22.6792 6.10052C29.7425 5.8315 36.4608 7.38856 42.8207 10.8492C37.7209 5.6603 30.8315 3.62769 22.911 3.41302Z" fill="#163D2D"/>
<path d="M15.9137 45.1087C14.6779 45.1291 13.6294 44.7731 12.7655 44.1019C11.8989 43.4307 11.4663 42.625 11.4663 41.6875V33.86C11.4663 32.9062 11.9016 32.0951 12.7722 31.4293C13.6402 30.7609 14.6873 30.428 15.9137 30.428C17.1496 30.428 18.1981 30.7636 19.0593 31.4348C19.9191 32.106 20.3329 32.9144 20.3477 33.8628L20.3679 35.1467H17.4636L17.4434 33.8166C17.438 33.4755 17.2871 33.1807 16.9703 32.9361C16.6536 32.6916 16.2736 32.5706 15.8275 32.5706C15.3814 32.5706 15.0054 32.6916 14.6914 32.9361C14.3814 33.1807 14.2251 33.4728 14.2251 33.8166V41.6658C14.2251 42.0095 14.3814 42.3003 14.6914 42.5421C15.0054 42.7812 15.3814 42.9022 15.8275 42.9022C16.2736 42.9022 16.6523 42.7812 16.9703 42.5421C17.2871 42.303 17.4339 42.0122 17.4434 41.6712L17.5054 39.6263H15.938V37.4511H20.4097L20.3477 44.9375L18.9488 44.9144L18.442 43.7636C17.7399 44.5068 17.1914 45.0883 15.9137 45.1087Z" fill="#163D2D"/>
<path d="M25.5552 44.9483H22.7883V30.5883H26.7695L29.353 40.9266L31.8436 30.5883H35.6481V44.9483H32.8826V35.9279L30.4703 44.9483H28.2411L25.5552 35.9524V44.9483Z" fill="#163D2D"/>
<path d="M18.6899 19.86L20.7694 25.3355V19.86H22.3341V28.019H20.6508L18.4932 22.7961V28.019H16.9285V19.86H18.6899Z" fill="#163D2D"/>
<path d="M31.636 19.86L33.7155 25.3355V19.86H35.2802V28.019H33.5969L31.4392 22.7961V28.019H29.8745V19.86H31.636Z" fill="#163D2D"/>
<path d="M26.9757 21.6929C26.9757 21.4972 26.8881 21.3328 26.7142 21.1956C26.539 21.0597 26.3288 20.9905 26.0795 20.9905C25.8301 20.9905 25.6185 21.0597 25.4406 21.1956C25.2641 21.3328 25.1765 21.4972 25.1765 21.6929V26.1494C25.1765 26.3451 25.2641 26.5095 25.4406 26.6467C25.6172 26.7826 25.8301 26.8505 26.0795 26.8505C26.3288 26.8505 26.539 26.7826 26.7142 26.6467C26.8881 26.5095 26.9757 26.3451 26.9757 26.1494V21.6929ZM26.1253 19.7635C26.8167 19.7635 27.4016 19.9538 27.884 20.3356C28.3692 20.7174 28.6091 21.1766 28.6091 21.7133V26.163C28.6091 26.7051 28.3665 27.1657 27.88 27.5448C27.3962 27.9252 26.8099 28.1141 26.1253 28.1141C25.4339 28.1141 24.849 27.9239 24.3679 27.5421C23.8867 27.1603 23.6482 26.701 23.6482 26.1644V21.7146C23.6482 21.1725 23.8908 20.7119 24.3773 20.3328C24.8625 19.9538 25.446 19.7635 26.1253 19.7635Z" fill="#163D2D"/>
<path d="M44.0269 33.7785C44.0269 33.4321 43.8719 33.1386 43.566 32.8954C43.256 32.6549 42.8854 32.5326 42.4447 32.5326C42.004 32.5326 41.6293 32.6549 41.3167 32.8954C41.004 33.14 40.849 33.4321 40.849 33.7785V41.6916C40.849 42.0381 41.004 42.3315 41.3167 42.5747C41.6293 42.8152 42.0053 42.9375 42.4447 42.9375C42.8854 42.9375 43.2574 42.8152 43.566 42.5747C43.8719 42.3302 44.0269 42.0381 44.0269 41.6916V33.7785ZM42.5229 30.3533C43.7439 30.3533 44.7803 30.6916 45.6334 31.3696C46.4905 32.0476 46.9164 32.8628 46.9164 33.8166V41.7188C46.9164 42.6807 46.4865 43.4987 45.6266 44.1712C44.7695 44.8465 43.7345 45.1821 42.5229 45.1821C41.3018 45.1821 40.2655 44.8438 39.4164 44.1658C38.566 43.4878 38.1428 42.6726 38.1428 41.7188V33.8166C38.1428 32.8546 38.5727 32.0367 39.4326 31.3641C40.2911 30.6902 41.3221 30.3533 42.5229 30.3533Z" fill="#163D2D"/>
</g>
<defs>
<clipPath id="clip0_36_7911">
<rect width="53.1818" height="60" fill="white"/>
</clipPath>
</defs>
</svg>
