<svg width="108" height="56" viewBox="0 0 108 56" fill="none" xmlns="http://www.w3.org/2000/svg">
<path fill-rule="evenodd" clip-rule="evenodd" d="M79.0442 4.22642H28.1164C14.932 4.22642 4.24398 14.8702 4.24398 28C4.24398 41.1298 14.932 51.7736 28.1164 51.7736H79.0442C92.2285 51.7736 102.917 41.1298 102.917 28C102.917 14.8702 92.2285 4.22642 79.0442 4.22642ZM28.1164 0C12.5881 0 0 12.536 0 28C0 43.464 12.5881 56 28.1164 56H79.0442C94.5724 56 107.161 43.464 107.161 28C107.161 12.536 94.5724 0 79.0442 0H28.1164Z" fill="#FEFEFE"/>
<path d="M79.2357 21.6815C79.1509 21.6815 79.0787 21.6519 79.0193 21.5928C78.9599 21.5336 78.9302 21.4617 78.9302 21.3772V13.123C78.9302 13.03 78.9599 12.954 79.0193 12.8948C79.0787 12.8356 79.1509 12.806 79.2357 12.806H80.2161C80.3349 12.806 80.4198 12.8356 80.4707 12.8948C80.5302 12.9455 80.5684 12.9835 80.5853 13.0089L84.2521 18.6892V13.123C84.2521 13.03 84.2776 12.954 84.3285 12.8948C84.3879 12.8356 84.4643 12.806 84.5577 12.806H85.6272C85.7205 12.806 85.7969 12.8356 85.8564 12.8948C85.9158 12.954 85.9455 13.03 85.9455 13.123V21.3645C85.9455 21.4575 85.9158 21.5336 85.8564 21.5928C85.7969 21.6519 85.7248 21.6815 85.6399 21.6815H84.6468C84.528 21.6815 84.4431 21.6519 84.3922 21.5928C84.3413 21.5336 84.3031 21.4955 84.2776 21.4786L80.6235 15.9251V21.3772C80.6235 21.4617 80.5938 21.5336 80.5344 21.5928C80.475 21.6519 80.3986 21.6815 80.3052 21.6815H79.2357Z" fill="#FEFEFE"/>
<path d="M71.3156 21.6815C71.2307 21.6815 71.1585 21.6519 71.0991 21.5928C71.0397 21.5336 71.01 21.4617 71.01 21.3772V13.123C71.01 13.03 71.0397 12.954 71.0991 12.8948C71.1585 12.8356 71.2307 12.806 71.3156 12.806H76.9176C77.011 12.806 77.0874 12.8356 77.1468 12.8948C77.2062 12.954 77.2359 13.03 77.2359 13.123V13.9598C77.2359 14.0444 77.2062 14.1162 77.1468 14.1754C77.0874 14.2346 77.011 14.2641 76.9176 14.2641H72.7288V16.5084H76.6375C76.7309 16.5084 76.8073 16.538 76.8667 16.5971C76.9261 16.6478 76.9558 16.7197 76.9558 16.8127V17.5988C76.9558 17.6918 76.9261 17.7678 76.8667 17.827C76.8073 17.8777 76.7309 17.9031 76.6375 17.9031H72.7288V20.2234H77.0195C77.1129 20.2234 77.1892 20.253 77.2487 20.3121C77.3081 20.3713 77.3378 20.4474 77.3378 20.5404V21.3772C77.3378 21.4617 77.3081 21.5336 77.2487 21.5928C77.1892 21.6519 77.1129 21.6815 77.0195 21.6815H71.3156Z" fill="#FEFEFE"/>
<path d="M65.5592 21.8083C64.7783 21.8083 64.112 21.673 63.5603 21.4025C63.017 21.132 62.5926 20.7432 62.2871 20.236C61.99 19.7204 61.8287 19.1076 61.8033 18.3975C61.7948 18.0341 61.7905 17.6452 61.7905 17.231C61.7905 16.8084 61.7948 16.4111 61.8033 16.0392C61.8287 15.3376 61.99 14.7375 62.2871 14.2387C62.5926 13.74 63.0213 13.3554 63.573 13.0849C64.1332 12.8144 64.7953 12.6792 65.5592 12.6792C66.1788 12.6792 66.722 12.7637 67.1889 12.9328C67.6557 13.0934 68.0419 13.3047 68.3475 13.5667C68.6615 13.8203 68.895 14.095 69.0477 14.3909C69.209 14.6867 69.2939 14.9615 69.3024 15.215C69.3109 15.2911 69.2896 15.3545 69.2387 15.4052C69.1878 15.456 69.1199 15.4813 69.035 15.4813H67.7236C67.6387 15.4813 67.5751 15.4644 67.5326 15.4306C67.4902 15.3968 67.452 15.3461 67.418 15.2784C67.3501 15.1009 67.244 14.9277 67.0998 14.7586C66.9555 14.5811 66.7602 14.4332 66.5141 14.3148C66.2679 14.1965 65.9496 14.1373 65.5592 14.1373C64.982 14.1373 64.5194 14.2895 64.1714 14.5938C63.8319 14.8981 63.6494 15.401 63.6239 16.1026C63.5985 16.838 63.5985 17.5818 63.6239 18.3341C63.6494 19.0526 63.8361 19.5683 64.1841 19.881C64.5406 20.1938 65.0075 20.3501 65.5846 20.3501C65.9666 20.3501 66.3061 20.2825 66.6032 20.1473C66.9088 20.012 67.1464 19.8007 67.3162 19.5133C67.4944 19.2259 67.5836 18.8582 67.5836 18.4102V18.0172H66.0303C65.9454 18.0172 65.8732 17.9876 65.8138 17.9284C65.7544 17.8692 65.7247 17.7932 65.7247 17.7002V17.0282C65.7247 16.9352 65.7544 16.8591 65.8138 16.8C65.8732 16.7408 65.9454 16.7112 66.0303 16.7112H69.0732C69.1666 16.7112 69.2387 16.7408 69.2896 16.8C69.3491 16.8591 69.3788 16.9352 69.3788 17.0282V18.3595C69.3788 19.0695 69.2217 19.6824 68.9077 20.198C68.6021 20.7136 68.1607 21.1109 67.5836 21.3898C67.0149 21.6688 66.3401 21.8083 65.5592 21.8083Z" fill="#FEFEFE"/>
<path d="M53.859 21.6815C53.7742 21.6815 53.702 21.6519 53.6426 21.5928C53.5832 21.5336 53.5535 21.4617 53.5535 21.3772V13.123C53.5535 13.03 53.5832 12.954 53.6426 12.8948C53.702 12.8356 53.7742 12.806 53.859 12.806H57.1566C58.1837 12.806 58.9943 13.0427 59.5884 13.5161C60.1826 13.9894 60.4796 14.6783 60.4796 15.5828C60.4796 16.2083 60.3226 16.7281 60.0086 17.1423C59.703 17.5565 59.2913 17.8566 58.7736 18.0426L60.6324 21.2758C60.6579 21.3265 60.6706 21.373 60.6706 21.4152C60.6706 21.4913 60.6409 21.5547 60.5815 21.6054C60.5306 21.6561 60.4712 21.6815 60.4033 21.6815H59.2446C59.1003 21.6815 58.99 21.6435 58.9136 21.5674C58.8372 21.4913 58.7778 21.4152 58.7354 21.3392L57.0929 18.3342H55.3232V21.3772C55.3232 21.4617 55.2935 21.5336 55.2341 21.5928C55.1832 21.6519 55.111 21.6815 55.0176 21.6815H53.859ZM55.3232 16.9014H57.1184C57.6362 16.9014 58.0224 16.7873 58.277 16.5591C58.5317 16.3224 58.659 15.9927 58.659 15.5701C58.659 15.1475 58.5317 14.8178 58.277 14.5811C58.0309 14.336 57.6447 14.2134 57.1184 14.2134H55.3232V16.9014Z" fill="#FEFEFE"/>
<path d="M45.9389 21.6815C45.854 21.6815 45.7818 21.6519 45.7224 21.5928C45.663 21.5336 45.6333 21.4617 45.6333 21.3772V13.123C45.6333 13.03 45.663 12.954 45.7224 12.8948C45.7818 12.8356 45.854 12.806 45.9389 12.806H51.5409C51.6343 12.806 51.7107 12.8356 51.7701 12.8948C51.8295 12.954 51.8592 13.03 51.8592 13.123V13.9598C51.8592 14.0444 51.8295 14.1162 51.7701 14.1754C51.7107 14.2346 51.6343 14.2641 51.5409 14.2641H47.3521V16.5084H51.2608C51.3542 16.5084 51.4306 16.538 51.49 16.5971C51.5494 16.6478 51.5791 16.7197 51.5791 16.8127V17.5988C51.5791 17.6918 51.5494 17.7678 51.49 17.827C51.4306 17.8777 51.3542 17.9031 51.2608 17.9031H47.3521V20.2234H51.6428C51.7361 20.2234 51.8125 20.253 51.872 20.3121C51.9314 20.3713 51.9611 20.4474 51.9611 20.5404V21.3772C51.9611 21.4617 51.9314 21.5336 51.872 21.5928C51.8125 21.6519 51.7361 21.6815 51.6428 21.6815H45.9389Z" fill="#FEFEFE"/>
<path d="M38.5534 21.6815C38.4685 21.6815 38.3963 21.6519 38.3369 21.5928C38.2775 21.5336 38.2478 21.4617 38.2478 21.3772V13.1103C38.2478 13.0258 38.2775 12.954 38.3369 12.8948C38.3963 12.8356 38.4685 12.806 38.5534 12.806H39.7374C39.8223 12.806 39.8945 12.8356 39.9539 12.8948C40.0133 12.954 40.043 13.0258 40.043 13.1103V20.1727H44.079C44.1724 20.1727 44.2488 20.2023 44.3082 20.2614C44.3676 20.3206 44.3973 20.3967 44.3973 20.4897V21.3772C44.3973 21.4617 44.3676 21.5336 44.3082 21.5928C44.2488 21.6519 44.1724 21.6815 44.079 21.6815H38.5534Z" fill="#FEFEFE"/>
<path d="M31.1676 21.6815C31.0827 21.6815 31.0106 21.6519 30.9512 21.5928C30.8918 21.5336 30.8621 21.4617 30.8621 21.3772V13.1103C30.8621 13.0258 30.8918 12.954 30.9512 12.8948C31.0106 12.8356 31.0827 12.806 31.1676 12.806H32.3517C32.4366 12.806 32.5087 12.8356 32.5681 12.8948C32.6276 12.954 32.6573 13.0258 32.6573 13.1103V20.1727H36.6933C36.7867 20.1727 36.8631 20.2023 36.9225 20.2614C36.9819 20.3206 37.0116 20.3967 37.0116 20.4897V21.3772C37.0116 21.4617 36.9819 21.5336 36.9225 21.5928C36.8631 21.6519 36.7867 21.6815 36.6933 21.6815H31.1676Z" fill="#FEFEFE"/>
<path d="M21.4873 21.6815C21.4194 21.6815 21.3558 21.6561 21.2964 21.6054C21.2454 21.5547 21.22 21.4913 21.22 21.4152C21.22 21.3814 21.2285 21.3434 21.2454 21.3011L24.3138 13.123C24.3393 13.0385 24.386 12.9666 24.4539 12.9075C24.5303 12.8398 24.6321 12.806 24.7595 12.806H26.1472C26.2746 12.806 26.3722 12.8398 26.4401 12.9075C26.508 12.9666 26.5589 13.0385 26.5929 13.123L29.6613 21.3011C29.6697 21.3434 29.674 21.3814 29.674 21.4152C29.674 21.4913 29.6485 21.5547 29.5976 21.6054C29.5467 21.6561 29.4872 21.6815 29.4193 21.6815H28.3117C28.1928 21.6815 28.1037 21.6561 28.0443 21.6054C27.9934 21.5463 27.9594 21.4913 27.9424 21.4406L27.344 19.8937H23.5626L22.9642 21.4406C22.9473 21.4913 22.9091 21.5463 22.8497 21.6054C22.7987 21.6561 22.7139 21.6815 22.595 21.6815H21.4873ZM24.0083 18.4356H26.8984L25.447 14.5177L24.0083 18.4356Z" fill="#FEFEFE"/>
<path d="M72.8568 43.7484C72.6649 43.7484 72.5079 43.6876 72.3858 43.566C72.2637 43.427 72.2026 43.2706 72.2026 43.0969V26.1579C72.2026 25.9667 72.2637 25.8104 72.3858 25.6888C72.5079 25.5672 72.6649 25.5063 72.8568 25.5063H85.0775C85.2694 25.5063 85.4264 25.5672 85.5485 25.6888C85.6706 25.8104 85.7317 25.9667 85.7317 26.1579V28.6075C85.7317 28.7986 85.6706 28.955 85.5485 29.0766C85.4264 29.1982 85.2694 29.259 85.0775 29.259H76.7298V32.7771H84.5018C84.6937 32.7771 84.8507 32.8466 84.9728 32.9856C85.0949 33.1072 85.156 33.2636 85.156 33.4547V35.7219C85.156 35.8956 85.0949 36.052 84.9728 36.191C84.8507 36.3126 84.6937 36.3734 84.5018 36.3734H76.7298V39.9957H85.2868C85.4787 39.9957 85.6357 40.0566 85.7579 40.1782C85.88 40.2998 85.941 40.4561 85.941 40.6472V43.0969C85.941 43.2706 85.88 43.427 85.7579 43.566C85.6357 43.6876 85.4787 43.7484 85.2868 43.7484H72.8568Z" fill="#FEFEFE"/>
<path d="M56.143 43.7484C55.9511 43.7484 55.7941 43.6876 55.6719 43.566C55.5498 43.427 55.4888 43.2706 55.4888 43.0969V26.1579C55.4888 25.9667 55.5498 25.8104 55.6719 25.6888C55.7941 25.5672 55.9511 25.5063 56.143 25.5063H68.3636C68.5555 25.5063 68.7125 25.5672 68.8346 25.6888C68.9568 25.8104 69.0178 25.9667 69.0178 26.1579V28.6075C69.0178 28.7986 68.9568 28.955 68.8346 29.0766C68.7125 29.1982 68.5555 29.259 68.3636 29.259H60.0159V32.7771H67.7879C67.9798 32.7771 68.1368 32.8466 68.2589 32.9856C68.3811 33.1072 68.4421 33.2636 68.4421 33.4547V35.7219C68.4421 35.8956 68.3811 36.052 68.2589 36.191C68.1368 36.3126 67.9798 36.3734 67.7879 36.3734H60.0159V39.9957H68.573C68.7649 39.9957 68.9219 40.0566 69.044 40.1782C69.1661 40.2998 69.2272 40.4561 69.2272 40.6472V43.0969C69.2272 43.2706 69.1661 43.427 69.044 43.566C68.9219 43.6876 68.7649 43.7484 68.573 43.7484H56.143Z" fill="#FEFEFE"/>
<path d="M38.0502 43.7484C37.8583 43.7484 37.7013 43.6876 37.5792 43.566C37.4571 43.427 37.396 43.2706 37.396 43.0969V26.1579C37.396 25.9667 37.4571 25.8104 37.5792 25.6888C37.7013 25.5672 37.8583 25.5063 38.0502 25.5063H45.168C47.4359 25.5063 49.2154 26.0275 50.5063 27.07C51.7973 28.095 52.4428 29.5543 52.4428 31.448C52.4428 32.6816 52.1462 33.724 51.5531 34.5752C50.9599 35.4265 50.1749 36.0694 49.1979 36.5037L52.783 42.9145C52.8353 43.0187 52.8615 43.1143 52.8615 43.2011C52.8615 43.3401 52.8004 43.4704 52.6783 43.592C52.5737 43.6963 52.4515 43.7484 52.312 43.7484H48.8316C48.5001 43.7484 48.2559 43.6702 48.0989 43.5139C47.9418 43.3401 47.8285 43.1838 47.7587 43.0448L44.7755 37.3116H42.1063V43.0969C42.1063 43.2706 42.0365 43.427 41.897 43.566C41.7748 43.6876 41.6178 43.7484 41.4259 43.7484H38.0502ZM42.1063 33.611H45.1157C45.9356 33.611 46.5462 33.4112 46.9475 33.0116C47.3661 32.6121 47.5755 32.0735 47.5755 31.3959C47.5755 30.7184 47.3749 30.1711 46.9736 29.7541C46.5898 29.3372 45.9705 29.1287 45.1157 29.1287H42.1063V33.611Z" fill="#FEFEFE"/>
<path d="M21.8742 43.7484C21.6823 43.7484 21.5253 43.6876 21.4031 43.566C21.281 43.427 21.22 43.2706 21.22 43.0969V26.1579C21.22 25.9667 21.281 25.8104 21.4031 25.6888C21.5253 25.5672 21.6823 25.5063 21.8742 25.5063H33.9116C34.1035 25.5063 34.2605 25.5672 34.3827 25.6888C34.5048 25.8104 34.5658 25.9667 34.5658 26.1579V28.7899C34.5658 28.981 34.5048 29.1374 34.3827 29.259C34.2605 29.3806 34.1035 29.4414 33.9116 29.4414H25.8256V33.2722H33.3883C33.5802 33.2722 33.7372 33.3417 33.8593 33.4807C33.9814 33.6023 34.0425 33.7587 34.0425 33.9498V36.5558C34.0425 36.7295 33.9814 36.8859 33.8593 37.0249C33.7372 37.1465 33.5802 37.2073 33.3883 37.2073H25.8256V43.0969C25.8256 43.2706 25.7645 43.427 25.6424 43.566C25.5203 43.6876 25.3633 43.7484 25.1714 43.7484H21.8742Z" fill="#FEFEFE"/>
</svg>
