<svg width="102" height="32" viewBox="0 0 102 32" fill="none" xmlns="http://www.w3.org/2000/svg">
<path d="M90.9643 30.5023C90.2815 30.5023 89.7995 29.8332 90.0158 29.1855L96.2677 10.4674C96.404 10.0593 96.786 9.78418 97.2162 9.78418H99.7819C100.467 9.78418 100.949 10.4575 100.729 11.1061L94.3646 29.8242C94.2267 30.2297 93.846 30.5023 93.4178 30.5023H90.9643ZM77.0727 30.5023C76.3929 30.5023 75.9112 29.8387 76.1219 29.1924L82.224 10.4742C82.3582 10.0627 82.7419 9.78418 83.1748 9.78418H85.1786C85.8569 9.78418 86.3384 10.4451 86.1305 11.0907L80.1032 29.8088C79.9701 30.2221 79.5856 30.5023 79.1514 30.5023H77.0727ZM75.9967 30.5023C75.5685 30.5023 75.1878 30.2297 75.0499 29.8242L68.6858 11.1061C68.4652 10.4575 68.9475 9.78418 69.6325 9.78418H72.1928C72.6257 9.78418 73.0094 10.0627 73.1436 10.4742L79.2457 29.1924C79.4564 29.8387 78.9747 30.5023 78.2949 30.5023H75.9967ZM90.2645 30.5023C89.8297 30.5023 89.4446 30.2213 89.3121 29.8071L83.3223 11.089C83.1158 10.4437 83.5972 9.78418 84.2747 9.78418H86.2812C86.714 9.78418 87.0978 10.0627 87.2319 10.4742L93.334 29.1924C93.5447 29.8387 93.0631 30.5023 92.3833 30.5023H90.2645Z" fill="#297354"/>
<path d="M56.6134 30.9997C54.5416 30.9997 52.6908 30.5439 51.0609 29.6323C49.4587 28.6931 48.2018 27.4086 47.2902 25.7787C46.3787 24.1489 45.9229 22.2705 45.9229 20.1434C45.9229 18.0164 46.3648 16.1379 47.2488 14.5081C48.1604 12.8783 49.4173 11.6075 51.0195 10.6959C52.6217 9.75672 54.4587 9.28711 56.5305 9.28711C58.6024 9.28711 60.4394 9.75672 62.0416 10.6959C63.6438 11.6075 64.8869 12.8783 65.7708 14.5081C66.6824 16.1379 67.1382 18.0164 67.1382 20.1434C67.1382 22.2705 66.6962 24.1489 65.8123 25.7787C64.9283 27.4086 63.6852 28.6931 62.083 29.6323C60.4808 30.5439 58.6576 30.9997 56.6134 30.9997ZM56.6134 26.7318C57.746 26.7318 58.7543 26.4555 59.6383 25.9031C60.5222 25.3229 61.2128 24.5495 61.7101 23.5826C62.2073 22.5882 62.4559 21.4418 62.4559 20.1434C62.4559 18.8451 62.1935 17.7125 61.6686 16.7456C61.1714 15.7512 60.4808 14.9777 59.5968 14.4252C58.7129 13.8451 57.6908 13.555 56.5305 13.555C55.3703 13.555 54.3482 13.8313 53.4643 14.3838C52.5803 14.9363 51.8897 15.7097 51.3924 16.7042C50.8952 17.6987 50.6466 18.8451 50.6466 20.1434C50.6466 21.4418 50.8952 22.5882 51.3924 23.5826C51.9173 24.5495 52.6217 25.3229 53.5057 25.9031C54.4173 26.4555 55.4532 26.7318 56.6134 26.7318Z" fill="#297354"/>
<path d="M35.9272 19.4375C35.4767 19.4612 35.0962 19.1021 35.119 18.6516C35.2136 16.7854 35.635 15.2249 36.383 13.9701C37.2394 12.5336 38.3444 11.4701 39.6979 10.7795C40.7685 10.2228 41.8723 9.88183 43.0093 9.75664C43.5582 9.69619 44.0073 10.1499 44.0073 10.7021V13.1358C44.0073 13.6881 43.5589 14.1313 43.0082 14.1739C42.1024 14.244 41.2338 14.4109 40.4024 14.6745C39.2974 15.006 38.3996 15.5585 37.709 16.332C37.159 16.9479 36.8281 17.7215 36.7161 18.6528C36.6661 19.0685 36.3453 19.4155 35.9272 19.4375ZM33.0322 30.5032C32.4799 30.5032 32.0322 30.0554 32.0322 29.5032V10.785C32.0322 10.2327 32.4799 9.78502 33.0322 9.78502H35.6731C36.2254 9.78502 36.6731 10.2327 36.6731 10.785V29.5032C36.6731 30.0554 36.2254 30.5032 35.6731 30.5032H33.0322Z" fill="#297354"/>
<path d="M15.1242 30.9999C12.1961 30.9999 9.58559 30.3645 7.29278 29.0938C5.0276 27.7955 3.24584 26.0275 1.9475 23.79C0.649168 21.5248 0 18.9419 0 16.0414C0 13.0856 0.649168 10.4889 1.9475 8.25135C3.24584 5.98617 5.0276 4.21822 7.29278 2.9475C9.58559 1.64917 12.1961 1 15.1242 1C16.8093 1 18.3839 1.26243 19.848 1.78729C21.3397 2.31215 22.6795 3.03038 23.8673 3.94197C24.7748 4.61731 25.5533 5.38133 26.2028 6.23402C26.5357 6.67106 26.3942 7.28816 25.9311 7.58375L23.7058 9.0042C23.2442 9.29885 22.6355 9.16285 22.2822 8.74441C21.8682 8.25405 21.3883 7.79964 20.8424 7.38119C20.0137 6.74583 19.1021 6.26241 18.1077 5.93091C17.1408 5.5718 16.1463 5.39225 15.1242 5.39225C13.1353 5.39225 11.3674 5.84804 9.8204 6.75964C8.30107 7.67124 7.09942 8.92814 6.21544 10.5303C5.33147 12.1049 4.88948 13.9419 4.88948 16.0414C4.88948 18.0856 5.31766 19.9088 6.17401 21.511C7.05798 23.1132 8.27344 24.3701 9.8204 25.2817C11.395 26.1933 13.2044 26.6491 15.2485 26.6491C16.8508 26.6491 18.2872 26.3176 19.5579 25.6546C20.8286 24.9916 21.8231 24.0662 22.5413 22.8784C23.1424 21.9211 23.5013 20.8472 23.618 19.6567C23.6671 19.1552 24.035 18.7289 24.535 18.6658L27.1344 18.338C27.7316 18.2626 28.2625 18.7289 28.2229 19.3295C28.0811 21.482 27.527 23.3832 26.5607 25.033C25.4557 26.9391 23.9087 28.417 21.9198 29.4667C19.9585 30.4888 17.6933 30.9999 15.1242 30.9999ZM17.6988 19.1491C17.1465 19.1491 16.6988 18.7014 16.6988 18.1491V16.2541C16.6988 15.7018 17.1465 15.2541 17.6988 15.2541H27.2595C27.8118 15.2541 28.2595 15.7018 28.2595 16.2541V17.7114C28.2595 18.1675 27.951 18.5657 27.5094 18.6797L25.8134 19.1174C25.7318 19.1384 25.6478 19.1491 25.5635 19.1491H17.6988Z" fill="#297354"/>
</svg>
