<svg width="227" height="43" viewBox="0 0 227 43" fill="none" xmlns="http://www.w3.org/2000/svg">
<g clip-path="url(#clip0_2111_1989)">
<path fill-rule="evenodd" clip-rule="evenodd" d="M145.723 27.6551C144.525 27.6551 143.926 27.0625 143.926 26.1737C143.926 25.4314 144.525 24.8681 145.571 24.6923L148.864 24.0997V24.396C148.864 26.3202 147.517 27.6551 145.723 27.6551ZM144.376 30.9174C147.219 30.9174 148.715 28.8402 148.715 28.8402H148.864V30.6211C149.761 30.6211 152.905 30.6211 152.905 30.6211V21.5765C152.905 18.3142 150.36 15.7942 146.62 15.7942C142.731 15.7942 140.636 18.6104 140.636 18.6104L143.029 20.9839C143.029 20.9839 144.227 19.3528 146.322 19.3528C147.818 19.3528 148.715 20.2416 148.867 21.2802L144.23 22.1104C141.536 22.5858 139.891 24.3928 139.891 26.7663C139.888 29.1397 141.682 30.9174 144.376 30.9174ZM114.157 30.6211H118.198V22.6151C118.198 20.8342 119.396 19.649 121.041 19.649C122.537 19.649 123.434 20.5379 123.434 22.169V30.6211H127.476V22.6151C127.476 20.8342 128.674 19.649 130.319 19.649C131.815 19.649 132.712 20.5379 132.712 22.169V30.6211H136.753V21.5765C136.753 18.0179 134.509 15.7942 131.666 15.7942C128.525 15.7942 126.877 18.3142 126.877 18.3142H126.728C126.728 18.3142 125.529 15.7942 122.388 15.7942C119.545 15.7942 118.347 18.1676 118.347 18.1676H118.198V16.0904H114.157V30.6211ZM108.241 14.163C109.526 14.163 110.575 13.1244 110.575 11.9393C110.575 10.7542 109.529 9.71555 108.27 9.71555C106.984 9.71555 105.935 10.7542 105.935 11.9393C105.938 13.1244 106.984 14.163 108.241 14.163ZM106.236 30.6211H110.277V16.0904H106.236V30.6211ZM100.391 30.9174C101.887 30.9174 103.085 30.4714 103.085 30.4714V26.7663C103.085 26.7663 102.337 27.0625 101.44 27.0625C100.242 27.0625 99.4941 26.3202 99.4941 24.9853V20.0918H102.787V16.3835H99.4941V11.936H95.9029V14.6058C95.9029 15.7909 95.3038 16.3867 94.2579 16.3867H92.9108V20.0951H95.456V25.5811C95.4528 28.99 97.3957 30.9174 100.391 30.9174ZM83.4746 27.2123C81.3794 27.2123 79.7344 25.5811 79.7344 23.3574C79.7344 21.1337 81.3794 19.5025 83.4746 19.5025C85.5697 19.5025 87.2147 21.1337 87.2147 23.3574C87.2147 25.5811 85.5697 27.2123 83.4746 27.2123ZM75.8421 36.8495H79.8834V28.5472H80.0323C80.0323 28.5472 81.5284 30.9207 84.6695 30.9207C88.1117 30.9207 91.2528 27.8081 91.2528 23.3574C91.2528 18.91 88.1117 15.7942 84.6695 15.7942C81.5284 15.7942 80.0323 18.1676 80.0323 18.1676H79.8834V16.0904H75.8421V36.8495ZM61.1891 26.916C57.4489 26.916 54.4568 23.95 54.4568 20.2449C54.4568 16.5365 57.4489 13.5737 61.1891 13.5737C64.9292 13.5737 67.9214 16.5397 67.9214 20.2449C67.9246 23.95 64.9325 26.916 61.1891 26.916ZM61.1891 31.0672C67.6234 31.0672 72.5617 26.1737 72.5617 20.2416C72.5617 14.3095 67.6234 9.41602 61.1891 9.41602C54.7547 9.41602 49.8164 14.3095 49.8164 20.2416C49.8164 26.1737 54.7547 31.0672 61.1891 31.0672Z" fill="#FEFEFE"/>
<path fill-rule="evenodd" clip-rule="evenodd" d="M21.4006 0.698954C17.858 0.633838 14.5129 1.44454 11.5693 2.92268L32.7312 21.0641C32.9481 21.2529 32.9481 21.5883 32.7312 21.7738L11.5693 39.9152C14.4028 41.3348 17.6021 42.139 20.9958 42.139C32.6955 42.139 42.1479 32.619 41.9051 20.9697C41.6622 9.91617 32.5498 0.907326 21.4006 0.698954ZM212.391 30.6199H216.433V27.2078L218.379 24.9841L222.119 30.6199H226.756L221.07 22.1678L226.458 16.0892H221.669L216.433 22.0213V9.86082H212.391V30.6199ZM194.445 30.6199H198.487V22.9101C198.487 20.9827 199.834 19.6478 201.628 19.6478C203.273 19.6478 204.322 20.6864 204.322 22.4641V30.6199H208.363V21.8715C208.363 18.1631 205.97 15.7929 202.975 15.7929C200.132 15.7929 198.635 18.1664 198.635 18.1664H198.487V16.0892H194.445V30.6199ZM183.37 27.6538C182.172 27.6538 181.573 27.0613 181.573 26.1724C181.573 25.4301 182.172 24.8669 183.218 24.691L186.512 24.0985V24.3948C186.512 26.319 185.164 27.6538 183.37 27.6538ZM182.023 30.9162C184.867 30.9162 186.363 28.839 186.363 28.839H186.512V30.6199C187.409 30.6199 190.553 30.6199 190.553 30.6199V21.5752C190.553 18.3129 188.008 15.7929 184.267 15.7929C180.378 15.7929 178.283 18.6092 178.283 18.6092L180.676 20.9827C180.676 20.9827 181.874 19.3515 183.97 19.3515C185.466 19.3515 186.363 20.2403 186.515 21.279L181.878 22.1092C179.183 22.5845 177.538 24.3915 177.538 26.765C177.535 29.1385 179.329 30.9162 182.023 30.9162ZM162.856 17.8669V13.7157H166.898C168.394 13.7157 169.291 14.6045 169.291 15.7929C169.291 16.978 168.394 17.8701 166.898 17.8701H162.856V17.8669ZM162.856 26.765V21.7217H167.493C169.287 21.7217 170.337 22.7603 170.337 24.2417C170.337 25.7231 169.291 26.7618 167.493 26.7618H162.856V26.765ZM158.368 30.6199H167.795C172.283 30.6199 174.977 27.9501 174.977 24.6878C174.977 20.6831 171.088 19.6478 171.088 19.6478C171.088 19.6478 173.931 18.6092 173.931 15.3469C173.931 12.3808 171.386 9.86082 167.199 9.86082H158.371V30.6199H158.368ZM15.5912 20.5366L11.3588 3.02686C4.65894 6.48128 0.0800781 13.4162 0.0800781 21.4157C0.0800781 29.4152 4.65894 36.3534 11.3588 39.8045L15.5912 22.2948C15.7272 21.7152 15.7272 21.1129 15.5912 20.5366Z" fill="#FEFEFE"/>
</g>
<defs>
<clipPath id="clip0_2111_1989">
<rect width="227" height="42" fill="white" transform="translate(0 0.425781)"/>
</clipPath>
</defs>
</svg>
