<svg width="60" height="48" viewBox="0 0 60 48" fill="none" xmlns="http://www.w3.org/2000/svg">
<path d="M10.9146 47.6596V44.5482C10.9327 44.2865 10.8952 44.0239 10.8046 43.778C10.714 43.532 10.5723 43.3084 10.3891 43.1219C10.2059 42.9354 9.98525 42.7904 9.74197 42.6966C9.49869 42.6027 9.23835 42.5622 8.97829 42.5777C8.63793 42.5554 8.29785 42.6254 7.99351 42.7804C7.68917 42.9355 7.4317 43.1699 7.24795 43.4592C7.08047 43.1785 6.84093 42.9485 6.55454 42.7933C6.26814 42.6382 5.9455 42.5637 5.62059 42.5777C5.33737 42.5634 5.05534 42.6238 4.80243 42.7529C4.54952 42.8821 4.33449 43.0755 4.17863 43.3141V42.7022H3.10742V47.6596H4.18888V44.9112C4.1655 44.7416 4.17971 44.5689 4.23049 44.4055C4.28127 44.2421 4.36735 44.092 4.48256 43.9661C4.59777 43.8402 4.73925 43.7415 4.89683 43.6772C5.05441 43.6129 5.2242 43.5845 5.39397 43.5941C6.10464 43.5941 6.46518 44.0608 6.46518 44.9008V47.6596H7.54664V44.9112C7.52501 44.7419 7.54045 44.5699 7.59188 44.4073C7.6433 44.2447 7.72947 44.0953 7.84431 43.9698C7.95916 43.8443 8.0999 43.7456 8.25666 43.6807C8.41342 43.6158 8.58239 43.5862 8.75171 43.5941C9.48294 43.5941 9.83312 44.0608 9.83312 44.9008V47.6596H10.9146ZM26.9203 42.7022H25.1694V41.1983H24.0879V42.7022H23.0888V43.6874H24.0879V45.9484C24.0879 47.0995 24.5308 47.7841 25.7976 47.7841C26.2709 47.7855 26.735 47.6525 27.1366 47.4003L26.8276 46.4773C26.5404 46.6498 26.2144 46.7462 25.8801 46.7573C25.3444 46.7573 25.1694 46.4253 25.1694 45.9277V43.6874H26.9203V42.7022ZM36.0561 42.5777C35.795 42.5699 35.5366 42.6333 35.3082 42.7611C35.0798 42.8888 34.8898 43.0763 34.7584 43.3037V42.7022H33.6975V47.6596H34.7687V44.8801C34.7687 44.0608 35.1188 43.6044 35.8193 43.6044C36.0484 43.6013 36.2759 43.6436 36.4887 43.7289L36.8183 42.7125C36.5737 42.6244 36.316 42.5788 36.0561 42.5777ZM22.2443 43.0962C21.638 42.7332 20.9408 42.5532 20.2358 42.5777C18.9896 42.5777 18.1862 43.1792 18.1862 44.1645C18.1862 44.9735 18.7836 45.4713 19.8856 45.6269L20.3903 45.6994C20.9774 45.7823 21.2555 45.9379 21.2555 46.2179C21.2555 46.6017 20.864 46.8195 20.1328 46.8195C19.5446 46.8366 18.9678 46.6539 18.4951 46.3009L17.9905 47.141C18.6144 47.5798 19.3618 47.8052 20.1225 47.7841C21.5439 47.7841 22.3678 47.1099 22.3678 46.1661C22.3678 45.2949 21.719 44.8386 20.6478 44.683L20.1432 44.6104C19.6796 44.5482 19.3089 44.4549 19.3089 44.1231C19.3089 43.76 19.659 43.5422 20.2461 43.5422C20.7852 43.5504 21.3134 43.6967 21.7808 43.9674L22.2443 43.0962ZM50.9392 42.5777C50.678 42.5699 50.4196 42.6333 50.1912 42.7611C49.9628 42.8888 49.7729 43.0763 49.6414 43.3037V42.7022H48.5806V47.6596H49.6517V44.8801C49.6517 44.0608 50.0019 43.6044 50.7022 43.6044C50.9314 43.6013 51.1589 43.6436 51.3718 43.7289L51.7014 42.7125C51.4568 42.6244 51.199 42.5788 50.9392 42.5777ZM37.1376 45.1808C37.1233 45.53 37.1819 45.8784 37.3094 46.2035C37.4369 46.5286 37.6306 46.8233 37.8779 47.0685C38.1253 47.3137 38.421 47.504 38.7458 47.6273C39.0706 47.7505 39.4175 47.8039 39.7641 47.7841C40.4072 47.8166 41.0391 47.6057 41.5355 47.1929L41.0206 46.3217C40.6503 46.6059 40.1987 46.7623 39.7331 46.7676C39.3317 46.7431 38.9547 46.5652 38.6791 46.2704C38.4035 45.9755 38.25 45.5858 38.25 45.1809C38.25 44.7759 38.4035 44.3862 38.6791 44.0913C38.9547 43.7965 39.3317 43.6186 39.7331 43.5941C40.1988 43.5994 40.6503 43.7558 41.0206 44.0401L41.5355 43.1688C41.039 42.756 40.4071 42.5452 39.7641 42.5777C39.4175 42.5579 39.0707 42.6113 38.7459 42.7345C38.421 42.8577 38.1254 43.0481 37.878 43.2932C37.6306 43.5384 37.4369 43.833 37.3094 44.1581C37.1819 44.4832 37.1234 44.8315 37.1376 45.1808ZM47.1695 45.1808V42.7022H46.0983V43.3037C45.9155 43.0664 45.6789 42.8767 45.4083 42.7504C45.1377 42.6241 44.841 42.5649 44.543 42.5777C43.8793 42.6105 43.2535 42.899 42.7953 43.3836C42.3371 43.8683 42.0815 44.5118 42.0815 45.1809C42.0815 45.85 42.3371 46.4936 42.7953 46.9782C43.2535 47.4628 43.8793 47.7513 44.543 47.7841C44.841 47.7969 45.1377 47.7377 45.4083 47.6113C45.6789 47.485 45.9155 47.2953 46.0983 47.058V47.6596H47.1695V45.1808ZM43.1835 45.1808C43.2001 44.8882 43.3014 44.607 43.4748 44.3717C43.6483 44.1365 43.8863 43.9575 44.1596 43.8568C44.4329 43.7561 44.7295 43.7382 45.0128 43.8052C45.296 43.8722 45.5536 44.0213 45.7538 44.2339C45.954 44.4466 46.088 44.7136 46.1392 45.0021C46.1905 45.2905 46.1568 45.5877 46.0423 45.8571C45.9278 46.1265 45.7376 46.3562 45.495 46.518C45.2523 46.6798 44.968 46.7666 44.677 46.7676C44.4731 46.7704 44.2707 46.7306 44.0828 46.6508C43.8949 46.5709 43.7254 46.4527 43.5851 46.3036C43.4448 46.1545 43.3366 45.9778 43.2675 45.7845C43.1984 45.5913 43.1698 45.3857 43.1835 45.1808ZM30.2575 42.5777C29.5895 42.6131 28.961 42.9076 28.504 43.3995C28.047 43.8914 27.797 44.5423 27.8063 45.2158C27.8156 45.8893 28.0836 46.533 28.5541 47.0119C29.0245 47.4907 29.6608 47.7675 30.3296 47.7841C31.0644 47.8101 31.783 47.5627 32.3483 47.0891L31.823 46.2906C31.4162 46.6188 30.9125 46.8013 30.3913 46.8091C30.0374 46.8391 29.6857 46.7292 29.4108 46.5027C29.1359 46.2762 28.9594 45.9509 28.9185 45.5956H32.5749C32.5852 45.4609 32.5954 45.326 32.5954 45.1808C32.5852 43.6356 31.6376 42.5777 30.2575 42.5777ZM30.2368 43.5422C30.5604 43.5359 30.8732 43.6589 31.1068 43.8844C31.3404 44.1099 31.4757 44.4195 31.4831 44.7453H28.9288C28.9476 44.4125 29.0949 44.1002 29.3394 43.8754C29.5838 43.6506 29.9059 43.531 30.2368 43.5422ZM57.1087 45.1808V40.7109H56.0375V43.3037C55.8547 43.0664 55.618 42.8767 55.3475 42.7504C55.0769 42.6241 54.7802 42.5649 54.4823 42.5777C53.8185 42.6104 53.1927 42.899 52.7344 43.3836C52.2762 43.8682 52.0206 44.5117 52.0206 45.1809C52.0206 45.8501 52.2762 46.4936 52.7344 46.9782C53.1927 47.4628 53.8185 47.7514 54.4823 47.7841C54.7802 47.7969 55.0769 47.7377 55.3475 47.6113C55.6181 47.485 55.8547 47.2953 56.0375 47.058V47.6596H57.1087V45.1808ZM58.8943 46.9412C58.9608 46.9407 59.0267 46.9539 59.088 46.9799C59.147 47.0046 59.2007 47.0405 59.2464 47.0855C59.2916 47.1304 59.3279 47.1837 59.353 47.2425C59.3788 47.3029 59.3921 47.3679 59.3921 47.4336C59.3921 47.4993 59.3788 47.5644 59.353 47.6248C59.3277 47.6833 59.2915 47.7364 59.2464 47.7812C59.2006 47.8262 59.1469 47.8622 59.088 47.8874C59.0268 47.9137 58.9609 47.9271 58.8943 47.9267C58.7963 47.9277 58.7002 47.8996 58.6179 47.8459C58.5357 47.7922 58.471 47.7153 58.432 47.6248C58.4063 47.5644 58.393 47.4993 58.393 47.4336C58.393 47.3679 58.4063 47.3029 58.432 47.2425C58.4571 47.1838 58.4931 47.1305 58.5382 47.0855C58.5838 47.0401 58.6377 47.0042 58.6971 46.9799C58.7596 46.9538 58.8266 46.9406 58.8943 46.9412ZM58.8943 47.818C58.945 47.8184 58.9953 47.8081 59.0419 47.7878C59.0866 47.7682 59.1273 47.7404 59.1617 47.7056C59.2329 47.6333 59.2728 47.5356 59.2728 47.4339C59.2728 47.3321 59.2329 47.2344 59.1617 47.1621C59.1273 47.1275 59.0867 47.0999 59.0419 47.0807C58.9952 47.0607 58.945 47.0506 58.8943 47.0511C58.8426 47.0507 58.7915 47.0607 58.7438 47.0807C58.6983 47.0995 58.657 47.1272 58.6221 47.1621C58.5509 47.2344 58.511 47.3321 58.511 47.4339C58.511 47.5357 58.5509 47.6333 58.6221 47.7056C58.657 47.7406 58.6983 47.7685 58.7438 47.7878C58.7914 47.808 58.8426 47.8183 58.8943 47.818ZM58.9231 47.2032C58.9712 47.2 59.019 47.2139 59.0581 47.2425C59.0736 47.2554 59.086 47.2718 59.0942 47.2903C59.1024 47.3089 59.1063 47.3291 59.1054 47.3494C59.1059 47.3668 59.1029 47.3841 59.0964 47.4002C59.0899 47.4163 59.0801 47.4308 59.0676 47.4429C59.0378 47.4696 59 47.4855 58.9603 47.4882L59.109 47.6609H58.9927L58.8548 47.4894H58.8104V47.6609H58.7132V47.2032H58.9231ZM58.8104 47.289V47.411H58.9219C58.9434 47.4121 58.9646 47.4068 58.9831 47.3958C58.9906 47.3908 58.9967 47.3838 59.0007 47.3757C59.0047 47.3675 59.0064 47.3584 59.0058 47.3494C59.0063 47.3405 59.0045 47.3316 59.0005 47.3236C58.9965 47.3157 58.9905 47.3089 58.9831 47.304C58.9646 47.2931 58.9433 47.2879 58.9219 47.289H58.8104ZM53.1227 45.1808C53.1394 44.8882 53.2407 44.607 53.4141 44.3718C53.5876 44.1365 53.8256 43.9576 54.0989 43.8569C54.3722 43.7563 54.6687 43.7383 54.952 43.8054C55.2353 43.8724 55.4929 44.0214 55.693 44.2341C55.8932 44.4468 56.0271 44.7138 56.0784 45.0022C56.1296 45.2906 56.0959 45.5879 55.9814 45.8572C55.8669 46.1266 55.6767 46.3563 55.434 46.5181C55.1914 46.6799 54.9071 46.7666 54.6161 46.7676C54.4122 46.7704 54.2099 46.7306 54.022 46.6507C53.834 46.5709 53.6646 46.4527 53.5243 46.3036C53.384 46.1545 53.2759 45.9778 53.2067 45.7845C53.1376 45.5913 53.109 45.3857 53.1227 45.1808ZM16.9502 45.1808V42.7022H15.879V43.3037C15.6962 43.0664 15.4596 42.8767 15.189 42.7504C14.9184 42.6241 14.6217 42.5649 14.3238 42.5777C13.66 42.6105 13.0343 42.899 12.576 43.3836C12.1178 43.8683 11.8622 44.5118 11.8622 45.1809C11.8622 45.85 12.1178 46.4936 12.576 46.9782C13.0343 47.4628 13.66 47.7513 14.3238 47.7841C14.6217 47.7969 14.9184 47.7377 15.189 47.6113C15.4596 47.485 15.6962 47.2953 15.879 47.058V47.6596H16.9502V45.1808ZM12.9643 45.1808C12.9809 44.8882 13.0822 44.607 13.2557 44.3718C13.4291 44.1365 13.6672 43.9576 13.9405 43.8569C14.2137 43.7563 14.5103 43.7383 14.7936 43.8054C15.0768 43.8724 15.3344 44.0214 15.5346 44.2341C15.7347 44.4468 15.8687 44.7138 15.9199 45.0022C15.9712 45.2906 15.9375 45.5879 15.823 45.8572C15.7085 46.1266 15.5182 46.3563 15.2756 46.5181C15.033 46.6799 14.7487 46.7666 14.4577 46.7676C14.2537 46.7704 14.0514 46.7306 13.8635 46.6507C13.6756 46.5709 13.5061 46.4527 13.3658 46.3036C13.2255 46.1545 13.1174 45.9778 13.0483 45.7845C12.9792 45.5913 12.9506 45.3857 12.9643 45.1808Z" fill="#F1F1F1"/>
<path d="M38.1129 4.91797H21.8887V34.2759H38.1129V4.91797Z" fill="#FF5F00"/>
<path d="M22.9184 19.5965C22.9159 16.7692 23.5522 13.9783 24.7791 11.4351C26.0061 8.89195 27.7916 6.6632 30.0004 4.91759C27.2651 2.75264 23.98 1.40628 20.5207 1.03241C17.0614 0.658546 13.5675 1.27225 10.4382 2.80339C7.3089 4.33452 4.67055 6.7213 2.82471 9.69093C0.978865 12.6606 0 16.0932 0 19.5965C0 23.0999 0.978865 26.5325 2.82471 29.5022C4.67055 32.4718 7.3089 34.8586 10.4382 36.3897C13.5675 37.9208 17.0614 38.5345 20.5207 38.1607C23.98 37.7868 27.2651 36.4404 30.0004 34.2755C27.7916 32.5299 26.0061 30.3011 24.7791 27.758C23.5522 25.2148 22.9159 22.4239 22.9184 19.5965Z" fill="#EB001B"/>
<path d="M59.9995 19.5965C59.9996 23.0998 59.0209 26.5325 57.1751 29.5021C55.3294 32.4717 52.6911 34.8585 49.5619 36.3897C46.4327 37.9208 42.9387 38.5345 39.4795 38.1607C36.0202 37.7868 32.7353 36.4404 30 34.2755C32.2069 32.5281 33.991 30.299 35.2177 27.7562C36.4445 25.2135 37.0819 22.4235 37.0819 19.5965C37.0819 16.7696 36.4445 13.9796 35.2177 11.4368C33.991 8.89407 32.2069 6.66496 30 4.91759C32.7353 2.75263 36.0202 1.40627 39.4795 1.03241C42.9387 0.658547 46.4327 1.27227 49.5619 2.80342C52.6911 4.33457 55.3294 6.72136 57.1751 9.69099C59.0209 12.6606 59.9996 16.0933 59.9995 19.5965Z" fill="#F79E1B"/>
</svg>
