<svg width="63" height="42" viewBox="0 0 63 42" fill="none" xmlns="http://www.w3.org/2000/svg">
<g clip-path="url(#clip0_2111_1975)">
<path d="M0 6.05078C0 3.22032 2.35051 0.925781 5.25 0.925781H57.75C60.6495 0.925781 63 3.22032 63 6.05078V36.8008C63 39.6312 60.6495 41.9258 57.75 41.9258H5.25C2.3505 41.9258 0 39.6312 0 36.8008V6.05078Z" fill="#FEFEFE"/>
<path d="M54.2186 13.7832H50.9182C49.9204 13.7832 49.1528 14.0829 48.6923 15.057L42.3984 29.0683H46.8502C46.8502 29.0683 47.6177 27.1951 47.7712 26.7456C48.2318 26.7456 52.6068 26.7456 53.2208 26.7456C53.3743 27.27 53.7581 28.9934 53.7581 28.9934H57.7493L54.2186 13.7832ZM48.9993 23.5986C49.3831 22.6995 50.6879 19.3278 50.6879 19.3278C50.6879 19.4027 51.0717 18.4287 51.2252 17.9042L51.5322 19.2529C51.5322 19.2529 52.3765 22.9243 52.53 23.6736H48.9993V23.5986Z" fill="#1647BC"/>
<path d="M42.7059 24.0484C42.7059 27.1953 39.7892 29.2932 35.2607 29.2932C33.3419 29.2932 31.4998 28.9186 30.502 28.469L31.116 25.0224L31.6533 25.2472C33.0348 25.8466 33.9559 26.0714 35.6445 26.0714C36.8726 26.0714 38.1774 25.6218 38.1774 24.5728C38.1774 23.8985 37.6401 23.4489 35.9515 22.6997C34.3397 21.9504 32.1905 20.7516 32.1905 18.5787C32.1905 15.5816 35.184 13.5586 39.4055 13.5586C41.0173 13.5586 42.3989 13.8583 43.2432 14.2329L42.6291 17.5297L42.3221 17.23C41.5546 16.9303 40.5568 16.6306 39.0984 16.6306C37.4866 16.7055 36.7191 17.3799 36.7191 17.9793C36.7191 18.6536 37.6401 19.1781 39.0984 19.8525C41.5546 20.9764 42.7059 22.2501 42.7059 24.0484Z" fill="#1647BC"/>
<path d="M5.25 13.9325L5.32675 13.6328H11.9276C12.8487 13.6328 13.5395 13.9325 13.7697 14.9066L15.2281 21.65C13.7697 18.0535 10.3925 15.1313 5.25 13.9325Z" fill="#1647BC"/>
<path d="M24.5146 13.7839L17.8369 28.9941H13.3084L9.4707 16.2565C12.2339 17.9798 14.5365 20.6772 15.3808 22.5504L15.8413 24.1238L19.9861 13.709H24.5146V13.7839Z" fill="#1647BC"/>
<path d="M26.2802 13.709H30.5016L27.8152 28.9941H23.5938L26.2802 13.709Z" fill="#1647BC"/>
</g>
<defs>
<clipPath id="clip0_2111_1975">
<rect width="63" height="41" fill="white" transform="translate(0 0.925781)"/>
</clipPath>
</defs>
</svg>
