<svg width="232" height="28" viewBox="0 0 232 28" fill="none" xmlns="http://www.w3.org/2000/svg">
<g clip-path="url(#clip0_20_229)">
<rect width="27.9445" height="27.9445" rx="13.9723" fill="white"/>
<path d="M15.9601 4.99842C15.892 5.06494 15.9063 5.17697 16.046 5.6636C16.1713 6.11872 16.1821 6.32177 16.0782 6.32177C16.0532 6.32177 15.9565 6.26576 15.8634 6.19924C15.6771 6.0592 15.5697 6.03469 15.5124 6.11872C15.4587 6.19924 15.5339 6.34628 15.7882 6.65436C16.0424 6.96244 16.2967 7.45608 16.3647 7.77466C16.5044 8.42233 16.3755 9.22405 16.0066 10.0153C15.8777 10.2883 15.8096 10.3654 15.7094 10.3338C15.67 10.3198 15.4981 10.1693 15.3262 9.99426C14.8427 9.50412 14.6959 9.11202 14.8212 8.63589C14.8929 8.36632 14.8929 8.24379 14.8284 8.15626C14.7568 8.06524 14.6672 8.12125 14.6028 8.2998C14.5097 8.55887 14.4022 8.59388 14.1981 8.42233C14.062 8.3103 13.9868 8.2928 13.9188 8.35932C13.8471 8.42934 13.8686 8.52386 14.0119 8.73042C14.0871 8.83895 14.2447 9.10152 14.3628 9.31157C14.5132 9.58815 14.6601 9.7842 14.8714 10.0118C15.3441 10.5159 15.3978 10.6034 15.3978 10.873C15.3978 11.09 15.3799 11.1321 15.0827 11.7237C14.8284 12.2209 14.7424 12.3609 14.6529 12.4169C14.5885 12.4519 14.524 12.4799 14.5025 12.4729C14.4846 12.4659 14.3772 12.3259 14.2626 12.1648C14.1444 11.9863 13.9689 11.7867 13.8364 11.6747C13.7111 11.5697 13.4962 11.3736 13.3565 11.2406C12.8229 10.7189 12.6259 10.0573 12.7835 9.31507C12.916 8.69541 12.916 8.69191 12.8659 8.54487C12.8337 8.43984 12.7978 8.40133 12.7334 8.39433C12.6868 8.38732 12.6367 8.39433 12.6188 8.41183C12.6045 8.42584 12.5507 8.6849 12.497 8.98248C12.4469 9.28006 12.3896 9.56714 12.3681 9.61965C12.3287 9.71418 12.3251 9.71768 12.2249 9.65817C12.0995 9.58465 12.1174 9.63366 11.899 8.80744C11.7199 8.12826 11.6662 8.00222 11.548 8.00222C11.4119 8.00222 11.3904 8.08975 11.4549 8.41533C11.5587 8.92997 11.7199 9.52513 11.8524 9.86472C11.9205 10.0433 11.9777 10.2113 11.9777 10.2323C11.9777 10.2568 11.9419 10.2988 11.8954 10.3303C11.8023 10.3899 11.7056 10.3724 11.4298 10.2393C11.2436 10.1483 11.1469 10.1693 11.1254 10.3023C11.1004 10.4599 11.437 10.6454 11.8882 10.7295C12.4039 10.824 12.8838 11.1531 13.5678 11.8813C14.0441 12.3959 14.1372 12.5289 14.216 12.8195C14.2912 13.1031 14.2841 13.3096 14.1802 13.7052C14.0119 14.3599 13.9689 14.7205 13.9689 15.5853C13.9653 16.4535 13.9582 16.4815 13.7755 16.548C13.7146 16.5725 13.6538 16.562 13.5678 16.5235C13.4031 16.4465 12.8337 15.8303 12.7155 15.6063C12.6009 15.3857 12.5507 15.0811 12.5901 14.8115C12.6045 14.696 12.6295 14.4895 12.6439 14.3529C12.6653 14.1184 12.6618 14.1009 12.583 14.0483C12.5364 14.0168 12.4899 14.0028 12.4755 14.0168C12.4433 14.0483 12.3609 14.3459 12.2642 14.7765C12.1711 15.1826 12.1425 15.2492 12.0565 15.2492C11.9455 15.2492 11.6483 15.0391 11.3833 14.7765C10.8891 14.2864 10.7709 13.8453 10.9929 13.3061C11.2042 12.7915 11.4012 12.613 11.8417 12.5394C12.0386 12.5044 12.189 12.4519 12.386 12.3399C12.6868 12.1753 12.7405 12.0948 12.6295 11.9828C12.5579 11.9163 12.5507 11.9163 12.4111 11.9723C12.2356 12.0388 12.1353 12.0423 12.1103 11.9828C12.1031 11.9583 12.1103 11.8568 12.1317 11.7552C12.164 11.6012 12.164 11.5627 12.1138 11.5172C12.035 11.4366 11.9598 11.4857 11.6948 11.7972C11.4764 12.0528 11.3725 12.1263 11.2973 12.0808C11.24 12.0458 11.1648 11.8848 11.1362 11.7307C11.1039 11.5557 11.061 11.5032 10.9499 11.5032C10.8389 11.5032 10.8067 11.5977 10.8318 11.8357C10.8604 12.1018 10.8139 12.613 10.7243 12.942C10.642 13.2536 10.4593 13.6737 10.4092 13.6737C10.3447 13.6737 10.0725 13.3797 9.99018 13.2186C9.87558 12.9981 9.80754 12.7425 9.74307 12.3084C9.67861 11.8813 9.5855 11.5907 9.43509 11.3596C9.28826 11.1426 8.94804 10.831 8.86926 10.845C8.76898 10.8625 8.77257 11.0375 8.88 11.1881C8.95879 11.3001 8.96953 11.3351 8.9373 11.3946C8.86568 11.5207 8.74392 11.5207 8.52188 11.3911C8.33566 11.2861 8.30701 11.2511 8.17092 10.971C8.01335 10.6489 7.97037 10.6069 7.85578 10.6629C7.77699 10.7049 7.76983 10.7925 7.83787 11.0305C7.96321 11.4927 8.13869 11.6327 8.85135 11.8498C9.20947 11.9583 9.22022 11.9653 9.29542 12.1088C9.43867 12.3784 9.5103 12.7635 9.44941 12.9175C9.42076 12.9911 9.21305 13.0261 9.1092 12.9736C9.06264 12.949 8.89075 12.8055 8.73317 12.655C8.43951 12.3784 8.37505 12.3434 8.29626 12.4204C8.2139 12.5009 8.25329 12.62 8.43593 12.8335C8.6508 13.0856 8.97311 13.3026 9.25603 13.3832C9.63922 13.4917 9.7574 13.5757 10.1298 13.9993C10.6312 14.5805 11.1218 15.0076 12.3717 15.9704C13.4174 16.7721 13.5929 16.9261 13.7648 17.1782C13.9617 17.4688 13.9582 17.5038 13.7325 17.4758C13.3135 17.4197 12.9447 17.1782 12.2642 16.5095C11.9992 16.2469 11.7092 15.9739 11.6196 15.9038C11.3331 15.6833 10.9678 15.4942 10.6026 15.3857C10.2409 15.2772 9.66071 14.9796 9.30617 14.7205C9.20589 14.6505 9.06264 14.5035 8.99102 14.3949C8.9194 14.2864 8.83703 14.1989 8.80838 14.1989C8.75108 14.1989 8.64722 14.2934 8.64722 14.3424C8.64722 14.4194 8.8621 14.7835 8.96595 14.8781C9.15934 15.0601 9.08413 15.2492 8.81912 15.2492C8.2139 15.2492 7.09656 14.6855 6.83513 14.2479C6.75276 14.1114 6.74202 14.0623 6.75992 13.8908C6.77067 13.7823 6.83155 13.5722 6.89243 13.4287C7.05 13.0716 7.25055 12.4869 7.25055 12.3959C7.25055 12.3084 7.1467 12.2033 7.06433 12.2033C6.98912 12.2033 6.94257 12.2664 6.91034 12.4134C6.87452 12.5779 6.75634 12.9631 6.6883 13.1171C6.59519 13.3412 6.35883 13.3762 6.2872 13.1731C6.23349 13.0331 6.29437 12.5464 6.39822 12.2349C6.48417 11.9758 6.47343 11.9023 6.33734 11.8673C6.13321 11.8182 6.00787 12.1298 5.97206 12.774C5.94699 13.2256 6.00071 13.5617 6.12247 13.7613C6.3266 14.0869 6.35525 14.1674 6.29795 14.2724C6.23349 14.3984 6.07591 14.4299 5.77151 14.3774C5.64617 14.3564 5.48143 14.3389 5.40265 14.3389C5.24507 14.3389 4.98006 14.2304 4.85472 14.1184C4.81175 14.0763 4.63627 13.8558 4.46795 13.6282C4.12415 13.1591 4.00239 13.0716 3.83049 13.1521C3.77319 13.1801 3.72306 13.2221 3.71231 13.2431C3.70515 13.2676 3.81259 13.4042 3.94867 13.5442C4.08834 13.6877 4.24233 13.8838 4.29247 13.9853C4.41065 14.2094 4.61836 14.4124 4.8404 14.514C5.02662 14.6015 5.45994 14.689 5.6963 14.689C5.9255 14.689 6.57728 14.8185 6.63458 14.8781C6.68114 14.9201 6.68114 14.9481 6.64174 15.0356C6.58086 15.1826 6.33018 15.3157 5.82165 15.4732C5.32386 15.6308 5.04452 15.7708 4.81175 15.9844C4.62552 16.1559 4.60045 16.2329 4.69357 16.3625C4.76877 16.471 4.82965 16.4605 4.96574 16.3064C5.13047 16.1174 5.36683 15.9879 5.4492 16.0404C5.55306 16.1034 5.54231 16.2014 5.40623 16.5375C5.26656 16.8736 5.2594 16.9856 5.36325 17.0486C5.46353 17.1117 5.53515 17.0346 5.62468 16.7791C5.83597 16.1664 6.23707 15.6833 6.82081 15.3367C7.0894 15.1756 7.27562 15.1511 7.55495 15.2317C7.76625 15.2912 7.9847 15.4557 7.95963 15.5397C7.94889 15.5607 7.80206 15.6553 7.63016 15.7428C7.25055 15.9388 7.02135 16.1174 6.92466 16.3029C6.84229 16.464 6.84587 16.5725 6.9354 16.625C6.98196 16.6565 7.0321 16.6285 7.18609 16.4955C8.12795 15.6658 9.46016 15.3717 10.5954 15.7428C11.1362 15.9178 11.351 16.0684 12.0422 16.7441C12.4469 17.1397 12.7191 17.3777 12.8301 17.4337C13.0378 17.5388 13.0987 17.6018 13.0808 17.7068C13.0593 17.8504 12.9339 17.8749 12.4218 17.8434C12.0207 17.8154 11.9025 17.7908 11.5122 17.6648C11.1218 17.5318 11.0251 17.5143 10.7422 17.5143C10.4557 17.5108 10.3913 17.5248 10.1621 17.6228C10.0224 17.6858 9.85767 17.7348 9.79679 17.7348C9.51388 17.7348 9.26319 17.5178 9.1665 17.1852C9.0519 16.7896 8.93014 16.7301 8.67229 16.9471C8.53262 17.0661 8.51472 17.0697 8.24613 17.0697C8.01693 17.0697 7.95963 17.0802 7.94172 17.1257C7.90233 17.2272 7.9847 17.2937 8.22106 17.3497C8.48965 17.4162 8.61857 17.4793 8.93372 17.6963C9.05906 17.7838 9.26319 17.9064 9.38137 17.9624C9.58908 18.0674 9.59624 18.0744 9.59266 18.204C9.58908 18.295 9.56043 18.365 9.49955 18.4245C9.41718 18.505 9.40286 18.505 9.2417 18.4665C8.92656 18.3895 8.62932 18.4735 8.03842 18.8061C7.89159 18.8866 7.85578 18.8936 7.64448 18.8726C7.22906 18.8306 7.1646 18.8341 7.15028 18.8936C7.14311 18.9251 7.17893 18.9952 7.22548 19.0512C7.41887 19.2752 7.37589 19.4223 7.07149 19.5728C6.77067 19.7199 6.87452 19.9054 7.21474 19.8319C7.46542 19.7759 7.623 19.6778 8.00261 19.3313C8.52904 18.8481 8.90149 18.6836 9.07697 18.8551C9.16292 18.9392 9.16292 18.9427 8.89791 19.2402C8.62574 19.5448 8.44668 19.8109 8.20315 20.28C7.96679 20.7316 7.76266 20.9697 7.46542 21.1482C7.19325 21.3093 7.1073 21.4178 7.1073 21.5929C7.1073 21.7224 7.11088 21.7259 7.20758 21.7049C7.34008 21.6769 7.55495 21.5263 8.08139 21.1027C8.39296 20.8542 8.461 20.9172 8.41803 21.4108C8.39296 21.6664 8.39654 21.6874 8.46816 21.7259C8.50756 21.7469 8.5756 21.7539 8.61499 21.7434C8.75466 21.6979 8.77257 21.5754 8.7654 20.7806C8.75466 20.0384 8.75824 20.0244 8.84777 19.8459C9.00893 19.5238 9.27035 19.3943 9.43151 19.5518C9.5103 19.6288 9.52462 19.6884 9.57476 20.259C9.61773 20.7351 9.67861 20.9102 9.93646 21.2988C10.137 21.5999 10.2086 21.6524 10.3268 21.5789C10.4307 21.5158 10.4199 21.4108 10.2982 21.2428C10.1263 21.0152 9.97227 20.7071 9.97227 20.6021C9.97227 20.4691 10.0654 20.385 10.1836 20.413C10.2337 20.4271 10.4593 20.5146 10.6814 20.6091C11.0824 20.7806 11.2006 20.8052 11.2902 20.7491C11.326 20.7281 11.326 20.7036 11.2973 20.6371C11.2508 20.5391 10.7028 20.224 10.4199 20.133C10.0081 19.9999 9.84335 19.8074 9.72159 19.2997C9.62848 18.8971 9.62848 18.8621 9.76814 18.6136C10.0332 18.1304 10.3984 17.8364 10.7422 17.8259C11.0001 17.8224 11.0431 17.8679 11.1039 18.225C11.1756 18.6766 11.2687 18.8166 11.8381 19.3348C12.1998 19.6638 12.3108 19.7199 12.4039 19.6113C12.472 19.5308 12.4075 19.4398 11.9419 18.9777C11.7056 18.7431 11.5086 18.5155 11.4943 18.463C11.4585 18.3195 11.4871 18.2215 11.5838 18.1514C11.659 18.1024 11.7092 18.0954 11.8882 18.1199C12.0064 18.1374 12.2642 18.1514 12.4612 18.1514C12.8731 18.1549 13.3816 18.225 13.7684 18.33C14.3843 18.5015 14.8642 18.8656 15.1041 19.3488C15.3298 19.7969 15.5052 20.4901 15.738 21.8134C16.4722 26.0251 16.5438 26.9458 16.5187 31.6406C16.508 33.2755 16.5151 34.5568 16.5331 34.5883C16.5832 34.6759 16.7658 34.6584 16.8303 34.5638C16.8912 34.4693 16.9807 33.9407 17.1347 32.7188C17.2672 31.6861 17.3496 31.1644 17.4892 30.5203C17.7686 29.2389 17.876 28.2201 17.9226 26.4872C17.9584 25.1498 17.9978 24.5792 18.0873 23.9665C18.1446 23.5954 18.2843 22.8952 18.3523 22.6712C18.3953 22.5276 18.3989 22.2615 18.3631 22.2405C18.3451 22.2335 18.2878 22.2405 18.227 22.2545C18.1374 22.279 18.0873 22.3421 17.9369 22.6081C17.833 22.7867 17.7005 23.0563 17.6361 23.2033C17.525 23.4694 17.2887 23.7424 17.1992 23.7144C17.1777 23.7074 17.1132 23.5044 17.0559 23.2663C16.3003 20.1505 16.0675 19.5098 15.3369 18.5155C15.2223 18.358 15.0755 18.1199 15.011 17.9904C14.9072 17.7733 14.8964 17.7208 14.8964 17.4197C14.8964 17.1152 14.9072 17.0661 15.0146 16.8421C15.4265 15.9914 16.3934 15.2282 17.5573 14.8396C18.0193 14.682 18.3738 14.6645 18.8322 14.773C19.2727 14.8816 19.4338 15.0181 19.5162 15.3717C19.5556 15.5292 19.5556 15.5993 19.5234 15.7008C19.4768 15.8373 19.4016 15.8933 18.8322 16.2119C18.5206 16.387 18.2807 16.5725 18.2807 16.6425C18.2807 16.66 18.3093 16.7126 18.3451 16.7546C18.406 16.8281 18.4168 16.8316 18.517 16.7826C18.671 16.7056 18.8537 16.6775 18.8537 16.7301C18.8501 16.7511 18.8286 16.8736 18.8 16.9996C18.7319 17.2972 18.7319 17.4723 18.8 17.5248C18.8895 17.5983 18.9504 17.5388 19.1151 17.2027C19.2619 16.8981 19.817 16.0789 20.0032 15.8793C20.0785 15.8023 20.0892 15.7988 20.0999 15.8548C20.1143 15.9318 20.057 16.2924 19.9746 16.6145C19.9459 16.7406 19.792 17.1222 19.638 17.4653C19.484 17.8083 19.33 18.1759 19.2977 18.2845C19.1473 18.7886 19.3873 19.8004 19.6559 19.8004C19.8278 19.8004 19.8385 19.7269 19.7096 19.3558C19.5628 18.9216 19.5305 18.5611 19.6272 18.442C19.7382 18.309 19.8564 18.3825 20.0283 18.6871C20.1931 18.9847 20.2503 19.0407 20.3649 19.0232C20.5082 19.0057 20.4652 18.8166 20.2145 18.33C19.9173 17.7488 19.9137 17.6578 20.1644 17.1222C20.2969 16.8456 20.3685 16.7336 20.4187 16.7266C20.6228 16.6951 20.9236 17.1852 21.0382 17.7348C21.0812 17.9589 21.1457 18.1514 21.203 18.239C21.4751 18.6696 21.5396 18.7676 21.6005 18.8271C21.6613 18.8831 21.6721 18.8866 21.7473 18.8341C21.8583 18.7606 21.8476 18.6241 21.7151 18.435C21.5503 18.1935 21.4321 17.9554 21.4321 17.8609C21.4321 17.7908 21.4572 17.7663 21.5682 17.7383C21.6399 17.7173 21.7366 17.6998 21.7831 17.6998C21.8404 17.6998 21.8619 17.6788 21.8619 17.6193C21.8619 17.5213 21.7939 17.4548 21.5861 17.3532C21.3677 17.2482 21.1886 17.0837 21.0311 16.8456C20.8806 16.6145 20.8627 16.513 20.9594 16.429C21.0454 16.352 21.0454 16.352 21.2638 16.4885C21.5145 16.653 21.8153 16.7301 22.1842 16.7301C22.6139 16.7336 22.8217 16.6951 22.8467 16.6145C22.8825 16.506 22.8038 16.4045 22.6892 16.4045C22.5423 16.4045 22.3633 16.3345 22.3633 16.2784C22.3633 16.2504 22.4313 16.1664 22.5137 16.0894C22.6426 15.9739 22.6569 15.9494 22.6175 15.9003C22.5244 15.7918 22.2451 15.8408 21.7795 16.0439C21.4751 16.1769 21.3677 16.1769 21.1994 16.0474C21.1492 16.0089 20.9666 15.9038 20.7947 15.8128C20.5225 15.6693 20.4688 15.6238 20.3685 15.4592C20.1608 15.1231 20.2396 15.0076 20.6335 15.0776C20.7481 15.0986 20.9702 15.1091 21.1277 15.0986C21.6255 15.0671 21.9944 14.8851 22.5423 14.3949C22.9076 14.0658 22.947 14.0063 22.836 13.9188C22.793 13.8838 22.725 13.8628 22.6856 13.8733C22.6462 13.8838 22.4134 14.0623 22.1627 14.2724C21.7545 14.6155 21.6972 14.654 21.5718 14.654C21.4357 14.654 21.2889 14.563 21.2889 14.479C21.2889 14.458 21.3283 14.3494 21.3784 14.2339C21.5109 13.9258 21.4894 13.6737 21.3355 13.7228C21.2961 13.7368 21.1994 13.8838 21.0848 14.1184C20.8914 14.5245 20.7732 14.6715 20.6156 14.6995C20.4903 14.724 19.4231 14.57 19.0506 14.472C18.6388 14.3634 18.0193 14.3634 17.6003 14.4755C16.4686 14.7695 15.2152 15.7183 14.7747 16.611C14.6422 16.8806 14.6028 16.9296 14.5168 16.9296C14.3807 16.9296 14.3378 16.7826 14.2984 16.2224C14.1802 14.4474 14.5276 13.3342 15.4766 12.4274C15.9565 11.9688 16.3826 11.7482 16.8482 11.7202C17.0702 11.7097 17.2027 11.7272 17.5823 11.8182C18.0121 11.9233 18.0801 11.9303 18.4848 11.9163C18.9289 11.8988 19.1044 11.8463 19.1044 11.7342C19.1044 11.6187 18.9969 11.5942 18.4812 11.5907C17.6038 11.5872 17.389 11.4471 17.7972 11.1531C18.3237 10.7715 18.7283 10.6209 19.2118 10.6244C19.7024 10.6244 19.9818 10.74 20.7302 11.2441C21.0311 11.4436 21.1564 11.4752 21.2173 11.3666C21.2817 11.2441 21.2567 11.2196 20.7087 10.824C20.5297 10.7014 20.5333 10.6104 20.7159 10.4354C20.8735 10.2848 20.8878 10.2393 20.8019 10.1693C20.7553 10.1308 20.6837 10.1343 20.3829 10.1833C19.7311 10.2918 19.4983 10.2498 19.4983 10.0293C19.4983 9.97325 19.552 9.7877 19.6165 9.61965C19.7561 9.26256 19.8313 8.96498 19.817 8.84245C19.8063 8.77243 19.7776 8.75142 19.6881 8.74442C19.5556 8.73042 19.5592 8.71991 19.4088 9.19604C19.2369 9.73519 18.9217 10.1063 18.2699 10.5229C17.9011 10.7575 17.7542 10.789 17.6576 10.6559C17.5752 10.5439 17.5859 10.4284 17.7041 10.1868C17.7936 10.0013 17.9512 9.7877 18.646 8.89496C18.8 8.69541 18.8143 8.60088 18.7068 8.50636C18.6316 8.43984 18.6281 8.43984 18.4597 8.62539C18.3165 8.78293 18.2699 8.81094 18.1876 8.80044L18.0837 8.78993V8.24029C18.0837 7.78516 18.073 7.68014 18.0264 7.63462C17.9297 7.5366 17.8867 7.64513 17.7757 8.2823C17.6182 9.20304 17.2171 10.8485 17.1132 11.006C17.081 11.0515 16.9556 11.1321 16.8267 11.1881C16.7014 11.2441 16.4865 11.3526 16.354 11.4296C16.1391 11.5522 15.7309 11.7132 15.6306 11.7132C15.5661 11.7132 15.5912 11.4822 15.6771 11.3246C15.7237 11.2406 15.8311 11.062 15.9135 10.929C16.0782 10.6734 16.3791 10.0433 16.4972 9.71768C16.6906 9.17504 16.7121 9.042 16.7408 8.03723C16.7694 7.00095 16.7981 6.82591 16.9914 6.40579C17.0452 6.28676 17.1562 6.09771 17.2314 5.98568C17.4176 5.71611 17.5071 5.45354 17.4606 5.32751C17.4176 5.22248 17.4176 5.22248 17.3066 5.27499C17.2565 5.296 17.1633 5.42553 17.0667 5.61108C16.9055 5.91917 16.73 6.14672 16.6548 6.14672C16.5796 6.14322 16.4901 5.97518 16.3289 5.51306C16.132 4.94941 16.0818 4.87939 15.9601 4.99842ZM16.1606 21.1903C16.2609 21.4598 16.5438 22.4996 16.6548 23.0107C16.7551 23.4834 16.8267 24.5091 16.7694 24.6737C16.7264 24.7927 16.6118 24.8032 16.5617 24.6912C16.5331 24.6247 16.4507 24.138 16.0782 21.8414C15.9923 21.3093 15.9851 20.9907 16.0603 20.9907C16.0747 20.9907 16.1212 21.0817 16.1606 21.1903ZM17.679 24.6947C17.6969 25.3984 17.6468 27.0753 17.5859 27.681C17.4677 28.8888 17.192 30.5238 17.0667 30.7513C17.0165 30.8423 16.927 30.8178 16.9055 30.7093C16.8733 30.5623 16.7766 27.6075 16.7766 26.8653C16.7766 25.822 16.8482 25.4789 17.2278 24.7157C17.414 24.3411 17.5107 24.2291 17.6253 24.2711C17.654 24.2816 17.6719 24.4216 17.679 24.6947Z" fill="#7DAD52"/>
</g>
<path d="M36.4356 12.2561C35.3631 11.2593 34.8206 10.0607 34.8206 8.68532C34.8206 7.30998 35.3631 6.12391 36.4482 5.11449C37.4577 4.19339 38.8835 3.65083 40.3093 3.65083C41.2682 3.65083 42.1767 3.86533 43.0221 4.30695C43.8675 4.74857 44.5362 5.34161 45.0283 6.08606L42.9716 7.57495C42.4543 6.62862 41.4323 6.07344 40.3093 6.07344C39.5017 6.07344 38.8078 6.32579 38.24 6.84312C37.6722 7.34783 37.382 7.9661 37.382 8.68532C37.382 9.40453 37.6722 10.0228 38.24 10.5401C38.8078 11.0448 39.5017 11.2972 40.3093 11.2972C41.4701 11.2972 42.4922 10.7042 43.0095 9.73259L45.0914 11.1584C44.6246 11.9533 43.9558 12.5716 43.0852 13.0384C42.2272 13.4927 41.3061 13.7198 40.3093 13.7198C38.8835 13.7198 37.4577 13.1772 36.4356 12.2561Z" fill="white"/>
<path d="M51.1249 13.6189L48.6518 13.6441L50.0271 3.37324L55.1752 9.2405L60.3232 3.37324L61.6859 13.6315H59.2129L58.5946 8.81149L55.1752 12.5716L51.7431 8.81149L51.1249 13.6189Z" fill="white"/>
<path d="M75.8509 3.73915V13.6315H73.2895V3.73915H75.8509Z" fill="white"/>
<path d="M82.7019 13.6315H80.1405V3.33538L87.6355 9.22788V3.73915H90.1843V14.0479L82.7019 8.20584V13.6315Z" fill="white"/>
<path d="M97.4615 13.6315V6.11129H93.714V3.73915H103.745V6.11129H100.01V13.6315H97.4615Z" fill="white"/>
<path d="M116.712 11.3098V13.6315H107.274V3.73915H116.712V6.07344H109.835V7.60019H114.466V9.77044H109.835V11.3098H116.712Z" fill="white"/>
<path d="M127.845 13.6315L125.183 10.3509H123.315V13.6315H120.754V3.73915H127.151C128.085 3.73915 128.88 4.06721 129.549 4.71072C130.217 5.35423 130.558 6.13653 130.558 7.04501C130.558 7.78946 130.331 8.44558 129.889 9.01338C129.448 9.58118 128.855 9.97233 128.135 10.1616L130.962 13.6315H127.845ZM123.315 8.06705H126.76C127.568 8.06705 127.984 7.61281 127.984 6.99454C127.984 6.35103 127.58 5.90941 126.76 5.90941H123.315V8.06705Z" fill="white"/>
<path d="M137.178 13.6315H134.616V3.33538L142.111 9.22788V3.73915H144.66V14.0479L137.178 8.20584V13.6315Z" fill="white"/>
<path d="M151.508 12.0543L150.65 13.6315H147.836L153.275 3.28491L158.902 13.6315H156.063L155.167 12.0543H151.508ZM153.313 7.86516L152.177 10.3004L154.448 10.2878L153.313 7.86516Z" fill="white"/>
<path d="M165.072 13.6315V6.11129H161.325V3.73915H171.356V6.11129H167.621V13.6315H165.072Z" fill="white"/>
<path d="M177.446 3.73915V13.6315H174.885V3.73915H177.446Z" fill="white"/>
<path d="M190.606 12.2561C189.533 13.2277 188.234 13.7198 186.72 13.7198C185.206 13.7198 183.906 13.2277 182.833 12.2561C181.761 11.272 181.231 10.0859 181.231 8.68532C181.231 7.28474 181.761 6.09867 182.833 5.12711C183.906 4.14292 185.206 3.65083 186.72 3.65083C188.234 3.65083 189.533 4.14292 190.606 5.12711C191.679 6.09867 192.221 7.28474 192.221 8.68532C192.221 10.0859 191.679 11.272 190.606 12.2561ZM186.72 11.2972C187.54 11.2972 188.221 11.0448 188.789 10.5401C189.357 10.0228 189.647 9.40453 189.647 8.68532C189.647 7.9661 189.357 7.34783 188.789 6.84312C188.221 6.32579 187.54 6.07344 186.72 6.07344C185.912 6.07344 185.218 6.32579 184.65 6.84312C184.083 7.34783 183.792 7.9661 183.792 8.68532C183.792 9.40453 184.083 10.0228 184.65 10.5401C185.218 11.0448 185.912 11.2972 186.72 11.2972Z" fill="white"/>
<path d="M198.566 13.6315H196.005V3.33538L203.5 9.22788V3.73915H206.048V14.0479L198.566 8.20584V13.6315Z" fill="white"/>
<path d="M212.897 12.0543L212.039 13.6315H209.225L214.663 3.28491L220.291 13.6315H217.452L216.556 12.0543H212.897ZM214.701 7.86516L213.565 10.3004L215.836 10.2878L214.701 7.86516Z" fill="white"/>
<path d="M223.47 13.6315V3.73915H226.032V11.2593H232V13.6315H223.47Z" fill="white"/>
<path d="M35.8542 25.7283C35.2464 25.1771 34.9426 24.5199 34.9426 23.7496C34.9426 22.9793 35.2464 22.322 35.8542 21.7708C36.4549 21.2408 37.1687 20.9793 37.9955 20.9793C39.0414 20.9793 40.0167 21.4599 40.5891 22.2796L39.8895 22.7602C39.4866 22.1736 38.7587 21.8273 37.9955 21.8273C37.3877 21.8273 36.8648 22.0182 36.4337 22.3927C36.0026 22.7673 35.7906 23.2195 35.7906 23.7496C35.7906 24.2796 36.0026 24.7319 36.4337 25.1064C36.8648 25.481 37.3877 25.6718 37.9955 25.6718C38.7587 25.6718 39.4866 25.3255 39.8895 24.739L40.5891 25.2195C40.0167 26.0393 39.0414 26.5198 37.9955 26.5198C37.1687 26.5198 36.4549 26.2584 35.8542 25.7283Z" fill="white"/>
<path d="M49.1514 26.5198C48.3105 26.5198 47.5967 26.2513 46.996 25.7213C46.3953 25.1842 46.0985 24.5269 46.0985 23.7496C46.0985 23.2337 46.2398 22.7673 46.5154 22.3362C46.7981 21.9051 47.1727 21.5729 47.6391 21.3397C48.1055 21.0994 48.6073 20.9793 49.1514 20.9793C49.9924 20.9793 50.7062 21.2479 51.3069 21.7849C51.9076 22.322 52.2044 22.9793 52.2044 23.7496C52.2044 24.5269 51.9005 25.1842 51.2998 25.7213C50.6991 26.2513 49.9783 26.5198 49.1514 26.5198ZM47.5896 25.1064C48.0207 25.481 48.5437 25.6718 49.1514 25.6718C49.7592 25.6718 50.2751 25.481 50.7062 25.1064C51.1373 24.7319 51.3563 24.2796 51.3563 23.7496C51.3563 23.2195 51.1373 22.7673 50.7062 22.3927C50.2751 22.0182 49.7592 21.8273 49.1514 21.8273C48.5437 21.8273 48.0207 22.0182 47.5896 22.3927C47.1585 22.7673 46.9465 23.2195 46.9465 23.7496C46.9465 24.2796 47.1585 24.7319 47.5896 25.1064Z" fill="white"/>
<path d="M58.7062 26.5128L57.8582 26.5198L58.5931 20.7885L61.6461 24.5552L64.7061 20.7885L65.434 26.5198H64.5859L64.1125 22.8521L61.6461 25.8767L59.1797 22.8521L58.7062 26.5128Z" fill="white"/>
<path d="M72.0775 26.5128L71.2294 26.5198L71.9644 20.7885L75.0173 24.5552L78.0773 20.7885L78.8052 26.5198H77.9572L77.4837 22.8521L75.0173 25.8767L72.5509 22.8521L72.0775 26.5128Z" fill="white"/>
<path d="M85.6678 25.4669L85.1307 26.5198H84.1767L87.0176 20.7461L89.9575 26.5198H88.9964L88.4381 25.4669H85.6678ZM87.0317 22.5835L86.0424 24.6541H88.0494L87.0317 22.5835Z" fill="white"/>
<path d="M96.3181 26.5198H95.4701V20.838L100.141 24.852V20.9793H100.989V26.6965L96.3181 22.6825V26.5198Z" fill="white"/>
<path d="M109.817 26.5198H107.068V20.9793H109.817C110.58 20.9793 111.23 21.2479 111.774 21.792C112.318 22.3362 112.587 22.9863 112.587 23.7496C112.587 24.5128 112.318 25.163 111.774 25.7071C111.23 26.2513 110.58 26.5198 109.817 26.5198ZM107.916 21.8273V25.6718H109.817C110.347 25.6718 110.799 25.481 111.174 25.1064C111.548 24.7319 111.739 24.2796 111.739 23.7496C111.739 23.2195 111.548 22.7673 111.174 22.3927C110.799 22.0182 110.347 21.8273 109.817 21.8273H107.916Z" fill="white"/>
<path d="M126.932 26.5128L126.084 26.5198L126.819 20.7885L129.872 24.5552L132.932 20.7885L133.66 26.5198H132.812L132.339 22.8521L129.872 25.8767L127.406 22.8521L126.932 26.5128Z" fill="white"/>
<path d="M140.445 20.9793V26.5198H139.597V20.9793H140.445Z" fill="white"/>
<path d="M146.522 26.5198V20.9793H147.37V25.6718H151.165V26.5198H146.522Z" fill="white"/>
<path d="M156.816 26.5198V20.9793H157.664V25.6718H161.459V26.5198H156.816Z" fill="white"/>
<path d="M167.957 20.9793V26.5198H167.109V20.9793H167.957Z" fill="white"/>
<path d="M176.804 26.5198C175.963 26.5198 175.25 26.2513 174.649 25.7213C174.048 25.1842 173.751 24.5269 173.751 23.7496C173.751 23.2337 173.893 22.7673 174.168 22.3362C174.451 21.9051 174.826 21.5729 175.292 21.3397C175.758 21.0994 176.26 20.9793 176.804 20.9793C177.645 20.9793 178.359 21.2479 178.96 21.7849C179.561 22.322 179.857 22.9793 179.857 23.7496C179.857 24.5269 179.553 25.1842 178.953 25.7213C178.352 26.2513 177.631 26.5198 176.804 26.5198ZM175.243 25.1064C175.674 25.481 176.197 25.6718 176.804 25.6718C177.412 25.6718 177.928 25.481 178.359 25.1064C178.79 24.7319 179.009 24.2796 179.009 23.7496C179.009 23.2195 178.79 22.7673 178.359 22.3927C177.928 22.0182 177.412 21.8273 176.804 21.8273C176.197 21.8273 175.674 22.0182 175.243 22.3927C174.812 22.7673 174.6 23.2195 174.6 23.7496C174.6 24.2796 174.812 24.7319 175.243 25.1064Z" fill="white"/>
<path d="M186.501 26.5198H185.652V20.838L190.324 24.852V20.9793H191.172V26.6965L186.501 22.6825V26.5198Z" fill="white"/>
<path d="M198.176 25.4669L197.639 26.5198H196.685L199.526 20.7461L202.466 26.5198H201.504L200.946 25.4669H198.176ZM199.54 22.5835L198.55 24.6541H200.557L199.54 22.5835Z" fill="white"/>
<path d="M208.826 20.9793V26.5198H207.978V20.9793H208.826Z" fill="white"/>
<path d="M219.306 26.5198L217.32 24.4704H215.752V26.5198H214.904V20.9793H218.522C219.002 20.9793 219.412 21.1489 219.751 21.4952C220.098 21.8344 220.267 22.2443 220.267 22.7249C220.267 23.2125 220.098 23.6294 219.751 23.9686C219.405 24.3008 218.974 24.4704 218.458 24.4704L220.437 26.5198H219.306ZM215.752 23.6224H218.522C218.769 23.6224 218.974 23.5376 219.151 23.3609C219.327 23.1842 219.419 22.9722 219.419 22.7249C219.419 22.4775 219.327 22.2655 219.151 22.0888C218.974 21.9121 218.769 21.8273 218.522 21.8273H215.752V23.6224Z" fill="white"/>
<path d="M231.322 25.6718V26.5198H226.163V20.9793H231.322V21.8273H227.011V23.3255H229.923V24.1736H227.011V25.6718H231.322Z" fill="white"/>
<defs>
<clipPath id="clip0_20_229">
<rect width="27.9445" height="27.9445" rx="13.9723" fill="white"/>
</clipPath>
</defs>
</svg>
