
<svg width="375" height="46" viewBox="0 0 375 46" fill="none" xmlns="http://www.w3.org/2000/svg">
<path d="M45.1689 22.5844C45.1689 10.1114 35.0575 0 22.5844 0C10.1114 0 0 10.1114 0 22.5844C0 35.0575 10.1114 45.1689 22.5844 45.1689C35.0575 45.1689 45.1689 35.0575 45.1689 22.5844Z" fill="white"/>
<path fill-rule="evenodd" clip-rule="evenodd" d="M22.5844 0C35.0575 0 45.1689 10.1114 45.1689 22.5844C45.1689 32.8594 38.3072 41.5318 28.9162 44.2693C28.9382 43.8173 28.9557 43.3354 28.9697 42.8134C29.0276 40.6518 29.0913 39.7294 29.236 38.7391C29.3286 38.1392 29.5543 37.0075 29.6643 36.6453C29.7338 36.4133 29.7396 35.9832 29.6817 35.9493C29.6528 35.9379 29.5601 35.9493 29.4617 35.9719C29.317 36.0115 29.236 36.1134 28.9929 36.5434C28.825 36.832 28.6108 37.2678 28.5066 37.5054C28.3272 37.9355 27.9451 38.3769 27.8004 38.3316C27.7657 38.3203 27.6615 37.9921 27.5689 37.6073C26.3475 32.5709 25.9712 31.5354 24.7903 29.9282C24.6051 29.6736 24.3678 29.2888 24.2636 29.0794C24.0957 28.7286 24.0783 28.6437 24.0783 28.157C24.0783 27.6647 24.0957 27.5855 24.2694 27.2233C24.935 25.8482 26.498 24.6146 28.3793 23.9865C29.126 23.7318 29.6991 23.7035 30.44 23.8789C31.152 24.0544 31.4125 24.2751 31.5456 24.8466C31.6093 25.1012 31.6093 25.2144 31.5572 25.3785C31.4819 25.5992 31.3604 25.6898 30.44 26.2047C29.9364 26.4877 29.5486 26.7876 29.5486 26.9008C29.5486 26.9291 29.5949 27.0139 29.6528 27.0818C29.7512 27.2007 29.7685 27.2063 29.9306 27.1271C30.1795 27.0026 30.4747 26.9574 30.4747 27.0422C30.4689 27.0762 30.4342 27.2742 30.3879 27.478C30.2779 27.959 30.2779 28.2419 30.3879 28.3268C30.5326 28.4456 30.631 28.3494 30.8973 27.8062C31.1346 27.3139 32.0319 25.9897 32.3329 25.6671C32.4544 25.5426 32.4718 25.537 32.4892 25.6275C32.5123 25.752 32.4197 26.3349 32.2866 26.8555C32.2403 27.0592 31.9913 27.676 31.7424 28.2306C31.4935 28.7852 31.2446 29.3793 31.1925 29.5548C30.9494 30.3696 31.3372 32.005 31.7714 32.005C32.0492 32.005 32.0666 31.8862 31.8582 31.2864C31.6209 30.5847 31.5688 30.0018 31.7251 29.8094C31.9045 29.5944 32.0955 29.7132 32.3734 30.2055C32.6397 30.6865 32.7323 30.7771 32.9175 30.7488C33.1491 30.7205 33.0796 30.4149 32.6744 29.6283C32.1939 28.689 32.1882 28.5418 32.5934 27.676C32.8075 27.229 32.9233 27.0479 33.0044 27.0366C33.3343 26.9856 33.8205 27.7779 34.0058 28.6663C34.0752 29.0285 34.1794 29.3397 34.2721 29.4812C34.712 30.1772 34.8162 30.3357 34.9146 30.4319C35.013 30.5224 35.0304 30.5281 35.1519 30.4432C35.3314 30.3244 35.314 30.1037 35.0998 29.7981C34.8335 29.4076 34.6425 29.0228 34.6425 28.87C34.6425 28.7569 34.683 28.7173 34.8625 28.672C34.9783 28.638 35.1346 28.6097 35.2098 28.6097C35.3024 28.6097 35.3372 28.5758 35.3372 28.4796C35.3372 28.3211 35.2272 28.2136 34.8914 28.0495C34.5383 27.8797 34.2489 27.6138 33.9942 27.229C33.7511 26.8555 33.7221 26.6914 33.8784 26.5556C33.928 26.5112 33.9598 26.4827 33.9964 26.4743C34.0623 26.4591 34.1433 26.5098 34.3705 26.6518C34.7757 26.9177 35.2619 27.0422 35.8581 27.0422C36.5528 27.0479 36.8885 26.9856 36.929 26.8555C36.9869 26.6801 36.8596 26.516 36.6743 26.516C36.437 26.516 36.1476 26.4028 36.1476 26.3122C36.1476 26.267 36.2575 26.1312 36.3907 26.0067C36.5991 25.8199 36.6222 25.7803 36.5585 25.7011C36.408 25.5257 35.9565 25.6049 35.204 25.9331C34.712 26.1481 34.5383 26.1481 34.2663 25.9388C34.1852 25.8765 33.89 25.7067 33.6122 25.5596C33.1722 25.3276 33.0854 25.254 32.9233 24.9881C32.5876 24.4448 32.7149 24.2581 33.3517 24.3713C33.5369 24.4052 33.8958 24.4222 34.1505 24.4052C34.9551 24.3543 35.5513 24.06 36.437 23.2678C37.0274 22.7359 37.0911 22.6397 36.9117 22.4982C36.8422 22.4416 36.7322 22.4076 36.6685 22.4246C36.6049 22.4416 36.2286 22.7302 35.8234 23.0697C35.1635 23.6243 35.0709 23.6865 34.8683 23.6865C34.6483 23.6865 34.411 23.5394 34.411 23.4036C34.411 23.3696 34.4747 23.1942 34.5557 23.0075C34.7699 22.5095 34.7351 22.1021 34.4862 22.1813C34.4226 22.2039 34.2663 22.4416 34.081 22.8207C33.7684 23.4772 33.5774 23.7148 33.3227 23.7601C33.1201 23.7997 31.3951 23.5507 30.7931 23.3923C30.1274 23.2169 29.126 23.2169 28.4487 23.3979C26.6195 23.8733 24.5935 25.4068 23.8815 26.8498C23.6673 27.2856 23.6037 27.3648 23.4647 27.3648C23.2448 27.3648 23.1753 27.1271 23.1116 26.2217C22.9206 23.3527 23.4821 21.5532 25.0161 20.0875C25.7918 19.3462 26.4806 18.9897 27.2331 18.9444C27.592 18.9275 27.8062 18.9557 28.4198 19.1029C29.1144 19.2726 29.2244 19.284 29.8785 19.2613C30.5963 19.233 30.8799 19.1481 30.8799 18.9671C30.8799 18.7803 30.7063 18.7407 29.8727 18.7351C28.4545 18.7294 28.1072 18.503 28.7671 18.0277C29.618 17.4109 30.2721 17.1675 31.0536 17.1732C31.8466 17.1732 32.2981 17.36 33.508 18.1748C33.9942 18.4974 34.1968 18.5483 34.2952 18.3729C34.3994 18.1748 34.3589 18.1352 33.4732 17.4958C33.1838 17.2977 33.1896 17.1506 33.4848 16.8676C33.7395 16.6243 33.7627 16.5507 33.6237 16.4376C33.5485 16.3753 33.4327 16.381 32.9465 16.4602C31.8929 16.6356 31.5167 16.5677 31.5167 16.2112C31.5167 16.1207 31.6035 15.8207 31.7077 15.5491C31.9335 14.9719 32.055 14.4909 32.0319 14.2929C32.0145 14.1797 31.9682 14.1457 31.8235 14.1344C31.7615 14.1279 31.718 14.1218 31.6815 14.1351C31.5918 14.1678 31.5448 14.3174 31.372 14.8644C31.0941 15.7359 30.5847 16.3357 29.5312 17.0091C28.935 17.3882 28.6976 17.4392 28.5413 17.2241C28.4082 17.0431 28.4256 16.8563 28.6166 16.4659C28.7613 16.1659 29.016 15.8207 30.139 14.3777C30.3879 14.0552 30.4111 13.9024 30.2374 13.7496C30.1158 13.6421 30.1101 13.6421 29.838 13.942C29.6064 14.1967 29.5312 14.2419 29.3981 14.225L29.2302 14.208V13.3195C29.2302 12.5839 29.2128 12.4141 29.1376 12.3406C28.9813 12.1821 28.9118 12.3575 28.7324 13.3874C28.4777 14.8757 27.8293 17.5354 27.6615 17.79C27.6094 17.8636 27.4068 17.9937 27.1984 18.0843C26.9958 18.1748 26.6485 18.3503 26.4343 18.4747C26.087 18.6728 25.4271 18.9331 25.265 18.9331C25.1608 18.9331 25.2013 18.5596 25.3402 18.305C25.4155 18.1692 25.5892 17.8806 25.7223 17.6655C25.9886 17.2524 26.4748 16.2338 26.6658 15.7076C26.9784 14.8304 27.0132 14.6154 27.0595 12.9913C27.1058 11.3163 27.1521 11.0334 27.4647 10.3543C27.5515 10.1619 27.7309 9.85632 27.8525 9.67524C28.1535 9.23951 28.2982 8.8151 28.223 8.61138C28.1891 8.52869 28.1718 8.48627 28.1421 8.47433C28.1109 8.46176 28.0661 8.48296 27.9741 8.5265C27.893 8.56045 27.7425 8.76983 27.5862 9.06975C27.3257 9.56773 27.0421 9.93555 26.9205 9.93555C26.799 9.92989 26.6543 9.65827 26.3938 8.9113C26.0754 8.00023 25.9944 7.88705 25.7975 8.07945C25.6876 8.18697 25.7107 8.36805 25.9365 9.15463C26.1391 9.89028 26.1564 10.2185 25.9886 10.2185C25.948 10.2185 25.7918 10.1279 25.6413 10.0204C25.3402 9.79408 25.1666 9.75446 25.074 9.89028C24.9871 10.0204 25.1087 10.2581 25.5197 10.7561C25.9307 11.2541 26.3417 12.052 26.4517 12.5669C26.6774 13.6138 26.469 14.9097 25.8728 16.1886C25.6644 16.63 25.5544 16.7545 25.3923 16.7035C25.3287 16.6809 25.0508 16.4376 24.773 16.1546C23.9915 15.3624 23.7542 14.7286 23.9568 13.959C24.0725 13.5233 24.0725 13.3252 23.9683 13.1837C23.8526 13.0366 23.7079 13.1271 23.6037 13.4157C23.4532 13.8345 23.2795 13.8911 22.9496 13.6138C22.7296 13.4327 22.608 13.4044 22.498 13.5119C22.3823 13.6251 22.417 13.7779 22.6486 14.1118C22.7701 14.2872 23.0248 14.7116 23.2158 15.0511C23.459 15.4982 23.6963 15.8151 24.0378 16.1829C24.8019 16.9978 24.8887 17.1393 24.8887 17.575C24.8887 17.9258 24.8598 17.9937 24.3793 18.9501C23.9683 19.7536 23.8294 19.98 23.6847 20.0705C23.5805 20.1271 23.4763 20.1724 23.4416 20.1611C23.4126 20.1498 23.239 19.9234 23.0538 19.6631C22.8627 19.3745 22.5791 19.0519 22.3649 18.8709C22.1623 18.7011 21.815 18.3842 21.5892 18.1692C20.7267 17.326 20.4084 16.2565 20.6631 15.0568C20.8772 14.0552 20.8772 14.0495 20.7962 13.8119C20.7441 13.6421 20.6862 13.5798 20.582 13.5685C20.5068 13.5572 20.4257 13.5685 20.3968 13.5968C20.3736 13.6195 20.2868 14.0382 20.2 14.5192C20.1189 15.0002 20.0263 15.4642 19.9916 15.5491C19.9279 15.7019 19.9221 15.7076 19.76 15.6114C19.7184 15.587 19.6865 15.5709 19.6591 15.5492C19.5532 15.4653 19.5138 15.2974 19.2333 14.2363C18.9438 13.1385 18.857 12.9347 18.666 12.9347C18.446 12.9347 18.4113 13.0762 18.5155 13.6025C18.6834 14.4343 18.9438 15.3963 19.158 15.9452C19.268 16.2338 19.3606 16.5055 19.3606 16.5394C19.3606 16.579 19.3027 16.6469 19.2275 16.6979C19.077 16.7941 18.9207 16.7658 18.475 16.5507C18.174 16.4036 18.0177 16.4376 17.9829 16.6526C17.9424 16.9072 18.4865 17.2072 19.2159 17.343C20.0495 17.4958 20.8251 18.0277 21.9308 19.2047C22.7006 20.0366 22.8512 20.2516 22.9785 20.7213C23.1001 21.1797 23.0885 21.5135 22.9206 22.153C22.6486 23.2112 22.5791 23.7941 22.5791 25.1918C22.5733 26.5952 22.5617 26.6405 22.2665 26.748C22.1681 26.7876 22.0697 26.7706 21.9308 26.7084C21.6645 26.5839 20.7441 25.5879 20.5531 25.2257C20.3678 24.8692 20.2868 24.3769 20.3505 23.9412C20.3736 23.7544 20.4142 23.4206 20.4373 23.1999C20.472 22.8207 20.4662 22.7924 20.3389 22.7076C20.2636 22.6566 20.1884 22.634 20.1652 22.6566C20.1131 22.7076 19.98 23.1886 19.8237 23.8846C19.6732 24.541 19.6269 24.6485 19.488 24.6485C19.3085 24.6485 18.8281 24.309 18.3997 23.8846C17.6009 23.0924 17.4099 22.3793 17.7688 21.5079C18.1103 20.676 18.4287 20.3874 19.1407 20.2686C19.459 20.212 19.7022 20.1271 20.0205 19.946C20.5068 19.6801 20.5936 19.5499 20.4142 19.3688C20.2984 19.2613 20.2868 19.2613 20.061 19.3519C19.7774 19.4594 19.6153 19.465 19.5748 19.3688C19.5632 19.3292 19.5748 19.1651 19.6095 19.001C19.6616 18.752 19.6616 18.6898 19.5806 18.6162C19.4532 18.4861 19.3317 18.5653 18.9033 19.0689C18.5502 19.482 18.3824 19.6009 18.2608 19.5273C18.1682 19.4707 18.0466 19.2104 18.0003 18.9614C17.9482 18.6785 17.8787 18.5936 17.6993 18.5936C17.5199 18.5936 17.4678 18.7464 17.5083 19.1312C17.5546 19.5612 17.4793 20.3874 17.3346 20.9194C17.2015 21.423 16.9063 22.1021 16.8252 22.1021C16.721 22.1021 16.2811 21.6267 16.148 21.3664C15.9627 21.0099 15.8527 20.5968 15.7485 19.8951C15.6443 19.2047 15.4938 18.7351 15.2507 18.3616C15.0134 18.0107 14.4635 17.5071 14.3361 17.5297C14.174 17.558 14.1798 17.841 14.3535 18.0843C14.4808 18.2654 14.4982 18.322 14.4461 18.4182C14.3303 18.6219 14.1335 18.6219 13.7746 18.4125C13.4736 18.2427 13.4273 18.1861 13.2073 17.7334C12.9527 17.2128 12.8832 17.1449 12.698 17.2355C12.5706 17.3034 12.559 17.4448 12.669 17.8296C12.8716 18.5766 13.1553 18.803 14.3072 19.1538C14.886 19.3292 14.9034 19.3405 15.025 19.5726C15.2565 20.0083 15.3723 20.6308 15.2739 20.8798C15.2276 20.9986 14.8918 21.0552 14.724 20.9703C14.6487 20.9307 14.3709 20.6987 14.1162 20.4553C13.6415 20.0083 13.5373 19.9517 13.41 20.0762C13.2768 20.2063 13.3405 20.3988 13.6357 20.7439C13.983 21.1514 14.504 21.5022 14.9613 21.6324C15.5807 21.8078 15.7717 21.9436 16.3737 22.6283C17.1841 23.5677 17.9772 24.2581 19.9974 25.8143C21.6876 27.1101 21.9713 27.3591 22.2491 27.7666C22.5675 28.2362 22.5617 28.2928 22.197 28.2476C21.5198 28.157 20.9235 27.7666 19.8237 26.6857C19.3954 26.2613 18.9265 25.8199 18.7818 25.7067C18.3187 25.3502 17.7282 25.0447 17.1378 24.8692C16.5532 24.6938 15.6154 24.2128 15.0423 23.7941C14.8803 23.6809 14.6487 23.4432 14.5329 23.2678C14.4172 23.0924 14.284 22.9509 14.2377 22.9509C14.1451 22.9509 13.9772 23.1037 13.9772 23.1829C13.9772 23.3074 14.3245 23.8959 14.4924 24.0487C14.805 24.343 14.6834 24.6485 14.2551 24.6485C13.2768 24.6485 11.4708 23.7375 11.0482 23.0301C10.9151 22.8094 10.8977 22.7302 10.9266 22.4529C10.944 22.2775 11.0424 21.938 11.1408 21.7059C11.3955 21.1287 11.7197 20.1837 11.7197 20.0366C11.7197 19.8951 11.5518 19.7253 11.4187 19.7253C11.2971 19.7253 11.2219 19.8272 11.1698 20.0649C11.1119 20.3308 10.9209 20.9533 10.8109 21.2023C10.6604 21.5645 10.2783 21.6211 10.1625 21.2928C10.0757 21.0665 10.1741 20.2799 10.342 19.7763C10.4809 19.3575 10.4636 19.2387 10.2436 19.1821C9.91364 19.1029 9.71104 19.6065 9.65315 20.6477C9.61263 21.3777 9.69946 21.921 9.89627 22.2435C10.2262 22.7698 10.2725 22.9 10.1799 23.0697C10.0757 23.2734 9.82102 23.3244 9.32899 23.2395C9.12639 23.2055 8.86011 23.1772 8.73276 23.1772C8.47807 23.1772 8.04971 23.0018 7.84711 22.8207C7.77765 22.7528 7.494 22.3963 7.22194 22.0285C6.66624 21.2702 6.46942 21.1287 6.19157 21.2589C6.09895 21.3042 6.01791 21.3721 6.00055 21.406C5.98897 21.4456 6.16263 21.6663 6.38259 21.8927C6.60835 22.1247 6.85726 22.4416 6.9383 22.6057C7.12932 22.9679 7.46506 23.2961 7.82395 23.4602C8.12496 23.6017 8.82538 23.7431 9.20743 23.7431C9.5779 23.7431 10.6314 23.9525 10.724 24.0487C10.7993 24.1166 10.7993 24.1619 10.7356 24.3034C10.6372 24.541 10.232 24.7561 9.41003 25.0107C8.60542 25.2654 8.1539 25.4917 7.77765 25.8369C7.47664 26.1142 7.43612 26.2387 7.58662 26.4481C7.70818 26.6235 7.80659 26.6065 8.02656 26.3575C8.29283 26.0519 8.67488 25.8426 8.80802 25.9274C8.97589 26.0293 8.95852 26.1877 8.73855 26.731C8.5128 27.2742 8.50122 27.4553 8.66909 27.5572C8.83117 27.659 8.94694 27.5346 9.09166 27.1215C9.43318 26.1312 10.0815 25.3502 11.025 24.79C11.4592 24.5297 11.7602 24.4901 12.2117 24.6202C12.5532 24.7164 12.9063 24.9824 12.8658 25.1182C12.8485 25.1522 12.6111 25.305 12.3333 25.4464C11.7197 25.7633 11.3492 26.0519 11.1929 26.3519C11.0598 26.6122 11.0656 26.7876 11.2103 26.8725C11.2855 26.9234 11.3666 26.8781 11.6155 26.6631C13.1379 25.3219 15.2912 24.8466 17.1262 25.4464C18.0003 25.7294 18.3476 25.9727 19.4648 27.0649C20.1189 27.7043 20.5589 28.0891 20.7383 28.1797C21.0741 28.3494 21.1725 28.4513 21.1435 28.6211C21.1088 28.8531 20.9062 28.8927 20.0784 28.8417C19.4301 28.7965 19.2391 28.7569 18.6081 28.5531C17.9772 28.3381 17.8209 28.3098 17.3636 28.3098C16.9005 28.3042 16.7963 28.3268 16.4258 28.4852C16.2001 28.5871 15.9338 28.6663 15.8354 28.6663C15.3781 28.6663 14.9729 28.3155 14.8166 27.7779C14.6313 27.1384 14.4345 27.0422 14.0178 27.3931C13.792 27.5855 13.7631 27.5911 13.3289 27.5911C12.9584 27.5911 12.8658 27.6081 12.8369 27.6817C12.7732 27.8458 12.9063 27.9533 13.2884 28.0438C13.7225 28.1514 13.9309 28.2532 14.4403 28.6041C14.6429 28.7455 14.9729 28.9436 15.1639 29.0341C15.4996 29.2039 15.5112 29.2152 15.5054 29.4246C15.4996 29.5717 15.4533 29.6849 15.3549 29.7811C15.2218 29.9113 15.1986 29.9113 14.9381 29.849C14.4287 29.7245 13.9483 29.8603 12.9932 30.3979C12.7558 30.5281 12.698 30.5394 12.3564 30.5054C11.6849 30.4375 11.5808 30.4432 11.5576 30.5394C11.546 30.5903 11.6039 30.7035 11.6792 30.794C11.9917 31.1562 11.9223 31.3939 11.4303 31.6372C10.944 31.8749 11.1119 32.1748 11.6618 32.056C12.067 31.9654 12.3217 31.807 12.9353 31.2468C13.7862 30.4658 14.3882 30.1999 14.6719 30.4772C14.8108 30.613 14.8108 30.6186 14.3824 31.0996C13.9425 31.5919 13.6531 32.022 13.2594 32.7803C12.8774 33.5103 12.5474 33.8951 12.067 34.1837C11.6271 34.444 11.4881 34.6194 11.4881 34.9024C11.4881 35.1117 11.4939 35.1174 11.6502 35.0835C11.8644 35.0382 12.2117 34.7949 13.0626 34.1101C13.5662 33.7084 13.6762 33.8102 13.6068 34.6081C13.5662 35.0212 13.572 35.0552 13.6878 35.1174C13.7515 35.1514 13.8615 35.1627 13.9251 35.1457C14.1509 35.0721 14.1798 34.8741 14.1683 33.5895C14.1509 32.3898 14.1567 32.3672 14.3014 32.0786C14.5619 31.558 14.9844 31.3486 15.2449 31.6033C15.3723 31.7278 15.3954 31.824 15.4765 32.7463C15.5459 33.516 15.6443 33.7989 16.0611 34.427C16.3853 34.9137 16.5011 34.9986 16.6921 34.8797C16.86 34.7779 16.8426 34.6081 16.6458 34.3365C16.3679 33.9687 16.119 33.4707 16.119 33.3009C16.119 33.0859 16.2695 32.9501 16.4605 32.9953C16.5416 33.018 16.9063 33.1594 17.2652 33.3122C17.9135 33.5895 18.1045 33.6291 18.2492 33.5386C18.3071 33.5046 18.3071 33.465 18.2608 33.3575C18.1855 33.1991 17.2999 32.6898 16.8426 32.5426C16.1769 32.3276 15.9106 32.0164 15.7138 31.1958C15.5633 30.5451 15.5633 30.4885 15.7891 30.0867C16.2174 29.3058 16.8079 28.8304 17.3636 28.8135C17.7803 28.8078 17.8498 28.8814 17.9482 29.4586C18.064 30.1886 18.2145 30.4149 19.1349 31.2524C19.7195 31.7843 19.899 31.8749 20.0495 31.6995C20.1595 31.5693 20.0553 31.4222 19.3027 30.6752C18.9207 30.2961 18.6023 29.9282 18.5792 29.8434C18.5213 29.6113 18.5676 29.4529 18.7239 29.3397C18.8454 29.2605 18.9265 29.2492 19.2159 29.2888C19.4069 29.3171 19.8237 29.3397 20.1421 29.3397C20.8078 29.3454 21.6298 29.4586 22.2549 29.6283C23.2506 29.9056 24.0262 30.4941 24.4141 31.275C24.7788 31.9994 25.0624 33.1198 25.4387 35.2589C26.1997 39.6249 26.5203 41.8029 26.6417 44.8055C25.3255 45.0442 23.9695 45.1689 22.5844 45.1689C10.1114 45.1689 0 35.0575 0 22.5844C0 10.1114 10.1114 0 22.5844 0ZM28.4547 44.3985C28.021 44.5149 27.5822 44.6187 27.1387 44.7095C27.1255 44.1591 27.1173 43.6986 27.1173 43.4246C27.1173 41.7383 27.2331 41.1837 27.8467 39.9501C28.1477 39.3446 28.304 39.1635 28.4892 39.2314C28.5356 39.2484 28.5645 39.4747 28.5761 39.9161C28.6021 40.9391 28.5392 43.2347 28.4547 44.3985ZM26.9205 37.1942C26.7411 36.368 26.2838 34.6873 26.1217 34.2516C26.058 34.0762 25.9828 33.929 25.9596 33.929C25.8381 33.929 25.8496 34.444 25.9886 35.3041C26.5906 39.0163 26.7237 39.8029 26.77 39.9104C26.8511 40.0915 27.0363 40.0746 27.1058 39.8822C27.1984 39.6162 27.0826 37.9581 26.9205 37.1942Z" fill="#7DAD52"/>
<path d="M58.8937 19.8106C57.1601 18.1994 56.2831 16.2619 56.2831 14.0388C56.2831 11.8158 57.1601 9.89862 58.9141 8.26701C60.5457 6.77817 62.8504 5.90118 65.155 5.90118C66.705 5.90118 68.1735 6.2479 69.54 6.96173C70.9064 7.67555 71.9874 8.63412 72.7828 9.83743L69.4584 12.2441C68.6222 10.7144 66.9702 9.81704 65.155 9.81704C63.8497 9.81704 62.728 10.2249 61.8102 11.0611C60.8924 11.8769 60.4233 12.8763 60.4233 14.0388C60.4233 15.2013 60.8924 16.2007 61.8102 17.0369C62.728 17.8527 63.8497 18.2606 65.155 18.2606C67.0314 18.2606 68.6834 17.302 69.5196 15.7316L72.8848 18.0363C72.1301 19.3212 71.0492 20.3205 69.6419 21.0751C68.2551 21.8094 66.7662 22.1765 65.155 22.1765C62.8504 22.1765 60.5457 21.2995 58.8937 19.8106Z" fill="#161C1C"/>
<path d="M82.6371 22.0133L78.6397 22.0541L80.8627 5.45249L89.1839 14.9362L97.5051 5.45249L99.7078 22.0337H95.7104L94.711 14.2428L89.1839 20.3205L83.6365 14.2428L82.6371 22.0133Z" fill="#161C1C"/>
<path d="M122.604 6.04395V22.0337H118.463V6.04395H122.604Z" fill="#161C1C"/>
<path d="M133.678 22.0337H129.537V5.3913L141.652 14.9158V6.04395H145.772V22.7067L133.678 13.2638V22.0337Z" fill="#161C1C"/>
<path d="M157.535 22.0337V9.87823H151.477V6.04395H167.691V9.87823H161.654V22.0337H157.535Z" fill="#161C1C"/>
<path d="M188.65 18.281V22.0337H173.395V6.04395H188.65V9.81704H177.535V12.2848H185.02V15.7928H177.535V18.281H188.65Z" fill="#161C1C"/>
<path d="M206.646 22.0337L202.343 16.731H199.324V22.0337H195.184V6.04395H205.524C207.034 6.04395 208.319 6.57422 209.399 7.61437C210.48 8.65452 211.031 9.91901 211.031 11.3875C211.031 12.5908 210.664 13.6513 209.95 14.5691C209.236 15.4869 208.278 16.1191 207.115 16.4251L211.684 22.0337H206.646ZM199.324 13.0395H204.892C206.197 13.0395 206.87 12.3052 206.87 11.3059C206.87 10.2657 206.218 9.5519 204.892 9.5519H199.324V13.0395Z" fill="#161C1C"/>
<path d="M221.731 22.0337H217.591V5.3913L229.706 14.9158V6.04395H233.825V22.7067L221.731 13.2638V22.0337Z" fill="#161C1C"/>
<path d="M244.895 19.4843L243.508 22.0337H238.96L247.75 5.30972L256.846 22.0337H252.257L250.809 19.4843H244.895ZM247.811 12.7131L245.976 16.6494L249.647 16.629L247.811 12.7131Z" fill="#161C1C"/>
<path d="M266.82 22.0337V9.87823H260.762V6.04395H276.976V9.87823H270.939V22.0337H266.82Z" fill="#161C1C"/>
<path d="M286.82 6.04395V22.0337H282.68V6.04395H286.82Z" fill="#161C1C"/>
<path d="M308.092 19.8106C306.358 21.3811 304.257 22.1765 301.81 22.1765C299.362 22.1765 297.262 21.3811 295.528 19.8106C293.795 18.2198 292.938 16.3027 292.938 14.0388C292.938 11.775 293.795 9.85783 295.528 8.28741C297.262 6.69659 299.362 5.90118 301.81 5.90118C304.257 5.90118 306.358 6.69659 308.092 8.28741C309.825 9.85783 310.702 11.775 310.702 14.0388C310.702 16.3027 309.825 18.2198 308.092 19.8106ZM301.81 18.2606C303.136 18.2606 304.237 17.8527 305.155 17.0369C306.072 16.2007 306.541 15.2013 306.541 14.0388C306.541 12.8763 306.072 11.8769 305.155 11.0611C304.237 10.2249 303.136 9.81704 301.81 9.81704C300.505 9.81704 299.383 10.2249 298.465 11.0611C297.547 11.8769 297.078 12.8763 297.078 14.0388C297.078 15.2013 297.547 16.2007 298.465 17.0369C299.383 17.8527 300.505 18.2606 301.81 18.2606Z" fill="#161C1C"/>
<path d="M320.958 22.0337H316.818V5.3913L328.932 14.9158V6.04395H333.052V22.7067L320.958 13.2638V22.0337Z" fill="#161C1C"/>
<path d="M344.122 19.4843L342.735 22.0337H338.187L346.977 5.30972L356.073 22.0337H351.484L350.036 19.4843H344.122ZM347.038 12.7131L345.202 16.6494L348.874 16.629L347.038 12.7131Z" fill="#161C1C"/>
<path d="M361.213 22.0337V6.04395H365.353V18.1994H375V22.0337H361.213Z" fill="#161C1C"/>
<path d="M57.9543 41.5868C56.9719 40.6958 56.4807 39.6335 56.4807 38.3884C56.4807 37.1433 56.9719 36.0809 57.9543 35.19C58.9252 34.3332 60.0789 33.9106 61.4154 33.9106C63.106 33.9106 64.6824 34.6873 65.6077 36.0124L64.4768 36.7892C63.8257 35.8411 62.6491 35.2813 61.4154 35.2813C60.4331 35.2813 59.5878 35.5898 58.891 36.1952C58.1942 36.8006 57.8515 37.5317 57.8515 38.3884C57.8515 39.2451 58.1942 39.9762 58.891 40.5816C59.5878 41.187 60.4331 41.4954 61.4154 41.4954C62.6491 41.4954 63.8257 40.9357 64.4768 39.9876L65.6077 40.7644C64.6824 42.0894 63.106 42.8662 61.4154 42.8662C60.0789 42.8662 58.9252 42.4435 57.9543 41.5868Z" fill="#161C1C"/>
<path d="M79.4476 42.8662C78.0883 42.8662 76.9346 42.4321 75.9636 41.5754C74.9927 40.7072 74.5129 39.6449 74.5129 38.3884C74.5129 37.5545 74.7414 36.8006 75.1869 36.1038C75.6438 35.407 76.2492 34.8701 77.0031 34.4932C77.757 34.1048 78.5681 33.9106 79.4476 33.9106C80.807 33.9106 81.9607 34.3447 82.9316 35.2128C83.9026 36.0809 84.3824 37.1433 84.3824 38.3884C84.3824 39.6449 83.8912 40.7072 82.9202 41.5754C81.9493 42.4321 80.7841 42.8662 79.4476 42.8662ZM76.9232 40.5816C77.62 41.187 78.4653 41.4954 79.4476 41.4954C80.43 41.4954 81.2639 41.187 81.9607 40.5816C82.6575 39.9762 83.0116 39.2451 83.0116 38.3884C83.0116 37.5317 82.6575 36.8006 81.9607 36.1952C81.2639 35.5898 80.43 35.2813 79.4476 35.2813C78.4653 35.2813 77.62 35.5898 76.9232 36.1952C76.2264 36.8006 75.8837 37.5317 75.8837 38.3884C75.8837 39.2451 76.2264 39.9762 76.9232 40.5816Z" fill="#161C1C"/>
<path d="M94.8917 42.8548L93.521 42.8662L94.709 33.6022L99.6437 39.6906L104.59 33.6022L105.766 42.8662H104.396L103.63 36.9377L99.6437 41.8267L95.6571 36.9377L94.8917 42.8548Z" fill="#161C1C"/>
<path d="M116.505 42.8548L115.134 42.8662L116.322 33.6022L121.257 39.6906L126.203 33.6022L127.379 42.8662H126.009L125.243 36.9377L121.257 41.8267L117.27 36.9377L116.505 42.8548Z" fill="#161C1C"/>
<path d="M138.472 41.1642L137.604 42.8662H136.062L140.654 33.5336L145.406 42.8662H143.852L142.95 41.1642H138.472ZM140.677 36.5036L139.077 39.8505H142.321L140.677 36.5036Z" fill="#161C1C"/>
<path d="M155.687 42.8662H154.316V33.6821L161.867 40.1704V33.9106H163.237V43.1518L155.687 36.6635V42.8662Z" fill="#161C1C"/>
<path d="M177.506 42.8662H173.062V33.9106H177.506C178.739 33.9106 179.79 34.3447 180.67 35.2242C181.55 36.1038 181.984 37.1547 181.984 38.3884C181.984 39.6221 181.55 40.673 180.67 41.5525C179.79 42.4321 178.739 42.8662 177.506 42.8662ZM174.433 35.2813V41.4954H177.506C178.363 41.4954 179.094 41.187 179.699 40.5816C180.304 39.9762 180.613 39.2451 180.613 38.3884C180.613 37.5317 180.304 36.8006 179.699 36.1952C179.094 35.5898 178.363 35.2813 177.506 35.2813H174.433Z" fill="#161C1C"/>
<path d="M205.171 42.8548L203.8 42.8662L204.988 33.6022L209.923 39.6906L214.869 33.6022L216.046 42.8662H214.675L213.91 36.9377L209.923 41.8267L205.936 36.9377L205.171 42.8548Z" fill="#161C1C"/>
<path d="M227.013 33.9106V42.8662H225.642V33.9106H227.013Z" fill="#161C1C"/>
<path d="M236.836 42.8662V33.9106H238.207V41.4954H244.341V42.8662H236.836Z" fill="#161C1C"/>
<path d="M253.474 42.8662V33.9106H254.844V41.4954H260.979V42.8662H253.474Z" fill="#161C1C"/>
<path d="M271.482 33.9106V42.8662H270.111V33.9106H271.482Z" fill="#161C1C"/>
<path d="M285.783 42.8662C284.424 42.8662 283.27 42.4321 282.299 41.5754C281.328 40.7072 280.849 39.6449 280.849 38.3884C280.849 37.5545 281.077 36.8006 281.523 36.1038C281.979 35.407 282.585 34.8701 283.339 34.4932C284.093 34.1048 284.904 33.9106 285.783 33.9106C287.143 33.9106 288.296 34.3447 289.267 35.2128C290.238 36.0809 290.718 37.1433 290.718 38.3884C290.718 39.6449 290.227 40.7072 289.256 41.5754C288.285 42.4321 287.12 42.8662 285.783 42.8662ZM283.259 40.5816C283.956 41.187 284.801 41.4954 285.783 41.4954C286.766 41.4954 287.6 41.187 288.296 40.5816C288.993 39.9762 289.347 39.2451 289.347 38.3884C289.347 37.5317 288.993 36.8006 288.296 36.1952C287.6 35.5898 286.766 35.2813 285.783 35.2813C284.801 35.2813 283.956 35.5898 283.259 36.1952C282.562 36.8006 282.219 37.5317 282.219 38.3884C282.219 39.2451 282.562 39.9762 283.259 40.5816Z" fill="#161C1C"/>
<path d="M301.456 42.8662H300.085V33.6821L307.636 40.1704V33.9106H309.006V43.1518L301.456 36.6635V42.8662Z" fill="#161C1C"/>
<path d="M320.328 41.1642L319.459 42.8662H317.917L322.509 33.5336L327.261 42.8662H325.708L324.805 41.1642H320.328ZM322.532 36.5036L320.933 39.8505H324.177L322.532 36.5036Z" fill="#161C1C"/>
<path d="M337.543 33.9106V42.8662H336.172V33.9106H337.543Z" fill="#161C1C"/>
<path d="M354.482 42.8662L351.273 39.5535H348.737V42.8662H347.366V33.9106H353.214C353.991 33.9106 354.654 34.1847 355.202 34.7445C355.762 35.2928 356.036 35.9553 356.036 36.7321C356.036 37.5202 355.762 38.1942 355.202 38.7425C354.642 39.2794 353.945 39.5535 353.112 39.5535L356.31 42.8662H354.482ZM348.737 38.1828H353.214C353.614 38.1828 353.945 38.0457 354.231 37.7601C354.517 37.4746 354.665 37.1319 354.665 36.7321C354.665 36.3323 354.517 35.9896 354.231 35.704C353.945 35.4184 353.614 35.2813 353.214 35.2813H348.737V38.1828Z" fill="#161C1C"/>
<path d="M373.904 41.4954V42.8662H365.565V33.9106H373.904V35.2813H366.936V37.703H371.642V39.0738H366.936V41.4954H373.904Z" fill="#161C1C"/>
</svg>
