<svg width="82" height="78" viewBox="0 0 82 78" fill="none" xmlns="http://www.w3.org/2000/svg">
<path fill-rule="evenodd" clip-rule="evenodd" d="M61.9593 21.28C61.9593 33.0326 52.432 42.56 40.6793 42.56C28.9267 42.56 19.3993 33.0326 19.3993 21.28C19.3993 19.4962 19.6188 17.7637 20.0322 16.108C18.5575 13.9104 17.626 11.0756 17.626 7.44793C19.4215 7.03985 21.9129 6.89659 24.5108 7.44406C28.4137 2.88746 34.2093 0 40.6793 0C40.9829 0 41.2849 0.00635478 41.5853 0.0189386C35.4464 0.287555 30.044 3.39363 26.6573 8.0581C30.8972 9.61276 34.9926 13.2947 36.4233 20.9253C34.0589 18.5608 28.4788 13.6191 25.074 12.7679C28.3842 14.423 35.9268 19.8612 39.6153 28.3732C42.6891 24.1172 50.9646 15.3215 59.4766 14.1865C57.2304 14.0683 51.674 14.8249 47.418 18.7972C48.7184 14.7776 53.8729 7.80252 64.0873 12.0585C62.7869 15.8416 57.8452 22.6985 48.482 19.8612C45.5274 21.6339 40.0447 26.8091 41.7416 39.0006C41.9776 39.0091 42.2146 39.0133 42.4527 39.0133C52.9352 39.0133 61.4865 30.7449 61.9404 20.3743C61.953 20.6747 61.9593 20.9766 61.9593 21.28ZM38.5559 38.624C39.0248 35.1138 39.1076 28.2561 35.714 23.0532C32.2976 23.1872 26.9454 22.3495 22.9481 19.2238C22.9467 19.318 22.946 19.4122 22.946 19.5067C22.946 28.9454 29.6499 36.8184 38.5559 38.624Z" fill="white"/>
<path d="M1.14677 72.3585C0.823324 72.3585 0.551333 72.2409 0.3308 72.0059C0.110267 71.7708 0 71.4809 0 71.1361V55.2223C0 54.8619 0.110267 54.572 0.3308 54.3526C0.551333 54.1175 0.823324 54 1.14677 54H11.1149C11.453 54 11.725 54.1097 11.9308 54.3291C12.1367 54.5328 12.2396 54.8071 12.2396 55.1518C12.2396 55.4809 12.1367 55.7473 11.9308 55.951C11.725 56.1547 11.453 56.2566 11.1149 56.2566H2.29355V61.9687H10.392C10.7302 61.9687 11.0022 62.0784 11.208 62.2977C11.4138 62.5015 11.5167 62.7679 11.5167 63.097C11.5167 63.4261 11.4138 63.7003 11.208 63.9197C11.0022 64.1234 10.7302 64.2253 10.392 64.2253H2.29355V70.1019H11.1149C11.453 70.1019 11.725 70.2037 11.9308 70.4074C12.1367 70.6112 12.2396 70.8776 12.2396 71.2067C12.2396 71.5514 12.1367 71.8335 11.9308 72.0529C11.725 72.2566 11.453 72.3585 11.1149 72.3585H1.14677Z" fill="white"/>
<path d="M20.0538 72.4525C18.8776 72.4525 17.8264 72.1704 16.9002 71.6063C15.9887 71.0264 15.2682 70.2507 14.739 69.2791C14.2244 68.2919 13.9671 67.1792 13.9671 65.9412C13.9671 64.6719 14.2244 63.5436 14.739 62.5563C15.2535 61.569 15.9593 60.8012 16.8561 60.2527C17.7529 59.6885 18.7821 59.4065 19.9436 59.4065C20.811 59.4065 21.6049 59.5867 22.3253 59.9471C23.0457 60.2919 23.6926 60.8168 24.266 61.522C24.4718 61.7728 24.5453 62.0313 24.4865 62.2977C24.4277 62.5642 24.266 62.7992 24.0014 63.0029C23.7955 63.1596 23.5676 63.2145 23.3177 63.1675C23.0678 63.1048 22.8399 62.9638 22.6341 62.7444C21.9136 61.9295 21.0168 61.522 19.9436 61.522C19.1937 61.522 18.5321 61.7101 17.9588 62.0862C17.3854 62.4466 16.9369 62.9559 16.6135 63.6141C16.29 64.2723 16.1283 65.048 16.1283 65.9412C16.1283 66.7875 16.29 67.5397 16.6135 68.1978C16.9516 68.856 17.4148 69.381 18.0029 69.7728C18.5909 70.1489 19.2746 70.3369 20.0538 70.3369C20.5684 70.3369 21.0168 70.2742 21.3991 70.1489C21.796 70.0078 22.1562 69.7963 22.4797 69.5142C22.7149 69.3105 22.9575 69.2008 23.2074 69.1851C23.4574 69.1538 23.6779 69.2243 23.869 69.3967C24.119 69.6161 24.2587 69.8668 24.2881 70.1489C24.3175 70.4153 24.2292 70.6582 24.0234 70.8776C22.9649 71.9275 21.6417 72.4525 20.0538 72.4525Z" fill="white"/>
<path d="M32.5139 72.4525C31.3231 72.4525 30.2719 72.1783 29.3603 71.6298C28.4488 71.0656 27.7284 70.2977 27.1991 69.3262C26.6845 68.3389 26.4272 67.2106 26.4272 65.9412C26.4272 64.6562 26.6845 63.5279 27.1991 62.5563C27.7284 61.569 28.4488 60.8012 29.3603 60.2527C30.2719 59.6885 31.3231 59.4065 32.5139 59.4065C33.6901 59.4065 34.734 59.6885 35.6455 60.2527C36.5571 60.8012 37.2701 61.569 37.7847 62.5563C38.314 63.5279 38.5786 64.6562 38.5786 65.9412C38.5786 67.2106 38.3213 68.3389 37.8067 69.3262C37.2922 70.2977 36.5791 71.0656 35.6676 71.6298C34.756 72.1783 33.7048 72.4525 32.5139 72.4525ZM32.5139 70.3369C33.2785 70.3369 33.9548 70.1489 34.5428 69.7728C35.1309 69.3967 35.5867 68.8795 35.9102 68.2214C36.2483 67.5632 36.4174 66.8031 36.4174 65.9412C36.4174 65.0793 36.2483 64.3193 35.9102 63.6611C35.5867 62.9873 35.1309 62.4623 34.5428 62.0862C33.9548 61.7101 33.2785 61.522 32.5139 61.522C31.7494 61.522 31.0731 61.7101 30.485 62.0862C29.8969 62.4623 29.4338 62.9873 29.0957 63.6611C28.7575 64.3193 28.5885 65.0793 28.5885 65.9412C28.5885 66.8031 28.7575 67.5632 29.0957 68.2214C29.4338 68.8795 29.8969 69.3967 30.485 69.7728C31.0731 70.1489 31.7494 70.3369 32.5139 70.3369Z" fill="white"/>
<path d="M42.7638 72.3585C42.4403 72.3585 42.1683 72.2409 41.9478 72.0059C41.7273 71.7708 41.617 71.4809 41.617 71.1361V55.2223C41.617 54.8619 41.7273 54.572 41.9478 54.3526C42.1683 54.1175 42.4403 54 42.7638 54H46.7554C48.0198 54 49.1666 54.2272 50.1957 54.6817C51.2396 55.1205 52.1438 55.7551 52.9083 56.5857C53.6728 57.4006 54.2609 58.3643 54.6726 59.477C55.0842 60.5896 55.29 61.8198 55.29 63.1675C55.29 64.5152 55.0842 65.7532 54.6726 66.8815C54.2609 67.9941 53.6728 68.9657 52.9083 69.7963C52.1438 70.6112 51.2396 71.2458 50.1957 71.7003C49.1666 72.1391 48.0198 72.3585 46.7554 72.3585H42.7638ZM43.9105 70.1959H46.7554C47.9904 70.1959 49.0784 69.8981 50.0193 69.3026C50.9749 68.6915 51.7248 67.8609 52.2687 66.811C52.8127 65.7453 53.0847 64.5309 53.0847 63.1675C53.0847 61.7884 52.8127 60.5739 52.2687 59.524C51.7248 58.474 50.9749 57.6513 50.0193 57.0558C49.0784 56.4603 47.9904 56.1626 46.7554 56.1626H43.9105V70.1959Z" fill="white"/>
<path d="M62.7245 72.4525C61.6512 72.4525 60.6882 72.1704 59.8355 71.6063C58.9827 71.0264 58.3064 70.2507 57.8066 69.2791C57.3214 68.2919 57.0788 67.1792 57.0788 65.9412C57.0788 64.7032 57.3435 63.5906 57.8727 62.6033C58.4167 61.6161 59.1445 60.8404 60.056 60.2762C60.9823 59.6964 62.0188 59.4065 63.1655 59.4065C64.3123 59.4065 65.3415 59.6964 66.253 60.2762C67.1645 60.8404 67.8849 61.6161 68.4142 62.6033C68.9582 63.5906 69.2302 64.7032 69.2302 65.9412H68.3701C68.3701 67.1792 68.1202 68.2919 67.6203 69.2791C67.1351 70.2507 66.4662 71.0264 65.6134 71.6063C64.7607 72.1704 63.7977 72.4525 62.7245 72.4525ZM63.1655 70.3369C63.9153 70.3369 64.5843 70.1489 65.1724 69.7728C65.7605 69.381 66.2236 68.856 66.5617 68.1978C66.8999 67.524 67.069 66.7718 67.069 65.9412C67.069 65.095 66.8999 64.3428 66.5617 63.6846C66.2236 63.0108 65.7605 62.4858 65.1724 62.1097C64.5843 61.7179 63.9153 61.522 63.1655 61.522C62.4304 61.522 61.7615 61.7179 61.1587 62.1097C60.5706 62.4858 60.1001 63.0108 59.7473 63.6846C59.4091 64.3428 59.24 65.095 59.24 65.9412C59.24 66.7718 59.4091 67.524 59.7473 68.1978C60.1001 68.856 60.5706 69.381 61.1587 69.7728C61.7615 70.1489 62.4304 70.3369 63.1655 70.3369ZM68.1055 72.382C67.782 72.382 67.51 72.2723 67.2895 72.0529C67.0837 71.8178 66.9807 71.5279 66.9807 71.1832V67.5867L67.3998 65.095L69.2302 65.9412V71.1832C69.2302 71.5279 69.1199 71.8178 68.8994 72.0529C68.6936 72.2723 68.4289 72.382 68.1055 72.382Z" fill="white"/>
<path d="M74.2559 78C74.1089 78 73.9325 77.953 73.7266 77.859C73.0797 77.5455 72.9033 77.0519 73.1973 76.3781L79.9236 60.1822C80.2176 59.524 80.6808 59.3359 81.313 59.618C81.9746 59.9158 82.1583 60.4094 81.8643 61.0989L75.116 77.2713C74.9395 77.7571 74.6529 78 74.2559 78ZM76.8582 71.8413C76.5788 71.9667 76.3142 71.9824 76.0643 71.8883C75.829 71.7786 75.6379 71.5749 75.4909 71.2772L70.4407 61.0519C70.2937 60.7542 70.2716 60.4721 70.3745 60.2057C70.4921 59.9236 70.6906 59.7199 70.97 59.5945C71.2493 59.4691 71.5139 59.4613 71.7639 59.571C72.0138 59.665 72.2049 59.8609 72.3373 60.1587L77.1669 70.3839C77.314 70.6817 77.3654 70.9716 77.3213 71.2537C77.2919 71.5201 77.1375 71.716 76.8582 71.8413Z" fill="white"/>
</svg>
