<svg width="133" height="32" viewBox="0 0 133 32" fill="none" xmlns="http://www.w3.org/2000/svg">
<path fill-rule="evenodd" clip-rule="evenodd" d="M15.6944 28.9743C23.6954 28.9743 30.1816 22.4882 30.1816 14.4871C30.1816 14.2806 30.1772 14.0751 30.1687 13.8706C29.8596 20.9308 24.038 26.5598 16.9017 26.5598C16.7396 26.5598 16.5782 26.5569 16.4176 26.5511C15.2624 18.2513 18.9949 14.7281 21.0064 13.5212C27.3807 15.4529 30.7449 10.7848 31.6303 8.20929C24.6764 5.31187 21.1673 10.0604 20.282 12.7969C23.1794 10.0926 26.9622 9.57752 28.4914 9.65801C22.6965 10.4307 17.0626 16.4187 14.97 19.3161C12.4589 13.5212 7.32406 9.81898 5.0705 8.6922C7.38844 9.27168 11.1873 12.636 12.797 14.2457C11.8229 9.05083 9.03486 6.54425 6.1484 5.48586C8.45405 2.3103 12.132 0.195714 16.3114 0.0129014C16.1068 0.00432905 15.9011 0 15.6944 0C11.2897 0 7.34411 1.96575 4.68708 5.06783C2.91845 4.69512 1.22237 4.79265 0 5.07047C0 7.5401 0.63418 9.47005 1.63815 10.9661C1.35669 12.0933 1.20727 13.2728 1.20727 14.4871C1.20727 22.4882 7.69339 28.9743 15.6944 28.9743ZM12.3141 15.6943C14.6244 19.2364 14.568 23.905 14.2488 26.2948C8.18571 25.0655 3.62182 19.7057 3.62182 13.2799C3.62182 13.2156 3.62227 13.1514 3.62319 13.0873C6.34453 15.2153 9.98824 15.7855 12.3141 15.6943Z" fill="#62A111"/>
<path d="M38.3832 25.5064C38.6387 25.761 38.9538 25.8883 39.3286 25.8883H50.877C51.2687 25.8883 51.5839 25.778 51.8223 25.5573C52.0608 25.3196 52.18 25.014 52.18 24.6406C52.18 24.284 52.0608 23.9954 51.8223 23.7747C51.5839 23.554 51.2687 23.4437 50.877 23.4437H40.6572V17.0774H50.0395C50.4313 17.0774 50.7464 16.967 50.9849 16.7463C51.2233 16.5087 51.3426 16.2116 51.3426 15.855C51.3426 15.4985 51.2233 15.2099 50.9849 14.9892C50.7464 14.7516 50.4313 14.6327 50.0395 14.6327H40.6572V8.44466H50.877C51.2687 8.44466 51.5839 8.33431 51.8223 8.11361C52.0608 7.89292 52.18 7.60431 52.18 7.2478C52.18 6.87431 52.0608 6.57721 51.8223 6.35651C51.5839 6.11884 51.2687 6 50.877 6H39.3286C38.9538 6 38.6387 6.12733 38.3832 6.38198C38.1277 6.61965 38 6.93372 38 7.32419V24.5642C38 24.9376 38.1277 25.2517 38.3832 25.5064Z" fill="#62A111"/>
<path d="M57.5795 25.0735C58.6526 25.6846 59.8704 25.9902 61.2331 25.9902C63.0727 25.9902 64.6056 25.4215 65.832 24.284C66.0705 24.0464 66.1727 23.7832 66.1386 23.4946C66.1045 23.189 65.9427 22.9174 65.6532 22.6797C65.4317 22.493 65.1762 22.4166 64.8867 22.4505C64.5971 22.4675 64.3161 22.5864 64.0435 22.8071C63.6688 23.1126 63.2515 23.3418 62.7916 23.4946C62.3487 23.6304 61.8292 23.6983 61.2331 23.6983C60.3303 23.6983 59.5383 23.4946 58.857 23.0872C58.1756 22.6627 57.6391 22.094 57.2473 21.381C56.8726 20.668 56.6853 19.8531 56.6853 18.9363C56.6853 17.9687 56.8726 17.1283 57.2473 16.4153C57.6221 15.7023 58.1416 15.1505 58.8059 14.76C59.4702 14.3526 60.2366 14.1489 61.1053 14.1489C62.3487 14.1489 63.3878 14.5903 64.2224 15.4731C64.4608 15.7107 64.7249 15.8635 65.0144 15.9314C65.304 15.9824 65.568 15.923 65.8064 15.7532C66.113 15.5325 66.3004 15.2778 66.3685 14.9892C66.4367 14.7006 66.3515 14.4205 66.1131 14.1489C65.4488 13.3849 64.6993 12.8162 63.8647 12.4427C63.0301 12.0522 62.1103 11.857 61.1053 11.857C59.7597 11.857 58.5674 12.1626 57.5284 12.7738C56.4894 13.3679 55.6718 14.1998 55.0756 15.2693C54.4795 16.3389 54.1814 17.5612 54.1814 18.9363C54.1814 20.2775 54.4795 21.4829 55.0756 22.5524C55.6888 23.605 56.5234 24.4453 57.5795 25.0735Z" fill="#62A111"/>
<path fill-rule="evenodd" clip-rule="evenodd" d="M75.6686 25.9902C74.2889 25.9902 73.0711 25.6931 72.015 25.0989C70.959 24.4878 70.1243 23.6559 69.5111 22.6033C68.915 21.5338 68.6169 20.3115 68.6169 18.9363C68.6169 17.5442 68.915 16.3219 69.5111 15.2693C70.1243 14.1998 70.959 13.3679 72.015 12.7738C73.0711 12.1626 74.2889 11.857 75.6686 11.857C77.0312 11.857 78.2406 12.1626 79.2966 12.7738C80.3527 13.3679 81.1788 14.1998 81.7749 15.2693C82.3881 16.3219 82.6947 17.5442 82.6947 18.9363C82.6947 20.3115 82.3966 21.5338 81.8005 22.6033C81.2043 23.6559 80.3782 24.4878 79.3222 25.0989C78.2661 25.6931 77.0483 25.9902 75.6686 25.9902ZM75.6686 23.6983C76.5543 23.6983 77.3378 23.4946 78.0191 23.0872C78.7005 22.6797 79.2285 22.1195 79.6032 21.4065C79.995 20.6934 80.1909 19.8701 80.1909 18.9363C80.1909 18.0026 79.995 17.1792 79.6032 16.4662C79.2285 15.7362 78.7005 15.1675 78.0191 14.76C77.3378 14.3526 76.5543 14.1489 75.6686 14.1489C74.7829 14.1489 73.9994 14.3526 73.318 14.76C72.6367 15.1675 72.1002 15.7362 71.7084 16.4662C71.3166 17.1792 71.1208 18.0026 71.1208 18.9363C71.1208 19.8701 71.3166 20.6934 71.7084 21.4065C72.1002 22.1195 72.6367 22.6797 73.318 23.0872C73.9994 23.4946 74.7829 23.6983 75.6686 23.6983Z" fill="#62A111"/>
<path fill-rule="evenodd" clip-rule="evenodd" d="M86.598 25.5064C86.8535 25.761 87.1686 25.8883 87.5434 25.8883H92.1679C93.6327 25.8883 94.9613 25.6507 96.1536 25.1753C97.3629 24.683 98.4105 23.9954 99.2962 23.1126C100.182 22.2129 100.863 21.1603 101.34 19.9549C101.817 18.7326 102.056 17.3914 102.056 15.9314C102.056 14.4714 101.817 13.1388 101.34 11.9334C100.863 10.728 100.182 9.68397 99.2962 8.80118C98.4105 7.9014 97.3629 7.21384 96.1536 6.73849C94.9613 6.24616 93.6327 6 92.1679 6H87.5434C87.1686 6 86.8535 6.12733 86.598 6.38198C86.3426 6.61965 86.2148 6.93372 86.2148 7.32419V24.5642C86.2148 24.9376 86.3426 25.2517 86.598 25.5064ZM92.1679 23.5455H88.8719V8.3428H92.1679C93.5986 8.3428 94.8591 8.66536 95.9492 9.31048C97.0563 9.9556 97.925 10.8469 98.5552 11.9843C99.1855 13.1218 99.5006 14.4375 99.5006 15.9314C99.5006 17.4084 99.1855 18.7241 98.5552 19.8785C97.925 21.016 97.0563 21.9158 95.9492 22.5779C94.8591 23.223 93.5986 23.5455 92.1679 23.5455Z" fill="#62A111"/>
<path fill-rule="evenodd" clip-rule="evenodd" d="M110.669 25.9902C109.425 25.9902 108.309 25.6846 107.322 25.0735C106.334 24.4453 105.55 23.605 104.971 22.5524C104.409 21.4829 104.128 20.2775 104.128 18.9363C104.128 17.5952 104.434 16.3898 105.048 15.3203C105.678 14.2507 106.521 13.4104 107.577 12.7992C108.65 12.1711 109.851 11.857 111.18 11.857C112.508 11.857 113.7 12.1711 114.757 12.7992C115.813 13.4104 116.647 14.2507 117.26 15.3203C117.891 16.3898 118.206 17.5952 118.206 18.9363V24.6151C118.206 24.9886 118.078 25.3026 117.822 25.5573C117.584 25.795 117.277 25.9138 116.903 25.9138C116.528 25.9138 116.213 25.795 115.957 25.5573C115.719 25.3026 115.6 24.9886 115.6 24.6151V23.6701C115.153 24.2185 114.624 24.6863 114.016 25.0735C113.028 25.6846 111.912 25.9902 110.669 25.9902ZM111.18 23.6983C112.048 23.6983 112.823 23.4946 113.505 23.0872C114.186 22.6627 114.722 22.094 115.114 21.381C115.506 20.651 115.702 19.8361 115.702 18.9363C115.702 18.0196 115.506 17.2047 115.114 16.4917C114.722 15.7617 114.186 15.1929 113.505 14.7855C112.823 14.3611 112.048 14.1489 111.18 14.1489C110.328 14.1489 109.553 14.3611 108.855 14.7855C108.173 15.1929 107.628 15.7617 107.219 16.4917C106.828 17.2047 106.632 18.0196 106.632 18.9363C106.632 19.8361 106.828 20.651 107.219 21.381C107.628 22.094 108.173 22.6627 108.855 23.0872C109.553 23.4946 110.328 23.6983 111.18 23.6983Z" fill="#62A111"/>
<path d="M123.415 31.8472C123.653 31.9491 123.858 32 124.028 32C124.488 32 124.82 31.7369 125.025 31.2106L132.843 13.6905C133.183 12.9435 132.971 12.4087 132.204 12.0862C131.472 11.7806 130.935 11.9843 130.594 12.6974L126.488 21.9427L121.805 12.6719C121.652 12.3493 121.431 12.1371 121.141 12.0353C120.852 11.9164 120.545 11.9249 120.221 12.0607C119.898 12.1965 119.668 12.4172 119.531 12.7228C119.412 13.0114 119.438 13.317 119.608 13.6396L125.349 24.5083L122.802 30.2429C122.461 30.9729 122.666 31.5077 123.415 31.8472Z" fill="#62A111"/>
</svg>
