<svg xmlns="http://www.w3.org/2000/svg" viewBox="0 0 311.25 346.21"><defs><style>.cls-1{fill:#fff}</style></defs><title>logorus_white</title><g id="Слой_2" data-name="Слой 2"><g id="Слой_1-2" data-name="Слой 1"><g id="Слой_2-2" data-name="Слой 2"><path class="cls-1" d="M64 256.93v-87.25c-41 11-44.25 45.5-44.25 45.5v42.5H0l8 13.25h12.5v23.5h13v-24h17.75v24H64v-24h5v-13.5zm-14 .25H34.5v-40.25a36.54 36.54 0 0 1 15.5-24.5zm199.5-.25v-87.25c-41 11-44.25 45.5-44.25 45.5v42.5H185.5l8 13.25H206v23.5h13v-24h17.75v24h12.75v-24h5v-13.5zm-14 .25H220v-40.25a36.54 36.54 0 0 1 15.5-24.5zm-110.25-87.5v124.75H112.5v-104s-15.25 10.75-17.75 27.25v76.75h-13v-81s4.5-34.25 43.5-43.75zm12.5 4.25H182v13.5h-15.5v105.5H153v-105.5h-15.25v-13.5zm173.5 0v119H296.5v-41.25L266 299.93v-126h15.75v76.25l14.75-25.37v-50.88h14.75zM282 154.68h14.25v13.25H282zM23.5 340.53v-24.12h15.85v2.76h-13v21.36zM52.75 316c8.44 0 12.61 6.24 12.61 12.47S61.19 341 52.75 341s-12.61-6.24-12.61-12.47S44.31 316 52.75 316zm0 2.76c-6.55 0-9.68 4.75-9.68 9.72s3.13 9.72 9.68 9.72 9.68-4.75 9.68-9.72-3.13-9.73-9.68-9.73zM81.14 316a14.61 14.61 0 0 1 6.79 1.62v2.89a11.51 11.51 0 0 0-6.31-1.76c-5 0-10.2 3-10.23 9.89 0 6.44 5.34 9.54 10.34 9.54a11 11 0 0 0 6.37-1.76v2.89a15.28 15.28 0 0 1-7 1.62c-6.06 0-12.68-4.27-12.64-12.3.04-8.36 6.41-12.63 12.68-12.63zm28.77.41v2.76h-8.48v21.36h-2.89v-21.36h-8.47v-2.76zm19.92 0v2.76h-13.37V327h12.34v2.76h-12.34v8H130v2.76h-16.43v-24.1zm14.92 0c4.93 0 8.2 2 8.2 6.1a5.33 5.33 0 0 1-3.86 5.34 6.07 6.07 0 0 1 4.82 6.06c0 5.48-5.37 6.62-8.89 6.62h-10.16v-24.12zm-.24 2.76h-6.75v7.51h7.54c2.52 0 4.72-1 4.72-3.76s-2.1-3.75-5.51-3.75zm.72 10.27h-7.48v8.34h6.68c3 0 6.55-.21 6.55-4.17 0-3.76-3.44-4.18-5.75-4.18zM169.7 316c8.44 0 12.61 6.24 12.61 12.47S178.14 341 169.7 341s-12.61-6.24-12.61-12.47S161.26 316 169.7 316zm0 2.76c-6.55 0-9.68 4.75-9.68 9.72s3.13 9.72 9.68 9.72 9.68-4.75 9.68-9.72-3.14-9.73-9.68-9.73zm34.52 21.77v-19.3l-14.5 19.29H187v-24.11h2.89v19.26l14.51-19.26h2.69v24.12zm-2.34-27.91v-2.69a8.43 8.43 0 0 1-9.65 0v2.69a8.76 8.76 0 0 0 9.65 0zm17.64 33.59v-8.44h2.93c3.1-5.62 3.93-14 3.93-21.36h14.82v21.36h3v8.44h-2.76v-5.69h-19.16v5.69zm6.17-8.44h12.61v-18.6h-9c-.3 6.51-1.2 13.83-3.61 18.6zM259.08 316c8.44 0 12.61 6.24 12.61 12.47S267.52 341 259.08 341s-12.61-6.24-12.61-12.47S250.64 316 259.08 316zm0 2.76c-6.55 0-9.68 4.75-9.68 9.72s3.13 9.72 9.68 9.72 9.68-4.75 9.68-9.72-3.13-9.73-9.68-9.73zm42.21-2.35v24.12h-2.89v-18.64l-8.65 13H288l-8.65-13v18.64h-2.89v-24.12h2.48l10 14.88 10-14.88zM151.68 75.44c0-2.29.05-4.59 0-6.88-.06-1.74-.21-1.83-1.89-1.46a7.58 7.58 0 0 1-8.58-3.42c-1-1.52-.74-2.21 1-2.67a15.16 15.16 0 0 0 6.1-2.71 9.08 9.08 0 0 0 3.1-6.09 2 2 0 0 0-.86-2.06c-.67-.44-1.22.17-1.72.52-3.35 2.35-7.21 3-11.13 3.57s-8.06.47-12 1.6a14.52 14.52 0 0 0-6.25 3.3c-3.13 3-3.72 6.62-2.61 10.6a6.38 6.38 0 0 0 5.56 4.07 5.87 5.87 0 0 0 5.26-4.14 3.76 3.76 0 0 0-1.4-4.15c-.43-.34-.91-.62-1.32-1a.74.74 0 0 1 .15-1.31c2.74-1.38 6-1.84 8.9.87a6.42 6.42 0 0 1 1.22 8.24c-.49.88-1 1.74-1.58 2.58s-.26 1.17.54 1.17c4.86 0 7.56 3.08 9.53 7a9.8 9.8 0 0 1 .12 8.91c-2.62 5.51-7.26 8-13.19 8.43A32.16 32.16 0 0 1 114 96.67 108.46 108.46 0 0 0 101.59 91c-4.49-1.56-10.33-1.07-13 3.67a8.74 8.74 0 0 0-.7 6.92c.61 2.23 3.16 3.52 5.74 3.26 2.74-.28 4.45-1.77 4.86-4.25a10.59 10.59 0 0 1 .18-1.08c.24-.87.77-1.05 1.56-.64 1.52.79 2.06 2.26 2.62 3.73 1.17 3.12.84 5.93-1.65 8.33-.79.76-.43 1.3.41 1.63a7.08 7.08 0 0 0 1.6.38c6.76.94 11.17 4.89 13.94 10.92.16.35.45.77.1 1.15s-.7.07-1-.09c-4-2.2-8.45-2.87-12.82-3.89-6.43-1.5-12.66-3.54-17.18-8.8a41.06 41.06 0 0 1-6.5-11.42c-.64-1.55-.72-1.6-2.16-.82a6.89 6.89 0 0 1-8.5-1c-1-.92-1-1.67.21-2 3.21-1 5.65-3.18 8.08-5.33a39 39 0 0 0 3.78-3.8C84 84.46 87.85 83 92.05 82.3h.14c3.33-.5 3.2-.47 2.51-3.72a10.45 10.45 0 0 1 1.8-8.75c.74-1 1.22-.7 1.68.19a15.73 15.73 0 0 1 1 2.11c1.89 5.64 5.89 9.63 10.35 13.22A31.63 31.63 0 0 0 124 92c2.54.45 5.09 1 7.74.27 2.23-.57 4-1.85 4.16-3.6a5.27 5.27 0 0 0-3.47-5.63c-2.51-.86-5.14-.86-7.74-1.08-8.66-.74-12.88-5.45-14.87-12.64a15.87 15.87 0 0 1 4.05-16 18.25 18.25 0 0 1 9.56-5.6 78 78 0 0 1 12.22-1.55c.41 0 .91 0 1.11-.41s-.23-.84-.54-1.15a10.66 10.66 0 0 1-2.22-3.07c-1.56-3.45-.48-6.32 2.1-8.5a8.62 8.62 0 0 1 5.9-2.28c1.92.07 2.17.38 1.34 2.09a8.23 8.23 0 0 0-.92 4.77c.42 3.24 5 4.61 7.27 2.76a7.75 7.75 0 0 0 2.7-7.4 28.86 28.86 0 0 0-2-7.13 19.5 19.5 0 0 1 1-17.35c1.39-2.63 3.22-5 4.4-7.75.43-1 1.15-1 1.84 0 1.06 1.6 2.08 3.24 3 4.92a45.52 45.52 0 0 1 3.16 6.54c1.71 4.75 1.11 9.33-.71 13.81a29.54 29.54 0 0 0-2 7.27 8.23 8.23 0 0 0 1.66 6 4.63 4.63 0 0 0 5.64 1.6 4.53 4.53 0 0 0 2.75-5.25 10.75 10.75 0 0 0-1.08-3.1c-.61-1.26-.34-1.69 1-1.75 4.23-.2 8.25 2.66 9 6.52.54 2.65-.56 4.82-2.19 6.81-.42.51-1.32.92-1 1.64s1.28.45 2 .49c5.45.32 10.93.68 15.85 3.28 5.08 2.69 8.56 6.86 9.39 12.66 1.36 9.5-4 18-13 19.58a44.58 44.58 0 0 1-5.61.5 17.45 17.45 0 0 0-4.44.86c-3.1 1-4.48 5.19-2.5 7.48a3.58 3.58 0 0 0 1.78 1.24c2.2.52 4.32 1.23 6.72.78a41.81 41.81 0 0 0 10-3 34.07 34.07 0 0 0 16.2-14.88 48.11 48.11 0 0 0 2-4.49c.59-1.36 1.14-1.39 2-.17a10.65 10.65 0 0 1 1.39 9.32c-.1.35-.21.7-.31 1.06-.26 1 .07 1.48 1.1 1.6 1.73.2 3.42.63 5.12 1a13.79 13.79 0 0 1 7.15 4.11c2.76 2.74 5.37 5.66 8.65 7.84a13.21 13.21 0 0 0 3.9 2c.47.12 1.06.25 1.16.84s-.42.78-.76 1.06c-3.07 2.61-5.34 2.88-8.89 1-1.17-.63-1.52 0-1.89.89a42.46 42.46 0 0 1-5.94 10.8 21.49 21.49 0 0 1-6.46 5.46c-4.84 2.71-10.15 3.85-15.49 5-2.95.64-5.93 1.25-8.55 2.91-.3.19-.67.39-1 .09s-.15-.69 0-1c2.68-5.95 7-9.89 13.6-10.94a4.61 4.61 0 0 0 .82-.11c2-.36 2.31-1 1-2.54-3-3.42-1.49-7.7.36-10.55a2.63 2.63 0 0 1 .72-.63c1.26-.89 2-.64 2.11.9.22 2.7 2 3.92 4.24 4.62s6-1 6.56-3.27a8.57 8.57 0 0 0-.61-6.43 9.07 9.07 0 0 0-8-4.72c-3.88-.21-7.14 1.41-10.46 2.94-4.69 2.17-9.18 4.82-14.22 6.17-5.24 1.4-10.53 1.71-15.65-.43-4.65-1.95-8.89-6.9-7.95-13.13.63-4.2 4.68-9.4 9.67-9.83 1.44-.12 1.65-.62.91-1.85a13.17 13.17 0 0 1-1.88-3.49 6.56 6.56 0 0 1 3-7.47 7.38 7.38 0 0 1 7.81 0c.61.42.66.83.16 1.33a6.5 6.5 0 0 1-.77.58c-2.16 1.55-2.65 3.37-1.55 5.73a5.39 5.39 0 0 0 5.48 2.78c4.19-.61 5.91-5.09 5.39-8.16a11.57 11.57 0 0 0-9.37-9.68c-4.63-1-9.36-1.13-14-1.86a20.6 20.6 0 0 1-9-3.2c-.54-.38-1.14-1-1.84-.46a2.33 2.33 0 0 0-.79 2.22c.4 4 2.85 6.28 6.38 7.66a21 21 0 0 0 2.89.89c1.61.37 1.94 1.08 1 2.48-2 3.17-4.66 4.29-8.48 3.62-2-.35-2.11-.32-2.12 1.64a124.87 124.87 0 0 0 .56 16.33 63.64 63.64 0 0 0 2.3 12.39c2.51 7.59 8 11.43 15.62 12.63a42.86 42.86 0 0 0 16.76-.9c.44-.11.85-.35 1.3-.44.63-.13 1.4-.8 1.87 0s-.36 1.14-.79 1.58a33.25 33.25 0 0 1-2.64 2.61c-3.17 2.65-6.34 5.33-10.59 6.07-3.06.53-6-.11-9-.85a42.73 42.73 0 0 1-8.75-3.23 18.14 18.14 0 0 1-4.33-2.88c-.43-.4-.9-1.09-1.64-.67s-.71 1.2-.61 2a14.23 14.23 0 0 0 5.24 9.37 30.19 30.19 0 0 0 12.6 6.16c.53.13 1.23.17 1.35.77s-.55.77-1 1a20.26 20.26 0 0 1-11.82 1.56 10.63 10.63 0 0 1-2.57-.93c-1.53-.73-1.85-.62-1.94 1.1a20.67 20.67 0 0 1-1.76 7.59 20 20 0 0 1-3.94 5.76 1.63 1.63 0 0 1-2.7 0 19.7 19.7 0 0 1-5.52-11.43c-.09-.73-.12-1.46-.21-2.19-.17-1.37-.47-1.56-1.64-1-3.71 1.89-7.53 1.64-11.39.64a30.11 30.11 0 0 1-3.24-1.13c-.45-.17-1.09-.36-1-.95s.71-.66 1.2-.75a28.83 28.83 0 0 0 10.44-4.62c3.63-2.35 6.31-5.42 7.33-9.74a6.33 6.33 0 0 0 .26-2.31c-.16-1.16-.94-1.5-1.82-.74-5.07 4.43-11.27 6.17-17.67 7.34a14 14 0 0 1-10-2 36.44 36.44 0 0 1-7.82-6.46c-.5-.54-1.47-1.1-1-1.88s1.34 0 2 .16c7.71 2.09 15.42 2.72 23.09-.13a16.34 16.34 0 0 0 9.74-9.5 46.82 46.82 0 0 0 2.84-13 89.91 89.91 0 0 0 .73-10.77z" id="Слой_1-2-2" data-name="Слой 1-2"/></g></g></g></svg>