<svg xmlns="http://www.w3.org/2000/svg" xmlns:xlink="http://www.w3.org/1999/xlink" viewBox="0 0 193.06 219.7"><defs><style>.cls-1{fill-rule:evenodd;fill:url(#Безымянный_градиент);}</style><linearGradient id="Безымянный_градиент" x1="152.4" y1="124.9" x2="-37.99" y2="-32.29" gradientTransform="matrix(1, 0, 0, -1, 0, 221.7)" gradientUnits="userSpaceOnUse"><stop offset="0" stop-color="#562583"/><stop offset="1" stop-color="#a63a8d"/></linearGradient></defs><g id="Слой_2" data-name="Слой 2"><g id="Слой_1-2" data-name="Слой 1"><path class="cls-1" d="M22.7,158.6l18.2-48.5L81.3.6,112.9,0l42.6,114.9c-28.3,0-35.9-12.7-41.4-27L97.2,42.3l-32.3,87c-1.6,4.3,0,6.3,6.5,6.3h86c6.3,0,5.9.5,7.4,4.4l27.8,74.8c1.1,2.9.4,4.9-4,4.9H0c6.3-16,21.2-31.5,43.9-31.5H145.7c4.1,0,5.4-.4,4.1-4.1l-5.9-15.9c-1.6-4.3-2.3-5.1-7.6-5.1H26C23.2,163.2,21.3,162.3,22.7,158.6Z"/></g></g></svg>