<?xml version="1.0" encoding="utf-8"?>
<!-- Generator: Adobe Illustrator 21.1.0, SVG Export Plug-In . SVG Version: 6.00 Build 0)  -->
<svg version="1.1" id="Слой_1" xmlns="http://www.w3.org/2000/svg" xmlns:xlink="http://www.w3.org/1999/xlink" x="0px" y="0px"
	 viewBox="0 0 500 226" style="enable-background:new 0 0 500 226;" xml:space="preserve">
<style type="text/css">
	.st0{fill-rule:evenodd;clip-rule:evenodd;fill:#0A2849;}
	.st1{fill-rule:evenodd;clip-rule:evenodd;fill:url(#SVGID_1_);}
</style>
<g>
	<g>
		<path class="st0" d="M286.1,102.8h14.7l-24.3-58h-12.8l-24.5,58H254l3.8-9.6h24.5L286.1,102.8L286.1,102.8z M262.3,81.8l7.8-19.9
			l7.8,19.9H262.3z"/>
		<rect x="306.7" y="44.8" class="st0" width="13.8" height="58"/>
		<polygon class="st0" points="348.7,91.5 377.3,53.3 377.3,44.8 330.2,44.8 330.2,56.2 358.3,56.2 329.8,94.3 329.8,102.8 
			378.1,102.8 378.1,91.5 		"/>
		<polygon class="st0" points="401,91.5 401,79.2 425.8,79.2 425.8,67.8 401,67.8 401,56.2 428.5,56.2 428.5,44.8 387.2,44.8 
			387.2,102.8 429.2,102.8 429.2,91.5 		"/>
		<polygon class="st0" points="439.3,102.8 453.1,102.8 452.8,68 487.3,102.8 495.8,102.8 495.8,44.8 482,44.8 482.3,79.6 
			447.8,44.8 439.3,44.8 		"/>
	</g>
	<linearGradient id="SVGID_1_" gradientUnits="userSpaceOnUse" x1="154.9186" y1="98.8216" x2="-35.4649" y2="256.0124">
		<stop  offset="0" style="stop-color:#562583"/>
		<stop  offset="1" style="stop-color:#A63A8D"/>
	</linearGradient>
	<path class="st1" d="M25.2,160.6l18.2-48.5L83.8,2.6L115.4,2L158,116.9c-28.3,0-35.9-12.7-41.4-27L99.7,44.3l-32.3,87
		c-1.6,4.3,0,6.3,6.5,6.3h86c6.3,0,5.9,0.5,7.4,4.4l27.8,74.8c1.1,2.9,0.4,4.9-4,4.9H2.5c6.3-16,21.2-31.5,43.9-31.5l101.8,0
		c4.1,0,5.4-0.4,4.1-4.1l-5.9-15.9c-1.6-4.3-2.3-5.1-7.6-5.1H28.5C25.7,165.2,23.8,164.3,25.2,160.6z"/>
	<g>
		<path class="st0" d="M266,192.4c16.7,0,27.9-8.6,27.9-21.7c0-12.7-11.3-19-22.6-22.1l-3.6-1c-6.6-1.7-11.6-3.4-11.6-7.8
			c0-3.6,4-5.9,10.2-5.9c6.4,0,11.8,1.9,17.1,5.9l7.3-11.6c-7.4-5.6-16-8.1-24.6-8.1c-16.3,0-27.2,9-27.2,22.4
			c0,11.8,8.8,16.9,21.3,20.2l3.6,1c7.8,2.1,12.9,4,12.9,8.6c0,4.2-4.1,6.3-11.7,6.3c-6.1,0-12.6-1.7-18.9-6.6l-6.3,11.2
			C246.7,189.2,255.9,192.4,266,192.4z"/>
		<path class="st0" d="M339.4,192.4c22.5,0,37.7-14.4,37.7-36.1c0-21.7-15.2-36.1-37.7-36.1c-22.8,0-38,14.4-38,36.1
			C301.3,177.9,316.5,192.4,339.4,192.4L339.4,192.4z M339.4,178.6c-12.5,0-20.7-8.9-20.7-22.3s8.3-22.3,20.7-22.3
			c12.3,0,20.5,8.9,20.5,22.3S351.6,178.6,339.4,178.6z"/>
		<polygon class="st0" points="435.3,134.9 435.3,121.1 388.4,121.1 388.4,191.4 405.1,191.4 405.1,164.6 430.4,164.6 430.4,150.8 
			405.1,150.8 405.1,134.9 		"/>
		<polygon class="st0" points="498.2,121.1 439.8,121.1 439.8,134.9 460.6,134.9 460.6,191.4 477.4,191.4 477.4,134.9 498.2,134.9 
					"/>
	</g>
</g>
</svg>
