<svg id="Group_1" data-name="Group 1" xmlns="http://www.w3.org/2000/svg" width="162.572" height="37.154" viewBox="0 0 162.572 37.154">
  <path id="Path_1" data-name="Path 1" d="M182.324,217.44h6.7v-7.214h6.7v7.214h8.245v6.7h-8.245v8.244a4.927,4.927,0,0,0,4.9,4.895v6.7a11.611,11.611,0,0,1-11.593-11.594v-8.244h-6.7Z" transform="translate(-127.387 -207.134)" fill="#000"/>
  <path id="Path_2" data-name="Path 2" d="M255.222,243.773a7,7,0,0,0,11.027,1.6l4.741,4.741a13.663,13.663,0,0,1-23.29-9.687c0-7.523,5.668-13.655,12.727-13.655,8.6,0,12.778,5.359,12.778,12.006a11.646,11.646,0,0,1-1.134,5Zm-.1-6.7H266.2c-.567-2.113-2.009-3.607-5.771-3.607A5.931,5.931,0,0,0,255.118,237.074Z" transform="translate(-167.309 -217.237)" fill="#000"/>
  <path id="Path_3" data-name="Path 3" d="M337.977,247.38a6.932,6.932,0,0,0,4.9-2.009l4.741,4.741a13.681,13.681,0,1,1,0-19.323l-4.741,4.741a6.768,6.768,0,0,0-4.9-2.061,6.956,6.956,0,0,0,0,13.912Z" transform="translate(-214.1 -217.237)" fill="#000"/>
  <path id="Path_4" data-name="Path 4" d="M405.924,212.9a11.934,11.934,0,0,1,4.894-1.082,11.612,11.612,0,0,1,11.594,11.594v14.943h-6.7V223.411a4.9,4.9,0,0,0-9.789-.206v15.149h-6.7V202.285h6.7Z" transform="translate(-259.841 -202.285)" fill="#000"/>
  <circle id="Ellipse_1" data-name="Ellipse 1" cx="4.385" cy="4.385" r="4.385" transform="translate(41.297 28.385)" fill="#000"/>
  <path id="Path_5" data-name="Path 5" d="M74.94,228.745,70.177,243.6l-4.862-14.852H58.1l-4.777,14.914-4.883-14.914H41.218s4.767,14.633,6.6,20.27a8.9,8.9,0,0,0,8.949,6.267c.466-1.372,4.936-15.339,4.936-15.339s2.087,6.344,2.959,9.071a9.01,9.01,0,0,0,2.551,4.051v0a9.424,9.424,0,0,0,6.4,2.218l8.545-26.537Z" transform="translate(-41.218 -218.443)" fill="#000"/>
</svg>
