<?xml version="1.0" encoding="utf-8"?>
<!-- Generator: Adobe Illustrator 23.0.3, SVG Export Plug-In . SVG Version: 6.00 Build 0)  -->
<svg version="1.1" id="Слой_1" xmlns="http://www.w3.org/2000/svg" xmlns:xlink="http://www.w3.org/1999/xlink" x="0px" y="0px"
	 viewBox="0 0 500 243.3" style="enable-background:new 0 0 500 243.3;" xml:space="preserve">
<style type="text/css">
	.st0{fill-rule:evenodd;clip-rule:evenodd;fill:#F7A300;}
</style>
<g>
	<path class="st0" d="M259.9,66.6c-0.7,0-1.4,0.5-1.6,1.1c-0.1,0.2-0.1,0.4-0.1,0.6v3.9v19.1v33.2v39.3V175c0,0.9,0.7,1.7,1.7,1.7
		h30.2c0.9,0,1.7-0.8,1.7-1.7v-66.4c0-21.7,12.4-28.9,23.2-28.9c10.8,0,23.2,7,23.2,28.9V175c0,0.9,0.7,1.7,1.7,1.7h30.2
		c0.9,0,1.7-0.8,1.7-1.7v-51.9c0-34.9-25.6-56.5-57.3-56.5C296.3,66.6,278.1,66.6,259.9,66.6z"/>
	<path class="st0" d="M208.3,134.7c0,21.7-12.4,28.9-23.2,28.9s-23.2-6.9-23.2-28.9V68.3c0-0.9-0.7-1.7-1.7-1.7H130
		c-0.9,0-1.7,0.7-1.7,1.7v50.6c0,27.3,19.5,51.1,45.2,56.8c3.5,0.8,6.6,1.1,10.2,1.1h33.1h19.7h3.7c0.9,0,1.7-0.7,1.7-1.7v-7.7
		v-15.3l0,0v-31.7c0-0.1,0-0.1,0-0.2V68.3c0-0.9-0.7-1.7-1.7-1.7H210c-0.9,0-1.7,0.7-1.7,1.7L208.3,134.7L208.3,134.7z"/>
	<path class="st0" d="M60.9,66.6H1.7c-0.9,0-1.7,0.8-1.7,1.7V175c0,0.9,0.7,1.7,1.7,1.7H61c30.1,0,55-24.8,55-55
		C116,91.4,91.2,66.6,60.9,66.6L60.9,66.6z M46.3,163.3H35.2c-0.9,0-1.7-0.7-1.7-1.7V81.7c0-0.9,0.8-1.7,1.7-1.7h11.1
		c20,0,34.1,18.8,34.1,41.6C80.4,144.5,66.3,163.3,46.3,163.3z"/>
	<path class="st0" d="M439.1,176.7h59.3c0.9,0,1.7-0.8,1.7-1.7V68.3c0-0.9-0.7-1.7-1.7-1.7h-59.3c-30.1,0-55,24.8-55,55
		C384,151.8,408.8,176.7,439.1,176.7L439.1,176.7z M453.7,80h11.1c0.9,0,1.7,0.7,1.7,1.7v79.9c0,0.9-0.8,1.7-1.7,1.7h-11.1
		c-20,0-34.1-18.8-34.1-41.6C419.6,98.8,433.7,80,453.7,80z"/>
</g>
</svg>
