<?xml version="1.0" encoding="utf-8"?>
<!-- Generator: Adobe Illustrator 23.0.3, SVG Export Plug-In . SVG Version: 6.00 Build 0)  -->
<svg version="1.1" id="Layer_1" xmlns="http://www.w3.org/2000/svg" xmlns:xlink="http://www.w3.org/1999/xlink" x="0px" y="0px"
	 viewBox="0 0 66.3 43.5" style="enable-background:new 0 0 66.3 43.5;" xml:space="preserve">
<style type="text/css">
	.st0{fill:#005797;}
	.st1{fill:#10CB3D;}
</style>
<path class="st0" d="M24.6,21.7c0.1,0,0.3,0.1,0.4,0.2s0.2,0.2,0.2,0.4V27c0,0.1-0.1,0.3-0.2,0.4c-0.1,0.1-0.2,0.2-0.4,0.2
	c-0.3,0-0.4-0.1-0.5-0.4c-0.4,0.3-0.8,0.4-1.3,0.4c-0.6,0-1.2-0.2-1.7-0.7s-0.7-1-0.7-1.7v-1.1c0-0.6,0.2-1.2,0.7-1.7s1-0.7,1.7-0.7
	c0.5,0,0.9,0.1,1.3,0.4C24.1,21.9,24.3,21.7,24.6,21.7z M24.1,24.1c0-0.4-0.1-0.7-0.4-0.9c-0.3-0.3-0.6-0.4-0.9-0.4
	c-0.4,0-0.7,0.1-0.9,0.4c-0.3,0.3-0.4,0.6-0.4,0.9v1.1c0,0.4,0.1,0.7,0.4,0.9c0.3,0.3,0.6,0.4,0.9,0.4c0.4,0,0.7-0.1,0.9-0.4
	c0.3-0.3,0.4-0.6,0.4-0.9V24.1z M32.2,21.7c0.6,0,1.2,0.2,1.7,0.7s0.7,1,0.7,1.7V27c0,0.1-0.1,0.3-0.2,0.4c-0.1,0.1-0.2,0.2-0.4,0.2
	c-0.1,0-0.3-0.1-0.4-0.2c-0.1-0.1-0.2-0.2-0.2-0.4v-2.9c0-0.4-0.1-0.7-0.4-0.9c-0.3-0.3-0.6-0.4-0.9-0.4c-0.4,0-0.7,0.1-0.9,0.4
	c-0.3,0.3-0.4,0.6-0.4,0.9V27c0,0.1-0.1,0.3-0.2,0.4s-0.2,0.2-0.4,0.2c-0.1,0-0.3-0.1-0.4-0.2s-0.2-0.2-0.2-0.4v-2.9
	c0-0.4-0.1-0.7-0.4-0.9c-0.3-0.3-0.6-0.4-0.9-0.4c-0.4,0-0.7,0.1-0.9,0.4c-0.3,0.3-0.4,0.6-0.4,0.9V27c0,0.2-0.1,0.3-0.2,0.4
	c-0.1,0.1-0.2,0.2-0.4,0.1c-0.1,0-0.3-0.1-0.4-0.2c-0.1-0.1-0.1-0.2-0.1-0.4v-4.6c0-0.2,0.1-0.3,0.2-0.4c0.1-0.1,0.3-0.1,0.4-0.1
	c0.2,0,0.3,0.2,0.4,0.3c0.4-0.3,0.8-0.4,1.3-0.4c0.7,0,1.3,0.3,1.8,0.9C30.8,22,31.4,21.7,32.2,21.7z M36,29.7
	c-0.1,0-0.3-0.1-0.4-0.2c-0.1-0.1-0.2-0.2-0.2-0.4v-6.9c0-0.1,0.1-0.3,0.2-0.4c0.1-0.1,0.2-0.2,0.4-0.2c0.3,0,0.4,0.1,0.5,0.4
	c0.4-0.3,0.8-0.4,1.3-0.4c0.6,0,1.2,0.2,1.7,0.7s0.7,1,0.7,1.7v1.1c0,0.6-0.2,1.2-0.7,1.7s-1,0.7-1.7,0.7c-0.5,0-0.9-0.1-1.3-0.4
	v2.1c0,0.1-0.1,0.3-0.2,0.4C36.2,29.7,36.1,29.7,36,29.7z M36.5,25.2c0,0.4,0.1,0.7,0.4,0.9c0.3,0.3,0.6,0.4,0.9,0.4
	c0.4,0,0.7-0.1,0.9-0.4c0.3-0.3,0.4-0.6,0.4-0.9v-1.1c0-0.4-0.1-0.7-0.4-0.9c-0.3-0.3-0.6-0.4-0.9-0.4c-0.4,0-0.7,0.1-0.9,0.4
	c-0.3,0.3-0.4,0.6-0.4,0.9V25.2z"/>
<path class="st1" d="M17,12.6c-3.3,3.6-5,8.2-4.8,13.1c0.4,9.2,7.6,16.7,16.7,17.4c5,0.4,9.8-1.3,13.5-4.6s5.9-7.9,6-12.9h-4.5
	c-0.2,3.7-1.8,7.1-4.6,9.6c-2.8,2.5-6.3,3.7-10,3.4c-6.7-0.5-12.1-5.9-12.6-12.6c-0.3-3.7,0.9-7.3,3.4-10c2.4-2.8,5.8-4.4,9.5-4.6
	V6.8C24.7,7,20.3,9.1,17,12.6z"/>
<path class="st1" d="M54.5,8.8C42.2,12.5,44.4,21,44.7,22.1L54.5,8.8z M54.6,8.9l-9.7,13.3C55.4,21,54.8,10.3,54.6,8.9z M46.7,1
	c3.4,7.1-1.4,9.6-2,9.9L46.7,1z M46.5,0.9l-2,9.9C40.7,5.7,45.8,1.5,46.5,0.9z M34.6,7.9c8.7,3.6,6.5,9.7,6.2,10.4L34.6,7.9z
	 M34.4,7.9l6.2,10.4C33,16.8,34.2,9,34.4,7.9z M38.8,1c3,2.5,1.3,4.6,1.1,4.9L38.8,1z"/>
<path class="st1" d="M38.8,1l1.1,4.9C37.1,4.3,38.6,1.4,38.8,1z"/>
</svg>
