<svg xmlns="http://www.w3.org/2000/svg" xmlns:xlink="http://www.w3.org/1999/xlink" width="1329" height="540" viewBox="0 0 1329 540" style="margin: 0 auto;">
  <defs>
    <clipPath id="clip-path">
      <rect id="Rectangle_5" data-name="Rectangle 5" width="1329" height="540" transform="translate(0.231 1726)" fill="#f5f5f5"/>
    </clipPath>
  </defs>
  <g id="Mask_Group_3" data-name="Mask Group 3" transform="translate(-0.231 -1726)" clip-path="url(#clip-path)">
    <g id="LogoKaizen2" transform="translate(0 1887.636)">
      <g id="Group_186" data-name="Group 186" transform="translate(441.347 158.013)">
        <path id="Path_463" data-name="Path 463" d="M802.994,394.869l.241-.241c4.021.162,7.883.4,11.744.4s7.721-.241,11.742-.4l.241.241V397.2l-.241.243c-3.057,0-5.47.4-6.194,1.046-.884.8-1.126,1.527-1.126,20.188V426.8c0,18.661.241,19.383,1.126,20.188.724.643,3.137,1.046,6.194,1.046l.241.241v2.333l-.241.241c-4.023-.162-7.883-.4-11.742-.4s-7.723.241-11.744.4l-.241-.241v-2.333l.241-.241c3.057,0,5.47-.4,6.194-1.046.884-.8,1.126-1.527,1.126-20.188v-8.122c0-18.661-.241-19.383-1.126-20.188-.724-.643-3.137-1.046-6.194-1.046l-.241-.243Z" transform="translate(-802.994 -393.582)"/>
        <path id="Path_464" data-name="Path 464" d="M953.323,394.869l.241-.241c3.62.162,7.158.4,10.776.4,2.736,0,5.47-.241,8.2-.4l.241.241V397.2l-.241.243c-3.057,0-5.067.4-6.033,1.607-1.205,1.529-1.287,26.14-1.287,31.772,0,9.491.321,16.568.483,21.072l-.483.4a32.217,32.217,0,0,0-7.158-1.287c-6.031-6.516-25.175-30.162-36.837-45.2h-.162V426.8c0,18.661.241,19.383,1.126,20.188.724.643,3.137,1.046,6.193,1.046l.241.241v2.333l-.241.241c-3.137-.162-6.354-.4-9.491-.4s-6.354.241-9.491.4l-.241-.241v-2.333l.241-.241c3.055,0,5.47-.4,6.193-1.046.884-.8,1.126-1.527,1.126-20.188v-8.122c0-18.661-.241-19.383-1.126-20.188-.724-.643-3.137-1.046-6.193-1.046l-.241-.243v-2.331l.241-.241c2.976.162,5.871.4,8.927.4a42.719,42.719,0,0,0,6.033-.4c2.9,4.907,30.645,38.928,36.676,46.167h.162c0-2.573-.321-11.1-.321-22.118,0-18.661-.241-19.383-1.126-20.188-.724-.643-3.137-1.046-6.192-1.046l-.241-.243v-2.331Z" transform="translate(-835.661 -393.582)"/>
        <path id="Path_465" data-name="Path 465" d="M1078.989,435.826l.241.241a30,30,0,0,0,.241,5.39c.16,1.205,3.941,5.791,12.948,5.791,9.17,0,14.478-4.666,14.478-12.307,0-16.166-31.609-1.93-31.609-23.888,0-11.02,7.963-17.937,21.475-17.937,4.5,0,11.259,1.126,15.2,3.3l.241.563a54.888,54.888,0,0,0-1.369,10.856l-.241.241-2.574-.241-.241-.241c0-4.825,0-5.711-.483-6.272-1.287-1.447-5.229-4.023-11.341-4.023-8.687,0-12.628,4.907-12.628,10.617,0,7.238,3.861,8.525,17.051,10.537,9.329,1.369,14.558,4.746,14.558,13.111,0,8.767-6.837,19.865-24.45,19.865a34.561,34.561,0,0,1-14.961-3.377l-.241-.483a80,80,0,0,0,.886-11.5l.241-.241h2.578Z" transform="translate(-886.775 -393.117)"/>
        <path id="Path_466" data-name="Path 466" d="M1218.2,448.274l.241-.241c3.057,0,5.468-.4,6.193-1.046.884-.8,1.127-1.527,1.127-20.188,0-5.791-.323-14.638-.483-27.587-3.3-.08-5.71-.08-8.284-.08-4.183,0-5.711.162-6.274.884-.561.643-.641,1.287-1.207,7.4l-.321.323H1206.7l-.241-.243c0-5.871,0-9.651-.481-12.626l.24-.241c7.563.241,16.811.4,23.969.4s16.406-.162,23.969-.4l.24.241c-.481,2.977-.481,6.757-.481,12.626l-.241.243h-2.493l-.321-.323c-.565-6.113-.645-6.757-1.207-7.4-.563-.723-2.091-.884-6.274-.884-2.574,0-4.987,0-8.284.08-.161,12.95-.483,21.8-.483,27.587,0,18.661.243,19.383,1.127,20.188.724.643,3.137,1.046,6.193,1.046l.241.241v2.333l-.241.241c-4.023-.162-7.881-.4-11.742-.4s-7.721.241-11.742.4l-.241-.241v-2.333Z" transform="translate(-926.99 -393.582)"/>
        <path id="Path_467" data-name="Path 467" d="M1346.658,394.869l.24-.241c4.023.162,7.883.4,11.744.4s7.721-.241,11.742-.4l.241.241V397.2l-.241.243c-3.057,0-5.47.4-6.194,1.046-.884.8-1.126,1.527-1.126,20.188V426.8c0,18.661.241,19.383,1.126,20.188.724.643,3.139,1.046,6.194,1.046l.241.241v2.333l-.241.241c-4.023-.162-7.883-.4-11.742-.4s-7.723.241-11.744.4l-.24-.241v-2.333l.24-.241c3.059,0,5.472-.4,6.194-1.046.884-.8,1.125-1.527,1.125-20.188v-8.122c0-18.661-.241-19.383-1.125-20.188-.723-.643-3.137-1.046-6.194-1.046l-.24-.243Z" transform="translate(-970.275 -393.582)"/>
        <path id="Path_468" data-name="Path 468" d="M1464.245,448.274l.241-.241c3.057,0,5.47-.4,6.193-1.046.886-.8,1.125-1.527,1.125-20.188,0-5.791-.321-14.638-.481-27.587-3.3-.08-5.711-.08-8.284-.08-4.181,0-5.711.162-6.272.884-.563.643-.645,1.287-1.207,7.4l-.323.323h-2.493l-.241-.243c0-5.871,0-9.651-.483-12.626l.243-.241c7.559.241,16.811.4,23.967.4s16.408-.162,23.968-.4l.243.241c-.481,2.977-.481,6.757-.481,12.626l-.243.243h-2.493l-.323-.323c-.561-6.113-.641-6.757-1.207-7.4-.561-.723-2.091-.884-6.272-.884-2.573,0-4.987,0-8.284.08-.161,12.95-.481,21.8-.481,27.587,0,18.661.24,19.383,1.125,20.188.723.643,3.137,1.046,6.192,1.046l.241.241v2.333l-.241.241c-4.021-.162-7.881-.4-11.742-.4s-7.723.241-11.742.4l-.241-.241v-2.333Z" transform="translate(-1002.694 -393.582)"/>
        <path id="Path_469" data-name="Path 469" d="M1633.549,394.869l.241-.241a83.986,83.986,0,0,0,9.008.4c3.78,0,7.158-.241,9.653-.4l.241.241V397.2l-.241.243c-3.057,0-5.47.4-6.192,1.046-.884.8-1.127,1.527-1.127,20.188v10.856c0,15.041-7.48,22.361-23.564,22.361-12.547,0-22.118-4.584-22.118-18.741V418.677c0-18.661-.243-19.383-1.127-20.188-.723-.643-3.137-1.046-6.193-1.046l-.241-.243v-2.331l.241-.241c4.023.162,7.881.4,11.742.4s7.723-.241,11.742-.4l.241.241V397.2l-.241.243c-3.057,0-5.47.4-6.192,1.046-.884.8-1.127,1.527-1.127,20.188v13.191c0,6.757,3.3,14.237,16.007,14.237,11.9,0,16.811-5.308,16.811-16.087V418.677c0-18.661-.241-19.383-1.127-20.188-.723-.643-3.137-1.046-6.193-1.046l-.241-.243v-2.331Z" transform="translate(-1045.73 -393.582)"/>
        <path id="Path_470" data-name="Path 470" d="M1761.866,448.274l.241-.241c3.057,0,5.47-.4,6.193-1.046.884-.8,1.127-1.527,1.127-20.188,0-5.791-.323-14.638-.483-27.587-3.3-.08-5.711-.08-8.284-.08-4.181,0-5.711.162-6.272.884-.563.643-.644,1.287-1.207,7.4l-.323.323h-2.493l-.241-.243c0-5.871,0-9.651-.483-12.626l.243-.241c7.559.241,16.809.4,23.967.4s16.408-.162,23.967-.4l.243.241c-.483,2.977-.483,6.757-.483,12.626l-.241.243h-2.493l-.323-.323c-.561-6.113-.643-6.757-1.205-7.4-.563-.723-2.093-.884-6.274-.884-2.573,0-4.987,0-8.284.08-.161,12.95-.481,21.8-.481,27.587,0,18.661.241,19.383,1.126,20.188.724.643,3.137,1.046,6.192,1.046l.241.241v2.333l-.241.241c-4.021-.162-7.881-.4-11.742-.4s-7.721.241-11.742.4l-.241-.241v-2.333Z" transform="translate(-1094.27 -393.582)"/>
        <path id="Path_471" data-name="Path 471" d="M1890.319,394.869l.241-.241c4.021.162,7.881.4,11.742.4,14.879,0,25.095-.241,30.322-.4l.481.4c-.4,4.181-.722,8.445-.964,12.387l-.243.241h-2.331l-.241-.241c0-1.608,0-6.675-.724-7.32-.8-.723-7.559-1.287-13.672-1.287-3.3,0-6.193.241-7.8.323-.4,7.077-.4,14-.4,20.91,3.057.082,6.354.162,9.411.162,4.423,0,7.158-.241,7.641-1.126a15.07,15.07,0,0,0,1.046-5.55l.241-.241h2.091l.243.241c0,3.137-.162,6.354-.162,9.571,0,2.173.162,5.388.162,8.2l-.243.241h-2.091l-.241-.241a22.975,22.975,0,0,0-1.125-5.791c-.4-1.046-3.057-1.447-9.893-1.447-2.736,0-4.827.08-7.078.162,0,7.48,0,15.041.162,22.441,4.263,0,20.83,0,22.6-1.046.964-.563,2.091-7.078,2.091-8.286l.241-.241h2.574l.241.241c-.323,3.379-.725,8.689-.886,13.111l-.643.4c-10.7-.323-22.842-.4-32.333-.4a58.506,58.506,0,0,0-6.917.4l-.241-.241v-1.529l.322-.4c2.654-1.205,3.217-1.607,3.378-2.091.241-.723.561-1.608.561-27.909,0-18.661-.241-19.383-1.125-20.188-.724-.643-3.137-1.046-6.192-1.046l-.241-.243v-2.333Z" transform="translate(-1137.555 -393.582)"/>
      </g>
      <path id="Path_472" data-name="Path 472" d="M2047.86,189.984H2058.8v-1.493c-2.051,0-3.046,0-3.046-2.175V168.545c0-2.177,1-2.177,3.419-2.177v-1.491H2051.9l-9.505,18.02-8.637-18.02h-8.264v1.491c2.177,0,3.792,0,3.792,2.984v16.964c0,2.175-.808,2.175-2.858,2.175v1.493h8.078v-1.493c-2.051,0-2.858,0-2.858-2.175v-14.6h.124l8.948,18.269h1.056l9.01-17.647h.124v13.981c0,2.175-1,2.175-3.045,2.175v1.493Zm-42.572,0h10.935v-1.493c-2.049,0-3.045,0-3.045-2.175V166.743h5.344c1.553,0,1.553,1.74,1.553,3.73h1.493V164.88h-21.626v5.592h1.491c0-1.988,0-3.73,1.553-3.73h5.346v19.573c0,2.175-1,2.175-3.045,2.175v1.493Z" transform="translate(-729.939 -164.877)" fill="#103273"/>
      <path id="Path_473" data-name="Path 473" d="M1570.939,169.989l.478.478c6.035,0,10.8.792,12.229,2.063,1.745,1.589,2.223,3.016,2.223,39.855,0,21.755.634,38.586.634,43.669h-.318c-11.909-14.292-66.692-81.459-72.408-91.146a84.238,84.238,0,0,1-11.909.794c-6.033,0-11.751-.476-17.626-.794l-.478.478v4.605l.478.478c6.033,0,10.8.792,12.227,2.063,1.747,1.589,2.223,3.016,2.223,39.855v16.039c0,36.839-.476,38.268-2.223,39.855-1.429,1.271-6.192,2.065-12.227,2.065l-.478.476v4.605l.478.479c6.192-.32,12.543-.8,18.737-.8s12.545.479,18.737.8l.478-.479v-4.605l-.478-.476c-6.033,0-10.8-.794-12.227-2.065-1.745-1.589-2.223-3.016-2.223-39.855V186.979h.318c23.026,29.693,60.817,76.378,72.726,89.239a63.417,63.417,0,0,1,14.134,2.542l.95-.794c-.318-8.891-.95-22.865-.95-41.6,0-11.116.158-59.706,2.541-62.722,1.905-2.383,5.875-3.174,11.909-3.174l.476-.478v-4.605l-.476-.478c-5.4.32-10.8.794-16.2.794-7.146,0-14.132-.476-21.278-.794l-.478.478v4.605Zm-225.956,0,.478.478c6.033,0,10.8.792,12.227,2.063,1.747,1.589,2.223,3.016,2.223,39.855,0,51.924-.634,53.671-1.111,55.1-.318.953-1.429,1.747-6.67,4.129l-.634.794v3.016l.478.479a115.682,115.682,0,0,1,13.654-.8c18.739,0,42.715.16,63.833.8l1.271-.8c.318-8.731,1.113-19.213,1.745-25.881l-.476-.478h-5.081l-.476.478c0,2.381-2.226,15.243-4.129,16.355-3.492,2.065-36.205,2.065-44.62,2.065-.318-14.609-.318-29.535-.318-44.3,4.446-.16,8.573-.318,13.972-.318,13.5,0,18.737.794,19.533,2.858a45.3,45.3,0,0,1,2.223,11.432l.478.478h4.128l.478-.478c0-5.559-.318-11.909-.318-16.2,0-6.352.318-12.7.318-18.9l-.478-.478h-4.128l-.478.478c0,2.541-.634,8.417-2.065,10.958-.953,1.745-6.352,2.223-15.085,2.223-6.033,0-12.543-.16-18.577-.318,0-13.656,0-27.312.794-41.286,3.176-.16,8.891-.634,15.4-.634,12.069,0,25.409,1.111,26.994,2.541,1.429,1.271,1.429,11.275,1.429,14.451l.479.476h4.6l.479-.476c.476-7.781,1.111-16.2,1.9-24.454l-.953-.794c-10.318.32-30.487.794-59.864.794-7.622,0-15.243-.476-23.183-.794l-.478.478v4.6ZM1203.025,275.424l.479.479c12.067-.32,24.452-.8,37-.8,17.468,0,35.411.479,53.2.8l.793-.637c0-7.78,1.112-22.707,1.587-27.152l-.476-.476h-5.557l-.479.476c-1.743,12.069-2.7,15.4-4.763,16.992-1.429,1.111-18.737,2.541-28.583,2.541h-29.535c21.438-32.393,42.4-66.534,66.216-97.178v-5.081l-.478-.478c-13.178.478-26.835.794-40.649.794-14.134,0-28.424-.318-42.871-.794l-1.11.792c.158,3.494.476,7.146.476,10.638,0,4.765-.318,9.686-.476,13.974l.476.478h5.081l.476-.478c0-1.589,1.111-13.338,2.7-14.45,2.541-1.747,12.227-2.7,29.851-2.7,6.51,0,14.926.316,21.754.634-20.96,32.393-42.872,64.467-65.1,96.544ZM1106.8,169.989l.476.478c6.034,0,10.8.792,12.227,2.063,1.747,1.589,2.223,3.016,2.223,39.855v16.039c0,36.839-.476,38.268-2.223,39.855-1.429,1.271-6.191,2.065-12.227,2.065l-.476.476v4.605l.476.479c7.939-.32,15.561-.8,23.183-.8s15.243.479,23.185.8l.478-.479v-4.605l-.478-.476c-6.033,0-10.8-.794-12.227-2.065-1.745-1.589-2.224-3.016-2.224-39.855V212.384c0-36.839.479-38.268,2.224-39.855,1.431-1.271,6.193-2.063,12.227-2.063l.478-.478v-4.605l-.478-.478c-7.941.32-15.563.794-23.185.794s-15.243-.476-23.183-.794l-.476.478Zm-91.62,61.769H979.615l17.786-42.4Zm1.427,43.667.478.479c6.828-.32,14.132-.8,21.436-.8s14.609.479,21.436.8l.478-.479v-4.605l-.478-.476c-7.144-.158-8.575-1.111-10.32-4.128-4.287-7.306-9.052-18.737-43.985-101.308h-6.668c-11.116,26.994-27.472,64.627-41.6,94.8-4.446,9.527-4.921,10.318-14.609,10.638l-.478.476v4.605l.478.479c5.717-.32,12.067-.8,18.26-.8s12.545.479,18.261.8l.476-.479v-4.605l-.476-.476c-8.733-.478-12.863-.636-12.863-4.446,0-2.065.318-4.447,10-26.52h41.92c9.051,22.231,10.64,26.041,10.64,28.424,0,1.589-.32,2.542-11.909,2.542l-.478.476v4.605ZM872.434,170.782c-16.2,17.15-33.029,35.41-47.8,47v-5.4c0-36.839.478-38.268,2.224-39.855,1.429-1.271,6.193-2.063,12.227-2.063l.476-.478v-4.605l-.476-.478c-7.941.32-15.563.794-23.185.794s-15.243-.476-23.183-.794l-.476.478v4.605l.476.478c6.034,0,10.8.792,12.227,2.063,1.747,1.589,2.223,3.016,2.223,39.855v16.039c0,36.839-.476,38.268-2.223,39.855-1.429,1.271-6.193,2.065-12.227,2.065l-.476.476v4.605l.476.479c7.939-.32,15.561-.8,23.183-.8s15.243.479,23.185.8l.476-.479v-4.605l-.476-.476c-6.034,0-10.8-.794-12.227-2.065-1.747-1.589-2.224-3.016-2.224-39.855v-6.988L876.88,275.9a91.657,91.657,0,0,1,11.433-.8c4.605,0,9.211.479,13.814.8l.478-.479v-4.605l-.478-.476c-4.605,0-7.144-1.111-13.5-7.622l-47.954-49.227L870.05,186.34c14.45-13.338,20.166-15.4,27.472-15.877l.478-.478V165.38l-.478-.478a74.934,74.934,0,0,1-11.751.952c-3.97,0-9.686-.158-12.7-.952l-.636.478v5.4Z" transform="translate(-358.339 -164.885)" fill="#103273"/>
      <path id="Path_474" data-name="Path 474" d="M165.492,379.815H511.167V165.038Z" transform="translate(-165.492 -164.926)" fill="#103273"/>
      <path id="Path_475" data-name="Path 475" d="M165.492,164.879V279.113L350.157,164.879Z" transform="translate(-165.492 -164.877)" fill="#a90533"/>
    </g>
  </g>
</svg>
