<svg  viewBox="0 0 124 44" role="img" xmlns="http://www.w3.org/2000/svg" >
						<g fill="#126dff" fill-rule="evenodd">
							<path d="M32.623.264A64.38 64.38 0 0 0 26.633 0c-.5 0-1.021.023-1.548.063l-.928 6.176c1.776-.77 6.154-3.592 8.466-5.975m1.14.126l-.075-.01c-2.343 2.119-5.365 4.491-6.387 5.03l5.349 5.136 5.092-3.623c.148-1.128.272-2.288.367-3.478.065-.8.06-2.367.06-2.367C37.482.87 33.763.39 33.763.39m-5.609 20.173s4.457-2.956 7.89-5.165a62.099 62.099 0 0 0 1.557-7.46c-2.005 1.427-8.736 6.246-10.625 7.973l1.178 4.652z" fill="#126dff"></path>
							<path class="color" d="M27.278 21.076l-1.274-5.437 5.748-4.572-5.143-4.882c-1.13.657-2.74 1.299-2.74 1.299l-.327 3.619 3.055.053c-2.09.922-3.172 1.888-3.172 1.888l-.62 6.376-3.362 3.08 2.603 2.481 5.232-3.905z" fill="#d3d3d3"></path>
							<path d="M22.677 25.503s.03 10.158.548 12.317c2.151-2.095 4.557-4.898 6.806-8.512l-2.323-7.478-5.031 3.673zm7.871 2.955c1.977-3.326 3.804-7.3 5.193-11.997l-7.396 4.888s1.78 6.293 2.203 7.109m-8.604.413s-2.143-.112-2.86-.112c-.716 0-2.86.112-2.86.112.081 1.87-.397 7.516-.583 9.612a35.534 35.534 0 0 0 3.444 2.832 35.499 35.499 0 0 0 3.443-2.832c-.186-2.096-.664-7.742-.584-9.612m-2.859-21.35c1.67-.055 3.5-.572 4.235-.88L24.346.13c-2.336.242-4.601.765-5.261 1.056-.66-.291-2.926-.814-5.262-1.056l1.026 6.51c.735.309 2.566.826 4.236.881M14.012 6.24L13.084.062A20.584 20.584 0 0 0 11.536 0c-2.7 0-4.79.15-5.99.264 2.312 2.382 6.69 5.205 8.466 5.975m-3.143-.829C9.846 4.872 6.825 2.5 4.48.38l-.075.01S.686.87 0 1.078c0 0-.005 1.567.06 2.367.096 1.19.22 2.35.367 3.478l5.092 3.623 5.35-5.135zm.325 10.501C9.304 14.184 2.574 9.365.568 7.938a61.96 61.96 0 0 0 1.557 7.46c3.433 2.21 7.89 5.165 7.89 5.165l1.179-4.652z" fill="#126dff"></path>
							<path class="color" d="M19.085 22.274l3.309-3.095 1.031-11.5c-2.074.86-4.11.904-4.34.903-.23.001-2.267-.044-4.34-.903l1.03 11.5 3.31 3.095z" fill="#d3d3d3"></path>
							<path class="color" d="M14.3 7.484s-1.61-.642-2.74-1.3l-5.143 4.883 5.748 4.572-1.274 5.437 5.232 3.905 2.603-2.482-3.36-3.08-.622-6.375s-1.083-.966-3.172-1.888l3.055-.053-.328-3.62z" fill="#d3d3d3"></path>
							<path d="M8.138 29.308c2.25 3.614 4.655 6.417 6.806 8.512.519-2.16.549-12.317.549-12.317L10.46 21.83l-2.323 7.478zM2.428 16.46c1.39 4.697 3.216 8.672 5.193 11.998.424-.816 2.203-7.11 2.203-7.11l-7.396-4.887z" fill="#126dff"></path>
							<path class="color" d="M19.085 27.877c.202 0 1.763-.002 2.7.144v-2.749l-2.7-2.474-2.7 2.474v2.75c.936-.147 2.497-.146 2.7-.145" fill="#d3d3d3"></path>
							<path fill="#126dff" d="M47.13 28.364h3.59V7.695h-3.59zm0-24.297h3.59V.412h-3.59zm19.99 24.297v-3.343c-3.152 0-5.4-.596-6.744-1.788-1.447-1.27-2.17-3.46-2.17-6.57V.373h-3.59v16.29c0 7.801 4.169 11.701 12.504 11.701m3.203 0h3.59V.374h-3.59zm12.691-6.474c-1.854-2.104-2.782-4.611-2.782-7.521s.928-5.416 2.782-7.52c1.855-2.105 4.095-3.157 6.72-3.157 2.647 0 4.892 1.046 6.736 3.138 1.844 2.092 2.766 4.605 2.766 7.539 0 2.934-.927 5.447-2.782 7.539-1.855 2.092-4.095 3.138-6.72 3.138s-4.865-1.052-6.72-3.156m15.574 2.362c2.443-2.741 3.664-6.035 3.664-9.883 0-3.871-1.216-7.172-3.648-9.901-2.432-2.73-5.389-4.095-8.87-4.095-3.48 0-6.437 1.366-8.87 4.095-2.432 2.73-3.648 6.03-3.648 9.9 0 3.849 1.221 7.143 3.665 9.884 2.443 2.742 5.394 4.112 8.853 4.112 3.46 0 6.41-1.37 8.854-4.112M108.977 5.7c1.088.414 2.292 1.127 3.613 2.138a20.813 20.813 0 0 1 5.48 6.181c1.553 2.618 2.33 5.236 2.33 7.853v6.492h3.59V.374h-3.59v10.418c-1.625-2.669-3.765-4.937-6.422-6.803-2.76-1.97-5.624-3.174-8.59-3.615v27.99h3.59V5.7zm-56.7 34.967c0 .135-.025.368-.098.454-.097.098-.316.098-.39.098h-1.617c-.51 0-1.338-.11-1.666-1.005-.061-.172-.183-.564-.183-1.74 0-.92.097-1.495.317-1.863.376-.637 1.058-.735 1.532-.735h2.105v4.791zm0-5.367h-1.959c-.718 0-1.606.11-2.19.968-.45.662-.486 1.397-.486 2.108 0 .71.036 1.483.292 2.108.474 1.164 1.46 1.31 2.092 1.31h2.007c.207 0 .523-.011.706-.232.121-.16.17-.466.17-.71v-7.635h-.632V35.3zm1.848-1.176h.68v-.907h-.68zm.024 7.671h.633V35.3h-.633zm6.605-.576h-2.53c-.353 0-.9.024-1.277-.417-.098-.122-.487-.6-.487-2.291 0-.699.037-1.655.535-2.181.207-.221.584-.454 1.192-.454h1.995c.122 0 .256.012.39.098.158.11.182.245.182.43v4.815zm.256-5.686c-.28-.208-.645-.233-.986-.233h-1.606c-.802 0-1.386.11-1.921.662-.609.625-.718 1.41-.718 2.426 0 1.005.097 1.912.51 2.561.512.797 1.266.846 1.971.846h2.494c-.024.368-.182.833-.486 1.103-.438.392-1.205.404-1.448.404h-2.579v.576h2.58c.4 0 1.471-.061 2.043-.723.437-.515.523-1.311.523-2.108V36.44c0-.282-.05-.662-.377-.907zm1.617 6.262h.632V35.3h-.632zm-.025-7.671h.682v-.907h-.682zm3.297 6.936c-.402-.282-.365-1.03-.365-1.581v-3.603h1.776V35.3h-1.776v-2.083H64.9V35.3h-.888v.576h.888v3.738c0 .772.037 1.409.438 1.8.402.405 1.01.38 1.557.38h.487v-.575h-.34c-.719 0-.998-.061-1.144-.16m6.387-.134c0 .086 0 .147-.086.22-.085.074-.206.074-.28.074h-2.602a.834.834 0 0 1-.633-.282c-.219-.27-.256-.735-.256-1.127 0-.454.05-.797.207-1.005.098-.135.329-.319.706-.319h2.944v2.439zm-.888-5.625h-3.163v.576h3.126c.304 0 .548.135.681.294.158.196.244.564.244.772v.968h-2.798c-.365 0-.852.05-1.205.343-.462.392-.535 1.005-.535 1.532 0 .392.037 1.275.572 1.716.353.282.803.294 1.168.294h2.481c.22 0 .535 0 .73-.184.207-.196.22-.502.22-.674v-3.885c0-.392-.05-.93-.39-1.298-.256-.282-.693-.454-1.131-.454zm2.736 6.495h.632v-8.578h-.632zm4.682 1.997h.609V32.727h-.609zm9.355-4.754c-.378-.307-.937-.43-1.716-.613l-1.168-.27c-.219-.049-.888-.22-1.107-.44-.243-.246-.267-.626-.267-.846 0-.172.012-.552.23-.772.208-.209.573-.22.719-.22h3.345V35.3h-3.09c-.608 0-1.155.037-1.557.564-.231.294-.328.625-.328 1.054 0 .355.073.76.352 1.078.146.172.5.49 1.484.723l1.12.257c.936.22 1.313.319 1.52.515.098.098.243.307.243.674 0 .22-.048.588-.158.747-.121.172-.377.307-.754.307H83.34v.576h3.722c.256 0 .694-.025 1.01-.245.475-.331.56-.932.56-1.385 0-.429-.061-.809-.463-1.127m2.834 2.022c-.401-.282-.365-1.03-.365-1.581v-3.603h1.776V35.3h-1.776v-2.083h-.632V35.3h-.888v.576h.888v3.738c0 .772.036 1.409.438 1.8.401.405 1.01.38 1.557.38h.486v-.575h-.34c-.718 0-.998-.061-1.144-.16m2.542-5.232c-.486.466-.572 1.042-.572 1.703v4.265h.633v-4.118c0-.526.06-1.016.328-1.348.353-.416.888-.453 1.241-.453h.39V35.3h-.439c-.863 0-1.313.27-1.581.527m6.8 5.098c0 .086 0 .147-.086.22-.085.074-.206.074-.28.074h-2.602a.834.834 0 0 1-.633-.282c-.219-.27-.256-.735-.256-1.127 0-.454.05-.797.207-1.005.098-.135.329-.319.706-.319h2.944v2.439zm-.888-5.625h-3.163v.576h3.126c.304 0 .547.135.681.294.158.196.244.564.244.772v.968h-2.798c-.365 0-.852.05-1.205.343-.462.392-.535 1.005-.535 1.532 0 .392.037 1.275.572 1.716.353.282.803.294 1.168.294h2.481c.22 0 .535 0 .73-.184.207-.196.22-.502.22-.674v-3.885c0-.392-.05-.93-.39-1.298-.256-.282-.693-.454-1.131-.454zm4.135 5.76c-.402-.282-.365-1.03-.365-1.581v-3.603h1.776V35.3h-1.776v-2.083h-.633V35.3h-.888v.576h.888v3.738c0 .772.037 1.409.438 1.8.402.405 1.01.38 1.557.38h.487v-.575h-.34c-.718 0-.998-.061-1.144-.16m2.712-4.399c.45-.76 1.144-.784 1.788-.784.572 0 1.205.012 1.667.564.219.257.438.686.438 1.323 0 .086.012.43-.268.43H106c.012-.638.049-1.104.304-1.533zm3.625 2.108c.183 0 .487-.024.681-.196.256-.22.268-.662.268-.846 0-1.36-.779-1.899-1.034-2.058-.523-.307-1.192-.368-1.642-.368-.645 0-1.436.086-2.02.576-.815.686-.863 1.79-.863 2.696 0 .956.024 1.777.523 2.426.499.662 1.18.797 1.703.797h3.163v-.576h-3.163c-.852 0-1.29-.6-1.435-1.128-.098-.343-.122-.943-.11-1.323h3.93zm6.653 2.451h-2.53c-.352 0-.9.024-1.277-.417-.097-.122-.486-.6-.486-2.291 0-.699.036-1.655.535-2.181.207-.221.584-.454 1.192-.454h1.995a.68.68 0 0 1 .389.098c.158.11.182.245.182.43v4.815zm.256-5.686c-.28-.208-.645-.233-.985-.233h-1.606c-.803 0-1.387.11-1.922.662-.608.625-.718 1.41-.718 2.426 0 1.005.098 1.912.511 2.561.511.797 1.265.846 1.97.846h2.494c-.024.368-.182.833-.486 1.103-.438.392-1.204.404-1.448.404h-2.578v.576h2.578c.402 0 1.472-.061 2.044-.723.438-.515.523-1.311.523-2.108V36.44c0-.282-.049-.662-.377-.907zm6.471-.233l-2.543 5.698-2.384-5.698h-.681l2.725 6.458-.973 2.132h.68l3.857-8.59z"></path>
						</g>
						<style>
						.path {
						  fill: #126dff
						}
						
						</style>
</svg>