<svg xmlns="http://www.w3.org/2000/svg" viewBox="0 0 107 53">
	<style>
		tspan { white-space:pre }
		.shp0 { fill: #912e2e } 
	</style>
	<path id="Path 9" class="shp0" d="M90.17,18.61l1.81,7.37h-5.25l1.76,-7.33l0.86,-3.19zM107,0.5v43.62h-46.64c-1.47,3.21 -5.57,6.33 -11.14,7.88l-6.02,-7.88h-43.19v-43.62zM24.25,6.17h-18.09v5.25h11.42l-0.92,1.85l-10.5,19.31v5.25h18.09v-5.25h-11.47l0.92,-1.72l10.55,-19.45zM46.88,38.06v-31.89h-5.34v15.79l-0.01,2.82l-1.47,-2.91l-9.02,-15.92h-4.35v31.89h5.34v-15.65l-0.01,-2.86l1.58,2.95l8.93,15.79zM52.55,38.15c-0.06,0.81 -0.36,1.62 -0.9,2.42c-0.54,0.8 -1.15,1.38 -1.84,1.74l1.66,2.17c0.45,-0.18 0.98,-0.47 1.59,-0.86c0.61,-0.39 1.19,-0.91 1.73,-1.56c0.54,-0.65 0.99,-1.46 1.37,-2.42c0.37,-0.97 0.56,-2.11 0.56,-3.44c0,-1.45 -0.31,-2.58 -0.92,-3.39c-0.61,-0.81 -1.49,-1.22 -2.63,-1.22c-0.9,0 -1.65,0.29 -2.24,0.88c-0.6,0.59 -0.9,1.39 -0.9,2.42c0,1.15 0.26,1.98 0.79,2.51c0.52,0.53 1.1,0.78 1.73,0.75zM77.82,26.71v-20.54h-5.34v20.31c0,2.35 -0.31,4.05 -0.94,5.09c-0.63,1.04 -1.68,1.56 -3.14,1.56c-1.53,0 -2.62,-0.49 -3.28,-1.47c-0.66,-0.98 -0.99,-2.71 -0.99,-5.18v-20.31h-5.66v21.3c0,3.68 0.8,6.42 2.4,8.21c1.6,1.79 4.12,2.69 7.56,2.69c2.93,0 5.23,-0.92 6.89,-2.76c1.66,-1.84 2.49,-4.81 2.49,-8.91zM100.94,37.83l-9.16,-31.89h-4.44l-9.11,31.89h5.61l1.84,-7.24h7.41l1.93,7.24z" />
</svg>