<?xml version="1.0" encoding="utf-8"?>
<!-- Generator: Adobe Illustrator 23.0.3, SVG Export Plug-In . SVG Version: 6.00 Build 0)  -->
<svg version="1.1" id="Слой_1" xmlns="http://www.w3.org/2000/svg" xmlns:xlink="http://www.w3.org/1999/xlink" x="0px" y="0px"
	 viewBox="0 0 500 243.3" style="enable-background:new 0 0 500 243.3;" xml:space="preserve">
<style type="text/css">
	.st0{fill:#ED1B24;}
</style>
<path class="st0" d="M136.8,148.1c-0.9-2.4,0.6-4.7,4.3-6.4c4.3-1.9,4.5-1.8,4.5,2.6c0,3.6-0.2,4-1.7,4.7c-0.9,0.4-2.8,0.8-4.1,0.8
	C137.9,149.8,137.4,149.5,136.8,148.1L136.8,148.1z"/>
<path class="st0" d="M286.8,150.4c-0.9-1.2-1-3.7-1-13c0-13.3,0.4-14.7,4.1-15c4.1-0.3,4.3,0.4,4.2,14.5
	c-0.1,10.7-0.3,12.6-1.3,13.7C291.2,152.3,288.1,152.2,286.8,150.4L286.8,150.4z"/>
<path class="st0" d="M398.4,127.6c0.5-3.4,2.1-5.3,4.6-5.3c2.4,0,4,2.2,4,5.5v2.3c0,0.2-0.1,0.3-0.3,0.3h-4.2h-4.1
	c-0.2,0-0.3-0.2-0.3-0.3L398.4,127.6z"/>
<path class="st0" d="M449.4,127.4c0-3.3,1.5-5.2,4.2-5.2c2.5,0,4,2,4,5.3v2.5c0,0.2-0.1,0.3-0.3,0.3h-3.8h-3.8
	c-0.2,0-0.3-0.1-0.3-0.3L449.4,127.4L449.4,127.4z"/>
<path class="st0" d="M487.7,84c-6.8-6.7-14.9-11-24.8-11.3l-5.4-0.2c-64.1-0.1-112.3-0.2-181.2-0.2c-33.3,0-39,0.1-39,1
	c0,1,0.5,1.2,10.1,2.8c9.4,1.6,13.2,2.8,14.8,4.8c1.2,1.5,1.3,1.9,0.5,3.2c-2.1,3.1-7.7,5.7-14.9,6.8c-2.1,0.3-1.8,0.1,1.7-1.2
	c5.3-1.9,8-3.6,8-5c0-1.7-4.2-2.9-15.7-4.6c-6-0.9-12.6-2.2-14.6-3c-4-1.5-4.9-1.7-3.3-0.7c0.8,0.5,0.9,0.6,0.1,0.6
	c-0.1,0-0.2,0-0.2-0.1c-4.5-5.8-63.2-4.6-177.7-4.6c-9.3,0-12.2,0.2-16.3,1.4C18.5,76.8,9.2,84.4,4.2,94.6
	C0.7,101.9,0,105.4,0,116.5v35.6c0,12.3,0.6,15.7,4.1,23c3.1,6.5,7.8,11.9,13.6,15.7c4.6,3,5.2,3.3,7.3,4.6l0,0c0.1,0.1,2,1.3,6,2.5
	l0,0c217.5,0,272.9,0.3,411.8,0.2c22.1,0.2,25.8-0.2,34.4-4.4c7.9-3.9,14.3-10.2,18.1-18.2c3.4-7.1,4.6-13.4,4.6-24.8
	c0-31,0-10.5,0-32.3C500,102.4,496.5,92.6,487.7,84z M223.3,78c0.2-0.2,1.3,0.1,2.4,0.7c1.1,0.6,5.5,2,9.7,3.1
	c11.1,3,12.9,4.2,9.9,6.2c-0.8,0.6-2.3,1.2-3.2,1.5H242c-0.3,0.1-0.5-0.3-0.3-0.5l0.2-0.1c3.1-2.2,1.6-3.4-7.5-6
	C229.4,81.4,222.8,78.5,223.3,78z M113.3,103.1c0,4.5-0.3,6.2-1,6.8c-0.9,0.7-1,4.2-1,23.3s0.1,22.6,1,23.3c0.8,0.6,1,2.3,1,6.8v5.7
	c0,0.2-0.1,0.3-0.3,0.3h-12.2H88.5c-0.2,0-0.3-0.1-0.3-0.3v-5.7c0-4.5,0.3-6.2,1-6.8c0.9-0.7,1-3.5,1-17.8c0-10.1-0.2-16.7-0.6-16.3
	c-0.3,0.4-2.8,8.5-5.4,18.2c-2.7,9.6-5.1,18.5-5.5,19.7l-0.6,2c0,0.1-0.2,0.2-0.3,0.2h-5.1h-5c-0.1,0-0.2-0.1-0.3-0.2l-0.9-3.3
	c-1.3-4.7-7.4-28.2-8.5-32.7c-0.7-3.1-2-5.4-2.1-3.7c0,0.3-0.1,7.6-0.2,16.2c-0.2,12.2,0,15.9,0.7,16.8c0.6,0.8,0.9,3.3,1,7.4
	l-0.3,6c0,0.2-0.1,0.3-0.3,0.3H47H36.8c-0.1,0-0.3-0.1-0.3-0.2l-0.4-1.9c-0.8-4-0.5-9.8,0.6-10.7c0.9-0.7,1-4.2,1-23.3
	s-0.1-22.6-1-23.3c-0.8-0.6-1-2.3-1-6.8v-5.7c0-0.2,0.1-0.3,0.3-0.3h14.4h14.5c0.1,0,0.2,0.1,0.3,0.2l2.9,10.8
	c4.3,16.4,4.8,17.8,5.4,16.7c0.3-0.5,2.1-7,4.1-14.3l3.5-13.1c0-0.1,0.2-0.2,0.3-0.2h15.8H113c0.2,0,0.3,0.1,0.3,0.3V103.1z
	 M165.8,160.8c0,0.2-0.1,0.3-0.3,0.3l-8.3,0.1c-4.9,0.1-9.4,0.1-10,0.2c-0.8,0-1.3-0.5-1.4-1.8c-0.3-2.2-0.4-2.2-3-0.4
	c-1.1,0.8-3.4,1.8-5.1,2.3l0,0c-6,1.8-12.7,0.7-16.3-2.5c-4.1-3.7-5.4-11.1-2.9-16.5c2-4.3,5.8-6.5,16.8-10l9.5-3
	c0.1,0,0.2-0.2,0.2-0.3V127c0-4.5-3.2-6.5-6.3-4.1c-1.3,1-1.8,2-1.8,3.7v2c0,0.2-0.1,0.3-0.3,0.3H128h-8.3c-0.2,0-0.3-0.1-0.3-0.3
	v-5.4v-5.6c0-0.1,0.1-0.2,0.1-0.2l2-1.3c5-3.1,11-4.3,20.7-4.3c8,0,9.5,0.2,12.4,1.5c7.7,3.5,8.4,5.4,8.4,21.1
	c0,11,0.1,12.6,1.3,14.9c1,1.9,1.3,4,1.3,7.2v4.3H165.8z M207.2,161.6L207.2,161.6c-1.5,0.6-13.4,0.3-17.7-0.4
	c-5.4-0.9-12-4.4-14.6-7.9c-3.4-4.5-4.4-9-4.1-18.6c0.3-9.9,1.7-13.8,6.4-17.9c4.4-3.9,7.8-4.8,18.7-5.2c9-0.3,9.4-0.3,8.8,0.9
	c-1.4,3.2-3,8.1-3,9.2c0,1-0.7,1.2-3.8,1.2c-4.3,0-7.6,1.3-9,3.5c-0.7,1-1.1,4-1.2,9c-0.4,11.8,1.3,14.3,10.3,14.9
	c5.1,0.4,5.1,0.4,5.7,2.6c0.3,1.2,1.5,3.6,2.6,5.2C207.8,160.6,208,161.3,207.2,161.6z M261.4,162.7v8.4c0,0.2-0.1,0.3-0.3,0.3h-4.2
	c-2.5,0-6,0.1-7.6,0.3c-4.3,0.4-15.1-0.6-20-1.9c-16.6-4.3-23.3-14.3-23.4-35.2c0-13.5,2.1-21.3,7.3-27.1
	c6.8-7.6,16.6-10.3,37.2-10.3h10.1c0.2,0,0.3,0.1,0.3,0.3v7.5v7.4c0,0.2-0.1,0.3-0.3,0.3h-9.7c-10.5,0.2-13.5,0.7-16.2,3.1
	c-3.5,3.2-3.8,4.5-3.8,18.6c0,12.4,0.1,13.3,1.5,16c2.5,4.8,5.5,5.9,15.7,5.9c6.4,0,9-0.3,11-1.1l2-0.9c0.2-0.1,0.4,0.1,0.4,0.3
	V162.7z M468.5,100.2c0.2-3.8,1.5-4.5,2.8-1.4l0.7,1.6c0.1,0.2,0.4,0.2,0.5,0l0.7-1.4c1.6-3.3,2.6-3,2.6,0.9c0,3.5-1.3,5-1.4,1.6
	v-0.3c0-0.3-0.5-0.4-0.6-0.1l-0.2,0.4c-0.4,1-1,1.9-1.3,1.9s-1-0.8-1.4-1.9l-0.4-0.9c-0.1-0.3-0.5-0.2-0.6,0.1l-0.1,0.8l0,0
	C469.5,104.6,468.3,103.5,468.5,100.2z M462,97.3c0.2-0.4,1.4-0.7,2.7-0.7c1.3,0,2.5,0.3,2.7,0.7c0.2,0.4-0.1,0.7-0.6,0.7
	c-0.8,0-1.1,0.7-1.1,2.7l0,0c0,1.9-0.3,2.7-1,2.7s-1-0.7-1-2.7s-0.3-2.7-1.1-2.7C462.1,98,461.8,97.6,462,97.3z M310.9,154.2
	c-1.8,3.4-3.2,4.7-7.3,6.5c-2.8,1.2-4.8,1.5-11.8,1.7c-13.8,0.3-20.2-1.9-23-8.1c-1.1-2.4-1.3-4.6-1.3-17.3s0.2-14.8,1.3-17.3
	c2.6-5.7,8.8-8.3,19.8-8.3c12.9,0,19,2,22,7.4c1.7,3,1.7,3.3,1.7,17.8C312.4,150.6,312.3,151.7,310.9,154.2z M377.3,106.5l-2.4,0.4
	c-3.2,0.5-4.3,1.7-4.4,4.6l-0.1,1.9c0,0.2,0.1,0.3,0.3,0.3h3.1h3.1c0.2,0,0.3,0.1,0.3,0.3v5.1v5.2c0,0.2-0.1,0.3-0.3,0.3l-3.2,0.2
	l-3.2,0.2c-0.2,0-0.3,0.1-0.3,0.3v11.5c0,10.6,0.1,11.8,1.3,13.4c1,1.4,1.3,2.7,1.3,6.8v4.8c0,0.2-0.1,0.3-0.3,0.3h-10.8h-12.2
	c-0.2,0-0.3-0.1-0.3-0.3V157c0-3.2,0.3-5.6,1-6.6c0.7-1.1,1-4.6,1.2-13.5l0.2-11.7c0-0.2-0.1-0.3-0.3-0.3h-6.2l-6.2-0.3
	c-0.2,0-0.3,0.1-0.3,0.3v11.6c-0.1,10.7,0.1,11.9,1.3,13.4c1.1,1.4,1.3,2.7,1.5,6.8v4.9c0,0.2-0.1,0.3-0.3,0.3h-11.7h-11.7
	c-0.2,0-0.3-0.1-0.3-0.3V157c0-3.2,0.4-5.6,1-6.6c0.7-1.1,1-4.6,1.2-13.5l0.2-11.7c0-0.2-0.1-0.3-0.3-0.3H318l0,0l-1.6-0.2
	c-0.1,0-0.3-0.2-0.2-0.3l0.2-5.1c0.2-5.1,0.3-5.6,1.7-5.8c1.3-0.2,1.5-0.8,1.9-4c1.3-11.4,4.6-14.3,15.9-14.2c9.8,0.1,9.7,6,9.7,6
	v4.7c0,0.1-0.1,0.2-0.2,0.3l-2.5,0.7c-2.8,0.8-4.6,3-4.2,5.4c0.2,1.3,0.6,1.3,6.3,1.1c3.3-0.1,6.2-0.3,6.3-0.4s0.4-2.3,0.8-4.8
	c0.7-5.9,2.2-9,5.3-11.1c2.1-1.4,3.3-1.7,8.9-1.9c3.6-0.1,7.5,0,8.8,0.4l2.1,0.6c0.1,0,0.2,0.1,0.2,0.3l0.2,4.9l0.2,4.8
	C377.6,106.4,377.5,106.5,377.3,106.5z M425.2,140.1c0,0.2-0.1,0.3-0.3,0.3h-13l-13,0.3c-0.2,0-0.3,0.1-0.3,0.3l-0.2,3.5
	c-0.2,4.7,0.9,7,3.6,7.3c2.9,0.3,3.9-0.7,4.3-4l0.4-2.8c0-0.1,0.1-0.3,0.3-0.3h8.8h8.8c0.2,0,0.3,0.1,0.3,0.3l0.2,5.2
	c0.2,4.1,0,5.6-0.9,6.5c-1.6,1.8-6.6,3.8-12.6,5l0,0c-11.7,2.4-23.6,0.4-28.1-4.7c-2.9-3.4-3.6-7.9-3.3-22.2
	c0.2-10.9,0.4-12.5,1.7-15c3.1-5.9,8.3-7.9,20.7-7.9c10.1,0,15,1.3,18.6,4.9c3,3,3.9,16.2,4,16.6l0,0V140.1z M475.8,150.5v6
	c0,0.1-0.1,0.2-0.2,0.3l-4.1,1.9c-2.3,1.1-6.6,2.4-9.5,2.9l0,0c-6.8,1.4-13.8,1.3-19.3-0.1c-5.4-1.4-8.3-3.4-10.3-7.1
	c-1.4-2.7-1.5-3.6-1.5-17c0-12.9,0.2-14.4,1.5-17.3c1.6-3.6,4.9-6.1,9.6-7.3c4.7-1.3,18.4-1.1,23.1,0.3c8.3,2.5,10.6,6.9,10.4,19.8
	v7.4c0,0.2-0.1,0.3-0.3,0.3h-12.8l-13.1,0.3c-0.2,0-0.3,0.1-0.3,0.3v3.7c0.1,5.4,1,7.1,3.9,7.1c2.8,0,3.6-0.9,4.2-4.6l0.4-2.6
	c0-0.1,0.1-0.2,0.3-0.2h8.8h8.8c0.2,0,0.3,0.1,0.3,0.3v5.6H475.8z"/>
</svg>
