<svg xmlns="http://www.w3.org/2000/svg" viewBox="0 0 415.46 600.27">
    <defs>
        <style>
            .prefix__cls-2,.prefix__cls-4{fill:#201600;fill-rule:evenodd}.prefix__cls-4{fill:#225027}
        </style>
    </defs>
    <g id="prefix__Слой_2" data-name="Слой 2">
        <g id="prefix__Слой_1-2" data-name="Слой 1">
            <path d="M387.37 102.75a216.67 216.67 0 00-74.67-74.66 210.18 210.18 0 00-209.94 0 216.49 216.49 0 00-74.67 74.66A206.91 206.91 0 000 207.73q0 32.53 8.13 56.92 8.13 26.61 34 71 17 29.56 76.14 122.71 54 85 89.45 141.94 34-54.72 86.49-137.5 61.35-96.09 79.1-126.41 25.88-45.09 34.75-71.71 7.38-23.65 7.39-56.92a207 207 0 00-28.08-105.01z" style="fill:#ffc436"/>
            <path d="M156.53 259c20.5 7.85 31.84 32.61 36.42 53.6a109.48 109.48 0 011.78 12.4c1.29 12.08-1.46 9.08 7 10.24 3.77-2.84 3.22 1.35 3.06-16.92s2.59-46.49 1.71-60.89c-.71-14.92-14.46-8.82-13.62-26.77.45-12.53 6.75-22.92 16.14-26.06 8.95 2.94 13.92 12.69 15.4 23.15 2.65 18.79-6.68 15.4-12.68 23.93-2.3 10.2-.33 29.8 0 41.52l.51 32.45c.49 10-1.23 6.46 3.91 9.68 8.91 1.46 4.78-7.29 8.3-23.21 3.23-14 10.1-31.45 19.66-41.23 8.72-8.94 12.43-9.2 16.56-13.34L243.26 146.8l-61.64-.48c-9.07.41-5.81-1.59-8.2 4-.65 1.52-3 18.86-3.42 21.63-4 24.51-12.92 64-13.47 86.92M153.17 63.63v1.48l.62 1.46c6.1 20 11.94 40.58 18.08 60.57 2.68 8.68 1.06 7.71 7.88 7.71h61.34c3 0 2.52-2 4.26-7.52 1.36-4.23 2.43-8.36 3.75-12.53 2.26-7.23 5.17-17.27 7.39-24.89L263 68.28a14.58 14.58 0 011-3.23v-1.91c-1-1.26-1.77-1-2.9 0L235.54 83.9c-4.49 3.75-3.91 2.59-3.23 6.46 1 6.85-6.46 10.49-10.24 5.26a7.14 7.14 0 011.52-10 7.7 7.7 0 011.13-.68c3.78-1.2 4.2-.23.2-9.91l-13.86-33.9c-.51-1.33-.8-2.91-2.09-3.23-1.81-.29-2.07 1.19-2.65 2.68s-1.07 2.58-1.55 3.77c-1.94 4.88-15.27 37-15.31 38 0 2 1.23 2 2.68 2.43a7.13 7.13 0 013.56 9.44 7.7 7.7 0 01-.65 1.15c-3.91 5.48-11.3 1.29-10.3-5.17.58-3.65.61-2.49-3.58-6.23-1.94-1.71-3.55-3-5.49-4.72l-5.56-4.68c-2-1.68-3.64-3.23-5.48-4.71s-3.75-3.23-5.53-4.68c-4.13-3.75-4.23-3.68-5.94-1.68M175.06 139a2.07 2.07 0 00-1.43 2.55 1.89 1.89 0 00.34.68c.74 1.1 2.64.78 4 .78 5.94 0 63.25.22 64.57 0a2.14 2.14 0 001-2.84 2.55 2.55 0 00-.24-.39c-.78-1-2.62-.71-3.94-.71-6.17 0-62.7-.23-64.19 0" class="prefix__cls-2"/>
            <path d="M202.83 78.51a31.3 31.3 0 011.81-4.65c.9-2.48 5.26-12.49 5.62-13.78.58-2.17-1.26-3.68-2.68-2.52a17.82 17.82 0 00-2.07 4.44l-5.68 14c-.78 1.9-1.68 3.23 0 4.78 4.42 4.77 3.23 10.49 4.23 11.91a1.64 1.64 0 002.19.48c2.36-1.48 0-9.46-1.93-12.65-.46-.75-.84-1.23-1.33-1.91" style="fill:#fff;fill-rule:evenodd"/>
            <path d="M61.9 185.77a54.09 54.09 0 011.87-10.72 141.68 141.68 0 018.78-24.8c3.68-7.39 12.17-5.19 16-5.55 8.3-.74 13.43-8.3 19.37-12.66 2.85-2.06 8.21-5.39 11.85-4.68-.58-.8 0-.48-1.19-.64a4.36 4.36 0 00-1.61 0 149.38 149.38 0 00-24.09 3.45 20.15 20.15 0 00-10.43 6.46c-2.62 2.9-3.23 6.75-6.94 8.75a91.1 91.1 0 0110.46-17 97 97 0 016.03-7.89 14.46 14.46 0 019.49-6.46c9-1.87 9.49 6.46 27.28-5.14a27.13 27.13 0 0114.08-5.39h3.23l-.19-.74c-6.11.19-22.8-3.49-32.58 0a19.46 19.46 0 00-5.78 3.23 35 35 0 00-4.1 4.16 9.75 9.75 0 01-5.07 3.62 85.23 85.23 0 0111.4-10.24c8.59-6.45 12.91 0 20.63-12.91a132.47 132.47 0 008.23-20.76c-1.68 1-.93 2.84-4.1 6-7.33 7.45-17 5.58-20.63 18a17.78 17.78 0 01-6.46 9.33l-11.86 10.58c2.07-6 4-4.78 2.84-15.43C97.8 92.43 96 86.81 95 81c-.29-1.71.48-.87-1-1.42a14.25 14.25 0 01.39 5.81C93.25 94 84.5 100 85.63 109c.48 3.78 5.07 10.07 0 16.47-1.1 1.35-2.07 2.58-3.23 4.07a89.56 89.56 0 00-5.71 8.2 145.81 145.81 0 00-7.24 12.91 23.14 23.14 0 01-2.29 4.59c-1.71-7 6.85-10.08 1.58-22.6a60.51 60.51 0 00-5.91-10.27 53.48 53.48 0 00-3.22-4.75 42.27 42.27 0 01-3.43-4.87l-.74.19a17.23 17.23 0 013.16 10.78c0 7.27-3.06 14.34 1.3 21.18 2.71 4.27 4.23 3 5.74 9a13.48 13.48 0 01-1.42 9.69c-.64 1.58-.93 2.84-1.48 4.45-1.52 4.85-5.78 20.34-5 24.44-1.78 0-3.23-2.64-3.87-4.13-1.78-4.62.8-13.43-13.82-19.18a62.57 62.57 0 00-8.57-2.17 43.6 43.6 0 00-8.78-1.65c1.23 1.75 5.72 0 11.37 11.69 10.1 20.67 14.11 6.85 21.53 16.15a5.92 5.92 0 011.4 5.46c0 2-.22 4-.29 6.07a169.32 169.32 0 002.1 25.54 73.81 73.81 0 003.58 13.89c-3.58-1.39-6-14.6-15.69-18.21-1-.36-1.58-.46-2.64-.81s-1.91-.71-2.91-1a76.56 76.56 0 00-19-1.32c1 .77 1.36.61 2.62.87a15.2 15.2 0 017.36 4.61c4.88 4.72 11.62 14.57 17.31 16s6.75-2.45 12.52 1.65c1 .71 1.13 1.07 1.62 2.62s.81 2 1.32 3.61a125.86 125.86 0 0023.48 40.2c-4.94 0-12.11-13.17-24.51-14.92a64.39 64.39 0 00-8.1 0 39.11 39.11 0 00-4.2.17c-4.43.41-14.27 2.58-19 3.55-1.65.32-3.55.93-5.2 1.35l.2.75a19.32 19.32 0 0111.17.22c1 .29 2.13.94 3.23 1.39l15 7.68c15.2 8.69 18 .91 25.63.75 8.3-.16 10.72 4.87 16.89 10.81a120.23 120.23 0 0014.49 11.66l12.88 8.22a23.78 23.78 0 01-13.79-3.77 44.48 44.48 0 00-4.26-1.84 29.25 29.25 0 00-9.39-2.2c-10.59-.64-21.7 6.14-30 12.08l-14.27 10.1c-1.29 1-1.35.52-1.35 2 9.49-8 23.5-3.87 32.54-2.51 3.78.58 12.92 1.87 16.5.64 9.07-3.23 8.56-6.46 12.92-9.68a19.33 19.33 0 0116.78-2c4.46 2.3 9.24 4 13.86 5.85a83.08 83.08 0 0010.88 3.23c3.61.87 16.14 4 19.66 3.42l-.9-3.23a105.27 105.27 0 01-21-4.29l-12.92-4.52c-2.06-.84-4.68-1.46-5.75-3.59-7-13.91 5.36-17.34-.32-30.48a75.05 75.05 0 00-4-6.46c-5.26-8.91-13.59-16.14-15.17-26.63a40.86 40.86 0 010-7.82c-.81.55-.33 0-.68.84-1.33 2.81-4 24.28-4.49 27.9a66.18 66.18 0 00.26 10.72 21 21 0 002.9 11 42.54 42.54 0 0013.43 13.5 16.57 16.57 0 016.24 7.62 13.56 13.56 0 01-2.88-1.49c-2.9-1.68-6.29-3-9-4.94a150.78 150.78 0 01-27-22 4.55 4.55 0 01-1.64-3.55 17.48 17.48 0 011.29-11.08c3.23-4.71 5.52-4.42 6.94-11.88s-7-24.12-5.33-34.77c.36-2.16 2.29-5.17 2.29-6.75-1.74 1-3.22 4.78-4.32 6.46l-7.72 14.2a50.73 50.73 0 00-4.49 15.76c-.19 12 8.72 16.47 9.43 25.31.16 1.91.49 1.2-.39 2.26-.45-1.22-7.26-9.68-8.46-11.3a127.15 127.15 0 01-7.68-12.52A113.16 113.16 0 0166.26 245c-.91-3.43-1.68-4 0-7.14 6-11.72 15.2-1.1 18.24-26.83.77-6.46 2.48-14.18 8.91-17.53-1.19-1-.94-.39-2.78.87l-9.33 6.46c-4.23 3-13.53 9.88-15.37 14.78-4.06 10.82 1.81 18.83-1.77 22.9a157.11 157.11 0 01-3.94-28.39A92.15 92.15 0 0161 191a15.47 15.47 0 013-5.14c4.65-5.65 12.05-2.06 17.31-9a57.83 57.83 0 005.33-10.27 37.16 37.16 0 012.52-5.1 18 18 0 013.48-4.49 12.86 12.86 0 016-3.39l-.23-.74a101.54 101.54 0 00-26.89 11.23 16.14 16.14 0 00-6.26 9.69 55.49 55.49 0 00-1 6.26 17.55 17.55 0 01-.67 3c-.39 1.22-.46 1.77-1.65 2.45M352.22 184.8a51.39 51.39 0 00-1.9-10.72 138.7 138.7 0 00-8.88-24.79c-3.71-7.4-12.17-5.2-15.95-5.56-8.3-.74-13.43-8.3-19.37-12.65-2.84-2.07-8.2-5.4-11.88-4.69.61-.8 0-.48 1.19-.64a4.41 4.41 0 011.62 0 145 145 0 0124.28 3.25 20.07 20.07 0 0110.42 6.45c2.59 2.91 3.23 6.75 6.95 8.75a95.55 95.55 0 00-10.17-16.85c-2-2.65-4-5.42-6.24-7.91a14.62 14.62 0 00-9.49-6.44c-8.94-1.87-9.49 6.46-27.28-5.13a27 27 0 00-14.08-5.39h-3.23l.2-.75c6.07.2 22.79-3.48 32.54 0a19.49 19.49 0 015.81 3.23 35.88 35.88 0 014.1 4.17 9.68 9.68 0 005.07 3.61 87 87 0 00-11.39-10.23c-8.59-6.46-12.92 0-20.64-12.92a136.72 136.72 0 01-8.29-20.72c1.68 1 1 2.84 4.1 6 7.36 7.46 17 5.59 20.63 18a18.06 18.06 0 006.46 9.33l12 10.52c-2.1-6-4-4.77-2.84-15.43.61-5.91 2.45-11.53 3.45-17.31.29-1.71-.48-.87 1-1.42a14.83 14.83 0 00-.35 5.82c1.09 8.62 9.68 14.56 8.68 23.57-.45 3.77-5 10.07 0 16.46 1.1 1.36 2.07 2.59 3.23 4.07a92.17 92.17 0 015.39 8.17c2.49 4.29 5.2 8.49 7.24 12.91a24.76 24.76 0 002.26 4.59c1.74-7-6.82-10.07-1.55-22.44a60 60 0 015.81-10.11 46 46 0 013.23-4.74 48.53 48.53 0 003.42-4.88l.74.2a17.28 17.28 0 00-3 10.46c0 7.26 3.22 14.33-1.3 21.18-2.71 4.26-4.26 3-5.78 9a13.48 13.48 0 001.46 9.69c.64 1.58.93 2.84 1.45 4.45 1.55 4.85 5.81 20.35 5.07 24.45 1.78 0 3.23-2.65 3.87-4.14 1.78-4.61-.84-13.43 13.82-19.18a61.21 61.21 0 018.56-2 43.31 43.31 0 018.75-1.65c-1.2 1.75-5.68 0-11.33 11.69-10.11 20.67-14.15 6.85-21.54 16.15a5.94 5.94 0 00-1.42 5.45c0 2 .23 4 .26 6.07a174 174 0 01-2.1 25.48 73.91 73.91 0 01-3.58 13.88c3.58-1.39 6-14.59 15.69-18.21 1-.36 1.58-.45 2.65-.81s1.9-.71 2.87-1a77.28 77.28 0 0119-1.32c-1 .78-1.36.61-2.62.87a15.21 15.21 0 00-7.36 4.62c-4.88 4.71-11.62 14.56-17.31 16s-6.74-2.45-12.56 1.65c-1 .71-1.13 1.06-1.58 2.61s-.81 2-1.35 3.62a125.21 125.21 0 01-23.45 40.52c4.94 0 12.14-13.18 24.54-14.92a61 61 0 018.11 0 41.23 41.23 0 014.16 0c4.46.42 14.31 2.58 19.05 3.55 1.65.33 3.55.94 5.2 1.36l-.19.74a19.44 19.44 0 00-11.18.23c-1 .29-2.13.93-3.22 1.39l-15 7.65c-15.17 8.68-18 .9-25.6.74-8.3-.19-10.72 4.88-16.89 10.82a120.15 120.15 0 01-14.49 11.65l-12.92 8.27a24 24 0 0013.82-3.78 44.48 44.48 0 014.26-1.84 29.57 29.57 0 019.4-2.2c10.55-.64 21.66 6.14 29.93 12.08l14.3 10.11c1.29 1 1.36.51 1.36 2-9.5-8-23.51-3.88-32.58-2.52-3.75.58-12.92 1.87-16.5.64-9-3.22-8.52-6.45-12.91-9.68a19.39 19.39 0 00-16.79-2c-4.46 2.29-9.24 4-13.86 5.84a81.14 81.14 0 01-10.9 3.16c-3.61.87-16.14 4-19.66 3.42l.87-3.23a104.17 104.17 0 0021.01-4.32l13-4.52c2.07-.84 4.68-1.45 5.75-3.58 7-13.92-5.36-17.34.32-30.48a67.77 67.77 0 014-6.46c5.26-8.91 13.56-16.15 15.18-26.64a50.91 50.91 0 000-7.81c.8.55.32 0 .67.84 1.33 2.81 4 24.28 4.46 27.89a66.15 66.15 0 01-.23 10.72 21.27 21.27 0 01-2.9 11 42.64 42.64 0 01-13.43 13.5 16.77 16.77 0 00-6.14 7.68 13.92 13.92 0 002.87-1.48c2.91-1.68 6.27-3 9-4.94a150.74 150.74 0 0026.93-22 4.45 4.45 0 001.68-3.55 17.71 17.71 0 00-1.29-11.11c-3.23-4.71-5.49-4.42-6.91-11.88s6.91-24.12 5.23-34.78c-.35-2.16-2.29-5.16-2.29-6.74 1.74 1 3.23 4.78 4.29 6.45l7.72 14.21a49.83 49.83 0 014.52 15.76c.19 11.94-8.72 16.46-9.43 25.31 0 1.9-.48 1.19.39 2.26.45-1.23 7.26-9.69 8.43-11.3a125.68 125.68 0 007.71-12.53 114.74 114.74 0 009.37-22.6c.9-3.42 1.68-4 0-7.13-6-11.72-15.21-1.1-18.25-26.84-.77-6.45-2.48-14.17-8.91-17.53 1.16-1 .91-.38 2.78.84l9.33 6.46c4.2 3 13.5 9.88 15.34 14.79 4.06 10.81-1.78 18.82 1.8 22.89a156.12 156.12 0 003.94-28.38 92.24 92.24 0 00-.77-19.15 16 16 0 00-3-5.13c-4.65-5.65-12-2.07-17.31-9a57.48 57.48 0 01-5.32-10.2 33.88 33.88 0 00-2.49-5.1 18.07 18.07 0 00-3.52-4.49 13 13 0 00-5.91-3.33l.19-.74a101.08 101.08 0 0126.93 11.24A16.37 16.37 0 01349 173a62.93 62.93 0 011 6.27 14.29 14.29 0 00.68 3c.38 1.23.41 1.74 1.64 2.45" class="prefix__cls-4"/>
        </g>
    </g>
</svg>
