<svg xmlns="http://www.w3.org/2000/svg" viewBox="0 0 3871.35 1597.6"><defs><style>.cls-1,.cls-7,.cls-9{fill:#59595b}.cls-2{fill:#102948}.cls-3{fill:#cf3c3a}.cls-4{fill:#b9473f}.cls-5{fill:#fff}.cls-6{fill:#1f3051}.cls-7,.cls-8,.cls-9{isolation:isolate}.cls-7,.cls-9{font-size:340px;font-family:BellMTBold,Bell MT;font-weight:700}.cls-9{letter-spacing:.08em}</style></defs><title>looogooo</title><g id="Слой_2" data-name="Слой 2"><g id="Слой_1-2" data-name="Слой 1"><path id="d" class="cls-1" d="M291.82 1231.9c0-40 0-67.1-.3-80.5-.8-13.4-1.8-21-3.5-23.5s-6.6-4-14.9-5.3c-5.3-.8-7.8-3-7.8-5.8 0-2.3.5-4 2.8-4.3 1.8-.8 7.6-1.3 17.7-1.3h55.4l-.8 147.8-1.3 91.9c0 14.2 1.5 23.3 4 26.8s8.1 6.1 16.7 7.1c5.1.8 7.6 2.5 7.6 5.8 0 4-2.5 5.8-8.1 5.8h-67.5v-28.6a66.21 66.21 0 0 1-21.5 24 55.79 55.79 0 0 1-30.1 7.8 73.61 73.61 0 0 1-55.9-24.6c-15.9-16.7-24.3-38-24.3-64 0-28.6 9.4-52.1 27.8-70.3 18-18.5 38.7-27.8 61-27.8a59.16 59.16 0 0 1 43 19m-75.4 73.1c0 26.3 3.5 45.8 10.4 58.2 7.3 12.2 15.9 18.5 26.8 18.5 10.4 0 19.5-5.8 26.8-17.5s11.1-33.2 11.1-63.5c0-25.3-3.3-43.8-9.4-56.4s-15.7-18.7-28.3-18.7-22 6.3-28.1 19.7-9.3 33.4-9.3 59.7z"/><path id="p" class="cls-1" d="M1745.62 1238.7a78.37 78.37 0 0 1 23.8-19 60.66 60.66 0 0 1 26.8-6.3c19.5 0 38 8.3 55.7 25.8 17.2 17 26.3 39 26.3 65.8a92.61 92.61 0 0 1-26.3 65.3c-17.5 18.5-38 27.6-61.8 27.6a83.08 83.08 0 0 1-24.8-3.5 101.65 101.65 0 0 1-22.8-10.9c0 55.2 1.5 87.8 4.6 97.2s11.1 14.2 24.6 14.4c5.1.3 7.1 2.3 7.1 5.8s-3.3 5.3-9.6 5.3c-3.8 0-9.4 0-17.5-.3-15.9-1-30.4-1.8-42.3-1.8-8.3 0-18 .3-29.6 1.3-5.8.5-9.4.8-11.4.8-6.8 0-10.6-1.8-10.6-5.3s3.8-5.6 11.9-6.1c12.7-1.3 20.2-9.1 22.8-23.3s3.5-62.8 3.5-146l-1-67.8c0-13.2-1.8-21.8-5.1-25.3a20.38 20.38 0 0 0-15.2-6.8c-5.1-.8-8.1-2.5-8.1-6.3s3.3-5.8 9.1-5.8c24.6 0 47.8-.5 69.8-1.8l.3 21c.1.7-.2 2.9-.2 6m73.7 73.4c0-25.3-3.5-44.8-11.1-58.5-7.3-14.2-17-21-28.8-21-12.4 0-21.5 7.3-27.6 22-6.6 14.9-9.4 37.2-9.4 67.3 0 23.5 2.8 39.7 9.1 48.3 5.8 9.1 15.2 13.4 28.1 13.4 13.4 0 23.3-5.8 30.1-18 6.3-11.8 9.6-29.5 9.6-53.5z"/><path id="u" class="cls-1" d="M1536.62 1215.9c.8 14.2 1 33.7 1 58.7 0 37.2.5 61.5 1.3 71.9s3.3 18 7.8 23.5a22.44 22.44 0 0 0 16.7 7.8 35.88 35.88 0 0 0 21.5-8.3 44.9 44.9 0 0 0 16.7-20.8c3.8-8.9 5.6-23.3 5.6-43l.3-46.1c0-12.2-.8-20.2-2-24s-5.8-6.3-13.4-6.3c-8.3-.8-12.4-2.8-12.4-6.3a4.47 4.47 0 0 1 3-4.8c5.3-.5 10.4-.8 15.7-.8 19.2 0 37.2-.8 53.9-1.5.8 5.6 1.3 35.2 1.3 89.1 0 43 .3 66.8 1 70.9s5.3 6.1 13.4 6.8c5.1.8 7.1 2.5 7.1 6.1 0 4-2.5 5.8-8.3 5.8h-5.1c-3.8-.3-8.1-.3-13.7-.3h-30.4a56.33 56.33 0 0 1-5.8.3c-2.5 0-4.3-.3-5.1-1.5a41.29 41.29 0 0 1-.8-7.8 158.63 158.63 0 0 1 1.5-21.8 115.34 115.34 0 0 1-30.4 26.1 68.72 68.72 0 0 1-33.2 8.6q-53.1 0-53.1-59.2v-64.3c0-22.5-.8-35.4-2.5-39.5-1.5-3.5-5.8-6.1-12.7-6.8-6.3-1-9.1-2.8-9.1-5.3 0-4 2.5-5.8 7.8-5.8q56-.15 62.4-1.4z"/><path id="o" class="cls-1" d="M1478.22 1300.7c0 25.6-9.6 48.1-28.6 68.3-19.2 19.5-43.5 29.6-72.6 29.6-26.8 0-49.6-8.3-67.8-25.1s-27.3-39-27.3-66.6c0-28.3 9.4-51.1 28.9-68.6s43-26.1 70.6-26.1c28.6 0 51.6 8.3 69.6 24.6 18 16.9 27.1 37.9 27.2 63.9m-57.8 14a161.69 161.69 0 0 0-11.4-61.8c-7.6-18-18.5-27.3-32.6-27.3-12.2 0-22 6.3-28.8 19-6.8 13.2-10.1 31.1-10.1 54.4 0 25.3 4 45.8 11.6 62s18 24.3 31.6 24.3c13.2 0 23.3-6.6 29.6-19.5s10.1-29.6 10.1-51.1z"/><path id="r" class="cls-1" d="M1195.22 1253.9c7.1-13.9 14.9-24.6 24-31.6a47 47 0 0 1 30.4-10.1c10.4 0 18.7 2.8 25.3 8.9a32.23 32.23 0 0 1 9.4 22.8 26.39 26.39 0 0 1-6.8 18.5 22.24 22.24 0 0 1-16.7 7.6 18.56 18.56 0 0 1-11.9-3.5 44.26 44.26 0 0 1-10.1-13.4c-5.1-9.1-9.4-13.7-13.4-13.7-5.1 0-10.9 5.3-17.5 15.4-6.3 10.6-9.6 30.9-9.6 60.7 0 38 1.5 59 4 63.3s7.8 6.1 17 6.1c7.6 0 11.1 2.3 11.1 6.6 0 3.5-3.5 5.8-11.1 5.8a110.81 110.81 0 0 1-18.2-1.5 195.16 195.16 0 0 0-20.2-1c-13.7 0-27.3.8-40.7 1.8-5.8.5-9.1.5-10.1.5-5.8 0-8.6-2.3-8.6-6.6 0-3.5 3-5.8 10.1-5.8s11.1-1.8 13.9-4.8 4-8.9 4-18.7l.8-51.9c0-10.6-.5-23.5-1-39.5-.5-1.8 0-11.9-1.3-23.5-1.8-18.5-3.8-13.4-12.9-18.7a5.73 5.73 0 0 1-1.8-4.8c0-4 3.5-5.8 10.4-5.8 12.7-.3 19.5-1.3 50.4-4.6z"/><path id="gg" class="cls-1" d="M1056.62 1230.9c16.2-14.4 30.6-21.8 43-21.8a27.89 27.89 0 0 1 19.7 7.3 20.18 20.18 0 0 1 8.1 16.2 20.83 20.83 0 0 1-5.6 14.2 19 19 0 0 1-14.7 6.1c-8.6 0-15.2-4.6-19.2-14.2-2.5-6.1-5.1-9.4-7.6-9.4s-8.3 3.3-16.2 10.1a67.53 67.53 0 0 1 10.89 35.9 61.64 61.64 0 0 1-11.4 35.7c-7.6 10.9-16.4 18.7-27.1 23-10.9 4.8-25.6 8.1-45.6 9.9-16.4 1.5-26.6 4.1-30.4 7.6-3.5 4-5.8 7.8-5.8 12.7 0 5.3 4 9.1 11.6 10.9s28.3 2.8 62.3 4c52.4 1.3 78.4 18.7 78.4 51.1 0 22.3-9.9 40.5-29.3 55.4-19.5 14.4-49.1 22-88.6 22-29.6 0-50.9-4.3-64.3-12.9s-19.5-19-19.5-30.9a37.79 37.79 0 0 1 15.9-31.1c10.6-8.6 27.1-15.4 48.3-20.2-16.2-1.8-28.6-5.1-37-10.6a24.92 24.92 0 0 1-12.1-22.5 32.76 32.76 0 0 1 11.4-25c7.6-6.8 19.2-11.9 34.2-15.4-15.7-5.1-27.6-11.9-35.4-21.3a52.85 52.85 0 0 1-11.9-34.7c0-20.2 7.8-37.2 23.8-51.1s36.2-20.2 59.7-20.2a90 90 0 0 1 30.4 4.8 64.74 64.74 0 0 1 24 14.4m-87.9 43.7c0 17.7 2.8 31.4 8.9 41.3s13.2 14.7 21.5 14.7a21.49 21.49 0 0 0 19.5-12.7c4.3-8.3 6.6-21 6.6-37.4 0-17.7-2.5-31.9-8.1-42-5.1-10.1-11.9-15.2-19.7-15.2-8.4 0-15.2 4.3-20.8 13.7s-7.9 21.6-7.9 37.6m-22.5 184c0 9.4 4.8 17.7 14.2 24.8s22.3 10.6 39.7 10.6c20.5 0 37.7-4.8 51.4-14.2s20.5-20.5 20.5-33.7c0-10.1-5.3-18-16.4-22.8a107.81 107.81 0 0 0-42-7.6c-20.8 0-37 4.3-48.8 12.4-12.5 8-18.6 18.6-18.6 30.5z"/><path id="r-2" class="cls-1" d="M753.12 1253.9c6.8-13.9 14.9-24.6 24-31.6a49 49 0 0 1 29.9-10.1c10.9 0 19.2 2.8 25.3 8.9a31.17 31.17 0 0 1 9.9 22.8 27.32 27.32 0 0 1-6.8 18.5 22.6 22.6 0 0 1-16.7 7.6 18 18 0 0 1-11.9-3.5 44.26 44.26 0 0 1-10.1-13.4c-5.1-9.1-9.4-13.7-13.4-13.7-5.1 0-10.9 5.3-17.5 15.4-6.3 10.6-9.6 30.9-9.6 60.7 0 38 1 59 3.5 63.3s8.3 6.1 17 6.1c7.6 0 11.6 2.3 11.6 6.6 0 3.5-3.5 5.8-11.1 5.8a110.81 110.81 0 0 1-18.2-1.5 201 201 0 0 0-20.5-1c-13.9 0-27.1.8-41 1.8-5.3.5-8.9.5-9.6.5-5.8 0-8.9-2.3-8.9-6.6 0-3.5 3.3-5.8 10.1-5.8s11.4-1.8 13.9-4.8 3.8-8.9 3.8-18.7l1.3-51.9c0-10.6-.5-23.5-1.5-39.5s-1.5-25.1-2.3-27.8a13.54 13.54 0 0 0-5.3-8.1 17.72 17.72 0 0 0-11.6-4.3 25.33 25.33 0 0 1-9.4-1.8 5.23 5.23 0 0 1-1.8-4.6c0-4 3.3-5.8 10.1-5.8 12.9-.5 34.7-1.8 65.5-5.1z"/><path id="e" class="cls-1" d="M572.52 1300v8.6c0 20 4.6 36.4 14.2 50.4a46.78 46.78 0 0 0 39.2 20.3c16.7 0 33.4-7.3 49.6-21.8a15.24 15.24 0 0 1 6.8-4.3c3.8 0 5.6 1.8 5.6 5.8 0 2.8-4 8.1-12.4 16.2a81.81 81.81 0 0 1-30.6 18 117.87 117.87 0 0 1-37.7 6.3c-28.1 0-50.1-8.9-66.6-26.1a87 87 0 0 1-23.8-61.2c0-28.1 9.1-51.9 27.6-70.9s41-28.3 68.8-28.3c25.8 0 45.3 8.1 59 25.8s20.2 33.7 20.2 49.6c0 4.8-1.3 8.1-3.8 8.6-2.5 1.3-11.4 1.5-25.8 1.5zm1.5-15.2c20.2 0 32.1.3 35.4.3 15.9 0 25.3-1 28.9-3.3s5.3-6.8 5.3-13.7a47.33 47.33 0 0 0-9.6-29.9c-6.8-9.1-14.4-13.4-23.5-13.4-21.3 0-33.7 20.2-36.5 60z"/><path id="v" class="cls-1" d="M460.42 1339.2q13.65-28.5 25.3-60.5c7.8-21.3 11.6-34.9 11.6-40s-3.3-8.9-9.9-10.6c-6.1-1.5-8.9-4-8.9-7.1s2.3-5.1 7.6-5.1h53.6c4.6 0 6.6 2 6.6 5.8 0 3-2.8 4.8-8.6 5.8-13.4 2.3-24.3 14.4-32.9 36.4-10.1 25.8-19.5 49.3-28.6 70.9s-15.9 37.2-21 46.8a46.1 46.1 0 0 1-5.8 10.4 5.51 5.51 0 0 1-3.5 1c-1.7 0-3.5-1.3-5.3-3.8a316.78 316.78 0 0 1-18.5-38.5l-40.2-95.4c-6.8-16.2-5.3-22-26.1-26.8-8.6-6.3 1.5-11.1 10.6-11.4l51.6-1.5c9.1-.3 13.7 1.8 13.7 4.8 0 3.8-2.5 6.1-7.6 6.8-7.1.8-10.9 3.8-10.9 10.1 0 3.5 5.8 17.7 17.5 43 11.7 24.9 21.8 44.4 29.7 58.9z"/><path id="aa" class="cls-1" d="M97 1374.6a96 96 0 0 1-26.1 18.5 58.88 58.88 0 0 1-26.3 6.3c-14.2 0-24.8-4.6-32.9-12.7A47 47 0 0 1 0 1355.6a45.08 45.08 0 0 1 7.1-25.3 53.28 53.28 0 0 1 17.2-17.5c6.8-4.3 18.5-9.1 34.4-14.7 12.9-4.8 22-8.3 26.3-11.4a31 31 0 0 0 11.6-11.4 46.79 46.79 0 0 0 4.6-20.8 32.8 32.8 0 0 0-7.1-21.5c-4.3-5.8-10.9-8.3-18.7-8.3-7.1 0-12.2 1.8-14.9 5.1a39.36 39.36 0 0 0-6.6 17.2c-3.3 15.9-11.9 24-25.6 24a23 23 0 0 1-14.4-5.1 17.26 17.26 0 0 1-6.3-14.7c0-13.2 7.3-23 21.8-29.9s31.9-9.9 52.1-9.9c17.2 0 31.4 2.5 42.3 8.1s17.7 11.1 21 18.5c2.8 6.8 4.6 17.7 4.6 32.4l-.5 49.1c0 26.1 1 42.8 2.8 49.8 1.5 7.6 5.3 11.4 10.9 11.4a8.28 8.28 0 0 0 3.5-.5c2.5 0 4.8-.3 5.6-.3 5.6 0 8.6 1.5 8.6 4.6a6.23 6.23 0 0 1-3.5 5.6c-2.5 1.5-9.4 3.3-21.5 5.3a173.68 173.68 0 0 1-32.1 3.8c-9.4 0-16.2-2-19.5-5.8s-6-9.7-6.7-18.8m2.9-83c-3.8 4-11.6 9.4-24.3 15.9-11.1 6.1-19.2 11.4-23 16.2s-5.8 11.9-5.8 21c0 9.6 2 17.2 6.1 22.3a18.94 18.94 0 0 0 15.2 7.6c7.8 0 15.4-3.8 22.5-11.1s10.4-20.5 10.4-39.2c0-5.9-.3-16.8-1.1-32.7z"/><path id="g" class="cls-2" d="M1191.42 651.2l-1.8-96.2c34.2-1.3 68.3-2.5 102.5-1.8 31.1 1 62.3 3.3 94.9 7.6 100.5 13.7 165.8 65 197.9 129.3a221.28 221.28 0 0 1 23 109.3 239.47 239.47 0 0 1-32.4 109.6c-40.7 71.1-119.9 127.5-236.1 137.2a559.79 559.79 0 0 1-77.7 1.8c-86.8-3.8-157.7-28.8-208.3-75.4-51.1-47.1-82-115.7-89.6-206.5-6.8-79-1.5-172.6-1.5-253.3 0-81.7 16.7-149.6 45.3-203.5 28.1-52.6 68.1-92.6 115.6-118.4 47.3-26.6 102.2-39.5 160.9-39.5 83 0 160.9 25.3 233.6 64V328c-11.6 2-23.3 3.8-34.7 5.6-15.2-47.8-48.1-73.4-95.9-86.5a220.27 220.27 0 0 0-95.9-3.8 216 216 0 0 0-93.6 39.7c-90.3 67.8-84 161.2-86.6 260.6-3.8 127.5-8.9 319.4 53.4 368.5 34.7 31.1 92.1 48.8 138.2 44.8 56.7-4.3 100-32.4 127.5-70.6a193.26 193.26 0 0 0 33.2-81.7 160.22 160.22 0 0 0-7.6-84c-13.2-34.7-39.7-63-80.5-77.7-24.6-8.1-61.7-17.2-95.2-15.4-24.6 1-43 7.3-59.7 25.6-9.4-.7-19.3-1.2-28.9-1.9z"/><path id="a" class="cls-3" d="M757.22 619.7L704 622.2h-.3c-13.4.3-27.6.8-41.8.8-54.2.8-108.3 1.5-158.9 18.7a128.89 128.89 0 0 0-80.7 77.4 162.66 162.66 0 0 0-7.8 83.8 193.19 193.19 0 0 0 33.2 82 171.86 171.86 0 0 0 127.5 70.9 203 203 0 0 0 73.9-8.6 177.2 177.2 0 0 0 62.5-34.7l.3-.5c60.5-48 55.1-126.2 49.3-214.6-1.8-25.3-3.8-51.3-4-77.7m-265.7-60c35.7-4.8 71.1-4.8 107-4.3 33.9 0 67.8.3 101.2-4a110.46 110.46 0 0 0 29.9-7.6 60.63 60.63 0 0 0 19.7-12.9 55.62 55.62 0 0 0 10.6-21 129.41 129.41 0 0 0 4-33.9c0-90.6-33.9-151.1-81.2-187a204.46 204.46 0 0 0-92.6-39 224.39 224.39 0 0 0-96.1 5c-49.6 13.7-85 40.5-101 90.3-11.4-1.8-23-3.5-34.7-5.3V227.2c74.9-40.2 156.1-66.6 241.7-66.6 56.9 0 110.8 12.4 157.2 37.7A278.73 278.73 0 0 1 870 313.2c27.8 52.6 43.8 118.9 43.8 199.4V692c.5 12.9 1 25.8 1.3 38.5 3.8 110.6 6.6 204 113.6 289.3l15.4 12.7-19.5 3.3c-58.2 10.4-101.2 6.6-133.6-7.6-28.6-12.4-48.8-32.9-63-58.2a239 239 0 0 1-52.9 38.7 275 275 0 0 1-77.7 27.1 608.09 608.09 0 0 1-78.4 9.6 527.66 527.66 0 0 1-80.5-.5c-115.9-9.9-195.4-65.8-236.1-137.2a243.59 243.59 0 0 1-32.1-109.3 223.49 223.49 0 0 1 23-109.3c31.9-64.5 97.7-115.7 198.2-129.4z"/><path class="cls-4" d="M2079.62 1597.6h-21.3V50.3h21.3z"/><path class="cls-5" d="M2058.32 1597.6h-21.8V50.3h21.8z"/><path class="cls-6" d="M2036.52 1597.6h-36.3V50.3h36.3z"/><text class="cls-7" transform="translate(2186.09 279.98)">outdoor</text><text class="cls-7" transform="translate(2190.85 891.69)">print</text><text class="cls-7" transform="translate(2186.09 585.84)">indesign</text><g class="cls-8"><text class="cls-9" transform="translate(2190.85 1503.4)">p</text><text class="cls-9" transform="translate(2396.39 1503.4)">r</text><text class="cls-7" transform="translate(2554.01 1503.4)">oduction</text></g><g class="cls-8"><text class="cls-7" transform="translate(2186.09 1247.55)">w</text><text class="cls-7" transform="translate(2457.19 1247.55)">e</text><text class="cls-7" transform="translate(2644.48 1247.55)">b</text></g></g></g></svg>