<svg xmlns="http://www.w3.org/2000/svg" viewBox="0 0 708.13 270.11"><defs><style>.cls-1{fill:#e94e1b;}.cls-2,.cls-3{fill:#1f3d8a;}.cls-2{fill-rule:evenodd;}</style></defs><title>logo11</title><g id="Слой_2" data-name="Слой 2"><g id="Слой_1-2" data-name="Слой 1"><path class="cls-1" d="M196.75,58.19c-2,0-3.57,2.18-3.57,4.88a5.88,5.88,0,0,0,.94,3.26c-5.23,4.89-16.67,14.22-25.7,11.73s-7.07-27.5-5.52-39.49a3.51,3.51,0,0,0,.65.09c2.55,0,4.6-2.82,4.6-6.29s-2.05-6.27-4.6-6.27-4.6,2.81-4.6,6.27a7,7,0,0,0,2.11,5.27C156,47.21,145,66.09,137.24,66.53c-8.12.48-14.47-35.44-16.86-51.22C123,14.64,125,11.5,125,7.72,125,3.45,122.47,0,119.35,0s-5.67,3.45-5.67,7.72c0,3.81,2,7,4.68,7.6C116,31.1,109.62,67,101.5,66.53c-7.74-.44-18.71-19.28-23.8-28.86a7,7,0,0,0,2.14-5.3c0-3.46-2.06-6.27-4.6-6.27s-4.6,2.81-4.6,6.27,2.06,6.29,4.6,6.29a3,3,0,0,0,.6-.09c1.55,12,3.63,37-5.53,39.49s-21-7.25-26-12A6.05,6.05,0,0,0,45,63.07c0-2.7-1.59-4.88-3.56-4.88s-3.57,2.18-3.57,4.88,1.6,4.86,3.57,4.86a2.84,2.84,0,0,0,1.82-.7,93.83,93.83,0,0,1,5,20.94H190.45a94.32,94.32,0,0,1,4.88-20.64,2.74,2.74,0,0,0,1.42.4c2,0,3.57-2.18,3.57-4.86S198.72,58.19,196.75,58.19Z"/><polygon class="cls-2" points="80.44 111.34 59.47 148.11 113.99 270.11 41.55 149.84 65.57 109.61 52.23 113.5 25.92 148.11 104.45 267.09 0 149.41 46.6 96.63 113.91 96.66 80.44 111.34"/><polygon class="cls-2" points="156.28 111.03 177.25 147.81 122.73 269.81 195.17 149.54 171.15 109.3 184.49 113.19 210.8 147.81 132.26 266.78 236.72 149.1 190.02 96.54 123.39 96.61 156.28 111.03"/><path class="cls-1" d="M131.12,158.22q-2.88,17.35-18.48,17.35-10.89,0-17-7.65-5.7-7-5.7-18.2,0-10.18,5.91-16.86,6.11-7,16.16-7a20,20,0,0,1,12.08,3.79l1.76-2.81h3.23l1,17.15h-3.37q-3.09-14.9-14.4-14.9a11.39,11.39,0,0,0-11,6.84q-2.61,5.22-2.6,13.6,0,9,2.81,14.95,3.72,7.89,11.66,7.89a12.79,12.79,0,0,0,9.91-4.16,18.7,18.7,0,0,0,4.42-10Z"/><path class="cls-1" d="M145.21,197.94H103.9v-3.23H108c1.63,0,2.67-.35,3.09-1.05a4.89,4.89,0,0,0,.35-2.26V156.71a5.69,5.69,0,0,0-.28-2.25c-.42-.71-1.48-1.06-3.16-1.06H103.9v-3.23h22.9v3.23h-4.07c-1.64,0-2.67.35-3.09,1.06a4.69,4.69,0,0,0-.35,2.25v36c0,1.31,1,2,3.09,2h6.18q6.47,0,9.84-4.23,3.09-3.89,3.09-10.52h3.72Z"/><path class="cls-3" d="M317.17,138Q313,163.13,290.4,163.12q-15.79,0-24.65-11.09-8.24-10.18-8.24-26.38,0-14.76,8.55-24.43Q274.93,91,289.48,91A29,29,0,0,1,307,96.53l2.55-4.07h4.68l1.53,24.84h-4.89Q306.38,95.72,290,95.72q-11,0-15.89,9.91-3.77,7.56-3.76,19.71,0,13.08,4.07,21.66,5.4,11.44,16.9,11.44a18.5,18.5,0,0,0,14.36-6q5-5.42,6.41-14.53Z"/><path class="cls-3" d="M456.42,97.14h-1a13.1,13.1,0,0,0-6.87,1.54,14.86,14.86,0,0,0-4.73,5.41l-16.09,27.38v22.68c0,1.91.92,2.86,2.77,2.86h8.43v4.69H405.1V157h8.43c1.85,0,2.77-.95,2.77-2.85V131.61l-21.07-29.17q-3.76-5.3-9.37-5.3h-2.14V92.46h30.14v4.68h-2.95q-3.77,0-3.77,2.84a5.62,5.62,0,0,0,1,2.63l16.36,23.29,11.93-21.39a7.53,7.53,0,0,0,1.12-3.48q0-3.89-4.68-3.89h-1.12V92.46h24.64Z"/><path class="cls-3" d="M510.39,142.32q0,10.5-7.13,15.91-6.42,4.89-17.21,4.89a38.16,38.16,0,0,1-11.2-1.42,43.33,43.33,0,0,1-10-5.09l-3.56,6.51h-4.89V133.7h4.89A34.24,34.24,0,0,0,467.42,149a21.69,21.69,0,0,0,18.43,9.27q6.72,0,10.89-2.75,4.89-3.17,4.89-9.57,0-6.21-5.91-9.47-3.56-1.94-11.5-3.47Q457.54,127.9,457.54,108q0-8.66,8-13.24a31.8,31.8,0,0,1,16-3.77,23.09,23.09,0,0,1,17,6.83l2.85-5.4h4.48v25H501q-3.16-21.69-19.55-21.69-15.37,0-15.38,11.73,0,6,6.22,9.38,4,2.15,13.74,4.38,11.61,2.66,16.5,5.82Q510.38,132.11,510.39,142.32Z"/><path class="cls-3" d="M570.26,119.14h-5.09a29.87,29.87,0,0,0-3.57-14.77q-4.38-7.83-12.22-7.84c-2.24,0-3.36,1.13-3.36,3.37v52.32a8,8,0,0,0,.41,3.26c.61,1,2.14,1.53,4.58,1.53h5.91v4.69h-33.2V157h5.91c2.38,0,3.87-.5,4.48-1.53a6.91,6.91,0,0,0,.51-3.26V99.9c0-2.24-1.12-3.37-3.36-3.37q-7.95,0-12.22,7.74a29.72,29.72,0,0,0-3.56,14.87h-5.09V92.46h59.87Z"/><path class="cls-3" d="M643.94,162.54h-33.7v-4.69h4.58c4,.07,6-1.12,6-3.57a4,4,0,0,0-.28-1.43l-5-11.9h-29l-2.84,7.22a10,10,0,0,0-.78,3.4q0,6.28,7.13,6.28h2.85v4.69H564.11v-4.69h1.22q7.95,0,11.21-7.75l24.63-58.23h5.71l24.84,57.84q3.46,8.14,12.22,8.14Zm-30.49-26.48L601,107l-.58,0-11.87,29Z"/><path class="cls-3" d="M708.13,161.7H648.26V157h5.9q3.57,0,4.48-1.53a6.93,6.93,0,0,0,.51-3.27V102a8.09,8.09,0,0,0-.4-3.27q-.91-1.55-4.59-1.54h-5.9V92.46h33.19v4.68h-5.9q-3.57,0-4.48,1.54a6.93,6.93,0,0,0-.51,3.27v52.2q0,2.86,4.48,2.86h9q9.36,0,14.25-6.13,4.49-5.62,4.48-15.25h5.4Z"/><path class="cls-1" d="M434.51,268.69H374.64V264h5.91c2.37,0,3.87-.51,4.48-1.54a6.93,6.93,0,0,0,.51-3.27V208.94a8,8,0,0,0-.41-3.27c-.61-1-2.14-1.54-4.58-1.54h-5.91v-4.68h33.19v4.68h-5.9c-2.38,0-3.87.52-4.48,1.54a6.93,6.93,0,0,0-.51,3.27v52.21c0,1.9,1.49,2.86,4.48,2.86h9q9.36,0,14.26-6.14,4.47-5.62,4.48-15.25h5.39Z"/><path class="cls-1" d="M514.54,204.13h-2q-9.15,0-9.15,10.81v31.11q0,11.63-6.51,17.84t-18.23,6.22q-27.69,0-27.7-24.37V208.52c0-1.77-.27-2.94-.81-3.52s-1.7-.87-3.46-.87h-6.72v-4.68h33.4v4.68h-6.62q-4.38,0-4.38,3v40.39q0,17.75,16.9,17.75,18.74,0,18.74-19.28V215q0-5.61-2.19-8.21c-1.46-1.74-4-2.61-7.69-2.61h-1.32v-4.68h27.79Z"/><path class="cls-1" d="M597.42,268.69h-33.8V264h1.63a21.32,21.32,0,0,0,5.19-.42,2.92,2.92,0,0,0,2.44-2.91,5.77,5.77,0,0,0-.77-2.92c-.21-.27-.79-1-1.75-2.33l-12.87-17.37-13.61,17.4a7.87,7.87,0,0,0-2,4.84q0,3.7,4.89,3.71h3.66v4.68H520.75V264h1.43q8.34,0,15.17-8.56L554.59,234,536,209.83a14.2,14.2,0,0,0-5.5-4.76,20.46,20.46,0,0,0-7.13-.94v-4.68h31.36v4.68l-3,.11q-5,0-5,2.64a4.73,4.73,0,0,0,1.12,2.65l13,17.72L572.88,212a6.78,6.78,0,0,0,1.63-4.07q0-3.66-5-3.66l-3.86-.11v-4.68h27.59v4.68a15.49,15.49,0,0,0-8.79,2.27,20.69,20.69,0,0,0-4,4.12l-16.27,20.36,19.67,26.3q5,6.82,11.71,6.83h1.83Z"/><path class="cls-3" d="M436.94,166.47c-7.6,3.66-25.64,8-38.2.23-17.86-11-23.69-24-26.65-30.23-1.53-3.23-3.32-6.36-6.2-8.45-.65-.45-1.34-.91-2.1-1.34a34.09,34.09,0,0,0,14-4.39q7.53-4.59,7.53-12.62,0-9.48-10.49-14-7.63-3.25-18.53-3.27H320v4.7h5.9q3.67,0,4.58,1.53a8,8,0,0,1,.42,3.26v50.27a6.93,6.93,0,0,1-.51,3.27c-.63,1-2.11,1.52-4.49,1.52H320v4.7h33.19V157h-5.91c-2.45,0-4-.5-4.58-1.52a8.25,8.25,0,0,1-.41-3.27v-24h8.36a7,7,0,0,1,3.95,1.2,6,6,0,0,1,1.66,1.74c3.49,5.56,17,47.45,59.1,47.47,26.29,0,34-19,34-19S441.19,164.42,436.94,166.47Zm-94.68-65.34c0-2.66,1.51-4,4.48-4h8.36q6.81,0,11,2.75c3.27,2.19,4.89,5.45,4.89,9.81q0,13.61-19.35,13.6h-9.37Z"/></g></g></svg>