<svg xmlns="http://www.w3.org/2000/svg" viewBox="0 0 236.72 352.77"><defs><style>.cls-1{fill:#e94e1b;}.cls-2,.cls-3{fill:#1f3d8a;}.cls-2{fill-rule:evenodd;}</style></defs><title>logo</title><g id="Слой_2" data-name="Слой 2"><g id="Слой_1-2" data-name="Слой 1"><path class="cls-1" d="M196.75,58.19c-2,0-3.57,2.18-3.57,4.88a5.88,5.88,0,0,0,.94,3.26c-5.23,4.89-16.67,14.22-25.7,11.73s-7.07-27.5-5.52-39.49a3.51,3.51,0,0,0,.65.09c2.55,0,4.6-2.82,4.6-6.29s-2.05-6.27-4.6-6.27-4.6,2.81-4.6,6.27a7,7,0,0,0,2.11,5.27C156,47.21,145,66.09,137.24,66.53c-8.12.48-14.47-35.44-16.86-51.22C123,14.64,125,11.5,125,7.72,125,3.45,122.47,0,119.35,0s-5.67,3.45-5.67,7.72c0,3.81,2,7,4.68,7.6C116,31.1,109.62,67,101.5,66.53c-7.74-.44-18.71-19.28-23.8-28.86a7,7,0,0,0,2.14-5.3c0-3.46-2.06-6.27-4.6-6.27s-4.6,2.81-4.6,6.27,2.06,6.29,4.6,6.29a3,3,0,0,0,.6-.09c1.55,12,3.63,37-5.53,39.49s-21-7.25-26-12A6.05,6.05,0,0,0,45,63.07c0-2.7-1.59-4.88-3.56-4.88s-3.57,2.18-3.57,4.88,1.6,4.86,3.57,4.86a2.84,2.84,0,0,0,1.82-.7,93.83,93.83,0,0,1,5,20.94H190.45a94.32,94.32,0,0,1,4.88-20.64,2.74,2.74,0,0,0,1.42.4c2,0,3.57-2.18,3.57-4.86S198.72,58.19,196.75,58.19Z"/><polygon class="cls-2" points="80.44 111.34 59.47 148.11 113.99 270.11 41.55 149.84 65.57 109.61 52.23 113.5 25.92 148.11 104.45 267.09 0 149.41 46.6 96.63 113.91 96.66 80.44 111.34"/><polygon class="cls-2" points="156.28 111.03 177.25 147.81 122.73 269.81 195.17 149.54 171.15 109.3 184.49 113.19 210.8 147.81 132.26 266.78 236.72 149.1 190.02 96.54 123.39 96.61 156.28 111.03"/><path class="cls-1" d="M131.12,158.22q-2.88,17.35-18.48,17.35-10.89,0-17-7.65-5.7-7-5.7-18.2,0-10.18,5.91-16.86,6.11-7,16.16-7a20,20,0,0,1,12.08,3.79l1.76-2.81h3.23l1,17.15h-3.37q-3.09-14.9-14.4-14.9a11.39,11.39,0,0,0-11,6.84q-2.61,5.22-2.6,13.6,0,9,2.81,14.95,3.72,7.89,11.66,7.89a12.79,12.79,0,0,0,9.91-4.16,18.7,18.7,0,0,0,4.42-10Z"/><path class="cls-1" d="M145.21,197.94H103.9v-3.23H108c1.63,0,2.67-.35,3.09-1.05a4.89,4.89,0,0,0,.35-2.26V156.71a5.69,5.69,0,0,0-.28-2.25c-.42-.71-1.48-1.06-3.16-1.06H103.9v-3.23h22.9v3.23h-4.07c-1.64,0-2.67.35-3.09,1.06a4.69,4.69,0,0,0-.35,2.25v36c0,1.31,1,2,3.09,2h6.18q6.47,0,9.84-4.23,3.09-3.89,3.09-10.52h3.72Z"/><path class="cls-3" d="M48.55,299.55q-1.68,10.13-10.79,10.13a12,12,0,0,1-9.92-4.47q-3.33-4.11-3.32-10.63A14.3,14.3,0,0,1,28,284.74a11.9,11.9,0,0,1,9.43-4.1,11.72,11.72,0,0,1,7.06,2.21l1-1.64h1.89l.62,10H46q-1.82-8.7-8.41-8.69a6.65,6.65,0,0,0-6.4,4,17.85,17.85,0,0,0-1.52,7.94,20.37,20.37,0,0,0,1.64,8.72q2.18,4.6,6.81,4.61a7.48,7.48,0,0,0,5.79-2.43,11,11,0,0,0,2.58-5.86Z"/><path class="cls-3" d="M104.64,283.1h-.41a5.29,5.29,0,0,0-2.77.62,6,6,0,0,0-1.91,2.18l-6.48,11v9.13a1,1,0,0,0,1.12,1.15h3.39v1.89H84v-1.89h3.39a1,1,0,0,0,1.12-1.15V297L80,285.23a4.5,4.5,0,0,0-3.77-2.13h-.86v-1.89H87.49v1.89H86.31c-1,0-1.52.38-1.52,1.14a2.31,2.31,0,0,0,.41,1.06l6.59,9.38,4.81-8.61a3.08,3.08,0,0,0,.45-1.4c0-1.05-.63-1.57-1.89-1.57h-.45v-1.89h9.93Z"/><path class="cls-3" d="M126.37,301.3a7.51,7.51,0,0,1-2.87,6.4,11.1,11.1,0,0,1-6.93,2,15.45,15.45,0,0,1-4.51-.58,17.33,17.33,0,0,1-4-2.05l-1.43,2.63h-2V297.82h2a13.76,13.76,0,0,0,2.46,6.16,8.75,8.75,0,0,0,7.42,3.73,7.83,7.83,0,0,0,4.39-1.11,4.29,4.29,0,0,0,2-3.86,4.16,4.16,0,0,0-2.38-3.81,17.19,17.19,0,0,0-4.64-1.39q-10.74-2.06-10.74-10.05a5.82,5.82,0,0,1,3.24-5.33,12.84,12.84,0,0,1,6.44-1.52,9.31,9.31,0,0,1,6.85,2.75l1.15-2.18h1.8v10.05h-2q-1.27-8.73-7.87-8.73-6.2,0-6.2,4.72A4.17,4.17,0,0,0,111,291a24.4,24.4,0,0,0,5.53,1.76,22.39,22.39,0,0,1,6.65,2.35A6.86,6.86,0,0,1,126.37,301.3Z"/><path class="cls-3" d="M150.49,292h-2.05A12,12,0,0,0,147,286a5.43,5.43,0,0,0-4.92-3.16,1.2,1.2,0,0,0-1.35,1.36v21.07a3.26,3.26,0,0,0,.16,1.32c.25.41.86.61,1.85.61h2.38v1.89H131.75v-1.89h2.38c1,0,1.55-.2,1.8-.61a2.76,2.76,0,0,0,.21-1.32V284.21a1.21,1.21,0,0,0-1.36-1.36,5.38,5.38,0,0,0-4.92,3.12,12,12,0,0,0-1.43,6h-2.06V281.21h24.12Z"/><path class="cls-3" d="M180.17,309.44H166.59v-1.89h1.85c1.61,0,2.42-.45,2.42-1.44a1.65,1.65,0,0,0-.11-.57l-2-4.8H157.06l-1.14,2.91a4.06,4.06,0,0,0-.32,1.37c0,1.69,1,2.53,2.87,2.53h1.15v1.89H148v-1.89h.49a4.59,4.59,0,0,0,4.51-3.12L162.94,281h2.3l10,23.29a5,5,0,0,0,4.92,3.28Zm-12.28-10.66-5-11.69h-.24l-4.78,11.7Z"/><path class="cls-3" d="M206,309.1H181.91v-1.89h2.38c1,0,1.56-.2,1.8-.61a2.76,2.76,0,0,0,.21-1.32V285a3.17,3.17,0,0,0-.17-1.31c-.24-.41-.86-.62-1.84-.62h-2.38v-1.89h13.37v1.89H192.9c-1,0-1.56.21-1.8.62a2.74,2.74,0,0,0-.21,1.31v21c0,.77.6,1.15,1.81,1.15h3.6a6.92,6.92,0,0,0,5.75-2.47,9.59,9.59,0,0,0,1.8-6.14H206Z"/><path class="cls-1" d="M95.81,352.2H71.7v-1.89h2.38c1,0,1.55-.2,1.8-.62a2.71,2.71,0,0,0,.21-1.31V328.13a3.2,3.2,0,0,0-.17-1.32c-.24-.41-.86-.62-1.84-.62H71.7v-1.88H85.07v1.88H82.69c-1,0-1.56.21-1.81.62a2.93,2.93,0,0,0-.2,1.32v21c0,.77.6,1.15,1.8,1.15h3.61a6.92,6.92,0,0,0,5.75-2.47,9.61,9.61,0,0,0,1.8-6.14h2.17Z"/><path class="cls-1" d="M128.05,326.19h-.83c-2.45,0-3.68,1.46-3.68,4.36v12.53q0,4.68-2.63,7.19c-1.75,1.67-4.19,2.5-7.34,2.5q-11.16,0-11.15-9.82V328a2.18,2.18,0,0,0-.33-1.42,2,2,0,0,0-1.4-.35H98v-1.88h13.45v1.88h-2.67c-1.17,0-1.76.4-1.76,1.2v16.26q0,7.16,6.81,7.15,7.55,0,7.54-7.76V330.55a5.08,5.08,0,0,0-.88-3.31,3.86,3.86,0,0,0-3.09-1.05h-.54v-1.88h11.2Z"/><path class="cls-1" d="M161.43,352.2H147.82v-1.89h.65a8.71,8.71,0,0,0,2.09-.17,1.17,1.17,0,0,0,1-1.17,2.38,2.38,0,0,0-.31-1.17l-.71-.94-5.18-7-5.49,7a3.17,3.17,0,0,0-.78,1.95c0,1,.66,1.49,2,1.49h1.48v1.89h-12v-1.89h.57c2.25,0,4.28-1.15,6.12-3.44l6.94-8.63-7.48-9.75a5.69,5.69,0,0,0-2.21-1.92,8.24,8.24,0,0,0-2.87-.38v-1.88h12.63v1.88l-1.19.05c-1.34,0-2,.35-2,1.06a1.93,1.93,0,0,0,.45,1.07l5.25,7.13,4.8-6.15a2.73,2.73,0,0,0,.66-1.64c0-1-.68-1.47-2-1.47l-1.56-.05v-1.88h11.11v1.88a6.24,6.24,0,0,0-3.54.92,8.24,8.24,0,0,0-1.6,1.66l-6.56,8.2L156,347.56a5.79,5.79,0,0,0,4.71,2.75h.74Z"/><path class="cls-3" d="M96.79,311c-3.06,1.48-10.33,3.23-15.39.1a26.16,26.16,0,0,1-10.73-12.18,8.52,8.52,0,0,0-2.5-3.4,8.65,8.65,0,0,0-.84-.54A13.79,13.79,0,0,0,73,293.23a5.7,5.7,0,0,0,3-5.08c0-2.55-1.4-4.42-4.22-5.63a19.1,19.1,0,0,0-7.47-1.31H49.67v1.89h2.38c1,0,1.61.21,1.85.62a3.36,3.36,0,0,1,.17,1.31v20.25a2.76,2.76,0,0,1-.21,1.32c-.25.41-.85.61-1.81.61H49.67v1.89H63v-1.89H60.67c-1,0-1.61-.2-1.85-.61a3.2,3.2,0,0,1-.17-1.32v-9.67H62a2.79,2.79,0,0,1,1.59.49,2.24,2.24,0,0,1,.67.7c1.41,2.24,6.85,19.11,23.81,19.12,10.59,0,13.69-7.67,13.69-7.67S98.5,310.2,96.79,311ZM58.65,284.7c0-1.07.61-1.6,1.81-1.6h3.37a7.89,7.89,0,0,1,4.42,1.11,4.43,4.43,0,0,1,2,4q0,5.47-7.79,5.48H58.65Z"/></g></g></svg>