<svg xmlns="http://www.w3.org/2000/svg" viewBox="0 0 579.45 780.88"><defs><style>.cls-1{fill:#e30613;}.cls-2,.cls-3{fill:#fff;}.cls-2{fill-rule:evenodd;}</style></defs><title>marker1</title><g id="Слой_2" data-name="Слой 2"><g id="Слой_1-2" data-name="Слой 1"><g id="ae96eeecd750ec2a83543f00c9bc789d_b" data-name="ae96eeecd750ec2a83543f00c9bc789d  b"><path class="cls-1" d="M296.09,645.51a6.37,6.37,0,0,1-12.72,0q-2.72-59.28-60.28-76.67C96.76,538.8,2.83,425.23,2.83,289.73c0-158.46,128.45-286.9,286.9-286.9s286.89,128.44,286.89,286.9c0,135.5-93.93,249.07-220.26,279.11q-57.56,17.4-60.25,76.67Z"/><path class="cls-1" d="M289.86,654.29h0a9,9,0,0,1-9.32-8.67c-1.76-38.49-20.79-62.72-58.18-74A289.46,289.46,0,0,1,0,289.73,289.73,289.73,0,0,1,494.6,84.86,289.45,289.45,0,0,1,516.08,470.6a291,291,0,0,1-159,101c-37.39,11.34-56.42,35.56-58.15,74.07l-.13,2.71h-.44A9.06,9.06,0,0,1,289.86,654.29ZM289.73,5.67C133.1,5.67,5.67,133.1,5.67,289.73c0,132.18,89.68,245.82,218.08,276.35l.16,0c39.47,11.93,60.43,38.6,62.29,79.26a3.43,3.43,0,0,0,3.65,3.25h0a3.41,3.41,0,0,0,3.4-3.25l.12-2.7h.05c2.63-39.14,23.52-64.89,62.11-76.56l.17,0c128.4-30.53,218.07-144.17,218.07-276.35C573.78,133.1,446.36,5.67,289.73,5.67Z"/></g><g id="ae96eeecd750ec2a83543f00c9bc789d_b-2" data-name="ae96eeecd750ec2a83543f00c9bc789d  b"><path class="cls-1" d="M296.09,645.51a6.37,6.37,0,0,1-12.72,0q-2.72-59.28-60.28-76.67C96.76,538.8,2.83,425.23,2.83,289.73c0-158.46,128.45-286.9,286.9-286.9s286.89,128.44,286.89,286.9c0,135.5-93.93,249.07-220.26,279.11q-57.56,17.4-60.25,76.67Z"/><path class="cls-1" d="M289.86,654.29h0a9,9,0,0,1-9.32-8.67c-1.76-38.49-20.79-62.72-58.18-74A289.46,289.46,0,0,1,0,289.73,289.73,289.73,0,0,1,494.6,84.86,289.45,289.45,0,0,1,516.08,470.6a291,291,0,0,1-159,101c-37.39,11.34-56.42,35.56-58.15,74.07l-.13,2.71h-.44A9.06,9.06,0,0,1,289.86,654.29ZM289.73,5.67C133.1,5.67,5.67,133.1,5.67,289.73c0,132.18,89.68,245.82,218.08,276.35l.16,0c39.47,11.93,60.43,38.6,62.29,79.26a3.43,3.43,0,0,0,3.65,3.25h0a3.41,3.41,0,0,0,3.4-3.25l.12-2.7h.05c2.63-39.14,23.52-64.89,62.11-76.56l.17,0c128.4-30.53,218.07-144.17,218.07-276.35C573.78,133.1,446.36,5.67,289.73,5.67Z"/></g><path class="cls-1" d="M290,780.88a42.1,42.1,0,1,1,42.1-42.1A42.09,42.09,0,0,1,290,780.88Z"/><path class="cls-2" d="M289.44,763.72a24.95,24.95,0,1,0,1.13-49.88h-1.11a24.95,24.95,0,0,0,0,49.88Z"/><path class="cls-3" d="M438,142.14c-3.73,0-6.75,4.13-6.75,9.22a11.18,11.18,0,0,0,1.77,6.17c-9.88,9.26-31.52,26.91-48.59,22.19C367.1,175,371,127.7,374,105a6.49,6.49,0,0,0,1.24.17c4.81,0,8.7-5.32,8.7-11.88S380,81.45,375.2,81.45s-8.7,5.31-8.7,11.87a13.35,13.35,0,0,0,4,10c-9.61,18.09-30.39,53.8-45.05,54.64-15.36.91-27.36-67-31.88-96.88,5-1.26,8.75-7.2,8.75-14.36,0-8.06-4.8-14.59-10.71-14.59s-10.71,6.53-10.71,14.59c0,7.21,3.82,13.16,8.84,14.37-4.53,29.85-16.53,97.78-31.88,96.87-14.64-.84-35.39-36.48-45-54.59a13.25,13.25,0,0,0,4.06-10c0-6.56-3.89-11.87-8.7-11.87s-8.7,5.31-8.7,11.87,3.89,11.88,8.7,11.88a6,6,0,0,0,1.13-.16c2.94,22.68,6.86,69.91-10.45,74.68S159.21,166,149.65,156.94a11.32,11.32,0,0,0,1.42-5.58c0-5.09-3-9.22-6.75-9.22s-6.75,4.13-6.75,9.22,3,9.21,6.75,9.21a5.42,5.42,0,0,0,3.45-1.34,179,179,0,0,1,9.44,39.61H426.06a179.9,179.9,0,0,1,9.24-39,5.21,5.21,0,0,0,2.68.77c3.72,0,6.75-4.13,6.75-9.21S441.7,142.14,438,142.14Z"/><polygon class="cls-2" points="218 242.66 178.35 312.21 281.45 542.95 144.46 315.48 189.89 239.39 164.65 246.75 114.9 312.21 263.43 537.22 65.87 314.66 154.02 214.84 281.32 214.89 218 242.66"/><polygon class="cls-2" points="361.45 242.08 401.1 311.63 298 542.37 434.99 314.9 389.57 238.81 414.8 246.17 464.55 311.63 316.02 536.64 513.58 314.08 425.26 214.67 299.24 214.8 361.45 242.08"/><path class="cls-3" d="M313.85,331.33q-5.44,32.82-34.94,32.82-20.61,0-32.16-14.48Q236,336.38,236,315.25q0-19.28,11.16-31.89,11.55-13.29,30.56-13.29a37.79,37.79,0,0,1,22.86,7.17l3.32-5.31H310l2,32.42h-6.37q-5.85-28.17-27.25-28.17-14.34,0-20.73,12.93-4.9,9.87-4.91,25.73,0,17.07,5.31,28.27Q265.09,358,280.1,358q11.56,0,18.74-7.88,6.51-7.08,8.37-19Z"/><path class="cls-3" d="M340.51,406.46H262.38v-6.12h7.71q4.65,0,5.84-2c.45-.72.67-2.14.67-4.27v-65.6a10.6,10.6,0,0,0-.53-4.27q-1.2-2-6-2h-7.71V316.1H305.7v6.11H298q-4.65,0-5.85,2a9.14,9.14,0,0,0-.66,4.27v68.13q0,3.74,5.85,3.73H309q12.23,0,18.6-8,5.85-7.33,5.85-19.89h7Z"/></g></g></svg>