<svg width="173" height="178" viewBox="0 0 173 178" fill="none" xmlns="http://www.w3.org/2000/svg">
<path d="M99.2974 0.593317L33.2551 38.7228C32.5455 39.1859 31.9549 39.8097 31.5312 40.5435C31.1075 41.2774 30.8626 42.1007 30.8164 42.9469V116.564C30.8618 117.411 31.1063 118.234 31.53 118.968C31.9538 119.702 32.5448 120.326 33.2551 120.788L99.2974 158.924C100.053 159.307 100.889 159.507 101.736 159.507C102.584 159.507 103.419 159.307 104.175 158.924L170.262 120.788C170.972 120.326 171.563 119.702 171.987 118.968C172.411 118.234 172.655 117.411 172.701 116.564V42.9469C172.655 42.1007 172.41 41.2774 171.986 40.5435C171.562 39.8097 170.972 39.1859 170.262 38.7228L104.214 0.593317C103.453 0.203372 102.611 0 101.756 0C100.901 0 100.058 0.203372 99.2974 0.593317V0.593317Z" fill="#37474F"/>
<path d="M101.759 80.2541V159.504C100.911 159.527 100.071 159.333 99.3199 158.94L33.272 120.811C32.5623 120.348 31.9717 119.724 31.548 118.99C31.1244 118.256 30.8795 117.433 30.8333 116.587V42.9469C30.8789 42.1502 31.0987 41.3731 31.4773 40.6705C31.8558 39.9679 32.3839 39.3569 33.0241 38.8805C31.9315 39.6634 32.016 40.8123 33.272 41.5389L99.2973 79.6684C100.054 80.0718 100.901 80.2735 101.759 80.2541V80.2541Z" fill="#263238"/>
<path d="M170.262 38.7228L104.214 0.593363C103.459 0.209929 102.623 0.0101013 101.776 0.0101013C100.928 0.0101013 100.093 0.209929 99.3369 0.593363L33.2947 38.7228C31.9486 39.5001 31.9486 40.7617 33.2947 41.5389L99.2975 79.6684C100.053 80.0518 100.889 80.2516 101.736 80.2516C102.584 80.2516 103.419 80.0518 104.175 79.6684L170.262 41.5389C171.586 40.7617 171.586 39.5001 170.262 38.7228Z" fill="#455A64"/>
<path d="M107.548 83.0138L166.883 48.7592C167.553 48.3706 168.099 48.686 168.099 49.4632V115.359C168.076 115.782 167.954 116.193 167.743 116.56C167.531 116.927 167.237 117.239 166.883 117.471L107.548 151.697C106.878 152.086 106.332 151.776 106.332 150.993V85.1258C106.354 84.7028 106.475 84.2909 106.687 83.9239C106.898 83.5568 107.194 83.245 107.548 83.0138V83.0138Z" fill="#263238"/>
<path d="M107.458 85.1259C107.481 84.9026 107.552 84.6868 107.664 84.4926C107.777 84.2984 107.929 84.1304 108.112 83.9994L166.967 50.0152V115.348C166.943 115.571 166.873 115.786 166.76 115.98C166.648 116.174 166.496 116.343 166.314 116.474L107.458 150.453V85.1259Z" fill="#37474F"/>
<path d="M106.54 88.8768L119.421 81.4255C119.55 81.3535 119.695 81.3157 119.843 81.3157C119.991 81.3157 120.137 81.3535 120.266 81.4255L122.35 82.6308L108.833 90.1778L106.54 88.8768Z" fill="#455A64"/>
<path d="M122.558 83.1151V91.9914C122.543 92.2442 122.469 92.49 122.342 92.7091C122.215 92.9282 122.038 93.1145 121.826 93.253L108.827 100.761V90.1947L121.826 82.6927C122.226 82.4618 122.558 82.6477 122.558 83.1151Z" fill="#263238"/>
<path d="M106.54 88.8768L108.827 90.1947V100.766L106.54 99.4427V88.8768Z" fill="black"/>
<path d="M114.335 91.0564C114.966 90.6903 115.462 90.9832 115.462 91.7154C115.441 92.1107 115.329 92.4959 115.133 92.8401C114.938 93.1843 114.664 93.4781 114.335 93.6979C113.704 94.0583 113.209 93.7655 113.209 93.0333C113.228 92.6385 113.34 92.2538 113.536 91.9104C113.732 91.5669 114.005 91.2744 114.335 91.0564V91.0564Z" fill="#455A64"/>
<path d="M118.914 88.415C119.545 88.0489 120.04 88.3418 120.04 89.074C120.02 89.4693 119.908 89.8545 119.712 90.1987C119.517 90.5429 119.243 90.8367 118.914 91.0565C118.278 91.4169 117.788 91.1241 117.788 90.3919C117.808 89.9973 117.92 89.6129 118.116 89.2696C118.312 88.9263 118.585 88.6336 118.914 88.415V88.415Z" fill="#455A64"/>
<path d="M106.326 89.0008L103.161 90.8312C102.733 91.0784 102.247 91.2085 101.753 91.2085C101.259 91.2085 100.773 91.0784 100.345 90.8312L98.0302 89.4964C97.902 89.4217 97.7562 89.3823 97.6078 89.3823C97.4594 89.3823 97.3136 89.4217 97.1854 89.4964L95.1128 90.6904L100.345 93.4727C100.773 93.7199 101.259 93.85 101.753 93.85C102.247 93.85 102.733 93.7199 103.161 93.4727L108.613 90.3243L106.326 89.0008Z" fill="#455A64"/>
<path d="M95.6196 101.313L100.345 104.044C100.773 104.291 101.259 104.421 101.753 104.421C102.247 104.421 102.733 104.291 103.161 104.044L108.613 100.896V90.3242L103.161 93.4726C102.733 93.7198 102.247 93.8499 101.753 93.8499C101.259 93.8499 100.773 93.7198 100.345 93.4726L95.6196 90.7466C95.2197 90.5157 94.8875 90.7016 94.8875 91.169V100.045C94.9016 100.299 94.9753 100.546 95.1025 100.766C95.2297 100.986 95.4068 101.173 95.6196 101.313V101.313Z" fill="#37474F"/>
<path d="M101.77 104.416C102.261 104.417 102.743 104.286 103.167 104.038L108.618 100.89V90.3242L103.167 93.4726C102.743 93.7206 102.261 93.8509 101.77 93.8499V104.416Z" fill="#263238"/>
<path d="M106.54 133.804L119.421 126.37C119.549 126.295 119.695 126.256 119.843 126.256C119.992 126.256 120.138 126.295 120.266 126.37L122.35 127.575L108.833 135.122L106.54 133.804Z" fill="#455A64"/>
<path d="M122.558 128.026V136.902C122.544 137.156 122.47 137.403 122.343 137.623C122.216 137.843 122.039 138.03 121.826 138.169L108.827 145.671V135.105L121.826 127.609C122.226 127.372 122.558 127.558 122.558 128.026Z" fill="#263238"/>
<path d="M106.54 133.787L108.827 135.105V145.671L106.54 144.353V133.787Z" fill="black"/>
<path d="M114.335 135.961C114.966 135.595 115.462 135.894 115.462 136.62C115.443 137.016 115.331 137.402 115.135 137.746C114.939 138.091 114.665 138.384 114.335 138.603C113.704 138.969 113.209 138.676 113.209 137.944C113.229 137.549 113.341 137.163 113.537 136.819C113.733 136.475 114.006 136.181 114.335 135.961V135.961Z" fill="#455A64"/>
<path d="M118.914 133.32C119.545 132.954 120.04 133.252 120.04 133.979C120.021 134.374 119.909 134.76 119.713 135.104C119.518 135.449 119.244 135.742 118.914 135.961C118.278 136.327 117.788 136.035 117.788 135.302C117.807 134.907 117.92 134.522 118.115 134.177C118.311 133.833 118.584 133.539 118.914 133.32Z" fill="#455A64"/>
<path d="M106.326 133.911L103.161 135.742C102.733 135.989 102.247 136.119 101.753 136.119C101.259 136.119 100.773 135.989 100.345 135.742L98.0302 134.407C97.902 134.332 97.7562 134.293 97.6078 134.293C97.4594 134.293 97.3136 134.332 97.1854 134.407L95.1128 135.601L100.345 138.383C100.773 138.63 101.259 138.76 101.753 138.76C102.247 138.76 102.733 138.63 103.161 138.383L108.613 135.235L106.326 133.911Z" fill="#455A64"/>
<path d="M95.6196 146.223L100.345 148.949C100.773 149.196 101.259 149.326 101.753 149.326C102.247 149.326 102.733 149.196 103.161 148.949L108.613 145.801V135.235L103.161 138.383C102.733 138.63 102.247 138.76 101.753 138.76C101.259 138.76 100.773 138.63 100.345 138.383L95.6196 135.657C95.2197 135.421 94.8875 135.612 94.8875 136.08V144.956C94.9025 145.209 94.9766 145.456 95.1037 145.676C95.2308 145.896 95.4074 146.083 95.6196 146.223V146.223Z" fill="#37474F"/>
<path d="M101.77 149.326C102.26 149.324 102.742 149.194 103.167 148.949L108.618 145.801V135.235L103.167 138.383C102.741 138.626 102.26 138.756 101.77 138.761V149.326Z" fill="#263238"/>
<path d="M146.449 90.9607L146.832 90.2961L144.506 88.95H144.461C142.603 87.9137 140.057 88.077 137.241 89.7047C131.558 92.9882 126.945 100.969 126.945 107.536C126.945 110.758 128.072 113.033 129.863 114.137L129.93 114.176L129.998 114.216L132.324 115.562L132.713 114.88C134.31 114.808 135.862 114.325 137.218 113.478C142.907 110.194 147.514 102.214 147.514 95.6466C147.571 94.0188 147.204 92.4041 146.449 90.9607V90.9607Z" fill="#263238"/>
<path d="M147.148 107.288C151.168 100.325 151.169 92.7988 147.15 90.4784C143.131 88.1579 136.614 91.9218 132.593 98.8853C128.573 105.849 128.572 113.375 132.591 115.695C136.61 118.016 143.128 114.252 147.148 107.288Z" fill="#263238"/>
<path d="M146.776 107.078C150.796 100.115 150.797 92.5885 146.778 90.268C142.759 87.9476 136.242 91.7115 132.221 98.675C128.201 105.638 128.2 113.165 132.219 115.485C136.238 117.805 142.755 114.042 146.776 107.078Z" fill="#37474F"/>
<path d="M140.558 94.9426C140.327 95.0271 140.187 94.8356 140.243 94.5146L140.716 91.7774C140.74 91.6236 140.799 91.4775 140.889 91.3505C140.979 91.2234 141.097 91.119 141.234 91.0452C141.459 90.9607 141.606 91.1522 141.55 91.4732L141.076 94.2048C141.053 94.3596 140.994 94.5068 140.904 94.6349C140.814 94.7629 140.696 94.8683 140.558 94.9426V94.9426Z" fill="#BA68C8"/>
<path d="M136.678 97.8995C136.651 97.9134 136.622 97.9215 136.593 97.9232C136.563 97.925 136.533 97.9204 136.506 97.9097C136.478 97.899 136.453 97.8826 136.432 97.8614C136.411 97.8402 136.395 97.8148 136.385 97.7869L135.619 95.9959C135.585 95.846 135.589 95.6903 135.629 95.5421C135.669 95.394 135.745 95.2578 135.85 95.1454C136.069 94.8863 136.317 94.8526 136.413 95.0609L137.179 96.852C137.212 97.0009 137.209 97.1558 137.169 97.3031C137.128 97.4504 137.053 97.5855 136.948 97.6968C136.879 97.789 136.785 97.8594 136.678 97.8995V97.8995Z" fill="#BA68C8"/>
<path d="M133.715 102.997C133.674 103.004 133.632 103.004 133.591 102.997L131.902 102.833C131.699 102.833 131.637 102.529 131.761 102.197C131.885 101.864 132.149 101.634 132.324 101.634L134.014 101.797C134.211 101.797 134.278 102.101 134.155 102.433C134.122 102.552 134.067 102.662 133.992 102.759C133.916 102.856 133.822 102.937 133.715 102.997V102.997Z" fill="#BA68C8"/>
<path d="M130.798 109.817C130.618 109.885 130.482 109.789 130.471 109.564C130.471 109.404 130.506 109.247 130.574 109.102C130.643 108.958 130.742 108.831 130.865 108.73L132.865 107.204C133.101 107.023 133.31 107.102 133.327 107.384C133.326 107.543 133.29 107.7 133.222 107.844C133.154 107.988 133.055 108.116 132.932 108.217L130.927 109.744C130.889 109.775 130.845 109.8 130.798 109.817V109.817Z" fill="#BA68C8"/>
<path d="M132.746 114.39C132.712 114.41 132.673 114.421 132.634 114.421C132.594 114.421 132.555 114.41 132.521 114.39C132.369 114.272 132.392 113.923 132.572 113.613L134.104 110.977C134.284 110.668 134.554 110.515 134.706 110.634C134.859 110.752 134.836 111.107 134.656 111.417L133.129 114.047C133.041 114.199 132.907 114.319 132.746 114.39V114.39Z" fill="#BA68C8"/>
<path d="M137.123 114.801C136.892 114.886 136.751 114.694 136.807 114.373L137.28 111.642C137.303 111.488 137.362 111.341 137.45 111.213C137.539 111.085 137.657 110.979 137.793 110.904C138.024 110.82 138.165 111.011 138.108 111.332L137.635 114.069C137.611 114.222 137.552 114.368 137.463 114.495C137.375 114.621 137.258 114.726 137.123 114.801V114.801Z" fill="#BA68C8"/>
<path d="M142.237 110.904C142.21 110.918 142.181 110.926 142.151 110.927C142.121 110.928 142.091 110.923 142.063 110.912C142.035 110.901 142.01 110.884 141.99 110.862C141.969 110.84 141.954 110.814 141.944 110.786L141.178 109.023C141.145 108.874 141.148 108.719 141.188 108.572C141.229 108.424 141.304 108.289 141.409 108.178C141.629 107.919 141.882 107.88 141.972 108.094L142.732 109.879C142.766 110.029 142.762 110.185 142.722 110.333C142.682 110.481 142.606 110.617 142.501 110.729C142.428 110.807 142.337 110.867 142.237 110.904Z" fill="#BA68C8"/>
<path d="M146.145 104.179C146.104 104.187 146.062 104.187 146.021 104.179L144.332 104.016C144.135 104.016 144.073 103.712 144.197 103.38C144.321 103.047 144.58 102.816 144.76 102.816L146.45 102.98C146.652 102.98 146.714 103.284 146.59 103.616C146.521 103.854 146.361 104.056 146.145 104.179Z" fill="#BA68C8"/>
<path d="M145.351 98.7217C145.177 98.7893 145.041 98.6879 145.025 98.4627C145.026 98.3042 145.061 98.1479 145.13 98.0048C145.198 97.8618 145.296 97.7354 145.419 97.6347L147.424 96.1028C147.66 95.9226 147.863 96.0071 147.886 96.2887C147.882 96.4466 147.845 96.6019 147.777 96.7446C147.709 96.8872 147.612 97.0139 147.491 97.1166L145.481 98.6485C145.441 98.6789 145.398 98.7036 145.351 98.7217V98.7217Z" fill="#BA68C8"/>
<path d="M143.87 95.258C143.836 95.2778 143.797 95.2882 143.757 95.2882C143.718 95.2882 143.679 95.2778 143.645 95.258C143.493 95.1397 143.515 94.7905 143.695 94.4808L145.222 91.8449C145.402 91.5352 145.672 91.3831 145.83 91.5014C145.988 91.6197 145.959 91.9745 145.779 92.2843L144.247 94.9145C144.161 95.0659 144.029 95.1861 143.87 95.258V95.258Z" fill="#BA68C8"/>
<path d="M144.495 96.7675C143.515 95.3144 141.645 95.0215 139.499 96.2606C136.345 98.0854 133.783 102.523 133.783 106.167C133.783 108.775 135.089 110.262 136.988 110.245L141.386 110.347L146.923 100.209L144.495 96.7675Z" fill="#263238"/>
<path d="M143.228 99.9271C141.988 100.741 140.957 101.836 140.219 103.123C139.482 104.409 139.057 105.852 138.981 107.333C138.981 110.054 140.891 111.152 143.245 109.795C144.486 108.985 145.518 107.895 146.259 106.612C147 105.329 147.428 103.89 147.508 102.411C147.508 99.6736 145.599 98.5697 143.228 99.9271Z" fill="#455A64"/>
<path d="M163.582 81.4988C163.62 80.5749 163.404 79.6584 162.959 78.8483C162.513 78.0382 161.854 77.3655 161.054 76.903L153.428 72.5043H153.394C153.03 72.3452 152.631 72.2834 152.236 72.3248C151.841 72.3663 151.464 72.5096 151.141 72.7408C150.196 73.358 149.41 74.19 148.849 75.1689C148.287 76.1477 147.964 77.2457 147.908 78.3729C147.908 79.4994 148.359 80.2991 149.074 80.5695H149.119L156.441 82.8899C157.234 83.1412 157.931 83.6285 158.439 84.2868C158.947 84.945 159.243 85.7428 159.285 86.5733L160.124 102.214C160.146 102.549 160.295 102.864 160.54 103.093C160.785 103.323 161.109 103.451 161.445 103.451C161.781 103.451 162.105 103.323 162.35 103.093C162.595 102.864 162.744 102.549 162.766 102.214L163.582 81.4988Z" fill="#263238"/>
<path d="M94.299 151.714L31.4332 115.421L0.000366211 133.568L62.8661 169.861L94.299 151.714Z" fill="#BA68C8"/>
<path opacity="0.15" d="M3.30634 133.568L62.866 167.924L90.9928 151.686L31.4332 117.33L3.30634 133.568ZM4.96218 133.568L31.4332 118.282L89.337 151.709L62.866 166.994L4.96218 133.568Z" fill="black"/>
<g opacity="0.15">
<path d="M48.324 152.035C44.0379 152.035 39.6449 151.05 36.2543 149.09C32.9539 147.186 31.0671 144.584 31.0671 141.965C31.0671 139.555 32.616 137.336 35.4264 135.708C41.4359 132.244 51.5793 132.458 58.045 136.187C61.3398 138.09 63.2322 140.692 63.2322 143.317C63.2322 145.722 61.6834 147.947 58.8729 149.569C56.0625 151.191 52.2158 152.035 48.324 152.035ZM45.9754 133.804C42.1849 133.804 38.4903 134.598 35.708 136.204C33.0778 137.724 31.6304 139.769 31.6304 141.971C31.6304 144.387 33.4157 146.809 36.5359 148.611C42.8439 152.249 52.7395 152.469 58.5913 149.09C61.2215 147.569 62.669 145.519 62.669 143.323C62.669 140.901 60.8836 138.485 57.7634 136.682C54.4517 134.767 50.1544 133.804 45.9754 133.804Z" fill="black"/>
</g>
<g opacity="0.1">
<path d="M48.324 150.007C44.2519 150.007 40.225 149.033 37.2737 147.327C34.621 145.795 33.1003 143.84 33.1003 141.965C33.1003 140.315 34.2887 138.721 36.4458 137.459C38.9071 136.04 42.292 135.257 45.9754 135.257C50.0474 135.257 54.0744 136.237 57.0256 137.938C59.6783 139.47 61.199 141.424 61.199 143.305C61.199 144.955 60.0106 146.549 57.8535 147.811C55.3923 149.225 51.9848 150.007 48.324 150.007Z" fill="black"/>
</g>
<path opacity="0.1" d="M59.5545 163.655L42.2751 153.612L43.6607 153.793C44.8972 153.951 46.1425 154.03 47.3891 154.029C51.5913 153.953 55.7136 152.868 59.4081 150.864C62.4663 149.101 65.5527 145.941 65.5527 142.866C65.5462 141.794 65.308 140.735 64.8543 139.763L64.4826 138.958L83.4065 149.946L81.3339 151.146C80.9847 151.348 80.7707 151.596 80.7707 151.855C80.7936 152.013 80.8577 152.161 80.9566 152.286C81.0556 152.411 81.1857 152.507 81.3339 152.565L83.4122 153.764L66.1722 163.655L64.3756 162.601C63.9054 162.365 63.3866 162.243 62.8606 162.243C62.3345 162.243 61.8157 162.365 61.3455 162.601L59.5545 163.655Z" fill="black"/>
<path d="M67.1916 156.62C66.1861 156.635 65.1934 156.393 64.308 155.916C63.9497 155.753 63.6405 155.498 63.4113 155.178C63.182 154.858 63.0407 154.483 63.0013 154.091C63.0248 153.744 63.1419 153.409 63.3402 153.122C63.5385 152.836 63.8107 152.608 64.1278 152.464C64.9762 152.056 65.9085 151.853 66.8496 151.872C67.7907 151.89 68.7142 152.13 69.5459 152.571C69.9049 152.734 70.2146 152.99 70.4439 153.311C70.6733 153.632 70.8142 154.008 70.8525 154.401C70.8296 154.749 70.7128 155.084 70.5144 155.371C70.316 155.657 70.0436 155.885 69.7261 156.029C68.945 156.437 68.0729 156.641 67.1916 156.62V156.62Z" fill="#BA68C8"/>
<path opacity="0.1" d="M29.8561 146.319L10.9716 135.438L13.0443 134.244C13.201 134.201 13.3394 134.109 13.4381 133.98C13.5368 133.851 13.5903 133.693 13.5903 133.531C13.5903 133.369 13.5368 133.211 13.4381 133.082C13.3394 132.953 13.201 132.861 13.0443 132.819L10.966 131.619L28.1778 121.819L29.9688 122.855C30.4383 123.09 30.956 123.213 31.481 123.213C32.006 123.213 32.5237 123.09 32.9932 122.855L34.7899 121.819L52.0636 131.76L50.6668 131.58C49.4284 131.421 48.1812 131.342 46.9327 131.343C42.8382 131.343 37.9495 132.576 34.7617 134.418C30.7854 136.716 28.7691 139.177 28.7691 141.74C28.7821 143.033 29.0282 144.313 29.4957 145.519L29.8561 146.319Z" fill="black"/>
<path d="M27.6033 133.872C26.596 133.886 25.6017 133.644 24.714 133.168V133.168C24.356 133.003 24.0474 132.747 23.8191 132.426C23.5909 132.105 23.4508 131.73 23.413 131.337C23.4362 130.99 23.5533 130.656 23.7517 130.37C23.9501 130.085 24.2224 129.858 24.5394 129.715C25.3874 129.306 26.3199 129.103 27.2612 129.121C28.2026 129.14 29.1263 129.38 29.9575 129.822C30.3155 129.987 30.624 130.243 30.8523 130.564C31.0806 130.885 31.2207 131.261 31.2585 131.653C31.2346 132 31.1173 132.334 30.919 132.619C30.7207 132.905 30.4488 133.131 30.1321 133.275C29.3542 133.687 28.4834 133.893 27.6033 133.872V133.872Z" fill="#BA68C8"/>
<path d="M94.299 151.714V159.352L62.8661 177.498V169.861L94.299 151.714Z" fill="#BA68C8"/>
<g opacity="0.4">
<path d="M94.2992 151.714V159.351L62.8663 177.498V169.861L94.2992 151.714Z" fill="white"/>
</g>
<path d="M62.8661 171.562L72.7899 166.043L62.8661 172.024V171.562Z" fill="#BA68C8"/>
<path d="M94.2989 155.341L90.9872 157.442L94.2989 155.724V155.341Z" fill="#BA68C8"/>
<path d="M94.299 157.161L77.7574 166.994L94.299 157.724V157.161Z" fill="#BA68C8"/>
<path d="M62.8661 173.381L79.4076 164.128L62.8661 173.984V173.381Z" fill="#BA68C8"/>
<path d="M62.8661 177.498L0.000366211 141.205V133.568L62.8661 169.861V177.498Z" fill="#BA68C8"/>
<g opacity="0.15">
<path d="M62.8657 177.499L0 141.205V133.568L62.8657 169.862V177.499Z" fill="black"/>
</g>
<g style="mix-blend-mode:multiply" opacity="0.3">
<path d="M62.8652 171.562L59.5535 169.861L62.8652 172.024V171.562Z" fill="black"/>
</g>
<g style="mix-blend-mode:multiply" opacity="0.3">
<path d="M62.8656 173.381L46.2283 164.082L62.8656 173.983V173.381Z" fill="black"/>
</g>
<g style="mix-blend-mode:multiply" opacity="0.3">
<path d="M0 137.161L11.5796 144.071L0 137.611V137.161Z" fill="black"/>
</g>
<g style="mix-blend-mode:multiply" opacity="0.3">
<path d="M0 139.082L6.61774 143.12L0 139.51V139.082Z" fill="black"/>
</g>
<path d="M68.3405 135.46L35.815 154.243L25.8912 148.515L58.4167 129.727L68.3405 135.46Z" fill="#FAFAFA"/>
<path d="M25.8912 148.515V156.828L35.815 162.556V154.243L25.8912 148.515Z" fill="#EBEBEB"/>
<path d="M35.8149 162.556L36.3951 162.218L35.8149 161.886V162.556Z" fill="#E0E0E0"/>
<path d="M68.3404 135.46V136.727L67.2422 136.091L68.3404 135.46Z" fill="#E0E0E0"/>
<g style="mix-blend-mode:multiply" opacity="0.3">
<path d="M36.3951 162.213V154.581L35.8149 154.243V161.88L36.3951 162.213Z" fill="black"/>
</g>
<g style="mix-blend-mode:multiply" opacity="0.2">
<path d="M36.3951 154.581L67.8279 136.429L67.2422 136.091L35.8149 154.243L36.3951 154.581Z" fill="black"/>
</g>
<path d="M67.276 134.841L34.7393 153.624L33.917 153.145L66.4425 134.368L67.276 134.841Z" fill="#455A64"/>
<path d="M60.3204 130.831L27.7893 149.608L26.967 149.135L59.4925 130.357L60.3204 130.831Z" fill="#455A64"/>
<path d="M34.7393 153.624V161.937L33.917 161.458V153.145L34.7393 153.624Z" fill="#263238"/>
<path d="M27.7892 149.608V157.921L26.9613 157.442L26.9669 149.135L27.7892 149.608Z" fill="#263238"/>
<path d="M94.299 142.714L31.4332 106.421L0.000366211 124.568L62.8661 160.861L94.299 142.714Z" fill="#BA68C8"/>
<path opacity="0.15" d="M3.30634 124.568L62.866 158.924L90.9928 142.686L31.4332 108.33L3.30634 124.568ZM4.96218 124.568L31.4332 109.288L89.337 142.714L62.866 158L4.96218 124.568Z" fill="black"/>
<g opacity="0.15">
<path d="M48.324 143.041C44.0379 143.041 39.6449 142.05 36.2543 140.095C32.9539 138.192 31.0671 135.59 31.0671 132.965C31.0671 130.56 32.616 128.335 35.4264 126.713C41.4359 123.244 51.5793 123.458 58.045 127.192C61.3398 129.096 63.2322 131.698 63.2322 134.322C63.2322 136.727 61.6834 138.946 58.8729 140.574C56.0625 142.202 52.2158 143.041 48.324 143.041ZM45.9754 124.793C42.1849 124.793 38.4903 125.587 35.708 127.198C33.0778 128.713 31.6304 130.763 31.6304 132.959C31.6304 135.381 33.4157 137.803 36.5359 139.6C42.8439 143.244 52.7395 143.458 58.5913 140.078C61.2215 138.558 62.669 136.513 62.669 134.317C62.669 131.895 60.8836 129.473 57.7634 127.671C54.4517 125.767 50.1544 124.793 45.9754 124.793Z" fill="black"/>
</g>
<g opacity="0.1">
<path d="M48.324 141.014C44.2519 141.014 40.225 140.034 37.2737 138.333C34.621 136.801 33.1003 134.847 33.1003 132.965C33.1003 131.315 34.2887 129.721 36.4458 128.46C38.9071 127.041 42.292 126.258 45.9754 126.258C50.0474 126.258 54.0744 127.232 57.0256 128.939C59.6783 130.47 61.199 132.425 61.199 134.306C61.199 135.956 60.0106 137.55 57.8535 138.812C55.3923 140.231 51.9848 141.014 48.324 141.014Z" fill="black"/>
</g>
<path opacity="0.1" d="M59.5545 154.643L42.2751 144.607L43.6607 144.787C44.8972 144.945 46.1425 145.024 47.3891 145.024C51.5913 144.948 55.7136 143.862 59.4081 141.858C62.4663 140.095 65.5527 136.936 65.5527 133.855C65.5455 132.784 65.3073 131.728 64.8543 130.757L64.4826 129.952L83.4065 140.935L81.3339 142.134C81.1864 142.193 81.0568 142.29 80.958 142.414C80.8592 142.539 80.7947 142.687 80.7707 142.844C80.7926 143.002 80.8564 143.152 80.9553 143.278C81.0543 143.404 81.185 143.501 81.3339 143.559L83.4122 144.759L66.1722 154.643L64.3756 153.607C63.9054 153.371 63.3866 153.248 62.8606 153.248C62.3345 153.248 61.8157 153.371 61.3455 153.607L59.5545 154.643Z" fill="black"/>
<path d="M67.1916 147.626C66.1861 147.641 65.1934 147.398 64.308 146.922C63.9489 146.758 63.6392 146.502 63.4099 146.181C63.1806 145.86 63.0397 145.484 63.0013 145.091C63.0258 144.744 63.1434 144.411 63.3416 144.125C63.5399 143.84 63.8115 143.613 64.1278 143.469C64.9758 143.06 65.9083 142.856 66.8496 142.875C67.7909 142.894 68.7147 143.134 69.5459 143.576C69.9049 143.74 70.2146 143.995 70.4439 144.317C70.6733 144.638 70.8142 145.014 70.8525 145.406C70.8292 145.753 70.7122 146.088 70.5138 146.373C70.3154 146.659 70.0431 146.885 69.7261 147.029C68.9465 147.442 68.0737 147.647 67.1916 147.626Z" fill="#BA68C8"/>
<path opacity="0.1" d="M29.8561 137.324L10.9716 126.443L13.0443 125.243C13.1924 125.185 13.3226 125.089 13.4215 124.965C13.5205 124.84 13.5846 124.691 13.6075 124.534C13.6075 124.275 13.416 124.027 13.0443 123.824L10.966 122.619L28.1778 112.819L29.9688 113.861C30.4391 114.093 30.9566 114.214 31.481 114.214C32.0055 114.214 32.5229 114.093 32.9932 113.861L34.7899 112.825L52.0636 122.771L50.6668 122.591C49.4286 122.43 48.1813 122.35 46.9327 122.349C42.8382 122.349 37.9495 123.588 34.7617 125.429C30.7854 127.727 28.7691 130.188 28.7691 132.751C28.7832 134.044 29.0293 135.324 29.4957 136.53L29.8561 137.324Z" fill="black"/>
<path d="M27.6033 124.877C26.596 124.892 25.6017 124.65 24.714 124.173C24.356 124.009 24.0474 123.753 23.8191 123.432C23.5909 123.111 23.4508 122.735 23.413 122.343C23.4359 121.995 23.5527 121.66 23.7511 121.373C23.9495 121.087 24.2219 120.859 24.5394 120.715C25.3879 120.307 26.3206 120.105 27.2619 120.124C28.2032 120.144 29.1267 120.385 29.9575 120.828C30.3147 120.992 30.6228 121.247 30.851 121.567C31.0793 121.887 31.2197 122.261 31.2585 122.653C31.2356 123.001 31.1188 123.336 30.9204 123.622C30.722 123.909 30.4496 124.136 30.1321 124.28C29.3542 124.693 28.4834 124.898 27.6033 124.877V124.877Z" fill="#BA68C8"/>
<path d="M94.299 142.714V150.357L62.8661 168.504V160.861L94.299 142.714Z" fill="#BA68C8"/>
<g opacity="0.4">
<path d="M94.2992 142.715V150.357L62.8663 168.504V160.861L94.2992 142.715Z" fill="white"/>
</g>
<path d="M62.8661 162.568L72.7899 157.042L62.8661 163.029V162.568Z" fill="#BA68C8"/>
<path d="M94.2989 146.347L90.9872 148.448L94.2989 146.73V146.347Z" fill="#BA68C8"/>
<path d="M94.299 148.166L77.7574 158L94.299 148.729V148.166Z" fill="#BA68C8"/>
<path d="M62.8661 164.387L79.4076 155.133L62.8661 164.984V164.387Z" fill="#BA68C8"/>
<path d="M62.8661 168.504L0.000366211 132.21V124.568L62.8661 160.861V168.504Z" fill="#BA68C8"/>
<g opacity="0.15">
<path d="M62.8657 168.504L0 132.211V124.568L62.8657 160.861V168.504Z" fill="black"/>
</g>
<g style="mix-blend-mode:multiply" opacity="0.3">
<path d="M62.8652 162.567L59.5535 160.861L62.8652 163.029V162.567Z" fill="black"/>
</g>
<g style="mix-blend-mode:multiply" opacity="0.3">
<path d="M62.8656 164.387L46.2283 155.088L62.8656 164.984V164.387Z" fill="black"/>
</g>
<g style="mix-blend-mode:multiply" opacity="0.3">
<path d="M0 128.166L11.5796 135.077L0 128.617V128.166Z" fill="black"/>
</g>
<g style="mix-blend-mode:multiply" opacity="0.3">
<path d="M0 130.087L6.61774 134.12L0 130.515V130.087Z" fill="black"/>
</g>
<path d="M68.3405 126.46L35.815 145.243L25.8912 139.515L58.4167 120.732L68.3405 126.46Z" fill="#FAFAFA"/>
<path d="M25.8912 139.515V147.828L35.815 153.556V145.243L25.8912 139.515Z" fill="#EBEBEB"/>
<path d="M35.8149 153.556L36.3951 153.224L35.8149 152.886V153.556Z" fill="#E0E0E0"/>
<path d="M68.3404 126.46V127.733L67.2422 127.096L68.3404 126.46Z" fill="#E0E0E0"/>
<g style="mix-blend-mode:multiply" opacity="0.3">
<path d="M36.3951 153.218V145.581L35.8149 145.243V152.886L36.3951 153.218Z" fill="black"/>
</g>
<g style="mix-blend-mode:multiply" opacity="0.2">
<path d="M36.3948 145.581L67.8277 127.434L67.2419 127.096L35.8147 145.243L36.3948 145.581Z" fill="black"/>
</g>
<path d="M67.276 125.846L34.7393 144.624L33.917 144.151L66.4425 125.367L67.276 125.846Z" fill="#455A64"/>
<path d="M60.3204 121.836L27.7893 140.614L26.967 140.135L59.4925 121.357L60.3204 121.836Z" fill="#455A64"/>
<path d="M34.7393 144.624V152.942L33.917 152.463V144.15L34.7393 144.624Z" fill="#263238"/>
<path d="M27.7892 140.614V148.927L26.9613 148.448L26.9669 140.135L27.7892 140.614Z" fill="#263238"/>
</svg>
