<svg width="700" height="650" viewBox="0 0 700 650" fill="none" xmlns="http://www.w3.org/2000/svg">
<path d="M78.6892 215.13L79.2592 217.06C57.6292 221.08 34.8892 225.51 11.0797 230.34L10.6797 228.38C34.4292 223.57 57.1092 219.15 78.6892 215.13Z" fill="#92358B"/>
<path d="M286.73 188.24L286.14 186.26H286.15L286.73 188.24Z" fill="#92358B"/>
<path d="M178.049 550.318L178.689 552.544C121.139 536.766 87.6692 514.716 81.6692 488.473C69.4792 435.155 170.449 371.786 259.539 315.866C328.229 272.757 393.109 232.031 384.259 207.489C379.199 193.442 351.499 187.092 301.759 188.506L301.169 186.538C352.759 184.965 380.679 191.672 386.139 206.826C395.529 232.862 333.009 272.104 260.609 317.538C172.079 373.102 71.7392 436.084 83.6192 488.038C89.4092 513.351 121.969 534.787 178.049 550.318Z" fill="#92358B"/>
<path d="M554.5 413C559.71 425.82 560.78 436.48 555.64 443.72C544.44 459.51 508.32 452.37 476.46 446.07C453.89 441.61 432.57 437.39 430.15 444.24C426.31 455.12 452.72 472.01 478.25 488.34C506.79 506.6 536.3 525.47 532.82 540.64C529.93 553.27 504.66 560.63 483.98 564.58C456.95 569.74 419.83 572.58 379.34 572.58H378.02C360 572.55 341.88 571.98 324 570.92L329.17 569.21H329.18C345.38 570.09 361.73 570.55 378.02 570.58H379.42C465.91 570.58 526.7 558.4 530.88 540.19C534.04 526.4 505.13 507.91 477.17 490.03C449.78 472.5 423.9 455.95 428.27 443.57C431.26 435.1 451.38 439.07 476.85 444.11C506.57 449.98 543.55 457.29 554.01 442.56C558.59 436.11 557.62 426.39 552.94 414.61L554.5 413Z" fill="#92358B"/>
<path d="M430.639 229.35C427.639 233.03 431.689 242.01 439.769 254.07L438.339 255.55C429.459 242.29 425.389 232.63 429.079 228.09C434.059 221.98 451.109 226.65 482.769 242.78C519.999 261.76 577.369 296.95 653.309 347.38L652.199 349.05C481.069 235.39 437.259 221.22 430.639 229.35Z" fill="#92358B"/>
<path d="M9.37 235.09C12.3357 235.09 14.74 232.686 14.74 229.72C14.74 226.754 12.3357 224.35 9.37 224.35C6.4042 224.35 4 226.754 4 229.72C4 232.686 6.4042 235.09 9.37 235.09Z" fill="#92358B"/>
<path d="M9.37 235.09C12.3357 235.09 14.74 232.686 14.74 229.72C14.74 226.754 12.3357 224.35 9.37 224.35C6.4042 224.35 4 226.754 4 229.72C4 232.686 6.4042 235.09 9.37 235.09Z" fill="black"/>
<path d="M653.309 354.42C656.275 354.42 658.679 352.016 658.679 349.05C658.679 346.084 656.275 343.68 653.309 343.68C650.343 343.68 647.939 346.084 647.939 349.05C647.939 352.016 650.343 354.42 653.309 354.42Z" fill="#92358B"/>
<path d="M653.309 354.42C656.275 354.42 658.679 352.016 658.679 349.05C658.679 346.084 656.275 343.68 653.309 343.68C650.343 343.68 647.939 346.084 647.939 349.05C647.939 352.016 650.343 354.42 653.309 354.42Z" fill="black"/>
</svg>
