<svg width="140" height="64" viewBox="0 0 140 64" fill="none" xmlns="http://www.w3.org/2000/svg">
<path d="M-6.53861e-06 50.6934C1.62832 47.4619 4.0306 45.6558 7.6692 45.646C13.107 45.6265 18.5448 45.6265 23.9826 45.6167C24.7163 45.6167 25.4501 45.6167 26.5457 45.6167L24.7722 41.0988C19.043 41.0402 11.5792 41.0965 5.85995 41.0868C5.23676 41.0868 4.61358 41.0868 3.71901 41.0868C4.0105 40.2277 4.19142 39.6028 4.4226 38.9878C7.36766 31.1971 11.0323 21.0973 13.9673 13.2969C13.9673 13.2969 14.1523 13.3019 16.042 13.3019C19.5298 13.2921 19.5016 13.3019 19.5016 13.3019C21.4616 18.3981 24.6661 26.4719 26.616 31.5778C26.7467 31.9293 26.8171 32.3003 26.9276 32.6908C23.1383 32.8372 21.3692 31.4704 19.8917 28.1413C18.8765 25.8471 17.9518 23.6505 16.7054 20.7704C16.2531 21.942 15.7907 23.1135 15.3384 24.285C14.0418 27.6434 11.828 33.1813 10.5414 36.5494L13.1767 36.5494L28.4617 36.5494L33.7324 50.7031C22.4548 50.6934 11.338 50.6934 -6.53861e-06 50.6934Z" />
<path d="M-6.53861e-06 50.6934C1.62832 47.4619 4.0306 45.6558 7.6692 45.646C13.107 45.6265 18.5448 45.6265 23.9826 45.6167C24.7163 45.6167 25.4501 45.6167 26.5457 45.6167L24.7722 41.0988C19.043 41.0402 11.5792 41.0965 5.85995 41.0868C5.23676 41.0868 4.61358 41.0868 3.71901 41.0868C4.0105 40.2277 4.19142 39.6028 4.4226 38.9878C7.36766 31.1971 11.0323 21.0973 13.9673 13.2969C13.9673 13.2969 14.1523 13.3019 16.042 13.3019C19.5298 13.2921 19.5016 13.3019 19.5016 13.3019C21.4616 18.3981 24.6661 26.4719 26.616 31.5778C26.7467 31.9293 26.8171 32.3003 26.9276 32.6908C23.1383 32.8372 21.3692 31.4704 19.8917 28.1413C18.8765 25.8471 17.9518 23.6505 16.7054 20.7704C16.2531 21.942 15.7907 23.1135 15.3384 24.285C14.0418 27.6434 11.828 33.1813 10.5414 36.5494L13.1767 36.5494L28.4617 36.5494L33.7324 50.7031C22.4548 50.6934 11.338 50.6934 -6.53861e-06 50.6934Z" fill="#5740A0"/>
<path d="M47.8762 38.5H60.3734L59.7992 34.7139H48.4504L47.8762 38.5ZM54.0572 27.9794L57.6037 36.1211L57.5362 37.3273L60.576 43.8273H66.0478L54.0572 19L42.0667 43.8273H47.5046L50.612 37.1263L50.5107 36.0541L54.0572 27.9794Z" fill="#5740A0"/>
<path d="M68.6126 20.3737V43.8273H73.5102V20.3737H68.6126Z" fill="#5740A0"/>
<path d="M77.7288 24.6959H87.8616L76.4115 43.8273H94.6169V39.6392H84.0787L95.664 20.3737H77.7288V24.6959Z" fill="#5740A0"/>
<path d="M101.835 43.8273H113.758V39.7732H101.835V43.8273ZM101.835 24.4278H113.758V20.3737H101.835V24.4278ZM101.835 33.3737H113.082V29.3866H101.835V33.3737ZM98.7276 20.3737V43.8273H103.389V20.3737H98.7276Z" fill="#5740A0"/>
<path d="M135.339 20.3737V34.9149L118.518 19.201V43.8273H123.179V29.2861L140 45V20.3737H135.339Z" fill="#5740A0"/>
</svg>
