<svg xmlns="http://www.w3.org/2000/svg" viewBox="0 0 499.42 150.56"><defs><style>.cls-1{fill:#0872b8;}</style></defs><title>lift</title><g id="Слой_2" data-name="Слой 2"><g id="Слой_1-2" data-name="Слой 1"><path class="cls-1" d="M0,148.42V73.86c0-12,2.11-21.81,7-30.95A76.11,76.11,0,0,1,26,19.7,85.26,85.26,0,0,1,53.44,4.92C64,1.41,74.54,0,86.5,0A93,93,0,0,1,114,4.24v144.2H85.81V23.24A62,62,0,0,0,62.6,27.46c-7,2.82-13.36,6.33-18.29,11.26a52.11,52.11,0,0,0-12,17.58,60.86,60.86,0,0,0-4.22,22.51v69.64Z"/><path class="cls-1" d="M153.34,1.41V76a34.61,34.61,0,0,0,2.11,10.55,68.16,68.16,0,0,0,5.63,13.36,58.94,58.94,0,0,0,9.85,13.36c4.22,4.22,9.84,7,16.17,9.85s14.78,3.51,23.92,3.51V1.41h28.14v144.9a96.72,96.72,0,0,1-27.44,4.22,76.56,76.56,0,0,1-12.66-.7c-4.22-.71-7.74-.71-10.55-1.41-3.52-.7-5.63-1.41-8.44-2.11-2.11-.7-3.52-1.41-4.22-1.41a65.86,65.86,0,0,1-19.7-11.25A128.8,128.8,0,0,1,142.09,121a75.32,75.32,0,0,1-9.15-13.37c-2.11-4.22-4.22-9.14-4.92-12.66a34.86,34.86,0,0,1-2.11-11.25c0-3.52-.71-5.63-.71-7.74V1.41Z"/><path class="cls-1" d="M307.39,148.42V132.94c-2.11.71-4.93.71-7.74.71a57.41,57.41,0,0,1-21.81-4.22,50.33,50.33,0,0,1-17.58-11.26A54.38,54.38,0,0,1,249,101.29a51.38,51.38,0,0,1-4.22-21.1V64A51.38,51.38,0,0,1,249,42.91,54.38,54.38,0,0,1,260.26,26a50.33,50.33,0,0,1,17.58-11.26,57.41,57.41,0,0,1,21.81-4.22h4.22a9,9,0,0,1,4.22.7V1.41h28.17v9.14h5.62a57.41,57.41,0,0,1,21.81,4.22A50.43,50.43,0,0,1,381.26,26a54.53,54.53,0,0,1,11.25,16.88A51.38,51.38,0,0,1,396.73,64V80.89a51.38,51.38,0,0,1-4.22,21.1,54.69,54.69,0,0,1-11.25,16.89,50.58,50.58,0,0,1-17.59,11.25,57.41,57.41,0,0,1-21.81,4.22h-5.6v14.77H307.39ZM299.65,34.47a28.28,28.28,0,0,0-10.55,2.11,19.05,19.05,0,0,0-8.44,6.33A24.88,24.88,0,0,0,275,52.05a29.14,29.14,0,0,0-2.11,11.26V80.89A29.14,29.14,0,0,0,275,92.15a40,40,0,0,0,5.63,9.14c2.11,2.81,5.63,4.92,8.44,6.33a28.28,28.28,0,0,0,10.55,2.11c2.81,0,4.92-.7,7.74-1.41V36.58a15.94,15.94,0,0,0-7.74-2.11Zm41.5,0h-2.81a4.27,4.27,0,0,0-2.82.7V109c.71,0,2.11.7,2.82.7h2.81a28.09,28.09,0,0,0,10.55-2.11,19.18,19.18,0,0,0,8.44-6.33,24.88,24.88,0,0,0,5.63-9.14,29.14,29.14,0,0,0,2.11-11.26V63.31a29.14,29.14,0,0,0-2.11-11.26,40,40,0,0,0-5.63-9.14,32.7,32.7,0,0,0-8.44-6.33,28.09,28.09,0,0,0-10.55-2.11Z"/><path class="cls-1" d="M425.56,149.12V24.62H382V2.11H499.42V24.62h-45v124.5Z"/></g></g></svg>