<svg xmlns="http://www.w3.org/2000/svg" id="Слой_1" data-name="Слой 1" viewBox="0 0 294.07 57.93">
    <defs>
        <style>
            .cls-1{fill:#00679f}.cls-2{fill:#0c72b8}
        </style>
    </defs>
    <path d="M86 16.73h-9.8c-.1 0-.3.1-.4.1s-.2.1-.4.2a2 2 0 00-.4.8 1.76 1.76 0 00-.1.6v7.4h11v5.3h-11v9.8h11v5.2H68.57V19.62a10.42 10.42 0 01.5-3.3 7.14 7.14 0 011.2-2.3 6.68 6.68 0 011.6-1.4c.6-.3 1.2-.6 1.7-.8a3.93 3.93 0 011.4-.3 5.38 5.38 0 00.8-.1h10v5.3zM89.07 46.12V19.93a9.12 9.12 0 011-4.7 9.37 9.37 0 012.3-2.5 7.69 7.69 0 012.4-1c.8-.1 1.2-.2 1.4-.2h8.1c3.3.4 5.8 1.4 7.4 3.3a10.06 10.06 0 012.5 6.9 8.08 8.08 0 01-.1 1.5c-.1.6-.2 1.1-.3 1.7a13.35 13.35 0 01-.7 1.8 7 7 0 01-1.3 1.7 13.1 13.1 0 011.3 1.2 10.1 10.1 0 011.3 1.6 10.24 10.24 0 011 2.1 7.46 7.46 0 01.4 2.6A10.7 10.7 0 01115 40a8.48 8.48 0 01-2.5 3.2 10.55 10.55 0 01-4.4 2 24.08 24.08 0 01-6.4.7H89.07zm9.2-29.3a2.29 2.29 0 00-2.4 1.4 2.24 2.24 0 00-.3 1v21.7h5.9c2.6 0 4.5-.5 5.7-1.4a4.84 4.84 0 001.8-4.1 4 4 0 00-1.2-2.9 6.8 6.8 0 00-4.1-1.5h-3v-5.3H104a5.22 5.22 0 002.9-.8c.7-.5 1.1-1.6 1.1-3.2a10.4 10.4 0 00-.2-1.5 5.07 5.07 0 00-.7-1.5 5.35 5.35 0 00-1.3-1.3 4 4 0 00-1.9-.7h-5.6zM133.47 11.53a13.62 13.62 0 014.1.9 8.3 8.3 0 013.1 2 7.89 7.89 0 012 3.1 10.88 10.88 0 01.7 4.2A14.66 14.66 0 01143 25a8.34 8.34 0 01-2 3.5 6.57 6.57 0 01-1.7 1.2 8.35 8.35 0 01-1.9.8 9.35 9.35 0 01-2.5.4h-10.1V46h-6.5V19.83a9.12 9.12 0 011-4.7 7 7 0 012.3-2.5 6.84 6.84 0 012.4-1c.8-.1 1.2-.2 1.4-.2h8.1zm-.3 14.2a4.14 4.14 0 003.1-1 4.42 4.42 0 00.9-3.1 7.72 7.72 0 00-.2-1.5 4.13 4.13 0 00-.7-1.5 3.45 3.45 0 00-1.2-1.2 5.31 5.31 0 00-1.9-.6h-5.7a2.08 2.08 0 00-1.5.4 2.54 2.54 0 00-.8 1 2.24 2.24 0 00-.3 1v6.5zM160.07 46.83a16.16 16.16 0 01-5.8-1.1 15.38 15.38 0 01-4.7-3.1 15.17 15.17 0 01-3.2-4.6 13.42 13.42 0 01-1.2-5.6v-6.8a13.09 13.09 0 011.2-5.6 13.6 13.6 0 013.2-4.6 15.38 15.38 0 014.7-3.1 14 14 0 015.8-1.1 16.16 16.16 0 015.8 1.1 15.38 15.38 0 014.7 3.1 13.6 13.6 0 013.2 4.6 13.42 13.42 0 011.2 5.6v6.8a13.09 13.09 0 01-1.2 5.6 13.6 13.6 0 01-3.2 4.6 14.67 14.67 0 01-10.5 4.2zm0-30a7.11 7.11 0 00-3.2.7 8.32 8.32 0 00-2.6 1.9 7.5 7.5 0 00-1.8 2.8 9.83 9.83 0 00-.7 3.4v6.9a7.67 7.67 0 00.7 3.4 7.5 7.5 0 001.8 2.8 9.66 9.66 0 002.6 1.9 7.11 7.11 0 003.2.7 7.54 7.54 0 003.3-.7 8.32 8.32 0 002.6-1.9 7.5 7.5 0 001.8-2.8 9.83 9.83 0 00.7-3.4v-6.9a7.67 7.67 0 00-.7-3.4 7.5 7.5 0 00-1.8-2.8 9.66 9.66 0 00-2.6-1.9 7.84 7.84 0 00-3.3-.7z" class="cls-1"/>
    <path d="M176.87 46.12v-17.5a15.72 15.72 0 011.7-7.3 16 16 0 014.5-5.5 20.33 20.33 0 016.5-3.5 24.35 24.35 0 017.7-1.2 22.15 22.15 0 016.5 1.1v34h-6.6V16.73a16.11 16.11 0 00-5.4.9 12.38 12.38 0 00-4.3 2.6 12.19 12.19 0 00-2.9 4.1 13.33 13.33 0 00-1 5.4v16.4zM212.87 11.53v17.6a15.66 15.66 0 00.5 2.5 15.84 15.84 0 001.3 3.1 13.63 13.63 0 002.4 3.1 12.83 12.83 0 003.8 2.3 13.54 13.54 0 005.6.8v-29.4h6.7v34a21.62 21.62 0 01-6.5 1.1c-1 0-2-.1-3-.2a16.37 16.37 0 01-2.5-.4c-.8-.1-1.4-.3-1.9-.4s-.9-.3-1-.3a19.12 19.12 0 01-4.7-2.6 24.63 24.63 0 01-3.3-3 12.61 12.61 0 01-2.1-3.2 31.15 31.15 0 01-1.2-3 13.18 13.18 0 01-.5-2.6 14.16 14.16 0 01-.1-1.9v-17.5h6.5zM249.07 46.12v-3.7a11.08 11.08 0 01-1.9.2A13.61 13.61 0 01238 39a10.14 10.14 0 01-2.7-4 11.76 11.76 0 01-1-5v-4a11.31 11.31 0 011-4.9 13.58 13.58 0 012.7-3.9 11.51 11.51 0 014.1-2.6 14.4 14.4 0 015.1-.9h.9a2.77 2.77 0 01.9.1v-2.3h6.6v2.2h1.2a14.4 14.4 0 015.1.9 12.46 12.46 0 014.1 2.6 10.54 10.54 0 012.7 3.9 11.62 11.62 0 011 4.9v4a12.08 12.08 0 01-1 5 14.08 14.08 0 01-2.7 4 12.46 12.46 0 01-4.1 2.6 14.47 14.47 0 01-5.1 1h-1.2v3.5h-6.5zm-1.9-26.8a7 7 0 00-2.5.5 7.18 7.18 0 00-2 1.4 6.92 6.92 0 00-1.4 2.2 7.51 7.51 0 00-.5 2.6v4.1a8.08 8.08 0 00.5 2.7 7.44 7.44 0 001.4 2.2 9.51 9.51 0 002 1.5 5.34 5.34 0 002.5.5 4.64 4.64 0 001.9-.4V19.73a7.19 7.19 0 00-1.9-.4zm9.7 0h-.6c-.2 0-.4.1-.6.1v17.4a1.27 1.27 0 00.6.1h.6a7 7 0 002.5-.5 5.85 5.85 0 002-1.5 6.92 6.92 0 001.4-2.2 7.64 7.64 0 00.5-2.7v-4.1a7.51 7.51 0 00-.5-2.6 6.36 6.36 0 00-1.4-2.2 6.61 6.61 0 00-2-1.4 10.05 10.05 0 00-2.5-.39z" class="cls-2"/>
    <path d="M276.77 46.23v-29.3h-10.3v-5.3h27.6v5.3h-10.6v29.3zM6.17 47.23l-5.4-16.7a15.47 15.47 0 015.6-17.3l14.2-10.3a15.62 15.62 0 0118.2 0L53 13.23a15.42 15.42 0 015.6 17.3l-5.4 16.7a15.46 15.46 0 01-14.7 10.7H20.87a15.46 15.46 0 01-14.7-10.7z" class="cls-2"/>
    <path fill="#fff" d="M8.87 45.12l-4.8-14.8a13.77 13.77 0 0 1 5-15.3l12.6-9.2a13.66 13.66 0 0 1 16.1 0L50.37 15a13.77 13.77 0 0 1 5 15.3l-4.8 14.8a13.75 13.75 0 0 1-13 9.5H22a13.66 13.66 0 0 1-13.13-9.48z"/>
    <path fill="#a5a4a4" d="M45.57 43.63L45.57 25.93 45.47 25.82 30.17 34.63 45.57 43.63z"/>
    <path d="M14.27 40.92L29.07 32.13 29.07 14.22 29.07 14.22 13.77 23.02 13.77 40.73 14.27 40.92z" class="cls-2"/>
    <path d="M44.37 23.02L44.37 23.02 29.07 14.22 29.07 32.13 44.37 23.02z" class="cls-1"/>
</svg>
