<svg xmlns="http://www.w3.org/2000/svg" id="prefix__Слой_1" data-name="Слой 1" viewBox="0 0 252.58 49.53">
    <defs>
        <style>
            .prefix__cls-1{fill:#fff}
        </style>
    </defs>
    <path d="M45.27 11.35L33.12 2.52a13.21 13.21 0 0 0-15.53 0L5.45 11.35a13.21 13.21 0 0 0-4.8 14.77L5.29 40.4a13.21 13.21 0 0 0 12.56 9.13h15a13.21 13.21 0 0 0 12.58-9.13l4.64-14.28a13.21 13.21 0 0 0-4.8-14.77zm2 14.62l-4.12 12.65A11.71 11.71 0 0 1 32 46.71H18.7a11.71 11.71 0 0 1-11.13-8.09L3.45 26a11.71 11.71 0 0 1 4.26-13.13L18.48 5a11.71 11.71 0 0 1 13.76 0L43 12.87A11.71 11.71 0 0 1 47.26 26z" class="prefix__cls-1"/>
    <path d="M38.94 37.35L38.94 22.18 38.8 22.11 25.75 29.65 38.94 37.35z" style="fill:#a5a4a4"/>
    <path d="M12.18 35.03L24.84 27.5 24.84 12.18 24.84 12.18 11.78 19.72 11.78 34.8 12.18 35.03z" class="prefix__cls-1"/>
    <path d="M37.9 19.72L37.9 19.72 24.84 12.18 24.84 27.5 37.9 19.72z" style="fill:#cccbcb"/>
    <path d="M74.7 14.33h-8.3l-.34.08a.68.68 0 00-.3.19 1.48 1.48 0 00-.34.72 4.69 4.69 0 00-.08.49v6.36h9.36v4.53h-9.36V35h9.36v4.42H59.9V16.81a8.26 8.26 0 01.42-2.8 6.42 6.42 0 011.07-1.94 5.23 5.23 0 011.41-1.22 6.94 6.94 0 011.47-.65 7.1 7.1 0 011.24-.27l.69-.06h8.5zM77.41 39.46V17a7.61 7.61 0 01.88-4 6.47 6.47 0 012-2.13 5.5 5.5 0 012.09-.86 12.07 12.07 0 011.22-.15h6.9a9.57 9.57 0 016.34 2.8A8.5 8.5 0 0199 18.63a12.52 12.52 0 01-.08 1.29 9.36 9.36 0 01-.29 1.48 7 7 0 01-.63 1.54 6.45 6.45 0 01-1.1 1.45q.49.42 1.08 1A8.32 8.32 0 0199 26.82a8.08 8.08 0 01.82 1.83 7.33 7.33 0 01.32 2.21 8.69 8.69 0 01-.7 3.54 6.91 6.91 0 01-2.17 2.72 10.58 10.58 0 01-3.75 1.73 21.49 21.49 0 01-5.48.61zm7.84-25.09a2 2 0 00-1.33.38 2.39 2.39 0 00-.67.84 2.67 2.67 0 00-.25.86V35h5a8.08 8.08 0 004.91-1.2 4.13 4.13 0 001.56-3.48 3.54 3.54 0 00-1-2.51A5.44 5.44 0 0090 26.55h-2.62V22h2.82a4.13 4.13 0 002.46-.67q.93-.67.93-2.72a4.74 4.74 0 00-.19-1.26 4.58 4.58 0 00-.62-1.35 4 4 0 00-1.08-1.08 3.57 3.57 0 00-1.62-.57zM115.32 9.92a12.18 12.18 0 013.46.76 7.85 7.85 0 012.68 1.71 7.74 7.74 0 011.75 2.66 9.52 9.52 0 01.63 3.58 12.26 12.26 0 01-.38 2.78 6.37 6.37 0 01-1.71 3 8.2 8.2 0 01-3.08 1.79 7.11 7.11 0 01-2.17.3h-8.64v12.96h-5.52V17a7.72 7.72 0 01.88-4 6.32 6.32 0 012-2.13 5.49 5.49 0 012.07-.84 12.07 12.07 0 011.22-.15zM115.09 22a3.49 3.49 0 002.61-.82 3.68 3.68 0 00.78-2.61 5.6 5.6 0 00-.17-1.31 4.19 4.19 0 00-.57-1.31 3.66 3.66 0 00-1.07-1 3.46 3.46 0 00-1.66-.51h-4.91a2 2 0 00-1.29.38 2.4 2.4 0 00-.67.84 2.66 2.66 0 00-.25.86V22zM138 40a12.56 12.56 0 01-4.93-1 13 13 0 01-4-2.63 12.22 12.22 0 01-2.7-3.9 11.75 11.75 0 01-1-4.8v-5.72a11.76 11.76 0 011-4.8 12.46 12.46 0 012.7-3.92 12.79 12.79 0 014-2.65 13 13 0 019.86 0 13 13 0 014 2.65 12.31 12.31 0 012.72 3.92 11.76 11.76 0 011 4.8v5.79a11.76 11.76 0 01-1 4.8 12.09 12.09 0 01-2.72 3.9 13.21 13.21 0 01-4 2.63A12.56 12.56 0 01138 40zm0-25.66a6.53 6.53 0 00-2.74.59 7.19 7.19 0 00-2.26 1.65 7.86 7.86 0 00-1.5 2.42 7.55 7.55 0 00-.57 2.93v5.9a7.4 7.4 0 00.57 2.91 7.92 7.92 0 001.5 2.36 7.18 7.18 0 002.26 1.62 6.52 6.52 0 002.74.59 6.61 6.61 0 002.78-.59 7.19 7.19 0 002.26-1.62 7.91 7.91 0 001.54-2.38 7.4 7.4 0 00.57-2.91v-5.9a7.55 7.55 0 00-.57-2.93 7.85 7.85 0 00-1.54-2.4 7.2 7.2 0 00-2.22-1.58 6.63 6.63 0 00-2.82-.63zM152.39 39.46v-15a13.55 13.55 0 011.43-6.28 14.57 14.57 0 013.83-4.72 17.22 17.22 0 015.54-3 21 21 0 016.57-1 18.08 18.08 0 015.52.91v29h-5.68V14.29a13 13 0 00-4.61.8 11.09 11.09 0 00-3.69 2.25 10.28 10.28 0 00-2.46 3.52 11.46 11.46 0 00-.89 4.59v14zM183.19 9.88v14a5.08 5.08 0 000 1 12.4 12.4 0 00.42 2.15 13.69 13.69 0 001.08 2.68 9.64 9.64 0 002 2.63 10.1 10.1 0 003.25 2 12.29 12.29 0 004.78.69V9.88h5.71v29a18.08 18.08 0 01-5.52.91 23 23 0 01-2.53-.13q-1.2-.13-2.17-.32t-1.56-.34l-.89-.27a17 17 0 01-6.79-4.8 13 13 0 01-1.79-2.7 15.59 15.59 0 01-1-2.59 12.65 12.65 0 01-.44-2.21q-.1-1-.1-1.6v-15zM214.1 39.46v-3.13a7.76 7.76 0 01-1.6.15 11.53 11.53 0 01-4.38-.82 10.91 10.91 0 01-3.5-2.25A10.19 10.19 0 01202.3 30a10.69 10.69 0 01-.84-4.24V22.4a10.55 10.55 0 01.84-4.23 10.24 10.24 0 012.32-3.37 10.65 10.65 0 013.5-2.23 11.77 11.77 0 014.38-.8h.8a4.49 4.49 0 01.8.08V9.92h5.63v1.87h1.07a11.78 11.78 0 014.38.8 10.65 10.65 0 013.5 2.23 10.26 10.26 0 012.32 3.36 10.56 10.56 0 01.84 4.23v3.39A10.69 10.69 0 01231 30a10.2 10.2 0 01-2.32 3.39 10.91 10.91 0 01-3.5 2.25 11.53 11.53 0 01-4.38.82h-.51a3.4 3.4 0 01-.55 0v3zm-1.6-22.88a5 5 0 00-2.13.46 5.57 5.57 0 00-2.89 3.08 6.08 6.08 0 00-.42 2.25v3.46a6 6 0 00.42 2.27 5.9 5.9 0 001.16 1.85 5.47 5.47 0 001.73 1.26 5 5 0 002.13.46 4.67 4.67 0 001.6-.3V16.88a4.68 4.68 0 00-1.6-.3zm8.3 0h-.51a2.66 2.66 0 00-.55.1v14.86a2.6 2.6 0 00.55.1h.51a5 5 0 002.13-.46 5.47 5.47 0 001.73-1.26 5.93 5.93 0 001.16-1.85 6 6 0 00.42-2.27v-3.44a6.1 6.1 0 00-.42-2.25 5.57 5.57 0 00-2.89-3.11 5 5 0 00-2.14-.42z" class="prefix__cls-1"/>
    <path d="M237.81 39.49v-25H229V9.92h23.56v4.53h-9.1v25z" class="prefix__cls-1"/>
</svg>