<svg xmlns="http://www.w3.org/2000/svg" id="prefix__Слой_1" data-name="Слой 1" viewBox="0 0 50.71 49.53">
    <defs>
        <style>
            .prefix__cls-1{fill:#fff}
        </style>
    </defs>
    <path d="M45.27 11.35L33.12 2.52a13.21 13.21 0 0 0-15.53 0L5.45 11.35a13.21 13.21 0 0 0-4.8 14.77L5.29 40.4a13.21 13.21 0 0 0 12.56 9.13h15a13.21 13.21 0 0 0 12.58-9.13l4.64-14.28a13.21 13.21 0 0 0-4.8-14.77zm2 14.62l-4.12 12.65A11.71 11.71 0 0 1 32 46.71H18.7a11.71 11.71 0 0 1-11.13-8.09L3.45 26a11.71 11.71 0 0 1 4.26-13.13L18.48 5a11.71 11.71 0 0 1 13.76 0L43 12.87A11.71 11.71 0 0 1 47.26 26z" class="prefix__cls-1"/>
    <path d="M38.94 37.35L38.94 22.18 38.8 22.11 25.75 29.65 38.94 37.35z" style="fill:#a5a4a4"/>
    <path d="M12.18 35.03L24.84 27.5 24.84 12.18 24.84 12.18 11.78 19.72 11.78 34.8 12.18 35.03z" class="prefix__cls-1"/>
    <path d="M37.9 19.72L37.9 19.72 24.84 12.18 24.84 27.5 37.9 19.72z" style="fill:#cccbcb"/>
</svg>
