<svg width="536" height="440" viewBox="0 0 536 440" fill="none" xmlns="http://www.w3.org/2000/svg">
<path fill-rule="evenodd" clip-rule="evenodd" d="M106.605 167.475C106.004 167.716 105.36 167.819 105.173 167.704C104.988 167.589 103.905 167.819 102.767 168.214C101.629 168.609 100.353 169.001 99.9316 169.086C98.7276 169.326 92.5268 172.954 90.6915 174.491C89.7788 175.256 87.9224 176.818 86.5668 177.964C85.2108 179.11 83.9508 180.051 83.767 180.057C81.2191 180.134 71.0611 182.304 70.2702 182.941C69.9603 183.19 69.5025 183.268 69.2524 183.113C69.0023 182.958 68.6658 183.046 68.5044 183.306C68.3434 183.567 67.699 183.781 67.0722 183.781C66.4455 183.781 65.9332 183.984 65.9332 184.233C65.9332 184.481 65.6182 184.564 65.2332 184.416C64.8482 184.268 64.5332 184.38 64.5332 184.664C64.5332 184.948 64.2098 185.181 63.8141 185.181C63.4189 185.181 61.4762 186.053 59.4977 187.119C53.6692 190.259 53.9562 190.083 51.6333 191.942C50.826 192.587 50.0196 193.115 49.8414 193.115C49.4134 193.115 47.5795 194.752 41.9966 200.117C35.4668 206.391 30.3398 213.786 27.7583 220.653C26.622 223.676 26.1759 224.915 25.9948 225.554C25.922 225.811 25.4283 227.49 24.8987 229.286C24.3686 231.082 23.935 233.223 23.935 234.043C23.935 234.863 23.7251 235.663 23.4684 235.822C22.8893 236.18 22.8244 259.694 23.4017 260.051C23.6215 260.187 23.921 261.454 24.0666 262.866C24.3499 265.61 24.3994 265.791 27.0154 273.628C29.9272 282.35 33.9152 289.321 40.2336 296.732C43.3288 300.362 48.7191 305.154 52.805 307.907C55.8877 309.984 65.1053 314.934 65.8907 314.934C66.1376 314.934 66.9304 315.178 67.6528 315.476C68.3751 315.775 69.1325 315.982 69.3355 315.937C69.538 315.892 70.0933 316.064 70.5693 316.318C72.6855 317.451 84.1963 319.173 89.7321 319.185C97.6935 319.203 110.057 316.902 114.845 314.512C115.277 314.296 117.206 313.417 119.131 312.559C121.056 311.701 122.946 310.754 123.331 310.454C123.716 310.154 124.871 309.485 125.897 308.968C126.924 308.45 128.604 307.363 129.63 306.552C132.934 303.944 139.663 297.485 139.663 296.924C139.663 296.624 140.006 296.094 140.425 295.747C141.225 295.083 141.826 294.248 145.287 288.99C148.356 284.328 151.39 277.676 153.356 271.294C154.894 266.306 157.326 256.713 157.616 254.492C157.785 253.208 158.105 251.528 158.329 250.758C158.553 249.988 158.963 248.479 159.242 247.405C159.737 245.493 159.803 245.442 162.422 244.939C163.892 244.656 165.46 244.222 165.905 243.974C166.351 243.726 167.048 243.523 167.453 243.523C167.858 243.523 170.074 243.076 172.376 242.528C174.678 241.981 176.668 241.641 176.799 241.772C177.054 242.027 174.362 253.864 173.693 255.425C173.474 255.939 173.086 257.409 172.832 258.692C171.785 263.977 171.296 266.197 171.033 266.86C170.669 267.778 169.717 272.888 168.772 278.995C167.691 285.981 167.688 303.447 168.767 304.527C168.929 304.689 169.062 305.181 169.062 305.62C169.062 308.107 173.666 316.883 177.071 320.886C178.419 322.47 181.86 325.203 182.507 325.203C182.771 325.203 183.58 325.498 184.307 325.858C187.108 327.247 189.73 327.534 192.651 326.771C196.182 325.849 197.437 325.183 199.81 322.969C201.91 321.011 205.756 315.117 206.228 313.134C206.39 312.456 206.677 311.691 206.866 311.434C207.055 311.177 207.304 310.285 207.421 309.45C207.603 308.14 207.494 307.933 206.62 307.933C205.8 307.933 205.364 308.555 204.323 311.209C200.891 319.957 196.288 324.271 190.151 324.49C187.676 324.579 186.667 324.391 185.171 323.564C182.848 322.279 180.567 318.683 179.756 315.025C178.858 310.982 178.975 297.048 179.955 291.364C181.08 284.834 181.121 284.613 181.673 282.263C181.945 281.107 182.174 279.847 182.184 279.462C182.193 279.077 182.376 278.342 182.59 277.829C182.804 277.315 183.222 275.635 183.52 274.095C184.092 271.137 184.176 270.778 184.562 269.661C185.004 268.382 187.08 259.76 189.339 249.824C190.27 245.73 191.246 242.464 191.909 241.223C192.453 240.208 192.686 240.153 195.334 240.431C196.896 240.594 198.333 240.983 198.526 241.295C198.719 241.607 199.021 241.717 199.199 241.54C199.377 241.362 200.103 241.631 200.813 242.137C201.523 242.643 202.193 243.057 202.302 243.057C202.41 243.057 203.527 244.001 204.785 245.155L207.07 247.254L208.015 246.289L208.96 245.323L206.772 243.323C205.569 242.223 203.845 240.973 202.942 240.544C202.039 240.115 201.174 239.56 201.019 239.31C200.865 239.06 200.238 238.856 199.627 238.856C199.016 238.856 198.402 238.672 198.264 238.448C198.126 238.224 197.028 238.021 195.825 237.997C194.622 237.973 193.45 237.765 193.22 237.535C192.974 237.289 193.405 235.223 194.273 232.502C195.082 229.964 195.963 227.152 196.23 226.254C197.002 223.666 198.515 219.107 198.942 218.086C199.157 217.573 199.792 215.787 200.354 214.119C201.652 210.262 202.583 208.154 205.921 201.517C209.543 194.314 210.738 192.059 211.293 191.371C211.55 191.053 212.81 189.456 214.093 187.822C216.676 184.532 220.829 181.095 222.688 180.708C223.351 180.57 224.195 180.298 224.564 180.103C225.467 179.625 229.748 180.333 230.486 181.082C231.192 181.798 231.954 184.894 232.319 188.531C232.536 190.701 232.869 191.482 234.157 192.848C235.464 194.234 236.053 194.516 237.644 194.516C242.634 194.516 245.287 188.914 242.654 183.935C241.573 181.891 237.762 178.555 235.811 177.946C231.824 176.702 224.141 176.966 220.861 178.461C216.616 180.395 213.862 181.859 213.393 182.432C213.265 182.589 212.478 183.067 211.643 183.494C210.809 183.922 210.127 184.476 210.127 184.726C210.127 184.976 209.852 185.181 209.516 185.181C208.924 185.181 200.25 193.879 198.086 196.644C196.466 198.713 190.352 207.996 189.035 210.385C187.732 212.75 184.101 220.738 183.52 222.52C183.311 223.162 182.073 226.732 180.77 230.455C179.466 234.177 178.399 237.567 178.397 237.989C178.395 238.692 177.455 239.4 176.295 239.572C175.139 239.744 172.946 240.367 172.095 240.766C171.582 241.007 170.322 241.273 169.295 241.358C168.269 241.443 167.093 241.66 166.682 241.841C166.271 242.022 165.746 242.126 165.515 242.072C165.284 242.018 164.78 242.082 164.395 242.212C159.811 243.762 159.645 243.735 160.201 241.539C160.412 240.705 160.797 238.973 161.057 237.689C163.409 226.052 166.451 213.656 168.214 208.518C170.533 201.759 172.929 195.739 173.814 194.444C174.28 193.762 174.662 193.065 174.662 192.894C174.662 192.197 177.672 188.278 179.966 185.99C185.1 180.869 189.092 178.835 194.987 178.337C198.299 178.057 198.461 177.989 198.461 176.88C198.461 175.732 198.423 175.721 195.544 176.023C192.855 176.304 189.797 177.117 187.494 178.162C185.406 179.11 177.978 181.882 176.715 182.185C175.971 182.363 175.141 182.681 174.873 182.891C173.922 183.631 165.566 184.351 161.61 184.033C157.055 183.667 154.183 182.985 149.966 181.267C148.317 180.596 146.775 180.047 146.538 180.047C146.301 180.047 145.447 179.574 144.641 178.997C143.835 178.419 142.387 177.526 141.425 177.013C140.462 176.5 137.997 175.082 135.946 173.862C133.896 172.643 132.004 171.645 131.741 171.645C131.478 171.645 131.264 171.435 131.264 171.179C131.264 170.922 131.051 170.712 130.792 170.712C130.532 170.712 129.43 170.296 128.342 169.787C125.424 168.423 122.052 167.5 120.994 167.777C120.475 167.913 120.064 167.79 120.064 167.499C120.064 166.848 108.222 166.827 106.605 167.475ZM117.731 169.841C118.116 169.847 118.851 170.03 119.364 170.248C119.877 170.466 121.058 170.769 121.989 170.922C123.998 171.251 130.248 174.429 135.592 177.838C140.802 181.162 146.477 183.952 147.347 183.618C147.741 183.467 148.063 183.495 148.063 183.682C148.063 184.086 151.126 185.085 154.363 185.736C158.447 186.557 168.878 186.445 172.763 185.538C174.671 185.093 176.306 184.803 176.396 184.893C176.487 184.984 174.506 187.204 171.995 189.828C165.03 197.104 160.716 203.503 157.98 210.618C157.387 212.158 156.524 214.259 156.061 215.286C155.598 216.312 154.43 219.673 153.466 222.753C152.502 225.834 151.534 228.774 151.314 229.288C151.096 229.801 149.968 233.173 148.81 236.781C147.651 240.39 146.567 243.697 146.4 244.132C146.16 244.758 145.498 244.922 143.23 244.916C139.273 244.907 139.143 244.776 139.76 241.411C140.449 237.659 140.428 223.474 139.728 219.803C137.725 209.293 132.56 199.931 124.556 192.299C122.066 189.924 119.732 187.981 119.37 187.981C119.007 187.981 118.543 187.719 118.337 187.398C117.937 186.772 116.734 186.028 113.764 184.566C107.555 181.512 99.8611 179.859 92.6486 180.03C90.5315 180.081 88.7988 179.929 88.7988 179.692C88.7988 179.024 92.4097 175.845 95.603 173.704C97.2582 172.593 99.5662 171.523 100.997 171.201C102.373 170.892 103.813 170.521 104.198 170.375C104.583 170.23 105.423 170.145 106.065 170.185C106.706 170.227 107.861 170.051 108.631 169.796C109.401 169.54 111.606 169.444 113.531 169.581C115.456 169.717 117.346 169.834 117.731 169.841ZM100.932 182.588C101.573 182.722 103.05 183.03 104.214 183.273C109.047 184.282 115.458 187.534 120.297 191.43C123.713 194.18 123.936 194.4 127.505 198.524C130.693 202.211 135.463 210.385 135.463 212.163C135.463 212.622 135.657 213.198 135.894 213.442C136.345 213.906 137.118 217.23 137.789 221.587C138.35 225.225 138.35 232.88 137.789 235.232C137.528 236.327 137.043 238.693 136.709 240.489C136.161 243.447 136.004 243.745 135.056 243.641C133.742 243.495 130.131 240.514 129.445 239.008C129.042 238.123 129.09 237.566 129.669 236.447C130.832 234.198 131.078 230.336 130.12 229.377C129.285 228.542 128.125 228.372 127.216 228.95C126.131 229.641 125.372 232.912 125.8 235.057C126.416 238.144 125.955 239.123 122.971 241.073C121.501 242.034 120.192 242.937 120.064 243.079C119.636 243.554 115.666 244.888 112.556 245.603C108.144 246.616 102.443 245.984 97.1984 243.899C94.6692 242.893 91.9804 241.29 91.6766 240.606C91.5908 240.413 91.2342 240.256 90.8842 240.256C90.2398 240.256 84.1072 233.463 83.0651 231.595C80.2965 226.631 79.7739 225.383 77.59 218.522C76.8625 216.236 76.5382 207.646 77.0449 204.084C78.1126 196.581 81.7259 187.233 84.8687 183.842C85.4903 183.172 85.9989 182.475 85.9989 182.294C85.9989 181.567 97.0706 181.786 100.932 182.588ZM82.2658 183.275C82.2658 183.51 82.0964 183.773 81.8897 183.859C81.4071 184.058 77.1327 192.699 77.1327 193.475C77.1327 193.798 76.9311 194.426 76.6847 194.872C76.1868 195.774 75.4457 198.912 74.7304 203.15C74.1611 206.523 74.5353 216.972 75.3076 219.253C75.6114 220.151 76.1788 221.832 76.5685 222.987C78.5293 228.804 82.6498 235.805 85.9131 238.862C87.9593 240.779 90.9981 243.057 91.5105 243.057C91.7727 243.057 92.0574 243.24 92.1433 243.465C92.4475 244.264 97.9516 246.691 101.295 247.501C105.431 248.502 112.949 248.244 116.564 246.975C119.672 245.885 123.711 243.472 125.401 241.696C126.155 240.904 127.023 240.256 127.329 240.256C127.635 240.256 128.417 240.952 129.065 241.802C129.713 242.652 131.205 243.858 132.38 244.481C134.874 245.804 135.136 246.267 134.385 248.018C133.159 250.881 129.829 257.196 128.828 258.559C127.061 260.965 119.497 268.394 116.538 270.628C113.615 272.835 109.976 275.262 109.588 275.262C109.462 275.262 108.229 275.779 106.847 276.411C102.286 278.497 95.7929 279.692 91.3654 279.259C89.8254 279.109 87.796 278.935 86.8552 278.874C85.9149 278.812 84.9873 278.605 84.7945 278.412C84.6013 278.219 84.0815 278.062 83.6391 278.062C83.1963 278.062 81.9284 277.656 80.8206 277.16C79.7132 276.665 78.6404 276.362 78.4365 276.488C78.2325 276.614 78.066 276.494 78.066 276.223C78.066 275.951 77.7696 275.728 77.408 275.728C76.4602 275.728 72.231 272.334 68.8945 268.895C63.2154 263.043 60.6335 257.513 59.8686 249.563C59.4687 245.411 59.7944 239.048 60.5621 236.002C60.7907 235.093 60.6666 234.704 60.0754 234.477C58.9839 234.058 58.107 235.36 57.7547 237.922C57.5961 239.078 57.2545 240.579 56.996 241.259C56.4799 242.618 56.7062 248.324 57.4421 252.48C58.9433 260.961 65.0867 270.513 72.0308 275.163C75.0127 277.158 80.0515 279.691 80.7492 279.544C81.0702 279.477 81.3325 279.64 81.3325 279.908C81.3325 280.176 81.7399 280.396 82.2382 280.396C82.7366 280.396 83.2845 280.623 83.4557 280.9C83.6274 281.178 84.2569 281.282 84.8547 281.132C85.4525 280.982 86.054 281.041 86.1912 281.263C86.6154 281.949 95.8167 282.305 99.765 281.787C104.502 281.166 104.494 281.168 106.998 280.408C108.153 280.058 109.308 279.728 109.565 279.674C109.821 279.619 111.445 278.907 113.172 278.089C124.214 272.863 132.748 263.09 137.558 250.162L138.821 246.765L140.526 247.092C142.003 247.374 142.975 247.521 144.446 247.685C144.951 247.741 144.877 248.863 144.268 250.377C143.376 252.592 139.663 263.669 139.663 264.114C139.663 264.515 136.791 272.157 135.913 274.095C135.679 274.608 135.083 276.088 134.587 277.384C132.31 283.331 129.074 289.337 126.273 292.812C125.425 293.866 124.731 294.861 124.731 295.024C124.731 296.244 113.963 307.313 112.075 308.035C111.593 308.219 111.198 308.535 111.198 308.738C111.198 308.94 110.515 309.397 109.681 309.753C108.847 310.108 107.535 310.857 106.765 311.416C105.512 312.326 99.8634 314.646 97.4318 315.249C94.7938 315.904 92.6682 316.387 91.832 316.522C90.0345 316.813 76.1415 315.935 75.5899 315.495C75.2833 315.252 73.9828 314.901 72.6995 314.716C71.4163 314.532 70.1563 314.234 69.8997 314.055C69.643 313.875 68.593 313.458 67.5664 313.126C63.4842 311.808 58.6232 309.384 56.0664 307.391C55.1313 306.663 54.2348 306.066 54.0748 306.066C53.9147 306.066 51.84 304.499 49.4648 302.584C45.7405 299.581 41.2905 294.759 38.8677 291.1C38.4827 290.519 37.8005 289.658 37.3511 289.187C36.9022 288.716 36.5345 288.244 36.5345 288.139C36.5345 288.033 35.6609 286.405 34.5937 284.522C30.8638 277.939 27.7564 269.288 26.7405 262.66C25.7708 256.333 26.4237 236.032 27.6486 234.422C27.8437 234.165 28.1419 233.22 28.3103 232.322C29.3813 226.622 35.2255 214.536 39.7081 208.751C40.305 207.981 41.3573 206.626 42.047 205.741C43.6182 203.723 49.4144 197.783 49.8124 197.783C49.9748 197.783 51.4111 196.727 53.0043 195.437C56.5583 192.559 56.2834 192.762 59.4001 190.711C61.934 189.044 68.0601 185.923 68.9664 185.837C69.223 185.813 70.063 185.522 70.8329 185.191C72.5082 184.47 79.1756 182.962 80.9825 182.895C81.6885 182.869 82.2658 183.04 82.2658 183.275ZM366.453 195.526C365.298 195.768 362.945 195.879 361.223 195.772L358.093 195.577L357.563 198.197C357.015 200.907 355.924 204.788 355.252 206.418C355.04 206.931 354.623 208.296 354.326 209.451C354.028 210.606 353.496 212.602 353.144 213.885C352.792 215.169 352.264 217.164 351.972 218.319C351.68 219.475 351.26 220.84 351.038 221.353C350.817 221.867 350.392 223.534 350.093 225.059C349.795 226.584 349.384 228.16 349.179 228.56C348.974 228.96 348.484 230.653 348.089 232.322C346.887 237.397 346.326 239.513 345.921 240.489C345.708 241.003 345.294 242.368 345.002 243.523C344.228 246.585 343.305 249.936 342.431 252.858C341.322 256.562 339.67 262.628 337.982 269.194C337.684 270.349 337.267 271.714 337.054 272.228C336.426 273.743 334.779 280.451 333.787 285.53C331.355 297.987 338.421 306.652 347.64 302.517C349.262 301.79 353.307 297.462 354.791 294.865C355.755 293.179 360.066 284.329 360.93 282.263C362.944 277.448 364.603 273.298 364.727 272.766C364.778 272.549 364.339 272.185 363.752 271.958C362.918 271.635 362.627 271.721 362.426 272.353C362.146 273.227 360.652 276.837 358.419 282.029C356.629 286.194 353.036 293.253 351.716 295.197C349.025 299.164 346.069 301.222 343.857 300.666C342.481 300.321 341.497 298.146 341.92 296.385C342.09 295.677 342.301 294.573 342.389 293.931C342.477 293.289 342.962 291.399 343.467 289.73C343.972 288.062 344.607 285.646 344.878 284.363C345.15 283.079 345.581 281.294 345.838 280.396C346.094 279.497 347.14 275.612 348.161 271.761C349.183 267.91 350.567 262.919 351.236 260.669C351.906 258.419 352.454 256.263 352.454 255.878C352.454 255.494 352.64 254.814 352.869 254.368C353.479 253.175 355.914 244.504 357.355 238.389C357.688 236.977 358.311 234.667 358.739 233.255C359.168 231.843 359.691 230.058 359.902 229.288C360.114 228.518 360.643 226.627 361.079 225.087C361.515 223.547 362.556 219.766 363.392 216.686C364.229 213.605 365.024 210.77 365.158 210.385C365.292 210 365.662 208.529 365.979 207.118C366.54 204.62 367.294 201.971 368.609 197.883C368.964 196.783 369.253 195.681 369.253 195.433C369.253 194.926 369.318 194.924 366.453 195.526ZM432.927 196.42C432.755 196.698 432.323 198.063 431.966 199.454C431.046 203.038 430.097 206.475 429.207 209.451C428.784 210.863 428.381 212.333 428.309 212.718C428.238 213.104 428.062 213.734 427.918 214.119C427.774 214.504 427.198 216.709 426.639 219.019C426.079 221.33 425.437 223.64 425.211 224.154C424.985 224.667 424.601 225.927 424.358 226.954C424.115 227.981 423.573 229.976 423.154 231.388C422.244 234.456 421.051 238.815 420.855 239.789C420.777 240.174 420.598 240.805 420.458 241.19C420.317 241.575 419.963 242.835 419.671 243.99C419.38 245.145 418.747 247.561 418.265 249.358C417.784 251.154 417.146 253.57 416.847 254.725C416.549 255.88 416.125 257.245 415.905 257.759C415.685 258.272 415.364 259.427 415.191 260.326C415.018 261.224 414.714 262.17 414.517 262.426C414.318 262.683 414.004 263.838 413.818 264.993C413.631 266.148 413.316 267.304 413.118 267.56C412.919 267.817 412.602 268.964 412.413 270.11C412.224 271.255 411.903 272.515 411.7 272.91C411.496 273.305 410.986 275.098 410.566 276.895C409.525 281.344 408.884 283.72 408.425 284.83C408.213 285.343 407.895 286.491 407.719 287.381C407.543 288.271 407.23 289.322 407.024 289.715C406.639 290.448 405.946 293.012 405.126 296.732C404.872 297.887 404.485 299.252 404.266 299.765C403.473 301.63 403.357 302.332 403.842 302.332C404.114 302.332 406.732 302.415 409.66 302.517C412.588 302.619 414.984 302.615 414.984 302.509C414.984 302.402 415.428 300.691 415.971 298.707C416.514 296.722 417.651 292.473 418.498 289.264C419.345 286.055 420.385 282.274 420.808 280.862C421.232 279.451 421.966 276.825 422.44 275.028C424 269.103 425.275 265.766 428.324 259.626C433.325 249.553 438.526 245.397 440.442 249.941C441.218 251.783 441.164 252.744 440.024 257.292C438.879 261.859 438.076 264.396 435.519 271.528C434.184 275.25 432.788 279.346 432.416 280.629C432.044 281.913 431.566 283.286 431.352 283.682C431.139 284.077 430.817 285.547 430.636 286.949C430.454 288.35 430.1 290.232 429.849 291.131C429.48 292.449 429.601 293.383 430.472 295.97C431.43 298.816 431.855 299.415 434.266 301.317C436.895 303.393 437.078 303.459 440.117 303.431C442.079 303.413 443.896 303.097 444.967 302.59C446.376 301.921 449.381 299.041 450.835 296.965C451.254 296.367 455.116 288.345 455.116 288.073C455.116 287.96 455.851 286.276 456.749 284.331C457.647 282.386 458.382 280.684 458.382 280.549C458.382 280.414 458.688 279.641 459.061 278.833C459.926 276.959 461.166 273.322 461.175 272.632C461.179 272.341 460.779 271.998 460.286 271.869C459.622 271.695 459.314 271.936 459.098 272.799C458.937 273.44 458.412 274.834 457.931 275.896C457.45 276.959 455.872 280.664 454.425 284.13C452.977 287.595 451.058 291.796 450.159 293.464C448.387 296.755 445.036 300.284 443.258 300.73C438.307 301.973 437.669 297.785 441.201 287.22C442.241 284.109 443.467 280.302 443.926 278.762C444.383 277.222 445.849 272.811 447.182 268.961C449.323 262.779 449.643 261.358 449.917 256.825C450.151 252.964 450.069 251.288 449.587 250.066C448.108 246.314 445.969 244.923 441.679 244.923C438.709 244.923 436.254 245.673 434.799 247.024C434.246 247.537 433.113 248.57 432.282 249.318C431.451 250.066 430.442 251.18 430.041 251.792C428.945 253.465 428.461 252.429 429.229 250.052C429.601 248.9 430.211 246.802 430.585 245.39C431.636 241.417 432.755 237.43 433.47 235.112C433.828 233.951 434.424 231.641 434.796 229.978C435.784 225.546 436.479 222.876 436.917 221.82C437.129 221.306 437.515 220.046 437.774 219.019C438.201 217.324 440.374 209.202 441.646 204.551C441.926 203.524 442.339 202.264 442.561 201.75C442.94 200.877 443.879 197.043 443.905 196.266C443.923 195.697 433.281 195.847 432.927 196.42ZM387.767 224.504C387.473 225.688 386.608 228.929 385.122 234.422C383.18 241.601 382.253 245.167 382.001 246.44C381.753 247.692 381.666 247.724 378.533 247.724C375.989 247.724 375.319 247.87 375.319 248.424C375.319 248.972 375.852 249.098 377.769 249.007L380.219 248.891L380.191 251.09C380.175 252.299 379.931 253.77 379.647 254.357C379.364 254.944 378.923 256.265 378.667 257.292C378.412 258.319 377.892 260.209 377.513 261.493C376.487 264.963 375.265 269.332 375.098 270.129C374.697 272.041 373.836 275.13 373.473 275.962C373.249 276.475 372.819 277.84 372.517 278.995C372.215 280.151 371.641 282.356 371.241 283.896C370.841 285.436 370.425 288.305 370.316 290.27C370.14 293.435 370.265 294.155 371.4 296.556C372.738 299.384 374.576 301.412 376.953 302.679C378.731 303.628 383.48 303.612 385.291 302.652C386.649 301.932 389.633 299.022 390.485 297.586C393.944 291.76 394.881 290.05 395.812 287.863C396.412 286.452 397.524 283.931 398.282 282.263C400.225 277.985 400.386 277.587 401.013 275.495C401.321 274.468 401.766 273.384 402.002 273.086C402.267 272.75 402.244 272.429 401.941 272.242C401.672 272.076 401.451 272.083 401.451 272.257C401.451 272.432 401.137 272.314 400.752 271.994C400.241 271.57 400.052 271.56 400.052 271.957C400.052 272.256 399.41 273.909 398.627 275.631C396.901 279.425 396.648 279.99 395.351 282.963C391.399 292.019 387.175 298.746 384.711 299.91C383.035 300.7 380.676 300.597 379.932 299.7C378.946 298.512 379.262 294.186 380.679 289.497C382.208 284.434 382.712 282.617 383.27 280.162C383.503 279.135 384.027 277.14 384.435 275.728C384.844 274.316 385.461 272.111 385.809 270.828C386.157 269.544 386.788 267.339 387.211 265.927C387.634 264.515 388.375 261.889 388.857 260.093C389.339 258.296 390.24 255.145 390.86 253.091L391.987 249.358L395.086 249.219C397.832 249.097 398.185 248.975 398.185 248.144C398.185 247.283 397.959 247.228 395.385 247.454L392.585 247.7V246.106C392.585 245.229 392.795 244.382 393.052 244.223C393.309 244.065 393.519 243.534 393.519 243.045C393.519 242.556 393.806 241.256 394.156 240.156C394.507 239.056 395.263 236.476 395.836 234.422C396.41 232.368 397.146 229.848 397.472 228.821C397.798 227.794 398.206 226.167 398.38 225.204L398.694 223.453H393.361C388.218 223.453 388.018 223.491 387.767 224.504ZM293.423 244.633C292.396 244.923 290.881 245.528 290.056 245.979C287.949 247.129 281.011 254.254 279.89 256.418C279.377 257.41 278.156 259.693 277.178 261.49C273.536 268.182 271.717 275.539 271.523 284.363C271.423 288.883 271.641 290.79 272.564 293.464C272.697 293.849 272.77 294.327 272.728 294.526C272.565 295.282 274.672 298.788 276.083 300.109C277.736 301.657 281.079 303.27 282.612 303.259C284.658 303.245 287.85 301.749 289.563 300.001C290.531 299.013 291.323 298.094 291.323 297.959C291.323 297.823 291.926 296.809 292.664 295.705C293.402 294.601 294.151 293.225 294.329 292.648C294.927 290.705 295.865 291.461 296.202 294.157C296.378 295.565 296.72 296.84 296.963 296.99C297.206 297.14 297.284 297.457 297.138 297.694C296.991 297.932 297.442 298.875 298.14 299.79C300.249 302.556 303.69 303.919 307.338 303.435C312.18 302.793 317.441 295.975 322.595 283.663C323.401 281.738 324.491 279.217 325.017 278.062C325.847 276.241 327.255 272.57 327.255 272.227C327.255 272.163 326.713 272.111 326.051 272.111C325.353 272.111 324.743 272.43 324.598 272.87C323.3 276.822 321.009 282.222 318.239 287.863C315.478 293.487 314.428 295.125 312.029 297.548C309.608 299.995 308.884 300.465 307.547 300.465C305.377 300.465 303.957 298.919 304.118 296.732C304.185 295.833 304.713 293.418 305.292 291.364C305.871 289.31 306.663 286.475 307.05 285.063C307.439 283.651 307.934 281.866 308.152 281.096C308.369 280.326 308.867 278.54 309.257 277.128C309.647 275.717 310.381 273.091 310.888 271.294C311.988 267.39 314.989 256.368 315.843 253.091C316.177 251.808 316.677 250.024 316.953 249.127C318.082 245.461 318.122 245.491 311.922 245.422L306.389 245.361L305.812 248.293C304.916 252.844 304.871 252.873 303.44 249.824C301.673 246.062 300.042 244.577 297.389 244.314C296.235 244.2 294.45 244.343 293.423 244.633ZM243.352 245.484C243.044 245.792 242.792 245.877 242.792 245.673C242.792 245.289 239.241 247.244 237.486 248.593C231.407 253.267 225.438 263.087 221.96 274.133C220.779 277.884 220.649 278.965 220.638 285.063L220.626 291.831L222.225 294.781C225.247 300.356 229.919 303.404 235.494 303.438C239.815 303.464 242.326 302.675 246.296 300.043C249.334 298.029 253.462 293.527 253.506 292.181C253.516 291.86 253.714 291.597 253.946 291.597C254.389 291.597 255.147 290.328 258.136 284.583C259.879 281.233 263.481 272.456 263.216 272.203C263.147 272.137 262.699 272.011 262.221 271.922C261.528 271.794 261.022 272.521 259.738 275.495C257.513 280.648 254.158 287.173 252.299 289.964C249.912 293.547 247.006 297.198 246.542 297.198C246.313 297.198 245.848 297.468 245.508 297.797C243.203 300.036 241.668 300.643 237.799 300.846C233.406 301.076 232.544 300.662 231.32 297.734C230.526 295.831 230.426 288.419 231.173 286.778C231.616 285.807 232.118 285.605 234.77 285.333C236.465 285.159 238.071 284.854 238.339 284.655C238.606 284.456 239.77 284.023 240.925 283.693C247.851 281.714 254.484 273.731 256.847 264.527C258.984 256.208 256.518 247.782 251.312 245.606C249.336 244.781 244.135 244.7 243.352 245.484ZM478.915 246.39C478.915 246.837 478.728 247.317 478.501 247.458C478.274 247.598 477.944 248.503 477.768 249.469C477.469 251.116 476.414 254.719 475.615 256.825C475.42 257.339 475.055 258.599 474.803 259.626C474.551 260.653 473.679 263.698 472.866 266.393C472.053 269.089 470.968 273.08 470.455 275.262C469.942 277.444 469.341 279.649 469.121 280.162C468.434 281.761 467.27 286.105 466.746 289.03C465.431 296.358 465.747 298.143 468.9 301.208C470.401 302.667 471.358 303.188 472.91 303.395C478.587 304.151 482.534 301.624 487.357 294.144C489.265 291.185 489.425 291.048 489.566 292.249C489.649 292.961 489.556 293.893 489.359 294.32C489.162 294.748 488.969 295.308 488.929 295.565C488.89 295.821 488.736 296.346 488.588 296.732C488.44 297.117 487.859 299.007 487.296 300.932C486.733 302.857 486.034 304.672 485.744 304.965C485.452 305.257 483.744 306.288 481.948 307.254C480.151 308.221 478.259 309.242 477.742 309.523C477.225 309.804 476.142 310.506 475.336 311.084C474.53 311.661 473.641 312.134 473.36 312.134C473.078 312.134 472.848 312.344 472.848 312.601C472.848 312.857 472.622 313.067 472.345 313.067C471.781 313.067 466.305 317.616 465.679 318.604C465.458 318.954 464.933 319.599 464.513 320.037C462.102 322.549 458.963 328.578 457.957 332.627C457.033 336.345 456.708 342.714 457.419 343.153C457.692 343.322 457.916 343.895 457.916 344.426C457.916 345.758 460.368 349.867 462.219 351.636C465.11 354.4 467.096 355.198 470.501 354.961C474.943 354.651 477.943 353.172 481.132 349.723C482.607 348.127 484.468 345.58 485.266 344.063C486.466 341.784 489.914 331.136 493.113 319.835C493.477 318.552 494.18 316.136 494.676 314.468C495.172 312.799 496.065 309.578 496.66 307.31C497.734 303.22 497.768 303.166 500.812 300.621C502.499 299.211 504.487 297.503 505.228 296.827C507.983 294.313 511.579 288.853 514.361 282.963C515.937 279.626 517.636 276.088 518.136 275.101C519.23 272.945 519.268 272.461 518.346 272.461C517.961 272.461 517.646 272.206 517.646 271.894C517.646 270.684 516.373 272.794 515.052 276.195C512.096 283.801 507.95 290.471 503.517 294.748C500.055 298.088 499.275 298.399 500.002 296.148C500.271 295.314 500.545 294.211 500.61 293.698C500.674 293.184 500.845 292.449 500.99 292.064C501.536 290.612 504.533 279.627 504.811 278.062C504.971 277.164 505.278 276.008 505.495 275.495C505.711 274.981 506.35 272.776 506.913 270.594C507.477 268.412 508.124 266.207 508.351 265.693C508.578 265.18 508.961 263.92 509.203 262.893C509.445 261.866 510.304 258.716 511.111 255.892C513.535 247.424 513.902 246.102 513.908 245.828C513.911 245.683 511.507 245.575 508.567 245.588C502.606 245.613 502.834 245.485 501.854 249.358C501.594 250.384 501.036 252.38 500.614 253.792C500.191 255.203 499.637 257.199 499.381 258.226C499.126 259.252 498.748 260.415 498.541 260.808C498.335 261.201 498.017 262.252 497.835 263.142C497.16 266.441 493.957 276.201 493.329 276.872C493.101 277.115 492.914 277.631 492.914 278.017C492.914 279.335 486.71 291.357 484.625 294.078C482.128 297.339 478.925 300.438 478.036 300.454C477.087 300.471 475.648 298.619 475.648 297.382C475.648 296.792 475.844 295.826 476.083 295.237C476.565 294.049 477.617 290.28 478.468 286.697C479.064 284.182 480.284 279.666 480.674 278.529C480.958 277.701 483.272 269.221 484.304 265.227C484.702 263.686 485.21 262.006 485.432 261.493C485.654 260.979 486.586 257.619 487.503 254.025C488.42 250.431 489.3 247.022 489.46 246.45C489.75 245.414 489.73 245.41 484.333 245.494C479.529 245.569 478.915 245.671 478.915 246.39ZM298.417 246.813C301.077 248.027 302.783 252.943 302.33 258.085C301.975 262.112 301.781 263.577 301.478 264.527C300.553 267.423 300.204 268.733 299.923 270.361C299.746 271.388 299.447 272.438 299.259 272.694C299.071 272.951 298.904 273.476 298.888 273.861C298.872 274.246 298.515 275.717 298.095 277.128C297.676 278.54 297.044 280.851 296.693 282.264C296.342 283.676 295.726 285.461 295.325 286.231C294.924 287.001 294.594 287.762 294.592 287.923C294.591 288.085 293.632 289.975 292.461 292.124C290.233 296.214 287.717 298.979 285.32 299.972C284.062 300.493 283.739 300.445 282.48 299.548C281.699 298.992 280.923 297.995 280.757 297.332C280.349 295.709 280.907 285.789 281.465 284.736C281.71 284.274 282.374 282.006 282.942 279.696C285.135 270.767 291.747 252.279 293.765 249.431C296.131 246.093 296.448 245.914 298.417 246.813ZM250.645 248.185C251.448 248.952 252.243 250.133 252.413 250.81C253.159 253.782 251.829 263.034 250.225 266.037C249.987 266.483 249.785 267.113 249.776 267.437C249.767 267.762 249.354 268.867 248.858 269.894C248.362 270.921 247.95 271.929 247.941 272.133C247.932 272.338 247.169 273.689 246.244 275.135C244.38 278.048 241.779 280.775 239.981 281.701C238.369 282.531 232.841 283.652 232.402 283.239C232.075 282.931 232.671 280.241 234.583 273.395C236.026 268.223 240.081 258.139 243.065 252.297C244.324 249.833 247.383 246.836 248.673 246.804C248.955 246.797 249.843 247.418 250.645 248.185ZM484.611 310.591C484.333 311.311 483.976 312.636 483.816 313.534C483.657 314.433 483.346 315.588 483.124 316.101C482.744 316.98 481.037 323.372 479.51 329.637C478.497 333.788 477.473 337.449 477.029 338.505C476.812 339.018 476.492 340.166 476.316 341.056C476.14 341.946 475.833 342.997 475.635 343.39C475.436 343.784 474.78 345.432 474.177 347.053C472.763 350.859 472.036 351.478 468.748 351.681C465.536 351.88 464.305 351.307 462.308 348.688C460.137 345.841 459.195 342.409 459.438 338.232C459.884 330.59 462.341 325.211 468.053 319.368C470.473 316.894 473.965 314.001 474.534 314.001C474.721 314.001 475.25 313.662 475.707 313.247C477.23 311.869 484.267 308.443 484.698 308.869C484.944 309.111 484.907 309.822 484.611 310.591Z" fill="#C5DD30"/>
<path fill-rule="evenodd" clip-rule="evenodd" d="M103.992 62.4286C103.885 62.5357 103.798 83.2014 103.798 108.353V154.082H123.177H142.556L142.426 147.655L142.296 141.228L130.397 141.136L118.497 141.044L118.138 136.696C117.94 134.304 117.835 128.63 117.905 124.087C118.027 116.068 118.064 115.791 119.163 114.62C119.786 113.956 120.521 113.447 120.796 113.489C121.072 113.53 121.658 113.406 122.098 113.212C122.539 113.019 124.114 112.983 125.598 113.133C127.083 113.282 130.449 113.537 133.08 113.697L137.863 113.99V107.699V101.409L131.213 101.104C127.556 100.937 123.143 100.799 121.406 100.798L118.249 100.796L118.373 88.1462L118.497 75.4968L124.097 75.3122C127.177 75.2108 132.689 74.992 136.346 74.8256L142.996 74.5232V68.5056V62.4875L123.591 62.3609C112.918 62.2907 104.099 62.3216 103.992 62.4286ZM397.318 68.0765V74.153H404.784H412.251V113.802V153.451L418.745 153.416C422.317 153.397 425.335 153.276 425.452 153.147C425.569 153.019 425.809 136.087 425.985 115.52C426.161 94.9533 426.381 77.3899 426.475 76.4901C426.568 75.5903 426.661 74.7017 426.681 74.5157C426.7 74.3297 429.919 74.1193 433.833 74.0483L440.949 73.9193L441.08 67.9596L441.211 62H419.264H397.318V68.0765ZM217.193 68.5019V74.6204L223.376 74.7003C226.777 74.7443 229.979 74.8008 230.492 74.8256C231.415 74.871 231.429 75.2977 231.709 112.49C231.866 133.181 232.023 151.003 232.059 152.096L232.125 154.082H239.125H246.125V114.585C246.125 83.3234 246.247 75.078 246.708 75.0416C247.461 74.9822 252.825 74.8144 257.441 74.7055L261.057 74.6204V68.4785V62.3365L254.408 62.703C246.879 63.1181 226.848 63.097 221.043 62.6679L217.193 62.3833V68.5019ZM310.055 82.159V101.851L311.93 101.55C314.137 101.197 316.236 101.622 315.987 102.371C315.89 102.662 315.409 102.974 314.916 103.066C314.425 103.158 313.108 103.646 311.99 104.151L309.959 105.07L310.321 107.257C310.825 110.306 310.554 123.026 309.93 125.569C309.32 128.06 309.244 140.945 309.797 148.29L310.188 153.482L316.204 153.8C322.253 154.12 323.225 154.006 323.052 152.996C323 152.694 323.122 150.635 323.323 148.42C323.791 143.258 323.247 142.397 319.518 142.397C318.163 142.397 317.055 142.228 317.055 142.022C317.055 141.815 318.157 141.26 319.505 140.788C322.62 139.696 323.125 139.237 322.071 138.457C321.009 137.672 321.034 136.921 322.133 136.572C323.389 136.172 323.588 134.533 323.588 124.576V115.754H332.921H342.254V109.677V103.601H333.438C326.51 103.601 324.57 103.467 324.382 102.976C324.129 102.316 323.85 91.1218 323.832 80.9306L323.821 74.8541H335.488H347.154L347.298 70.6473C347.377 68.3336 347.312 65.5463 347.153 64.454L346.863 62.4674H328.459H310.055V82.159ZM172.826 63.1541C172.719 63.198 172.355 65.0448 171.671 69.0113C170.219 77.4371 169.57 81.4195 168.627 87.7083C167.725 93.7235 167.243 96.722 165.606 106.522C165.209 108.9 164.619 112.634 164.295 114.819C163.971 117.004 163.578 119.107 163.423 119.493C163.267 119.879 162.901 121.982 162.611 124.167C162.32 126.352 161.768 129.928 161.385 132.113C161.001 134.299 160.372 138.716 159.987 141.929C159.602 145.143 159.103 148.193 158.878 148.707C158.653 149.221 158.352 150.641 158.208 151.862L157.947 154.082H164.471C168.059 154.082 171.014 154.03 171.039 153.965C171.063 153.901 171.272 151.85 171.503 149.408C171.941 144.782 172.05 144.018 172.603 141.696C173.534 137.788 174.167 137.182 177.528 136.973C183.368 136.61 189.929 136.975 190.814 137.711C191.667 138.42 192.437 141.651 192.968 146.747C193.204 149.01 193.707 151.464 194.087 152.199L194.777 153.536L201.1 153.557C204.578 153.569 207.631 153.707 207.886 153.864C208.352 154.153 208.32 153.762 207.377 147.655C206.269 140.475 205.905 138.294 205.013 133.516C204.749 132.102 204.445 130.209 204.336 129.309C204.006 126.58 201.869 112.932 200.126 102.432C199.742 100.118 199.21 96.6477 198.943 94.7196C198.677 92.7915 198.331 90.8984 198.174 90.5128C198.018 90.1272 197.627 88.1289 197.305 86.0723C196.983 84.0156 196.395 80.4398 195.997 78.1261C195.6 75.8123 194.943 71.6097 194.538 68.787C194.133 65.9642 193.746 63.5991 193.678 63.5313C193.587 63.4401 173.034 63.0681 172.826 63.1541ZM365.905 63.2387C365.725 63.4191 365.583 83.6309 365.591 108.153L365.604 152.74L368.115 153.892C369.497 154.525 370.883 155.353 371.197 155.731C372.036 156.744 372.626 156.574 374.579 154.755L376.34 153.116L375.163 151.104C373.873 148.9 373.516 144.999 374.569 144.629C376.654 143.895 378.627 146.202 377.041 147.52C376.036 148.355 376.138 149.061 377.215 148.719C377.855 148.515 378.196 148.706 378.413 149.388C378.579 149.913 378.878 150.343 379.076 150.343C379.544 150.343 380.123 70.2126 379.684 66.2068L379.352 63.1686L372.793 63.0395C369.185 62.9685 366.085 63.0582 365.905 63.2387ZM230.465 66.9617C231.22 67.3277 232.69 67.7568 233.731 67.9157C236.698 68.3682 238.168 69.3245 238.185 70.8114C238.19 71.2788 237.677 71.3835 236.209 71.2152C233.709 70.9287 230.223 69.9308 229.439 69.2768C227.493 67.6558 226.059 66.2582 226.059 65.982C226.059 65.5454 228.797 66.154 230.465 66.9617ZM183.042 82.216C183.364 83.0518 183.743 85.1024 183.884 86.7734C184.025 88.4444 184.268 90.1272 184.426 90.5128C184.72 91.2331 185.197 94.4443 186.823 106.639C188.628 120.187 189.084 123.472 189.255 124.167C189.401 124.761 188.427 124.888 182.917 124.999C179.336 125.071 176.17 125.039 175.882 124.928C175.498 124.78 175.522 123.559 175.974 120.357C176.312 117.954 177.001 113.043 177.505 109.443C178.406 103.003 179.184 97.8738 180.589 89.1105C180.981 86.6682 181.418 83.7758 181.562 82.6835C181.873 80.3024 182.257 80.1813 183.042 82.216ZM100.605 167.201C100.004 167.442 99.3596 167.545 99.1734 167.43C98.9877 167.315 97.9046 167.545 96.7669 167.94C95.6292 168.336 94.3534 168.729 93.9316 168.814C92.7276 169.054 86.5268 172.687 84.6915 174.227C83.7788 174.992 81.9224 176.557 80.5668 177.704C79.2108 178.852 77.9508 179.795 77.767 179.801C75.2191 179.877 65.0611 182.051 64.2702 182.69C63.9603 182.939 63.5025 183.016 63.2524 182.862C63.0023 182.706 62.6658 182.794 62.5044 183.055C62.3434 183.316 61.699 183.53 61.0722 183.53C60.4455 183.53 59.9332 183.734 59.9332 183.983C59.9332 184.232 59.6182 184.314 59.2332 184.167C58.8482 184.018 58.5332 184.13 58.5332 184.415C58.5332 184.699 58.2098 184.932 57.8141 184.932C57.4189 184.932 55.4762 185.806 53.4977 186.873C47.6692 190.018 47.9562 189.842 45.6333 191.703C44.826 192.349 44.0196 192.878 43.8414 192.878C43.4134 192.878 41.5795 194.518 35.9966 199.89C29.4668 206.173 24.3398 213.58 21.7583 220.456C20.622 223.484 20.1759 224.725 19.9948 225.364C19.922 225.621 19.4283 227.304 18.8987 229.102C18.3686 230.901 17.935 233.044 17.935 233.866C17.935 234.687 17.7251 235.489 17.4684 235.648C16.8893 236.006 16.8244 259.555 17.4017 259.912C17.6215 260.048 17.921 261.317 18.0666 262.731C18.3499 265.479 18.3994 265.66 21.0154 273.509C23.9272 282.244 27.9152 289.224 34.2336 296.646C37.3288 300.282 42.7191 305.081 46.805 307.838C49.8877 309.918 59.1053 314.876 59.8907 314.876C60.1376 314.876 60.9304 315.12 61.6528 315.418C62.3751 315.717 63.1325 315.925 63.3355 315.88C63.538 315.835 64.0933 316.007 64.5693 316.262C66.6855 317.396 78.1963 319.121 83.7321 319.133C91.6935 319.15 104.057 316.846 108.845 314.452C109.277 314.236 111.206 313.356 113.131 312.497C115.056 311.637 116.946 310.689 117.331 310.389C117.716 310.088 118.871 309.419 119.897 308.9C120.924 308.382 122.604 307.293 123.63 306.481C126.934 303.869 133.663 297.401 133.663 296.839C133.663 296.539 134.006 296.008 134.425 295.66C135.225 294.995 135.826 294.159 139.287 288.893C142.356 284.224 145.39 277.563 147.356 271.172C148.894 266.176 151.326 256.569 151.616 254.344C151.785 253.059 152.105 251.376 152.329 250.605C152.553 249.834 152.963 248.323 153.242 247.248C153.737 245.333 153.803 245.282 156.422 244.778C157.892 244.494 159.46 244.06 159.905 243.812C160.351 243.563 161.048 243.36 161.453 243.36C161.858 243.36 164.074 242.912 166.376 242.363C168.678 241.816 170.668 241.475 170.799 241.606C171.054 241.861 168.362 253.716 167.693 255.279C167.474 255.793 167.086 257.266 166.832 258.551C165.785 263.844 165.296 266.067 165.033 266.731C164.669 267.651 163.717 272.768 162.772 278.884C161.691 285.88 161.688 303.372 162.767 304.453C162.929 304.615 163.062 305.108 163.062 305.548C163.062 308.039 167.666 316.828 171.071 320.836C172.419 322.423 175.86 325.159 176.507 325.159C176.771 325.159 177.58 325.454 178.307 325.815C181.108 327.206 183.73 327.494 186.651 326.73C190.182 325.806 191.437 325.139 193.81 322.922C195.91 320.961 199.756 315.059 200.228 313.072C200.39 312.393 200.677 311.627 200.866 311.37C201.055 311.113 201.304 310.219 201.421 309.383C201.603 308.071 201.494 307.864 200.62 307.864C199.8 307.864 199.364 308.487 198.323 311.145C194.891 319.906 190.288 324.226 184.151 324.446C181.676 324.535 180.667 324.347 179.171 323.518C176.848 322.231 174.567 318.63 173.756 314.967C172.858 310.917 172.975 296.963 173.955 291.271C175.08 284.731 175.121 284.51 175.673 282.156C175.945 280.999 176.174 279.737 176.184 279.352C176.193 278.966 176.376 278.23 176.59 277.716C176.804 277.201 177.222 275.519 177.52 273.976C178.092 271.014 178.176 270.654 178.562 269.536C179.004 268.255 181.08 259.621 183.339 249.67C184.27 245.57 185.246 242.299 185.909 241.057C186.453 240.039 186.686 239.985 189.334 240.263C190.896 240.426 192.333 240.816 192.526 241.129C192.719 241.441 193.021 241.552 193.199 241.374C193.377 241.196 194.103 241.465 194.813 241.972C195.523 242.478 196.193 242.893 196.302 242.893C196.41 242.893 197.527 243.839 198.785 244.995L201.07 247.097L202.015 246.13L202.96 245.162L200.772 243.159C199.569 242.058 197.845 240.806 196.942 240.376C196.039 239.947 195.174 239.391 195.019 239.141C194.865 238.891 194.238 238.686 193.627 238.686C193.016 238.686 192.402 238.502 192.264 238.278C192.126 238.053 191.028 237.85 189.825 237.826C188.622 237.802 187.45 237.593 187.22 237.363C186.974 237.116 187.405 235.047 188.273 232.323C189.082 229.781 189.963 226.965 190.23 226.065C191.002 223.474 192.515 218.908 192.942 217.885C193.157 217.371 193.792 215.583 194.354 213.912C195.652 210.05 196.583 207.939 199.921 201.292C203.543 194.079 204.738 191.82 205.293 191.132C205.55 190.813 206.81 189.214 208.093 187.577C210.676 184.282 214.829 180.84 216.688 180.453C217.351 180.315 218.195 180.042 218.564 179.847C219.467 179.368 223.748 180.078 224.486 180.828C225.192 181.545 225.954 184.645 226.319 188.287C226.536 190.46 226.869 191.242 228.157 192.611C229.464 193.998 230.053 194.281 231.644 194.281C236.634 194.281 239.287 188.671 236.654 183.685C235.573 181.637 231.762 178.297 229.811 177.687C225.824 176.441 218.141 176.706 214.861 178.203C210.616 180.139 207.862 181.606 207.393 182.179C207.265 182.336 206.478 182.815 205.643 183.243C204.809 183.671 204.127 184.226 204.127 184.477C204.127 184.727 203.852 184.932 203.516 184.932C202.924 184.932 194.25 193.644 192.086 196.412C190.466 198.484 184.352 207.78 183.035 210.173C181.732 212.541 178.101 220.541 177.52 222.326C177.311 222.969 176.073 226.544 174.77 230.272C173.466 234 172.399 237.395 172.397 237.818C172.395 238.521 171.455 239.23 170.295 239.403C169.139 239.575 166.946 240.199 166.095 240.599C165.582 240.84 164.322 241.107 163.295 241.192C162.269 241.277 161.093 241.494 160.682 241.675C160.271 241.856 159.746 241.961 159.515 241.907C159.284 241.853 158.78 241.916 158.395 242.047C153.811 243.599 153.645 243.572 154.201 241.373C154.412 240.538 154.797 238.803 155.057 237.517C157.409 225.863 160.451 213.449 162.214 208.303C164.533 201.535 166.929 195.505 167.814 194.209C168.28 193.526 168.662 192.828 168.662 192.657C168.662 191.958 171.672 188.034 173.966 185.743C179.1 180.614 183.092 178.577 188.987 178.078C192.299 177.797 192.461 177.73 192.461 176.619C192.461 175.47 192.423 175.458 189.544 175.76C186.855 176.042 183.797 176.856 181.494 177.903C179.406 178.852 171.978 181.629 170.715 181.932C169.971 182.11 169.141 182.428 168.873 182.639C167.922 183.38 159.566 184.101 155.61 183.783C151.055 183.416 148.183 182.733 143.966 181.013C142.317 180.341 140.775 179.791 140.538 179.791C140.301 179.791 139.447 179.317 138.641 178.739C137.835 178.161 136.387 177.266 135.425 176.752C134.462 176.238 131.997 174.818 129.946 173.597C127.896 172.376 126.004 171.377 125.741 171.377C125.478 171.377 125.264 171.167 125.264 170.91C125.264 170.652 125.051 170.442 124.792 170.442C124.532 170.442 123.43 170.025 122.342 169.516C119.424 168.149 116.052 167.226 114.994 167.503C114.475 167.639 114.064 167.516 114.064 167.225C114.064 166.573 102.222 166.552 100.605 167.201ZM111.731 169.569C112.116 169.575 112.851 169.759 113.364 169.977C113.877 170.196 115.058 170.5 115.989 170.652C117.998 170.982 124.248 174.164 129.592 177.578C134.802 180.907 140.477 183.701 141.347 183.367C141.741 183.216 142.063 183.244 142.063 183.431C142.063 183.836 145.126 184.836 148.363 185.488C152.447 186.311 162.878 186.198 166.763 185.29C168.671 184.844 170.306 184.554 170.396 184.644C170.487 184.735 168.506 186.958 165.995 189.586C159.03 196.872 154.716 203.281 151.98 210.407C151.387 211.949 150.524 214.053 150.061 215.081C149.598 216.109 148.43 219.475 147.466 222.56C146.502 225.645 145.534 228.589 145.314 229.104C145.096 229.618 143.968 232.995 142.81 236.608C141.651 240.222 140.567 243.534 140.4 243.97C140.16 244.597 139.498 244.761 137.23 244.755C133.273 244.745 133.143 244.614 133.76 241.245C134.449 237.487 134.428 223.281 133.728 219.605C131.725 209.08 126.56 199.704 118.556 192.06C116.066 189.683 113.732 187.737 113.37 187.737C113.007 187.737 112.543 187.474 112.337 187.152C111.937 186.526 110.734 185.78 107.764 184.317C101.555 181.258 93.8611 179.603 86.6486 179.774C84.5315 179.825 82.7988 179.672 82.7988 179.436C82.7988 178.766 86.4097 175.583 89.603 173.438C91.2582 172.326 93.5662 171.254 94.9969 170.932C96.3726 170.622 97.8131 170.25 98.1981 170.105C98.5831 169.96 99.4231 169.874 100.065 169.915C100.706 169.956 101.861 169.78 102.631 169.525C103.401 169.269 105.606 169.172 107.531 169.309C109.456 169.446 111.346 169.563 111.731 169.569ZM269.633 172.034C266.728 173.388 264.817 175.672 264.058 178.695C263.146 182.325 263.901 185.563 266.437 188.89C268.346 191.396 268.414 191.831 266.983 192.376C264.341 193.382 259.366 198.561 258.643 201.058C257.773 204.058 258.016 208.737 259.183 211.452C260.802 215.224 265.668 219.054 268.839 219.054C269.662 219.054 270.465 219.264 270.624 219.521C270.989 220.113 273.387 220.124 275.257 219.544C276.045 219.299 277.694 218.849 278.922 218.544C280.149 218.239 282.311 217.177 283.726 216.185C285.141 215.192 286.446 214.386 286.627 214.394C286.808 214.402 287.663 215.349 288.528 216.498L290.099 218.587H294.944C297.609 218.587 299.789 218.505 299.789 218.406C299.789 217.757 298.223 215.529 295.733 212.634C291.692 207.939 291.641 207.808 293.148 205.987C295.046 203.693 297.073 198.601 297.153 195.927L297.223 193.601L293.676 193.486C290.286 193.375 290.104 193.422 289.592 194.548C289.297 195.197 289.056 196.12 289.056 196.601C289.056 197.082 288.626 198.479 288.101 199.706L287.147 201.937L286.118 200.782C284.199 198.624 281.286 194.987 280.471 193.73C279.694 192.532 279.697 192.458 280.536 192.008C282.427 190.995 285.8 187.407 286.53 185.633C287.49 183.301 287.505 178.013 286.557 176.195C284.695 172.623 281.129 170.907 275.581 170.914C272.818 170.917 271.49 171.168 269.633 172.034ZM279.025 178.205C279.392 178.691 279.697 180.036 279.702 181.193C279.709 182.998 279.443 183.593 277.83 185.385C275.677 187.776 275.209 187.704 273.089 184.653C271.506 182.375 271.397 179.949 272.799 178.165C273.708 177.007 274.029 176.903 276.081 177.101C277.578 177.244 278.585 177.622 279.025 178.205ZM94.9316 182.336C95.5732 182.469 97.0502 182.778 98.214 183.021C103.047 184.032 109.458 187.289 114.297 191.19C117.713 193.944 117.936 194.165 121.505 198.295C124.693 201.987 129.463 210.173 129.463 211.953C129.463 212.414 129.657 212.991 129.894 213.235C130.345 213.699 131.118 217.028 131.789 221.391C132.35 225.035 132.35 232.701 131.789 235.057C131.528 236.153 131.043 238.522 130.709 240.322C130.161 243.283 130.004 243.583 129.056 243.478C127.742 243.332 124.131 240.346 123.445 238.838C123.042 237.952 123.09 237.394 123.669 236.273C124.832 234.021 125.078 230.153 124.12 229.193C123.285 228.357 122.125 228.187 121.216 228.766C120.131 229.457 119.372 232.733 119.8 234.881C120.416 237.973 119.955 238.953 116.971 240.906C115.501 241.868 114.192 242.773 114.064 242.916C113.636 243.391 109.666 244.727 106.556 245.443C102.144 246.458 96.4431 245.824 91.1984 243.736C88.6692 242.729 85.9804 241.123 85.6766 240.439C85.5908 240.246 85.2342 240.088 84.8842 240.088C84.2398 240.088 78.1072 233.285 77.0651 231.415C74.2965 226.443 73.7739 225.193 71.59 218.322C70.8625 216.033 70.5382 207.431 71.0449 203.863C72.1126 196.349 75.7259 186.987 78.8687 183.592C79.4903 182.92 79.9989 182.223 79.9989 182.041C79.9989 181.313 91.0706 181.532 94.9316 182.336ZM76.2658 183.024C76.2658 183.259 76.0964 183.522 75.8897 183.608C75.4071 183.808 71.1327 192.461 71.1327 193.239C71.1327 193.562 70.9311 194.191 70.6847 194.638C70.1868 195.541 69.4457 198.684 68.7304 202.928C68.1611 206.306 68.5353 216.77 69.3076 219.054C69.6114 219.954 70.1788 221.637 70.5685 222.793C72.5293 228.619 76.6498 235.63 79.9131 238.692C81.9593 240.612 84.9981 242.893 85.5105 242.893C85.7727 242.893 86.0574 243.077 86.1433 243.302C86.4475 244.102 91.9516 246.533 95.2951 247.343C99.4315 248.346 106.949 248.088 110.564 246.817C113.672 245.725 117.711 243.309 119.401 241.531C120.155 240.737 121.023 240.088 121.329 240.088C121.635 240.088 122.417 240.785 123.065 241.636C123.713 242.488 125.205 243.695 126.38 244.319C128.874 245.644 129.136 246.108 128.385 247.861C127.159 250.728 123.829 257.053 122.828 258.418C121.061 260.828 113.497 268.267 110.538 270.504C107.615 272.715 103.976 275.145 103.588 275.145C103.462 275.145 102.229 275.663 100.847 276.296C96.2863 278.385 89.7929 279.582 85.3654 279.148C83.8254 278.998 81.796 278.824 80.8552 278.762C79.9149 278.701 78.9873 278.493 78.7945 278.3C78.6013 278.107 78.0815 277.949 77.6391 277.949C77.1963 277.949 75.9284 277.543 74.8206 277.046C73.7132 276.55 72.6404 276.246 72.4365 276.373C72.2325 276.499 72.066 276.379 72.066 276.107C72.066 275.835 71.7696 275.612 71.408 275.612C70.4602 275.612 66.231 272.213 62.8945 268.769C57.2154 262.909 54.6335 257.37 53.8686 249.409C53.4687 245.251 53.7944 238.878 54.5621 235.828C54.7907 234.918 54.6666 234.528 54.0754 234.3C52.9839 233.881 52.107 235.185 51.7547 237.751C51.5961 238.908 51.2545 240.412 50.996 241.093C50.4799 242.453 50.7062 248.167 51.4421 252.33C52.9433 260.823 59.0867 270.39 66.0308 275.046C69.0127 277.044 74.0515 279.581 74.7492 279.434C75.0702 279.366 75.3325 279.53 75.3325 279.798C75.3325 280.067 75.7399 280.286 76.2382 280.286C76.7366 280.286 77.2845 280.514 77.4557 280.792C77.6274 281.07 78.2569 281.174 78.8547 281.024C79.4525 280.874 80.054 280.932 80.1912 281.155C80.6154 281.842 89.8167 282.198 93.765 281.68C98.5019 281.058 98.4935 281.06 100.998 280.299C102.153 279.948 103.308 279.618 103.565 279.563C103.821 279.509 105.445 278.795 107.172 277.976C118.214 272.743 126.748 262.956 131.558 250.008L132.821 246.607L134.526 246.933C136.003 247.217 136.975 247.364 138.446 247.528C138.951 247.584 138.877 248.708 138.268 250.224C137.376 252.443 133.663 263.535 133.663 263.981C133.663 264.383 130.791 272.035 129.913 273.976C129.679 274.49 129.083 275.973 128.587 277.271C126.31 283.227 123.074 289.24 120.273 292.721C119.425 293.776 118.731 294.773 118.731 294.936C118.731 296.158 107.963 307.244 106.075 307.966C105.593 308.151 105.198 308.467 105.198 308.67C105.198 308.873 104.515 309.33 103.681 309.686C102.847 310.043 101.535 310.792 100.765 311.352C99.5117 312.263 93.8634 314.587 91.4318 315.191C88.7938 315.847 86.6682 316.331 85.832 316.466C84.0345 316.757 70.1415 315.877 69.5899 315.438C69.2833 315.194 67.9828 314.842 66.6995 314.657C65.4163 314.472 64.1563 314.174 63.8997 313.995C63.643 313.815 62.593 313.397 61.5664 313.065C57.4842 311.744 52.6232 309.317 50.0664 307.322C49.1313 306.592 48.2348 305.995 48.0748 305.995C47.9147 305.995 45.84 304.426 43.4648 302.507C39.7405 299.5 35.2905 294.671 32.8677 291.007C32.4827 290.424 31.8005 289.562 31.3511 289.09C30.9022 288.619 30.5345 288.146 30.5345 288.041C30.5345 287.935 29.6609 286.305 28.5937 284.418C24.8638 277.826 21.7564 269.162 20.7405 262.524C19.7708 256.188 20.4237 235.858 21.6486 234.245C21.8437 233.988 22.1419 233.042 22.3103 232.142C23.3813 226.434 29.2255 214.331 33.7081 208.537C34.305 207.766 35.3573 206.409 36.047 205.522C37.6182 203.501 43.4144 197.553 43.8124 197.553C43.9748 197.553 45.4111 196.495 47.0043 195.203C50.5583 192.321 50.2834 192.524 53.4001 190.47C55.934 188.801 62.0601 185.675 62.9664 185.589C63.223 185.565 64.063 185.274 64.8329 184.942C66.5082 184.22 73.1756 182.71 74.9825 182.643C75.6885 182.617 76.2658 182.788 76.2658 183.024ZM360.453 195.292C359.298 195.535 356.945 195.646 355.223 195.538L352.093 195.343L351.563 197.967C351.015 200.681 349.924 204.568 349.252 206.2C349.04 206.714 348.623 208.081 348.326 209.238C348.028 210.395 347.496 212.393 347.144 213.679C346.792 214.964 346.264 216.962 345.972 218.119C345.68 219.276 345.26 220.643 345.038 221.157C344.817 221.672 344.392 223.342 344.093 224.869C343.795 226.396 343.384 227.974 343.179 228.374C342.974 228.776 342.484 230.471 342.089 232.142C340.887 237.225 340.326 239.343 339.921 240.322C339.708 240.836 339.294 242.203 339.002 243.36C338.228 246.426 337.305 249.782 336.431 252.708C335.322 256.417 333.67 262.493 331.982 269.068C331.684 270.225 331.267 271.592 331.054 272.107C330.426 273.624 328.779 280.342 327.787 285.428C325.355 297.903 332.421 306.581 341.64 302.44C343.262 301.712 347.307 297.377 348.791 294.777C349.755 293.088 354.066 284.225 354.93 282.156C356.944 277.335 358.603 273.179 358.727 272.646C358.778 272.429 358.339 272.064 357.752 271.836C356.918 271.513 356.627 271.599 356.426 272.232C356.146 273.107 354.652 276.723 352.419 281.922C350.629 286.094 347.036 293.163 345.716 295.11C343.025 299.082 340.069 301.143 337.857 300.587C336.481 300.241 335.497 298.063 335.92 296.299C336.09 295.59 336.301 294.484 336.389 293.842C336.477 293.199 336.962 291.306 337.467 289.635C337.972 287.964 338.607 285.545 338.878 284.26C339.15 282.974 339.581 281.186 339.838 280.286C340.094 279.387 341.14 275.495 342.161 271.639C343.183 267.783 344.567 262.784 345.236 260.531C345.906 258.277 346.454 256.118 346.454 255.733C346.454 255.348 346.64 254.667 346.869 254.221C347.479 253.025 349.914 244.343 351.355 238.218C351.688 236.804 352.311 234.491 352.739 233.077C353.168 231.663 353.691 229.875 353.902 229.104C354.114 228.332 354.643 226.439 355.079 224.897C355.515 223.354 356.556 219.568 357.392 216.483C358.229 213.398 359.024 210.559 359.158 210.173C359.292 209.787 359.662 208.315 359.979 206.901C360.54 204.399 361.294 201.747 362.609 197.653C362.964 196.551 363.253 195.447 363.253 195.199C363.253 194.692 363.318 194.69 360.453 195.292ZM426.927 196.188C426.755 196.466 426.323 197.833 425.966 199.226C425.046 202.815 424.097 206.258 423.207 209.238C422.784 210.652 422.381 212.125 422.309 212.51C422.238 212.896 422.062 213.527 421.918 213.912C421.774 214.298 421.198 216.507 420.639 218.82C420.079 221.134 419.437 223.448 419.211 223.962C418.985 224.476 418.601 225.738 418.358 226.767C418.115 227.795 417.573 229.793 417.154 231.207C416.244 234.279 415.051 238.645 414.855 239.621C414.777 240.006 414.598 240.637 414.458 241.023C414.317 241.409 413.963 242.671 413.671 243.827C413.38 244.984 412.747 247.403 412.265 249.203C411.784 251.002 411.146 253.421 410.847 254.578C410.549 255.735 410.125 257.102 409.905 257.616C409.685 258.131 409.364 259.287 409.191 260.187C409.018 261.087 408.714 262.034 408.517 262.291C408.318 262.548 408.004 263.705 407.818 264.861C407.631 266.018 407.316 267.175 407.118 267.432C406.919 267.689 406.602 268.838 406.413 269.985C406.224 271.132 405.903 272.394 405.7 272.79C405.496 273.185 404.986 274.981 404.566 276.781C403.525 281.236 402.884 283.615 402.425 284.727C402.213 285.241 401.895 286.391 401.719 287.282C401.543 288.174 401.23 289.225 401.024 289.619C400.639 290.354 399.946 292.921 399.126 296.646C398.872 297.803 398.485 299.17 398.266 299.684C397.473 301.551 397.357 302.255 397.842 302.255C398.114 302.255 400.732 302.338 403.66 302.44C406.588 302.542 408.984 302.539 408.984 302.432C408.984 302.325 409.428 300.612 409.971 298.624C410.514 296.636 411.651 292.381 412.498 289.167C413.345 285.954 414.385 282.168 414.808 280.754C415.232 279.34 415.966 276.711 416.44 274.911C418 268.978 419.275 265.636 422.324 259.486C427.325 249.399 432.526 245.236 434.442 249.787C435.218 251.632 435.164 252.594 434.024 257.149C432.879 261.723 432.076 264.263 429.519 271.405C428.184 275.133 426.788 279.235 426.416 280.52C426.044 281.806 425.566 283.181 425.352 283.577C425.139 283.973 424.817 285.445 424.636 286.849C424.454 288.253 424.1 290.137 423.849 291.037C423.48 292.357 423.601 293.293 424.472 295.883C425.43 298.734 425.855 299.333 428.266 301.239C430.895 303.317 431.078 303.383 434.117 303.356C436.079 303.337 437.896 303.021 438.967 302.513C440.376 301.843 443.381 298.959 444.835 296.88C445.254 296.281 449.116 288.247 449.116 287.975C449.116 287.861 449.851 286.175 450.749 284.227C451.647 282.28 452.382 280.575 452.382 280.44C452.382 280.305 452.688 279.531 453.061 278.721C453.926 276.845 455.166 273.203 455.175 272.512C455.179 272.22 454.779 271.876 454.286 271.747C453.622 271.573 453.314 271.815 453.098 272.679C452.937 273.321 452.412 274.717 451.931 275.78C451.45 276.845 449.872 280.555 448.425 284.026C446.977 287.496 445.058 291.703 444.159 293.374C442.387 296.67 439.036 300.204 437.258 300.651C432.307 301.895 431.669 297.701 435.201 287.121C436.241 284.005 437.467 280.193 437.926 278.65C438.383 277.108 439.849 272.691 441.182 268.835C443.323 262.644 443.643 261.221 443.917 256.682C444.151 252.814 444.069 251.137 443.587 249.912C442.108 246.155 439.969 244.762 435.679 244.762C432.709 244.762 430.254 245.513 428.799 246.866C428.246 247.38 427.113 248.414 426.282 249.163C425.451 249.912 424.442 251.028 424.041 251.641C422.945 253.317 422.461 252.279 423.229 249.898C423.601 248.745 424.211 246.644 424.585 245.23C425.636 241.251 426.755 237.258 427.47 234.937C427.828 233.774 428.424 231.46 428.796 229.795C429.784 225.357 430.479 222.682 430.917 221.625C431.129 221.111 431.515 219.849 431.774 218.82C432.201 217.122 434.374 208.988 435.646 204.33C435.926 203.302 436.339 202.04 436.561 201.526C436.94 200.651 437.879 196.812 437.905 196.033C437.923 195.464 427.281 195.614 426.927 196.188ZM273.424 197.91C273.68 198.099 274.926 199.621 276.192 201.292C277.458 202.963 279.19 205.049 280.042 205.927C280.893 206.806 281.583 207.752 281.575 208.031C281.537 209.332 279.819 210.505 276.046 211.806C273.489 212.689 271.091 212.088 269.003 210.043C267.296 208.371 266.936 207.151 267.235 204.039C267.426 202.047 267.765 201.383 269.489 199.624C271.45 197.622 272.444 197.189 273.424 197.91ZM381.767 224.313C381.473 225.499 380.608 228.745 379.122 234.245C377.18 241.435 376.253 245.006 376.001 246.281C375.753 247.535 375.666 247.567 372.533 247.567C369.989 247.567 369.319 247.713 369.319 248.268C369.319 248.816 369.852 248.943 371.769 248.852L374.219 248.735L374.191 250.938C374.175 252.149 373.931 253.621 373.647 254.21C373.364 254.798 372.923 256.121 372.667 257.149C372.412 258.177 371.892 260.07 371.513 261.356C370.487 264.832 369.265 269.206 369.098 270.005C368.697 271.919 367.836 275.013 367.473 275.846C367.249 276.36 366.819 277.727 366.517 278.884C366.215 280.041 365.641 282.25 365.241 283.792C364.841 285.335 364.425 288.207 364.316 290.176C364.14 293.345 364.265 294.066 365.4 296.47C366.738 299.303 368.576 301.333 370.953 302.603C372.731 303.552 377.48 303.537 379.291 302.575C380.649 301.854 383.633 298.94 384.485 297.502C387.944 291.668 388.881 289.955 389.812 287.765C390.412 286.351 391.524 283.827 392.282 282.156C394.225 277.872 394.386 277.473 395.013 275.378C395.321 274.35 395.766 273.265 396.002 272.966C396.267 272.63 396.244 272.308 395.941 272.121C395.672 271.954 395.451 271.961 395.451 272.136C395.451 272.311 395.137 272.193 394.752 271.873C394.241 271.448 394.052 271.438 394.052 271.835C394.052 272.135 393.41 273.79 392.627 275.515C390.901 279.315 390.648 279.88 389.351 282.857C385.399 291.927 381.175 298.664 378.711 299.829C377.035 300.621 374.676 300.517 373.932 299.619C372.946 298.429 373.262 294.097 374.679 289.401C376.208 284.331 376.712 282.511 377.27 280.053C377.503 279.024 378.027 277.026 378.435 275.612C378.844 274.198 379.461 271.99 379.809 270.704C380.157 269.419 380.788 267.21 381.211 265.796C381.634 264.382 382.375 261.753 382.857 259.954C383.339 258.154 384.24 254.999 384.86 252.942L385.987 249.203L389.086 249.064C391.832 248.942 392.185 248.82 392.185 247.988C392.185 247.126 391.959 247.07 389.385 247.296L386.585 247.543V245.946C386.585 245.068 386.795 244.22 387.052 244.061C387.309 243.902 387.519 243.371 387.519 242.881C387.519 242.392 387.806 241.089 388.156 239.988C388.507 238.886 389.263 236.302 389.836 234.245C390.41 232.189 391.146 229.665 391.472 228.636C391.798 227.608 392.206 225.978 392.38 225.014L392.694 223.261H387.361C382.218 223.261 382.018 223.299 381.767 224.313ZM287.423 244.471C286.396 244.761 284.881 245.368 284.056 245.819C281.949 246.971 275.011 254.106 273.89 256.274C273.377 257.267 272.156 259.553 271.178 261.353C267.536 268.055 265.717 275.423 265.523 284.26C265.423 288.786 265.641 290.696 266.564 293.374C266.697 293.76 266.77 294.238 266.728 294.437C266.565 295.194 268.672 298.705 270.083 300.029C271.736 301.579 275.079 303.194 276.612 303.183C278.658 303.17 281.85 301.671 283.563 299.921C284.531 298.931 285.323 298.011 285.323 297.875C285.323 297.739 285.926 296.723 286.664 295.618C287.402 294.512 288.151 293.134 288.329 292.556C288.927 290.611 289.865 291.368 290.202 294.068C290.378 295.478 290.72 296.755 290.963 296.905C291.206 297.055 291.284 297.373 291.138 297.611C290.991 297.848 291.442 298.793 292.14 299.709C294.249 302.479 297.69 303.845 301.338 303.36C306.18 302.717 311.441 295.889 316.595 283.558C317.401 281.63 318.491 279.106 319.017 277.949C319.847 276.125 321.255 272.449 321.255 272.106C321.255 272.042 320.713 271.99 320.051 271.99C319.353 271.99 318.743 272.309 318.598 272.749C317.3 276.708 315.009 282.116 312.239 287.765C309.478 293.397 308.428 295.037 306.029 297.464C303.608 299.914 302.884 300.386 301.547 300.386C299.377 300.386 297.957 298.837 298.118 296.646C298.185 295.746 298.713 293.328 299.292 291.271C299.871 289.214 300.663 286.375 301.05 284.961C301.439 283.547 301.934 281.759 302.152 280.988C302.369 280.216 302.867 278.428 303.257 277.014C303.647 275.601 304.381 272.971 304.888 271.172C305.988 267.262 308.989 256.224 309.843 252.942C310.177 251.657 310.677 249.87 310.953 248.972C312.082 245.301 312.122 245.33 305.922 245.262L300.389 245.201L299.812 248.137C298.916 252.694 298.871 252.723 297.44 249.67C295.673 245.902 294.042 244.415 291.389 244.152C290.235 244.037 288.45 244.181 287.423 244.471ZM237.352 245.323C237.044 245.632 236.792 245.717 236.792 245.513C236.792 245.129 233.241 247.086 231.486 248.437C225.407 253.118 219.438 262.953 215.96 274.015C214.779 277.771 214.649 278.853 214.638 284.961L214.626 291.738L216.225 294.693C219.247 300.276 223.919 303.328 229.494 303.362C233.815 303.388 236.326 302.598 240.296 299.962C243.334 297.945 247.462 293.437 247.506 292.089C247.516 291.768 247.714 291.505 247.946 291.505C248.389 291.505 249.147 290.233 252.136 284.48C253.879 281.125 257.481 272.335 257.216 272.082C257.147 272.016 256.699 271.889 256.221 271.8C255.528 271.672 255.022 272.4 253.738 275.378C251.513 280.539 248.158 287.074 246.299 289.869C243.912 293.457 241.006 297.114 240.542 297.114C240.313 297.114 239.848 297.383 239.508 297.713C237.203 299.955 235.668 300.563 231.799 300.767C227.406 300.997 226.544 300.583 225.32 297.65C224.526 295.744 224.426 288.321 225.173 286.678C225.616 285.705 226.118 285.503 228.77 285.231C230.465 285.057 232.071 284.752 232.339 284.552C232.606 284.353 233.77 283.919 234.925 283.589C241.851 281.607 248.484 273.612 250.847 264.394C252.984 256.064 250.518 247.625 245.312 245.446C243.336 244.619 238.135 244.539 237.352 245.323ZM472.915 246.231C472.915 246.678 472.728 247.16 472.501 247.3C472.274 247.441 471.944 248.347 471.768 249.315C471.469 250.964 470.414 254.572 469.615 256.682C469.42 257.196 469.055 258.458 468.803 259.486C468.551 260.514 467.679 263.564 466.866 266.264C466.053 268.963 464.968 272.96 464.455 275.145C463.942 277.33 463.341 279.539 463.121 280.053C462.434 281.654 461.27 286.004 460.746 288.934C459.431 296.272 459.747 298.059 462.9 301.129C464.401 302.59 465.358 303.113 466.91 303.32C472.587 304.076 476.534 301.546 481.357 294.055C483.265 291.091 483.425 290.954 483.566 292.157C483.649 292.87 483.556 293.803 483.359 294.232C483.162 294.66 482.969 295.221 482.929 295.478C482.89 295.735 482.736 296.261 482.588 296.646C482.44 297.032 481.859 298.925 481.296 300.853C480.733 302.781 480.034 304.598 479.744 304.892C479.452 305.185 477.744 306.216 475.948 307.184C474.151 308.153 472.259 309.175 471.742 309.456C471.225 309.737 470.142 310.441 469.336 311.019C468.53 311.598 467.641 312.071 467.36 312.071C467.078 312.071 466.848 312.282 466.848 312.539C466.848 312.796 466.622 313.006 466.345 313.006C465.781 313.006 460.305 317.561 459.679 318.551C459.458 318.901 458.933 319.547 458.513 319.986C456.102 322.501 452.963 328.539 451.957 332.594C451.033 336.318 450.708 342.696 451.419 343.136C451.692 343.305 451.916 343.879 451.916 344.411C451.916 345.745 454.368 349.859 456.219 351.631C459.11 354.4 461.096 355.198 464.501 354.96C468.943 354.65 471.943 353.17 475.132 349.715C476.607 348.116 478.468 345.566 479.266 344.047C480.466 341.765 483.914 331.101 487.113 319.784C487.477 318.498 488.18 316.079 488.676 314.408C489.172 312.737 490.065 309.512 490.66 307.24C491.734 303.144 491.768 303.09 494.812 300.542C496.499 299.129 498.487 297.419 499.228 296.742C501.983 294.224 505.579 288.757 508.361 282.857C509.937 279.515 511.636 275.972 512.136 274.984C513.23 272.825 513.268 272.34 512.346 272.34C511.961 272.34 511.646 272.085 511.646 271.773C511.646 270.56 510.373 272.674 509.052 276.08C506.096 283.696 501.95 290.376 497.517 294.66C494.055 298.005 493.275 298.316 494.002 296.062C494.271 295.226 494.545 294.122 494.61 293.608C494.674 293.094 494.845 292.358 494.99 291.972C495.536 290.518 498.533 279.517 498.811 277.949C498.971 277.05 499.278 275.893 499.495 275.378C499.711 274.864 500.35 272.656 500.913 270.471C501.477 268.285 502.124 266.077 502.351 265.563C502.578 265.048 502.961 263.786 503.203 262.758C503.445 261.73 504.304 258.575 505.111 255.747C507.535 247.267 507.902 245.943 507.908 245.668C507.911 245.523 505.507 245.415 502.567 245.427C496.606 245.453 496.834 245.324 495.854 249.203C495.594 250.231 495.036 252.229 494.614 253.643C494.191 255.057 493.637 257.056 493.381 258.084C493.126 259.112 492.748 260.276 492.541 260.67C492.335 261.064 492.017 262.116 491.835 263.007C491.16 266.311 487.957 276.085 487.329 276.757C487.101 277.001 486.914 277.518 486.914 277.904C486.914 279.224 480.71 291.264 478.625 293.989C476.128 297.254 472.925 300.358 472.036 300.374C471.087 300.391 469.648 298.537 469.648 297.298C469.648 296.707 469.844 295.739 470.083 295.149C470.565 293.96 471.617 290.185 472.468 286.597C473.064 284.078 474.284 279.555 474.674 278.417C474.958 277.588 477.272 269.096 478.304 265.095C478.702 263.553 479.21 261.87 479.432 261.356C479.654 260.842 480.586 257.476 481.503 253.877C482.42 250.278 483.3 246.864 483.46 246.291C483.75 245.254 483.73 245.25 478.333 245.334C473.529 245.409 472.915 245.511 472.915 246.231ZM292.417 246.654C295.077 247.871 296.783 252.793 296.33 257.943C295.975 261.976 295.781 263.443 295.478 264.394C294.553 267.295 294.204 268.607 293.923 270.237C293.746 271.265 293.447 272.317 293.259 272.574C293.071 272.831 292.904 273.357 292.888 273.743C292.872 274.128 292.515 275.601 292.095 277.014C291.676 278.428 291.044 280.743 290.693 282.157C290.342 283.571 289.726 285.359 289.325 286.13C288.924 286.901 288.594 287.664 288.592 287.825C288.591 287.987 287.632 289.88 286.461 292.032C284.233 296.128 281.717 298.897 279.32 299.892C278.062 300.414 277.739 300.365 276.48 299.467C275.699 298.91 274.923 297.911 274.757 297.248C274.349 295.623 274.907 285.688 275.465 284.633C275.71 284.171 276.374 281.899 276.942 279.585C279.135 270.644 285.747 252.128 287.765 249.277C290.131 245.933 290.448 245.754 292.417 246.654ZM244.645 248.028C245.448 248.797 246.243 249.98 246.413 250.658C247.159 253.634 245.829 262.899 244.225 265.907C243.987 266.353 243.785 266.984 243.776 267.309C243.767 267.634 243.354 268.741 242.858 269.769C242.362 270.798 241.95 271.807 241.941 272.012C241.932 272.217 241.169 273.57 240.244 275.018C238.38 277.936 235.779 280.666 233.981 281.594C232.369 282.425 226.841 283.548 226.402 283.133C226.075 282.825 226.671 280.131 228.583 273.275C230.026 268.096 234.081 257.997 237.065 252.147C238.324 249.679 241.383 246.678 242.673 246.645C242.955 246.638 243.843 247.26 244.645 248.028ZM478.611 310.526C478.333 311.247 477.976 312.574 477.816 313.473C477.657 314.373 477.346 315.53 477.124 316.044C476.744 316.924 475.037 323.326 473.51 329.6C472.497 333.757 471.473 337.424 471.029 338.481C470.812 338.995 470.492 340.145 470.316 341.036C470.14 341.927 469.833 342.979 469.635 343.373C469.436 343.767 468.78 345.418 468.177 347.042C466.763 350.853 466.036 351.473 462.748 351.676C459.536 351.875 458.305 351.302 456.308 348.679C454.137 345.828 453.195 342.39 453.438 338.208C453.884 330.554 456.341 325.167 462.053 319.316C464.473 316.838 467.965 313.941 468.534 313.941C468.721 313.941 469.25 313.601 469.707 313.186C471.23 311.806 478.267 308.374 478.698 308.801C478.944 309.044 478.907 309.756 478.611 310.526Z" fill="#696562"/>
<path fill-rule="evenodd" clip-rule="evenodd" d="M306.565 347.516C306.41 347.808 306.354 348.319 306.439 348.649C306.55 349.083 306.383 349.391 305.84 349.754C305.186 350.19 304.625 350.233 301.564 350.075C299.626 349.974 296.324 349.735 294.226 349.542C291.228 349.266 290.08 349.266 288.861 349.544C285.818 350.238 283.718 351.848 282.473 354.44C281.876 355.682 281.764 356.262 281.869 357.552C282.011 359.305 282.71 360.383 283.613 360.244C284.707 360.077 284.828 359.291 283.959 358.013C283.297 357.039 283.183 356.627 283.31 355.661C283.624 353.275 285.759 351.506 288.759 351.147C290.05 350.992 290.324 351.032 290.213 351.359C290.137 351.58 289.496 353.98 288.788 356.692C285.762 368.289 284.326 370.756 281.961 368.422C280.856 367.33 280.003 367.338 279.876 368.44C279.774 369.333 280.302 369.836 281.673 370.151C282.973 370.45 284.483 370.03 285.894 368.977C287.976 367.423 289.071 365.087 290.775 358.567C291.337 356.416 292.06 353.826 292.381 352.811L292.965 350.965L294.423 351.144C295.224 351.242 296.79 351.323 297.902 351.324L299.923 351.327L298.991 353.861C298.479 355.255 297.342 359.131 296.466 362.476C295.59 365.821 294.814 368.753 294.741 368.992C294.63 369.36 295.109 369.426 297.92 369.426C300.121 369.426 301.266 369.317 301.338 369.1C301.408 368.89 300.836 368.728 299.736 368.647C298.794 368.578 297.941 368.436 297.838 368.332C297.564 368.052 299.571 359.903 301.035 355.357L302.307 351.404L304.126 351.255C307.105 351.011 309.032 349.351 308.282 347.675C307.914 346.851 306.96 346.762 306.565 347.516ZM172.686 349.613C170.717 350.007 167.963 351.46 166.447 352.905C163.477 355.735 162.218 360.034 163.498 362.981C164.38 365.012 166.08 365.839 166.59 364.486C166.709 364.169 166.333 363.617 165.412 362.756C165.412 362.756 164.542 362.014 164.279 361.334C164.022 360.67 164.177 359.667 164.177 359.667C164.322 357.399 165.184 355.578 166.939 353.829C169.304 351.472 172.391 350.312 175.78 350.507C177.461 350.604 177.894 350.74 178.507 351.365C180.184 353.073 179.371 356.296 176.931 357.61C175.583 358.336 173.793 358.509 173.793 357.913C173.793 357.713 174.111 356.377 174.5 354.945C174.889 353.512 175.208 352.269 175.21 352.182C175.215 351.958 171.612 352.583 171.349 352.851C171.231 352.972 171.377 353.252 171.675 353.474C172.318 353.953 172.256 354.34 170.373 361.684C168.971 367.15 168.566 367.959 166.999 368.438C166.374 368.629 165.809 368.929 165.742 369.105C165.656 369.333 167.041 369.413 170.532 369.38C174.856 369.339 175.604 369.261 176.804 368.72C179.919 367.316 181.508 365.211 181.508 362.489C181.508 360.496 180.821 359.409 179.126 358.718L177.915 358.224L178.767 357.781C180.024 357.128 180.922 356.225 181.362 355.173C183.059 351.115 178.805 348.389 172.686 349.613ZM194.384 355.337C193.906 355.638 192.379 357.137 190.992 358.669C189.605 360.2 188.432 361.415 188.387 361.369C188.342 361.323 188.558 360.209 188.866 358.894C189.593 355.793 189.586 355.381 188.806 355.381C187.531 355.381 183.457 358.045 183.457 358.879C183.457 359.383 184.094 359.145 185.064 358.277C186.077 357.371 186.445 357.234 186.706 357.665C186.845 357.893 184.641 367.5 184.157 368.774C183.992 369.21 184.142 369.281 185.234 369.281H186.504L187.288 365.879C187.719 364.007 188.11 362.433 188.157 362.38C188.203 362.327 188.507 362.429 188.833 362.607C189.501 362.971 190.233 364.318 191.232 367.022C192.92 371.592 194.426 373.802 196.61 374.917L198.096 375.675L196.926 375.488C195.464 375.254 194.543 375.709 194.543 376.665C194.543 379.008 199.149 378.114 202.235 375.173C206.173 371.42 210.461 362.307 210.461 357.689C210.461 356.016 210.136 355.381 209.278 355.381C208.479 355.381 208.116 356.376 208.458 357.63C209.099 359.981 208.552 363.089 206.92 366.359L206.281 367.642L206.074 365.507C205.709 361.733 203.542 356.028 202.288 355.538C201.503 355.231 197.424 357.853 197.912 358.35C198.113 358.555 198.533 358.49 199.252 358.143C200.657 357.464 201.426 357.847 202.338 359.68C203.177 361.366 204.208 366.244 204.208 368.524C204.208 369.412 204 370.668 203.746 371.315C203.296 372.461 203.273 372.475 202.866 371.883C202.612 371.514 202.207 371.31 201.835 371.364C201.313 371.44 201.223 371.643 201.223 372.75C201.223 373.857 201.116 374.1 200.492 374.406C199.378 374.953 197.886 374.408 196.729 373.031C196.196 372.397 195.076 370.288 194.241 368.343C192.662 364.669 191.441 362.941 189.992 362.33C189.525 362.133 189.142 361.947 189.142 361.917C189.142 361.676 192.878 357.927 193.535 357.509C193.997 357.215 195.085 356.909 195.952 356.829C197.482 356.689 197.528 356.659 197.528 355.816C197.528 355.008 197.447 354.941 196.391 354.868C195.658 354.817 194.945 354.984 194.384 355.337ZM217.426 355.923C213.788 357.616 210.678 364.479 211.913 368.088C212.252 369.078 213.409 369.86 214.533 369.86C216.406 369.86 220.695 367.42 220.695 366.353C220.695 365.764 220.666 365.757 220.055 366.215C219.703 366.479 218.738 367.028 217.909 367.436C216.116 368.319 215.207 368.193 214.588 366.975C213.415 364.663 214.981 358.612 217.06 357.424C217.729 357.041 217.954 357.036 218.765 357.387C219.279 357.609 220.211 357.802 220.837 357.816C221.864 357.84 221.982 357.768 222.061 357.074C222.242 355.48 219.722 354.854 217.426 355.923ZM225.953 356.239C225.172 356.715 224.148 357.435 223.679 357.839C222.985 358.437 222.903 358.624 223.238 358.84C223.531 359.029 223.922 358.862 224.598 358.257C225.638 357.327 226.38 357.159 226.38 357.854C226.38 358.1 225.804 360.635 225.101 363.489C224.397 366.344 223.821 368.814 223.821 368.98C223.821 369.146 224.325 369.281 224.939 369.281C226.203 369.281 226.063 369.537 226.957 365.589L227.564 362.91H229.834C231.918 362.91 232.09 362.954 231.935 363.45C231.843 363.747 231.589 364.94 231.372 366.102C230.745 369.456 231.467 370.481 233.633 369.31C235.118 368.507 237.032 366.552 236.764 366.11C236.634 365.896 236.181 366.137 235.451 366.808C233.09 368.982 232.981 368.123 234.765 361.397C235.469 358.745 236.044 356.437 236.044 356.268C236.044 356.099 235.562 355.96 234.973 355.96H233.901L233.178 358.784L232.455 361.607L230.175 361.691L227.894 361.774L228.476 359.142C229.314 355.36 228.652 354.598 225.953 356.239ZM244.505 355.67C241.304 356.651 238.7 360.524 238.417 364.723C238.303 366.427 238.378 367.01 238.819 367.833C239.457 369.025 240.896 369.859 242.313 369.86C244.632 369.861 247.74 367.389 249.174 364.405C250.119 362.437 250.242 359.081 249.43 357.459C248.509 355.621 246.749 354.981 244.505 355.67ZM262.054 356.245C259.808 357.602 258.878 358.488 259.274 358.891C259.53 359.152 259.845 359.02 260.628 358.32C261.763 357.304 262.477 357.149 262.487 357.915C262.491 358.194 261.95 360.59 261.284 363.24C259.962 368.504 259.964 369.616 261.3 369.811C262.167 369.937 264.606 368.7 266.159 367.346L267.405 366.26L267.222 367.424C267.016 368.735 267.566 369.86 268.41 369.86C269.639 369.86 273.385 366.664 272.825 366.093C272.637 365.902 272.217 366.146 271.577 366.819C271.046 367.377 270.365 367.833 270.063 367.833C269.571 367.833 269.533 367.688 269.696 366.458C269.796 365.701 270.434 363.03 271.114 360.521L272.35 355.96H271.175H270.001L269.058 359.653C267.997 363.811 267.545 364.715 265.691 366.377C264.385 367.548 263.162 367.892 262.888 367.164C262.809 366.956 263.261 364.652 263.892 362.046C265.132 356.92 265.216 356.257 264.697 355.729C264.176 355.197 263.604 355.309 262.054 356.245ZM310.737 355.67C307.536 356.651 304.931 360.524 304.649 364.723C304.534 366.427 304.61 367.01 305.051 367.833C305.688 369.025 307.127 369.859 308.545 369.86C310.863 369.861 313.972 367.389 315.405 364.405C316.35 362.437 316.474 359.081 315.661 357.459C314.741 355.621 312.98 354.981 310.737 355.67ZM323.84 356.18C321.822 357.396 320.615 358.543 320.972 358.906C321.184 359.122 321.596 358.957 322.363 358.349C324.734 356.471 325.136 356.936 323.894 360.122C322.516 363.656 321.094 366.333 320.322 366.849C319.644 367.302 318.78 367.292 317.577 366.818C317.036 366.604 315.92 367.581 315.92 368.268C315.92 368.506 316.191 368.978 316.522 369.315C316.995 369.797 317.356 369.896 318.214 369.779C320.407 369.479 321.993 367.503 323.895 362.699C324.414 361.389 324.886 360.364 324.943 360.422C325 360.48 325.233 362.327 325.46 364.524C325.901 368.789 326.287 369.86 327.383 369.86C328.111 369.86 330.275 368.537 331.101 367.587C331.815 366.766 332.123 366.801 332.123 367.701C332.123 368.763 333.31 369.861 334.455 369.857C335.691 369.854 337.876 368.788 339.744 367.275C340.944 366.305 341.188 365.972 340.931 365.657C340.664 365.329 340.376 365.426 339.279 366.215C337.356 367.599 336.179 367.951 335.345 367.394C334.789 367.023 334.681 366.704 334.681 365.429V363.908L336.512 363.095C340.163 361.475 342.066 359.617 342.07 357.67C342.075 354.968 338.58 354.69 335.927 357.181C334.355 358.657 332.463 362.432 332.217 364.582C332.121 365.422 331.979 366.046 331.902 365.967C331.825 365.889 331.186 366.342 330.481 366.974C329.777 367.606 329.093 368.123 328.962 368.123C328.242 368.123 327.886 366.527 327.492 361.534C327.24 358.35 326.934 356.076 326.721 355.815C326.201 355.176 325.323 355.287 323.84 356.18ZM348.892 355.652C347.266 356.156 344.63 357.974 344.63 358.592C344.63 359.045 345.075 358.89 346.782 357.843C349.251 356.328 350.599 356.539 350.599 358.441C350.599 359.633 349.772 360.673 348.027 361.671C347.254 362.114 346.62 362.653 346.62 362.869C346.62 363.086 346.797 363.193 347.017 363.107C350.098 361.902 351.168 362.191 351.168 364.226C351.168 365.76 350.872 366.453 349.66 367.758C348.678 368.815 347.215 369.229 346.172 368.745C345.644 368.5 345.483 368.2 345.483 367.463C345.483 365.849 344.22 365.209 343.397 366.406C342.844 367.21 343.171 368.358 344.17 369.117C345.4 370.051 348.338 369.96 350.055 368.934C351.516 368.06 353.328 366.149 353.739 365.048C354.483 363.055 353.898 361.543 352.282 361.28L351.141 361.094L351.709 360.478C352.726 359.376 353.242 357.737 352.866 356.81C352.376 355.605 350.658 355.104 348.892 355.652ZM358.985 356.239C358.203 356.715 357.18 357.435 356.711 357.839C356.017 358.437 355.935 358.624 356.269 358.84C356.563 359.029 356.953 358.862 357.63 358.257C358.669 357.327 359.411 357.159 359.411 357.854C359.411 358.1 358.836 360.635 358.132 363.489C357.429 366.344 356.853 368.814 356.853 368.98C356.853 369.146 357.356 369.281 357.971 369.281C359.235 369.281 359.095 369.537 359.989 365.589L360.596 362.91H362.865C364.95 362.91 365.121 362.954 364.967 363.45C364.874 363.747 364.621 364.94 364.403 366.102C363.776 369.456 364.498 370.481 366.664 369.31C368.15 368.507 370.064 366.552 369.795 366.11C369.665 365.896 369.212 366.137 368.483 366.808C366.121 368.982 366.012 368.123 367.797 361.397C368.5 358.745 369.076 356.437 369.076 356.268C369.076 356.099 368.594 355.96 368.004 355.96H366.932L366.21 358.784L365.487 361.607L363.206 361.691L360.925 361.774L361.508 359.142C362.345 355.36 361.683 354.598 358.985 356.239ZM377.537 355.67C374.336 356.651 371.732 360.524 371.449 364.723C371.334 366.427 371.41 367.01 371.851 367.833C372.488 369.025 373.927 369.859 375.345 369.86C377.663 369.861 380.772 367.389 382.205 364.405C383.15 362.437 383.274 359.081 382.461 357.459C381.541 355.621 379.78 354.981 377.537 355.67ZM246.121 357.191C247.504 358.43 247.686 362.173 246.52 365.396C245.95 366.973 245.146 367.919 244.004 368.356C242.21 369.043 241.161 367.428 241.161 363.979C241.161 360.431 242.282 357.767 244.116 356.953C245.28 356.437 245.279 356.437 246.121 357.191ZM312.352 357.191C313.735 358.43 313.918 362.173 312.752 365.396C312.181 366.973 311.377 367.919 310.235 368.356C308.441 369.043 307.393 367.428 307.393 363.979C307.393 360.431 308.513 357.767 310.348 356.953C311.511 356.437 311.511 356.437 312.352 357.191ZM379.152 357.191C380.535 358.43 380.718 362.173 379.552 365.396C378.981 366.973 378.177 367.919 377.035 368.356C375.241 369.043 374.193 367.428 374.193 363.979C374.193 360.431 375.313 357.767 377.148 356.953C378.311 356.437 378.311 356.437 379.152 357.191ZM339.351 357.284C340.065 358.011 339.878 359.054 338.824 360.231C337.792 361.383 334.965 363.15 334.965 362.644C334.965 362.479 335.242 361.484 335.58 360.435C336.542 357.451 338.175 356.086 339.351 357.284ZM176.764 359.845C178.209 360.46 178.72 361.449 178.567 363.331C178.311 366.468 176.17 368.398 172.94 368.402C170.758 368.404 170.554 368.211 171.242 366.793C171.552 366.155 172.156 364.239 172.585 362.534L173.364 359.435H174.582C175.252 359.435 176.234 359.62 176.764 359.845Z" fill="#676662"/>
</svg>
