<svg width="394" height="440" viewBox="0 0 394 440" fill="none" xmlns="http://www.w3.org/2000/svg">
<path fill-rule="evenodd" clip-rule="evenodd" d="M233.131 69.0399C233.067 69.1024 230.439 69.4072 227.292 69.7174C215.45 70.8843 211.116 71.6838 195.389 75.604C183.946 78.4559 171.583 82.1032 164.278 84.7814C161.752 85.7074 158.276 86.85 156.553 87.3206C154.83 87.7908 152.573 88.5748 151.539 89.0627C149.334 90.102 149.007 90.1341 148.186 89.394C147.619 88.8827 147.466 88.8896 146.252 89.4804C145.3 89.9434 144.824 90.4589 144.542 91.3314C144.194 92.4049 143.843 92.6716 141.421 93.7061C139.92 94.3467 137.833 95.2575 136.784 95.7295C135.735 96.2018 134.565 96.7031 134.183 96.8438C133.802 96.9847 131.539 98.0389 129.155 99.1867C126.771 100.335 124.444 101.387 123.985 101.526C123.525 101.665 119.956 103.314 116.054 105.19C108.538 108.805 101.449 111.474 98.2921 111.877C95.865 112.188 93.6502 113.223 93.171 114.271C92.7704 115.147 93.12 119.133 93.7397 120.757C94.1676 121.878 95.7305 123.123 96.6918 123.108C97.0951 123.101 99.2978 122.723 101.586 122.267L105.748 121.439L107.482 119.542C108.817 118.082 109.574 117.556 110.776 117.257C112.771 116.759 113.686 116.414 117.711 114.637C123.094 112.261 136.738 107.053 139.83 106.194C141.409 105.754 142.784 105.263 142.884 105.101C142.985 104.939 143.315 104.807 143.619 104.807C144.117 104.807 144.148 105.709 143.932 113.876C143.46 131.69 142.195 144.816 139.015 164.857C137.745 172.867 137.328 175.624 136.963 178.441C136.737 180.182 136.744 180.175 130.66 184.031C125.679 187.187 123.671 189.703 123.366 193.173C123.165 195.456 124.102 198.435 125.566 200.169C126.787 201.614 128.735 202.086 130.339 201.324C131.018 201.001 131.68 200.843 131.81 200.972C131.94 201.102 131.853 201.946 131.617 202.848C131.382 203.75 131.064 205.188 130.91 206.044C130.625 207.639 128.935 214.099 128.56 215.027C128.445 215.312 128.374 215.656 128.401 215.79C128.588 216.701 125.498 229.37 123.874 234.345C123.28 236.168 122.767 238.047 122.734 238.522C122.702 238.997 122.648 239.775 122.615 240.25C122.567 240.945 122.489 241.012 122.215 240.595C121.974 240.23 121.94 240.421 122.099 241.244C122.272 242.143 122.188 242.486 121.73 242.741C121.314 242.973 121.192 243.347 121.321 243.993C121.422 244.5 121.05 246.703 120.494 248.888C119.767 251.747 119.524 252.377 119.628 251.134L119.773 249.406L119.289 251.479C119.023 252.62 118.611 254.841 118.374 256.416C118.096 258.261 117.835 259.122 117.641 258.835C117.458 258.566 117.414 258.936 117.529 259.772C117.633 260.532 117.599 260.886 117.453 260.558C117.28 260.168 116.185 263.926 114.291 271.41C110.323 287.084 110.339 288.707 114.481 290.597C117.449 291.951 120.612 291.19 121.048 289.017C121.212 288.2 121.381 288.081 122.201 288.201C123.154 288.34 123.173 288.305 124.24 284.422C124.832 282.266 125.699 278.793 126.167 276.702C126.981 273.061 137.307 232.136 141.598 215.545C142.728 211.175 144.147 205.033 144.751 201.897C145.355 198.762 146.053 195.419 146.303 194.469C146.552 193.519 146.942 191.73 147.17 190.495C147.398 189.26 147.768 188.069 147.992 187.848C148.217 187.627 149.356 187.05 150.524 186.566C151.692 186.082 154.033 184.94 155.725 184.028C163.85 179.652 177.848 174.05 187.533 171.299C193.044 169.733 193.529 169.741 193.977 171.405C195.487 177.024 195.756 181.453 195.052 189.113C194.869 191.109 194.713 193.877 194.707 195.266C194.7 196.654 194.549 198.443 194.371 199.239C194.192 200.036 193.867 202.398 193.648 204.489C193.429 206.579 193.033 209.533 192.767 211.054C192.501 212.574 191.893 216.398 191.414 219.551C190.935 222.705 190.307 225.848 190.019 226.537C189.73 227.226 189.494 228.252 189.494 228.817C189.494 229.412 189.229 230.035 188.867 230.297C187.424 231.336 184.85 235.856 183.606 239.537C183.204 240.726 180.535 249.808 177.674 259.719C174.815 269.63 172.38 278.048 172.264 278.427C172.094 278.988 172.145 279.041 172.542 278.713C172.809 278.491 173.413 277.205 173.884 275.854C174.495 274.096 174.804 273.572 174.969 274.013C175.161 274.528 175.267 274.458 175.61 273.592C175.835 273.022 175.936 272.138 175.835 271.628C175.727 271.09 176.008 269.649 176.503 268.199C177.478 265.341 177.474 265.359 177.01 265.646C176.499 265.96 176.581 265.606 177.381 264.043C177.775 263.273 178.014 262.424 177.912 262.157C177.809 261.89 177.852 261.672 178.007 261.672C178.163 261.672 178.639 260.207 179.066 258.417C179.493 256.626 180.141 254.605 180.507 253.926C181.254 252.536 181.329 252.205 180.824 252.516C180.21 252.894 180.436 252.236 182.85 246.627C184.155 243.595 185.503 240.375 185.845 239.473C186.187 238.57 186.611 237.831 186.787 237.831C186.963 237.831 187.011 237.677 186.895 237.489C186.778 237.3 186.827 236.887 187.004 236.572C187.538 235.622 187.205 239.722 186.453 243.36C185.554 247.712 183.964 253.685 183.417 254.762C183.176 255.237 182.658 257.103 182.265 258.908C181.388 262.944 177.905 276.341 177.386 277.679C177.177 278.217 176.533 280.549 175.954 282.862C175.375 285.175 174.377 288.7 173.737 290.696C173.097 292.691 172.346 295.257 172.068 296.397C170.35 303.456 166.996 313.912 166.539 313.631C166.36 313.521 166.128 313.755 166.024 314.152C165.919 314.549 165.696 314.789 165.527 314.685C164.993 314.356 165.192 313.107 165.981 311.836C166.506 310.99 166.613 310.565 166.328 310.47C165.812 310.299 165.795 308.551 166.289 306.261C166.694 304.379 167.08 304.06 167.457 305.294C167.682 306.028 167.724 306.006 168.212 304.901C168.496 304.257 168.788 302.858 168.861 301.791L168.995 299.852L168.455 301.061C168.143 301.76 167.843 302.08 167.746 301.82C167.515 301.205 169.026 297.261 169.492 297.261C169.739 297.261 169.726 297.121 169.455 296.851C169.138 296.535 169.146 296.317 169.492 295.901C169.738 295.603 170.132 294.913 170.367 294.366C170.766 293.434 170.747 293.385 170.055 293.565C169.402 293.735 169.344 293.651 169.551 292.832C169.849 291.649 170.042 291.468 170.396 292.038C170.895 292.842 171.173 291.84 170.92 290.154C170.781 289.23 170.867 287.711 171.129 286.481C171.541 284.545 171.615 284.434 172.08 285.035C172.531 285.617 172.561 285.453 172.37 283.475C172.251 282.26 172.141 280.783 172.125 280.193L172.095 279.121L171.762 280.157C170.063 285.443 161.259 326.252 160.19 333.796C159.73 337.047 158.601 342.26 155.796 354.098C153.332 364.493 153.3 364.995 154.977 366.947C155.637 367.716 157.081 368.811 158.184 369.38C159.288 369.949 160.959 370.827 161.897 371.33C164.424 372.686 164.781 372.324 166.153 367.019C166.762 364.663 167.74 361.104 168.328 359.108C168.915 357.113 170.18 351.593 171.14 346.842C172.1 342.092 173.501 335.798 174.254 332.857C175.007 329.917 175.623 327.395 175.623 327.254C175.623 327.112 175.389 327.086 175.102 327.196C174.397 327.465 174.423 327.187 175.612 321.67C177.024 315.114 178.419 310.025 180.31 304.532C181.773 300.28 182.882 297.641 182.42 299.506C182.106 300.778 180.74 305.702 180.085 307.922C179.728 309.129 179.442 310.529 179.449 311.031L179.46 311.945L180.123 311.153C181.181 309.888 182.265 306.578 182.296 304.516C182.311 303.471 182.512 302.383 182.742 302.098C183.398 301.285 185.219 296.217 185.473 294.496C185.599 293.641 186.234 291.231 186.884 289.141C189.575 280.49 190.316 277.627 190.408 275.526C190.476 273.981 190.775 272.782 191.398 271.553C192.214 269.942 196.362 253.517 196.947 249.579C197.279 247.344 199.759 237.128 200.791 233.747C201.975 229.866 205.111 223.046 208.645 216.666C210.249 213.769 211.848 210.622 212.197 209.672C213.759 205.415 219.051 195.84 221.041 193.67C221.618 193.041 222.09 192.399 222.09 192.244C222.09 191.798 228.406 183.177 232.086 178.6C240.091 168.643 248.357 160.323 257.678 152.839C261.839 149.499 266.023 146.614 266.707 146.614C266.888 146.614 267.73 146.176 268.578 145.639C269.427 145.103 270.823 144.413 271.681 144.108C272.538 143.801 274.176 143.168 275.32 142.699C277.935 141.629 282.802 140.585 283.901 140.86C284.536 141.019 285.07 141.786 286.157 144.1C288.02 148.065 288.479 150.362 288.456 155.598C288.42 163.584 286.479 173.463 283.966 178.448C283.11 180.147 281.547 183.663 280.494 186.261C279.44 188.86 278.125 191.847 277.572 192.9C276.592 194.766 274.8 198.724 274.8 199.023C274.8 199.105 275.192 198.736 275.672 198.202L276.545 197.233L275.835 199.086C275.065 201.099 273.228 203.97 272.711 203.97C272.521 203.97 272.532 203.598 272.739 203.055C273.047 202.248 273.024 202.193 272.55 202.585C272.175 202.895 272.075 203.36 272.218 204.121C272.468 205.45 271.514 206.811 270.269 206.903C269.649 206.948 269.174 207.442 268.392 208.857C267.816 209.898 266.941 211.362 266.449 212.111C264.876 214.501 263.55 216.889 263.924 216.66C264.122 216.537 265.442 214.722 266.855 212.625C268.268 210.528 269.473 209.036 269.533 209.309C269.593 209.581 268.891 210.785 267.973 211.984C267.055 213.183 266.044 214.63 265.725 215.2C265.406 215.77 264.536 217.325 263.79 218.655C261.408 222.902 258.185 227.055 255.668 229.118C254.351 230.197 252.414 232.199 251.363 233.566C249.357 236.175 245.617 239.872 243.579 241.26C242.918 241.711 244.182 240.23 246.387 237.968C248.594 235.708 250.953 233.158 251.632 232.303C252.31 231.448 254.293 229.31 256.039 227.554C259.151 224.421 263.021 219.19 262.998 218.147C262.984 217.492 262.575 217.981 259.644 222.155C258.173 224.25 255.152 227.515 250.095 232.476C238.023 244.316 235.928 245.953 228.656 249.235C221.296 252.557 217.313 253.712 213.181 253.72C211.045 253.724 210.613 253.622 210.182 253.008C209.513 252.057 210.004 250.251 211.402 248.518C212.031 247.738 212.514 246.657 212.635 245.761C212.827 244.332 212.809 244.296 212 244.547C210.051 245.154 209.27 245.169 209.053 244.608C208.063 242.037 203.018 248.154 203.018 251.926C203.018 253.931 203.824 255.198 206.918 258.051C211.488 262.268 217.906 264.573 225.038 264.56C229.417 264.552 232.41 263.73 236.981 261.283C245.225 256.87 257.072 247.294 263.937 239.496C266.655 236.408 271.884 229.813 273.151 227.873C273.992 226.586 273.909 226.173 272.979 227.017C272.55 227.406 271.836 227.912 271.391 228.141C270.947 228.369 270.419 229.025 270.219 229.599C269.976 230.293 269.765 230.5 269.59 230.216C269.402 229.914 269.206 230.015 268.91 230.566C268.617 231.112 268.385 231.233 268.126 230.974C267.564 230.414 268.759 227.65 270.018 226.594C270.604 226.103 271.532 225.612 272.081 225.503C272.631 225.393 273.165 225.168 273.267 225.003C273.604 224.46 274.076 224.686 274.569 225.624L275.054 226.546L275.583 225.71C275.874 225.25 278.336 220.998 281.054 216.261C286.423 206.902 289.002 201.956 289.856 199.382C290.157 198.474 290.779 196.991 291.239 196.088C291.698 195.185 292.268 193.44 292.505 192.211C292.742 190.982 293.559 188.733 294.319 187.213C295.677 184.5 296.303 182.566 298.402 174.601C299.282 171.265 299.508 169.53 299.814 163.782C300.225 156.042 300.039 154.239 298.387 149.968C295.911 143.567 291.299 139.436 284.163 137.228C281.072 136.272 275.135 136.125 271.159 136.906C267.813 137.564 262.422 139.456 258.574 141.324C251.955 144.538 242.26 151.592 235.123 158.386C229.145 164.076 220.949 174.102 217.772 179.611C217.224 180.562 216.675 181.417 216.554 181.512C215.919 182.006 209.895 191.325 208.745 193.591C207.742 195.566 204.1 201.552 203.901 201.552C203.755 201.552 203.943 194.245 204.252 187.904C204.411 184.638 204.344 182.056 204.047 179.957C203.805 178.247 203.567 175.596 203.518 174.068C203.389 170.033 201.563 165.391 199.278 163.294C198.379 162.468 197.253 161.708 196.776 161.604C196.299 161.5 195.519 161.299 195.042 161.158C193.131 160.593 180.557 162.063 176.316 163.347C174.886 163.78 172.545 164.407 171.115 164.74C169.684 165.072 168.202 165.538 167.82 165.775C167.439 166.011 166.525 166.316 165.789 166.452C164.125 166.76 153.77 170.893 151.803 172.035C150.448 172.821 149.589 172.718 150.137 171.834C150.256 171.642 150.806 167.716 151.36 163.11C151.913 158.503 152.601 153.515 152.887 152.025C154.941 141.336 155.672 119.276 154.429 105.44C154.172 102.581 154.175 101.208 154.44 100.715C154.92 99.8214 158.75 98.3533 165.393 96.5169C168.254 95.7264 171.375 94.8038 172.328 94.4673C176.503 92.9937 177.585 92.7566 177.183 93.4045C177.065 93.5945 177.281 93.75 177.662 93.75C178.559 93.75 178.938 93.1481 178.141 92.9902C177.533 92.87 182.655 90.6348 183.531 90.6386C184.042 90.6407 194.654 87.7342 196.256 87.1537C196.828 86.946 197.92 86.6244 198.683 86.4388C199.446 86.2533 200.309 85.9762 200.602 85.8234C201.7 85.2492 203.361 85.0785 204.582 85.4144C205.92 85.7827 210.645 85.1614 212 84.439C212.375 84.2392 213.003 84.0755 213.395 84.0755C213.788 84.0755 214.303 83.7645 214.542 83.3844C214.78 83.0044 215.244 82.6934 215.572 82.6934C215.901 82.6934 216.937 82.3921 217.875 82.0234C218.813 81.6551 222.057 81.0294 225.083 80.6331C228.11 80.2364 231.062 79.827 231.643 79.7226C232.583 79.554 232.698 79.6245 232.683 80.3625C232.667 81.1928 230.079 83.6978 227.859 85.0329C227.313 85.3615 224.192 87.815 220.924 90.4852C215.363 95.0284 214.975 95.4223 214.874 96.6181C214.815 97.3209 214.912 97.8962 215.09 97.8962C215.268 97.8962 216.82 97.2743 218.539 96.5141C221.739 95.0989 222.739 94.8798 223.327 95.4658C223.978 96.1147 231.106 93.949 235.334 91.8179C238.95 89.9949 245.055 84.7271 246.604 82.0932C247.697 80.2343 247.747 78.5123 246.76 76.6375C245.246 73.76 240.67 70.3211 237.42 69.6179C235.355 69.1712 233.284 68.892 233.131 69.0399ZM232.943 70.9817C232.742 71.1817 230.975 71.4844 229.017 71.6537C227.059 71.8234 224.923 72.1375 224.271 72.352C223.619 72.5666 222.783 72.6633 222.415 72.5673C222.046 72.4712 221.657 72.5338 221.55 72.7058C221.327 73.0655 221.939 73.1391 224.258 73.0317C225.163 72.9898 225.905 73.0862 225.905 73.2462C225.905 73.4062 225.32 73.5458 224.604 73.5565C223.889 73.5672 222.482 73.704 221.477 73.8609C219.862 74.1131 219.675 74.0806 219.867 73.5824C220.048 73.1115 219.821 73.0189 218.486 73.0189C217.608 73.0189 216.889 73.1744 216.889 73.3644C216.889 73.5544 217.37 73.7099 217.958 73.7099C219.673 73.7099 218.967 74.5433 217.034 74.8007C213.76 75.2361 204.461 77.1893 203.885 77.5624C203.694 77.6861 202.602 77.89 201.457 78.0158C199.562 78.2238 197.578 78.807 196 79.6193C195.669 79.7897 195.045 79.9285 194.613 79.9275C193.867 79.9258 191.815 80.518 189.147 81.5038C188.479 81.7505 187.307 82.0373 186.541 82.1409C185.776 82.2449 184.144 82.7373 182.914 83.2352C181.685 83.7327 179.97 84.2735 179.104 84.4362C176.335 84.9569 175.465 85.1576 174.756 85.4406C174.374 85.5926 173.626 85.8919 173.092 86.1054C172.559 86.3193 171.72 86.4941 171.229 86.4941C170.738 86.4941 169.458 86.9505 168.384 87.5085C166.536 88.4698 161.972 89.9704 159.324 90.4876C158.657 90.6179 157.564 90.9976 156.897 91.3314C156.229 91.6651 155.204 92.0411 154.618 92.1668C153.696 92.3652 153.497 92.2729 153.134 91.4792C152.594 90.2983 153.029 89.7558 154.736 89.4835C155.448 89.3702 156.81 88.9131 157.764 88.468C158.717 88.023 160.824 87.2283 162.445 86.7021C164.066 86.1755 166.875 85.2295 168.687 84.5993C170.499 83.9694 174.01 82.8071 176.49 82.0165C178.969 81.226 181.544 80.3719 182.211 80.1186C183.625 79.5823 184.618 79.3187 190.707 77.8651C193.187 77.2732 196.488 76.4164 198.044 75.961C199.6 75.5056 202.097 74.8819 203.593 74.5747C205.088 74.2676 206.461 73.8695 206.642 73.6902C206.823 73.5109 207.7 73.3644 208.59 73.3644C209.481 73.3644 211.17 73.0586 212.344 72.6848C215.442 71.699 222.561 70.9216 230.56 70.6953C232.486 70.641 233.199 70.7267 232.943 70.9817ZM227.79 72.6371C227.895 72.8074 227.726 73.0441 227.414 73.1636C226.738 73.4217 226.44 73.2089 226.758 72.6965C227.036 72.247 227.53 72.2186 227.79 72.6371ZM215.328 73.7099C215.446 73.8999 215.611 74.0554 215.695 74.0554C215.78 74.0554 215.848 73.8999 215.848 73.7099C215.848 73.5199 215.683 73.3644 215.481 73.3644C215.279 73.3644 215.21 73.5199 215.328 73.7099ZM213.421 74.0554C213.421 74.2455 213.568 74.4009 213.747 74.4009C213.927 74.4009 214.17 74.2455 214.288 74.0554C214.406 73.8654 214.259 73.7099 213.962 73.7099C213.664 73.7099 213.421 73.8654 213.421 74.0554ZM232.976 74.7762C234.381 74.8055 234.386 74.8104 233.36 75.1272C232.788 75.3038 232.03 75.3784 231.676 75.2927C231.322 75.2074 230.63 75.2896 230.138 75.4762C229.047 75.8891 221.312 77.0963 217.128 77.5068C215.448 77.6713 213.869 77.9746 213.62 78.1802C213.371 78.3862 212.094 78.7054 210.78 78.8896C207.056 79.4127 205.546 79.7838 204.582 80.4133C204.092 80.7333 202.72 81.1337 201.534 81.303C200.347 81.4723 198.284 82.0058 196.949 82.4888C195.614 82.9715 194.045 83.3706 193.461 83.3754C192.878 83.3803 192.097 83.6128 191.727 83.8917C191.357 84.1708 190.723 84.4041 190.318 84.4099C189.913 84.4162 188.387 84.8097 186.926 85.2848C185.466 85.7599 183.902 86.1486 183.452 86.1486C183.002 86.1486 181.969 86.4454 181.155 86.8082C179.579 87.5113 178.667 87.4401 178.976 86.6382C179.081 86.3659 178.955 86.1434 178.694 86.1368C178.149 86.1234 180.795 84.7959 181.402 84.7783C181.625 84.7717 182.561 84.4431 183.483 84.0482C185.982 82.9767 191.193 81.5535 192.913 81.472C193.745 81.4329 194.541 81.2153 194.681 80.9886C194.822 80.7619 196.092 80.292 197.503 79.9441C201.983 78.8402 202.058 78.8284 201.779 79.2786C201.593 79.5779 201.753 79.6259 202.357 79.4521C202.816 79.3197 203.737 79.1187 204.405 79.0053C205.072 78.892 205.853 78.6066 206.139 78.3713C206.711 77.901 207.736 77.6837 211.798 77.172C213.29 76.984 215.241 76.5812 216.133 76.2764C217.025 75.9717 219.16 75.5629 220.877 75.368C222.593 75.1732 225.012 74.8926 226.252 74.7447C227.491 74.5969 229.19 74.5367 230.028 74.611C230.865 74.6857 232.191 74.7599 232.976 74.7762ZM205.619 76.1285C205.736 76.3186 205.902 76.4741 205.986 76.4741C206.07 76.4741 206.139 76.3186 206.139 76.1285C206.139 75.9385 205.973 75.783 205.771 75.783C205.57 75.783 205.501 75.9385 205.619 76.1285ZM177.703 86.2443C177.703 87.0549 175.606 88.5672 174.482 88.5672C173.894 88.5672 173.091 88.8651 172.697 89.2296C171.915 89.9531 168.384 91.0743 166.867 91.0809C166.297 91.0833 165.913 91.2737 165.913 91.5539C165.913 91.8375 165.527 92.0224 164.933 92.0224C164.394 92.0224 162.807 92.4111 161.405 92.8862C160.003 93.3613 158.454 93.7452 157.963 93.7389C157.147 93.7289 157.122 93.6888 157.677 93.269C158.011 93.0165 158.284 92.6139 158.284 92.3738C158.284 92.0417 158.398 92.0324 158.764 92.3344C159.131 92.6385 159.287 92.6174 159.431 92.2439C159.704 91.5352 164.935 89.8366 165.255 90.3529C165.427 90.6296 165.844 90.4686 166.602 89.8332C167.206 89.327 167.991 88.9127 168.347 88.9127C169.281 88.9127 176.612 86.511 176.85 86.1268C177.143 85.6541 177.703 85.7312 177.703 86.2443ZM156.154 94.0575C156.766 94.4445 156.309 94.706 154.523 94.9908C152.851 95.2571 152.687 95.0222 154.036 94.2931C155.147 93.6923 155.511 93.6519 156.154 94.0575ZM143.373 94.9223C143.373 94.997 143.131 95.1507 142.834 95.2641C142.526 95.3819 142.387 95.3238 142.508 95.1283C142.712 94.7997 143.373 94.6425 143.373 94.9223ZM143.178 96.6461C143.053 97.1437 142.822 97.5507 142.666 97.5507C142.509 97.5507 141.353 98.0247 140.097 98.6042C138.84 99.1833 137.676 99.573 137.508 99.4697C137.34 99.3664 136.758 99.5132 136.213 99.7962C135.669 100.079 134.892 100.311 134.486 100.313C134.08 100.314 133.554 100.548 133.316 100.833C132.81 101.441 131.539 101.516 130.99 100.969C130.71 100.689 130.508 100.77 130.24 101.269C129.987 101.74 129.621 101.903 129.06 101.796C128.579 101.705 128.06 101.865 127.791 102.188C127.324 102.748 126.381 102.939 126.381 102.472C126.381 102.071 129.2 100.464 130.735 99.9901C131.487 99.7579 133.085 99.1142 134.285 98.5593C136.841 97.3786 136.784 97.3886 136.784 98.1111C136.784 98.5686 136.879 98.5931 137.3 98.2448C137.584 98.0099 137.735 97.6868 137.636 97.5262C137.348 97.0625 139.278 96.2495 140.48 96.3279C141.083 96.3673 141.941 96.2046 142.387 95.9668C143.384 95.4347 143.466 95.5049 143.178 96.6461ZM141.486 100.153C141.116 100.432 140.491 100.655 140.099 100.648C139.446 100.637 139.459 100.593 140.252 100.142C141.448 99.4607 142.393 99.469 141.486 100.153ZM139.211 101.017C139.211 101.431 138.233 101.874 137.948 101.59C137.644 101.287 138.159 100.66 138.712 100.66C138.987 100.66 139.211 100.821 139.211 101.017ZM124.75 103.588C124.407 104.058 123.912 104.366 123.649 104.273C123.387 104.18 122.965 104.274 122.712 104.484C122.447 104.703 121.916 104.755 121.456 104.607C120.732 104.374 120.817 104.277 122.393 103.546C123.347 103.104 124.407 102.74 124.75 102.738C125.349 102.733 125.349 102.766 124.75 103.588ZM119.792 104.959C119.792 105.043 119.636 105.207 119.445 105.325C119.255 105.442 119.099 105.374 119.099 105.172C119.099 104.971 119.255 104.807 119.445 104.807C119.636 104.807 119.792 104.875 119.792 104.959ZM111.816 108.607C111.816 108.797 111.573 108.953 111.276 108.953C110.978 108.953 110.831 108.797 110.949 108.607C111.067 108.417 111.31 108.262 111.49 108.262C111.67 108.262 111.816 108.417 111.816 108.607ZM182.087 163.89C182.514 163.89 182.96 164.046 183.078 164.236C183.209 164.447 182.677 164.581 181.712 164.581C180.626 164.581 180.131 164.437 180.131 164.121C180.131 163.438 180.555 163.139 180.957 163.539C181.151 163.732 181.659 163.89 182.087 163.89ZM187.159 163.771C186.925 163.866 186.457 163.872 186.119 163.784C185.782 163.696 185.974 163.619 186.546 163.612C187.118 163.605 187.394 163.677 187.159 163.771ZM177.703 165.272C177.703 165.462 177.547 165.618 177.356 165.618C177.166 165.618 177.01 165.462 177.01 165.272C177.01 165.082 177.166 164.927 177.356 164.927C177.547 164.927 177.703 165.082 177.703 165.272ZM175.796 165.636C175.415 165.81 174.657 166.113 174.111 166.309C173.341 166.586 173.205 166.768 173.502 167.125C173.805 167.489 173.399 167.773 171.537 168.501C168.725 169.6 168.704 169.602 168.933 168.728C169.033 168.347 168.979 168.042 168.814 168.049C168.181 168.075 167.127 168.923 167.127 169.407C167.127 169.795 166.742 169.89 165.488 169.814C163.557 169.695 162.423 170.171 163.978 170.448C164.878 170.608 164.608 170.793 161.551 172.115C159.659 172.934 157.916 173.689 157.677 173.794C157.439 173.899 157.244 173.81 157.244 173.596C157.244 173.383 157.829 172.938 158.544 172.609C159.259 172.279 160 171.833 160.191 171.618C160.382 171.402 160.728 171.169 160.96 171.1C161.219 171.022 161.271 170.794 161.094 170.51C160.86 170.136 160.535 170.185 159.385 170.77C158.604 171.167 157.841 171.485 157.691 171.477C156.534 171.412 162.207 169.291 169.121 167.203C170.79 166.699 172.155 166.147 172.155 165.976C172.155 165.604 173.219 165.375 175.102 165.343C176.206 165.324 176.348 165.384 175.796 165.636ZM175.102 167C175.22 167.19 175.064 167.345 174.756 167.345C174.447 167.345 174.291 167.19 174.409 167C174.527 166.81 174.683 166.654 174.756 166.654C174.829 166.654 174.985 166.81 175.102 167ZM185.852 167C185.735 167.19 185.404 167.345 185.118 167.345C184.832 167.345 184.694 167.19 184.812 167C184.93 166.81 185.261 166.654 185.547 166.654C185.833 166.654 185.97 166.81 185.852 167ZM170.854 167.229C170.175 167.502 170.347 168.037 171.115 168.037C171.5 168.037 171.808 167.806 171.808 167.518C171.808 166.986 171.609 166.925 170.854 167.229ZM179.942 168.406C179.833 168.583 179.401 168.723 178.983 168.716C178.248 168.706 178.245 168.689 178.881 168.209C179.559 167.698 180.297 167.835 179.942 168.406ZM177.356 169.077C177.356 169.478 174.318 170.845 173.194 170.95C172.717 170.994 171.986 171.212 171.57 171.434C171.154 171.656 170.569 171.837 170.271 171.837C169.972 171.837 169.727 171.974 169.727 172.141C169.727 172.307 169.094 172.604 168.32 172.8C167.024 173.128 166.922 173.104 167.02 172.487C167.134 171.769 170.336 170.191 173.195 169.443C174.053 169.219 175.224 168.913 175.796 168.764C176.896 168.477 177.356 168.57 177.356 169.077ZM292.541 172.591C292.439 174.39 292.115 175.696 291.364 177.342C290.753 178.681 290.215 180.595 290.053 182.011C289.856 183.717 289.592 184.544 289.139 184.875C288.708 185.189 288.627 185.42 288.889 185.585C289.145 185.747 289.173 186.109 288.97 186.648C288.721 187.312 288.571 187.387 288.162 187.049C287.583 186.57 287.775 184.906 288.554 183.662C289.214 182.606 290.215 179.289 291.08 175.292C291.675 172.539 292.4 170.11 292.625 170.11C292.656 170.11 292.618 171.226 292.541 172.591ZM165.913 173.065C165.913 173.279 162.004 175.108 160.798 175.458C160.249 175.617 160.018 175.539 160.018 175.195C160.018 174.594 162.561 173.403 163.268 173.673C163.55 173.781 163.968 173.645 164.196 173.372C164.591 172.898 165.913 172.662 165.913 173.065ZM288.671 176.136C288.671 176.22 288.515 176.384 288.324 176.502C288.133 176.619 287.977 176.55 287.977 176.349C287.977 176.148 288.133 175.983 288.324 175.983C288.515 175.983 288.671 176.052 288.671 176.136ZM285.763 185.917C285.664 186.25 285.485 186.93 285.366 187.429C285.246 187.933 284.757 188.514 284.265 188.737C283.031 189.297 282.947 189.028 283.975 187.811C284.46 187.237 284.856 186.44 284.856 186.04C284.856 185.61 285.078 185.312 285.4 185.312C285.755 185.312 285.881 185.522 285.763 185.917ZM292.139 185.465C292.139 185.549 291.983 185.713 291.792 185.831C291.601 185.948 291.445 185.879 291.445 185.678C291.445 185.477 291.601 185.312 291.792 185.312C291.983 185.312 292.139 185.381 292.139 185.465ZM291.475 187.93C291.073 188.61 290.843 189.327 290.965 189.524C291.166 189.847 290.548 190.477 290.017 190.49C289.899 190.493 290.055 189.64 290.363 188.596C290.782 187.18 291.088 186.696 291.566 186.695C292.173 186.695 292.168 186.761 291.475 187.93ZM287.851 188.854C287.582 189.282 287.095 190.487 286.768 191.532C286.441 192.577 284.55 196.8 282.567 200.916C280.584 205.032 278.961 208.644 278.961 208.941C278.961 209.239 278.588 209.727 278.131 210.025C277.547 210.406 277.233 211.023 277.069 212.112C276.937 212.986 276.688 213.567 276.496 213.449C275.973 213.127 275.147 213.985 275.147 214.849C275.147 215.275 274.685 216.202 274.12 216.91C273.555 217.618 272.999 218.495 272.883 218.858C272.578 219.814 272.026 219.669 272.026 218.635C272.026 218.133 271.876 217.843 271.679 217.964C270.851 218.474 271.429 217.475 272.384 216.746C272.962 216.304 273.392 215.687 273.339 215.375C273.286 215.063 273.927 214.041 274.764 213.103C276.471 211.192 279.994 204.301 279.998 202.865C280 202.352 280.241 201.798 280.534 201.635C280.827 201.471 281.189 200.881 281.338 200.322C281.517 199.651 281.865 199.269 282.365 199.195C282.883 199.12 283.122 198.843 283.122 198.318C283.122 197.897 283.446 196.936 283.841 196.183C284.236 195.43 285.009 193.671 285.558 192.274C286.107 190.877 286.802 189.361 287.102 188.905C287.792 187.855 288.51 187.806 287.851 188.854ZM289.51 192.171C289.495 192.58 289.612 192.914 289.77 192.914C289.929 192.914 290.058 192.525 290.058 192.05C290.058 191.575 290.214 191.186 290.405 191.186C290.953 191.186 290.808 193.025 290.191 193.903C289.791 194.472 289.524 194.593 289.257 194.327C288.99 194.061 288.753 194.265 288.425 195.042C288.173 195.639 287.872 196.033 287.755 195.917C287.639 195.801 287.797 195.075 288.107 194.303C288.417 193.531 288.671 192.501 288.671 192.014C288.671 191.456 288.831 191.184 289.104 191.279C289.343 191.361 289.525 191.763 289.51 192.171ZM281.707 194.901C281.113 197.631 280.814 198.342 279.266 200.688C278.389 202.018 277.475 203.729 277.235 204.489C276.994 205.249 276.349 206.667 275.799 207.641C275.249 208.614 274.8 209.637 274.8 209.914C274.8 210.191 273.942 211.362 272.893 212.518C271.844 213.673 270.985 214.841 270.985 215.114C270.985 215.387 270.673 215.892 270.292 216.236C269.632 216.831 267.518 220.691 267.518 221.301C267.518 221.814 265.012 225.145 262.489 227.984C261.138 229.504 259.131 231.938 258.03 233.393C256.862 234.937 255.597 236.217 254.994 236.465C254.426 236.7 253.749 237.298 253.49 237.794C253.231 238.289 252.614 239.072 252.119 239.533C251.624 239.994 251.219 240.589 251.219 240.856C251.219 241.123 250.595 241.586 249.832 241.885C249.069 242.183 248.44 242.599 248.434 242.807C248.427 243.016 247.725 243.884 246.873 244.737C246.021 245.59 245.324 246.484 245.324 246.724C245.324 246.964 245.031 247.16 244.673 247.16C244.315 247.16 243.828 247.394 243.59 247.679C243.11 248.256 241.856 248.386 241.856 247.859C241.856 247.673 243.294 246.313 245.051 244.836C249.621 240.995 252.256 238.568 253.463 237.091C254.041 236.383 255.884 234.2 257.559 232.239C259.234 230.279 261.575 227.149 262.761 225.282C263.947 223.417 266.509 219.53 268.455 216.644C270.402 213.76 273.181 209.067 274.632 206.216C276.083 203.366 277.625 200.645 278.058 200.17C278.491 199.695 279.022 198.684 279.238 197.924C279.633 196.537 281.349 193.605 281.766 193.605C281.889 193.605 281.862 194.188 281.707 194.901ZM137.067 195.937C136.576 197.726 136.437 197.758 136.437 196.081C136.437 195.068 136.583 194.641 136.929 194.641C137.33 194.641 137.355 194.882 137.067 195.937ZM287.06 198.959C286.233 199.568 286.048 198.98 286.618 197.551L287.019 196.542L287.361 197.514C287.642 198.312 287.588 198.571 287.06 198.959ZM288.844 197.406C288.962 197.596 288.893 197.751 288.691 197.751C288.489 197.751 288.324 197.596 288.324 197.406C288.324 197.216 288.393 197.06 288.477 197.06C288.561 197.06 288.726 197.216 288.844 197.406ZM136.09 200.066C136.09 200.708 135.979 200.888 135.732 200.642C135.535 200.446 135.474 200.026 135.596 199.709C135.917 198.875 136.09 199 136.09 200.066ZM286.59 200.515C286.884 201.061 286.854 201.206 286.449 201.206C285.705 201.206 285.424 201.849 285.913 202.435C286.248 202.837 286.213 203.26 285.74 204.493C285.413 205.346 284.993 206.044 284.806 206.044C284.619 206.044 284.513 206.318 284.57 206.653C284.626 206.988 284.363 207.595 283.985 208.002C283.606 208.409 283.009 209.154 282.659 209.656C282.232 210.271 281.89 210.467 281.619 210.253C281.338 210.033 280.993 210.396 280.486 211.445C279.705 213.062 279.853 213.38 280.868 212.263C281.213 211.883 281.632 211.572 281.798 211.572C282.312 211.572 281.107 213.544 280.12 214.318C279.3 214.96 279.121 214.989 278.679 214.548C278.236 214.108 278.352 213.779 279.608 211.905C280.567 210.474 281.042 209.387 281.042 208.622C281.042 207.907 281.366 207.095 281.909 206.452C282.386 205.887 282.776 205.206 282.776 204.938C282.776 204.361 285.61 199.824 285.97 199.824C286.107 199.824 286.386 200.135 286.59 200.515ZM134.344 207.613C133.85 209.112 133.704 209.343 133.807 208.462C133.965 207.115 134.641 205.175 134.872 205.406C134.954 205.488 134.717 206.481 134.344 207.613ZM270.292 205.718C270.292 205.92 270.448 205.988 270.639 205.871C270.829 205.753 270.985 205.589 270.985 205.505C270.985 205.421 270.829 205.353 270.639 205.353C270.448 205.353 270.292 205.517 270.292 205.718ZM196.185 209.189C195.955 211.458 195.904 211.59 195.737 210.363C195.563 209.094 195.994 206.185 196.308 206.499C196.383 206.573 196.327 207.784 196.185 209.189ZM281.948 207.933C281.465 208.667 281.454 208.808 281.878 208.808C282.155 208.808 282.485 208.485 282.611 208.091C282.951 207.022 282.601 206.939 281.948 207.933ZM195.384 214.25C195.379 214.99 195.304 215.085 195.042 214.682C194.604 214.005 194.604 213.299 195.042 213.299C195.233 213.299 195.386 213.727 195.384 214.25ZM269.078 213.645C268.96 213.835 268.678 213.988 268.451 213.985C268.203 213.982 268.246 213.846 268.558 213.645C269.224 213.216 269.344 213.216 269.078 213.645ZM198.163 215.524C198.163 215.774 197.929 216.172 197.643 216.409C197.204 216.772 197.123 216.706 197.123 215.991C197.123 215.524 197.222 215.043 197.344 214.921C197.657 214.609 198.163 214.981 198.163 215.524ZM132.138 217.651C131.791 218.551 131.215 218.17 131.435 217.187C131.908 215.067 132.088 214.794 132.209 216.01C132.273 216.646 132.241 217.385 132.138 217.651ZM266.328 217.558C265.202 219.312 264.397 220.207 264.397 219.705C264.397 219.422 266.113 216.702 266.751 215.975C267.774 214.807 267.546 215.66 266.328 217.558ZM277.097 218.18C276.978 218.774 276.881 219.474 276.881 219.735C276.881 219.996 276.646 220.21 276.36 220.21C276.074 220.21 275.84 219.977 275.84 219.692C275.84 219.407 275.673 219.173 275.47 219.173C275.266 219.173 275.433 218.707 275.84 218.137C276.814 216.774 277.375 216.794 277.097 218.18ZM131.236 220.749C131.236 221.045 131.077 221.189 130.883 221.07C130.689 220.951 130.62 220.708 130.73 220.532C131.028 220.052 131.236 220.141 131.236 220.749ZM270.292 221.031C270.292 221.293 270.526 221.701 270.812 221.937C271.552 222.55 271.467 222.772 270.325 223.201C269.771 223.41 268.835 224.244 268.244 225.056L267.171 226.533V224.988C267.171 223.716 267.39 223.189 268.412 222C269.69 220.511 270.292 220.202 270.292 221.031ZM271.506 221.246C271.623 221.436 271.554 221.592 271.353 221.592C271.151 221.592 270.985 221.436 270.985 221.246C270.985 221.056 271.054 220.901 271.138 220.901C271.223 220.901 271.388 221.056 271.506 221.246ZM275.875 223.149L275.169 224.739L274.146 223.985C273.249 223.324 273.168 223.128 273.496 222.411C273.953 221.412 274.456 221.357 274.698 222.279C274.914 223.1 275.493 222.857 275.493 221.946C275.493 221.297 276.267 220.771 276.471 221.282C276.531 221.434 276.263 222.275 275.875 223.149ZM263.36 222.624C261.914 224.443 261.426 224.706 262.157 223.271C262.967 221.684 263.354 221.246 263.948 221.246C264.294 221.246 264.108 221.683 263.36 222.624ZM194.035 225.114C193.826 226.218 193.478 228.052 193.261 229.191C193.045 230.33 192.668 231.535 192.423 231.868C192.053 232.371 192.032 232.183 192.298 230.747C192.473 229.798 192.772 228.57 192.962 228.019C193.153 227.468 193.308 226.286 193.308 225.393C193.308 224.499 193.5 223.24 193.735 222.594C194.134 221.498 194.171 221.475 194.288 222.264C194.358 222.729 194.244 224.012 194.035 225.114ZM265.437 229.288C265.437 229.466 265.059 229.909 264.597 230.271C264.135 230.633 263.654 231.394 263.529 231.962C263.403 232.531 263.075 232.994 262.796 232.994C262.426 232.994 262.376 232.834 262.61 232.389C262.786 232.057 263.035 231.15 263.164 230.374C263.376 229.096 263.494 228.963 264.417 228.963C264.978 228.963 265.437 229.109 265.437 229.288ZM267.537 233.313C266.523 234.731 266.411 234.653 267.11 233.013C267.44 232.24 267.822 231.78 267.994 231.95C268.166 232.121 267.968 232.709 267.537 233.313ZM261.38 233.494C261.301 234.562 260.657 235.499 260.196 235.216C259.793 234.968 259.807 234.289 260.237 233.161C260.678 232.008 261.472 232.24 261.38 233.494ZM188.432 234.228C187.812 234.974 187.68 234.619 188.151 233.474C188.479 232.678 188.592 232.602 188.71 233.097C188.791 233.439 188.666 233.948 188.432 234.228ZM195.279 233.405C195.168 233.68 195.086 233.598 195.069 233.195C195.054 232.831 195.136 232.627 195.251 232.742C195.367 232.857 195.379 233.155 195.279 233.405ZM253.707 234.26C253.252 235.1 251.615 236.613 251.396 236.395C251.301 236.301 251.787 235.567 252.476 234.765C253.723 233.313 254.36 233.052 253.707 234.26ZM265.614 234.728C265.829 235.073 265.156 236.376 263.434 238.954C262.769 239.949 262.338 240.25 261.575 240.25C260.769 240.25 260.582 240.1 260.582 239.451C260.582 238.541 261.746 237.14 262.503 237.14C262.782 237.14 263.01 236.9 263.01 236.606C263.01 236.017 264.514 234.376 265.054 234.376C265.242 234.376 265.494 234.534 265.614 234.728ZM260.141 236.104C260.613 236.104 260.601 236.202 260.055 236.803C259.629 237.272 259.34 237.375 259.18 237.116C259.038 236.887 258.85 237.086 258.72 237.603C258.525 238.376 252.727 244.389 251.892 244.684C251.141 244.95 251.636 243.439 252.416 243.085C253.43 242.624 254.804 240.344 253.847 240.71C253.38 240.889 253.346 240.81 253.648 240.247C253.864 239.845 254.327 239.593 254.783 239.63C255.207 239.664 256.014 239.391 256.577 239.022C257.434 238.461 257.497 238.333 256.965 238.231C256.616 238.164 256.214 238.296 256.072 238.525C255.88 238.836 255.751 238.841 255.567 238.544C255.432 238.325 255.518 237.91 255.759 237.621C256.269 237.008 258.204 235.928 258.598 236.036C258.746 236.077 258.976 235.837 259.108 235.502C259.336 234.925 259.354 234.925 259.47 235.499C259.538 235.831 259.839 236.104 260.141 236.104ZM250.494 237.545C250.102 238.274 248.509 239.776 247.496 240.371C246.562 240.919 247.627 239.406 249.121 238.061C250.736 236.608 251.064 236.484 250.494 237.545ZM125.924 242.042C125.813 242.318 125.731 242.236 125.715 241.833C125.7 241.469 125.782 241.265 125.897 241.38C126.012 241.495 126.024 241.793 125.924 242.042ZM245.671 242.131C245.671 242.776 244.329 243.709 243.426 243.691C242.827 243.679 242.901 243.525 243.924 242.654C245.261 241.516 245.671 241.393 245.671 242.131ZM252.385 242.15C252.174 242.698 251.566 242.869 251.566 242.381C251.566 242.015 251.945 241.632 252.306 241.632C252.459 241.632 252.495 241.865 252.385 242.15ZM258.267 243.37C257.624 244.455 256.68 244.617 256.498 243.674C256.397 243.151 257.501 242.395 258.435 242.347C258.768 242.329 258.723 242.6 258.267 243.37ZM121.763 243.77C121.652 244.045 121.57 243.964 121.553 243.561C121.538 243.197 121.62 242.993 121.735 243.108C121.851 243.222 121.863 243.521 121.763 243.77ZM196.52 245.174C196.447 245.316 196.241 245.433 196.062 245.433C195.675 245.433 195.62 243.591 195.996 243.213C196.269 242.939 196.748 244.727 196.52 245.174ZM242.006 245.395C242.226 245.75 240.51 246.97 240.21 246.672C239.984 246.446 241.127 245.087 241.543 245.087C241.693 245.087 241.901 245.226 242.006 245.395ZM255.854 245.603C255.744 245.887 255.515 246.034 255.346 245.93C255.176 245.825 254.855 246.137 254.633 246.623C254.411 247.108 254.098 247.506 253.938 247.506C253.531 247.506 253.574 246.9 253.999 246.639C254.193 246.519 254.262 246.277 254.152 246.1C253.822 245.568 254.328 245.087 255.217 245.087C255.816 245.087 255.996 245.233 255.854 245.603ZM248.705 245.865C248.626 246.102 248.267 246.353 247.907 246.423C247.342 246.532 247.316 246.474 247.718 245.991C248.268 245.33 248.911 245.248 248.705 245.865ZM250.027 246.739C249.487 247.256 249.167 247.445 249.318 247.16C249.776 246.291 250.626 245.418 250.823 245.614C250.926 245.716 250.567 246.222 250.027 246.739ZM189.189 247.739C188.887 248.257 188.819 248.272 188.81 247.823C188.799 247.241 189.164 246.717 189.41 246.962C189.491 247.042 189.392 247.392 189.189 247.739ZM247.058 247.107C247.058 247.267 246.747 247.679 246.368 248.021C245.717 248.608 245.712 248.669 246.281 249.088C246.838 249.497 246.82 249.555 246.031 249.849C245.561 250.024 244.891 250.092 244.543 250.002C243.849 249.821 243.817 249.881 245.809 247.592C246.499 246.799 247.058 246.582 247.058 247.107ZM182.614 248.386C182.139 249.424 182.058 251.444 182.524 250.616C182.849 250.038 183.359 247.506 183.15 247.506C183.076 247.506 182.835 247.902 182.614 248.386ZM252.388 248.852C252.239 249.597 251.758 250.239 250.932 250.799C250.253 251.258 249.635 251.571 249.558 251.494C249.262 251.199 250.679 249.275 251.45 248.925C251.895 248.723 252.26 248.295 252.26 247.974C252.26 247.653 252.339 247.47 252.435 247.566C252.532 247.662 252.511 248.241 252.388 248.852ZM237.668 249.095C236.87 249.946 235.253 250.961 234.697 250.961C234.256 250.961 236.788 248.489 237.522 248.202C238.558 247.798 238.606 248.094 237.668 249.095ZM240.123 250.228C240.123 250.623 238.085 251.465 237.805 251.186C237.687 251.068 238.121 250.742 238.77 250.461C240.199 249.843 240.123 249.857 240.123 250.228ZM187.95 253.403C187.373 254.638 187.072 255.017 187.07 254.512C187.065 253.554 188.59 250.352 188.727 251.031C188.782 251.303 188.432 252.371 187.95 253.403ZM232.992 252.033C232.692 252.516 230.631 253.383 229.817 253.369C228.681 253.349 231.023 251.652 232.187 251.652C232.857 251.652 233.144 251.788 232.992 252.033ZM233.36 254.254C232.422 255.021 231.453 255.37 231.453 254.943C231.453 254.775 233.914 253.412 234.227 253.407C234.323 253.406 233.933 253.787 233.36 254.254ZM187.413 256.339C187.413 256.827 187.242 257.543 187.034 257.932C186.825 258.32 186.374 259.593 186.032 260.76C185.187 263.636 183.973 266.801 183.958 266.164C183.937 265.289 186.866 255.453 187.148 255.453C187.294 255.453 187.413 255.852 187.413 256.339ZM189.84 257.699C189.84 257.961 189.684 258.272 189.494 258.39C189.296 258.511 189.147 258.214 189.147 257.699C189.147 257.183 189.296 256.886 189.494 257.008C189.684 257.125 189.84 257.436 189.84 257.699ZM233.187 258.369C233.187 258.453 233.031 258.618 232.84 258.735C232.65 258.853 232.494 258.784 232.494 258.583C232.494 258.382 232.65 258.217 232.84 258.217C233.031 258.217 233.187 258.285 233.187 258.369ZM188.343 261.046C188.233 261.321 188.151 261.24 188.134 260.837C188.119 260.473 188.201 260.269 188.316 260.384C188.431 260.498 188.444 260.797 188.343 261.046ZM192.242 263.141C192.087 263.948 191.714 265.231 191.414 265.991L190.869 267.373L191.029 265.578C191.166 264.057 192.006 261.672 192.405 261.672C192.471 261.672 192.398 262.333 192.242 263.141ZM123.048 266.769C122.705 268.218 122.341 268.39 122.5 267.027C122.578 266.363 122.784 265.818 122.957 265.818C123.131 265.818 123.172 266.246 123.048 266.769ZM183.835 268.302C183.725 268.577 183.642 268.495 183.626 268.093C183.611 267.729 183.693 267.525 183.808 267.64C183.923 267.754 183.935 268.052 183.835 268.302ZM190.666 268.873C190.546 269.473 190.322 269.965 190.168 269.965C190.014 269.965 190.034 269.46 190.211 268.844C190.389 268.228 190.534 267.658 190.534 267.577C190.534 267.497 190.613 267.51 190.71 267.606C190.806 267.702 190.787 268.272 190.666 268.873ZM187.061 269.187C187.058 269.33 186.904 269.679 186.719 269.965C186.448 270.384 186.382 270.334 186.378 269.705C186.375 269.278 186.529 268.928 186.719 268.928C186.91 268.928 187.064 269.044 187.061 269.187ZM115.631 269.965C115.631 270.345 115.489 270.656 115.317 270.656C115.144 270.656 115.084 270.345 115.183 269.965C115.283 269.584 115.425 269.274 115.498 269.274C115.571 269.274 115.631 269.584 115.631 269.965ZM114.827 272.794C114.717 273.069 114.635 272.987 114.618 272.585C114.603 272.22 114.685 272.017 114.8 272.131C114.915 272.246 114.928 272.544 114.827 272.794ZM182.441 273.506C182.345 273.744 182.266 273.549 182.266 273.074C182.266 272.599 182.345 272.405 182.441 272.642C182.537 272.88 182.537 273.269 182.441 273.506ZM187.754 279.881C186.946 283.029 186.401 284.447 186.385 283.44C186.375 282.783 187.699 277.252 187.972 276.812C188.542 275.893 188.452 277.16 187.754 279.881ZM172.942 280.589C172.904 281.981 172.978 282.369 173.19 281.885C173.574 281.01 173.632 278.603 173.27 278.603C173.12 278.603 172.973 279.496 172.942 280.589ZM180.126 282.285C179.538 284.118 179.09 284.505 179.09 283.18C179.09 281.777 179.794 280.202 180.228 280.635C180.429 280.835 180.39 281.461 180.126 282.285ZM182.95 282.842C182.372 283.418 182.045 282.846 182.583 282.201C182.908 281.811 183.096 281.764 183.191 282.05C183.267 282.277 183.159 282.634 182.95 282.842ZM186.255 285.945C186.159 286.183 186.081 285.988 186.081 285.513C186.081 285.038 186.159 284.844 186.255 285.081C186.352 285.319 186.352 285.707 186.255 285.945ZM179.437 286.429C179.437 286.911 179.125 287.7 178.744 288.183C178.362 288.666 178.05 289.333 178.05 289.666C178.05 290.269 177.049 292.85 177.023 292.314C177.016 292.159 177.424 290.494 177.93 288.613C178.797 285.39 179.437 284.463 179.437 286.429ZM184.611 291.756C184.22 293.168 183.754 294.472 183.576 294.652C183.159 295.074 183.164 294.737 183.588 293.735C183.773 293.299 184.177 292.036 184.487 290.929C184.796 289.823 185.111 288.978 185.186 289.053C185.261 289.128 185.003 290.344 184.611 291.756ZM176.354 296.928L176.013 297.779L175.996 296.915C175.987 296.44 176.093 295.663 176.232 295.187L176.485 294.324L176.59 295.201C176.648 295.683 176.542 296.461 176.354 296.928ZM180.131 296.261C180.131 296.656 179.19 296.665 178.947 296.272C178.846 296.109 178.851 295.886 178.96 295.778C179.231 295.508 180.131 295.879 180.131 296.261ZM175.969 299.334C175.969 299.524 175.813 299.679 175.623 299.679C175.432 299.679 175.276 299.524 175.276 299.334C175.276 299.144 175.432 298.988 175.623 298.988C175.813 298.988 175.969 299.144 175.969 299.334ZM171.656 302.34C171.309 303.241 171.06 302.603 171.342 301.534C171.534 300.803 171.638 300.707 171.735 301.168C171.807 301.511 171.772 302.039 171.656 302.34ZM174.827 302.871C174.745 303.301 174.674 303.031 174.67 302.271C174.666 301.51 174.734 301.159 174.821 301.489C174.907 301.819 174.91 302.441 174.827 302.871ZM173.229 305.801C172.914 306.341 172.868 306.307 172.859 305.524C172.853 305.033 172.965 304.514 173.109 304.37C173.525 303.952 173.624 305.125 173.229 305.801ZM166.981 307.136C166.997 307.539 167.08 307.621 167.19 307.346C167.29 307.096 167.278 306.798 167.163 306.683C167.048 306.568 166.966 306.772 166.981 307.136ZM178.628 314.076C178.293 314.41 178.344 316.264 178.688 316.264C178.99 316.264 179.784 314.751 179.784 314.175C179.784 313.799 178.975 313.73 178.628 314.076ZM177.384 317.157C177.401 317.559 177.483 317.641 177.593 317.366C177.694 317.116 177.681 316.818 177.566 316.703C177.451 316.589 177.369 316.792 177.384 317.157ZM176.882 319.287C176.069 321.107 175.977 323.286 176.706 323.437C177.42 323.585 177.694 322.862 177.947 320.155C178.18 317.67 177.759 317.327 176.882 319.287ZM164.006 322.483C163.876 322.892 163.691 323.149 163.595 323.054C163.5 322.959 163.529 322.547 163.659 322.138C163.789 321.729 163.974 321.472 164.069 321.567C164.165 321.662 164.136 322.075 164.006 322.483ZM165.663 322.152C165.561 322.539 165.401 322.779 165.306 322.685C165.118 322.498 165.45 321.447 165.696 321.447C165.78 321.447 165.765 321.764 165.663 322.152ZM171.324 324.55C171.222 325.687 170.895 327.086 170.598 327.66C169.509 329.757 169.533 328.647 170.667 324.47C170.963 323.377 171.274 322.483 171.357 322.483C171.44 322.483 171.425 323.413 171.324 324.55ZM165.072 326.546C164.664 326.953 164.501 326.334 164.765 325.375L165.038 324.384L165.155 325.365C165.219 325.905 165.182 326.437 165.072 326.546ZM175.833 325.489C176.138 326.751 176.286 326.889 176.676 326.274C177.148 325.532 177.089 325.314 176.305 324.896C175.656 324.55 175.619 324.597 175.833 325.489ZM162.231 330.276C162.349 330.583 162.291 330.722 162.095 330.601C161.906 330.485 161.752 330.243 161.752 330.064C161.752 329.568 162 329.677 162.231 330.276ZM173.646 330.894C173.744 331.148 173.685 331.576 173.515 331.844C173.29 332.198 173.204 332.072 173.2 331.381C173.195 330.349 173.365 330.163 173.646 330.894ZM171.808 340.796C171.808 340.986 171.652 341.141 171.461 341.141C171.271 341.141 171.115 340.986 171.115 340.796C171.115 340.606 171.271 340.45 171.461 340.45C171.652 340.45 171.808 340.606 171.808 340.796ZM165.456 346.044C165.346 346.319 165.263 346.237 165.247 345.835C165.232 345.47 165.314 345.267 165.429 345.381C165.544 345.496 165.556 345.794 165.456 346.044Z" fill="white"/>
</svg>
