<svg width="394" height="440" viewBox="0 0 394 440" fill="none" xmlns="http://www.w3.org/2000/svg">
<path fill-rule="evenodd" clip-rule="evenodd" d="M157.247 148.474C151.334 151.051 144.094 159.618 142.265 166.202C139.056 177.76 141.665 230.55 145.845 238.635C147.482 241.803 148.953 242.865 151.248 242.539C154.086 242.135 154.353 241.376 153.933 234.901L153.467 227.711L160.189 235.298C169.889 246.249 178.319 249.926 182.414 244.991C183.874 243.231 183.591 242.627 180.794 241.54C177.005 240.069 171.64 234.561 166.619 226.992C164.783 224.224 161.728 220.264 159.829 218.194L156.377 214.426L163.597 209.126C176.049 199.984 185.897 184.706 187.669 171.784C188.978 162.226 184.306 152.93 176.386 149.334C169.216 146.08 163.346 145.815 157.247 148.474ZM104.08 152.028C96.1927 155.62 88.7513 164.321 82.5692 177.176C75.4095 192.063 73.5966 201.494 75.6209 213.318C78.0621 227.563 82.1609 234.845 89.8367 238.56C98.1149 242.568 104.514 241.482 111.888 234.819C114.901 232.097 117.683 229.868 118.07 229.868C118.457 229.868 119.151 233.529 119.613 238.004C120.577 247.355 123.572 251.572 127.47 249.073C129.652 247.672 129.924 245.097 129.674 228.18C129.518 217.567 128.7 207.067 127.855 204.846L126.321 200.808L113.044 201.842C105.742 202.41 98.6354 203.471 97.2509 204.2C92.242 206.837 94.9348 208.299 104.799 208.299C110.334 208.299 114.863 208.637 114.863 209.05C114.863 211.877 105.955 228.343 102.918 231.129C98.1034 235.546 95.8707 234.533 91.6842 226.03C88.8016 220.174 88.2653 216.911 88.2653 205.248C88.2653 191.758 88.422 191.102 94.5538 179.014C101.078 166.146 109.749 156.535 114.834 156.535C118.051 156.535 120.943 160.519 123.44 168.398C126.134 176.897 133.553 174.54 133.553 165.185C133.553 152.391 118.266 145.566 104.08 152.028ZM216.967 151.864C214.215 153.246 211.038 156.319 209.907 158.692C208.774 161.064 207.312 163.976 206.658 165.162C201.007 175.399 199.606 178.715 197.499 186.817C194.22 199.441 195.061 223.845 199.054 231.898C203.124 240.107 208.516 243.573 216.829 243.318C229.547 242.932 235.49 237.964 240.991 223.12C247.942 204.363 246.881 167.707 239.041 155.741C236.802 152.322 230.256 149.344 224.991 149.348C223.329 149.348 219.719 150.481 216.967 151.864ZM312.086 151.187C309.95 153.763 303.765 175.626 300.806 191.059C299.444 198.169 297.921 203.986 297.423 203.986C296.924 203.986 295.58 200.972 294.437 197.288C288.521 178.239 273.753 184.78 270.592 207.849C270.124 211.26 269.345 214.047 268.859 214.041C268.04 214.031 263.566 193.588 259.301 170.37C257.382 159.918 255.402 157.291 251.161 159.562C249.17 160.627 248.568 162.693 248.568 168.448C248.568 175.888 258.693 230.376 261.398 237.489C264.211 244.89 273.31 245.984 275.878 239.23C276.574 237.398 277.848 231.792 278.707 226.772C281.253 211.907 283.291 203.951 284.379 204.623C284.94 204.971 286.948 211.51 288.842 219.157C291.474 229.79 293.06 233.569 295.584 235.224C298.533 237.157 299.252 237.148 302.295 235.154C305.231 233.231 306.043 230.721 308.14 217.108C309.48 208.41 311.849 195.268 313.407 187.901C320.101 156.241 320.534 153.334 318.852 151.307C316.809 148.843 314.072 148.796 312.086 151.187ZM171.716 157.189C176.572 162.045 176.571 173.039 171.712 183.477C168.369 190.658 156.106 205.424 153.483 205.424C152.8 205.424 152.242 197.31 152.242 187.392C152.242 167.876 154.264 160.749 161.169 155.911C165.573 152.826 167.6 153.072 171.716 157.189ZM230.737 161.927C232.812 166.19 233.482 171.772 233.935 188.596C234.448 207.652 234.171 210.921 231.282 219.903C227.804 230.722 221.815 237.564 216.513 236.772C205.791 235.171 203.703 196.683 213.215 175.947C216.365 169.081 225.27 156.765 227.198 156.61C227.701 156.568 229.294 158.962 230.737 161.927ZM112.201 266.635C105.598 267.662 99.8157 268.883 99.3513 269.347C97.2782 271.421 97.5183 314.808 99.7021 332.679C102.862 358.545 103.328 360.598 106.403 362.245C109.626 363.97 115.054 361.642 114.208 358.899C113.906 357.922 113.27 350.267 112.792 341.888L111.925 326.652L121.66 324.633C128.459 323.223 131.396 321.962 131.396 320.456C131.396 318.709 129.399 318.356 120.872 318.594L110.35 318.889L110.808 296.783C111.061 284.624 111.697 274.249 112.219 273.729C112.742 273.208 120.667 272.412 129.83 271.961C142.153 271.353 146.492 270.652 146.492 269.264C146.492 266.89 137.477 264.336 129.958 264.581C126.795 264.683 118.805 265.607 112.201 266.635ZM161.218 270.301C158.643 271.95 156.114 275.013 155.597 277.106C155.08 279.201 153.245 283.179 151.516 285.947C144.926 296.507 142.897 305.646 142.897 324.77C142.897 340.455 143.306 343.572 146.102 349.246C151.596 360.394 162.267 363.73 173.729 357.882C180.689 354.332 184.314 349.762 188.406 339.389C191.211 332.279 191.631 328.494 191.7 309.672C191.789 285.394 190.215 277.69 183.866 271.34C180.494 267.968 178.567 267.258 172.84 267.278C168.294 267.294 164.286 268.336 161.218 270.301ZM221.48 268.785C217.663 270.315 212.745 275.694 212.673 278.419C212.647 279.42 210.715 283.626 208.378 287.766C196.405 308.988 196.884 345.544 209.277 356.427C217.673 363.799 230.664 361.72 239.566 351.58C247.13 342.964 249.286 333.185 249.285 307.515C249.285 287.934 248.92 284.438 246.277 278.727C241.841 269.136 239.389 267.239 231.573 267.344C227.872 267.395 223.332 268.043 221.48 268.785ZM258.991 269.644C256.77 270.541 256.626 274.015 258.779 274.732C259.885 275.1 260.301 285.553 260.15 309.177C260.01 331.212 260.529 345.457 261.633 349.843C263.755 358.272 267.992 361.434 275.552 360.232C286.153 358.547 294.292 344.666 297.279 323.174C299.748 305.429 294.19 286.621 283.565 276.768C277.908 271.523 264.191 267.546 258.991 269.644ZM178.417 282.447C182.11 293.127 181.961 324.221 178.157 336.538C174.879 347.151 168.865 354.043 163.54 353.29C151.534 351.59 150.438 311.633 161.79 289.541C165.982 281.384 172.218 274.164 174.458 274.875C175.287 275.138 177.068 278.544 178.417 282.447ZM234.994 278.92C238.775 286.236 240.732 308.398 238.842 322.527C236.195 342.305 229.984 353.528 221.684 353.528C210.454 353.528 207.816 314.949 217.587 293.605C221.384 285.31 229.216 274.443 231.399 274.443C232.103 274.443 233.721 276.458 234.994 278.92ZM277.968 285.005C279.985 287.65 282.982 293.636 284.626 298.305C289.829 313.074 286.971 335.783 278.344 348.247C276.257 351.261 275.11 351.893 273.91 350.694C271.743 348.53 270.688 280.195 272.821 280.195C273.634 280.195 275.95 282.359 277.968 285.005Z" fill="white"/>
<path d="M269.579 43.6629C244.461 39.6721 194.224 49.4377 194.224 120.426C189.06 89.2042 196.901 30.1411 269.579 43.6629Z" fill="white"/>
<path d="M247.747 76.7632C231.549 81.2234 197.463 102.679 190.703 152.822C194.928 138.502 212.253 103.243 247.747 76.7632Z" fill="white"/>
<path d="M287.889 39.438C287.185 73.7114 271.691 139.441 215.351 128.173C242.817 135.685 295.776 128.455 287.889 39.438Z" fill="white"/>
<path d="M85.7695 388.745C113.939 377.477 196.337 359.308 300.565 376.773C296.34 376.082 210.421 366.209 85.7695 388.745Z" fill="white"/>
</svg>
