<svg width="536" height="440" viewBox="0 0 536 440" fill="none" xmlns="http://www.w3.org/2000/svg">
<path fill-rule="evenodd" clip-rule="evenodd" d="M416.396 188.109C416.396 264.937 354.233 327.218 277.552 327.218C200.87 327.218 138.707 264.937 138.707 188.109C138.707 111.281 200.87 49 277.552 49C354.233 49 416.396 111.281 416.396 188.109ZM155.311 188.109C155.311 255.749 210.04 310.583 277.552 310.583C345.063 310.583 399.793 255.749 399.793 188.109C399.793 120.469 345.063 65.6352 277.552 65.6352C210.04 65.6352 155.311 120.469 155.311 188.109ZM277.568 306.803C343.116 306.803 396.253 253.666 396.253 188.118C396.253 122.57 343.116 69.4325 277.568 69.4325C212.02 69.4325 158.883 122.57 158.883 188.118C158.883 253.666 212.02 306.803 277.568 306.803ZM265.354 109.958C242.324 120.283 234.268 127.554 230.354 141.548C227.991 149.999 220.157 166.451 209.351 185.657C203.112 196.744 199.241 208.805 196.564 225.496C192.799 248.978 192.964 249.883 201.86 254.405C210.763 258.933 218.681 259.301 235.921 255.991C258.127 251.729 284.093 240.321 303.262 226.408C307.295 223.48 310.987 221.478 311.467 221.96C313.112 223.61 297.45 236.814 286.756 242.792C272.232 250.911 253.642 257.223 230.045 262.046C219.196 264.262 208.964 266.623 207.31 267.29C202.672 269.16 255.744 270.675 271.547 269.125C302.226 266.112 318.489 259.541 334.282 243.774C350.969 227.115 360.901 202.956 360.901 179.03V172.158L356.382 175.387C344.315 184.008 339.427 185.006 308.24 185.212C308.24 185.212 288.983 181.93 278.204 185.657C273.974 187.119 268.767 190.482 268.767 190.482C257.167 196.213 251.45 203.519 247.628 215.317C246.194 219.747 245.468 221.452 244.818 221.452C242.644 221.452 241.664 193.262 243.223 175.597C244.774 158.049 247.747 148.07 252.992 142.807C255.148 140.644 258.508 140.15 271.195 140.132C288.207 140.106 291.427 139.118 289.93 134.387C289.393 132.691 289.751 129.549 290.725 127.405C292.217 124.119 291.968 122.651 289.135 118.051C285.198 111.662 278.969 106.383 275.466 106.47C274.109 106.504 269.558 108.075 265.354 109.958ZM256.493 343.579C256.406 348.327 256.421 352.213 256.524 352.212C256.627 352.212 257.408 351.628 258.26 350.914C260.967 348.644 266.148 347.876 270.544 349.092C273.019 349.776 276.908 353.236 278.47 356.141C279.509 358.077 279.631 359.211 279.788 368.453L279.963 378.634L278.083 378.468L276.205 378.302L276.044 368.535C275.899 359.858 275.761 358.564 274.809 356.941C271.12 350.648 261.182 350.774 257.506 357.159C257.095 357.873 256.77 361.872 256.601 368.288L256.336 378.302L254.352 378.465L252.368 378.63V356.767C252.368 340.652 252.53 334.852 252.982 334.702C253.32 334.59 254.282 334.599 255.122 334.722L256.648 334.944L256.493 343.579ZM139.674 343.596C139.674 351.958 139.718 352.335 140.609 351.532C142.531 349.798 146.245 348.545 149.49 348.534C155.239 348.513 160.235 352.046 162.167 357.5C162.751 359.15 162.953 362.152 162.953 369.144V378.565H161.102H159.25L159.237 370C159.219 357.874 158.538 355.734 153.949 353.398C149.625 351.197 144.398 352.369 141.464 356.196L139.939 358.187L139.774 368.406L139.611 378.625L137.658 378.464L135.707 378.302L135.568 357.22C135.491 345.625 135.543 335.841 135.684 335.478C135.822 335.115 136.778 334.818 137.806 334.818H139.674V343.596ZM233.395 344.305L233.351 366.047L233.322 378.565H231.47H229.618V356.66V334.754L231.512 334.918L233.41 335.082L233.395 344.305ZM331.102 336.465C330.966 337.811 330.606 338.221 329.134 338.705C326.47 339.582 325.364 341.426 325.037 345.527L324.757 349.049H327.45H330.142V350.894V352.739H327.545H324.948L324.966 365.52L324.983 378.302L323.065 378.465L321.148 378.63V365.684V352.739H318.503H315.857V350.894V349.049H318.503H321.148V345.658C321.148 343.792 321.402 341.598 321.712 340.782C322.893 337.675 326.626 334.823 329.514 334.82C331.16 334.818 331.258 334.918 331.102 336.465ZM419.961 355.242L419.822 375.666L417.838 375.83C416.299 375.956 415.852 375.803 415.852 375.146C415.852 374.499 415.384 374.673 413.868 375.884C409.37 379.479 403.705 380.072 398.522 377.493C388.398 372.452 386.083 360.786 393.701 353.197C399.256 347.662 407.907 347.041 413.868 351.749L415.852 353.315V344.067V334.818H417.975H420.098L419.961 355.242ZM244.048 346.18L244.167 348.767L247.019 348.776C250.043 348.786 251.267 349.662 250.618 351.349C250.36 352.018 249.556 352.211 247.041 352.211H243.798L244.012 361.304C244.152 367.218 244.464 370.871 244.904 371.758C245.682 373.325 248.053 374.876 249.671 374.876C250.587 374.876 250.781 375.199 250.781 376.72C250.781 378.424 250.659 378.565 249.172 378.565C247.301 378.565 244.064 377.038 242.662 375.494C240.687 373.319 240.246 370.755 240.222 361.304L240.199 352.211H237.784C235.379 352.211 235.371 352.206 235.536 350.499C235.696 348.847 235.78 348.788 237.95 348.865L240.199 348.945V346.133C240.199 343.462 240.272 343.312 241.654 343.137C243.654 342.884 243.912 343.21 244.048 346.18ZM186.573 349.994C189.368 351.432 192.868 355.493 193.897 358.494C194.178 359.315 194.375 360.091 194.44 360.582C194.478 360.858 194.473 361.044 194.419 361.098C194.269 361.249 188.334 361.325 181.231 361.267C180.481 361.261 179.77 361.255 179.097 361.249L179.031 361.248C171.332 361.178 168.624 361.153 167.926 362.321C167.547 362.954 167.76 363.937 168.089 365.455C168.118 365.589 168.147 365.727 168.178 365.87C168.205 365.997 168.233 366.127 168.261 366.262C168.771 368.706 169.329 369.683 171.403 371.748C174.015 374.35 176.472 375.405 179.884 375.388C183.591 375.371 188.489 372.032 189.946 368.531C190.892 366.251 191.763 366.877 191.946 369.972C192.08 372.229 191.884 372.885 190.645 374.352C189.844 375.301 187.749 376.756 185.991 377.585C175.627 382.47 164.033 375.156 164.017 363.721C164.012 360.781 164.293 359.67 165.738 356.886C167.553 353.395 171.036 350.224 174.262 349.13C177.003 348.2 184.043 348.693 186.573 349.994ZM217.184 349.77C218.639 350.451 220.281 351.514 220.834 352.132C221.728 353.134 221.903 353.166 222.446 352.425C222.828 351.905 223.639 351.66 224.617 351.771L226.179 351.948L226.321 363.675L226.463 375.403H224.337C223.048 375.403 222.211 375.156 222.211 374.777C222.211 374.433 221.555 374.762 220.756 375.508C218.299 377.798 215.843 378.729 211.596 378.98C208.072 379.189 207.237 379.049 204.61 377.81C194.543 373.066 192.109 360.54 199.792 353.018C204.357 348.547 211.656 347.184 217.184 349.77ZM346.51 349.401C349.785 350.455 353.433 353.517 355.415 356.875C356.668 359.001 356.859 359.89 356.852 363.544C356.844 366.884 356.596 368.223 355.658 369.985C351.521 377.761 342.851 381.177 335.698 377.853C332.805 376.508 329.71 373.422 328.1 370.276C324.107 362.481 328.517 352.488 337.28 349.469C340.641 348.312 343.068 348.294 346.51 349.401ZM377.725 349.401C380.972 350.445 384.647 353.514 386.571 356.784C388.661 360.337 388.904 365.388 387.163 369.173C385.31 373.207 382.766 375.859 379.087 377.593C370.298 381.736 360.399 376.602 358.194 366.757C356.622 359.749 361.672 351.545 368.952 349.277C371.98 348.332 374.516 348.369 377.725 349.401ZM285.182 358.141C285.192 365.852 285.342 367.554 286.171 369.342C289.209 375.898 296.932 377.308 302.024 372.236C304.343 369.925 304.741 367.83 304.744 357.878L304.746 349.049H306.598H308.449V365.142C308.449 382.657 308.321 383.564 305.38 386.652C303.527 388.598 300.439 390.161 298.45 390.161C296.585 390.161 296.063 389.517 296.507 387.759C296.622 387.296 296.782 386.983 297.035 386.78C297.314 386.558 297.704 386.47 298.275 386.468C299.941 386.464 302.316 385.044 303.517 383.335C303.974 382.687 304.472 380.577 304.622 378.647C304.889 375.226 304.87 375.162 303.886 376.033C301.933 377.759 298.197 379.069 295.223 379.069C289.961 379.069 285.352 376.087 282.629 370.922C281.322 368.443 281.227 367.766 281.035 359.451C280.922 354.591 280.966 350.262 281.132 349.832C281.32 349.344 282.138 349.049 283.302 349.049H285.171L285.182 358.141ZM174.857 353.211C173.694 353.747 172.043 354.929 171.188 355.834L169.633 357.483H179.321H189.007L188.247 356.297C187.829 355.644 186.209 354.458 184.648 353.661C181.269 351.935 177.955 351.782 174.857 353.211ZM206.073 353.195C203.27 354.467 200.141 357.988 199.691 360.374C198.169 368.459 203.182 375.095 210.836 375.123C222.963 375.169 226.637 358.796 215.75 353.217C213.239 351.931 208.881 351.92 206.073 353.195ZM339.057 352.944C333.967 354.308 331.144 357.648 330.774 362.745C330.407 367.804 331.999 371.044 336.161 373.707C337.936 374.844 338.982 375.106 341.782 375.122C343.232 375.129 344.188 375.073 345.02 374.86C345.838 374.65 346.535 374.289 347.465 373.687C351.007 371.393 352.579 368.573 352.805 364.118C352.981 360.608 352.885 360.221 351.224 357.752C348.339 353.469 343.798 351.674 339.057 352.944ZM370.838 352.703C362.465 354.328 358.885 365.354 364.69 371.644C366.209 373.291 370.716 375.392 372.734 375.395C379.066 375.403 384.28 370.034 384.222 363.563C384.158 356.514 377.798 351.354 370.838 352.703ZM400.979 353.011C396.731 354.354 393.109 359.323 393.109 363.807C393.109 370.211 399.906 376.196 405.887 375.059C411.556 373.982 415.852 369.13 415.852 363.807C415.852 356.382 408.102 350.757 400.979 353.011ZM465.221 118.534C466.547 98.8546 467.617 84.752 467.921 82.9496C468.316 80.6098 467.26 80.6951 466.272 83.0829L465.804 84.2113L465.687 84.4944C465.342 85.3282 464.97 86.227 464.699 86.8812C461.212 95.2999 455.26 125.712 453.782 142.658C453.23 148.978 453.262 149.621 454.225 151.8C455.429 154.521 458.285 156.457 462.798 157.612L465.668 158.347L465.586 162.563C465.541 164.882 465.22 176.064 464.874 187.411L464.243 208.042L461.272 208.406C459.638 208.607 457.755 208.975 457.087 209.225L455.874 209.679L456.898 211.686C457.461 212.79 458.847 214.752 459.978 216.047C461.109 217.342 461.952 218.662 461.853 218.979C461.219 221.005 458.293 235.975 456.999 243.813C454.781 257.26 454.139 264.68 454.427 273.573C454.743 283.335 455.69 286.279 459.662 289.85C464.182 293.913 469.968 294.375 476.084 291.161C479.826 289.195 480.731 288.402 482.64 285.423C484.473 282.563 484.504 281.595 483.096 271.151C482.512 266.817 481.309 257.633 480.423 250.743C479.537 243.853 478.191 233.479 477.433 227.691L476.054 217.167L478.578 214.364C481.31 211.328 482.428 209.386 481.804 208.761C481.586 208.543 479.525 208.28 477.223 208.176C474.394 208.047 473.099 207.787 473.225 207.374C473.328 207.037 473.555 204.243 473.731 201.165C473.905 198.086 474.277 192.209 474.557 188.104C474.837 183.999 475.341 175.962 475.678 170.245C476.015 164.527 476.442 159.714 476.626 159.549C476.81 159.383 478.298 158.845 479.931 158.352C483.442 157.293 487.461 154.753 488.961 152.646C490.563 150.396 491.09 146.514 491.084 136.987C491.077 122.634 489.663 110.836 486.259 96.7041C484.392 88.9576 482.046 81.217 481.563 81.2165C481.378 81.2165 481.307 86.9137 481.405 93.8776C481.678 113.149 480.289 137.547 478.64 142.464C477.84 144.847 475.798 146.307 472.789 146.646C469.67 146.998 468.106 146.585 466.073 144.875L464.433 143.495L464.441 136.745C464.446 133.033 464.796 124.838 465.221 118.534ZM460.989 243.546C461.727 237.975 462.473 232.627 462.646 231.66C463.23 228.408 463.321 230.22 462.804 234.77C461.738 244.146 461.586 265.349 462.516 275.044C462.997 280.053 463.621 284.955 463.902 285.937C464.563 288.243 464.208 288.536 462.592 287.017C458.262 282.95 457.719 268.221 460.989 243.546ZM74.3761 81.265C72.879 81.265 71.6653 82.4521 71.6653 83.9164V86.0375C71.6653 87.5017 72.879 88.6888 74.3761 88.6888H79.7977C81.2948 88.6888 82.5084 87.5017 82.5084 86.0375V83.9164C82.5084 82.4521 81.2948 81.265 79.7977 81.265H74.3761ZM59.1958 90.8099C57.6987 90.8099 56.485 91.9969 56.485 93.4612V96.6428C56.485 98.1071 57.6987 99.2941 59.1958 99.2941H94.978C96.4751 99.2941 97.6888 98.1071 97.6888 96.6428V93.4612C97.6888 91.9969 96.4751 90.8099 94.978 90.8099H59.1958ZM46.7262 104.067C46.7262 102.602 47.9399 101.415 49.437 101.415H104.737C106.234 101.415 107.448 102.602 107.448 104.067V107.248C107.448 108.712 106.234 109.899 104.737 109.899H49.437C47.9399 109.899 46.7262 108.712 46.7262 107.248V104.067ZM47.2684 113.081C45.7713 113.081 44.5576 114.268 44.5576 115.732V118.914C44.5576 120.378 45.7713 121.565 47.2684 121.565H106.905C108.403 121.565 109.616 120.378 109.616 118.914V115.732C109.616 114.268 108.403 113.081 106.905 113.081H47.2684ZM71.6653 288.599C71.6653 290.064 72.879 291.251 74.3761 291.251H79.7977C81.2948 291.251 82.5084 290.064 82.5084 288.599V286.478C82.5084 285.014 81.2948 283.827 79.7977 283.827H74.3761C72.879 283.827 71.6653 285.014 71.6653 286.478V288.599ZM59.1958 281.706C57.6987 281.706 56.485 280.519 56.485 279.055V275.873C56.485 274.409 57.6987 273.222 59.1958 273.222H94.978C96.4751 273.222 97.6888 274.409 97.6888 275.873V279.055C97.6888 280.519 96.4751 281.706 94.978 281.706H59.1958ZM46.7262 268.449C46.7262 269.914 47.9399 271.101 49.437 271.101H104.737C106.234 271.101 107.448 269.914 107.448 268.449V265.268C107.448 263.803 106.234 262.616 104.737 262.616H49.437C47.9399 262.616 46.7262 263.803 46.7262 265.268V268.449ZM47.2684 259.435C45.7713 259.435 44.5576 258.248 44.5576 256.783V253.602C44.5576 252.138 45.7713 250.951 47.2684 250.951H106.905C108.403 250.951 109.616 252.138 109.616 253.602V256.783C109.616 258.248 108.403 259.435 106.905 259.435H47.2684ZM77.6291 124.217C79.1262 124.217 80.3398 125.404 80.3398 126.868L80.3398 245.648C80.3398 247.112 79.1262 248.299 77.629 248.299H74.3761C72.879 248.299 71.6653 247.112 71.6653 245.648L71.6654 126.868C71.6654 125.404 72.879 124.217 74.3761 124.217H77.6291Z" fill="white"/>
</svg>
