<svg width="788" height="440" viewBox="0 0 788 440" fill="none" xmlns="http://www.w3.org/2000/svg">
<path d="M98.9533 41.0669C152.97 44.3739 202.575 21.2245 202.575 144.691C126.512 144.691 97.8525 149.1 98.9533 41.0669Z" fill="white"/>
<path d="M290.865 67.962C288.414 107.973 305.563 144.717 214.105 144.717C214.105 88.3756 210.839 67.1463 290.865 67.962Z" fill="white"/>
<path fill-rule="evenodd" clip-rule="evenodd" d="M205.988 158.491C167.754 158.491 136.759 189.483 136.759 227.716V287.974C136.759 296.797 143.911 303.95 152.734 303.95C161.561 303.95 168.714 296.797 168.714 287.974V227.716C168.714 207.129 185.403 190.441 205.988 190.441C226.575 190.441 243.264 207.129 243.264 227.716V361.812C243.264 362.434 243.301 363.043 243.37 363.643V369.024C243.37 382.304 254.135 393.067 267.411 393.067H274.279C274.848 393.067 275.215 392.574 275.215 392.004V351.853V227.716C275.215 189.483 244.224 158.491 205.988 158.491Z" fill="white"/>
<path fill-rule="evenodd" clip-rule="evenodd" d="M30.2549 227.716C30.2549 189.483 61.2502 158.491 99.4838 158.491C137.717 158.491 168.713 189.483 168.713 227.716V304.277C168.713 305.745 168.713 304.561 168.713 306.555C168.713 318.521 158.641 322.872 154.815 324.054C153.367 324.502 151.841 324.484 150.405 324.016C146.022 322.585 136.761 318.143 136.761 306.555C136.761 305.776 136.761 304.996 136.761 304.277V227.716C136.761 207.129 120.072 190.441 99.4838 190.441C78.8959 190.441 62.2068 207.129 62.2068 227.716V364.734C62.2068 364.874 62.2035 365.015 62.2001 365.156V369.024C62.2001 382.304 51.4364 393.067 38.1595 393.067H31.2905C30.7216 393.067 30.2601 392.604 30.2601 392.034V365.156C30.2566 365.015 30.2549 364.874 30.2549 364.734V227.716Z" fill="white"/>
<path fill-rule="evenodd" clip-rule="evenodd" d="M345.693 164.267H746.912C752.868 164.267 757.697 169.096 757.697 175.053V284.752C757.697 290.708 752.868 295.537 746.912 295.537H345.693C339.736 295.537 334.907 290.708 334.907 284.752V175.053C334.907 169.096 339.736 164.267 345.693 164.267ZM370.358 217.607V208.219H362.613V266.893H370.358V235.736C370.358 232.06 371.042 228.617 372.411 225.411C373.78 222.164 375.697 219.583 378.162 217.666C380.626 215.709 383.384 214.731 386.436 214.731C389.76 214.731 392.694 215.631 395.237 217.43C397.819 219.229 399.813 221.674 401.222 224.765C402.63 227.815 403.335 231.198 403.335 234.917V266.893H411.079V234.917C411.079 231.198 411.784 227.815 413.192 224.765C414.601 221.674 416.575 219.229 419.119 217.43C421.7 215.631 424.654 214.731 427.978 214.731C431.264 214.731 434.12 215.631 436.546 217.43C439.01 219.229 440.868 221.655 442.119 224.706C443.41 227.757 444.056 231.161 444.056 234.917V266.893H451.801V234.917C451.801 229.831 450.823 225.175 448.868 220.95C446.951 216.687 444.174 213.303 440.536 210.8C436.937 208.256 432.751 206.985 427.978 206.985C423.246 206.985 419.119 208.197 415.597 210.623C412.116 213.01 409.319 216.432 407.207 220.891C405.095 216.473 402.298 213.049 398.817 210.623C395.374 208.197 391.247 206.985 386.436 206.985C382.837 206.985 379.805 207.865 377.341 209.627C374.876 211.387 372.548 214.047 370.358 217.607ZM517.851 266.893H525.595V208.219H517.851V219.366C515.738 215.416 512.862 212.307 509.224 210.037C505.586 207.729 501.382 206.576 496.611 206.576C491.015 206.576 485.852 207.965 481.119 210.741C476.424 213.519 472.689 217.274 469.912 222.007C467.134 226.741 465.746 231.923 465.746 237.557C465.746 243.149 467.134 248.312 469.912 253.046C472.689 257.741 476.424 261.475 481.119 264.253C485.852 267.029 491.015 268.419 496.611 268.419C501.382 268.419 505.586 267.284 509.224 265.016C512.862 262.709 515.738 259.58 517.851 255.628V266.893ZM507.523 257.8C504.433 259.872 500.814 260.908 496.669 260.908C492.6 260.908 488.787 259.872 485.226 257.8C481.706 255.687 478.889 252.85 476.777 249.291C474.664 245.731 473.608 241.82 473.608 237.557C473.608 233.332 474.644 229.42 476.718 225.82C478.791 222.223 481.588 219.386 485.108 217.312C488.63 215.2 492.482 214.143 496.669 214.143C500.776 214.143 504.374 215.181 507.466 217.253C510.595 219.288 513 222.086 514.683 225.644C516.364 229.204 517.205 233.174 517.205 237.557C517.205 241.859 516.364 245.79 514.683 249.349C513.039 252.909 510.652 255.725 507.523 257.8ZM554.579 178.881H546.833V266.834H554.579V178.881ZM577.056 196.893C577.956 197.794 579.011 198.244 580.223 198.244C581.437 198.244 582.494 197.794 583.393 196.893C584.293 195.994 584.743 194.957 584.743 193.784C584.743 192.572 584.293 191.515 583.393 190.615C582.494 189.716 581.437 189.266 580.223 189.266C579.011 189.266 577.956 189.716 577.056 190.615C576.194 191.515 575.764 192.572 575.764 193.784C575.764 194.957 576.194 195.994 577.056 196.893ZM583.802 266.893V208.219H576.058V266.893H583.802ZM647.915 235.444V266.893H655.66V235.209C655.582 230.085 654.468 225.333 652.317 220.95C650.164 216.569 647.153 213.088 643.281 210.507C639.447 207.887 635.104 206.576 630.254 206.576C626.343 206.576 622.742 207.592 619.458 209.627C616.171 211.661 613.394 214.516 611.125 218.194V208.219H603.379V266.893H611.125V235.444C611.125 231.571 611.927 228.01 613.531 224.765C615.134 221.478 617.324 218.878 620.102 216.962C622.879 215.045 625.95 214.087 629.315 214.087C632.717 214.087 635.848 215.045 638.704 216.962C641.559 218.878 643.808 221.478 645.452 224.765C647.094 228.01 647.915 231.571 647.915 235.444ZM722.165 266.893H729.912V208.219H722.165V219.366C720.053 215.416 717.179 212.307 713.541 210.037C709.903 207.729 705.697 206.576 700.924 206.576C695.33 206.576 690.167 207.965 685.434 210.741C680.739 213.519 677.004 217.274 674.227 222.007C671.449 226.741 670.06 231.923 670.06 237.557C670.06 243.149 671.449 248.312 674.227 253.046C677.004 257.741 680.739 261.475 685.434 264.253C690.167 267.029 695.33 268.419 700.924 268.419C705.697 268.419 709.903 267.284 713.541 265.016C717.179 262.709 720.053 259.58 722.165 255.628V266.893ZM711.838 257.8C708.748 259.872 705.13 260.908 700.983 260.908C696.915 260.908 693.101 259.872 689.541 257.8C686.021 255.687 683.204 252.85 681.092 249.291C678.979 245.731 677.922 241.82 677.922 237.557C677.922 233.332 678.961 229.42 681.033 225.82C683.106 222.223 685.903 219.386 689.423 217.312C692.943 215.2 696.798 214.143 700.983 214.143C705.091 214.143 708.69 215.181 711.779 217.253C714.91 219.288 717.315 222.086 718.996 225.644C720.68 229.204 721.521 233.174 721.521 237.557C721.521 241.859 720.68 245.79 718.996 249.349C717.354 252.909 714.967 255.725 711.838 257.8Z" fill="white"/>
<path d="M370.349 208.216H370.654V207.911H370.349V208.216ZM370.349 217.604H370.045V218.68L370.61 217.762L370.349 217.604ZM377.332 209.624L377.155 209.377L377.332 209.624ZM398.808 210.62L398.633 210.871L398.634 210.872L398.808 210.62ZM407.199 220.89L406.924 221.021L407.2 221.599L407.475 221.019L407.199 220.89ZM415.59 210.62L415.762 210.873L415.763 210.872L415.59 210.62ZM440.527 210.797L440.352 211.046L440.355 211.049L440.527 210.797ZM448.859 220.947L448.581 221.074L448.583 221.077L448.859 220.947ZM451.794 266.89V267.196H452.099V266.89H451.794ZM444.048 266.89H443.743V267.196H444.048V266.89ZM442.112 224.703L441.83 224.82L441.832 224.821L442.112 224.703ZM436.537 217.427L436.356 217.672L436.357 217.675L436.537 217.427ZM419.111 217.427L418.937 217.179H418.934L419.111 217.427ZM413.183 224.762L413.461 224.89V224.889L413.183 224.762ZM411.072 266.89V267.196H411.377V266.89H411.072ZM403.326 266.89H403.021V267.196H403.326V266.89ZM401.214 224.762L400.936 224.889L400.938 224.89L401.214 224.762ZM395.229 217.427L395.052 217.676L395.055 217.678L395.229 217.427ZM378.153 217.663L378.342 217.903L378.343 217.902L378.153 217.663ZM372.403 225.408L372.683 225.527L372.685 225.526L372.403 225.408ZM370.349 266.89V267.196H370.654V266.89H370.349ZM362.605 266.89H362.3V267.196H362.605V266.89ZM362.605 208.216V207.911H362.3V208.216H362.605ZM370.045 208.216V217.604H370.654V208.216H370.045ZM370.61 217.762C372.787 214.225 375.089 211.601 377.509 209.873L377.155 209.377C374.648 211.167 372.295 213.861 370.091 217.443L370.61 217.762ZM377.509 209.873C379.913 208.156 382.88 207.287 386.427 207.287V206.679C382.778 206.679 379.68 207.572 377.155 209.377L377.509 209.873ZM386.427 207.287C391.185 207.287 395.249 208.487 398.633 210.871L398.984 210.373C395.484 207.906 391.292 206.679 386.427 206.679V207.287ZM398.634 210.872C402.066 213.262 404.83 216.641 406.924 221.021L407.475 220.758C405.342 216.297 402.514 212.832 398.982 210.372L398.634 210.872ZM407.475 221.019C409.568 216.601 412.332 213.224 415.762 210.873L415.418 210.37C411.885 212.792 409.055 216.26 406.924 220.759L407.475 221.019ZM415.763 210.872C419.227 208.487 423.292 207.287 427.971 207.287V206.679C423.183 206.679 418.994 207.906 415.416 210.37L415.763 210.872ZM427.971 207.287C432.686 207.287 436.809 208.544 440.352 211.046L440.703 210.547C437.049 207.966 432.8 206.679 427.971 206.679V207.287ZM440.355 211.049C443.944 213.518 446.686 216.857 448.581 221.074L449.138 220.822C447.2 216.513 444.387 213.082 440.7 210.546L440.355 211.049ZM448.583 221.077C450.518 225.257 451.489 229.867 451.489 234.914H452.099C452.099 229.788 451.112 225.089 449.137 220.819L448.583 221.077ZM451.489 234.914V266.89H452.099V234.914H451.489ZM451.794 266.585H444.048V267.196H451.794V266.585ZM444.352 266.89V234.914H443.743V266.89H444.352ZM444.352 234.914C444.352 231.124 443.701 227.677 442.393 224.584L441.832 224.821C443.104 227.832 443.743 231.193 443.743 234.914H444.352ZM442.394 224.588C441.123 221.488 439.23 219.018 436.717 217.182L436.357 217.675C438.773 219.436 440.598 221.816 441.83 224.82L442.394 224.588ZM436.72 217.183C434.236 215.341 431.316 214.424 427.971 214.424V215.033C431.197 215.033 433.988 215.915 436.356 217.672L436.72 217.183ZM427.971 214.424C424.586 214.424 421.572 215.341 418.937 217.179L419.285 217.678C421.813 215.916 424.704 215.033 427.971 215.033V214.424ZM418.934 217.179C416.344 219.012 414.335 221.501 412.907 224.636L413.461 224.889C414.85 221.843 416.791 219.442 419.286 217.676L418.934 217.179ZM412.907 224.634C411.479 227.73 410.768 231.158 410.768 234.914H411.377C411.377 231.236 412.073 227.897 413.461 224.89L412.907 224.634ZM410.768 234.914V266.89H411.377V234.914H410.768ZM411.072 266.585H403.326V267.196H411.072V266.585ZM403.631 266.89V234.914H403.021V266.89H403.631ZM403.631 234.914C403.631 231.158 402.919 227.73 401.491 224.634L400.938 224.89C402.325 227.897 403.021 231.236 403.021 234.914H403.631ZM401.491 224.636C400.062 221.5 398.033 219.011 395.403 217.179L395.055 217.678C397.589 219.443 399.549 221.845 400.936 224.889L401.491 224.636ZM395.404 217.179C392.807 215.341 389.811 214.424 386.427 214.424V215.033C389.694 215.033 392.566 215.916 395.052 217.676L395.404 217.179ZM386.427 214.424C383.305 214.424 380.481 215.427 377.965 217.423L378.343 217.902C380.756 215.987 383.448 215.033 386.427 215.033V214.424ZM377.966 217.422C375.456 219.374 373.51 222 372.122 225.288L372.685 225.526C374.036 222.321 375.923 219.783 378.342 217.903L377.966 217.422ZM372.122 225.287C370.738 228.535 370.045 232.018 370.045 235.733H370.654C370.654 232.096 371.332 228.695 372.683 225.527L372.122 225.287ZM370.045 235.733V266.89H370.654V235.733H370.045ZM370.349 266.585H362.605V267.196H370.349V266.585ZM362.909 266.89V208.216H362.3V266.89H362.909ZM362.605 208.521H370.349V207.911H362.605V208.521ZM525.587 266.89V267.196H525.893V266.89H525.587ZM517.842 266.89H517.537V267.196H517.842V266.89ZM517.842 255.625H518.148L517.573 255.48L517.842 255.625ZM509.217 265.014L509.38 265.271H509.381L509.217 265.014ZM481.111 264.25L480.956 264.513H480.957L481.111 264.25ZM469.904 253.043L469.64 253.197L469.642 253.198L469.904 253.043ZM469.904 222.004L469.64 221.849L469.904 222.004ZM481.111 210.738L480.957 210.477H480.956L481.111 210.738ZM509.217 210.034L509.053 210.291L509.056 210.294L509.217 210.034ZM517.842 219.363L517.573 219.508L518.148 219.363H517.842ZM517.842 208.216V207.911H517.537V208.216H517.842ZM525.587 208.216H525.893V207.911H525.587V208.216ZM507.515 257.797L507.348 257.542H507.346L507.515 257.797ZM514.674 249.346L514.398 249.217L514.397 249.22L514.674 249.346ZM514.674 225.641L514.398 225.772L514.674 225.641ZM507.457 217.252L507.287 217.504L507.29 217.507L507.457 217.252ZM485.101 217.31L485.255 217.573H485.258L485.101 217.31ZM476.711 225.818L476.446 225.665L476.711 225.818ZM476.768 249.289L477.031 249.133L476.768 249.289ZM485.218 257.797L485.061 258.057L485.065 258.058L485.218 257.797ZM525.587 266.585H517.842V267.196H525.587V266.585ZM518.148 266.89V255.625H517.537V266.89H518.148ZM517.573 255.48C515.485 259.387 512.645 262.477 509.053 264.756L509.381 265.271C513.065 262.933 515.976 259.764 518.111 255.768L517.573 255.48ZM509.056 264.755C505.473 266.989 501.324 268.111 496.602 268.111V268.722C501.425 268.722 505.687 267.574 509.38 265.271L509.056 264.755ZM496.602 268.111C491.062 268.111 485.951 266.736 481.265 263.987L480.957 264.513C485.738 267.319 490.955 268.722 496.602 268.722V268.111ZM481.266 263.988C476.616 261.238 472.917 257.538 470.165 252.889L469.642 253.198C472.444 257.936 476.218 261.709 480.956 264.513L481.266 263.988ZM470.167 252.889C467.417 248.203 466.043 243.094 466.043 237.554H465.433C465.433 243.201 466.835 248.416 469.64 253.197L470.167 252.889ZM466.043 237.554C466.043 231.973 467.417 226.843 470.167 222.16L469.64 221.849C466.835 226.631 465.433 231.868 465.433 237.554H466.043ZM470.167 222.16C472.917 217.469 476.617 213.752 481.266 211L480.956 210.477C476.216 213.279 472.444 217.074 469.64 221.849L470.167 222.16ZM481.265 211.001C485.951 208.252 491.062 206.878 496.602 206.878V206.268C490.955 206.268 485.738 207.671 480.957 210.477L481.265 211.001ZM496.602 206.878C501.323 206.878 505.47 208.019 509.053 210.291L509.381 209.776C505.688 207.435 501.426 206.268 496.602 206.268V206.878ZM509.056 210.294C512.647 212.533 515.485 215.601 517.573 219.508L518.111 219.221C515.976 215.225 513.064 212.076 509.38 209.775L509.056 210.294ZM518.148 219.363V208.216H517.537V219.363H518.148ZM517.842 208.521H525.587V207.911H517.842V208.521ZM525.284 208.216V266.89H525.893V208.216H525.284ZM496.661 261.21C500.86 261.21 504.54 260.159 507.684 258.05L507.346 257.542C504.311 259.578 500.753 260.602 496.661 260.602V261.21ZM507.683 258.051C510.862 255.945 513.285 253.083 514.952 249.474L514.397 249.22C512.778 252.73 510.428 255.502 507.348 257.542L507.683 258.051ZM514.95 249.477C516.651 245.874 517.503 241.896 517.503 237.554H516.892C516.892 241.816 516.059 245.702 514.398 249.217L514.95 249.477ZM517.503 237.554C517.503 233.132 516.654 229.118 514.95 225.513L514.398 225.772C516.059 229.287 516.892 233.211 516.892 237.554H517.503ZM514.95 225.513C513.245 221.904 510.803 219.064 507.623 216.996L507.29 217.507C510.37 219.508 512.739 222.26 514.398 225.772L514.95 225.513ZM507.625 216.999C504.481 214.888 500.822 213.837 496.661 213.837V214.447C500.713 214.447 504.252 215.468 507.287 217.504L507.625 216.999ZM496.661 213.837C492.42 213.837 488.514 214.907 484.945 217.049L485.258 217.573C488.731 215.489 492.528 214.447 496.661 214.447V213.837ZM484.946 217.048C481.38 219.147 478.546 222.023 476.446 225.665L476.974 225.97C479.022 222.417 481.781 219.619 485.255 217.573L484.946 217.048ZM476.446 225.665C474.345 229.312 473.296 233.276 473.296 237.554H473.905C473.905 233.381 474.928 229.523 476.974 225.97L476.446 225.665ZM473.296 237.554C473.296 241.87 474.365 245.835 476.507 249.442L477.031 249.133C474.948 245.621 473.905 241.764 473.905 237.554H473.296ZM476.507 249.442C478.645 253.046 481.498 255.919 485.061 258.057L485.374 257.534C481.898 255.449 479.118 252.649 477.031 249.133L476.507 249.442ZM485.065 258.058C488.67 260.159 492.538 261.21 496.661 261.21V260.602C492.646 260.602 488.886 259.58 485.372 257.532L485.065 258.058ZM546.824 178.879V178.574H546.521V178.879H546.824ZM554.572 178.879H554.875V178.574H554.572V178.879ZM554.572 266.831V267.137H554.875V266.831H554.572ZM546.824 266.831H546.521V267.137H546.824V266.831ZM546.824 179.182H554.572V178.574H546.824V179.182ZM554.266 178.879V266.831H554.875V178.879H554.266ZM554.572 266.526H546.824V267.137H554.572V266.526ZM547.13 266.831V178.879H546.521V266.831H547.13ZM577.048 196.891L576.827 197.103L576.831 197.107L577.048 196.891ZM577.048 190.613L576.831 190.398L576.827 190.403L577.048 190.613ZM583.386 190.613L583.168 190.829L583.386 190.613ZM583.386 196.891L583.168 196.676L583.386 196.891ZM583.795 208.216H584.1V207.911H583.795V208.216ZM583.795 266.89V267.196H584.1V266.89H583.795ZM576.051 266.89H575.744V267.196H576.051V266.89ZM576.051 208.216V207.911H575.744V208.216H576.051ZM580.216 197.937C579.089 197.937 578.108 197.521 577.263 196.676L576.831 197.107C577.786 198.06 578.919 198.545 580.216 198.545V197.937ZM577.267 196.681C576.459 195.834 576.061 194.872 576.061 193.782H575.452C575.452 195.039 575.917 196.149 576.827 197.103L577.267 196.681ZM576.061 193.782C576.061 192.651 576.46 191.669 577.267 190.825L576.827 190.403C575.914 191.357 575.452 192.488 575.452 193.782H576.061ZM577.263 190.829C578.108 189.984 579.089 189.568 580.216 189.568V188.958C578.919 188.958 577.786 189.444 576.831 190.398L577.263 190.829ZM580.216 189.568C581.344 189.568 582.323 189.984 583.168 190.829L583.6 190.398C582.646 189.444 581.515 188.958 580.216 188.958V189.568ZM583.168 190.829C584.014 191.675 584.43 192.654 584.43 193.782H585.039C585.039 192.484 584.555 191.352 583.6 190.398L583.168 190.829ZM584.43 193.782C584.43 194.867 584.018 195.827 583.168 196.676L583.6 197.107C584.552 196.155 585.039 195.044 585.039 193.782H584.43ZM583.168 196.676C582.323 197.521 581.344 197.937 580.216 197.937V198.545C581.515 198.545 582.646 198.06 583.6 197.107L583.168 196.676ZM583.491 208.216V266.89H584.1V208.216H583.491ZM583.795 266.585H576.051V267.196H583.795V266.585ZM576.355 266.89V208.216H575.744V266.89H576.355ZM576.051 208.521H583.795V207.911H576.051V208.521ZM647.907 266.89H647.602V267.196H647.907V266.89ZM645.443 224.762L645.17 224.897V224.899L645.443 224.762ZM638.695 216.959L638.525 217.212L638.695 216.959ZM620.095 216.959L620.268 217.209L620.095 216.959ZM613.522 224.762L613.795 224.897V224.896L613.522 224.762ZM611.117 266.89V267.196H611.421V266.89H611.117ZM603.372 266.89H603.067V267.196H603.372V266.89ZM603.372 208.216V207.911H603.067V208.216H603.372ZM611.117 208.216H611.421V207.911H611.117V208.216ZM611.117 218.191H610.813V219.265L611.377 218.351L611.117 218.191ZM619.449 209.624L619.288 209.365L619.449 209.624ZM643.272 210.505L643.1 210.756L643.102 210.757L643.272 210.505ZM652.308 220.947L652.035 221.083L652.308 220.947ZM655.653 235.206H655.958V235.201L655.653 235.206ZM655.653 266.89V267.196H655.958V266.89H655.653ZM648.213 266.89V235.442H647.602V266.89H648.213ZM648.213 235.442C648.213 231.523 647.382 227.916 645.715 224.624L645.17 224.899C646.792 228.101 647.602 231.612 647.602 235.442H648.213ZM645.715 224.626C644.051 221.297 641.768 218.653 638.865 216.704L638.525 217.212C641.334 219.097 643.55 221.656 645.17 224.897L645.715 224.626ZM638.865 216.704C635.96 214.754 632.772 213.778 629.307 213.778V214.388C632.65 214.388 635.72 215.328 638.525 217.212L638.865 216.704ZM629.307 213.778C625.88 213.778 622.75 214.756 619.921 216.708L620.268 217.209C622.994 215.327 626.004 214.388 629.307 214.388V213.778ZM619.921 216.708C617.097 218.657 614.874 221.3 613.249 224.628L613.795 224.896C615.379 221.652 617.537 219.094 620.268 217.209L619.921 216.708ZM613.249 224.627C611.624 227.918 610.813 231.525 610.813 235.442H611.421C611.421 231.612 612.215 228.098 613.795 224.897L613.249 224.627ZM610.813 235.442V266.89H611.421V235.442H610.813ZM611.117 266.585H603.372V267.196H611.117V266.585ZM603.677 266.89V208.216H603.067V266.89H603.677ZM603.372 208.521H611.117V207.911H603.372V208.521ZM610.813 208.216V218.191H611.421V208.216H610.813ZM611.377 218.351C613.623 214.708 616.368 211.889 619.611 209.883L619.288 209.365C615.958 211.427 613.148 214.317 610.858 218.03L611.377 218.351ZM619.611 209.883C622.846 207.88 626.391 206.878 630.246 206.878V206.268C626.277 206.268 622.623 207.3 619.288 209.365L619.611 209.883ZM630.246 206.878C635.038 206.878 639.319 208.172 643.1 210.756L643.445 210.252C639.556 207.595 635.153 206.268 630.246 206.268V206.878ZM643.102 210.757C646.929 213.308 649.905 216.747 652.035 221.083L652.581 220.812C650.407 216.386 647.36 212.864 643.442 210.251L643.102 210.757ZM652.035 221.083C654.165 225.421 655.27 230.13 655.348 235.21L655.958 235.201C655.879 230.034 654.754 225.238 652.581 220.812L652.035 221.083ZM655.348 235.206V266.89H655.958V235.206H655.348ZM655.653 266.585H647.907V267.196H655.653V266.585ZM729.903 266.89V267.196H730.208V266.89H729.903ZM722.158 266.89H721.854V267.196H722.158V266.89ZM722.158 255.625H722.463L721.889 255.48L722.158 255.625ZM713.532 265.014L713.693 265.271H713.696L713.532 265.014ZM685.426 264.25L685.27 264.513H685.272L685.426 264.25ZM674.22 253.043L673.955 253.197V253.198L674.22 253.043ZM674.22 222.004L673.955 221.849L674.22 222.004ZM685.426 210.738L685.272 210.477H685.27L685.426 210.738ZM713.532 210.034L713.368 210.291L713.371 210.294L713.532 210.034ZM722.158 219.363L721.889 219.508L722.463 219.363H722.158ZM722.158 208.216V207.911H721.854V208.216H722.158ZM729.903 208.216H730.208V207.911H729.903V208.216ZM711.83 257.797L711.661 257.542H711.66L711.83 257.797ZM718.989 249.346L718.714 249.217L718.712 249.22L718.989 249.346ZM718.989 225.641L718.714 225.772L718.989 225.641ZM711.772 217.252L711.601 217.504L711.607 217.507L711.772 217.252ZM689.415 217.31L689.571 217.573H689.573L689.415 217.31ZM681.026 225.818L680.761 225.665L681.026 225.818ZM681.083 249.289L681.346 249.133L681.083 249.289ZM689.533 257.797L689.377 258.057L689.38 258.058L689.533 257.797ZM729.903 266.585H722.158V267.196H729.903V266.585ZM722.463 266.89V255.625H721.854V266.89H722.463ZM721.889 255.48C719.802 259.387 716.96 262.477 713.368 264.756L713.696 265.271C717.38 262.933 720.29 259.764 722.427 255.768L721.889 255.48ZM713.371 264.755C709.786 266.989 705.638 268.111 700.915 268.111V268.722C705.74 268.722 710.002 267.574 713.693 265.271L713.371 264.755ZM700.915 268.111C695.375 268.111 690.266 266.736 685.58 263.987L685.272 264.513C690.053 267.319 695.269 268.722 700.915 268.722V268.111ZM685.581 263.988C680.931 261.238 677.232 257.538 674.482 252.889L673.955 253.198C676.759 257.936 680.532 261.709 685.27 264.513L685.581 263.988ZM674.482 252.889C671.732 248.203 670.357 243.094 670.357 237.554H669.748C669.748 243.201 671.15 248.416 673.955 253.197L674.482 252.889ZM670.357 237.554C670.357 231.973 671.732 226.843 674.482 222.16L673.955 221.849C671.15 226.631 669.748 231.868 669.748 237.554H670.357ZM674.482 222.16C677.232 217.469 680.931 213.752 685.581 211L685.27 210.477C680.532 213.279 676.759 217.074 673.955 221.849L674.482 222.16ZM685.58 211.001C690.266 208.252 695.375 206.878 700.915 206.878V206.268C695.269 206.268 690.053 207.671 685.272 210.477L685.58 211.001ZM700.915 206.878C705.638 206.878 709.785 208.019 713.368 210.291L713.696 209.776C710.003 207.435 705.74 206.268 700.915 206.268V206.878ZM713.371 210.294C716.96 212.533 719.802 215.601 721.889 219.508L722.427 219.221C720.29 215.225 717.379 212.076 713.693 209.775L713.371 210.294ZM722.463 219.363V208.216H721.854V219.363H722.463ZM722.158 208.521H729.903V207.911H722.158V208.521ZM729.598 208.216V266.89H730.208V208.216H729.598ZM700.974 261.21C705.176 261.21 708.853 260.159 712.001 258.05L711.66 257.542C708.626 259.578 705.07 260.602 700.974 260.602V261.21ZM711.999 258.051C715.177 255.945 717.6 253.083 719.265 249.474L718.712 249.22C717.092 252.73 714.741 255.502 711.661 257.542L711.999 258.051ZM719.265 249.477C720.968 245.874 721.816 241.896 721.816 237.554H721.208C721.208 241.816 720.375 245.702 718.714 249.217L719.265 249.477ZM721.816 237.554C721.816 233.132 720.968 229.118 719.265 225.513L718.714 225.772C720.375 229.287 721.208 233.211 721.208 237.554H721.816ZM719.265 225.513C717.56 221.904 715.117 219.064 711.939 216.996L711.607 217.507C714.685 219.508 717.055 222.26 718.714 225.772L719.265 225.513ZM711.942 216.999C708.795 214.888 705.136 213.837 700.974 213.837V214.447C705.029 214.447 708.567 215.468 711.601 217.504L711.942 216.999ZM700.974 213.837C696.735 213.837 692.828 214.907 689.259 217.049L689.573 217.573C693.046 215.489 696.845 214.447 700.974 214.447V213.837ZM689.261 217.048C685.695 219.147 682.86 222.023 680.761 225.665L681.289 225.97C683.336 222.417 686.097 219.619 689.571 217.573L689.261 217.048ZM680.761 225.665C678.66 229.312 677.61 233.276 677.61 237.554H678.22C678.22 233.381 679.244 229.523 681.289 225.97L680.761 225.665ZM677.61 237.554C677.61 241.87 678.68 245.835 680.821 249.442L681.346 249.133C679.263 245.621 678.22 241.764 678.22 237.554H677.61ZM680.821 249.442C682.96 253.046 685.813 255.919 689.377 258.057L689.691 257.534C686.212 255.449 683.433 252.649 681.346 249.133L680.821 249.442ZM689.38 258.058C692.985 260.159 696.852 261.21 700.974 261.21V260.602C696.961 260.602 693.201 259.58 689.686 257.532L689.38 258.058Z" fill="white"/>
<path d="M389.781 361.218C389.781 362.064 389.465 362.8 388.832 363.434C388.199 363.996 387.462 364.277 386.618 364.277H346.746C346.746 368.495 347.59 372.294 349.278 375.669C351.035 378.972 353.497 381.611 356.661 383.581C359.896 385.479 363.694 386.428 368.054 386.428C371.428 386.428 374.453 385.724 377.124 384.317C379.796 382.912 381.941 381.117 383.558 378.938C384.331 378.305 385.07 377.988 385.774 377.988C386.477 377.988 387.109 378.27 387.672 378.831C388.235 379.396 388.516 380.027 388.516 380.731C388.516 381.504 388.165 382.243 387.462 382.946C385.211 385.687 382.363 387.939 378.917 389.696C375.542 391.455 371.956 392.335 368.159 392.335C362.743 392.335 357.962 391.173 353.814 388.853C349.665 386.533 346.43 383.299 344.109 379.15C341.789 374.929 340.629 370.077 340.629 364.593C340.629 358.826 341.753 353.8 344.004 349.509C346.325 345.151 349.383 341.845 353.181 339.595C356.977 337.274 361.021 336.117 365.31 336.117C369.53 336.117 373.468 337.1 377.124 339.067C380.851 341.037 383.875 343.922 386.195 347.718C388.516 351.514 389.711 356.016 389.781 361.218ZM365.31 342.232C361.232 342.232 357.434 343.638 353.919 346.451C350.473 349.263 348.259 353.307 347.274 358.583H383.243V357.737C382.89 354.574 381.835 351.83 380.078 349.509C378.319 347.118 376.105 345.326 373.433 344.13C370.83 342.866 368.123 342.232 365.31 342.232ZM426.137 336.117C429.441 336.117 432.5 336.501 435.314 337.274C438.196 337.977 440.482 338.964 442.17 340.228C443.927 341.496 444.806 342.866 444.806 344.343C444.806 345.115 444.526 345.82 443.963 346.451C443.47 347.084 442.837 347.4 442.064 347.4C441.361 347.4 440.762 347.259 440.271 346.979C439.849 346.697 439.358 346.275 438.794 345.713C437.881 344.799 437.001 344.13 436.157 343.709C435.103 343.216 433.696 342.829 431.938 342.548C430.251 342.198 428.422 342.021 426.453 342.021C422.585 342.021 419.035 343.007 415.8 344.974C412.635 346.944 410.14 349.616 408.311 352.99C406.483 356.365 405.568 360.094 405.568 364.17C405.568 368.392 406.447 372.188 408.206 375.563C409.963 378.938 412.389 381.611 415.483 383.581C418.648 385.479 422.234 386.428 426.242 386.428C428.774 386.428 430.777 386.215 432.254 385.793C433.801 385.372 435.314 384.775 436.791 384.002C437.283 383.72 438.127 383.087 439.322 382.104C439.884 381.611 440.376 381.258 440.798 381.048C441.22 380.767 441.677 380.627 442.17 380.627C443.013 380.627 443.681 380.907 444.173 381.47C444.666 381.963 444.912 382.63 444.912 383.474C444.912 384.669 444.068 385.969 442.38 387.377C440.693 388.712 438.373 389.871 435.419 390.858C432.465 391.841 429.195 392.335 425.609 392.335C420.476 392.335 415.906 391.138 411.897 388.747C407.889 386.287 404.76 382.912 402.51 378.623C400.33 374.333 399.24 369.515 399.24 364.17C399.24 359.038 400.364 354.362 402.615 350.143C404.865 345.854 408.029 342.445 412.108 339.913C416.186 337.381 420.863 336.117 426.137 336.117ZM506.795 364.277C506.795 369.549 505.633 374.333 503.314 378.623C500.993 382.912 497.793 386.287 493.714 388.747C489.636 391.138 485.099 392.335 480.106 392.335C475.115 392.335 470.578 391.138 466.5 388.747C462.422 386.287 459.223 382.912 456.902 378.623C454.581 374.333 453.421 369.549 453.421 364.277C453.421 359.004 454.581 354.221 456.902 349.932C459.223 345.641 462.422 342.267 466.5 339.806C470.578 337.346 475.115 336.117 480.106 336.117C485.099 336.117 489.636 337.346 493.714 339.806C497.793 342.267 500.993 345.641 503.314 349.932C505.633 354.221 506.795 359.004 506.795 364.277ZM500.466 364.277C500.466 360.059 499.585 356.26 497.828 352.886C496.071 349.509 493.61 346.875 490.444 344.974C487.349 343.007 483.905 342.021 480.106 342.021C476.31 342.021 472.863 343.007 469.77 344.974C466.676 346.875 464.216 349.509 462.386 352.886C460.629 356.26 459.751 360.059 459.751 364.277C459.751 368.426 460.629 372.188 462.386 375.563C464.216 378.938 466.676 381.611 469.77 383.581C472.863 385.479 476.31 386.428 480.106 386.428C483.905 386.428 487.349 385.479 490.444 383.581C493.61 381.681 496.071 379.044 497.828 375.669C499.585 372.294 500.466 368.495 500.466 364.277ZM567.356 319.238C565.107 319.238 563.347 319.976 562.083 321.453C560.886 322.93 560.29 324.971 560.29 327.571V338.436H572.104C572.876 338.436 573.543 338.716 574.106 339.279C574.74 339.841 575.057 340.544 575.057 341.389C575.057 342.232 574.74 342.935 574.106 343.497C573.543 344.061 572.876 344.343 572.104 344.343H560.29V388.114C560.29 389.029 559.972 389.802 559.341 390.436C558.775 390.997 558.039 391.279 557.125 391.279C556.21 391.279 555.438 390.997 554.804 390.436C554.242 389.802 553.961 389.029 553.961 388.114V344.343H546.259C545.417 344.343 544.714 344.061 544.151 343.497C543.588 342.866 543.306 342.163 543.306 341.389C543.306 340.475 543.588 339.772 544.151 339.279C544.714 338.716 545.417 338.436 546.259 338.436H553.961V327.571C553.961 323.141 555.227 319.732 557.757 317.34C560.359 314.88 563.805 313.648 568.095 313.648C570.062 313.648 571.891 313.966 573.581 314.597C575.267 315.162 576.11 316.111 576.11 317.447C576.11 318.289 575.83 318.993 575.267 319.555C574.705 320.117 574.071 320.4 573.368 320.4C572.735 320.4 571.963 320.222 571.048 319.873C569.5 319.451 568.27 319.238 567.356 319.238ZM635.552 364.277C635.552 369.549 634.393 374.333 632.071 378.623C629.752 382.912 626.551 386.287 622.473 388.747C618.396 391.138 613.859 392.335 608.867 392.335C603.874 392.335 599.339 391.138 595.261 388.747C591.181 386.287 587.98 382.912 585.661 378.623C583.342 374.333 582.18 369.549 582.18 364.277C582.18 359.004 583.342 354.221 585.661 349.932C587.98 345.641 591.181 342.267 595.261 339.806C599.339 337.346 603.874 336.117 608.867 336.117C613.859 336.117 618.396 337.346 622.473 339.806C626.551 342.267 629.752 345.641 632.071 349.932C634.393 354.221 635.552 359.004 635.552 364.277ZM629.224 364.277C629.224 360.059 628.345 356.26 626.588 352.886C624.828 349.509 622.368 346.875 619.204 344.974C616.11 343.007 612.664 342.021 608.867 342.021C605.068 342.021 601.624 343.007 598.529 344.974C595.436 346.875 592.973 349.509 591.147 352.886C589.388 356.26 588.508 360.059 588.508 364.277C588.508 368.426 589.388 372.188 591.147 375.563C592.973 378.938 595.436 381.611 598.529 383.581C601.624 385.479 605.068 386.428 608.867 386.428C612.664 386.428 616.11 385.479 619.204 383.581C622.368 381.681 624.828 379.044 626.588 375.669C628.345 372.294 629.224 368.495 629.224 364.277ZM698.285 364.277C698.285 369.549 697.124 374.333 694.805 378.623C692.482 382.912 689.284 386.287 685.203 388.747C681.127 391.138 676.59 392.335 671.598 392.335C666.605 392.335 662.07 391.138 657.992 388.747C653.912 386.287 650.714 382.912 648.392 378.623C646.071 374.333 644.91 369.549 644.91 364.277C644.91 359.004 646.071 354.221 648.392 349.932C650.714 345.641 653.912 342.267 657.992 339.806C662.07 337.346 666.605 336.117 671.598 336.117C676.59 336.117 681.127 337.346 685.203 339.806C689.284 342.267 692.482 345.641 694.805 349.932C697.124 354.221 698.285 359.004 698.285 364.277ZM691.955 364.277C691.955 360.059 691.076 356.26 689.319 352.886C687.56 349.509 685.099 346.875 681.935 344.974C678.841 343.007 675.395 342.021 671.598 342.021C667.801 342.021 664.355 343.007 661.26 344.974C658.167 346.875 655.707 349.509 653.878 352.886C652.119 356.26 651.242 360.059 651.242 364.277C651.242 368.426 652.119 372.188 653.878 375.563C655.707 378.938 658.167 381.611 661.26 383.581C664.355 385.479 667.801 386.428 671.598 386.428C675.395 386.428 678.841 385.479 681.935 383.581C685.099 381.681 687.56 379.044 689.319 375.669C691.076 372.294 691.955 368.495 691.955 364.277ZM755.003 313.227C755.918 313.227 756.655 313.544 757.216 314.176C757.85 314.738 758.168 315.477 758.168 316.391V388.114C758.168 389.029 757.85 389.802 757.216 390.436C756.655 390.997 755.918 391.279 755.003 391.279C754.089 391.279 753.314 390.997 752.684 390.436C752.122 389.802 751.837 389.029 751.837 388.114V380.731C750.08 383.967 747.444 386.708 743.928 388.96C740.483 391.207 736.649 392.335 732.43 392.335C727.79 392.335 723.57 391.138 719.773 388.747C716.046 386.287 713.093 382.912 710.913 378.623C708.733 374.333 707.644 369.515 707.644 364.17C707.644 358.897 708.733 354.115 710.913 349.829C713.093 345.538 716.046 342.198 719.773 339.806C723.57 337.346 727.754 336.117 732.324 336.117C736.474 336.117 740.307 337.169 743.823 339.279C747.339 341.318 750.011 343.991 751.837 347.296V316.391C751.837 315.477 752.122 314.738 752.684 314.176C753.314 313.544 754.089 313.227 755.003 313.227ZM733.064 386.428C736.72 386.428 739.99 385.479 742.874 383.581C745.828 381.681 748.113 379.044 749.73 375.669C751.416 372.222 752.261 368.392 752.261 364.17C752.261 360.022 751.416 356.26 749.73 352.886C748.113 349.509 745.828 346.875 742.874 344.974C739.99 343.007 736.72 342.021 733.064 342.021C729.408 342.021 726.102 343.007 723.148 344.974C720.267 346.875 717.98 349.509 716.292 352.886C714.674 356.26 713.866 360.022 713.866 364.17C713.866 368.392 714.674 372.188 716.292 375.563C717.98 378.938 720.267 381.611 723.148 383.581C726.102 385.479 729.408 386.428 733.064 386.428Z" fill="white"/>
</svg>
