<svg id="_1" data-name="1" xmlns="http://www.w3.org/2000/svg" viewBox="0 0 617.63 453.89"><defs><style>.cls-1,.cls-2{fill:#fff;}.cls-1{fill-rule:evenodd;}</style></defs><title>SIXBOX_Logo-white</title><path class="cls-1" d="M77.1,171.56c0,40.92,44,46.44,44,75.9,0,10.23-4.5,13.91-11.66,13.91s-11.66-3.68-11.66-13.91V237.23H76.49V246c0,22.91,11.46,36,33.55,36s33.55-13.1,33.55-36c0-40.92-44-46.44-44-75.9,0-10.23,4.09-14.12,11.25-14.12s11.25,3.89,11.25,14.12v5.93h21.28v-4.5c0-22.91-11.25-36-33.14-36s-33.15,13.1-33.15,36ZM156.48,280.4H179V137.19H156.48V280.4Zm93.09-143.21L232.18,190l-17-52.78H191.87l23.53,69.56L190.24,280.4h21.07l18.62-56.67,18.41,56.67h23.73l-25.16-73.65,23.52-69.56Zm99.43,0H315V280.4h35.4c22.5,0,34.16-11.87,34.16-34V234.78c0-15.14-4.7-26-16.77-30.69,10-4.71,14.52-14.12,14.52-28.85v-5.11c0-22.1-10-32.94-33.34-32.94ZM347.56,216c10.23,0,14.53,4.09,14.53,17.39v12.47c0,10.64-4.09,14.12-11.66,14.12H337.54V216Zm.82-58.31c8,0,11.46,4.5,11.46,14.73v8c0,11.45-5.12,15.14-13.5,15.14h-8.8V157.65Zm70.38,12.48c0-10.23,4.5-14.12,11.66-14.12s11.66,3.89,11.66,14.12v77.33c0,10.23-4.5,14.12-11.66,14.12s-11.66-3.89-11.66-14.12V170.13ZM396.25,246c0,22.91,12.07,36,34.17,36s34.17-13.1,34.17-36V171.56c0-22.91-12.08-36-34.17-36s-34.17,13.1-34.17,36V246Zm134-108.84L512.87,190l-17-52.78H472.56l23.53,69.56L470.93,280.4H492l18.62-56.67L529,280.4h23.73L527.6,206.75l23.52-69.56Z" transform="translate(-5.81 -6.06)"/><path class="cls-1" d="M154.41,343.36l-2.5,9.48,10.19-1.18-2.28,3.69L151,356.52q-1,4.23-3.44,12.78-5.26,18.49-5.26,23.43l-5,2.59q0-6.74,5.8-26,3-9.65,3.68-12.39a19.85,19.85,0,0,1-5,.71q-4.47,0-4.47-3.53,0-1.95,3-4.7a45.39,45.39,0,0,1,10.26-7.05q4.63-15.76,6.67-19.76,2.74-5.4,5-6.89a13,13,0,0,1,7-2.12q3.6,0,5.09,2a7.14,7.14,0,0,1,1.34,4.78q-.41,9.87-21.25,23ZM167,320.23a6.88,6.88,0,0,0-6.51,4.24,42.9,42.9,0,0,0-2.9,7.91c-.84,3.09-1.44,5.2-1.8,6.35a63.36,63.36,0,0,0,9.25-7.21q4.94-4.54,5.09-7.92c.11-2.24-.94-3.37-3.13-3.37Zm-19.05,33,1.72-6.9a20.4,20.4,0,0,0-4.66,2.59c-1.12.89-1.69,1.65-1.69,2.27,0,1.36,1.55,2,4.63,2Zm32.45-12.3q-4.4,0-4.39-3.53a4.94,4.94,0,0,1,1.1-3.29,3.49,3.49,0,0,1,2.82-1.34,4,4,0,0,1,2.82,1,3.48,3.48,0,0,1,1.1,2.67,5.43,5.43,0,0,1-.94,3.05,2.89,2.89,0,0,1-2.51,1.42Zm-1,23.12q-3.76,4.23-5.88,4.23a2.57,2.57,0,0,1-1.88-.78,3.66,3.66,0,0,1-.78-2.63c0-1.23.79-4,2.39-8.35a74.84,74.84,0,0,1,4-9.48l-3.37-2c-.15.31-.7,1.36-1.64,3.14q-6.27,12.23-6.27,19.83,0,6.11,4.39,6.11,2.5,0,5.6-2.55a19.85,19.85,0,0,0,5-6.15l-1.57-1.33Zm24.38,1.33,1.72,2a15.13,15.13,0,0,1-4.74,4.78,10.56,10.56,0,0,1-5.61,1.73,6.1,6.1,0,0,1-4.46-1.61,5.9,5.9,0,0,1-1.65-4.43q0-6.58,4.94-18.18a53.85,53.85,0,0,0-8,1.88l-.55-3.06-.07-.08a45.72,45.72,0,0,1,10.26-2.66c.42-.79,1.36-2.69,2.83-5.73a101.44,101.44,0,0,1,6.27-11.67l3.37,1.33c-.53,1.15-1.44,3.07-2.75,5.76s-2.77,5.73-4.39,9.13c2.36-.16,4.21-.23,5.57-.23a6.35,6.35,0,0,1,3.13.62v3.37a16.77,16.77,0,0,0-3.17-.23,66.8,66.8,0,0,0-7.41.7q-4.62,10.35-4.62,15.05a4.1,4.1,0,0,0,1.14,3,4,4,0,0,0,3.05,1.18c1.28,0,3-.87,5.14-2.59Zm40.36-.71,1.65,1.26a16.79,16.79,0,0,1-4.74,5.8c-2,1.57-3.83,2.35-5.45,2.35a5.19,5.19,0,0,1-3.84-1.41,4.79,4.79,0,0,1-1.41-3.53q0-2.11,2.7-7.4t2.7-7.8a2.76,2.76,0,0,0-.9-2,2.94,2.94,0,0,0-2.15-.9q-4,0-8.08,6.07a118.29,118.29,0,0,0-9.09,17.52l-4.7-1.65A123.07,123.07,0,0,1,215,355.23c1.86-5.77,3.57-9.92,5.14-12.42l3.21,1a172.77,172.77,0,0,0-5.57,19.2q10.81-18.5,19.91-18.5a4.47,4.47,0,0,1,4.55,4.47,10.63,10.63,0,0,1-.47,3.25c-.32,1-1.3,3.21-2.94,6.74s-2.47,5.74-2.47,6.63a2.72,2.72,0,0,0,.78,2.07,2.26,2.26,0,0,0,1.49.75,2.58,2.58,0,0,0,1.18-.24,7.07,7.07,0,0,0,1.06-.7l1.06-.87c.31-.26.69-.61,1.13-1.05a11.6,11.6,0,0,1,1-.91Zm25.47.24,1.81,1.41a18.77,18.77,0,0,1-6.66,5.6,17.63,17.63,0,0,1-8.23,2.24,8.88,8.88,0,0,1-6.43-2.35,8.22,8.22,0,0,1-2.43-6.19q0-7.22,7.64-14.19t15.48-7q5.17,0,5.17,4.08,0,4.23-5.44,8.54t-15.33,7.84a5.92,5.92,0,0,0,2.2,2.82,5.33,5.33,0,0,0,3.05,1q3.38,0,9.17-3.84Zm-14.81-2.35a41.49,41.49,0,0,0,10.9-5.49q4.55-3.29,4.54-6a2.67,2.67,0,0,0-2.58-2.59q-3.69,0-8,4.59a17.19,17.19,0,0,0-4.9,9.52Zm46.48-19.05c-1-.42-3.25-.62-6.78-.62a15.88,15.88,0,0,0-8.54,2,6.54,6.54,0,0,0-3.26,5.88q0,2.11,3.41,7.37c2.28,3.5,3.41,5.89,3.41,7.17a4.28,4.28,0,0,1-1.33,3.21,4.32,4.32,0,0,1-3.13,1.3,4.88,4.88,0,0,1-3.3-1.33c-.41-.32-1-.88-1.88-1.69a30.91,30.91,0,0,0-2.35-2.08l-3,2.12q4,7.29,10.58,7.29a11.58,11.58,0,0,0,7.65-2.39,8.19,8.19,0,0,0,2.86-6.63c0-1.2-1.06-3.57-3.18-7.13s-3.17-5.69-3.17-6.42q0-5.18,7.84-5.18a29,29,0,0,1,3.44.16l.71-3.06Zm25.94,0-.7,3.06a29.33,29.33,0,0,0-3.45-.16q-7.85,0-7.84,5.18,0,1.1,3.18,6.42c2.11,3.56,3.17,5.93,3.17,7.13a8.16,8.16,0,0,1-2.86,6.63,11.55,11.55,0,0,1-7.64,2.39q-6.58,0-10.58-7.29l3-2.12a30.92,30.92,0,0,1,2.36,2.08,22.77,22.77,0,0,0,1.88,1.69,4.86,4.86,0,0,0,3.29,1.33,4.51,4.51,0,0,0,4.47-4.51q0-1.92-3.41-7.17c-2.28-3.5-3.41-6-3.41-7.37a6.53,6.53,0,0,1,3.25-5.88,15.9,15.9,0,0,1,8.54-2c3.53,0,5.79.2,6.78.62Zm54.71-.15-2.51,9.48,10.19-1.18-2.27,3.69-8.78,1.17q-1,4.23-3.45,12.78-5.25,18.49-5.25,23.43l-5,2.59q0-6.74,5.8-26,3-9.65,3.68-12.39a19.86,19.86,0,0,1-5,.71q-4.46,0-4.46-3.53,0-1.95,3-4.7A45.69,45.69,0,0,1,378,342.34q4.64-15.76,6.66-19.76c1.83-3.6,3.51-5.9,5-6.89a13,13,0,0,1,7-2.12q3.6,0,5.09,2a7.14,7.14,0,0,1,1.33,4.78q-.39,9.87-21.24,23Zm12.54-23.13a6.88,6.88,0,0,0-6.5,4.24,42.18,42.18,0,0,0-2.9,7.91c-.84,3.09-1.44,5.2-1.8,6.35a62.8,62.8,0,0,0,9.24-7.21c3.3-3,5-5.67,5.1-7.92s-.94-3.37-3.14-3.37Zm-19,33,1.72-6.9a20.4,20.4,0,0,0-4.66,2.59c-1.13.89-1.69,1.65-1.69,2.27q0,2,4.63,2Zm38.8-2.35-4.08,1.25a16,16,0,0,1,1.49,6.94,11.69,11.69,0,0,1-1.88,6.62,6.24,6.24,0,0,1-9.88.75,8.51,8.51,0,0,1-1.64-5.45,11.7,11.7,0,0,1,4.15-9.25,15.34,15.34,0,0,1,10.42-3.6l-.23-2.59a15.7,15.7,0,0,0-1.88-.08q-7.22,0-13,5.92a18.6,18.6,0,0,0-5.8,13.36,10,10,0,0,0,2.54,7.25,9.45,9.45,0,0,0,7.1,2.63,13.37,13.37,0,0,0,10.34-5,16.63,16.63,0,0,0,4.39-11.32,14.2,14.2,0,0,0-2-7.45Zm25.94,0a14.12,14.12,0,0,1,2,7.45,16.67,16.67,0,0,1-4.39,11.32,13.41,13.41,0,0,1-10.35,5,9.42,9.42,0,0,1-7.09-2.63,10,10,0,0,1-2.55-7.25,18.6,18.6,0,0,1,5.8-13.36q5.81-5.92,13-5.92a15.58,15.58,0,0,1,1.88.08l.24,2.59a15.36,15.36,0,0,0-10.43,3.6,11.7,11.7,0,0,0-4.15,9.25,8.51,8.51,0,0,0,1.65,5.45,6.23,6.23,0,0,0,9.87-.75,11.61,11.61,0,0,0,1.88-6.62,15.89,15.89,0,0,0-1.49-6.94l4.08-1.25Zm47.81-34.64,4,1.41-1.1,2a312.54,312.54,0,0,0-14.66,31.12q-4,9.88-4,14.82a3,3,0,0,0,.62,2,2.47,2.47,0,0,0,2,.75,5,5,0,0,0,3.18-1.8l1.41,1.33a11.18,11.18,0,0,1-3.53,4.19A8.06,8.06,0,0,1,471,374c-3,0-4.54-1.77-4.54-5.33a42,42,0,0,1,1.72-9.64q-9.26,16.16-18.11,16.15a6.46,6.46,0,0,1-4.86-1.88,7.09,7.09,0,0,1-1.8-5.1q0-5.08,4.08-10.58a33.17,33.17,0,0,1,10-9,22.2,22.2,0,0,1,11.13-3.49l.24,2.74a23.94,23.94,0,0,0-12.59,5.84q-5.84,5-5.83,10.15a5,5,0,0,0,1.17,3.49,4,4,0,0,0,3.06,1.29q3.84,0,10-8.23a59.4,59.4,0,0,0,5.21-8.7q2.94-5.72,4.71-9.21l3.44-6.82q1.69-3.33,4.43-8.78T487.92,316.24Z" transform="translate(-5.81 -6.06)"/><path class="cls-1" d="M263.2,459.67h3.12l.72-6.93h1.77l.28-2.7h-1.77l.66-6.33h1.76L270,441h-1.76l.58-5.57h-3.11l-.59,5.57h-2.25l.59-5.57h-3.12l-.59,5.57H258l-.27,2.7h1.73l-.66,6.33h-1.7l-.27,2.7h1.69l-.72,6.93H261l.73-6.93h2.25l-.73,6.93Zm-.59-16h2.25l-.65,6.33H262l.65-6.33Zm16.65-1c0,1.94-.86,2.56-2.28,2.56h-1.14v3.46h.93c1.73,0,2.49.83,2.49,3.08v1.91c0,2.14-.76,2.73-2,2.73s-2-.66-2-2.39v-2.9h-3.6v2.66c0,3.88,1.94,6.09,5.67,6.09s5.68-2.21,5.68-6.09V452c0-2.46-.76-4.26-2.67-5.09,1.84-.76,2.67-2.39,2.67-5v-.62c0-3.88-1.94-6.09-5.68-6.09s-5.6,2.15-5.6,6V443h3.49v-2c0-1.73.8-2.39,2-2.39s2,.59,2,2.77v1.35Zm14.82-7.3H288.5l-3.87,24.23h3.49l.66-4.4h4.67l.66,4.4H298l-3.87-24.23Zm-3,4.29L292.94,452h-3.67l1.83-12.25Zm12.43-.83h4.32v20.77h3.88V435.44h-12v24.23h3.81V438.9ZM323,435.44h-5.58l-3.87,24.23H317l.66-4.4h4.67l.66,4.4h3.84L323,435.44Zm-3,4.29L321.8,452h-3.67L320,439.73Zm14.23-4.29h-5.61v24.23h3.81v-9.11h1.8c3.8,0,5.67-2.11,5.67-6v-3.15c0-3.87-1.87-6-5.67-6Zm0,3.46c1.21,0,1.87.55,1.87,2.28v3.64c0,1.73-.66,2.28-1.87,2.28h-1.8v-8.2Zm14.53,9.65,1.56-5.95v17.07h3.43V435.44h-4.19l-3.11,10L345,450.77V435.44h-3.39v24.23h3.91l3.18-11.12Zm12.95-13.11h-5.3v24.23h3.33V442.53l2.84,17.14h3.6l2.63-17.38v17.38h3.6V435.44h-5.3l-2.6,17.2Z" transform="translate(-5.81 -6.06)"/><path class="cls-1" d="M269.38,12.71c0,8.15,5.61,17.19,11,23a28.8,28.8,0,0,0,4,4c4.71,3.94,6.26,5.54,12.35,8.61a31.11,31.11,0,0,0,10,3.16c1.33.2.94.17,1.61,1,.85,1.05,1.62,1.92,2.49,3,2.89,3.42,6.69,8.34,9.48,11.47,3.26,3.67,7.31,9,10.78,13l13.06,15.76c.76,1,1.52,1.9,2.36,2.88.62.72.38.85,1.57,1,7.09,1.21,9.17-2.07,8.11-8.11-.28-1.63-1.67-2.47-3.63-4.43L272.75,7.32c-.51-.51-.81-1.06-1.56-1.26C270.87,7.43,269.38,9.06,269.38,12.71Z" transform="translate(-5.81 -6.06)"/><path class="cls-1" d="M323,32.86a12.45,12.45,0,0,0,1.41,4.84l-4.19,3.88c-1.23,1.23-3.36,2.91-4.08,4a28.4,28.4,0,0,0,2.87,3c.68.68,2.39,2.66,3.18,2.87l3.88-4c1.21-1.2,2.66-3.19,4-4.08,2.58.6,1.36,1.21,5.64,1.21,2.59,0,5.05-3.13,7.11-5.19,1.58-1.58,17.57-17.77,18.49-18.39l-3-3.07L344.2,32.11a9,9,0,0,1-2.47-2.67l13.95-14.06-3-3.12-14.11,14.2-2.71-2.62L350,9.73l-3-3.12c-1,.7-19.49,19.42-22,21.87A6.26,6.26,0,0,0,323,32.86Z" transform="translate(-5.81 -6.06)"/><path class="cls-1" d="M268,94.33c0,5.54,4.83,6.06,8.23,5.21,1-.26.72-.3,1.4-1L304.9,69.79c.84-.83,1.35-1.55,2.21-2.41l4.59-4.89L308.93,59c-.54-.6-.93-1.18-1.43-1.79a20.87,20.87,0,0,1-1.44-1.79c-1.54.41-3.67,3.4-5,4.47-1.69,1.35-3,3-5,4.66-1.17,1-2.7,2.84-3.66,3.6L270.21,89.32a11.2,11.2,0,0,0-1.3,1.12C268.05,91.33,268,93,268,94.33Z" transform="translate(-5.81 -6.06)"/><rect class="cls-2" y="44.62" width="213.87" height="4.15"/><rect class="cls-2" y="44.62" width="4.15" height="398.71"/><rect class="cls-2" y="439.18" width="213.87" height="4.15"/><rect class="cls-2" x="403.76" y="44.62" width="213.87" height="4.15"/><rect class="cls-2" x="613.48" y="44.62" width="4.15" height="398.71"/><rect class="cls-2" x="403.76" y="439.18" width="213.87" height="4.15"/></svg>