<?xml version="1.0" standalone="no"?>
<!DOCTYPE svg PUBLIC "-//W3C//DTD SVG 20010904//EN"
 "http://www.w3.org/TR/2001/REC-SVG-20010904/DTD/svg10.dtd">
<svg version="1.0" xmlns="http://www.w3.org/2000/svg"
 width="500.000000pt" height="500.000000pt" viewBox="0 0 500.000000 500.000000"
 preserveAspectRatio="xMidYMid meet">
<metadata>
Created by potrace 1.11, written by Peter Selinger 2001-2013
</metadata>
<g transform="translate(0.000000,500.000000) scale(0.100000,-0.100000)"
fill="#000000" stroke="none">
<path d="M2015 4988 c-2 -7 -30 -85 -60 -173 -31 -88 -72 -205 -91 -260 -20
-55 -44 -122 -54 -150 -10 -27 -41 -115 -69 -195 -27 -80 -77 -224 -111 -320
-34 -96 -68 -193 -75 -215 -8 -22 -39 -112 -70 -200 -31 -88 -63 -180 -71
-205 -8 -25 -19 -54 -24 -65 -4 -11 -31 -87 -60 -170 -28 -82 -59 -172 -70
-200 -10 -27 -36 -102 -58 -165 -22 -63 -56 -160 -75 -215 -20 -55 -74 -212
-122 -350 -47 -137 -93 -266 -100 -285 -7 -19 -32 -89 -55 -155 -23 -66 -54
-156 -70 -200 -16 -44 -63 -179 -105 -300 -42 -121 -82 -236 -90 -255 -7 -19
-41 -116 -75 -215 -34 -99 -66 -191 -72 -205 -5 -14 -18 -50 -28 -80 -10 -30
-46 -133 -79 -228 -34 -96 -61 -176 -61 -178 0 -2 210 -3 467 -2 l466 3 99
300 c55 165 101 305 102 310 2 6 6 17 9 25 3 8 50 150 104 315 l99 300 881 3
881 2 36 -107 c20 -60 115 -342 210 -628 l175 -520 465 -3 c256 -1 466 2 466
6 0 5 -21 67 -46 138 -25 71 -51 143 -56 159 -27 79 -217 620 -273 780 -35 99
-96 272 -135 385 -39 113 -87 249 -106 303 -19 53 -50 143 -70 200 -20 56 -49
140 -66 187 -16 47 -33 96 -38 110 -5 14 -25 72 -45 130 -21 58 -51 143 -67
190 -16 47 -40 114 -53 150 -13 36 -42 119 -65 185 -23 66 -54 156 -70 200
-58 163 -152 430 -154 440 -2 6 -6 17 -9 25 -4 8 -36 101 -73 205 -36 105 -78
226 -94 270 -15 44 -85 244 -155 445 -69 201 -129 372 -132 380 -4 8 -13 35
-22 60 l-16 45 -483 3 c-381 2 -483 0 -487 -10z m503 -905 c6 -27 35 -142 63
-258 78 -321 108 -425 265 -900 80 -242 148 -447 151 -455 3 -8 7 -19 8 -25 2
-5 35 -106 74 -224 39 -117 71 -214 71 -216 0 -1 -294 -2 -654 -2 l-653 0 177
526 c258 764 268 795 304 921 18 63 50 183 70 265 20 83 41 164 46 180 5 17
19 76 31 133 13 56 26 102 29 102 3 0 11 -21 18 -47z"/>
</g>
</svg>
