<?xml version="1.0" standalone="no"?>
<!DOCTYPE svg PUBLIC "-//W3C//DTD SVG 20010904//EN"
 "http://www.w3.org/TR/2001/REC-SVG-20010904/DTD/svg10.dtd">
<svg version="1.0" xmlns="http://www.w3.org/2000/svg"
 width="576.000000pt" height="576.000000pt" viewBox="0 0 576.000000 576.000000"
 preserveAspectRatio="xMidYMid meet">
<metadata>
Created by potrace 1.11, written by Peter Selinger 2001-2013
</metadata>
<g transform="translate(0.000000,576.000000) scale(0.100000,-0.100000)"
fill="#000000" stroke="none">
<path d="M1215 5725 c-35 -34 -35 -106 0 -140 l24 -25 1664 0 1664 0 22 24
c12 13 25 42 28 63 4 32 0 45 -22 71 l-27 32 -1664 0 -1665 0 -24 -25z m3332
-48 c12 -7 7 -37 -8 -47 -4 -3 -744 -5 -1645 -5 -1568 0 -1639 1 -1642 18 -2
10 -2 24 1 30 3 9 384 12 1643 12 902 0 1644 -4 1651 -8z"/>
<path d="M1509 5469 c-12 -12 -17 -35 -17 -81 0 -62 1 -65 44 -111 l44 -48 0
-414 c0 -227 4 -416 8 -419 5 -3 36 36 70 87 76 113 107 151 200 243 l72 71 0
216 0 215 46 44 c43 41 45 47 48 103 3 62 -9 104 -28 106 -6 0 -114 1 -241 2
-200 2 -232 0 -246 -14z m449 -75 c3 -21 -38 -74 -58 -74 -19 0 -29 -74 -29
-230 0 -91 0 -185 -1 -210 0 -43 -5 -50 -68 -115 -37 -39 -88 -94 -113 -124
l-45 -53 -2 333 c-1 365 -4 399 -33 399 -11 0 -19 6 -19 14 0 8 -9 18 -20 21
-18 6 -28 43 -15 57 2 2 94 4 202 4 195 -1 198 -1 201 -22z"/>
<path d="M2110 5482 c-37 -5 -41 -13 -44 -88 l-2 -69 44 -47 44 -48 -1 -122
c0 -68 3 -129 7 -135 6 -10 26 -4 77 21 117 56 158 73 218 90 l57 17 0 67 c0
66 1 68 44 111 l44 43 -1 69 c-1 37 -8 74 -14 80 -8 8 -77 12 -230 13 -120 1
-229 -1 -243 -2z m420 -94 c0 -16 -6 -31 -15 -34 -8 -4 -15 -12 -15 -20 0 -8
-8 -14 -19 -14 -21 0 -33 -37 -35 -114 l-1 -49 -109 -44 c-60 -24 -111 -41
-114 -39 -2 3 -6 51 -8 108 -4 118 -5 128 -14 128 -18 0 -70 63 -70 83 l0 24
200 0 200 0 0 -29z"/>
<path d="M2669 5478 c-24 -9 -36 -40 -32 -81 2 -18 4 -43 4 -56 1 -14 18 -40
42 -63 33 -31 42 -48 47 -84 l5 -45 170 -1 170 -1 5 46 c5 38 13 53 45 81 43
39 47 48 47 125 0 85 4 83 -257 85 -124 0 -235 -2 -246 -6z m439 -84 c3 -23
-32 -66 -63 -78 -10 -3 -15 -9 -12 -13 4 -3 1 -15 -5 -27 -7 -11 -12 -30 -13
-41 0 -18 -8 -19 -108 -20 -107 0 -121 4 -123 35 -1 8 -2 26 -3 38 0 15 -9 26
-21 29 -11 3 -20 11 -20 18 0 8 -9 17 -20 20 -18 6 -28 43 -15 56 2 3 93 5
202 4 195 0 198 0 201 -21z"/>
<path d="M3239 5478 c-22 -9 -21 -4 -24 -88 -2 -64 -2 -65 41 -109 43 -43 44
-45 44 -112 0 -73 6 -82 61 -93 30 -5 80 -26 192 -78 48 -23 90 -39 93 -36 3
4 6 68 7 144 2 104 5 138 15 142 8 2 28 20 45 39 28 31 32 42 33 99 3 101 14
97 -255 98 -128 1 -241 -2 -252 -6z m439 -85 c2 -15 -10 -35 -37 -62 -23 -23
-42 -47 -42 -53 -1 -7 -2 -58 -3 -113 -2 -118 8 -114 -137 -53 l-95 40 2 52
c1 28 -3 57 -10 65 -6 8 -10 16 -8 18 9 13 -1 33 -18 33 -11 0 -20 7 -20 15 0
9 -7 18 -15 21 -8 4 -15 18 -15 33 l0 28 198 -1 c195 -1 197 -1 200 -23z"/>
<path d="M3796 5455 c-10 -24 -14 -102 -5 -125 1 -3 1 -8 0 -12 0 -4 18 -23
41 -42 l41 -36 2 -222 c1 -123 3 -226 3 -230 1 -3 32 -37 70 -75 37 -38 76
-80 87 -94 54 -66 119 -158 146 -206 17 -29 35 -51 39 -48 5 3 9 200 10 438
l0 432 41 37 c41 36 42 39 44 108 4 108 18 103 -263 104 l-242 1 -14 -30z
m462 -53 c5 -17 -38 -80 -60 -86 -10 -2 -18 -13 -18 -24 0 -12 -3 -23 -7 -25
-5 -3 -8 -161 -7 -351 1 -190 -2 -346 -5 -346 -3 0 -22 22 -41 47 -19 26 -69
82 -110 126 l-74 79 -1 236 c0 131 -4 243 -8 250 -5 6 -14 12 -22 12 -7 0 -17
9 -20 20 -3 11 -13 20 -21 20 -9 0 -14 10 -14 28 l0 28 202 -1 c155 0 202 -3
206 -13z"/>
<path d="M2675 5099 c-222 -44 -441 -131 -582 -232 -25 -17 -59 -41 -77 -53
-41 -28 -202 -187 -248 -244 -120 -153 -232 -371 -264 -515 -1 -5 -9 -36 -18
-67 -10 -31 -19 -76 -21 -100 -2 -24 -7 -72 -11 -108 -18 -171 6 -430 53 -550
3 -8 7 -19 8 -25 9 -61 125 -304 184 -385 166 -228 351 -388 566 -490 146 -69
176 -80 250 -95 17 -3 53 -12 80 -20 28 -8 82 -18 120 -24 73 -9 334 -7 395 4
77 14 114 22 140 30 10 3 28 8 39 10 12 3 29 7 39 9 10 2 34 11 53 18 18 8 37
16 42 16 20 4 142 64 205 101 63 36 186 125 218 156 6 5 26 24 45 40 56 50
169 185 221 265 51 76 144 261 153 302 2 13 13 48 24 78 10 30 21 71 24 90 3
19 8 46 12 60 26 110 36 305 20 425 -3 28 -7 62 -8 78 0 15 -4 27 -8 27 -4 0
-6 6 -6 13 2 18 -23 149 -31 161 -4 6 -7 13 -7 16 -4 30 -64 176 -97 235 -7
11 -22 40 -36 64 -67 127 -211 295 -339 398 -27 21 -50 40 -53 43 -3 3 -41 28
-85 56 -140 89 -273 146 -450 191 -87 22 -126 25 -300 28 -110 2 -222 -1 -250
-6z m392 -63 c23 -4 55 -9 70 -11 52 -7 134 -25 144 -30 5 -4 17 -8 26 -10 10
-2 50 -15 88 -30 431 -164 754 -539 861 -1001 24 -103 28 -141 28 -284 1 -189
-7 -256 -48 -411 -22 -82 -100 -260 -153 -347 -26 -42 -49 -79 -52 -82 -3 -3
-24 -27 -45 -55 -38 -48 -160 -173 -222 -225 -43 -37 -179 -122 -259 -162 -74
-37 -215 -91 -215 -82 0 2 -9 0 -21 -6 -21 -12 -39 -17 -94 -26 -16 -2 -41 -7
-55 -9 -120 -21 -295 -22 -435 -1 -16 2 -47 7 -67 10 -21 3 -45 9 -55 15 -10
5 -22 9 -28 10 -22 2 -122 33 -155 48 -187 83 -316 170 -451 303 -95 94 -189
207 -189 226 0 4 -6 15 -14 23 -24 26 -82 141 -119 233 -36 89 -72 220 -82
298 -3 25 -8 68 -12 95 -25 185 20 475 103 664 96 219 217 384 386 527 101 85
167 128 278 184 87 44 210 93 210 83 0 -3 6 -1 13 5 13 11 93 29 166 38 24 3
59 8 79 12 42 9 260 7 319 -2z"/>
<path d="M2709 4999 c-7 -4 -16 -6 -19 -4 -3 2 -32 -3 -65 -11 -33 -8 -71 -17
-84 -20 -14 -3 -29 -8 -35 -12 -6 -3 -22 -8 -35 -10 -45 -6 -317 -143 -341
-172 -3 -3 -24 -19 -48 -36 -99 -72 -243 -227 -315 -339 -288 -451 -290 -1041
-4 -1486 76 -119 168 -222 293 -329 32 -28 152 -110 160 -110 2 0 21 -10 42
-23 118 -73 342 -144 470 -150 17 -1 32 -4 32 -7 0 -7 274 -4 315 4 17 3 52 8
80 12 66 8 253 72 345 119 73 37 197 116 248 159 65 54 194 193 244 263 163
227 246 477 255 768 6 177 -15 312 -74 484 -111 323 -349 601 -654 760 -100
53 -257 110 -346 127 -13 2 -35 7 -50 10 -45 9 -399 12 -414 3z m381 -42 c14
-3 42 -8 63 -12 102 -18 249 -70 355 -126 280 -149 495 -389 612 -683 17 -43
33 -87 36 -97 2 -11 6 -28 8 -39 3 -11 8 -25 11 -31 4 -6 8 -23 10 -37 1 -15
6 -52 11 -82 17 -105 10 -426 -10 -458 -4 -7 -6 -16 -3 -18 7 -7 -48 -186 -80
-257 -15 -34 -46 -93 -68 -130 -22 -38 -44 -76 -50 -85 -53 -90 -217 -257
-330 -336 -413 -289 -926 -321 -1372 -85 -248 131 -473 372 -579 618 -53 125
-66 158 -69 181 -4 29 -17 85 -23 94 -3 5 -6 21 -8 35 -1 14 -5 42 -9 61 -9
47 -9 259 -1 340 4 36 13 88 21 115 8 28 17 66 20 85 15 86 109 283 189 400
111 160 288 315 469 410 94 49 270 113 342 124 53 7 99 17 102 20 5 5 327 -2
353 -7z"/>
<path d="M2839 4923 c-26 -13 -62 -27 -80 -29 -70 -11 -111 -26 -141 -53 -28
-25 -32 -35 -32 -80 0 -43 5 -56 27 -79 54 -53 157 -19 157 53 0 13 4 26 9 30
5 3 8 19 6 35 -2 17 -1 30 3 31 34 4 51 13 78 41 l30 34 18 -24 c10 -13 35
-32 55 -41 31 -14 36 -20 35 -48 -1 -39 9 -42 24 -8 20 43 96 49 124 10 14
-19 8 -62 -11 -79 -14 -13 -24 -14 -45 -7 -27 11 -35 34 -15 47 6 3 16 1 22
-5 8 -8 8 -11 -1 -11 -7 0 -12 -4 -12 -10 0 -14 36 -12 47 3 5 6 8 18 7 25 -1
6 -2 16 -3 21 -1 9 -29 22 -58 27 -21 4 -51 -44 -51 -80 0 -53 34 -74 110 -67
23 2 81 77 71 93 -4 7 -6 20 -5 28 1 8 -11 31 -27 50 -28 35 -66 51 -156 65
-22 4 -59 17 -82 31 -50 29 -46 29 -104 -3z m-97 -120 c23 -21 24 -41 1 -21
-31 27 -60 28 -83 3 -18 -19 -20 -27 -11 -44 16 -28 55 -29 46 -1 -8 24 13 28
22 4 3 -9 -3 -24 -14 -36 -18 -17 -23 -18 -41 -7 -11 7 -26 24 -32 38 -9 21
-9 27 5 37 12 9 13 13 3 17 -17 6 28 25 61 26 14 1 33 -6 43 -16z"/>
<path d="M2413 4798 c-33 -16 -57 -82 -46 -125 7 -31 23 -29 23 2 0 32 35 67
63 63 24 -3 48 -43 40 -65 -9 -23 -38 -10 -38 16 0 48 -37 33 -50 -20 -5 -20
-1 -32 17 -50 66 -69 168 8 147 111 -14 67 -90 100 -156 68z"/>
<path d="M3258 4794 c-41 -21 -37 -47 5 -41 19 2 40 -1 48 -7 37 -27 29 -76
-12 -76 -25 0 -24 30 1 37 28 7 25 21 -5 29 -33 8 -85 -14 -85 -36 0 -33 22
-81 43 -92 61 -32 121 -12 153 51 26 50 21 80 -17 121 -33 34 -84 40 -131 14z"/>
<path d="M3479 4686 c-54 -27 -82 -109 -52 -154 32 -50 110 -58 145 -14 10 12
10 14 1 8 -10 -5 -11 -1 -4 16 17 46 -1 78 -44 78 -35 0 -48 -15 -41 -46 7
-28 8 -28 22 -10 8 11 14 14 14 7 0 -7 5 -9 10 -6 6 3 10 2 10 -4 0 -15 -36
-32 -54 -25 -24 9 -31 51 -12 79 13 19 23 24 51 21 53 -4 88 -51 63 -83 -7 -9
-5 -15 6 -19 11 -4 22 0 30 11 12 17 16 17 52 3 21 -9 51 -14 66 -12 25 2 27
0 24 -26 -2 -16 5 -47 15 -69 11 -25 14 -41 7 -41 -10 0 -37 -29 -38 -40 0 -4
16 -4 35 -2 22 3 45 -2 60 -12 21 -14 24 -21 19 -59 -7 -45 -17 -57 -49 -57
-48 0 -70 50 -29 69 15 6 24 7 24 1 0 -6 0 -13 0 -17 0 -5 -4 -8 -9 -8 -18 0
-21 -12 -7 -24 25 -21 56 3 56 44 0 29 -4 36 -25 41 -14 3 -40 3 -59 0 -43 -8
-59 -45 -40 -92 18 -42 39 -57 91 -64 l45 -5 -22 -28 c-18 -22 -21 -37 -17
-68 6 -48 21 -68 65 -86 48 -20 107 -2 132 40 25 41 25 73 0 115 -22 35 -54
52 -101 52 -29 0 -29 0 -14 30 31 60 18 114 -51 210 -28 40 -37 65 -43 121 -1
8 -28 19 -61 25 -14 3 -58 27 -99 54 -41 28 -79 50 -85 51 -6 1 -23 2 -38 3
-16 2 -38 -2 -49 -8z m473 -552 c14 -30 3 -53 -30 -65 -17 -6 -24 -5 -29 7 -7
18 13 35 33 27 6 -2 15 0 18 5 8 13 -31 52 -52 52 -14 0 -15 2 -3 9 20 13 49
-4 63 -35z"/>
<path d="M2190 4674 c-19 -8 -48 -25 -65 -38 -41 -31 -87 -54 -120 -60 -34 -6
-37 -9 -40 -38 -1 -13 -3 -28 -4 -33 0 -6 -17 -35 -37 -65 -62 -92 -72 -116
-69 -151 5 -65 34 -102 87 -114 38 -9 94 20 104 53 13 48 13 55 -1 81 -8 14
-14 23 -15 19 0 -4 -11 -3 -25 2 -32 12 -71 -2 -80 -29 -7 -24 10 -61 30 -61
7 0 17 -4 20 -10 9 -14 -28 -12 -48 3 -10 6 -19 27 -22 45 -6 52 30 79 98 73
23 -3 22 21 -3 37 -19 12 -19 14 -5 42 8 16 15 44 15 63 0 34 1 34 52 40 28 4
55 11 58 17 5 8 11 8 21 -2 45 -42 49 -42 45 -2 -4 49 6 68 44 84 25 10 34 10
55 -4 46 -30 27 -103 -23 -89 -25 6 -31 43 -7 43 8 0 12 -6 9 -14 -10 -26 16
-27 27 -2 14 31 -2 56 -35 56 -58 -1 -75 -66 -30 -115 21 -22 31 -26 57 -21
18 3 43 18 56 33 19 22 22 34 18 72 -9 85 -82 122 -167 85z m-190 -389 c6 -8
9 -23 5 -35 -8 -26 -25 -17 -18 10 4 16 2 19 -11 14 -16 -6 -22 7 -9 19 10 11
19 8 33 -8z"/>
<path d="M2750 4619 c-25 -5 -58 -11 -75 -13 -71 -10 -218 -75 -320 -142 -65
-43 -179 -153 -238 -231 -66 -86 -132 -229 -163 -353 -49 -189 -34 -407 39
-590 12 -30 22 -58 22 -61 0 -3 24 -46 54 -94 134 -220 348 -378 596 -441 47
-12 65 -16 95 -21 50 -9 248 -8 290 2 19 4 44 9 55 10 11 2 21 4 23 5 1 2 5 3
10 4 159 38 339 142 458 267 257 270 342 660 221 1014 -57 166 -179 340 -316
448 -62 49 -222 138 -246 136 -3 0 -18 7 -33 15 -78 42 -361 69 -472 45z m250
-64 c95 -12 143 -23 212 -48 79 -29 199 -96 248 -138 19 -17 46 -41 60 -53 27
-23 101 -111 139 -165 42 -60 97 -183 115 -256 9 -38 19 -81 23 -95 11 -45 5
-323 -8 -350 -1 -3 -3 -9 -4 -15 -9 -50 -80 -233 -95 -245 -4 -3 -24 -32 -45
-64 -112 -170 -311 -309 -525 -367 -67 -18 -112 -23 -210 -23 -137 0 -148 1
-265 34 -183 51 -363 177 -477 332 -16 21 -28 39 -28 41 0 2 93 3 206 3 146 1
208 4 213 13 4 6 7 30 7 54 l-1 42 -47 3 c-62 4 -70 19 -72 136 -2 99 2 136
15 136 4 0 23 -21 40 -47 18 -27 36 -50 39 -53 6 -4 36 -47 110 -154 8 -11 33
-46 56 -76 l41 -55 132 1 c78 0 135 4 142 11 6 6 9 30 7 53 -3 43 -3 43 -56
56 -69 18 -113 52 -170 133 -26 36 -50 68 -54 69 -5 2 -8 8 -8 14 0 6 -11 23
-25 40 -31 37 -32 54 -2 62 31 7 90 63 113 107 18 34 26 145 13 197 -16 67
-124 150 -219 168 -59 11 -481 11 -489 -1 -13 -17 -6 -96 9 -105 8 -5 30 -9
48 -8 18 1 38 -4 45 -11 9 -9 12 -95 12 -327 0 -174 -3 -321 -7 -327 -4 -6
-31 -14 -60 -17 l-53 -5 2 -37 c1 -24 -3 -35 -10 -32 -12 5 -46 69 -50 94 -2
8 -10 30 -19 47 -9 18 -20 47 -24 65 -4 18 -9 36 -10 41 -1 4 -2 8 -3 10 -7 8
-14 107 -15 192 -1 107 9 210 24 250 5 14 8 25 6 25 -3 0 13 40 33 88 33 78
103 195 136 228 6 7 22 25 36 40 32 39 133 123 192 162 50 33 187 95 187 85 0
-3 6 -1 13 5 10 9 71 23 172 39 17 3 31 6 32 7 4 3 123 -2 173 -9z m-328 -545
c122 -46 179 -161 138 -284 -12 -38 -69 -106 -88 -106 -7 0 -12 -4 -12 -8 0
-5 -16 -13 -36 -18 l-37 -9 46 -65 c26 -36 64 -90 86 -121 73 -103 121 -145
178 -155 53 -10 74 -36 49 -61 -4 -4 -59 -8 -122 -8 l-115 0 -38 50 c-51 68
-92 125 -162 224 -77 110 -85 118 -112 116 -22 -2 -22 -4 -23 -148 -2 -165 1
-172 70 -179 22 -2 41 -9 43 -14 3 -10 -31 -9 -84 2 -40 8 -49 47 -49 204 l1
145 41 3 c46 3 21 32 239 -274 l80 -111 110 1 c121 1 135 11 53 37 -62 21
-119 75 -193 184 -30 44 -69 99 -85 123 -37 53 -37 58 -2 67 47 12 110 58 132
98 13 23 23 60 25 91 5 102 -60 181 -170 209 -70 18 -457 17 -462 0 -3 -9 8
-13 35 -13 54 0 80 -31 74 -86 -4 -37 -5 -37 -14 -14 -5 14 -7 32 -5 42 5 19
-31 37 -79 41 -19 2 -30 9 -32 20 -9 45 -6 46 235 42 203 -3 234 -6 285 -25z
m-87 -66 c57 -28 78 -63 83 -137 3 -52 0 -67 -20 -97 -33 -51 -108 -85 -183
-85 l-60 0 0 165 0 165 30 6 c51 10 109 4 150 -17z m-307 -645 c1 -51 -25 -79
-72 -79 -19 0 -36 -6 -39 -13 -4 -11 30 -14 184 -13 104 1 189 -2 189 -5 0
-13 -37 -15 -210 -14 l-175 0 0 29 c0 27 3 30 39 33 47 3 66 18 66 48 0 22 9
55 15 55 1 0 3 -18 3 -41z"/>
<path d="M3530 4063 c-13 -3 -35 -13 -47 -23 -22 -17 -26 -17 -55 -2 -44 21
-162 24 -213 4 -58 -22 -111 -67 -142 -120 -23 -39 -27 -58 -27 -117 1 -123
41 -171 248 -294 137 -82 164 -108 152 -154 -20 -80 -178 -77 -238 4 -13 17
-23 34 -23 37 -1 4 -4 16 -8 27 -3 11 -8 33 -11 49 -3 16 -7 30 -9 33 -9 8
-62 14 -84 8 -23 -5 -23 -6 -20 -183 l2 -177 48 0 c36 0 51 4 58 17 10 18 16
17 89 -5 73 -22 178 -15 242 16 63 31 96 64 131 130 36 69 32 164 -9 227 -16
25 -38 53 -49 63 -24 21 -117 77 -204 124 -97 52 -131 81 -131 112 0 32 8 44
38 60 47 25 125 8 164 -36 15 -17 39 -83 52 -145 6 -25 11 -28 50 -28 24 0 48
6 53 13 5 6 9 87 8 180 -1 136 -4 170 -15 177 -8 6 -17 9 -20 8 -3 0 -16 -3
-30 -5z m-145 -48 c21 -4 52 -13 67 -21 32 -16 54 -10 61 17 4 15 12 20 29 17
23 -3 23 -5 24 -143 0 -77 -4 -145 -8 -151 -13 -17 -48 -5 -49 17 -6 83 -66
161 -141 184 -88 26 -168 -19 -168 -94 0 -48 51 -93 181 -160 57 -30 106 -57
109 -60 3 -4 19 -17 37 -29 17 -12 41 -37 52 -55 24 -39 43 -115 30 -123 -5
-3 -9 3 -10 13 -4 98 -62 156 -253 253 -37 19 -89 54 -115 76 -42 38 -46 46
-46 88 0 65 42 107 114 114 119 11 200 -60 223 -193 2 -11 8 -18 13 -15 10 5
17 237 7 253 -2 5 -11 -1 -19 -12 -17 -25 -53 -27 -96 -5 -38 20 -139 27 -189
12 -117 -34 -182 -173 -129 -276 28 -55 63 -82 201 -163 121 -70 179 -115 181
-141 1 -7 3 -26 5 -42 4 -40 -19 -80 -61 -106 -30 -19 -45 -21 -103 -16 -85 6
-92 8 -92 18 0 4 -6 8 -14 8 -26 0 -73 67 -91 129 -11 33 -22 61 -27 61 -9 0
-10 -9 -10 -140 1 -146 -2 -137 26 -107 23 25 25 25 70 12 26 -8 52 -17 58
-21 5 -4 42 -9 81 -11 75 -5 136 11 188 50 29 21 67 82 72 115 2 12 7 25 11
29 5 5 6 -10 2 -32 -10 -58 -53 -113 -115 -148 -48 -27 -62 -30 -140 -30 -57
0 -96 5 -116 15 -16 9 -44 19 -62 23 -29 6 -33 4 -38 -18 -4 -16 -13 -24 -23
-22 -9 2 -20 4 -25 4 -4 1 -6 65 -5 144 3 138 4 142 25 145 18 3 24 -4 33 -40
7 -24 16 -48 21 -54 5 -7 8 -16 7 -22 -2 -5 10 -21 25 -36 110 -103 287 -72
287 50 0 54 -28 82 -150 153 -129 74 -147 85 -176 111 -99 85 -106 225 -17
314 46 47 133 79 188 70 11 -1 38 -6 60 -9z"/>
<path d="M2427 3943 c-4 -3 -7 -73 -7 -155 0 -111 3 -148 13 -149 127 -11 216
54 218 158 3 94 -60 153 -163 153 -30 0 -58 -3 -61 -7z m149 -44 c54 -33 70
-99 40 -158 -17 -33 -46 -53 -98 -70 -70 -23 -73 -17 -73 121 0 122 0 122 25
128 34 9 69 2 106 -21z"/>
<path d="M1772 4152 c-16 -15 -33 -42 -36 -59 -10 -43 15 -97 52 -116 36 -17
51 -10 22 10 -34 24 -23 94 16 99 21 3 54 -13 54 -27 0 -19 -30 -21 -47 -3
-17 17 -18 16 -21 -16 -6 -61 65 -93 108 -50 45 45 34 129 -23 168 -46 30 -88
29 -125 -6z"/>
<path d="M1760 3953 c-39 -12 -63 -30 -73 -53 -6 -14 -10 -28 -9 -32 1 -5 -1
-8 -6 -8 -4 0 -8 -12 -9 -27 -3 -57 -10 -82 -38 -138 -26 -50 -27 -59 -15 -78
27 -43 43 -80 46 -108 2 -16 6 -41 8 -57 9 -75 62 -126 129 -125 34 1 47 7 73
36 28 31 31 39 24 68 -13 56 -20 67 -48 77 -42 13 -102 -24 -102 -63 0 -42 54
-71 79 -41 16 19 3 50 -15 35 -11 -9 -14 -8 -14 5 0 23 47 21 55 -3 11 -35
-10 -57 -62 -67 -23 -4 -53 36 -53 71 0 41 32 80 58 71 13 -5 12 -2 -3 10 -12
9 -31 13 -46 10 -23 -4 -27 -1 -37 33 -7 21 -21 46 -32 56 -20 18 -20 18 5 42
13 14 25 37 27 51 2 22 9 28 33 30 17 1 39 7 50 11 11 5 35 15 53 21 46 18 66
65 48 118 -11 34 -87 68 -126 55z m74 -61 c15 -19 17 -28 7 -48 -14 -31 -51
-33 -51 -3 0 18 3 19 15 9 12 -10 16 -9 21 5 9 23 -8 37 -42 33 -21 -2 -31
-11 -39 -32 -8 -25 -6 -31 18 -52 15 -12 27 -26 27 -29 0 -12 -20 -4 -44 18
-23 20 -25 26 -16 62 15 66 66 84 104 37z"/>
<path d="M3945 3948 c-50 -27 -68 -80 -44 -132 13 -28 67 -55 77 -39 4 6 17
13 29 17 50 16 36 96 -16 96 -23 0 -30 -5 -33 -25 -5 -26 16 -36 25 -12 3 6 6
1 6 -12 1 -18 -3 -22 -16 -16 -10 4 -23 8 -30 8 -16 1 -13 38 5 60 19 21 65
22 86 1 23 -22 21 -87 -3 -108 -11 -10 -25 -15 -32 -11 -7 5 -10 3 -7 -6 2 -8
21 -15 40 -17 31 -3 38 -8 47 -35 6 -17 20 -41 31 -52 l20 -22 -25 -27 c-14
-15 -25 -38 -25 -52 0 -23 -8 -28 -42 -25 -9 1 -30 -5 -45 -14 -25 -14 -25
-16 -5 -11 53 11 85 -81 43 -123 -20 -20 -29 -21 -68 -8 -41 14 -39 77 3 77
25 0 40 -15 24 -25 -5 -3 -10 -1 -10 6 0 9 -4 8 -15 -1 -11 -9 -12 -17 -4 -31
18 -34 79 -7 79 36 0 30 -21 46 -70 55 -36 7 -43 5 -60 -18 -11 -13 -20 -39
-20 -56 0 -34 29 -85 45 -80 14 5 55 -61 55 -89 0 -26 -28 -57 -51 -57 -21 0
-39 20 -39 43 0 13 6 17 23 15 12 -2 21 -9 19 -16 -3 -19 25 -14 32 5 10 26
-26 68 -60 69 -43 1 -72 -23 -80 -63 -8 -42 14 -95 49 -118 31 -20 91 -22 111
-4 8 8 22 20 30 26 26 22 30 78 9 120 -11 21 -26 38 -33 38 -7 0 -15 5 -17 11
-2 6 9 10 27 9 51 -3 95 45 105 113 12 79 35 149 56 168 18 16 16 38 -7 62
-14 13 -44 109 -44 137 0 10 -5 35 -12 57 -20 68 -106 108 -163 76z"/>
<path d="M1782 3285 c-78 -66 -34 -184 69 -187 26 -1 55 -18 31 -18 -12 0 -22
-24 -28 -70 -4 -28 3 -48 37 -105 24 -38 48 -76 55 -83 7 -7 16 -32 20 -57 4
-32 11 -45 23 -46 41 -2 65 -12 137 -59 64 -42 84 -50 123 -50 49 1 67 10 94
50 17 25 23 87 9 105 -13 18 -81 45 -99 38 -49 -17 -68 -67 -40 -105 34 -43
106 -7 73 37 -11 16 -14 16 -29 1 -8 -9 -18 -12 -21 -7 -10 15 22 40 44 34 40
-11 47 -53 14 -88 -28 -31 -56 -27 -91 11 -15 17 -21 33 -18 54 4 35 -18 42
-36 12 -11 -18 -13 -18 -48 0 -20 11 -48 17 -63 15 -26 -3 -28 -1 -28 30 0 19
-7 48 -16 65 -15 28 -14 31 5 44 28 20 17 41 -17 36 -56 -8 -97 58 -67 105 28
42 102 23 93 -24 -2 -10 -13 -18 -26 -19 -25 -1 -30 11 -7 20 20 7 19 22 -1
30 -24 9 -54 -12 -54 -37 0 -33 35 -67 62 -61 13 3 29 6 37 8 33 6 46 64 23
109 -22 46 -100 68 -123 35 -9 -13 -86 30 -92 52 -12 47 26 87 58 60 20 -17 8
-33 -21 -27 -26 5 -30 -4 -14 -34 12 -22 37 -24 75 -7 46 21 46 84 -1 131 -37
37 -100 37 -142 2z"/>
<path d="M3771 3107 c-29 -14 -61 -71 -54 -95 13 -49 79 -78 114 -50 41 32 24
93 -24 86 -29 -4 -33 -26 -5 -37 21 -8 22 -10 4 -17 -29 -11 -51 23 -32 50 18
28 41 31 71 12 34 -22 33 -69 -1 -103 -18 -17 -33 -24 -50 -20 -29 5 -44 -12
-20 -25 18 -10 21 -39 5 -55 -5 -5 -10 -29 -11 -52 0 -38 -2 -41 -27 -39 -14
0 -43 -6 -63 -15 -34 -14 -37 -14 -54 4 -18 20 -39 16 -30 -7 8 -22 -10 -61
-37 -79 -48 -31 -106 7 -93 60 3 12 13 26 22 29 17 7 54 -10 54 -24 0 -14 -27
-12 -34 3 -3 8 -9 6 -21 -8 -15 -19 -14 -21 6 -37 29 -25 56 -22 74 6 12 18
13 30 6 50 -9 22 -8 26 7 26 10 1 0 10 -22 22 -35 18 -43 19 -78 7 -111 -36
-69 -199 51 -199 32 0 49 8 140 68 35 23 76 42 90 42 37 0 47 10 54 54 3 21
28 71 57 114 41 62 50 84 50 119 0 53 -23 91 -67 109 -40 17 -51 17 -82 1z"/>
<path d="M2422 2690 c-96 -58 -76 -185 31 -204 37 -6 92 20 106 51 16 34 14
47 -5 29 -42 -43 -97 -39 -106 7 -6 30 16 62 37 54 21 -9 19 -24 -5 -37 -30
-16 -24 -29 13 -28 42 1 67 24 67 62 -1 67 -76 103 -138 66z"/>
<path d="M3245 2675 c-23 -21 -35 -42 -35 -59 0 -32 -3 -32 -34 -1 -19 18 -36
25 -66 25 -50 0 -80 -27 -80 -73 0 -35 33 -77 61 -77 20 0 59 29 59 44 0 24
-25 47 -43 40 -14 -5 -15 -9 -6 -20 14 -17 6 -29 -16 -21 -26 10 -18 46 12 53
39 10 58 -7 58 -52 0 -35 -3 -39 -38 -53 -37 -14 -38 -13 -77 18 l-40 32 0
-34 c0 -28 -4 -36 -24 -41 -14 -3 -38 -20 -55 -36 -30 -30 -30 -30 -41 -9 -7
11 -32 30 -57 41 -30 13 -43 24 -39 34 3 8 3 21 -1 30 -5 13 -10 11 -27 -11
-27 -34 -72 -41 -105 -16 -26 20 -31 61 -11 86 19 22 67 19 75 -5 8 -24 -1
-40 -21 -40 -16 0 -19 16 -4 25 11 7 4 25 -10 25 -11 0 -40 -29 -40 -41 0 -16
39 -49 58 -49 35 0 55 25 58 74 3 42 0 47 -26 61 -62 32 -120 11 -140 -49 -29
-89 26 -153 145 -171 48 -6 112 -31 145 -56 13 -9 24 -6 53 14 21 14 64 31 95
37 117 23 171 57 177 114 1 11 3 23 4 25 0 2 13 -8 27 -23 15 -14 33 -27 40
-27 8 -1 24 -2 37 -3 62 -6 115 61 103 129 -8 39 -17 40 -23 3 -9 -61 -86 -80
-105 -27 -9 23 7 43 27 36 11 -5 14 -13 10 -26 -9 -28 11 -35 34 -12 14 14 19
29 16 52 -9 71 -74 88 -130 34z"/>
<path d="M4184 2898 c-78 -125 -128 -190 -214 -281 l-95 -100 -1 -232 -2 -232
-41 -39 c-40 -37 -42 -42 -45 -103 -4 -107 -12 -104 269 -104 206 0 239 2 249
16 7 9 12 47 11 87 -1 71 -2 72 -43 112 -23 22 -42 45 -42 51 1 494 -4 858
-11 862 -4 3 -20 -14 -35 -37z m-19 -500 c0 -330 6 -418 30 -418 19 0 56 -50
58 -78 l2 -27 -202 -2 -203 -3 0 28 c0 25 41 77 61 77 20 0 23 33 24 264 l1
248 55 55 c62 64 91 96 137 156 19 23 35 42 36 42 1 0 2 -154 1 -342z"/>
<path d="M1580 2492 l0 -428 -45 -49 c-45 -47 -45 -49 -43 -112 4 -100 -1 -98
272 -97 192 1 230 4 243 17 14 14 18 49 14 133 -1 11 -21 41 -46 65 l-45 44 0
220 0 220 -83 85 c-103 108 -113 120 -193 235 -36 52 -67 95 -70 95 -2 0 -4
-193 -4 -428z m123 158 c16 -19 61 -68 99 -108 l71 -72 0 -223 c0 -122 3 -226
7 -232 5 -5 9 -14 11 -20 3 -16 43 -55 57 -55 7 0 12 -14 12 -35 l0 -34 -202
2 -203 2 -3 23 c-3 22 37 72 58 72 29 0 32 42 35 400 1 179 3 329 3 333 2 9
14 -2 55 -53z"/>
<path d="M2155 2332 c-3 -9 -5 -74 -4 -145 l2 -130 -43 -39 c-44 -38 -44 -38
-44 -108 0 -108 -10 -104 265 -104 227 1 232 1 250 23 13 16 18 39 18 83 -1
59 -2 63 -45 104 -43 42 -44 45 -44 106 0 35 -4 68 -8 74 -6 10 -37 24 -67 30
-28 6 -133 50 -199 83 -62 31 -76 35 -81 23z m273 -172 c14 0 14 1 16 -65 3
-66 15 -115 28 -115 21 0 58 -51 58 -81 l0 -29 -200 0 -200 0 0 35 c0 23 5 35
14 35 7 0 16 9 19 21 3 12 10 18 15 15 12 -7 36 20 28 33 -4 5 -3 12 2 15 5 3
8 49 7 103 -1 54 0 101 2 104 1 4 47 -10 100 -32 54 -21 104 -39 111 -39z"/>
<path d="M3588 2326 c-26 -12 -54 -28 -62 -36 -9 -7 -16 -10 -16 -6 0 4 -11
-1 -24 -10 -14 -8 -29 -16 -33 -16 -4 0 -18 -4 -31 -9 -13 -5 -35 -12 -50 -16
-62 -15 -72 -29 -72 -106 0 -69 0 -70 -41 -108 -41 -38 -42 -40 -44 -109 -2
-106 -4 -106 265 -103 118 0 222 2 231 2 24 1 36 39 35 108 -1 60 -2 63 -46
103 l-45 42 -1 141 c-1 78 -6 142 -10 144 -5 1 -30 -8 -56 -21z m3 -93 c1 -5
3 -51 4 -103 2 -52 5 -106 9 -118 5 -25 50 -72 67 -72 5 0 9 -16 9 -35 l0 -35
-200 0 -200 0 0 35 c0 23 5 35 14 35 7 0 16 9 19 21 3 12 10 18 16 15 19 -12
32 31 35 117 1 31 7 61 12 66 7 7 64 29 94 36 3 1 25 11 50 23 47 23 69 27 71
15z"/>
<path d="M3047 2164 c-4 -4 -76 -7 -162 -6 -172 0 -160 6 -155 -69 1 -15 -6
-33 -15 -40 -35 -29 -69 -70 -72 -87 -14 -73 -2 -139 27 -150 34 -13 468 -6
485 8 8 7 13 16 10 20 -3 5 -2 11 3 14 7 4 7 68 -1 108 -4 20 -49 74 -68 80
-8 3 -16 27 -19 63 -5 54 -17 75 -33 59z m-31 -94 c1 -41 20 -78 56 -111 29
-27 39 -42 36 -60 l-3 -24 -200 0 c-200 0 -200 0 -203 23 -3 22 45 82 67 82 6
0 12 12 13 28 3 52 4 57 11 68 4 7 45 11 114 10 89 -1 108 -4 109 -16z"/>
<path d="M1253 1732 c-33 -5 -63 -49 -63 -93 0 -96 7 -98 351 -99 1434 -4
3001 2 3027 11 64 22 71 137 10 170 -18 11 -359 13 -1663 14 -902 0 -1650 -1
-1662 -3z m3298 -78 c9 -11 10 -20 2 -32 -9 -16 -131 -17 -1644 -18 -899 0
-1640 1 -1646 4 -14 4 -18 44 -6 55 3 4 743 7 1643 7 1482 0 1639 -2 1651 -16z"/>
<path d="M2028 1335 c-1 -2 -23 -6 -48 -9 -101 -12 -145 -33 -216 -101 -81
-79 -111 -151 -118 -280 -2 -44 1 -73 18 -151 17 -79 110 -190 195 -231 50
-25 67 -28 156 -28 90 0 106 3 155 28 63 32 94 58 131 107 71 97 95 178 86
292 -7 96 -20 135 -67 205 -59 88 -140 142 -237 159 -15 2 -33 6 -40 9 -6 2
-13 2 -15 0z m103 -110 c31 -22 50 -47 72 -93 27 -59 30 -74 32 -185 2 -131
-4 -170 -37 -232 -19 -36 -73 -94 -87 -95 -3 -1 -28 -7 -55 -14 -44 -11 -55
-11 -100 6 -28 11 -61 29 -74 41 -30 28 -68 111 -79 172 -8 47 -8 202 0 235
16 63 57 138 87 157 59 39 76 44 136 41 49 -3 71 -10 105 -33z"/>
<path d="M3795 1301 c-8 -17 -16 -33 -16 -36 0 -7 -27 -72 -50 -122 -10 -24
-19 -46 -19 -49 0 -4 -11 -30 -24 -58 -37 -77 -76 -166 -76 -172 0 -3 -8 -24
-19 -47 -10 -23 -29 -67 -42 -97 -26 -63 -58 -110 -74 -110 -6 0 -21 -7 -33
-16 -17 -11 -20 -19 -13 -32 8 -14 28 -17 120 -18 80 -1 115 2 128 12 17 13
17 15 -6 34 -12 11 -27 18 -31 15 -5 -3 -11 -1 -15 5 -4 6 -11 7 -17 4 -17
-11 -3 53 26 119 l26 58 136 -3 136 -3 26 -65 c38 -92 36 -106 -20 -124 -10
-3 -18 -14 -18 -25 0 -27 16 -29 165 -26 158 3 145 1 145 25 0 14 -12 25 -39
36 -48 19 -55 29 -115 174 -27 63 -57 135 -68 160 -11 24 -21 49 -22 55 -1 5
-10 25 -19 42 -10 18 -17 34 -16 35 0 2 -5 17 -11 33 -7 17 -16 39 -20 50 -68
176 -94 205 -125 146z m33 -259 c40 -97 63 -157 65 -167 1 -5 -39 -9 -96 -10
-113 0 -109 -6 -61 101 15 32 29 66 30 74 4 20 26 60 33 60 3 0 16 -26 29 -58z"/>
<path d="M791 1312 c-17 -6 -13 -39 5 -46 9 -3 26 -6 39 -6 48 0 50 -12 50
-329 0 -269 -1 -297 -17 -313 -10 -10 -27 -19 -38 -19 -11 -1 -26 -2 -32 -3
-14 -1 -24 -45 -11 -47 53 -7 308 -3 319 6 25 18 6 45 -32 45 -49 0 -55 20
-52 166 3 110 5 127 20 130 28 4 36 -6 198 -239 8 -12 21 -28 28 -35 7 -8 19
-27 27 -43 9 -16 19 -30 23 -30 4 -1 51 -2 105 -4 99 -2 124 6 112 37 -3 7
-27 20 -53 27 -26 8 -58 23 -71 35 -23 20 -91 109 -163 212 l-35 50 54 28 c74
39 113 102 113 181 0 83 -70 163 -161 185 -49 12 -399 22 -428 12z m374 -92
c45 -22 65 -59 65 -121 0 -75 -75 -139 -165 -139 l-45 0 0 133 c0 74 3 137 7
140 14 14 98 6 138 -13z"/>
<path d="M2530 1312 c-23 -8 -9 -41 23 -51 32 -11 97 -65 97 -80 0 -5 40 -69
89 -143 49 -74 95 -148 103 -164 15 -31 18 -199 4 -241 -7 -21 -31 -35 -68
-38 -26 -2 -34 -14 -22 -33 10 -15 32 -17 167 -17 145 -1 157 0 163 18 7 23 1
30 -34 35 -56 7 -66 30 -66 154 -1 127 -16 90 133 328 86 137 113 167 163 181
41 11 54 43 21 51 -28 7 -252 3 -259 -5 -13 -12 6 -38 36 -48 43 -16 39 -42
-25 -144 -30 -48 -55 -89 -55 -92 0 -10 -42 -63 -50 -63 -12 0 -170 251 -170
272 0 12 12 21 40 28 29 8 40 16 40 30 0 11 -3 20 -7 21 -21 3 -314 4 -323 1z"/>
<path d="M4349 1304 c-13 -16 15 -44 46 -44 54 0 55 -6 55 -328 0 -163 -4
-302 -8 -308 -7 -11 -20 -16 -74 -28 -30 -7 -33 -13 -18 -36 8 -12 53 -15 294
-15 277 -1 285 0 294 20 27 58 34 85 38 150 5 69 5 70 -13 48 -10 -12 -29 -40
-42 -62 -36 -59 -89 -78 -219 -76 -77 1 -106 5 -112 16 -5 7 -9 141 -10 296 0
271 0 283 20 303 11 11 33 20 49 20 35 0 68 27 52 43 -16 16 -339 17 -352 1z"/>
<path d="M3666 432 c-3 -3 -6 -18 -6 -33 0 -20 -4 -27 -14 -23 -8 3 -18 -1
-22 -8 -12 -18 -13 -230 -1 -246 22 -28 53 -12 112 60 56 67 60 70 66 47 3
-13 3 -33 -1 -44 -4 -11 -4 -31 0 -45 5 -20 12 -25 35 -25 l30 0 3 110 c3 134
0 153 -30 151 -18 -1 -22 4 -23 28 0 37 -18 43 -44 17 -29 -29 -26 -28 -50 -7
-23 21 -46 28 -55 18z m99 -110 c-12 -15 -34 -40 -49 -57 l-25 -30 -2 28 c-5
92 -5 92 50 89 l50 -4 -24 -26z"/>
<path d="M1995 367 c-35 -12 -47 -23 -68 -62 -19 -39 -16 -102 8 -139 40 -61
143 -75 197 -27 28 25 30 31 19 45 -16 19 -35 20 -64 4 -53 -30 -107 -1 -101
54 8 62 58 86 109 52 19 -12 28 -13 45 -4 70 38 -60 107 -145 77z"/>
<path d="M2350 370 c-7 -4 -10 -18 -8 -31 2 -20 10 -25 44 -29 l41 -5 -1 -78
c-1 -90 6 -117 32 -117 34 0 42 21 42 112 l0 88 39 0 c29 0 40 4 44 19 10 38
-7 45 -117 46 -58 1 -110 -1 -116 -5z"/>
<path d="M2762 367 c-7 -8 -10 -74 -9 -177 l2 -165 24 -3 c32 -5 44 10 46 55
l1 38 51 -3 c67 -5 109 17 133 69 50 113 -48 230 -160 191 -16 -6 -31 -8 -34
-4 -12 12 -44 11 -54 -1z m159 -68 c27 -14 41 -53 29 -83 -12 -34 -66 -51 -97
-31 -12 9 -23 19 -24 23 0 4 -2 18 -4 32 -3 29 30 70 57 70 11 0 28 -5 39 -11z"/>
<path d="M3254 361 c-49 -22 -72 -62 -71 -123 1 -105 110 -161 208 -106 55 31
74 102 45 171 -27 65 -110 92 -182 58z m104 -67 c32 -22 30 -76 -3 -102 -14
-11 -33 -19 -43 -17 -9 2 -20 4 -24 4 -4 1 -16 14 -28 31 -19 27 -20 31 -6 59
23 43 64 54 104 25z"/>
<path d="M998 282 c-58 -4 -80 -30 -51 -59 17 -17 47 -18 388 -17 l370 0 12
25 c24 47 14 49 -342 52 -182 1 -351 1 -377 -1z"/>
<path d="M4138 282 c-57 -2 -70 -6 -79 -24 -9 -16 -8 -24 4 -36 14 -13 67 -15
387 -16 335 -1 373 1 387 16 11 13 12 21 3 37 -6 12 -16 21 -23 21 -79 3 -629
4 -679 2z"/>
</g>
</svg>
