<svg width="63" height="63" viewBox="0 0 63 63" fill="none" xmlns="http://www.w3.org/2000/svg">
<g clip-path="url(#clip0_1949_160)">
<path d="M63 31.5C63 14.103 48.897 0 31.5 0C14.103 0 0 14.103 0 31.5C0 48.897 14.103 63 31.5 63C48.897 63 63 48.897 63 31.5Z" fill="black"/>
<path d="M59.3086 31.5C59.3086 46.8582 46.8582 59.3086 31.5 59.3086C16.1417 59.3086 3.69141 46.8582 3.69141 31.5C3.69141 16.1417 16.1417 3.69141 31.5 3.69141C46.8582 3.69141 59.3086 16.1417 59.3086 31.5ZM6.47227 31.5C6.47227 45.3223 17.6776 56.5277 31.5 56.5277C45.3223 56.5277 56.5277 45.3223 56.5277 31.5C56.5277 17.6776 45.3223 6.47227 31.5 6.47227C17.6776 6.47227 6.47227 17.6776 6.47227 31.5Z" fill="#00C0C5"/>
<mask id="mask0_1949_160" style="mask-type:luminance" maskUnits="userSpaceOnUse" x="15" y="15" width="33" height="34">
<path d="M48 15H15V48.6346H48V15Z" fill="white"/>
</mask>
<g mask="url(#mask0_1949_160)">
<path d="M1 8.6482C15.8094 25.1173 46.1906 25.1173 61 8.6482V1C46.1906 22.9536 15.8094 22.9536 1 1C1 3.54387 1 6.08779 1 8.6482Z" fill="white"/>
<path d="M1 21.3638C16.303 28.8787 47.6969 28.8787 63 21.3638V13C47.6969 26.4942 16.303 26.4942 1 13C1 15.782 1 18.5639 1 21.3638Z" fill="white"/>
<path d="M-18 36C5.69499 32.7734 54.3049 32.7734 78 36V27C54.3049 30.2266 5.69499 30.2266 -18 27C-18 29.9934 -18 32.9874 -18 36Z" fill="white"/>
<path d="M-9 49C10.9927 37.4336 52.0073 37.4336 72 49V41.831C52.0073 35.3897 10.9927 35.3897 -9 41.831C-9 44.2157 -9 46.5999 -9 49Z" fill="white"/>
<path d="M-5 60C12.7712 41.3398 49.2287 41.3398 67 60V53.499C49.2287 39.5003 12.7712 39.5003 -5 53.499C-5 55.6615 -5 57.8236 -5 60Z" fill="white"/>
<path fill-rule="evenodd" clip-rule="evenodd" d="M14.6133 24.8191H17.9555V33.183H14.6133V24.8191ZM48.0359 39.874H44.6935V33.183H48.0359V39.874Z" fill="white"/>
</g>
</g>
<defs>
<clipPath id="clip0_1949_160">
<rect width="63" height="63" fill="white"/>
</clipPath>
</defs>
</svg>
