<svg width="440" height="360" viewBox="0 0 440 360" fill="none" xmlns="http://www.w3.org/2000/svg">
<path d="M65.7399 350.003C64.6645 349.081 62.271 346.162 64.1227 342.774C64.7939 341.528 66.2332 340.914 67.5351 340.348C68.8741 339.894 70.1365 339.24 71.279 338.407C73.3086 336.677 73.8666 333.814 75.2169 331.509C76.7614 328.865 79.6482 326.884 82.6967 327.022C86.1899 327.183 89.1009 330.03 90.427 333.288C91.7532 336.547 91.7936 340.146 91.8179 343.663C91.8179 345.604 91.7451 347.795 90.3219 349.105C88.8988 350.415 87.0228 350.326 85.2438 350.277L66.1604 349.687" fill="#F5F5F5"/>
<path d="M68.5648 297.515H18.3335L27.3738 351.426C27.5608 352.55 28.0628 353.597 28.8213 354.448C29.5799 355.298 30.564 355.915 31.6595 356.229L31.8374 356.277C31.9834 356.324 32.1318 356.361 32.2821 356.391C32.6177 356.46 32.9586 356.5 33.301 356.512V356.56L33.5436 356.52H55.9666C56.3793 356.52 56.791 356.48 57.1956 356.399C58.5007 356.196 59.7036 355.572 60.6206 354.621C61.5375 353.671 62.1181 352.446 62.2738 351.135L66.6322 313.987L66.8263 312.507L68.5567 297.79L68.5648 297.515ZM59.0959 331.906H53.9127L54.4625 316.291H60.4301L59.0959 331.906ZM60.9315 316.291H65.864L64.0285 331.938H59.573L60.9315 316.291ZM46.2146 349.283L45.8993 335.698H53.3143L52.8695 349.291L46.2146 349.283ZM38.1931 335.698H45.3979L45.7133 349.291H39.2443L38.1931 335.698ZM38.7511 349.291H32.7107C32.1366 345.62 31.3846 340.849 30.576 335.698H37.6918L38.7511 349.291ZM37.9425 331.946L36.6891 316.291H44.9532L45.3171 331.938L37.9425 331.946ZM45.8507 331.946L45.4545 316.291H53.9612L53.4437 331.938L45.8507 331.946ZM45.406 312.539L45.0179 298.016H54.5676L54.0906 312.507L45.406 312.539ZM44.9047 312.539H36.3899L35.2659 298.016H44.5327L44.9047 312.539ZM35.9371 312.539H26.9291C26.6137 310.534 26.3065 308.642 26.0396 306.936C25.1016 301.081 24.7539 298.849 24.5599 298.041H34.7646L35.9371 312.539ZM36.2282 316.291L37.4411 331.938H29.9857C29.735 330.321 29.4843 328.744 29.2337 327.135C28.6515 323.439 28.0693 319.752 27.5194 316.291H36.2282ZM29.5248 331.938H24.6731L22.0127 316.291H27.018C27.7862 321.094 28.6272 326.48 29.4843 331.906L29.5248 331.938ZM30.1151 335.69C30.8509 340.396 31.5786 345.029 32.2417 349.283H27.5517L25.2714 335.698L30.1151 335.69ZM53.4032 349.283L53.8156 335.698H58.7644L57.6 349.291L53.4032 349.283ZM54.6242 312.539L55.1094 298.049H61.9988L60.7617 312.539H54.6242ZM24.0828 298.016C24.2768 299.06 25.1987 304.768 26.4197 312.507H21.382L18.9561 298.016H24.0828ZM61.9988 349.25H58.1175L59.2738 335.698H63.6161L61.9988 349.25ZM66.3088 312.507H61.2468L62.484 298.016H67.9988L66.3088 312.507Z" fill="#E0E0E0"/>
<path d="M124.61 8.1189H43.667V125.441H124.61V8.1189Z" fill="#E0E0E0"/>
<path d="M120.558 8.1189H39.6152V125.441H120.558V8.1189Z" fill="#F5F5F5"/>
<path d="M110.499 20.8225H49.6665V112.73H110.499V20.8225Z" fill="white"/>
<path d="M110.499 112.73C110.499 112.73 110.499 112.576 110.499 112.277C110.499 111.978 110.499 111.541 110.499 110.975C110.499 109.819 110.499 108.129 110.499 105.938C110.499 101.531 110.499 95.1101 110.442 87.0078C110.442 70.8354 110.386 47.8464 110.345 20.8224L110.548 21.0246H49.7234L49.9498 20.8063C49.9498 55.4798 49.9498 87.4444 49.9013 112.714L49.7234 112.536L94.0033 112.633L106.238 112.673H109.472C110.192 112.673 110.58 112.673 110.58 112.673C110.58 112.673 110.224 112.673 109.504 112.673H106.327L94.1326 112.714L49.7476 112.811H49.5778V112.633C49.5778 87.3636 49.5778 55.3989 49.5293 20.7254V20.5071H49.7557H110.58H110.782V20.7092C110.742 47.7898 110.709 70.7869 110.685 87.0159C110.685 95.102 110.637 101.506 110.628 105.905C110.628 108.08 110.628 109.754 110.628 110.902C110.628 111.46 110.628 111.889 110.628 112.18C110.628 112.471 110.499 112.73 110.499 112.73Z" fill="#E0E0E0"/>
<path d="M120.785 8.1189C120.359 8.85422 119.875 9.55453 119.338 10.2132C118.4 11.4666 117.065 13.1808 115.545 15.0649C114.025 16.949 112.594 18.5501 111.543 19.7145C111.004 20.3695 110.409 20.9756 109.764 21.5258C110.22 20.8117 110.737 20.1381 111.308 19.5123C112.392 18.1943 113.734 16.5689 115.206 14.7819L119.095 10.0515C119.602 9.35968 120.167 8.71306 120.785 8.1189Z" fill="#E0E0E0"/>
<path d="M128.052 112.431C131.077 117.24 134.636 121.691 138.661 125.7Z" fill="white"/>
<path d="M138.661 125.7C137.989 125.206 137.371 124.643 136.818 124.018C135.389 122.588 134.04 121.082 132.774 119.506C131.515 117.935 130.338 116.3 129.249 114.606C128.761 113.926 128.347 113.197 128.012 112.431C128.558 113.062 129.058 113.733 129.508 114.436C130.397 115.689 131.651 117.396 133.114 119.231C134.578 121.067 135.977 122.66 137.004 123.808C137.6 124.399 138.154 125.031 138.661 125.7Z" fill="#E0E0E0"/>
<path d="M56.8457 125.344L67.4467 112.261Z" fill="white"/>
<path d="M67.4467 112.261C65.8598 114.578 64.1484 116.808 62.3201 118.94C60.6087 121.169 58.7814 123.307 56.8458 125.344C56.7568 125.272 59.0533 122.28 61.9805 118.665C63.6936 116.44 65.518 114.302 67.4467 112.261Z" fill="#E0E0E0"/>
<path d="M39.6001 8.1189C41.4233 10.0737 43.14 12.1252 44.7429 14.2644C46.46 16.318 48.0635 18.4641 49.5461 20.6929C47.7366 18.7365 46.036 16.6822 44.4518 14.5393C42.7184 12.4895 41.0988 10.3461 39.6001 8.1189Z" fill="#E0E0E0"/>
<path d="M91.5458 39.4854H71.1768V97.3177H91.5458V39.4854Z" fill="#E0E0E0"/>
<path d="M405.715 0.259277H329.309V79.9081H405.715V0.259277Z" fill="#E0E0E0"/>
<path d="M400.539 0.259277H324.133V79.9081H400.539V0.259277Z" fill="#FAFAFA"/>
<path d="M400.565 79.9324H324.151V0.235107H400.565V79.9324ZM324.151 79.8839H400.509V0.283626H324.151V79.8839Z" fill="#E0E0E0"/>
<path d="M390.271 10.9653H334.403V69.202H390.271V10.9653Z" fill="white"/>
<path d="M316.153 69.5901C315.758 70.1801 315.297 70.7227 314.778 71.2073C313.881 72.1453 312.627 73.4229 311.228 74.8057C309.829 76.1884 308.527 77.4256 307.573 78.2989C307.089 78.8087 306.546 79.2592 305.956 79.6412C306.353 79.0527 306.814 78.5102 307.331 78.024C308.22 77.086 309.482 75.8084 310.889 74.4175C312.296 73.0267 313.597 71.7895 314.544 70.9162C315.024 70.4109 315.565 69.9656 316.153 69.5901Z" fill="#E0E0E0"/>
<path d="M390.271 69.4446C390.863 69.8366 391.406 70.2981 391.888 70.8192C392.834 71.7168 394.104 72.9702 395.487 74.3771C396.869 75.7841 398.106 77.0698 398.988 78.024C399.498 78.5081 399.948 79.051 400.33 79.6412C399.74 79.2465 399.198 78.7853 398.713 78.2666C397.775 77.3771 396.497 76.1157 395.107 74.7087C393.716 73.3017 392.487 71.9998 391.605 71.0537C391.1 70.5705 390.652 70.0305 390.271 69.4446Z" fill="#E0E0E0"/>
<path d="M390.116 11.119C390.513 10.5285 390.977 9.98578 391.499 9.50178C392.388 8.5557 393.642 7.28617 395.049 5.90343C396.456 4.5207 397.741 3.28351 398.696 2.41021C399.179 1.89686 399.722 1.44347 400.313 1.05981C399.921 1.65225 399.46 2.19526 398.938 2.67705C398.049 3.61505 396.787 4.89266 395.38 6.28348C393.973 7.6743 392.68 8.9034 391.725 9.7848C391.244 10.2922 390.704 10.7402 390.116 11.119Z" fill="#E0E0E0"/>
<path d="M334.192 11.2645C333.601 10.8675 333.059 10.4035 332.575 9.8818C331.637 8.99232 330.359 7.73897 328.976 6.33197C327.594 4.92498 326.357 3.63119 325.483 2.68511C324.97 2.20212 324.516 1.65914 324.133 1.06787C324.725 1.45933 325.268 1.92089 325.75 2.44252C326.688 3.332 327.966 4.58536 329.356 6.00044C330.747 7.41552 331.976 8.70122 332.858 9.65539C333.368 10.1337 333.816 10.6744 334.192 11.2645Z" fill="#E0E0E0"/>
<path d="M390.117 69.2019C390.117 69.2019 390.117 69.0968 390.117 68.9189C390.117 68.741 390.117 68.4499 390.117 68.1103C390.117 67.3825 390.117 66.3313 390.117 64.9647C390.117 62.2074 390.117 58.1966 390.06 53.1023C390.06 42.8976 389.995 28.3667 389.947 10.9734L390.165 11.1836H334.459L334.71 10.941C334.71 32.3128 334.71 52.3099 334.67 69.1615L334.459 68.9431L374.801 69.0563L386.122 69.113H389.122H389.931C390.019 69.1063 390.109 69.1063 390.197 69.113H389.955H389.203H386.243L374.963 69.1696L334.484 69.2747H334.273V69.0644C334.273 52.1967 334.273 32.1996 334.273 10.844V10.7146H334.524H390.23H390.448V10.9329C390.4 28.3829 390.359 42.9623 390.335 53.1994C390.335 58.2694 390.335 62.272 390.278 65.0133C390.278 66.361 390.278 67.396 390.278 68.1183C390.278 68.458 390.278 68.7167 390.278 68.927C390.234 69.0237 390.179 69.1158 390.117 69.2019Z" fill="#E0E0E0"/>
<path d="M371.656 30.7605H353.017V49.3991H371.656V30.7605Z" fill="#EBEBEB"/>
<path d="M265.768 330.992V355.339H301.371H340.646V330.992H265.768Z" fill="#F5F5F5"/>
<path d="M262.622 324.183V330.992H343.257V324.183H301.371H262.622Z" fill="#E0E0E0"/>
<path d="M302.94 355.339H340.646V330.992H343.257V324.183H301.371V330.361L302.94 355.339Z" fill="#E0E0E0"/>
<path d="M291.426 334.914H276.24V338.577H291.426V334.914Z" fill="#E0E0E0"/>
<path d="M293.779 343.162H274.283V350.9H293.779V343.162Z" fill="white"/>
<path d="M277.283 299.868V324.216H312.894H352.161V299.868H277.283Z" fill="#F5F5F5"/>
<path d="M274.5 293.06V299.868H355.144V293.06H313.249H274.5Z" fill="#EBEBEB"/>
<path d="M314.463 324.216H352.524V299.868H354.78V293.06H312.894V299.238L314.463 324.216Z" fill="#EBEBEB"/>
<path d="M302.94 303.79H287.754V307.453H302.94V303.79Z" fill="#E0E0E0"/>
<path d="M305.3 312.038H285.805V319.777H305.3V312.038Z" fill="white"/>
<path d="M440 356.14C440 356.253 341.493 356.35 220.009 356.35C98.5261 356.35 0 356.253 0 356.14C0 356.027 98.4885 355.913 220 355.913C341.511 355.913 440 356.018 440 356.14Z" fill="#263238"/>
<path d="M218.36 153.266V154.075H215.125V153.436L216.985 151.236H215.174V150.428H218.32V151.067L216.46 153.266H218.36Z" fill="#263238"/>
<path d="M212.433 149.716V151.624H204.824V150.129L209.174 144.986H204.937V143.077H212.303V144.573L207.937 149.716H212.433Z" fill="#263238"/>
<path d="M201.533 145.341V149.182H186.169V146.174L194.942 135.8H186.395V131.927H201.242V134.935L192.476 145.309L201.533 145.341Z" fill="#263238"/>
<path d="M130.025 281.804H120.047V329.73H130.025V281.804Z" fill="#E0E0E0"/>
<path d="M89.3438 275.634C89.5055 275.634 120.071 285.216 120.071 285.216H130.041L165.047 275.634H89.3438Z" fill="#E0E0E0"/>
<path d="M61.454 114.889C57.0309 115.884 53.0768 119.967 53.7398 128.118C53.7398 128.118 50.2143 128.781 50.4326 135.177C50.6509 141.573 49.9959 181.268 57.9285 202.858C64.454 220.608 75.7181 258.572 79.5509 271.534C79.9297 272.817 80.7133 273.942 81.7845 274.742C82.8557 275.542 84.1571 275.974 85.4942 275.974H171.79C173.31 275.968 174.813 275.657 176.21 275.058C177.607 274.459 178.87 273.585 179.922 272.488C180.973 271.39 181.794 270.093 182.333 268.671C182.873 267.25 183.121 265.735 183.062 264.216C182.93 261.29 181.67 258.53 179.545 256.513C177.421 254.497 174.597 253.383 171.669 253.405L108.742 254.06C108.742 254.06 104.885 233.279 100.915 233.036C100.915 233.036 102.677 220.025 96.0629 216.282C96.0629 216.282 97.3809 200.222 90.3298 198.775C90.3298 198.775 91.4295 185.336 85.4781 182.95C85.4781 182.95 88.7853 170.861 82.6156 164.692C82.6156 164.692 84.3783 150.581 82.6156 139.997C80.8528 129.412 80.2059 110.708 61.454 114.889Z" fill="#455A64"/>
<path d="M176.213 265.526C176.213 265.526 176.068 265.526 175.776 265.526H174.499L169.542 265.567L151.065 265.623L87.8393 265.696H87.6938L87.6452 265.559L78.7505 239.764C73.5834 224.651 68.6913 210.241 64.3813 197.093C63.3059 193.802 62.2708 190.624 61.3005 187.454C60.7978 185.915 60.3821 184.35 60.0552 182.764C59.8886 181.99 59.7644 181.207 59.6833 180.419C59.5943 179.611 59.4568 178.867 59.4083 178.099C58.8504 171.961 58.721 166.22 58.5997 160.988C58.4622 150.525 58.5997 142.05 58.7453 136.204C58.8261 133.285 58.8908 131.021 58.9312 129.468L59.004 127.714C59.004 127.317 59.0444 127.123 59.0444 127.123C59.0444 127.123 59.0444 127.325 59.0444 127.714C59.0444 128.102 59.0444 128.708 59.0444 129.468C59.0444 131.021 58.9798 133.293 58.9312 136.204C58.8504 142.058 58.7453 150.525 58.9312 160.988C59.0444 166.212 59.19 171.945 59.7399 178.066C59.7965 178.875 59.9258 179.594 60.0148 180.371C60.0981 181.151 60.225 181.926 60.3948 182.691C60.7384 184.278 61.1731 185.844 61.6967 187.381C62.6671 190.511 63.7102 193.713 64.7937 197.004C69.1198 210.144 74.0281 224.546 79.1871 239.659C82.2599 248.553 85.2356 257.27 88.0819 265.462L87.8878 265.324L151.114 265.397L169.591 265.453H174.547H175.825C176.068 265.51 176.213 265.526 176.213 265.526Z" fill="#263238"/>
<path d="M99.3544 254.157C99.1093 254.418 98.8383 254.654 98.5458 254.861C98.004 255.289 97.2358 255.936 96.314 256.745C93.9079 258.865 91.6694 261.169 89.6186 263.634C87.5697 266.1 85.7049 268.714 84.0392 271.454C83.4004 272.505 82.899 273.37 82.5675 273.976C82.41 274.299 82.2203 274.605 82.0015 274.89C82.1073 274.548 82.2482 274.217 82.4219 273.904C82.713 273.273 83.174 272.383 83.7804 271.308C85.3822 268.502 87.2275 265.842 89.2952 263.359C91.3552 260.874 93.6398 258.584 96.1199 256.518C97.0741 255.71 97.8746 255.119 98.4407 254.731C98.7238 254.508 99.0301 254.315 99.3544 254.157Z" fill="#263238"/>
<path d="M108.743 254.028C108.743 254.028 108.532 254.028 108.12 254.028L106.309 254.076L99.3545 254.189H99.2655V254.1L99.12 253.243C99.0327 252.967 98.9273 252.697 98.8046 252.435C98.5191 251.868 98.0227 251.435 97.4219 251.23C96.0137 250.926 94.5427 251.16 93.298 251.885L93.0068 252.022L93.112 251.723C94.0879 248.871 94.2282 245.798 93.5163 242.869C92.7145 239.412 90.7858 236.32 88.0339 234.079L87.9287 233.998L87.9772 233.877C88.8456 231.409 88.9633 228.74 88.3157 226.206C87.6681 223.671 86.2841 221.386 84.3385 219.637L84.2334 219.556L84.2819 219.427C85.3329 216.019 85.2726 212.366 84.1097 208.995C82.9467 205.624 80.7415 202.71 77.8129 200.675L77.7159 200.61V200.497C77.7808 198.266 77.7106 196.033 77.5057 193.81C77.313 191.537 76.8931 189.288 76.2523 187.098C75.5892 184.98 74.5865 182.861 72.8157 181.632L72.6863 181.543L72.7348 181.398C73.6728 178.149 74.0421 174.762 73.8264 171.387C73.6989 169.785 73.3562 168.208 72.8076 166.697C72.2438 165.244 71.422 163.904 70.3817 162.743L70.2847 162.63L70.3575 162.508C72.1309 159.693 73.1037 156.447 73.1715 153.12C73.1846 150.116 72.2069 147.192 70.3898 144.8V144.751V144.695C70.4892 140.701 69.6848 136.738 68.0367 133.099C67.3304 131.626 66.3155 130.321 65.061 129.274C63.9909 128.413 62.738 127.807 61.398 127.503C60.3201 127.272 59.2145 127.195 58.115 127.277L56.797 127.422L55.7134 127.641C55.0665 127.762 54.5894 127.94 54.266 128.013C53.9425 128.086 53.7646 128.134 53.7646 128.134C54.3957 127.907 55.038 127.713 55.6892 127.552L56.7727 127.309L58.1069 127.139C59.2183 127.042 60.3379 127.107 61.4303 127.334C62.8072 127.622 64.0975 128.229 65.1985 129.104C66.4884 130.162 67.5339 131.486 68.2632 132.986C69.9502 136.657 70.7797 140.664 70.689 144.703V144.606C72.5612 147.049 73.5733 150.042 73.5677 153.12C73.5091 156.519 72.5251 159.837 70.7214 162.719V162.484C71.7932 163.672 72.6447 165.041 73.2362 166.527C73.8067 168.089 74.1604 169.721 74.2874 171.379C74.5189 174.807 74.1495 178.25 73.1957 181.551L73.0178 181.252C74.9343 182.586 75.945 184.786 76.6243 186.912C77.2833 189.126 77.7115 191.403 77.9019 193.705C78.1083 195.946 78.1758 198.199 78.104 200.449L78.0151 200.263C81.0228 202.345 83.2882 205.332 84.4821 208.79C85.6759 212.249 85.7361 215.997 84.6538 219.492L84.5972 219.273C86.601 221.081 88.0204 223.445 88.6743 226.064C89.3282 228.682 89.1869 231.436 88.2683 233.974L88.2117 233.772C91.0213 236.061 92.9805 239.228 93.775 242.764C94.4903 245.751 94.3303 248.881 93.3141 251.78L93.1362 251.618C93.8251 251.278 94.5568 251.034 95.3114 250.89C96.0239 250.732 96.7653 250.763 97.4623 250.979C97.8001 251.101 98.1092 251.291 98.3707 251.537C98.6321 251.784 98.8404 252.081 98.9825 252.41C99.1116 252.699 99.2197 252.996 99.306 253.3L99.4515 254.189L99.3545 254.1H106.309H108.12L108.743 254.028Z" fill="#263238"/>
<g opacity="0.3">
<path d="M97.1945 216.023L68.335 219.742C68.7693 220.509 69.3745 221.166 70.1038 221.661C70.8331 222.156 71.6666 222.476 72.5398 222.597C74.2849 222.816 76.0527 222.781 77.7877 222.492C85.2597 221.681 92.7806 221.41 100.292 221.683C99.45 219.698 98.4125 217.802 97.1945 216.023Z" fill="black"/>
</g>
<path d="M82.9313 163.131C80.9423 163.391 78.9371 163.507 76.9314 163.479C74.9291 163.586 72.922 163.559 70.9233 163.398C72.9123 163.138 74.9175 163.021 76.9233 163.05C78.9255 162.943 80.9327 162.97 82.9313 163.131Z" fill="#263238"/>
<path d="M82.6646 348.636C82.6646 348.636 87.2818 334.55 93.6456 331.137C103.866 325.663 127.438 323.051 127.438 323.051L130.017 329.714C130.017 329.714 98.5862 330.951 93.6294 337.291C90.803 340.924 88.1687 344.703 85.7373 348.612L82.6646 348.636Z" fill="#E0E0E0"/>
<path d="M86.6916 356.116C90.3759 356.116 93.3627 353.129 93.3627 349.445C93.3627 345.76 90.3759 342.773 86.6916 342.773C83.0073 342.773 80.0205 345.76 80.0205 349.445C80.0205 353.129 83.0073 356.116 86.6916 356.116Z" fill="#263238"/>
<path d="M167.852 348.385C167.852 348.385 163.235 334.299 156.871 330.887C146.65 325.413 123.087 322.801 123.087 322.801L120.5 329.464C120.5 329.464 151.93 330.701 156.887 337.049C159.715 340.681 162.349 344.46 164.779 348.369L167.852 348.385Z" fill="#E0E0E0"/>
<path d="M165.5 356.116C169.184 356.116 172.171 353.129 172.171 349.445C172.171 345.76 169.184 342.773 165.5 342.773C161.815 342.773 158.829 345.76 158.829 349.445C158.829 353.129 161.815 356.116 165.5 356.116Z" fill="#263238"/>
<path d="M121.591 326.642L123.054 344.771L127.178 345.588V326.642" fill="#E0E0E0"/>
<path d="M125.028 356.116C128.712 356.116 131.699 353.129 131.699 349.445C131.699 345.76 128.712 342.773 125.028 342.773C121.343 342.773 118.356 345.76 118.356 349.445C118.356 353.129 121.343 356.116 125.028 356.116Z" fill="#263238"/>
<path d="M75.4443 184.681C77.0469 184.138 78.6912 183.727 80.3607 183.452C82.0039 183.044 83.6781 182.774 85.3661 182.643C83.7639 183.187 82.1195 183.599 80.4497 183.872C78.8062 184.278 77.1321 184.549 75.4443 184.681Z" fill="#263238"/>
<path d="M89.7399 198.791C89.2127 199.04 88.6555 199.219 88.0822 199.325C87.0391 199.592 85.5916 199.899 83.9744 200.134C82.3572 200.368 80.8855 200.538 79.8181 200.603C79.2412 200.68 78.6565 200.68 78.0796 200.603C78.0796 200.481 80.6995 200.231 83.9097 199.721C87.1199 199.212 89.7075 198.678 89.7399 198.791Z" fill="#263238"/>
<path d="M101.659 233.74C101.031 233.914 100.385 234.012 99.7342 234.031C98.5375 234.152 96.8798 234.257 95.0442 234.314C93.2087 234.37 91.551 234.314 90.3462 234.314C89.6968 234.33 89.0479 234.268 88.4136 234.128C89.0551 234.026 89.7052 233.988 90.3543 234.015L95.0362 233.909L99.71 233.748C100.358 233.68 101.01 233.677 101.659 233.74Z" fill="#263238"/>
<path d="M105.015 246.403C105.015 246.532 102.33 247.114 99.2008 248.448C96.0715 249.783 93.7588 251.303 93.686 251.198C94.1132 250.76 94.6039 250.389 95.1415 250.098C96.3827 249.313 97.6862 248.631 99.0391 248.06C100.389 247.485 101.784 247.025 103.212 246.686C103.798 246.512 104.404 246.417 105.015 246.403Z" fill="#263238"/>
<path d="M158.965 276.127C158.965 276.24 143.06 276.305 123.443 276.257C103.826 276.208 87.9121 276.095 87.9121 275.974C87.9121 275.852 103.818 275.796 123.443 275.836C143.068 275.877 158.965 276.006 158.965 276.127Z" fill="#263238"/>
<path d="M129.524 285.564C127.951 285.777 126.362 285.847 124.777 285.774C123.189 285.847 121.598 285.777 120.022 285.564C121.598 285.356 123.189 285.286 124.777 285.354C126.362 285.286 127.951 285.356 129.524 285.564Z" fill="#263238"/>
<path d="M129.977 324.2C128.518 325.022 126.879 325.474 125.205 325.518C123.531 325.562 121.871 325.195 120.371 324.45C121.957 324.854 123.585 325.071 125.222 325.097C126.836 324.982 128.432 324.681 129.977 324.2Z" fill="#263238"/>
<path d="M228.208 174.403C228.208 174.403 224.407 168.573 222.208 166.584C220.51 165.056 212.27 162.023 208.567 160.705C207.379 160.286 206.13 160.067 204.871 160.058C200.019 160.01 187.195 160.058 180.661 161.223C172.518 162.711 226.542 205.195 226.542 205.195L271.542 205.3L274.485 194.19L244.445 187.988L227.868 174.84" fill="#E0E0E0"/>
<g opacity="0.3">
<path d="M193.098 162.759C193.098 162.759 196.073 162.905 200.222 163.568C204.37 164.231 208.922 164.441 211.203 166.463C212.731 167.813 222.078 168.08 222.078 168.08L209.141 167.603L193.098 162.759Z" fill="black"/>
</g>
<path d="M188.828 161.692C189.101 161.688 189.373 161.721 189.637 161.789C190.162 161.886 190.931 162.039 191.86 162.274C193.728 162.735 196.284 163.446 199.089 164.287L202.186 165.25H202.138C204.247 165.343 206.343 165.639 208.397 166.131C208.568 166.448 208.698 166.784 208.785 167.134C208.569 166.847 208.384 166.538 208.235 166.212L208.283 166.26C206.226 165.914 204.149 165.696 202.065 165.605H202.017L198.912 164.667L191.731 162.541L189.548 161.918C189.299 161.873 189.058 161.797 188.828 161.692Z" fill="#263238"/>
<path d="M306.385 204.88C306.45 204.54 305.496 200.667 305.399 200.279C305.302 199.891 302.342 195.427 302.342 195.427L300.725 194.934C300.725 194.934 293.205 193.147 291.685 193.252L290.625 193.365C290.625 193.365 288.652 193.511 287.876 193.648C287.1 193.786 282.288 195.476 282.288 195.476C281.109 195.725 279.901 195.815 278.698 195.743C277.039 195.474 275.395 195.117 273.774 194.675L271.849 205.268L275.488 205.155C276.624 205.558 277.796 205.848 278.989 206.02C280.299 206.109 284.011 206.513 284.011 206.513C284.011 206.513 289.744 208.939 291.183 205.559C292.622 202.179 287.092 201.831 287.092 201.831L288.806 200.619L293.197 200.166L294.337 200.53L295.59 202.47C295.59 202.47 295.25 206.756 298.016 206.465L298.744 206.384L299.132 201.985L297.822 197.538L300.717 201.928C300.717 201.928 300.967 205.729 302.221 206.222C302.317 206.266 302.423 206.285 302.528 206.279C304.048 206.23 304.347 205.802 304.347 205.802L304.663 205.034C304.663 205.034 306.167 206.036 306.385 204.88Z" fill="#FFBF9D"/>
<path d="M289.946 193.381C290.403 193.315 290.869 193.334 291.32 193.438C292.431 193.588 293.518 193.879 294.555 194.303C295.612 194.71 296.549 195.378 297.28 196.244C297.602 196.591 297.811 197.028 297.878 197.497C297.805 197.497 297.603 197.036 297.069 196.438C296.314 195.673 295.405 195.077 294.401 194.691C292.024 193.745 289.921 193.535 289.946 193.381Z" fill="#FF9A6C"/>
<path d="M292.776 198.007C292.889 198.007 292.97 198.468 293.026 199.017C293.083 199.567 293.099 200.036 292.986 200.069C292.873 200.101 292.67 199.648 292.606 199.066C292.541 198.484 292.654 197.999 292.776 198.007Z" fill="#FF9A6C"/>
<path d="M289.945 198.152C290.034 198.072 290.835 198.961 292.112 199.576C293.39 200.19 294.538 200.384 294.538 200.481C293.627 200.611 292.699 200.423 291.91 199.947C291.065 199.598 290.369 198.963 289.945 198.152Z" fill="#FF9A6C"/>
<path d="M280.776 198.549C281.182 198.583 281.572 198.723 281.908 198.953C282.769 199.426 283.508 200.093 284.067 200.902C284.24 201.161 284.397 201.431 284.536 201.71L284.318 201.597C285.37 201.386 286.461 201.478 287.463 201.864C286.434 201.848 285.406 201.894 284.382 202.001H284.237L284.164 201.872C284.031 201.613 283.882 201.362 283.719 201.12C282.91 200.084 281.911 199.212 280.776 198.549Z" fill="#FF9A6C"/>
<path d="M300.886 194.894C301.315 195.237 301.684 195.649 301.977 196.115C302.751 197.191 303.376 198.365 303.837 199.608C304.302 200.85 304.593 202.151 304.702 203.473C304.795 204.008 304.795 204.555 304.702 205.09C304.454 203.273 304.042 201.481 303.473 199.737C302.756 198.049 301.89 196.428 300.886 194.894Z" fill="#FF9A6C"/>
<path d="M229.259 321.774L228.45 343.655C228.45 343.655 250.388 351.871 250.63 355.914L208.146 355.825L208.057 321.669L229.259 321.774Z" fill="#455A64"/>
<path d="M215.334 341.787C214.926 341.91 214.578 342.179 214.357 342.544C214.136 342.908 214.058 343.341 214.138 343.76C214.243 344.175 214.505 344.532 214.868 344.758C215.231 344.984 215.668 345.061 216.086 344.973C216.52 344.841 216.889 344.553 217.122 344.165C217.355 343.776 217.436 343.315 217.348 342.871C217.189 342.452 216.875 342.112 216.472 341.919C216.068 341.726 215.606 341.696 215.181 341.836" fill="#E0E0E0"/>
<path d="M208.146 355.817L208.275 352.372L248.957 353.746C248.957 353.746 250.841 354.555 250.631 355.905L208.146 355.817Z" fill="#263238"/>
<path d="M229.12 343.437C229.12 343.647 228.069 343.736 227.05 344.399C226.032 345.062 225.482 345.935 225.288 345.855C225.094 345.774 225.409 344.577 226.662 343.793C227.916 343.008 229.161 343.251 229.12 343.437Z" fill="white"/>
<path d="M233.568 345.288C233.617 345.491 232.719 345.838 232.008 346.72C231.296 347.601 231.102 348.523 230.892 348.515C230.682 348.507 230.552 347.326 231.458 346.259C232.363 345.191 233.568 345.094 233.568 345.288Z" fill="white"/>
<path d="M236.091 350.625C235.897 350.674 235.614 349.639 236.148 348.499C236.681 347.358 237.652 346.881 237.765 347.092C237.878 347.302 237.247 347.9 236.827 348.806C236.407 349.711 236.293 350.609 236.091 350.625Z" fill="white"/>
<path d="M228.757 338.431C228.668 338.617 227.714 338.334 226.542 338.431C225.369 338.528 224.455 338.876 224.35 338.698C224.245 338.52 225.119 337.784 226.501 337.712C227.884 337.639 228.854 338.27 228.757 338.431Z" fill="white"/>
<path d="M195.208 319.526L181.462 336.507C181.462 336.507 194.092 356.237 191.885 359.633L157.923 334.081L178.308 306.693L195.208 319.526Z" fill="#455A64"/>
<path d="M172.042 327.143C171.64 326.999 171.199 327.008 170.802 327.167C170.406 327.327 170.082 327.626 169.891 328.008C169.729 328.4 169.722 328.839 169.872 329.236C170.022 329.633 170.318 329.957 170.7 330.143C171.125 330.296 171.593 330.287 172.012 330.117C172.432 329.947 172.773 329.628 172.972 329.221C173.097 328.791 173.051 328.329 172.843 327.933C172.635 327.536 172.281 327.236 171.856 327.094" fill="#E0E0E0"/>
<path d="M157.923 334.081L160.082 331.404L191.82 356.892C191.82 356.892 192.839 358.687 191.869 359.625L157.923 334.081Z" fill="#263238"/>
<path d="M182.108 336.757C181.978 336.919 181.089 336.369 179.876 336.288C178.663 336.208 177.701 336.579 177.596 336.393C177.491 336.208 178.461 335.447 179.933 335.585C181.404 335.722 182.261 336.628 182.108 336.757Z" fill="white"/>
<path d="M184.558 340.906C184.477 341.1 183.547 340.841 182.456 341.116C181.364 341.391 180.644 342.013 180.483 341.884C180.321 341.755 180.927 340.736 182.286 340.412C183.644 340.089 184.679 340.744 184.558 340.906Z" fill="white"/>
<path d="M183.378 346.687C183.2 346.614 183.588 345.612 184.704 345.022C185.82 344.431 186.855 344.658 186.823 344.852C186.791 345.046 185.942 345.159 185.044 345.66C184.146 346.162 183.556 346.8 183.378 346.687Z" fill="white"/>
<path d="M184.818 332.528C184.64 332.625 184.05 331.825 183.063 331.186C182.077 330.547 181.123 330.288 181.147 330.086C181.171 329.884 182.311 329.811 183.468 330.588C184.624 331.364 184.996 332.464 184.818 332.528Z" fill="white"/>
<path d="M227.066 168.533C231.183 167.436 235.388 166.697 239.632 166.325C243.898 165.961 248.188 166.661 252.117 168.363C252.7 168.63 256.597 170.878 256.476 171.508C256.395 171.961 252.716 170.482 252.303 170.7C248.325 172.6 243.716 172.835 239.365 172.123C235.146 171.393 231.022 170.197 227.066 168.557" fill="#263238"/>
<path d="M205.081 166.916L243.296 169.43C253.97 169.956 262.557 176.595 261.741 187.22L261.611 188.198C260.966 192.954 258.555 197.293 254.858 200.352C251.16 203.411 246.447 204.967 241.655 204.71C232.404 204.201 222.191 203.53 217.299 202.802C207.151 201.33 206.957 190.956 206.957 190.956C206.957 190.956 206.051 190.843 203.059 190.568L193.356 183.573L205.081 166.916Z" fill="#FFBF9D"/>
<path d="M206.958 190.956C207.602 186.265 209.58 181.858 212.658 178.26C212.658 178.26 204.572 180.411 204.127 190.664L206.958 190.956Z" fill="#FF9A6C"/>
<path d="M234.458 195.516C234.668 195.678 233.989 196.883 234.191 198.443C234.393 200.004 235.323 201.047 235.153 201.241C234.984 201.435 234.717 201.201 234.288 200.748C233.735 200.13 233.384 199.356 233.286 198.532C233.178 197.718 233.334 196.891 233.73 196.171C234.038 195.646 234.361 195.444 234.458 195.516Z" fill="#263238"/>
<path d="M235.59 181.559C235.776 181.745 234.943 182.845 234.919 184.422C234.895 185.999 235.671 187.163 235.469 187.325C235.388 187.414 235.048 187.22 234.66 186.71C234.201 186.022 233.964 185.209 233.981 184.382C234.001 183.557 234.284 182.761 234.789 182.109C235.161 181.632 235.55 181.471 235.59 181.559Z" fill="#263238"/>
<path d="M226.421 190.592C226.563 191.449 226.601 192.321 226.534 193.187C226.534 193.592 226.534 193.996 226.809 194.085C227.217 194.177 227.643 194.14 228.03 193.98L231.224 193.212C235.768 192.161 239.48 191.457 239.52 191.643C239.561 191.829 235.914 192.824 231.369 193.875L228.135 194.594C227.613 194.786 227.04 194.786 226.518 194.594C226.384 194.518 226.271 194.412 226.185 194.284C226.1 194.156 226.045 194.011 226.024 193.859C225.996 193.63 225.996 193.4 226.024 193.171C226.045 192.298 226.178 191.431 226.421 190.592Z" fill="#263238"/>
<path d="M243.984 187.786C243.62 187.519 244.242 186.064 244.533 184.22C244.825 182.376 244.744 180.807 245.18 180.678C245.382 180.622 245.706 180.985 245.94 181.673C246.21 182.586 246.268 183.548 246.11 184.487C245.951 185.426 245.581 186.316 245.027 187.09C244.582 187.673 244.161 187.907 243.984 187.786Z" fill="#263238"/>
<path d="M242.019 202.664C241.703 202.293 242.229 201.047 242.431 199.535C242.633 198.023 242.528 196.681 242.941 196.43C243.135 196.317 243.466 196.567 243.749 197.174C244.074 198.004 244.169 198.906 244.024 199.786C243.917 200.672 243.567 201.511 243.013 202.212C242.585 202.697 242.197 202.826 242.019 202.664Z" fill="#263238"/>
<path d="M235.663 169.244C235.76 169.083 238.671 162.541 231.7 161.821C224.73 161.101 225.442 168.29 225.636 168.29C225.83 168.29 235.663 169.244 235.663 169.244Z" fill="#FFBF9D"/>
<path d="M228.499 166.43C228.499 166.43 228.426 166.301 228.353 166.083C228.263 165.782 228.292 165.457 228.434 165.177C228.782 164.465 230.011 163.964 231.272 164.061C231.873 164.104 232.455 164.281 232.979 164.579C233.183 164.672 233.363 164.812 233.504 164.987C233.644 165.163 233.741 165.369 233.787 165.589C233.809 165.734 233.779 165.882 233.704 166.007C233.629 166.132 233.513 166.228 233.375 166.277C233.173 166.349 233.035 166.277 233.019 166.325C233.003 166.374 233.124 166.487 233.415 166.463C233.593 166.439 233.758 166.356 233.884 166.228C234.048 166.05 234.135 165.815 234.127 165.573C234.101 165.282 234 165.002 233.834 164.762C233.669 164.521 233.443 164.327 233.181 164.199C232.609 163.835 231.956 163.621 231.28 163.576C229.865 163.471 228.475 164.053 228.086 165.031C228.012 165.213 227.979 165.409 227.99 165.605C228.001 165.801 228.056 165.992 228.151 166.163C228.337 166.398 228.491 166.455 228.499 166.43Z" fill="#FF9A6C"/>
<path d="M253.638 201.314C254.156 202.503 258.134 199.454 259.662 196.802C261.959 192.759 263.706 186.484 263.002 182.514C262.121 177.727 260.172 173.619 256.153 170.902C252.043 168.239 247.299 166.718 242.407 166.495C240.928 166.297 239.423 166.498 238.048 167.077C236.431 167.886 235.266 169.689 233.14 169.406C232.757 169.342 232.365 169.356 231.987 169.446C231.609 169.537 231.253 169.702 230.94 169.931C229.461 171.08 230.593 172.762 231.806 173.603C234.393 175.39 237.644 175.875 240.765 176.303C242.967 176.728 245.223 176.791 247.444 176.489C248.641 176.255 249.789 175.81 250.994 175.681C251.593 175.558 252.211 175.566 252.805 175.706C253.4 175.846 253.958 176.113 254.439 176.489C254.629 176.682 254.802 176.89 254.956 177.112C255.713 178.166 256.177 179.401 256.299 180.693C256.421 181.985 256.198 183.285 255.652 184.462C253.889 188.263 251.18 194.78 252.344 196.664C254.026 199.365 255.223 200.085 255.223 200.085L253.638 201.314Z" fill="#263238"/>
<path d="M235.784 165.84C235.653 165.014 235.293 164.242 234.744 163.611C234.195 162.98 233.479 162.517 232.679 162.274C232.679 162.217 232.995 162.185 233.488 162.314C234.115 162.488 234.677 162.843 235.105 163.333C235.534 163.818 235.815 164.416 235.914 165.056C235.914 165.541 235.841 165.84 235.784 165.84Z" fill="white"/>
<path d="M223.001 186.969C222.844 186.602 222.558 186.306 222.197 186.138C221.836 185.969 221.425 185.94 221.044 186.055L221.246 185.966C220.89 185.918 220.529 185.994 220.222 186.181C219.916 186.368 219.683 186.655 219.564 186.993C219.46 187.337 219.46 187.704 219.564 188.047C219.668 188.391 219.87 188.697 220.146 188.926C220.454 189.175 220.832 189.322 221.228 189.347C221.624 189.372 222.017 189.273 222.354 189.063C222.681 188.838 222.923 188.508 223.04 188.128C223.157 187.748 223.143 187.34 223.001 186.969Z" fill="#FF9A6C"/>
<path d="M222.612 188.772C222.846 188.497 222.975 188.147 222.976 187.786C223.007 187.409 222.932 187.03 222.758 186.694C222.441 186.367 222.009 186.175 221.553 186.161C221.097 186.09 220.632 186.188 220.243 186.436C220.086 186.534 219.951 186.664 219.847 186.817C219.742 186.97 219.671 187.143 219.637 187.325C219.605 187.681 219.681 188.039 219.855 188.352C219.855 188.352 219.726 188.352 219.588 188.158C219.407 187.907 219.319 187.601 219.337 187.293C219.359 187.06 219.431 186.834 219.548 186.632C219.666 186.429 219.825 186.255 220.017 186.12C220.486 185.788 221.066 185.651 221.634 185.74C221.918 185.752 222.197 185.824 222.45 185.952C222.704 186.081 222.928 186.262 223.106 186.484C223.319 186.891 223.387 187.359 223.3 187.81C223.273 188.111 223.148 188.396 222.944 188.619C222.726 188.78 222.612 188.797 222.612 188.772Z" fill="#263238"/>
<g opacity="0.1">
<path d="M262.186 180.646C261.076 177.061 258.912 173.893 255.975 171.556C253.038 169.22 249.465 167.822 245.722 167.546L242.908 167.417C242.419 167.351 241.921 167.398 241.453 167.554C241.22 167.638 241.021 167.797 240.889 168.007C240.758 168.217 240.7 168.464 240.725 168.711C240.846 169.261 241.453 169.519 241.995 169.665C245.229 170.53 248.625 170.368 251.755 171.468C254.749 172.521 257.235 174.665 258.719 177.47C260.203 180.276 260.575 183.538 259.76 186.605C259.599 187.062 259.528 187.545 259.55 188.029C259.564 188.271 259.659 188.502 259.821 188.684C259.982 188.866 260.2 188.988 260.439 189.031C260.663 189.013 260.879 188.941 261.07 188.822C261.26 188.702 261.418 188.538 261.531 188.344C263.14 186.201 262.978 183.201 262.186 180.646Z" fill="white"/>
</g>
<path d="M233.884 187.487C233.884 187.535 233.52 187.543 233.01 187.309C232.339 186.991 231.805 186.441 231.507 185.76C231.21 185.079 231.169 184.314 231.393 183.605C231.571 183.072 231.822 182.797 231.862 182.845C231.903 182.894 231.773 183.177 231.684 183.654C231.558 184.299 231.631 184.967 231.894 185.569C232.157 186.172 232.597 186.68 233.156 187.026C233.584 187.325 233.932 187.422 233.884 187.487Z" fill="#FF9A6C"/>
<path d="M231.871 200.772C231.524 200.104 231.407 199.34 231.539 198.599C231.671 197.858 232.043 197.181 232.599 196.673C232.704 196.753 232.146 197.538 231.952 198.678C231.758 199.818 231.992 200.74 231.871 200.772Z" fill="#FF9A6C"/>
<path d="M157.923 227.594C158.408 227.416 192.693 229.09 203.82 230.069C214.947 231.047 234.232 236.295 235.186 249.394C235.995 259.907 235.809 333.167 235.809 333.167H205.89L205.178 255.742L158.707 244.017L157.923 227.594Z" fill="#263238"/>
<g opacity="0.3">
<path d="M182.497 232.527C182.497 232.527 199.154 235.535 212.456 239.311C225.758 243.087 231.628 251.165 233.569 255.977C235.51 260.788 236.431 267.976 232.348 274.72C229.768 278.99 216.839 294.014 216.839 294.014C216.839 294.014 214.17 250.898 214.041 250.243C213.911 249.588 182.497 232.527 182.497 232.527Z" fill="black"/>
</g>
<path d="M232.105 260.877C230.698 252.564 221.286 246.75 209.747 242.424C198.378 238.147 168.629 227.578 168.629 227.578L161.505 225.823H158.319L157.268 222.67C157.268 222.67 137.052 216.823 107.853 227.594L106.859 228.403C106.859 228.403 105.977 249.702 110.093 254.279C110.093 254.279 156.605 253.624 159.047 253.826C161.489 254.028 195.596 269.505 195.596 269.505L166.397 314.294L190.542 331.162C190.542 331.162 205.097 310.413 213.992 298.009C226.696 280.203 233.771 270.693 232.105 260.877Z" fill="#263238"/>
<path d="M232.104 260.877C232.104 260.877 232.177 261.378 232.298 262.357C232.422 263.805 232.368 265.263 232.137 266.699C231.73 269.023 231.015 271.283 230.01 273.418C228.661 276.318 227.107 279.117 225.361 281.796C221.495 287.885 216.255 294.936 210.442 303.248L190.679 331.259L190.582 331.396L190.444 331.299L166.291 314.448L166.145 314.343L166.243 314.189C175.178 300.483 185.035 285.337 195.426 269.392L195.506 269.691C189.037 266.758 182.401 263.793 175.598 260.796C172.202 259.316 168.782 257.828 165.313 256.381C163.574 255.677 161.836 254.933 160.057 254.319C159.843 254.24 159.624 254.176 159.402 254.125C159.186 254.051 158.958 254.018 158.73 254.028C158.27 254.028 157.792 254.028 157.323 254.028H154.469C139.227 254.109 124.364 254.319 110.1 254.505H110.003L109.938 254.44C109.226 253.527 108.698 252.483 108.386 251.367C108.043 250.29 107.773 249.19 107.577 248.076C107.19 245.885 106.92 243.674 106.769 241.454C106.486 237.047 106.461 232.713 106.599 228.443V228.354L106.672 228.298L107.666 227.489C115.915 224.441 124.508 222.421 133.251 221.473C137.343 221.034 141.462 220.899 145.574 221.069C149.526 221.141 153.461 221.618 157.315 222.492H157.404V222.581C157.768 223.688 158.108 224.723 158.447 225.742L158.286 225.629H161.52L168.652 227.392L197.568 237.864L209.455 242.173C212.785 243.401 216.027 244.855 219.158 246.524C224.819 249.532 228.587 253.066 230.261 256.033C230.638 256.674 230.973 257.338 231.263 258.022C231.46 258.525 231.63 259.038 231.773 259.559C231.967 260.408 232.048 260.836 232.048 260.836C232.048 260.836 231.935 260.408 231.732 259.567C231.635 259.146 231.409 258.653 231.199 258.055C231.094 257.747 230.908 257.448 230.754 257.117C230.589 256.758 230.397 256.412 230.18 256.082C228.49 253.146 224.722 249.661 219.069 246.677C215.936 245.028 212.694 243.593 209.366 242.384L197.544 238.147L168.612 227.732L161.488 225.977H158.253V225.864L157.113 222.718L157.235 222.831C153.446 221.946 149.577 221.448 145.687 221.343C141.594 221.179 137.494 221.32 133.421 221.764C124.71 222.716 116.15 224.737 107.933 227.78H107.99L106.995 228.589L107.068 228.443C106.93 232.688 106.963 237.031 107.246 241.381C107.383 243.587 107.637 245.784 108.006 247.963C108.21 249.057 108.48 250.137 108.815 251.198C109.113 252.259 109.613 253.252 110.286 254.125L110.133 254.052C124.405 253.866 139.243 253.648 154.509 253.567H157.364C157.841 253.567 158.318 253.567 158.795 253.567C159.042 253.565 159.288 253.603 159.523 253.68C159.765 253.732 160.003 253.802 160.234 253.89C162.038 254.513 163.768 255.249 165.515 255.96C168.984 257.408 172.412 258.896 175.8 260.384C182.582 263.359 189.221 266.324 195.717 269.278L195.935 269.375L195.806 269.578L166.598 314.359L166.55 314.1L190.679 330.984H190.444L210.264 303.006C216.094 294.709 221.358 287.642 225.239 281.618C226.98 278.975 228.534 276.214 229.889 273.354C230.899 271.235 231.625 268.992 232.048 266.683C232.285 265.254 232.356 263.802 232.258 262.357C232.145 261.386 232.104 260.877 232.104 260.877Z" fill="#455A64"/>
<path d="M210.087 264.047C209.324 264.226 208.552 264.363 207.774 264.459C204.07 265.134 200.536 266.536 197.375 268.583C196.162 269.392 195.451 269.909 195.402 269.861C195.931 269.274 196.538 268.763 197.206 268.34C198.759 267.235 200.443 266.326 202.219 265.632C203.993 264.935 205.845 264.455 207.734 264.2C208.509 264.055 209.299 264.003 210.087 264.047Z" fill="#455A64"/>
<path d="M204.838 190.446V193.009L198.588 193.592L198.232 192.282L199.914 188.376L204.838 190.446Z" fill="#9747FF"/>
<path d="M199.955 192.468L191.885 208.624L193.672 237.621L189.621 243.944L185.359 236.651L186.095 209.061L198.661 191.279L199.955 192.468Z" fill="#9747FF"/>
<path d="M202.397 165.508C202.397 165.508 191.011 161.19 180.006 160.471C169.001 159.751 155.392 167.134 148.891 170.021C142.389 172.907 117.532 197.514 112.155 205.697C109.074 210.403 104.967 221.06 104.967 221.06C104.271 224.78 106.867 228.403 106.867 228.403L156.912 228.775H166.3L170.27 220.292C170.27 220.292 177.847 219.75 180.014 215.602C182.181 211.454 190.122 205.317 190.122 205.317L199.162 190.357L205.114 191.619L208.413 166.204L202.397 165.508Z" fill="#E0E0E0"/>
<path d="M165.297 176.886C165.255 177.185 165.179 177.478 165.07 177.759C164.884 178.406 164.65 179.182 164.367 180.104C163.622 182.682 163.012 185.298 162.539 187.94C162.08 190.586 161.764 193.256 161.593 195.937C161.545 196.891 161.496 197.708 161.464 198.363C161.466 198.664 161.436 198.965 161.375 199.26C161.309 198.966 161.282 198.664 161.294 198.363C161.294 197.788 161.294 196.948 161.294 195.937C161.369 193.225 161.639 190.523 162.102 187.851C162.572 185.191 163.226 182.568 164.059 179.999C164.383 179.012 164.674 178.228 164.868 177.694C164.979 177.409 165.123 177.138 165.297 176.886Z" fill="#263238"/>
<path d="M187.235 276.596C187.235 276.596 190.663 280.591 191.722 282.038C192.677 283.332 193.623 288.071 193.987 292.696C194.012 292.971 193.969 293.248 193.861 293.502C193.753 293.756 193.584 293.98 193.368 294.152C193.152 294.324 192.897 294.441 192.625 294.49C192.354 294.539 192.074 294.52 191.811 294.434C191.582 294.347 191.38 294.201 191.226 294.011C191.071 293.82 190.969 293.593 190.93 293.351C190.194 290.003 190 288.58 190 288.58C189.903 286.963 189.733 287.189 189.685 288.281C189.636 289.373 190.493 295.413 190.493 295.413C190.493 295.413 192.806 303.653 192.183 304.575C192.051 304.758 191.878 304.909 191.679 305.016C191.479 305.124 191.258 305.185 191.032 305.195C190.806 305.205 190.58 305.164 190.372 305.075C190.164 304.986 189.979 304.851 189.83 304.68C189.515 304.251 186.911 297.402 186.911 297.402L186.224 293.65C186.224 293.65 187.566 305.504 186.814 306.434C186.703 306.604 186.553 306.745 186.376 306.845C186.2 306.946 186.002 307.003 185.8 307.012C185.597 307.022 185.395 306.983 185.21 306.9C185.025 306.816 184.863 306.69 184.736 306.531C184.21 306.062 183.677 300.823 183.677 300.823L182.456 293.828L182.674 307.162C182.674 307.162 182.537 308.424 181.542 308.472C180.547 308.521 179.925 307.057 179.925 307.057L178.493 293.31C178.493 293.31 178.954 300.952 178.437 301.356C177.749 301.89 177.127 301.712 176.9 301.122C176.44 299.933 175.768 293.036 175.768 293.036L175.138 279.952L174.677 275.626L186.127 271.526L187.235 276.596Z" fill="#FFBF9D"/>
<g opacity="0.3">
<path d="M162.426 194.885C158.868 205.899 156.361 217.224 154.938 228.71C155.078 232.868 155.554 237.008 156.361 241.09C157.679 247.632 168.41 275.998 168.41 275.998L175.76 276.637L169.566 226.244L175.76 202.689L162.426 194.885Z" fill="black"/>
</g>
<path d="M195.378 173.4C200.415 174.953 201.361 185.166 200.278 188.077C196.809 197.416 185.723 206.19 185.884 205.68L178.68 234.338L188.892 273.151L172.38 279.062C172.38 279.062 157.316 239.214 157.017 232.971C156.718 226.729 161.205 210.459 161.868 200.732C162.297 194.481 165.467 181.802 173.189 174.338" fill="#E0E0E0"/>
<path d="M173.198 174.282C173.198 174.282 173.076 174.427 172.826 174.702C172.575 174.977 172.187 175.373 171.71 175.923C170.35 177.545 169.138 179.285 168.087 181.123C166.445 184.055 165.116 187.153 164.125 190.365C163.487 192.369 162.976 194.41 162.597 196.478C162.403 197.578 162.225 198.71 162.12 199.883C162.014 201.055 161.942 202.309 161.772 203.513C161.19 208.462 160.106 213.823 159.015 219.597C158.481 222.475 157.915 225.467 157.51 228.564C157.28 230.127 157.207 231.709 157.292 233.287L157.462 234.467L157.737 235.648C157.907 236.456 158.133 237.265 158.36 238.074C159.241 241.26 160.292 244.494 161.392 247.777C162.492 251.06 163.656 254.432 164.861 257.852C167.287 264.685 169.858 271.753 172.575 278.982L172.308 278.86L179.982 276.111L188.82 272.949L188.691 273.2C185.06 259.397 181.623 246.313 178.494 234.386V234.289C181.171 223.713 183.605 214.074 185.731 205.64L186.03 205.721C186.037 205.699 186.039 205.676 186.034 205.654C186.03 205.631 186.02 205.61 186.006 205.593C185.991 205.575 185.973 205.561 185.952 205.553C185.93 205.544 185.908 205.541 185.885 205.543H185.933L186.047 205.478L186.273 205.325L186.726 204.985L187.599 204.282C188.165 203.796 188.715 203.311 189.216 202.818C190.284 201.84 191.286 200.837 192.224 199.834C194 197.956 195.622 195.938 197.076 193.802C198.364 191.953 199.41 189.948 200.189 187.834C200.59 185.987 200.639 184.08 200.335 182.214C199.882 178.826 198.766 176.303 197.553 174.937C196.937 174.256 196.174 173.725 195.321 173.384C195.321 173.384 195.548 173.465 195.976 173.643C196.244 173.755 196.495 173.905 196.72 174.088C197.054 174.316 197.356 174.588 197.618 174.896C198.871 176.223 200.044 178.762 200.505 182.174C200.635 183.074 200.705 183.982 200.715 184.891C200.744 185.898 200.635 186.905 200.391 187.883C199.62 190.023 198.574 192.053 197.278 193.923C195.826 196.079 194.203 198.115 192.427 200.012C191.48 201.023 190.478 202.034 189.41 203.02C188.877 203.521 188.327 204.015 187.793 204.5C187.51 204.734 187.219 204.977 186.92 205.211L186.459 205.559L186.216 205.721L186.087 205.802H186.006H185.933C185.905 205.805 185.876 205.802 185.849 205.791C185.822 205.781 185.798 205.765 185.779 205.743C185.76 205.722 185.747 205.696 185.74 205.668C185.733 205.64 185.733 205.611 185.739 205.583L186.047 205.664L178.874 234.33V234.233L189.103 273.046L189.152 273.232L188.974 273.297L180.136 276.459L172.454 279.208L172.26 279.281L172.187 279.087C169.47 271.85 166.899 264.774 164.481 257.941C163.284 254.521 162.112 251.157 161.02 247.858C159.928 244.559 158.885 241.308 157.996 238.106C157.769 237.297 157.551 236.489 157.381 235.68C157.284 235.276 157.195 234.872 157.106 234.483C157.017 234.095 156.985 233.675 156.928 233.254C156.843 231.655 156.922 230.051 157.163 228.467C157.575 225.346 158.141 222.362 158.691 219.475C159.799 213.702 160.899 208.357 161.497 203.416C161.667 202.187 161.731 200.99 161.853 199.802C161.974 198.613 162.152 197.473 162.354 196.373C162.743 194.299 163.264 192.252 163.915 190.244C164.922 187.023 166.278 183.921 167.958 180.993C169.02 179.151 170.257 177.415 171.653 175.81C172.64 174.783 173.198 174.282 173.198 174.282Z" fill="#263238"/>
<path d="M199.971 180.031C199.889 179.317 199.889 178.595 199.971 177.88C200.05 176.153 200.217 174.431 200.472 172.721C200.726 171.011 201.072 169.316 201.507 167.643C201.648 166.937 201.873 166.25 202.179 165.597C202.109 166.31 201.982 167.016 201.799 167.708C201.532 169.002 201.192 170.797 200.893 172.786C200.594 174.775 200.4 176.587 200.27 177.905C200.235 178.621 200.135 179.333 199.971 180.031Z" fill="#263238"/>
<g opacity="0.3">
<path d="M201.798 166.196C201.628 166.123 201.45 166.293 201.337 166.447C200.281 167.673 199.436 169.066 198.838 170.57C197.941 173.255 198.895 176.231 199.712 178.98C200.472 181.604 200.747 184.344 200.52 187.066L200.318 188.012C201.187 186.309 201.433 184.355 201.013 182.489C200.589 180.642 200.259 178.775 200.027 176.894C199.841 173.425 201.24 170.093 201.935 166.697C201.976 166.535 201.984 166.269 201.798 166.196Z" fill="black"/>
</g>
<path d="M145.381 242.173H140.23V279.03H145.381V242.173Z" fill="#E0E0E0"/>
<path d="M66.5894 218.093C67.0495 219.183 67.8919 220.067 68.9581 220.579C70.0243 221.091 71.2409 221.196 72.3791 220.874C84.4508 217.55 97.1792 217.419 109.317 220.494C126.354 224.723 132.573 233.901 134.885 239.675C135.453 241.057 136.42 242.238 137.663 243.067C138.907 243.895 140.37 244.333 141.864 244.324H142.559C143.278 244.319 143.986 244.155 144.633 243.842C145.281 243.53 145.85 243.078 146.301 242.518C146.753 241.959 147.074 241.306 147.242 240.607C147.41 239.909 147.421 239.181 147.273 238.478C145.51 230.473 134.861 216.565 115.826 211.422C92.918 205.228 77.0125 209.352 69.6137 211.656C68.9778 211.859 68.3906 212.191 67.8889 212.631C67.3872 213.072 66.9817 213.611 66.6978 214.215C66.414 214.819 66.2579 215.475 66.2392 216.143C66.2205 216.81 66.3398 217.474 66.5894 218.093Z" fill="#455A64"/>
<path d="M66.5889 218.093C66.5889 218.093 66.5161 217.939 66.4029 217.624C66.2079 217.003 66.1396 216.35 66.2022 215.703C66.2647 215.056 66.4567 214.427 66.7668 213.856C67.3034 212.879 68.16 212.116 69.1926 211.697C75.7903 209.514 82.6653 208.284 89.6102 208.042C94.3993 207.871 99.1941 208.123 103.939 208.794C105.217 208.996 106.518 209.182 107.828 209.408L111.815 210.217L115.858 211.22C117.2 211.656 118.599 212.028 119.958 212.522C121.316 213.015 122.707 213.532 124.049 214.187C124.72 214.511 125.416 214.786 126.079 215.15L128.084 216.225C130.788 217.762 133.346 219.543 135.726 221.546C138.187 223.627 140.418 225.967 142.381 228.524L143.125 229.502L143.812 230.538C144.03 230.877 144.273 231.217 144.483 231.573L145.098 232.656C145.935 234.111 146.61 235.654 147.111 237.257C147.216 237.67 147.337 238.066 147.443 238.486C147.525 238.912 147.555 239.347 147.531 239.78C147.454 241.081 146.875 242.3 145.915 243.181C144.956 244.062 143.691 244.536 142.389 244.502C140.721 244.594 139.066 244.168 137.65 243.281C136.259 242.399 135.19 241.092 134.602 239.554C134.018 238.116 133.298 236.738 132.451 235.438C132.055 234.775 131.577 234.176 131.133 233.562C130.688 232.947 130.195 232.365 129.669 231.823C127.668 229.649 125.377 227.76 122.861 226.211C120.463 224.743 117.932 223.506 115.3 222.516C112.805 221.603 110.253 220.857 107.659 220.284C103.012 219.214 98.2731 218.599 93.5078 218.449C86.6008 218.215 79.697 218.996 73.0174 220.769C72.4622 220.953 71.8864 221.067 71.3031 221.109C70.6413 221.138 69.9805 221.031 69.3617 220.794C68.7428 220.558 68.1789 220.197 67.7048 219.734C67.2309 219.282 66.8636 218.729 66.6293 218.117C66.9126 218.706 67.2987 219.24 67.7695 219.694C68.3414 220.222 69.032 220.605 69.7829 220.81C70.2688 220.933 70.77 220.985 71.2708 220.963C71.8429 220.912 72.4072 220.796 72.9527 220.616C79.6517 218.778 86.5893 217.96 93.532 218.19C98.326 218.307 103.096 218.903 107.772 219.969C110.381 220.54 112.95 221.283 115.462 222.193C118.122 223.185 120.681 224.431 123.103 225.912C125.652 227.472 127.974 229.377 130.001 231.573C130.534 232.114 130.987 232.737 131.489 233.327C131.99 233.918 132.418 234.564 132.823 235.236C133.689 236.553 134.423 237.954 135.014 239.416C135.575 240.874 136.59 242.113 137.909 242.95C139.258 243.791 140.834 244.195 142.421 244.106C143.617 244.14 144.779 243.706 145.661 242.897C146.543 242.087 147.074 240.967 147.143 239.772C147.165 239.374 147.138 238.975 147.062 238.583C146.965 238.187 146.844 237.775 146.739 237.395C146.247 235.821 145.586 234.305 144.766 232.874L144.176 231.791C143.965 231.443 143.731 231.104 143.505 230.764L142.801 229.769L142.065 228.799C140.12 226.267 137.911 223.949 135.475 221.885C133.116 219.898 130.579 218.131 127.898 216.605L125.917 215.53C125.262 215.166 124.567 214.899 123.904 214.575C122.569 213.92 121.195 213.435 119.861 212.918C118.526 212.4 117.127 212.044 115.818 211.616L111.774 210.605L107.804 209.796C106.494 209.562 105.2 209.376 103.931 209.166C99.2057 208.485 94.4305 208.214 89.6587 208.357C82.7414 208.572 75.8881 209.754 69.2978 211.867C68.2904 212.258 67.4521 212.991 66.9285 213.937C66.5363 214.622 66.3222 215.395 66.3059 216.185C66.2865 216.832 66.3823 217.479 66.5889 218.093Z" fill="#263238"/>
<path d="M75.0388 216.144C75.0388 216.917 74.8097 217.672 74.3806 218.314C73.9514 218.956 73.3414 219.457 72.6278 219.752C71.9141 220.048 71.1288 220.125 70.3712 219.975C69.6136 219.824 68.9177 219.452 68.3715 218.906C67.8253 218.36 67.4533 217.664 67.3026 216.906C67.1519 216.148 67.2292 215.363 67.5248 214.65C67.8204 213.936 68.321 213.326 68.9633 212.897C69.6056 212.468 70.3607 212.239 71.1332 212.239C71.6464 212.237 72.1547 212.338 72.629 212.534C73.1034 212.73 73.5343 213.017 73.8972 213.38C74.2601 213.743 74.5478 214.174 74.7437 214.648C74.9396 215.123 75.0399 215.631 75.0388 216.144Z" fill="white"/>
<path d="M306.708 190.026H325.129L323.689 200.158C323.689 200.158 322.493 205.139 319.646 205.139H311.665C310.684 204.537 309.835 203.744 309.168 202.806C308.501 201.868 308.03 200.805 307.784 199.681L306.708 190.026Z" fill="#455A64"/>
<path d="M306.708 190.026C306.735 190.132 306.754 190.24 306.765 190.349C306.765 190.575 306.838 190.875 306.894 191.247C307 192.055 307.153 193.195 307.347 194.619C307.541 196.042 307.768 197.805 308.027 199.786C308.278 200.869 308.744 201.89 309.399 202.789C310.053 203.688 310.882 204.446 311.835 205.017H311.762H318.142C318.708 205.017 319.282 205.017 319.84 205.017C320.392 204.986 320.916 204.763 321.32 204.387C322.166 203.575 322.801 202.571 323.172 201.459C323.335 201.033 323.476 200.599 323.592 200.158C324.086 196.575 324.555 193.171 324.983 190.026L325.129 190.195L311.908 190.123L308.099 190.082H307.072H306.708C306.819 190.069 306.93 190.069 307.04 190.082H308.035L311.811 190.042L325.129 189.969H325.291V190.131C324.862 193.276 324.401 196.689 323.924 200.263C323.809 200.719 323.666 201.167 323.495 201.605C323.101 202.766 322.432 203.814 321.547 204.662C321.09 205.082 320.501 205.328 319.881 205.357C319.299 205.357 318.733 205.357 318.167 205.357H311.787H311.746C310.762 204.761 309.908 203.972 309.238 203.036C308.568 202.101 308.096 201.039 307.849 199.915C307.582 197.885 307.404 196.114 307.234 194.659C307.064 193.203 306.951 192.096 306.87 191.287L306.773 190.406C306.737 190.282 306.715 190.154 306.708 190.026Z" fill="#263238"/>
<path d="M323.69 195.249L323.965 195.184C323.796 195.184 324.014 195.184 324.046 195.184C324.246 195.172 324.445 195.172 324.645 195.184C324.451 195.184 324.645 195.184 324.717 195.184L325.033 195.265L325.292 195.346C325.413 195.387 325.292 195.346 325.243 195.346L325.413 195.427C325.588 195.523 325.758 195.628 325.922 195.742C326.027 195.815 325.922 195.742 325.882 195.742L325.987 195.831C326.066 195.903 326.142 195.978 326.213 196.058C326.27 196.122 326.383 196.276 326.278 196.122C326.343 196.211 326.399 196.3 326.456 196.389C326.513 196.478 326.545 196.559 326.585 196.64C326.626 196.721 326.585 196.64 326.585 196.591C326.612 196.649 326.633 196.708 326.65 196.769C326.687 196.872 326.717 196.978 326.739 197.085C326.739 197.125 326.796 197.392 326.779 197.263C326.763 197.133 326.779 197.4 326.779 197.44C326.787 197.551 326.787 197.662 326.779 197.772C326.779 197.837 326.779 197.901 326.779 197.966C326.779 198.136 326.779 198.031 326.779 197.966C326.769 198.026 326.756 198.085 326.739 198.144C326.723 198.238 326.699 198.33 326.666 198.419C326.666 198.492 326.545 198.742 326.666 198.548C326.579 198.736 326.479 198.917 326.367 199.09L326.286 199.203C326.286 199.203 326.399 199.074 326.286 199.163C326.173 199.252 326.116 199.341 326.027 199.43C325.938 199.519 325.793 199.616 325.89 199.551C325.987 199.486 325.769 199.624 325.736 199.64L325.494 199.777L325.372 199.842C325.51 199.769 325.437 199.842 325.372 199.842C325.308 199.842 324.952 199.955 324.742 200.012C324.531 200.068 324.798 200.012 324.814 200.012H324.628H323.998H323.82L323.464 199.899C323.618 199.963 323.343 199.834 323.343 199.834C323.217 199.76 323.078 199.712 322.933 199.692C322.789 199.672 322.642 199.68 322.501 199.717C322.359 199.754 322.227 199.818 322.111 199.906C321.994 199.994 321.896 200.104 321.823 200.23C321.749 200.356 321.7 200.495 321.68 200.64C321.66 200.784 321.669 200.931 321.706 201.072C321.743 201.214 321.807 201.346 321.895 201.462C321.983 201.579 322.093 201.677 322.219 201.75C323.281 202.303 324.513 202.435 325.668 202.12C326.823 201.806 327.818 201.067 328.453 200.052C329.052 198.989 329.237 197.742 328.971 196.551C328.836 195.972 328.588 195.425 328.241 194.942C327.894 194.459 327.455 194.05 326.949 193.737C326.392 193.387 325.768 193.155 325.117 193.056C324.466 192.957 323.801 192.994 323.165 193.163C322.881 193.241 322.639 193.429 322.494 193.685C322.348 193.942 322.31 194.245 322.389 194.529C322.467 194.814 322.655 195.055 322.911 195.201C323.167 195.346 323.471 195.384 323.755 195.306L323.69 195.249Z" fill="#455A64"/>
<path d="M323.69 195.249C323.574 195.305 323.445 195.327 323.318 195.314C323.127 195.304 322.941 195.248 322.777 195.149C322.614 195.05 322.477 194.912 322.38 194.748C322.3 194.614 322.247 194.466 322.225 194.312C322.203 194.159 322.212 194.002 322.251 193.851C322.29 193.701 322.359 193.559 322.453 193.436C322.547 193.312 322.665 193.208 322.8 193.131C323.139 192.976 323.504 192.883 323.875 192.856C324.286 192.804 324.702 192.804 325.113 192.856C326.056 192.997 326.936 193.413 327.644 194.052C328.469 194.786 328.998 195.795 329.132 196.891C329.295 198.102 329.008 199.331 328.323 200.343C327.946 200.872 327.464 201.317 326.908 201.651C326.351 201.985 325.732 202.2 325.088 202.284C324.513 202.365 323.928 202.349 323.358 202.236C323.084 202.172 322.814 202.091 322.549 201.993L322.161 201.815C322.019 201.751 321.892 201.658 321.789 201.54C321.598 201.303 321.494 201.008 321.494 200.703C321.494 200.399 321.598 200.104 321.789 199.866C321.989 199.646 322.258 199.5 322.552 199.453C322.846 199.406 323.148 199.461 323.406 199.608L323.196 199.737C323.198 199.702 323.211 199.668 323.235 199.641C323.259 199.615 323.291 199.597 323.326 199.591C323.406 199.591 323.415 199.591 323.406 199.591H323.463C323.463 199.503 323.576 199.818 323.398 199.85H323.309H323.245V199.81C323.164 199.486 323.471 199.575 323.382 199.567H323.431L323.544 199.608C323.695 199.656 323.849 199.694 324.005 199.721C324.005 199.721 324.005 199.721 324.086 199.761C324.167 199.802 324.134 199.761 324.126 199.899C324.118 200.036 324.013 200.012 324.005 200.012H323.932H323.867H323.811C323.811 200.012 323.73 199.972 323.77 199.834C323.811 199.697 323.875 199.769 323.892 199.761H324.256C324.409 199.769 324.563 199.769 324.716 199.761V200.036H324.668H324.595C324.559 200.036 324.524 200.022 324.498 199.996C324.482 199.974 324.473 199.947 324.473 199.919C324.473 199.891 324.482 199.864 324.498 199.842C324.498 199.786 324.498 199.802 324.498 199.794L324.563 199.753H324.692L324.927 199.689L325.169 199.624H325.274C325.218 199.567 325.274 199.899 325.355 199.858H325.412H325.363L325.234 199.616L325.549 199.446L325.695 199.357C325.724 199.349 325.755 199.349 325.784 199.357C325.811 199.365 325.835 199.379 325.857 199.397C325.878 199.424 325.89 199.456 325.89 199.49C325.89 199.524 325.878 199.557 325.857 199.583H325.808C325.782 199.593 325.753 199.593 325.727 199.583C325.705 199.579 325.683 199.57 325.665 199.556C325.647 199.542 325.632 199.523 325.622 199.503C325.574 199.43 325.671 199.325 325.622 199.349C325.716 199.282 325.802 199.206 325.881 199.122L325.994 199.001C325.994 199.001 326.132 199.001 326.164 199.09C326.196 199.179 326.164 199.155 326.164 199.171L326.115 199.228L325.905 199.074C326.051 198.872 326.156 198.653 326.277 198.451L326.504 198.556V198.597C326.504 198.597 326.503 198.597 326.406 198.597C326.391 198.596 326.375 198.592 326.361 198.585C326.346 198.578 326.333 198.568 326.323 198.556C326.312 198.544 326.304 198.53 326.299 198.515C326.294 198.499 326.292 198.483 326.293 198.468V198.379C326.316 198.329 326.335 198.277 326.35 198.225C326.35 198.12 326.406 198.015 326.431 197.91V197.829C326.431 197.829 326.431 197.829 326.479 197.756C326.496 197.746 326.516 197.741 326.536 197.741C326.556 197.741 326.575 197.746 326.592 197.756H326.641C326.65 197.788 326.65 197.821 326.641 197.853V197.934C326.722 198.023 326.301 197.982 326.415 197.934V197.861C326.411 197.837 326.411 197.812 326.415 197.788C326.415 197.683 326.415 197.578 326.415 197.481C326.423 197.381 326.423 197.281 326.415 197.182V197.093C326.417 197.074 326.423 197.055 326.432 197.038C326.442 197.022 326.455 197.007 326.471 196.996C326.488 196.984 326.507 196.978 326.528 196.978C326.548 196.978 326.568 196.984 326.584 196.996C326.594 196.999 326.602 197.004 326.609 197.011C326.616 197.018 326.622 197.027 326.625 197.036C326.625 197.077 326.625 197.077 326.625 197.077V197.125C326.628 197.141 326.628 197.158 326.625 197.174C326.625 197.174 326.625 197.174 326.56 197.214C326.535 197.221 326.509 197.219 326.485 197.208C326.462 197.198 326.443 197.18 326.431 197.158L326.39 196.98C326.35 196.796 326.299 196.615 326.237 196.438L326.431 196.365V196.406C326.433 196.418 326.433 196.43 326.43 196.443C326.427 196.455 326.421 196.466 326.414 196.476C326.406 196.486 326.397 196.494 326.386 196.5C326.374 196.506 326.362 196.51 326.35 196.511C326.269 196.511 326.269 196.511 326.261 196.511C326.261 196.511 326.261 196.446 326.204 196.414L326.123 196.244L325.929 195.945L326.091 195.84V195.88C326.099 195.893 326.103 195.909 326.103 195.924C326.103 195.94 326.099 195.955 326.091 195.969C326.082 195.982 326.07 195.993 326.056 196.001C326.042 196.008 326.026 196.012 326.01 196.012C325.994 196.012 325.978 196.008 325.964 196.001C325.95 195.993 325.938 195.982 325.929 195.969L325.873 195.896C325.837 195.849 325.796 195.806 325.751 195.767L325.517 195.54L325.63 195.411H325.679C325.485 195.678 325.598 195.476 325.557 195.532L325.452 195.468L325.25 195.338C325.133 195.257 325.008 195.187 324.878 195.128L324.943 194.99H325.008H325.056C325.056 194.99 325.097 195.087 325.056 195.104H325.016H325.307L325.177 195.055L324.935 194.982L324.708 194.926H324.603C324.652 194.926 324.506 194.982 324.603 194.813H324.692V194.926H324.158H323.956C323.956 194.926 323.956 194.926 323.956 194.877H324.078C324.078 194.877 324.078 194.877 324.078 194.918H324.013C323.912 194.941 323.809 194.955 323.706 194.958C323.8 194.911 323.901 194.878 324.005 194.861H324.045H323.956H324.692V194.974H324.603C324.7 194.796 324.547 194.877 324.603 194.861H324.733L324.975 194.91L325.226 194.982L325.355 195.023C325.307 195.217 325.307 195.144 325.299 195.152H325.218L325.282 195.015C325.417 195.075 325.547 195.146 325.671 195.225L325.881 195.346L325.994 195.411L325.954 195.476L325.897 195.427L326.01 195.298C326.098 195.369 326.181 195.444 326.261 195.524C326.261 195.573 326.35 195.605 326.398 195.662L326.455 195.734C326.455 195.734 326.415 195.734 326.398 195.734V195.694L326.56 195.589C326.625 195.686 326.698 195.783 326.762 195.896L326.851 196.066C326.851 196.066 326.908 196.114 326.851 196.155L326.795 196.203C326.774 196.197 326.751 196.197 326.73 196.203H326.689V196.147L326.884 196.074C326.956 196.261 327.016 196.453 327.061 196.648V196.721V196.778C327.061 196.778 327.061 196.778 326.997 196.778C326.932 196.778 326.997 196.778 326.956 196.778C326.947 196.774 326.938 196.772 326.928 196.772C326.918 196.772 326.909 196.774 326.9 196.778H326.851H326.916H326.956C326.956 196.778 326.997 196.778 327.005 196.778H326.924V196.834C326.924 196.931 326.924 197.052 326.924 197.158C326.936 197.265 326.936 197.374 326.924 197.481C326.928 197.51 326.928 197.54 326.924 197.57C326.924 197.57 326.884 197.57 326.827 197.57H326.689V197.497C326.689 197.497 326.77 197.497 326.754 197.497C326.932 197.497 326.859 197.497 326.875 197.497V197.578C326.875 197.683 326.819 197.804 326.787 197.918C326.774 197.976 326.755 198.033 326.73 198.087V198.16C326.415 198.031 326.528 198.063 326.52 198.047V198.007L326.746 198.112C326.617 198.33 326.512 198.565 326.358 198.783L326.148 198.629L326.204 198.565H326.253C326.253 198.565 326.309 198.565 326.326 198.621V198.662C326.326 198.662 326.374 198.726 326.366 198.71L326.245 198.839C326.162 198.926 326.072 199.008 325.978 199.082C325.921 199.034 325.921 198.993 325.905 199.001C325.889 199.009 325.905 199.001 325.905 198.961L325.865 198.888C325.865 198.888 325.905 198.937 325.865 198.945C325.824 198.953 325.865 199.017 325.865 199.017C325.863 199.034 325.867 199.051 325.876 199.066C325.885 199.08 325.898 199.092 325.913 199.098H325.873L325.719 199.195L325.396 199.373L325.266 199.131H325.323H325.42C325.541 199.131 325.565 199.43 325.501 199.365H325.46L325.331 199.414L325.088 199.478L324.838 199.543H324.716C324.716 199.543 324.716 199.608 324.668 199.422C324.668 199.422 324.668 199.26 324.668 199.276H324.781V199.551C324.617 199.563 324.452 199.563 324.288 199.551C324.205 199.559 324.121 199.559 324.037 199.551H323.948V199.414C323.948 199.414 323.948 199.333 323.948 199.292H324.037C324.037 199.292 324.037 199.357 324.037 199.365C324.037 199.373 324.037 199.365 324.037 199.414C324.037 199.414 324.037 199.414 324.037 199.47C324.044 199.494 324.044 199.519 324.037 199.543C323.871 199.511 323.706 199.471 323.544 199.422L323.423 199.381H323.35V199.333C323.352 199.306 323.352 199.279 323.35 199.252C323.455 199.042 323.398 199.139 323.415 199.114H323.463C323.463 199.114 323.463 199.211 323.423 199.228L323.358 199.341H323.301C323.33 199.349 323.361 199.349 323.39 199.341C323.413 199.336 323.434 199.326 323.452 199.312C323.47 199.298 323.485 199.28 323.495 199.26V199.22C323.495 199.22 323.495 199.22 323.382 199.22L323.285 199.357C323.089 199.251 322.863 199.213 322.642 199.248C322.421 199.283 322.218 199.389 322.064 199.551C321.923 199.733 321.847 199.956 321.847 200.186C321.847 200.416 321.923 200.639 322.064 200.821C322.252 200.982 322.469 201.105 322.703 201.184C322.953 201.278 323.21 201.351 323.471 201.403C324.003 201.515 324.55 201.534 325.088 201.459C325.693 201.385 326.276 201.185 326.799 200.874C327.323 200.562 327.775 200.144 328.129 199.648C328.789 198.707 329.077 197.555 328.937 196.414C328.82 195.382 328.332 194.427 327.563 193.729C326.887 193.108 326.043 192.7 325.137 192.557C324.406 192.42 323.653 192.481 322.954 192.734C322.828 192.809 322.719 192.907 322.631 193.023C322.544 193.14 322.48 193.273 322.444 193.414C322.388 193.657 322.428 193.912 322.557 194.125C322.638 194.276 322.754 194.407 322.894 194.505C323.035 194.603 323.196 194.667 323.366 194.691C323.446 194.892 323.555 195.08 323.69 195.249Z" fill="#263238"/>
<path d="M319.138 186.443C319.351 186.242 319.543 186.02 319.712 185.78C319.919 185.446 320.057 185.073 320.118 184.684C320.179 184.295 320.162 183.898 320.067 183.516C319.928 182.993 319.625 182.529 319.202 182.19C318.758 181.802 318.191 181.495 317.666 181.034C317.396 180.793 317.171 180.505 317.003 180.185C316.82 179.84 316.769 179.441 316.857 179.061C316.959 178.675 317.166 178.325 317.456 178.05C317.723 177.767 318.022 177.524 318.264 177.241C318.538 176.999 318.754 176.697 318.895 176.36C319 176.026 319 175.667 318.895 175.333C318.678 174.677 318.313 174.079 317.828 173.586C317.37 173.117 317 172.569 316.736 171.969C316.537 171.429 316.476 170.848 316.558 170.279C316.675 169.457 317.072 168.7 317.682 168.136C317.848 167.99 318.03 167.862 318.224 167.756L318.434 167.667C318.195 167.835 317.965 168.016 317.747 168.209C317.188 168.776 316.832 169.513 316.736 170.303C316.665 170.85 316.732 171.406 316.93 171.921C317.198 172.488 317.562 173.005 318.006 173.449C318.522 173.963 318.91 174.592 319.138 175.284C319.258 175.666 319.258 176.075 319.138 176.457C318.987 176.834 318.752 177.172 318.45 177.443C317.9 177.993 317.245 178.446 317.084 179.125C317.04 179.455 317.085 179.79 317.212 180.097C317.34 180.403 317.547 180.671 317.811 180.872C318.297 181.309 318.863 181.624 319.324 182.036C319.552 182.231 319.748 182.46 319.906 182.716C320.05 182.951 320.156 183.208 320.221 183.476C320.318 183.878 320.329 184.297 320.252 184.704C320.176 185.111 320.013 185.497 319.776 185.837C319.616 186.088 319.397 186.296 319.138 186.443Z" fill="#263238"/>
<path d="M315.603 186.443C315.812 186.241 316.002 186.019 316.169 185.78C316.38 185.447 316.521 185.075 316.582 184.685C316.643 184.296 316.624 183.898 316.525 183.516C316.393 182.99 316.088 182.523 315.66 182.19C315.215 181.802 314.649 181.495 314.132 181.034C313.859 180.795 313.634 180.507 313.468 180.185C313.283 179.841 313.229 179.442 313.315 179.061C313.423 178.678 313.63 178.329 313.913 178.05C314.188 177.767 314.479 177.524 314.722 177.241C314.991 176.996 315.203 176.695 315.344 176.36C315.456 176.027 315.456 175.666 315.344 175.333C315.127 174.677 314.762 174.079 314.277 173.586C313.819 173.115 313.447 172.568 313.177 171.969C312.978 171.429 312.917 170.848 312.999 170.279C313.116 169.455 313.516 168.697 314.132 168.136C314.294 167.986 314.477 167.858 314.673 167.756C314.738 167.715 314.809 167.685 314.884 167.667C314.644 167.835 314.415 168.016 314.196 168.209C313.637 168.777 313.28 169.513 313.177 170.303C313.106 170.851 313.175 171.408 313.38 171.921C313.647 172.488 314.011 173.005 314.455 173.449C314.968 173.966 315.356 174.594 315.587 175.284C315.708 175.666 315.708 176.075 315.587 176.457C315.434 176.832 315.199 177.169 314.9 177.443C314.35 177.993 313.687 178.446 313.525 179.125C313.483 179.455 313.528 179.789 313.656 180.096C313.784 180.402 313.99 180.67 314.253 180.872C314.738 181.309 315.312 181.624 315.765 182.036C315.996 182.231 316.195 182.46 316.355 182.716C316.492 182.955 316.598 183.21 316.671 183.476C316.764 183.879 316.772 184.297 316.696 184.703C316.619 185.109 316.459 185.495 316.226 185.837C316.068 186.084 315.855 186.292 315.603 186.443Z" fill="#263238"/>
<path d="M341.566 137.834L339.78 139.329L362.403 166.338L364.188 164.843L341.566 137.834Z" fill="#263238"/>
<path d="M344.202 134.044L342.417 135.54L365.039 162.548L366.825 161.053L344.202 134.044Z" fill="#263238"/>
<path d="M365.412 165.887L363.442 164.644L340.83 200.468L342.8 201.711L365.412 165.887Z" fill="#263238"/>
<path d="M370.511 166.877L368.542 165.634L346.37 200.761L348.339 202.004L370.511 166.877Z" fill="#263238"/>
<path d="M365.527 161.392L361.977 166.195C361.543 166.781 361.338 167.505 361.402 168.231C361.466 168.956 361.794 169.633 362.324 170.133C362.771 170.552 363.335 170.824 363.941 170.913C364.547 171.001 365.165 170.901 365.713 170.627L370.492 168.201C370.909 167.996 371.272 167.696 371.553 167.325C371.834 166.954 372.024 166.523 372.109 166.066L372.157 165.775C372.252 165.244 372.2 164.697 372.008 164.192C371.816 163.688 371.49 163.246 371.066 162.912L368.64 160.98C368.412 160.793 368.149 160.655 367.865 160.575C367.582 160.494 367.286 160.472 366.994 160.511C366.702 160.55 366.421 160.648 366.169 160.799C365.916 160.951 365.698 161.153 365.527 161.392Z" fill="#263238"/>
<path d="M365.527 161.392C365.527 161.392 365.568 161.279 365.713 161.117C365.935 160.872 366.212 160.683 366.522 160.568C367.01 160.386 367.546 160.386 368.034 160.568C368.331 160.675 368.605 160.837 368.843 161.045L369.651 161.675L370.557 162.371C370.903 162.611 371.228 162.882 371.527 163.179C371.853 163.538 372.092 163.966 372.225 164.432C372.358 164.898 372.382 165.388 372.296 165.864C372.242 166.398 372.057 166.911 371.756 167.355C371.456 167.8 371.049 168.163 370.573 168.411L367.678 169.875L366.215 170.619C365.735 170.906 365.201 171.09 364.646 171.16C364.136 171.207 363.622 171.13 363.148 170.935C362.674 170.74 362.255 170.433 361.926 170.04C361.597 169.647 361.368 169.181 361.258 168.68C361.149 168.18 361.163 167.66 361.298 167.166C361.42 166.747 361.623 166.357 361.897 166.018L362.584 165.112L364.686 162.379C364.932 162.039 365.202 161.717 365.495 161.417C365.302 161.79 365.074 162.144 364.816 162.476L362.819 165.29C362.314 165.873 361.912 166.537 361.63 167.255C361.524 167.67 361.513 168.104 361.598 168.524C361.684 168.945 361.863 169.34 362.123 169.681C362.413 170.052 362.791 170.344 363.224 170.531C363.656 170.717 364.129 170.792 364.598 170.748C365.102 170.681 365.586 170.511 366.021 170.247L367.484 169.503L370.371 168.039C370.762 167.818 371.099 167.515 371.361 167.15C371.623 166.786 371.802 166.369 371.887 165.928C371.971 165.487 371.959 165.034 371.851 164.598C371.743 164.163 371.541 163.756 371.261 163.406C370.978 163.113 370.672 162.842 370.347 162.597C370.04 162.347 369.748 162.104 369.457 161.878L368.649 161.223C368.43 161.024 368.178 160.865 367.905 160.754C367.454 160.601 366.965 160.601 366.514 160.754C366.148 160.902 365.813 161.119 365.527 161.392Z" fill="#455A64"/>
<path d="M329.584 205.3C329.584 205.3 332.349 199.43 343.209 199.446H348.206C348.206 199.446 357.966 201.548 359.139 205.316L329.584 205.3Z" fill="#263238"/>
<path d="M336.32 132.541L338.568 141.436C338.592 141.532 338.642 141.619 338.713 141.688C338.783 141.757 338.872 141.805 338.968 141.827C339.065 141.849 339.165 141.844 339.259 141.812C339.352 141.78 339.435 141.722 339.498 141.646L346.202 134.781C346.263 134.708 346.304 134.621 346.321 134.528C346.337 134.434 346.329 134.338 346.296 134.249C346.263 134.16 346.207 134.082 346.133 134.022C346.06 133.962 345.972 133.922 345.878 133.907L336.919 131.926C336.836 131.913 336.751 131.92 336.671 131.947C336.591 131.973 336.519 132.019 336.461 132.079C336.402 132.139 336.359 132.212 336.334 132.293C336.31 132.373 336.305 132.458 336.32 132.541Z" fill="#263238"/>
<path d="M336.319 132.541C336.319 132.541 336.263 132.476 336.271 132.323C336.282 132.205 336.329 132.094 336.406 132.004C336.483 131.915 336.585 131.851 336.699 131.821C336.859 131.789 337.024 131.789 337.185 131.821L337.726 131.926L339.052 132.193L342.57 132.929L344.689 133.382L345.829 133.625C345.959 133.639 346.083 133.685 346.192 133.758C346.3 133.831 346.389 133.93 346.451 134.045C346.515 134.175 346.54 134.32 346.523 134.464C346.506 134.607 346.447 134.743 346.354 134.854L343.37 137.918L339.643 141.719C339.561 141.816 339.455 141.89 339.336 141.934C339.217 141.978 339.088 141.99 338.963 141.97C338.838 141.95 338.72 141.897 338.621 141.818C338.521 141.738 338.445 141.635 338.397 141.517C338.292 141.12 338.22 140.805 338.131 140.465C337.969 139.794 337.815 139.147 337.662 138.541C337.379 137.344 337.12 136.285 336.902 135.371C336.683 134.457 336.562 133.843 336.433 133.293C336.359 133.046 336.318 132.791 336.311 132.533C336.417 132.767 336.501 133.011 336.562 133.261C336.716 133.802 336.91 134.482 337.136 135.306C337.362 136.131 337.67 137.271 337.985 138.46L338.495 140.368L338.761 141.379C338.784 141.433 338.819 141.481 338.865 141.517C338.911 141.553 338.966 141.576 339.023 141.585C339.081 141.594 339.14 141.588 339.195 141.568C339.249 141.547 339.298 141.513 339.335 141.468L343.047 137.651L346.039 134.595C346.081 134.542 346.108 134.479 346.115 134.412C346.122 134.345 346.109 134.277 346.078 134.217C346.047 134.157 346 134.107 345.941 134.074C345.882 134.04 345.815 134.025 345.748 134.029L344.616 133.77L342.497 133.285L338.996 132.476L337.678 132.153L337.144 132.023C337.011 131.971 336.867 131.948 336.724 131.959C336.63 131.978 336.544 132.022 336.476 132.088C336.407 132.154 336.358 132.238 336.336 132.331C336.311 132.46 336.335 132.541 336.319 132.541Z" fill="#455A64"/>
<path d="M329.69 157.899C334.129 151.956 336.644 145.907 336.223 139.721L327.886 131.692C319.8 128.999 308.682 137.482 308.682 137.482C308.682 137.482 311.439 152.441 329.69 157.899Z" fill="#263238"/>
<path d="M340.739 125.808L340.998 126.052C342.175 127.155 342.865 128.68 342.917 130.292C342.968 131.904 342.378 133.47 341.275 134.647L333.746 142.674L324.616 134.112L332.149 126.078C332.695 125.496 333.351 125.027 334.078 124.699C334.805 124.37 335.59 124.188 336.388 124.163C337.186 124.138 337.981 124.27 338.727 124.552C339.474 124.835 340.157 125.261 340.739 125.808Z" fill="#263238"/>
<path d="M335.657 139.438C335.056 139.459 334.457 139.36 333.894 139.147C332.511 138.718 331.234 137.998 330.15 137.037C329.059 136.077 328.183 134.898 327.579 133.576C327.303 133.045 327.133 132.465 327.078 131.87C327.374 132.381 327.644 132.907 327.886 133.446C328.538 134.685 329.409 135.794 330.458 136.721C331.51 137.643 332.718 138.371 334.024 138.872C335.01 139.244 335.665 139.366 335.657 139.438Z" fill="#455A64"/>
<path d="M368.414 164.271C368.414 164.42 368.37 164.565 368.287 164.689C368.204 164.813 368.087 164.909 367.949 164.966C367.812 165.023 367.661 165.038 367.515 165.009C367.369 164.98 367.235 164.908 367.13 164.803C367.025 164.698 366.953 164.564 366.924 164.418C366.895 164.272 366.91 164.121 366.967 163.983C367.024 163.846 367.12 163.728 367.244 163.646C367.368 163.563 367.513 163.519 367.662 163.519C367.76 163.519 367.858 163.538 367.949 163.576C368.041 163.614 368.124 163.669 368.193 163.739C368.263 163.809 368.319 163.892 368.356 163.983C368.394 164.075 368.414 164.172 368.414 164.271Z" fill="#455A64"/>
<path d="M340.566 138.233C340.566 138.382 340.521 138.528 340.439 138.651C340.356 138.775 340.239 138.871 340.101 138.928C339.964 138.985 339.813 139 339.667 138.971C339.521 138.942 339.387 138.87 339.282 138.765C339.177 138.66 339.105 138.526 339.076 138.38C339.047 138.234 339.062 138.083 339.119 137.946C339.176 137.808 339.272 137.691 339.396 137.608C339.519 137.526 339.665 137.481 339.814 137.481C340.013 137.481 340.204 137.561 340.345 137.702C340.486 137.843 340.566 138.034 340.566 138.233Z" fill="#455A64"/>
<path d="M343.419 135.315C343.419 135.463 343.375 135.609 343.292 135.732C343.21 135.856 343.092 135.952 342.955 136.009C342.817 136.066 342.666 136.081 342.52 136.052C342.374 136.023 342.24 135.951 342.135 135.846C342.03 135.741 341.959 135.607 341.929 135.461C341.9 135.315 341.915 135.164 341.972 135.027C342.029 134.889 342.126 134.772 342.249 134.689C342.373 134.607 342.518 134.562 342.667 134.562C342.766 134.562 342.864 134.582 342.955 134.62C343.046 134.658 343.129 134.713 343.199 134.783C343.269 134.853 343.324 134.935 343.362 135.027C343.4 135.118 343.419 135.216 343.419 135.315Z" fill="#455A64"/>
<path d="M365.365 167.004C365.365 167.153 365.321 167.298 365.239 167.422C365.156 167.546 365.039 167.642 364.901 167.699C364.764 167.756 364.612 167.771 364.467 167.742C364.321 167.713 364.187 167.641 364.082 167.536C363.976 167.431 363.905 167.297 363.876 167.151C363.847 167.005 363.862 166.854 363.919 166.716C363.975 166.579 364.072 166.462 364.196 166.379C364.319 166.296 364.465 166.252 364.613 166.252C364.813 166.252 365.004 166.331 365.145 166.472C365.286 166.613 365.365 166.805 365.365 167.004Z" fill="#455A64"/>
<path d="M335.552 218.416L335.325 348.887H213.644V218.06H205.841V348.887V356.14H213.644H335.325H343.128V348.887L343.355 218.416H335.552Z" fill="#E0E0E0"/>
<path d="M335.552 218.449H343.356H343.396C343.396 235.842 343.339 285.645 343.291 356.172V356.334H343.097H205.81H205.632V356.132C205.632 317.9 205.632 276.297 205.632 233.125V217.842H213.855V218.052C213.855 264.208 213.855 308.27 213.855 348.878L213.661 348.684L335.342 348.725L335.189 348.878C335.423 268.373 335.569 219.629 335.569 218.408C335.569 219.629 335.569 268.373 335.504 348.878V349.032H335.342L213.661 349.073H213.467V348.878C213.467 308.27 213.467 264.208 213.467 218.052L213.678 218.263H205.874L206.085 218.052V233.125C206.085 276.297 206.085 317.9 206.085 356.132L205.883 355.93L343.17 355.97L343.008 356.132C343.186 285.604 343.307 235.801 343.356 218.408L343.396 218.449H335.552Z" fill="#263238"/>
<path d="M366.853 205.3H190.542V219.37H366.853V205.3Z" fill="#AE7461"/>
<path d="M234.741 205.042L234.288 205.147C233.997 205.203 233.56 205.268 233.002 205.397C231.886 205.624 230.285 206.012 228.337 206.586C226.388 207.16 224.083 207.936 221.544 208.842C219.005 209.748 216.223 210.767 213.24 211.68C210.439 212.548 207.569 213.17 204.66 213.54C202.299 213.841 199.91 213.86 197.544 213.597C195.938 213.415 194.357 213.055 192.83 212.521C192.415 212.38 192.008 212.218 191.609 212.036C191.334 211.923 191.197 211.85 191.197 211.85C191.197 211.85 191.35 211.89 191.633 211.996C191.916 212.101 192.321 212.279 192.863 212.432C194.393 212.924 195.97 213.255 197.569 213.419C199.937 213.658 202.324 213.626 204.685 213.322C207.576 212.936 210.429 212.309 213.215 211.446C216.191 210.532 218.973 209.521 221.52 208.632C224.067 207.742 226.372 206.974 228.328 206.424C229.877 205.973 231.448 205.601 233.035 205.308C233.593 205.195 234.037 205.147 234.328 205.098C234.62 205.05 234.741 205.042 234.741 205.042Z" fill="#6F4439"/>
<path d="M324.667 218.036C324.603 217.976 324.544 217.911 324.489 217.842C324.33 217.645 324.16 217.456 323.98 217.276C323.293 216.571 322.505 215.972 321.643 215.497C320.277 214.752 318.791 214.254 317.252 214.025C315.212 213.741 313.139 213.793 311.115 214.179C308.654 214.657 306.224 215.281 303.837 216.047C301.1 216.949 298.272 217.545 295.403 217.826C293.841 217.937 292.271 217.831 290.738 217.51C289.145 217.159 287.594 216.639 286.112 215.958C283.08 214.624 280.153 212.812 276.918 211.502C270.409 208.882 263.528 208.68 257.552 209.449C252.229 210.213 247.015 211.606 242.019 213.597C237.733 215.214 234.361 216.831 232.024 217.85L229.331 219.071C228.717 219.354 228.385 219.492 228.385 219.492C228.385 219.492 228.701 219.322 229.307 219.031L231.975 217.761C234.304 216.678 237.676 215.101 241.954 213.435C246.952 211.416 252.176 210.007 257.512 209.238C263.512 208.43 270.45 208.648 276.999 211.284C280.234 212.61 283.185 214.422 286.193 215.748C287.66 216.423 289.194 216.941 290.77 217.292C292.281 217.613 293.83 217.719 295.371 217.607C298.223 217.332 301.038 216.749 303.765 215.869C306.152 215.11 308.582 214.494 311.042 214.025C313.086 213.645 315.179 213.604 317.236 213.904C318.786 214.147 320.28 214.662 321.651 215.424C322.512 215.913 323.295 216.529 323.972 217.252C324.223 217.495 324.456 217.757 324.667 218.036Z" fill="#6F4439"/>
<path d="M365.826 209.65C363.963 210.379 362.046 210.963 360.093 211.397C359.187 211.607 358.193 211.826 357.117 211.979C356.042 212.133 354.877 212.295 353.656 212.432C348.342 212.909 342.986 212.516 337.799 211.268C336.611 210.96 335.479 210.686 334.452 210.33C333.425 209.974 332.454 209.65 331.589 209.319C329.719 208.605 327.907 207.745 326.171 206.748C326.303 206.792 326.43 206.849 326.551 206.917L327.627 207.427C328.088 207.661 328.662 207.936 329.341 208.235C330.02 208.535 330.781 208.874 331.654 209.173C332.527 209.473 333.465 209.845 334.508 210.152C335.551 210.459 336.675 210.766 337.856 211.066C343.014 212.273 348.33 212.655 353.608 212.198C354.821 212.068 355.977 211.971 357.052 211.777C358.128 211.583 359.114 211.421 360.02 211.227C360.926 211.033 361.734 210.815 362.446 210.629C363.158 210.443 363.764 210.273 364.249 210.111L365.389 209.756C365.531 209.706 365.677 209.671 365.826 209.65Z" fill="#6F4439"/>
<path d="M264.854 201.759H210.75C209.741 201.759 208.922 202.577 208.922 203.586V203.691C208.922 204.7 209.741 205.519 210.75 205.519H264.854C265.864 205.519 266.682 204.7 266.682 203.691V203.586C266.682 202.577 265.864 201.759 264.854 201.759Z" fill="#455A64"/>
<path d="M280.251 155.376L266.731 203.974C266.589 204.477 266.255 204.903 265.8 205.16C265.346 205.418 264.809 205.486 264.305 205.349C263.802 205.207 263.376 204.873 263.118 204.419C262.861 203.964 262.793 203.427 262.93 202.923L276.458 154.285C276.598 153.781 276.932 153.353 277.387 153.095C277.842 152.838 278.38 152.771 278.884 152.91C279.137 152.981 279.373 153.101 279.578 153.263C279.784 153.426 279.956 153.628 280.083 153.857C280.21 154.087 280.29 154.339 280.319 154.6C280.348 154.861 280.325 155.125 280.251 155.376Z" fill="#455A64"/>
<path d="M269.245 159.136C269.164 159.225 265.38 155.684 260.795 151.244C256.21 146.805 252.564 143.158 252.644 143.045C252.725 142.932 256.501 146.49 261.086 150.937C265.671 155.384 269.326 159.055 269.245 159.136Z" fill="#263238"/>
<path d="M267.402 164.95C266.939 164.816 266.487 164.646 266.051 164.441L262.453 162.929C259.404 161.651 255.175 159.912 250.51 158.077C245.844 156.241 241.542 154.656 238.445 153.524L234.742 152.142C234.286 152 233.842 151.821 233.416 151.608C233.887 151.693 234.35 151.821 234.798 151.988C235.68 152.263 236.949 152.675 238.51 153.209C241.639 154.268 245.933 155.813 250.639 157.656C255.345 159.5 259.534 161.287 262.542 162.629C264.054 163.309 265.267 163.867 266.1 164.247C266.55 164.451 266.985 164.686 267.402 164.95Z" fill="#263238"/>
<path d="M266.657 170.74C265.555 170.91 264.434 170.934 263.326 170.813C262.21 170.837 261.096 170.72 260.01 170.465C262.229 170.276 264.462 170.369 266.657 170.74Z" fill="#263238"/>
<path d="M368.859 333.143C368.859 333.143 365.503 310.025 365.778 296.577C366.053 283.13 365.778 267.993 365.778 267.993H367.33C367.33 267.993 366.279 294.677 367.419 310.793C368.559 326.909 371.567 333.143 371.567 333.143H368.875" fill="#263238"/>
<path d="M378.877 241.979C378.635 241.162 378.143 240.441 377.47 239.917C376.484 239.295 375.198 239.553 374.098 239.917C369.416 241.575 365.268 250.3 363.376 254.893L369.586 275.836C380.81 265.454 382.75 251.796 378.877 241.979Z" fill="#455A64"/>
<path d="M377.106 240.766C377.085 240.859 377.053 240.949 377.009 241.033C376.937 241.235 376.832 241.494 376.71 241.801C376.435 242.456 376.055 243.419 375.594 244.607C374.681 246.985 373.516 250.268 372.473 254.052C371.43 257.836 370.718 261.257 370.282 263.755C370.055 265.009 369.894 266.028 369.788 266.731C369.732 267.063 369.691 267.329 369.651 267.54C369.64 267.634 369.619 267.726 369.586 267.815C369.577 267.72 369.577 267.626 369.586 267.532C369.586 267.313 369.635 267.046 369.667 266.723C369.748 266.011 369.886 264.984 370.088 263.723C370.621 260.454 371.337 257.217 372.231 254.028C373.129 250.821 374.209 247.668 375.465 244.583C375.942 243.394 376.346 242.448 376.654 241.801C376.791 241.502 376.904 241.252 377.001 241.057C377.02 240.955 377.056 240.857 377.106 240.766Z" fill="#263238"/>
<path d="M366.828 280.882C363.998 279.273 361.63 276.962 359.951 274.172C358.273 271.382 357.342 268.207 357.246 264.952C357.02 260.311 358.451 255.75 360.068 251.383C360.166 250.991 360.398 250.645 360.723 250.405C360.991 250.304 361.281 250.273 361.564 250.315C361.847 250.358 362.114 250.472 362.341 250.648C366.57 253.073 369.141 257.658 370.5 262.332C371.483 265.433 371.811 268.704 371.462 271.939C370.928 275.338 369.312 278.474 366.853 280.882" fill="#455A64"/>
<path d="M366.828 280.882C366.818 280.788 366.818 280.693 366.828 280.599V279.79C366.828 279.087 366.828 278.076 366.739 276.831C366.576 273.577 366.214 270.337 365.656 267.127C365.017 263.375 364.233 260.02 363.651 257.594L362.963 254.715L362.785 253.907C362.758 253.817 362.742 253.725 362.737 253.632C362.78 253.714 362.812 253.8 362.834 253.89C362.89 254.101 362.963 254.351 363.06 254.699C363.246 255.37 363.513 256.316 363.828 257.553C364.451 259.979 365.268 263.335 365.915 267.095C366.469 270.303 366.806 273.545 366.925 276.798C366.925 278.044 366.925 279.055 366.925 279.758C366.925 280.081 366.925 280.348 366.925 280.567C366.907 280.675 366.874 280.781 366.828 280.882Z" fill="#263238"/>
<g opacity="0.3">
<path d="M366.829 280.882C363.999 279.273 361.63 276.962 359.952 274.172C358.274 271.382 357.342 268.207 357.247 264.952C357.02 260.311 358.452 255.75 360.069 251.383C360.167 250.991 360.398 250.645 360.724 250.405C360.992 250.304 361.281 250.273 361.564 250.315C361.847 250.358 362.115 250.472 362.341 250.648C366.57 253.073 369.142 257.658 370.5 262.332C371.484 265.433 371.811 268.704 371.462 271.939C370.929 275.338 369.312 278.474 366.853 280.882" fill="black"/>
</g>
<path d="M373.403 316.291C379.136 317.553 383.85 321.596 389.389 323.569C393.044 324.871 397.184 325.332 400.103 327.887C399.408 326.116 397.742 324.935 396.125 323.933C391.569 321.068 386.702 318.73 381.618 316.962C379.023 316.065 376.193 315.345 373.532 316.057" fill="#455A64"/>
<path d="M365.106 321.361C357.925 321.24 350.365 315.127 343.225 314.763C350.696 312.337 361.41 314.318 365.106 321.361Z" fill="#455A64"/>
<path d="M367.912 304.162C371.612 302.94 375.559 302.662 379.394 303.353C383.209 304.052 386.958 305.069 390.602 306.394C390.23 303.903 388.217 302.035 386.316 300.378C384.933 299.082 383.427 297.923 381.82 296.917C380.204 295.907 378.333 295.38 376.427 295.397C375.282 295.468 374.164 295.77 373.14 296.286C372.115 296.802 371.206 297.52 370.467 298.397C369.017 299.98 368.12 301.992 367.912 304.13" fill="#455A64"/>
<path d="M353.179 296.205C348.659 292.348 341.81 292.72 335.866 292.858C345.416 297.407 354.422 303.019 362.712 309.588C362.955 305.383 358.888 301.081 353.179 296.205Z" fill="#455A64"/>
<g opacity="0.3">
<path d="M353.179 296.205C348.659 292.348 341.81 292.72 335.866 292.858C345.416 297.407 354.422 303.019 362.712 309.588C362.955 305.383 358.888 301.081 353.179 296.205Z" fill="black"/>
</g>
<path d="M369.95 290.876C372.155 289.348 374.478 287.996 376.896 286.833C379.281 285.758 381.497 284.035 383.793 282.79C386.777 281.173 389.357 278.933 392.09 276.936C394.823 274.938 397.831 273.127 401.179 272.602C398.422 272.107 395.588 272.271 392.907 273.079C390.238 273.881 387.637 274.893 385.128 276.103C381.602 277.72 378.012 279.337 375.133 281.901C372.255 284.464 369.643 287.019 369.95 290.876Z" fill="#455A64"/>
<path d="M389.251 321.361L389.025 321.256L388.402 320.933C387.861 320.65 387.084 320.221 386.106 319.728C385.621 319.477 385.087 319.21 384.489 318.919C383.89 318.628 383.284 318.353 382.621 318.062C381.194 317.423 379.714 316.909 378.198 316.526C376.697 316.109 375.117 316.067 373.597 316.405C372.931 316.549 372.277 316.744 371.64 316.987C371.094 317.208 370.569 317.479 370.071 317.795C369.344 318.247 368.678 318.79 368.09 319.413C367.669 319.857 367.467 320.124 367.451 320.116C367.483 320.04 367.527 319.969 367.581 319.906C367.714 319.708 367.859 319.519 368.017 319.34C368.585 318.679 369.241 318.1 369.966 317.617C370.478 317.286 371.02 317.002 371.583 316.768C372.227 316.513 372.889 316.308 373.564 316.154C375.122 315.791 376.745 315.825 378.287 316.251C379.817 316.637 381.308 317.162 382.742 317.82C383.405 318.119 384.028 318.41 384.602 318.701C385.176 318.992 385.718 319.259 386.219 319.51C387.19 320.027 387.958 320.48 388.483 320.795L389.082 321.159C389.187 321.305 389.26 321.353 389.251 321.361Z" fill="#263238"/>
<path d="M359.785 317.795C359.942 317.819 360.095 317.865 360.238 317.933C360.637 318.077 361.026 318.247 361.403 318.442C362.663 319.075 363.821 319.892 364.839 320.868C365.857 321.84 366.721 322.961 367.403 324.192C367.611 324.563 367.798 324.946 367.961 325.34C368.03 325.48 368.079 325.63 368.106 325.785C368.066 325.785 367.799 325.194 367.249 324.289C365.804 321.914 363.76 319.962 361.322 318.628C360.351 318.087 359.737 317.844 359.785 317.795Z" fill="#263238"/>
<path d="M343.864 295.841C343.969 295.86 344.072 295.89 344.171 295.93L345.036 296.238L346.395 296.739C346.92 296.941 347.494 297.232 348.149 297.548C351.518 299.107 354.662 301.111 357.497 303.507C359.048 304.835 360.504 306.27 361.856 307.801C362.956 309.05 363.99 310.357 364.953 311.714C365.761 312.879 366.392 313.849 366.82 314.512L367.306 315.321C367.372 315.405 367.426 315.497 367.467 315.596C367.391 315.52 367.323 315.436 367.265 315.345C367.144 315.183 366.958 314.933 366.731 314.601C366.279 313.946 365.64 312.984 364.799 311.852C363.958 310.72 362.915 309.426 361.678 307.987C360.322 306.475 358.869 305.055 357.327 303.733C354.508 301.337 351.397 299.308 348.069 297.693C347.43 297.402 346.864 297.103 346.338 296.884L344.996 296.343L344.187 295.987C344.074 295.951 343.966 295.902 343.864 295.841Z" fill="#263238"/>
<path d="M378.691 300.119C378.497 300.118 378.304 300.093 378.117 300.046L377.454 299.925C377.203 299.876 376.904 299.876 376.572 299.844C374.869 299.692 373.158 300.028 371.64 300.814C370.809 301.251 370.051 301.813 369.392 302.48C368.848 303.022 368.366 303.621 367.952 304.267C367.577 304.87 367.247 305.499 366.966 306.151C366.985 305.959 367.034 305.771 367.111 305.593C367.29 305.096 367.52 304.619 367.799 304.17C368.194 303.494 368.675 302.872 369.23 302.319C369.89 301.617 370.664 301.032 371.518 300.588C373.077 299.778 374.843 299.454 376.588 299.658C376.92 299.707 377.227 299.723 377.478 299.788L378.141 299.949C378.329 299.989 378.513 300.046 378.691 300.119Z" fill="#263238"/>
<path d="M385.904 277.704C385.824 277.774 385.734 277.831 385.637 277.874L384.828 278.311C384.125 278.683 383.122 279.24 381.909 279.928C380.696 280.615 379.265 281.545 377.745 282.629C376.087 283.79 374.534 285.094 373.103 286.526C372.364 287.246 371.725 288.062 371.203 288.952C370.734 289.85 370.281 290.723 369.869 291.564C369.127 293.043 368.463 294.56 367.88 296.108C367.49 297.152 367.164 298.219 366.901 299.302C366.83 299.706 366.738 300.105 366.626 300.499C366.619 300.394 366.619 300.289 366.626 300.184C366.626 299.973 366.675 299.674 366.772 299.286C366.999 298.189 367.299 297.109 367.67 296.052C368.233 294.487 368.887 292.956 369.626 291.467C370.039 290.658 370.484 289.744 370.953 288.839C371.481 287.918 372.131 287.072 372.885 286.324C374.326 284.882 375.896 283.574 377.575 282.418C379.111 281.335 380.559 280.453 381.788 279.742C383.017 279.03 384.036 278.513 384.748 278.165L385.556 277.769L385.904 277.704Z" fill="#263238"/>
<path d="M365.769 299.448C365.702 299.251 365.655 299.048 365.632 298.841C365.543 298.405 365.438 297.847 365.316 297.184C364.646 293.532 363.499 289.984 361.904 286.631L361.209 285.095C361.107 284.911 361.028 284.716 360.974 284.513C361.099 284.679 361.208 284.858 361.298 285.046C361.484 285.402 361.75 285.912 362.106 286.55C362.939 288.219 363.65 289.946 364.233 291.717C364.8 293.494 365.232 295.31 365.527 297.151C365.64 297.863 365.721 298.429 365.761 298.833C365.784 299.037 365.786 299.243 365.769 299.448Z" fill="#263238"/>
<path d="M365.252 283.138C365.025 280.418 364.229 277.776 362.915 275.383C361.145 272.09 358.675 269.225 355.678 266.989C352.682 264.754 349.231 263.203 345.57 262.446L361.629 286.373L363.707 290.65C365.006 288.373 365.547 285.743 365.252 283.138Z" fill="#455A64"/>
<path d="M392.26 324.83H347.034V332.844H392.26V324.83Z" fill="#9747FF"/>
<path d="M350.413 331.251L356.478 356.124H384.286L388.879 331.251H350.413Z" fill="#9747FF"/>
<path d="M392.235 332.852C392.235 332.941 382.03 333.013 369.456 333.013C356.882 333.013 346.669 332.941 346.669 332.852C346.669 332.763 356.866 332.69 369.456 332.69C382.046 332.69 392.235 332.763 392.235 332.852Z" fill="#263238"/>
<path d="M319.519 37.7418L300.7 67.7531L295.904 72.673L295.781 74.641L346.701 74.518L343.872 91.2456L272.288 91.2456L275.732 71.689L301.438 31.9609L319.519 37.7418ZM331.942 113.508L312.631 113.508L326.776 33.0679L346.209 33.0679L331.942 113.508Z" fill="#6A32B3"/>
<path d="M219.029 73.6569C216.159 90.3025 220.013 98.6253 230.591 98.6253C241.169 98.6253 247.893 90.3025 250.763 73.6569C252.321 65.0471 252.075 58.7742 250.025 54.8383C248.057 50.8204 244.49 48.8114 239.324 48.8114C234.158 48.8114 229.853 50.8204 226.409 54.8383C223.047 58.7742 220.587 65.0471 219.029 73.6569ZM199.596 73.6569C202.22 59.1432 207.222 48.4425 214.601 41.5546C222.063 34.5848 231.329 31.0999 242.399 31.0999C247.401 31.0999 251.829 31.9198 255.683 33.5598C259.536 35.1178 262.816 37.6187 265.522 41.0626C268.31 44.5065 270.073 48.9344 270.811 54.3463C271.631 59.6762 271.426 66.1131 270.196 73.6569C267.654 88.1705 262.652 98.9533 255.191 106.005C247.729 112.975 238.463 116.46 227.393 116.46C216.323 116.46 208.288 112.975 203.286 106.005C198.284 98.9533 197.054 88.1705 199.596 73.6569Z" fill="#6A32B3"/>
<path d="M166.975 37.7418L148.156 67.7531L143.359 72.673L143.236 74.641L194.157 74.518L191.328 91.2456L119.744 91.2456L123.188 71.689L148.894 31.9609L166.975 37.7418ZM179.397 113.508L160.087 113.508L174.231 33.0679L193.665 33.0679L179.397 113.508Z" fill="#6A32B3"/>
<path d="M313.441 37.7418L294.623 67.7531L289.826 72.673L289.703 74.641L340.624 74.518L337.795 91.2456L266.21 91.2456L269.654 71.689L295.361 31.9609L313.441 37.7418ZM325.864 113.508L306.554 113.508L320.698 33.0679L340.132 33.0679L325.864 113.508Z" fill="#9747FF"/>
<path d="M212.952 73.6569C210.082 90.3025 213.936 98.6253 224.513 98.6253C235.091 98.6253 241.815 90.3025 244.685 73.6569C246.243 65.0471 245.997 58.7742 243.947 54.8383C241.979 50.8204 238.412 48.8114 233.246 48.8114C228.08 48.8114 223.775 50.8204 220.332 54.8383C216.97 58.7742 214.51 65.0471 212.952 73.6569ZM193.518 73.6569C196.142 59.1432 201.144 48.4425 208.524 41.5546C215.986 34.5848 225.251 31.0999 236.321 31.0999C241.323 31.0999 245.751 31.9198 249.605 33.5598C253.459 35.1178 256.739 37.6187 259.445 41.0626C262.233 44.5065 263.996 48.9344 264.734 54.3463C265.554 59.6762 265.349 66.1131 264.119 73.6569C261.577 88.1705 256.575 98.9533 249.113 106.005C241.651 112.975 232.385 116.46 221.316 116.46C210.246 116.46 202.21 112.975 197.208 106.005C192.206 98.9533 190.976 88.1705 193.518 73.6569Z" fill="#9747FF"/>
<path d="M160.897 37.7418L142.078 67.7531L137.281 72.673L137.158 74.641L188.079 74.518L185.25 91.2456L113.666 91.2456L117.11 71.689L142.816 31.9609L160.897 37.7418ZM173.32 113.508L154.009 113.508L168.154 33.0679L187.587 33.0679L173.32 113.508Z" fill="#9747FF"/>
</svg>
