<svg width="70" height="72" viewBox="0 0 70 72" fill="none" xmlns="http://www.w3.org/2000/svg">
<path d="M13.8018 10.0791V13.3299C12.6362 14.3692 9.85463 14.9887 7.78834 14.9887C5.72204 14.9887 0 13.6897 0 7.57428C0 1.45889 5.45051 0.139889 7.64263 0.139889C9.83476 0.139889 12.1858 0.546256 13.5435 1.4589V4.32339C13.5435 4.68312 13.06 4.64981 13.06 4.32339C13.0269 3.8371 11.7355 0.912638 8.50359 0.972593C5.01341 1.04587 2.65571 3.8038 2.65571 7.44106C2.65571 11.0783 4.94718 14.2093 8.41087 14.1093C9.53673 14.076 10.709 13.723 11.2719 13.2433L11.2851 10.0724C11.2851 9.16641 10.7354 8.83998 10.1858 8.83998C9.82813 8.83998 9.82813 8.32038 10.1858 8.32038H14.9078C15.2654 8.32038 15.2654 8.87329 14.9078 8.83998C14.3647 8.83998 13.8084 9.16641 13.8084 10.0724L13.8018 10.0791ZM45.6174 4.32339C45.6174 4.68312 45.2598 4.64981 45.2598 4.32339C45.2266 3.8371 43.9352 0.812724 40.7033 0.879341C37.2131 0.945957 34.8488 3.81045 34.8488 7.4477C34.8488 11.085 37.1138 14.3092 40.5709 14.2159C44.0279 14.116 45.677 10.6719 45.8094 10.2189C45.9419 9.76595 46.1671 9.83258 46.1671 10.1856V12.8503C44.7432 13.8895 42.061 14.9953 39.9947 14.9953C37.9284 14.9953 32.2063 13.6963 32.2063 7.58094C32.2063 1.46556 37.637 0 39.8357 0C42.0345 0 44.2663 0.552917 45.624 1.4589V4.32339H45.6174ZM68.7705 0.353066C69.287 0.353066 69.287 0.839373 68.7705 0.839373C68.2208 0.839373 67.6711 1.16578 67.6711 2.07176V12.9036C67.6711 13.8096 68.2208 14.136 68.7705 14.136C69.287 14.136 69.287 14.7888 68.7705 14.7888H64.0153C63.4988 14.7888 63.4988 14.136 64.0153 14.136C64.565 14.136 65.1147 13.8096 65.1147 12.9036V2.07176C65.1147 1.15911 64.565 0.839373 64.0153 0.839373C63.4988 0.839373 63.4988 0.353066 64.0153 0.353066H68.7705ZM30.9745 0.353066C31.4911 0.353066 31.4911 0.839373 30.9745 0.839373C30.4248 0.839373 29.8751 1.16578 29.8751 2.07176L29.8089 9.17973C29.8089 12.5838 27.0671 15.082 23.6829 15.082C20.2987 15.082 17.6562 12.5838 17.6562 9.17973V2.07176C17.6562 1.15911 17.1065 0.839373 16.5568 0.839373C16.0403 0.839373 16.0403 0.353066 16.5568 0.353066H21.3451C21.8616 0.353066 21.8616 0.839373 21.3451 0.839373C20.7954 0.839373 20.2457 1.16578 20.2457 2.07176V10.0058C20.2457 12.404 22.1928 14.3492 24.577 14.3492C26.9611 14.3492 28.895 11.9177 28.895 9.51948L28.7758 2.07176C28.7758 1.15911 28.2261 0.839373 27.6764 0.839373C27.1598 0.839373 27.1598 0.353066 27.6764 0.353066H30.9745ZM35.3985 32.2157C38.2728 30.7834 41.4384 30.044 44.6505 30.0506C56.1674 30.0506 65.4988 39.4435 65.4988 51.0281C65.4988 62.6127 56.1608 71.9989 44.6438 71.9989C41.4384 71.9989 38.2794 71.2529 35.4051 69.8273C25.0803 74.9567 12.5832 70.6933 7.48369 60.3078C2.38418 49.9223 6.62273 37.3518 16.9476 32.2223C19.8152 30.7967 22.9676 30.0573 26.1664 30.0573C29.491 30.0573 32.617 30.8367 35.4051 32.2223L35.3985 32.2157ZM39.6039 34.9669C42.8358 37.6849 45.1604 41.3288 46.2664 45.4124H41.9484C40.7364 41.9616 38.4383 39.0039 35.4051 36.9921C32.3785 39.0105 30.0805 41.9683 28.8685 45.4124H24.5505C25.6697 41.3288 28.0009 37.6782 31.2394 34.9536C29.597 34.4407 27.8817 34.1875 26.1598 34.1942C16.9211 34.2008 9.4374 41.7485 9.44402 51.0414C9.45064 60.3344 16.9542 67.8621 26.1929 67.8554C27.8817 67.8554 29.5639 67.5956 31.1732 67.0893C26.9214 63.4787 24.2922 58.296 23.8749 52.7135H33.7958V56.897H28.9678C30.2063 60.2345 32.4646 63.0924 35.4184 65.0642C38.3721 63.099 40.6238 60.2345 41.8557 56.897H37.0277V52.7135H46.9486C46.5048 58.296 43.8491 63.4721 39.5775 67.0693C48.3857 69.8872 57.7966 64.9909 60.598 56.1376C63.3994 47.2776 58.5317 37.8114 49.7301 34.9936C46.4386 33.941 42.9021 33.9344 39.6106 34.9869L39.6039 34.9669ZM61.4325 4.32339C61.4325 4.68312 61.0748 4.64981 61.0748 4.32339C61.0417 3.8371 59.7503 0.812724 56.5184 0.879341C53.0282 0.945957 50.6639 3.81045 50.6639 7.4477C50.6639 11.085 52.9289 14.3092 56.3859 14.2159C59.843 14.1227 61.4921 10.6719 61.6245 10.2189C61.757 9.76595 61.9822 9.83258 61.9822 10.1856V12.8503C60.5583 13.8895 57.8761 14.9953 55.8031 14.9953C53.7302 14.9953 48.0148 13.6963 48.0148 7.58094C48.0148 1.46556 53.4455 0 55.6442 0C57.8429 0 60.0748 0.552917 61.4325 1.4589V4.32339Z" fill="black"/>
</svg>
