<svg width="147" height="32" viewBox="0 0 147 32" fill="none" xmlns="http://www.w3.org/2000/svg">
<g clip-path="url(#clip0_1577_1707)">
<path d="M2.1543 25.0811V6.91892H5.63105L13.3629 19.7362H11.5208L19.1229 6.91892H22.5738L22.6256 25.0811H18.6819L18.6559 12.9643H19.3824L13.3111 23.1611H11.417L5.21592 12.9643H6.09808V25.0811H2.1543ZM32.539 25.2886C31.3801 25.2886 30.3422 25.0638 29.4255 24.6141C28.526 24.1643 27.8255 23.4811 27.3239 22.5643C26.8222 21.6303 26.5714 20.4454 26.5714 19.0097V11.1222H30.619V18.413C30.619 19.5719 30.8611 20.4281 31.3455 20.9816C31.8471 21.5178 32.5476 21.7859 33.4471 21.7859C34.0698 21.7859 34.6233 21.6562 35.1076 21.3968C35.592 21.12 35.9725 20.7049 36.2493 20.1514C36.526 19.5805 36.6644 18.8714 36.6644 18.0238V11.1222H40.712V25.0811H36.872V21.2411L37.5725 22.3568C37.1055 23.3254 36.4136 24.0605 35.4968 24.5622C34.5974 25.0465 33.6114 25.2886 32.539 25.2886ZM44.4618 25.0811V5.82919H48.5093V25.0811H44.4618ZM59.0128 25.2886C57.3696 25.2886 56.0896 24.8735 55.1728 24.0432C54.2561 23.1957 53.7977 21.9416 53.7977 20.2811V8.03459H57.8453V20.2292C57.8453 20.8173 58.0009 21.2757 58.3123 21.6043C58.6237 21.9157 59.0474 22.0714 59.5837 22.0714C60.2237 22.0714 60.7685 21.8984 61.2183 21.5524L62.308 24.4065C61.8928 24.7005 61.3912 24.9254 60.8031 25.0811C60.2323 25.2195 59.6355 25.2886 59.0128 25.2886ZM51.6442 14.547V11.4335H61.322V14.547H51.6442ZM64.5801 25.0811V11.1222H68.6276V25.0811H64.5801ZM66.6039 9.17622C65.8601 9.17622 65.2547 8.96 64.7876 8.52757C64.3206 8.09513 64.0871 7.55892 64.0871 6.91892C64.0871 6.27892 64.3206 5.7427 64.7876 5.31027C65.2547 4.87784 65.8601 4.66162 66.6039 4.66162C67.3476 4.66162 67.953 4.86919 68.4201 5.28432C68.8871 5.68216 69.1206 6.20108 69.1206 6.84108C69.1206 7.51568 68.8871 8.07784 68.4201 8.52757C67.9703 8.96 67.3649 9.17622 66.6039 9.17622Z" fill="#101F33"/>
<path d="M75.2441 1.72973C75.2441 0.774428 76.0185 0 76.9739 0H139.939C140.698 0 141.368 0.494104 141.592 1.21871L146.005 15.489C146.108 15.8218 146.108 16.1781 146.005 16.511L141.592 30.7813C141.368 31.5059 140.698 32 139.939 32H76.9739C76.0185 32 75.2441 31.2256 75.2441 30.2703V1.72973Z" fill="#2967F6"/>
<path d="M80.7949 25.0811V6.91892H88.6306C90.6544 6.91892 92.2198 7.32541 93.3268 8.13838C94.4511 8.95136 95.0133 10.1016 95.0133 11.5892C95.0133 12.5751 94.7798 13.4054 94.3128 14.08C93.863 14.7546 93.2403 15.2649 92.4447 15.6108C91.6663 15.9568 90.8101 16.1297 89.876 16.1297L90.3171 15.507C91.476 15.507 92.4706 15.6887 93.3009 16.0519C94.1484 16.3978 94.8057 16.9254 95.2728 17.6346C95.7398 18.3265 95.9733 19.1914 95.9733 20.2292C95.9733 21.7687 95.4025 22.9622 94.2609 23.8097C93.1365 24.6573 91.4328 25.0811 89.1495 25.0811H80.7949ZM82.7149 23.4984H89.1236C90.7149 23.4984 91.9344 23.2303 92.7819 22.6941C93.6295 22.1405 94.0533 21.267 94.0533 20.0735C94.0533 18.8973 93.6295 18.0411 92.7819 17.5049C91.9344 16.9514 90.7149 16.6746 89.1236 16.6746H82.5074V15.0919H88.5009C89.9538 15.0919 91.0782 14.8151 91.8738 14.2616C92.6868 13.7081 93.0933 12.8865 93.0933 11.7968C93.0933 10.6897 92.6868 9.86811 91.8738 9.3319C91.0782 8.77838 89.9538 8.50163 88.5009 8.50163H82.7149V23.4984ZM106.167 25.0811V22.0714L106.09 21.5784V16.5449C106.09 15.3859 105.761 14.4951 105.104 13.8724C104.464 13.2497 103.504 12.9384 102.224 12.9384C101.342 12.9384 100.503 13.0854 99.7069 13.3795C98.9112 13.6735 98.2367 14.0627 97.6831 14.547L96.8529 13.1719C97.5448 12.5838 98.375 12.1341 99.3437 11.8227C100.312 11.4941 101.333 11.3297 102.405 11.3297C104.17 11.3297 105.527 11.7708 106.479 12.653C107.447 13.5178 107.932 14.8411 107.932 16.6227V25.0811H106.167ZM101.471 25.2108C100.451 25.2108 99.5599 25.0465 98.7988 24.7178C98.055 24.3719 97.4842 23.9049 97.0864 23.3168C96.6885 22.7114 96.4896 22.0195 96.4896 21.2411C96.4896 20.5319 96.654 19.8919 96.9826 19.3211C97.3285 18.733 97.8821 18.266 98.6431 17.92C99.4215 17.5568 100.459 17.3751 101.757 17.3751H106.453V18.7503H101.809C100.494 18.7503 99.5772 18.9838 99.0583 19.4508C98.5567 19.9178 98.3058 20.4973 98.3058 21.1892C98.3058 21.9676 98.6085 22.5903 99.214 23.0573C99.8194 23.5243 100.667 23.7578 101.757 23.7578C102.794 23.7578 103.685 23.5243 104.429 23.0573C105.19 22.573 105.744 21.8811 106.09 20.9816L106.505 22.253C106.159 23.1524 105.553 23.8703 104.689 24.4065C103.841 24.9427 102.769 25.2108 101.471 25.2108ZM117.553 11.3297C118.66 11.3297 119.629 11.546 120.459 11.9784C121.307 12.3935 121.964 13.0335 122.431 13.8984C122.916 14.7632 123.158 15.853 123.158 17.1676V25.0811H121.316V17.3492C121.316 15.9135 120.952 14.8324 120.226 14.1059C119.517 13.3622 118.513 12.9903 117.216 12.9903C116.247 12.9903 115.4 13.1892 114.673 13.587C113.964 13.9676 113.411 14.5297 113.013 15.2735C112.632 16 112.442 16.8822 112.442 17.92V25.0811H110.6V11.4595H112.364V15.1957L112.079 14.4951C112.511 13.5092 113.203 12.7395 114.154 12.186C115.106 11.6151 116.239 11.3297 117.553 11.3297ZM127.252 21.5524L127.304 19.1914L135.788 11.4595H138.046L132.052 17.1935L131.014 18.0757L127.252 21.5524ZM125.799 25.0811V5.82919H127.641V25.0811H125.799ZM136.359 25.0811L130.677 17.9978L131.87 16.5708L138.616 25.0811H136.359Z" fill="white"/>
</g>
<defs>
<clipPath id="clip0_1577_1707">
<rect width="146.162" height="32" fill="white"/>
</clipPath>
</defs>
</svg>
