<svg width="84" height="56" viewBox="0 0 84 56" fill="none" xmlns="http://www.w3.org/2000/svg">
<path d="M32.8363 25.2329C33.509 24.7104 34.3443 24.5632 35.0909 24.2615C35.771 23.8862 35.9928 23.1355 35.771 22.3849C35.6971 22.0832 35.5419 21.8624 35.2462 21.7815C34.1152 21.4797 33.1394 22.0832 32.0084 21.9286C31.7792 21.8551 31.5575 21.7005 31.5575 21.4797C31.7053 20.6555 31.9344 19.8313 32.2375 19.0071C33.9673 14.8124 36.0002 10.8385 37.8039 6.72471C38.1809 5.67971 38.9349 4.62736 38.5579 3.50141C38.2548 2.44906 36.8282 2.75078 36.0002 3.0525C35.0171 3.50141 34.1891 4.0975 33.2872 4.62C32.7624 4.92172 32.0823 4.76718 31.5575 5.0689C29.9756 6.19485 29.3767 7.91688 28.6227 9.49173C27.7209 11.2138 27.1147 12.9358 26.3607 14.6578C25.0819 17.6604 23.5813 20.501 22.2211 23.4961L14.9028 25.1372C14.9028 25.1372 20.1069 13.002 22.2876 6.78358C22.3615 6.48185 22.2876 6.03295 22.0584 5.81217C21.2305 5.13513 20.0995 5.51045 19.1976 5.81217C17.5417 9.63156 15.945 13.4068 14.23 17.2777C13.099 19.8239 12.4411 21.0382 11.4654 23.6654C11.3175 24.0407 10.6152 26.1969 10.6152 26.1969C6.39427 27.7423 4.24312 28.309 0.901831 29.3393C0.680064 30.3107 0.147845 31.1349 0 32.1137C0.82793 32.1873 1.80369 32.1137 2.48378 32.4154C3.00863 32.6435 2.71299 33.5413 3.08999 33.9902C3.91792 34.6673 4.97498 34.8881 5.64768 35.7859C6.02468 36.2348 6.09859 36.8309 6.09859 37.4343C6.02467 39.0828 5.19679 40.5767 4.67194 42.2251C3.99186 44.3592 3.25997 46.486 2.49118 48.5907C2.26202 49.1942 2.63905 49.8639 2.79429 50.4673C3.02345 50.8426 3.47439 51.0634 3.92532 50.769C4.30232 50.4673 4.53148 50.0184 4.75325 49.6431C5.50725 48.1418 6.03205 46.6479 6.63821 45.1467C7.91707 41.7026 8.97417 38.2512 10.253 34.8071C12.8107 34.2846 15.2945 33.534 17.9336 33.534C18.0814 33.534 18.0075 33.9093 18.0075 34.1374C16.7286 39.3845 14.925 43.9545 13.72 49.1206C13.5722 49.5695 13.4169 50.1656 13.646 50.3937C15.0727 51.814 16.2777 53.2417 17.4087 54.9637C17.4827 55.0373 17.6379 55.1109 17.7858 55.1109C18.3106 55.1845 18.9168 55.1845 19.3677 55.1845C19.9739 55.1109 20.0478 54.2057 20.2695 53.6832C22.3024 48.966 23.5073 44.1679 25.0079 39.2962C25.5327 37.7213 26.0576 36.2274 26.5159 34.579C26.8929 33.0777 27.27 31.6574 27.8688 30.2371C28.0979 29.7882 28.4749 29.4865 28.8445 29.1847C30.116 27.7497 31.247 26.3294 32.8289 25.2035L32.8363 25.2329ZM82.5786 1.02875C81.6768 -0.317972 79.7179 -0.0162482 78.5869 0.800614C75.5782 3.0525 74.972 6.64375 73.5453 9.79346C73.1683 10.5441 72.7174 11.2138 72.4143 11.8908C68.8734 19.2352 66.0939 26.5796 62.627 33.9166C61.8508 35.4621 61.3112 37.1031 60.6681 38.9356C60.5942 39.0092 60.5202 39.0092 60.4389 39.0827C60.2097 38.6338 59.5371 38.3321 59.611 37.8096C59.988 31.444 60.8898 25.2991 61.7178 18.8525C61.9469 17.3513 62.1687 16.0046 62.4718 14.5107C62.7749 12.715 63.2258 11.2138 63.6028 9.41814C63.9059 8.14501 63.9798 6.94548 64.0537 5.67235C64.0537 4.39922 64.1277 2.97155 63.6028 1.77202C63.2258 0.874205 62.4718 -0.25174 61.2668 0.0499839C60.8159 0.197166 60.4389 0.572481 59.988 0.727023C58.7091 1.02875 56.9793 0.653432 56.3732 2.00015C51.7087 13.0903 48.1086 24.2909 44.7821 35.8668C44.3312 37.4417 43.7324 38.862 43.5033 40.5104C43.2741 42.0117 42.8971 43.3584 42.6014 44.8597C42.2984 46.5817 41.6256 48.1565 41.4704 49.8786C41.3226 50.7764 41.3226 51.6006 41.3891 52.4984C41.67 53.3226 43.2889 52.388 43.799 51.6742C44.0281 50.0258 44.4051 48.4509 44.7821 46.7289C45.4622 43.2039 46.5119 39.9879 47.5616 36.6174C49.1435 31.5912 50.9547 26.6458 52.9802 21.7815C53.128 21.3326 53.2093 20.7291 53.7342 20.3612C53.7342 23.658 53.128 26.8813 53.0541 30.1782C52.9802 35.1971 52.751 40.1425 52.751 45.1614C52.751 45.6839 53.2758 45.9856 53.6528 46.3609C55.1608 47.5605 56.6097 48.6349 57.4672 50.3569C57.6298 50.6881 58.1695 50.1067 58.4725 49.8123C59.2266 48.9881 59.8254 48.0167 60.2024 47.038C61.0303 45.0878 61.7843 43.2186 62.6123 41.2684C65.3918 34.8292 68.1786 28.4562 71.4164 22.2377C71.4903 22.3113 71.5643 22.3849 71.5643 22.4659C70.5885 32.2093 68.7034 41.5775 68.1786 51.24C68.1786 51.7625 68.7847 52.1378 69.0065 52.5867C69.5313 53.8599 70.1375 55.133 71.3425 55.81C72.2443 56.2589 73.4492 55.8836 73.7523 54.9858C73.9002 54.3088 73.9001 53.5655 73.9814 52.8149C74.1293 52.0642 74.3585 51.3136 74.4324 50.563C74.7355 48.6128 75.1125 46.8172 75.4821 44.7934C76.0069 41.6511 76.5318 38.7957 77.1379 35.6534C79.0969 25.3138 81.0559 16.0266 82.9335 5.68707C83.2292 4.11958 83.5323 2.39754 82.5565 1.04346L82.5786 1.02875ZM39.0014 38.0083C37.9665 37.6624 36.9834 38.9429 36.3698 39.62C35.9928 38.9429 35.6897 37.8979 36.2219 37.3681C37.279 36.3157 37.693 35.4989 37.2051 33.924C36.7542 32.3492 34.7213 31.9738 33.2872 32.5037C32.2597 32.8569 31.8531 34.2552 31.9492 35.5209C31.9862 36.0361 32.1045 36.5365 32.3041 36.9265C32.452 37.2283 32.6072 37.7508 32.8289 38.0525C31.8606 38.3174 30.3008 40.1793 29.3472 42.1221C28.8593 43.1229 28.534 44.1385 28.534 44.9774C28.534 46.5523 30.7517 47.5973 32.0749 47.1851C32.962 46.9055 33.583 46.2873 34.4109 45.8384C35.1649 46.4345 35.6897 47.2587 36.5916 47.8622C36.6729 47.8622 36.8208 47.8622 36.8208 47.7886C37.1238 46.2873 36.4437 44.7934 37.1238 43.5129C37.6486 42.6151 38.4766 42.0117 39.0827 41.1139C39.7111 40.1719 40.0659 38.3174 39.0014 38.0083ZM33.886 43.1376C33.8121 43.7411 33.2798 43.9618 32.681 44.109C32.378 44.1826 32.0749 44.0354 31.8531 43.7337C31.6757 43.4467 31.6314 43.1008 31.7201 42.777C31.794 42.5047 31.9197 42.2398 32.0749 42.0043C32.3041 41.629 32.8363 41.3788 33.2799 41.5554C34.0339 41.8571 34.0338 42.5342 33.886 43.1303V43.1376ZM34.9357 36.1685C34.5661 36.0729 34.3295 35.6902 34.1965 35.2928C34.1226 35.0647 34.0634 34.8365 34.0413 34.601C33.9969 34.2184 34.3443 33.8946 34.7213 33.924C35.1574 33.9608 35.771 34.2257 35.6971 34.8218C35.6232 35.3443 35.5493 36.2421 34.9431 36.1685H34.9357Z" fill="black"/>
</svg>
