<svg width="117" height="40" viewBox="0 0 117 40" fill="none" xmlns="http://www.w3.org/2000/svg">
<path d="M27.2044 21.252C27.1545 16.1885 31.3416 13.7594 31.5247 13.6429C29.1676 10.2044 25.5129 9.72749 24.2096 9.67758C21.0983 9.36146 18.1367 11.5133 16.5506 11.5133C14.9644 11.5133 12.5298 9.72194 9.95089 9.7774C6.55677 9.82732 3.42335 11.7518 1.67083 14.7909C-1.85085 20.897 0.772358 29.9702 4.21085 34.9338C5.89682 37.363 7.89337 40.0971 10.5277 39.9973C13.0677 39.8975 14.0217 38.3557 17.0775 38.3557C20.1333 38.3557 20.9984 39.9973 23.6771 39.9474C26.4057 39.8919 28.1305 37.4683 29.7999 35.0337C31.7188 32.2108 32.5174 29.4877 32.5617 29.338C32.5007 29.3158 27.2488 27.3026 27.1933 21.2575" fill="black"/>
<path d="M22.1696 6.38893C23.5671 4.69741 24.51 2.34594 24.2548 0C22.2417 0.0831893 19.807 1.34212 18.365 3.03364C17.0728 4.53104 15.936 6.92134 16.2465 9.21737C18.4815 9.38929 20.7775 8.07489 22.1696 6.38338M44.847 26.2213L42.5287 33.2424H39.5506L47.1319 10.9311H50.6037L58.2127 33.2424H55.1347L52.7499 26.2213H44.8414H44.847ZM52.1621 23.9696L49.9825 17.5474C49.4834 16.0888 49.1562 14.7689 48.8234 13.4767H48.7624C48.4297 14.7966 48.0692 16.1553 47.6366 17.5141L45.457 23.964H52.1621V23.9696ZM60.4755 22.45C60.4755 20.398 60.4145 18.7398 60.3424 17.2202H62.9601L63.0932 19.971H63.1542C64.3465 18.0188 66.2322 16.8597 68.8499 16.8597C72.7265 16.8597 75.6325 20.1373 75.6325 25.0011C75.6325 30.7634 72.1275 33.6029 68.3507 33.6029C66.2322 33.6029 64.3798 32.6767 63.4204 31.0906H63.3594V39.7922H60.481V22.45H60.4755ZM63.3483 26.7204C63.3483 27.153 63.4093 27.5467 63.4813 27.9128C64.0138 29.9315 65.7607 31.3235 67.8516 31.3235C70.9296 31.3235 72.7209 28.8112 72.7209 25.1342C72.7209 21.9231 71.035 19.1779 67.9514 19.1779C65.966 19.1779 64.1136 20.6032 63.5479 22.7883C63.4481 23.1488 63.3483 23.5869 63.3483 23.9807V26.7204ZM78.6385 22.45C78.6385 20.398 78.5775 18.7398 78.5054 17.2202H81.1231L81.2561 19.971H81.3171C82.5095 18.0188 84.3952 16.8597 87.0128 16.8597C90.8895 16.8597 93.7955 20.1373 93.7955 25.0011C93.7955 30.7634 90.2905 33.6029 86.5137 33.6029C84.3951 33.6029 82.5428 32.6767 81.5833 31.0906H81.5223V39.7922H78.644V22.45H78.6385ZM81.5168 26.7204C81.5168 27.153 81.5778 27.5467 81.6499 27.9128C82.1823 29.9315 83.9293 31.3235 86.0201 31.3235C89.0981 31.3235 90.8895 28.8112 90.8895 25.1342C90.8895 21.9231 89.2035 19.1779 86.12 19.1779C84.1345 19.1779 82.2821 20.6032 81.7164 22.7883C81.6166 23.1488 81.5168 23.5869 81.5168 23.9807V26.7204ZM96.807 9.74422H99.7186V33.2424H96.807V9.74422ZM105.581 25.7609C105.642 29.6986 108.16 31.3235 111.071 31.3235C113.156 31.3235 114.415 30.963 115.502 30.4972L116.002 32.5825C114.981 33.0483 113.223 33.5752 110.677 33.5752C105.747 33.5752 102.797 30.3308 102.797 25.5003C102.797 20.6697 105.642 16.8597 110.311 16.8597C115.541 16.8597 116.933 21.4573 116.933 24.4077C116.933 25.0067 116.872 25.467 116.833 25.7609H105.586H105.581ZM114.121 23.6757C114.155 21.8233 113.362 18.945 110.084 18.945C107.134 18.945 105.847 21.6625 105.614 23.6757H114.121Z" fill="black"/>
</svg>
