<svg width="140" height="22" viewBox="0 0 140 22" fill="none" xmlns="http://www.w3.org/2000/svg">
<g clip-path="url(#clip0_1577_1755)">
<path d="M136.181 12.8543C136.181 17.2322 133.107 18.6915 129.878 18.6915C126.649 18.6915 123.637 17.2322 123.637 12.8543V3.85008H119.787V12.8543C119.787 19.4367 124.879 21.7964 129.878 21.7964C134.877 21.7964 140 19.4367 140 12.8543V3.85008L134.442 7.51386H136.181V12.8543ZM107.554 7.23442C110.472 7.23442 110.938 8.69372 110.938 9.87359C110.938 11.1466 110.441 12.5749 107.554 12.5749H99.9157V7.23442H107.554ZM115.44 21.4238L111.373 15.3693C114.012 14.3136 115.037 12.016 115.037 9.87359C115.037 7.14127 113.143 3.85008 108.113 3.85008H96.0967V21.4238H99.9157V15.9281H107.461L111.187 21.4238H115.44ZM92.2466 3.85008H87.1856L76.1943 13.0406V3.85008H72.3753V21.4238H76.1943V17.4185L80.8206 13.5063L87.5272 21.4238H92.495L83.7702 11.0224L92.2466 3.85008ZM66.9727 16.7975C65.3582 17.6669 62.3464 18.4431 59.0242 18.4431C53.4664 18.4431 50.2683 16.2697 50.2683 12.668C50.2683 9.06631 53.5285 6.89288 58.931 6.89288C62.4396 6.89288 65.234 7.76225 67.0038 8.78687V5.18519C64.644 4.09847 62.0359 3.57064 58.9 3.57064C51.0446 3.57064 46.1699 6.83078 46.1699 12.668C46.1699 18.5052 51.0446 21.7654 58.9 21.7654C61.9738 21.7654 64.644 21.2375 67.0038 20.1819V16.7975H66.9727ZM38.0971 12.8543C38.0971 17.2322 35.0233 18.6915 31.7942 18.6915C28.5651 18.6915 25.5533 17.2322 25.5533 12.8543V3.85008H21.7033V12.8543C21.7033 19.4367 26.7953 21.7964 31.7942 21.7964C36.7931 21.7964 41.9162 19.4367 41.9162 12.8543V3.85008H38.0971V12.8543ZM18.6294 21.4238V18.0705H3.97427V2.67022L0 0V21.4238H18.6294Z" fill="black"/>
</g>
<defs>
<clipPath id="clip0_1577_1755">
<rect width="140" height="21.7964" fill="white"/>
</clipPath>
</defs>
</svg>
