<svg width="140" height="47" viewBox="0 0 140 47" fill="none" xmlns="http://www.w3.org/2000/svg">
<g clip-path="url(#clip0_1577_1735)">
<path d="M8.1718 0.212986C9.32512 0.212986 10.4784 0.217517 11.6318 0.208454C11.9422 0.206188 12.0668 0.407849 12.1982 0.627636C12.6876 1.44787 13.1816 2.26811 13.671 3.08835C15.2345 5.70087 16.8002 8.30886 18.3591 10.9237C18.7012 11.4969 19.0071 12.0928 19.4557 12.6548C19.4648 12.4962 19.4829 12.3375 19.4807 12.1789C19.4399 9.11097 19.3968 6.04075 19.3515 2.97279C19.347 2.72128 19.347 2.46977 19.3288 2.21826C19.2881 1.61555 19.0524 1.14878 18.427 0.967513C18.0917 0.870082 17.8832 0.702409 18.0577 0.262834H22.3311C22.4738 0.59818 22.4195 0.831562 22.032 0.933526C21.2639 1.13519 21.0305 1.70165 21.0169 2.41766C21.0078 2.87083 20.9965 3.324 20.9965 3.77717C20.9965 7.87835 20.9965 11.9795 20.9965 16.0807C20.9965 16.3753 20.9965 16.6698 20.9965 17.0437C20.5026 17.0437 20.106 17.0369 19.7095 17.046C19.4331 17.0528 19.3175 16.867 19.1997 16.6676C18.776 15.9538 18.3477 15.2424 17.9263 14.5286C15.7239 10.8036 13.526 7.07851 11.3236 3.35572C11.2873 3.29454 11.2284 3.24922 11.1106 3.12234C11.0812 3.34665 11.0426 3.503 11.0449 3.65708C11.0812 7.05358 11.1197 10.4501 11.1605 13.8466C11.165 14.1729 11.1854 14.5014 11.1876 14.8277C11.1922 15.5324 11.4731 16.0241 12.1801 16.2529C12.563 16.3776 12.5517 16.4115 12.5041 16.9576H8.19673C8.02452 16.6472 8.01999 16.3708 8.42331 16.2711C9.27754 16.0581 9.48146 15.4236 9.50639 14.6714C9.52905 13.9916 9.52452 13.3119 9.52452 12.6344C9.52452 9.53922 9.52678 6.44407 9.52452 3.34892C9.52452 2.94787 9.51092 2.54228 9.47014 2.14349C9.41122 1.57476 9.14159 1.14878 8.557 0.974311C8.24431 0.881411 7.97921 0.747726 8.1786 0.215252L8.1718 0.212986Z" fill="black"/>
<path d="M36.5589 12.6027C36.5589 12.0747 36.5634 11.5491 36.5589 11.0211C36.5317 8.52868 36.5023 6.03851 36.4705 3.54608C36.466 3.11783 36.4433 2.69185 36.4388 2.26361C36.4343 1.61331 36.1737 1.15108 35.5211 0.956213C35.1903 0.856516 34.9819 0.682045 35.1813 0.256066H39.4705C39.5815 0.559689 39.5929 0.813464 39.2213 0.904098C38.3353 1.12162 38.1337 1.78778 38.1155 2.5695C38.1019 3.1994 38.1019 3.82704 38.1019 4.45695C38.1019 8.30889 38.1019 12.1586 38.1019 16.0105V17.0143C37.6193 17.0233 37.1707 17.0845 36.7447 17.0165C36.5544 16.9871 36.364 16.7243 36.2417 16.5249C35.5325 15.367 34.8391 14.1978 34.148 13.0264C32.2402 9.79982 30.3369 6.56872 28.4313 3.34215C28.395 3.28097 28.3339 3.23339 28.2183 3.1065C28.1866 3.33082 28.1435 3.4849 28.1458 3.63898C28.1843 7.13745 28.2296 10.6337 28.2727 14.1321C28.275 14.3587 28.2795 14.5853 28.2885 14.8119C28.3157 15.4984 28.5537 16.0422 29.281 16.2416C29.6503 16.3436 29.7795 16.5498 29.5914 16.9576H25.3044C25.1707 16.6381 25.1571 16.3708 25.5673 16.2666C26.3762 16.0581 26.605 15.4644 26.6073 14.7235C26.6141 12.8361 26.6186 10.9486 26.6209 9.06115C26.6209 7.12385 26.6209 5.18429 26.6209 3.24699C26.6209 2.94563 26.6141 2.642 26.6028 2.34065C26.5778 1.67675 26.3241 1.1692 25.6375 0.972074C25.2886 0.870111 25.1232 0.675248 25.3135 0.217546C26.0748 0.217546 26.886 0.301383 27.6722 0.197154C28.7281 0.056671 29.2833 0.480385 29.7976 1.37993C31.5242 4.39124 33.3505 7.34817 35.1291 10.33C35.5868 11.0982 36.0128 11.8844 36.4524 12.6639C36.4887 12.6457 36.5226 12.6276 36.5589 12.6117V12.6027Z" fill="black"/>
<path d="M128.104 3.07702C128.104 3.6027 128.104 4.02188 128.104 4.43879C128.122 7.50902 128.138 10.577 128.162 13.6472C128.167 14.0981 128.201 14.5513 128.226 15.0022C128.26 15.6208 128.552 16.0558 129.159 16.228C129.551 16.339 129.721 16.5294 129.513 16.9644H125.199C125.065 16.6427 125.042 16.373 125.453 16.2711C126.218 16.0785 126.488 15.546 126.508 14.8186C126.52 14.4176 126.558 14.0143 126.558 13.6132C126.563 10.2167 126.563 6.8202 126.558 3.42369C126.558 3.04756 126.522 2.67143 126.504 2.2953C126.47 1.62461 126.187 1.13972 125.507 0.951653C125.192 0.863285 125.031 0.684283 125.151 0.34214C125.675 0.190328 127.9 0.149543 129.012 0.278696C130.236 2.31569 131.48 4.38215 132.717 6.45313C133.952 8.52412 135.178 10.5996 136.442 12.7295C136.476 12.6276 136.526 12.5505 136.523 12.4758C136.483 9.33076 136.437 6.18803 136.394 3.04303C136.392 2.81645 136.383 2.58986 136.372 2.36328C136.338 1.68352 136.116 1.13292 135.381 0.935793C135.035 0.842893 134.962 0.616308 135.105 0.256038H139.378C139.489 0.568725 139.494 0.813437 139.125 0.908602C138.289 1.12159 138.048 1.72657 138.046 2.50603C138.046 2.98412 138.01 3.46221 138.008 3.93804C138.005 7.96445 138.008 11.9886 138.008 16.015V17.0143C137.518 17.0233 137.07 17.0822 136.641 17.0143C136.451 16.9825 136.265 16.7152 136.143 16.5135C135.293 15.1155 134.459 13.7106 133.628 12.3036C131.849 9.29451 130.075 6.28093 128.298 3.27188C128.273 3.2311 128.228 3.20164 128.106 3.07929L128.104 3.07702Z" fill="black"/>
<path d="M51.8943 46.3774C51.7607 46.0171 51.8445 45.7996 52.1912 45.7113C52.9525 45.5187 53.2267 44.9794 53.2267 44.2498C53.2289 40.1259 53.2267 36.0044 53.2335 31.8805C53.2335 31.1079 52.9162 30.5777 52.1436 30.3692C51.8218 30.2831 51.7833 30.0633 51.883 29.737C52.028 29.7144 52.1934 29.669 52.3588 29.669C54.244 29.669 56.1338 29.6237 58.0167 29.6962C58.9865 29.7348 59.9789 29.8775 60.9056 30.1585C63.5363 30.9583 64.9388 32.8594 65.3762 35.5104C65.6866 37.3933 65.6209 39.2717 65.1246 41.1206C64.3089 44.1524 62.2017 46.0375 59.0794 46.28C56.7523 46.4613 54.4072 46.3933 52.0711 46.4341C52.0235 46.4341 51.9782 46.4046 51.8921 46.3751L51.8943 46.3774ZM55.6421 45.2807C56.4328 45.2807 57.1579 45.3193 57.8807 45.2739C60.3732 45.1199 61.8664 43.919 62.5688 41.5081C63.0695 39.7929 63.1058 38.0368 62.9245 36.2717C62.8225 35.2634 62.5665 34.2936 62.0839 33.3918C61.5695 32.4288 60.8354 31.6947 59.8271 31.2551C58.4925 30.6728 57.099 30.6932 55.6421 30.8156V45.2807Z" fill="black"/>
<path d="M55.9001 8.35419C55.857 9.89043 55.7188 11.3859 55.1818 12.8247C53.7883 16.5588 49.7302 18.2605 46.0776 16.6336C44.8541 16.0875 43.9795 15.1835 43.379 13.9962C42.731 12.7137 42.4727 11.336 42.382 9.91989C42.2506 7.88969 42.4002 5.89348 43.2023 3.9947C44.3715 1.22583 46.8231 -0.233378 49.8299 0.0385241C52.6985 0.296831 54.4386 1.69033 55.3336 4.432C55.7528 5.71674 55.8548 7.04226 55.8978 8.35872L55.9001 8.35419ZM44.8994 8.39497C44.8881 9.78394 45.0059 11.1593 45.3594 12.5052C45.5792 13.3391 45.9032 14.1276 46.4583 14.8005C47.9311 16.5928 50.6547 16.5271 51.9779 14.6215C52.3699 14.0551 52.6803 13.3844 52.8525 12.7182C53.564 9.96068 53.5391 7.18728 52.7506 4.44787C52.5466 3.73865 52.2 3.03171 51.7717 2.42899C50.5142 0.659367 47.7634 0.727342 46.49 2.23866C45.944 2.8867 45.5814 3.62536 45.3594 4.43427C45.0036 5.72807 44.8926 7.05586 44.9039 8.39271L44.8994 8.39497Z" fill="black"/>
<path d="M108.703 8.65783C108.708 7.14877 108.891 5.50603 109.566 3.95166C110.749 1.22358 113.187 -0.231096 116.149 0.0317427C119.051 0.287784 120.857 1.68355 121.689 4.47054C122.502 7.19182 122.493 9.95163 121.587 12.648C120.336 16.3685 117.329 17.4992 114.205 17.114C111.798 16.8172 110.226 15.4463 109.381 13.1986C108.848 11.7847 108.719 10.3119 108.703 8.65783ZM119.715 8.80058C119.643 7.92369 119.604 7.04454 119.493 6.17219C119.337 4.94184 119.001 3.76133 118.333 2.69411C117.039 0.627661 113.953 0.57328 112.639 2.51738C112.211 3.14955 111.857 3.88369 111.676 4.62235C111.032 7.25527 111.094 9.90858 111.719 12.5415C111.923 13.4048 112.285 14.2092 112.879 14.8866C114.359 16.5838 117.012 16.4931 118.301 14.6533C118.698 14.0891 118.972 13.4161 119.187 12.7545C119.602 11.4765 119.69 10.142 119.715 8.80058Z" fill="black"/>
<path d="M126.977 46.4136H121.486C121.316 46.0647 121.375 45.863 121.761 45.7226C122.825 45.3374 123.018 45.0927 122.841 44.0005C122.674 42.965 122.366 41.9522 122.119 40.919H116.366C115.989 41.9703 115.498 43.0171 115.441 44.1886C115.398 45.0723 115.638 45.4144 116.481 45.7067C116.81 45.82 117.048 45.9288 116.848 46.4431C115.196 46.4635 113.501 46.4499 111.798 46.4522C111.634 46.1214 111.616 45.8789 111.97 45.7452C112.604 45.5005 112.969 44.9884 113.252 44.4197C113.554 43.8125 113.819 43.1848 114.061 42.5526C115.622 38.4379 117.17 34.3163 118.722 30.197C119.012 29.4266 118.903 29.4447 119.785 29.4447C120.156 29.4447 120.53 29.4447 120.922 29.4447C121.024 29.7483 121.108 29.9817 121.18 30.2174C122.488 34.4976 123.793 38.78 125.103 43.0625C125.234 43.4952 125.386 43.9235 125.54 44.3472C125.762 44.959 126.095 45.4801 126.745 45.7158C127.092 45.8427 127.122 46.076 126.979 46.4159L126.977 46.4136ZM119.504 32.0074C119.352 32.3518 119.273 32.5036 119.216 32.6622C118.412 34.9802 117.609 37.3004 116.807 39.6206C116.801 39.6388 116.823 39.6682 116.837 39.6886C116.848 39.709 116.866 39.7249 116.893 39.7543H121.788C121.031 37.1871 120.292 34.6833 119.504 32.0074Z" fill="black"/>
<path d="M77.3664 0.0181274H79.2879C79.3717 0.265105 79.4578 0.498487 79.5303 0.734136C80.8241 4.96448 82.1157 9.19708 83.4095 13.4297C83.5409 13.8625 83.6882 14.2907 83.8354 14.719C84.0711 15.4055 84.4019 16.0082 85.1406 16.2779C85.4487 16.3911 85.4578 16.6268 85.3286 16.9463H79.8498C79.6912 16.6177 79.7343 16.4115 80.124 16.2688C81.1957 15.8723 81.4291 15.4984 81.2048 14.4017C81.0031 13.4229 80.7176 12.4622 80.4639 11.472H74.6542C74.3755 12.4576 74.0628 13.4342 73.8294 14.4312C73.6414 15.2378 73.9133 16.0603 74.9057 16.2869C75.2479 16.3662 75.2365 16.4093 75.2343 16.9621C73.5417 17.0369 71.8491 17.0007 70.1769 16.9825C70.0002 16.6291 70.0478 16.4047 70.3854 16.2688C70.9564 16.0377 71.3076 15.5709 71.5704 15.052C71.865 14.4697 72.1323 13.8715 72.3634 13.2597C73.9314 9.12231 75.488 4.97807 77.0492 0.838365C77.1466 0.582324 77.2509 0.328549 77.371 0.0226591L77.3664 0.0181274ZM80.0401 10.3028C79.9586 9.37155 78.0938 3.18578 77.7471 2.72355C76.8544 5.25224 75.9775 7.74467 75.0734 10.3028H80.0401Z" fill="black"/>
<path d="M88.2435 33.4054H87.0901C86.995 33.172 86.9043 32.9409 86.8114 32.7121C85.8892 30.4643 83.1181 29.8163 81.2601 31.416C80.5532 32.0233 80.1091 32.8072 79.7896 33.6683C79.3205 34.9349 79.1642 36.2536 79.1483 37.595C79.1302 39.1607 79.1982 40.715 79.64 42.2309C79.8666 43.0104 80.1861 43.7468 80.7231 44.3699C81.7359 45.5481 83.6324 45.9129 85.0078 45.1992C85.6989 44.8412 86.0478 44.2362 86.0932 43.4975C86.143 42.6954 86.1249 41.8865 86.0864 41.0844C86.0501 40.3548 85.7465 39.7702 84.9806 39.5413C84.6294 39.4371 84.566 39.2219 84.7269 38.8593H89.5123C89.6981 39.2083 89.6143 39.4326 89.2653 39.5912C88.7873 39.811 88.5561 40.2166 88.4995 40.7241C88.461 41.0731 88.4179 41.4243 88.4157 41.7755C88.4043 43.033 88.4111 44.2928 88.4111 45.5504C88.4111 45.7996 88.4111 46.0489 88.4111 46.2483C87.498 47.0028 87.0765 46.2233 86.5599 45.7135C86.3628 45.8087 86.1861 45.897 86.0093 45.9786C84.3643 46.7422 82.6581 46.8306 80.9248 46.3751C79.3024 45.9492 78.2261 44.8774 77.535 43.382C76.9573 42.1267 76.742 40.7876 76.6491 39.4258C76.5154 37.4998 76.6514 35.5988 77.3855 33.7861C78.2873 31.5588 79.8598 30.0814 82.2548 29.592C83.5282 29.3314 84.8152 29.4492 86.0886 29.6124C86.8046 29.7053 87.5093 29.8707 88.2412 30.0089V33.4032L88.2435 33.4054Z" fill="black"/>
<path d="M64.8618 17.1457H63.2621C63.1692 16.8715 63.074 16.6177 62.997 16.3572C61.6987 12.0724 60.4026 7.78772 59.102 3.503C58.9706 3.07022 58.8278 2.63971 58.6647 2.21826C58.4404 1.63821 58.1186 1.13519 57.491 0.917668C57.1851 0.811173 57.1262 0.607246 57.2214 0.324015C57.7606 0.183533 61.5378 0.142747 62.6798 0.274166C62.6911 0.421447 62.7024 0.580056 62.7115 0.713741C62.639 0.772653 62.605 0.81797 62.5642 0.831565C61.4064 1.21223 61.2183 1.4864 61.3475 2.70316C61.3837 3.0521 61.454 3.40104 61.5491 3.73865C62.4759 6.97881 63.4117 10.2167 64.3452 13.4546C64.386 13.5951 64.4404 13.7288 64.5355 14.0052C64.6647 13.7288 64.753 13.5702 64.812 13.4002C65.8678 10.3844 66.9237 7.3708 67.9705 4.35269C68.111 3.94937 68.2266 3.53472 68.3172 3.12007C68.6254 1.70618 68.3761 1.26661 66.9917 0.777185C66.9849 0.627639 66.9758 0.464498 66.9668 0.253774H72.0196C72.1646 0.60498 72.0944 0.81797 71.7568 0.935794C71.1971 1.13292 70.855 1.5725 70.6148 2.08231C70.327 2.69636 70.0619 3.324 69.824 3.95844C68.2628 8.10267 66.713 12.2492 65.1586 16.3957C65.0703 16.6291 64.9751 16.8602 64.8618 17.1457Z" fill="black"/>
<path d="M90.4332 1.30967C89.792 1.30967 89.2391 1.31421 88.6885 1.30967C87.8705 1.30061 87.2769 1.68127 86.9415 2.40408C86.647 3.04078 86.4317 3.71374 86.1553 4.43655H85.0042C84.9385 3.07477 84.9793 1.70846 84.9793 0.360284C85.5684 0.183548 97.2919 0.135965 98.2459 0.29684V4.44788H97.1016C96.8977 3.87462 96.7164 3.32855 96.5102 2.79154C96.1137 1.75605 95.3909 1.21904 94.2466 1.30288C93.8003 1.3346 93.3494 1.30741 92.8418 1.30741C92.8191 1.58384 92.7852 1.80136 92.7852 2.01662C92.7829 6.01811 92.7829 10.0196 92.7852 14.0211C92.7852 14.2975 92.801 14.574 92.835 14.8481C92.9188 15.5619 93.2474 16.0853 93.9974 16.2461C94.3599 16.3255 94.5321 16.5045 94.3599 16.9418H88.906C88.7429 16.5883 88.8063 16.3413 89.2029 16.2597C90.0707 16.0807 90.3675 15.4667 90.44 14.6737C90.4627 14.4244 90.474 14.1706 90.474 13.9191C90.4763 9.96748 90.4763 6.01584 90.474 2.06647C90.474 1.84668 90.4491 1.62463 90.4287 1.30741L90.4332 1.30967Z" fill="black"/>
<path d="M104.952 30.7657C104.302 30.7657 103.749 30.768 103.196 30.7657C102.378 30.7589 101.786 31.1441 101.456 31.8692C101.166 32.5059 100.948 33.1788 100.674 33.8949H99.5229C99.5025 32.5127 99.4934 31.1464 99.5365 29.7212H112.771V33.9084H111.627C111.548 33.6864 111.466 33.4553 111.38 33.2242C111.21 32.7778 111.065 32.3201 110.859 31.8918C110.501 31.1464 109.907 30.7453 109.055 30.7589C108.507 30.768 107.959 30.7589 107.354 30.7589C107.331 31.0422 107.299 31.2597 107.299 31.4772C107.297 35.4764 107.297 39.4779 107.299 43.4771C107.299 43.7536 107.333 44.0277 107.36 44.3042C107.431 45.0292 107.771 45.5368 108.518 45.6977C108.892 45.7792 109.035 45.9764 108.865 46.3955H103.422C103.252 46.0171 103.345 45.786 103.735 45.7045C104.598 45.5232 104.9 44.9046 104.961 44.1116C104.986 43.7853 104.99 43.459 104.99 43.1305C104.99 39.2808 104.99 35.4311 104.99 31.5837C104.99 31.339 104.965 31.0943 104.95 30.7589L104.952 30.7657Z" fill="black"/>
<path d="M128.833 29.7121H133.879C134.04 30.0792 133.94 30.299 133.603 30.3783C132.821 30.5595 132.599 31.1418 132.542 31.8397C132.524 32.064 132.52 32.2929 132.52 32.5195C132.52 36.521 132.52 40.5225 132.52 44.5239C132.52 44.7437 132.547 44.9635 132.567 45.2762C132.875 45.2762 133.143 45.2762 133.412 45.2762C134.294 45.2762 135.175 45.2604 136.054 45.2762C137.126 45.2966 137.828 44.7959 138.177 43.8034C138.37 43.2596 138.508 42.6954 138.671 42.1403C138.728 41.9499 138.778 41.7573 138.841 41.5262H139.949C140.09 42.1471 139.918 45.8087 139.716 46.4205H128.869C128.683 46.0557 128.749 45.8132 129.134 45.7181C129.907 45.5255 130.147 44.959 130.188 44.252C130.208 43.9008 130.217 43.5474 130.217 43.1962C130.217 39.7475 130.22 36.3012 130.217 32.8526C130.217 32.4515 130.206 32.0459 130.168 31.6471C130.111 31.0489 129.839 30.598 129.22 30.419C128.896 30.3261 128.659 30.1721 128.84 29.7121H128.833Z" fill="black"/>
<path d="M105.696 0.253792C105.807 0.616328 105.759 0.827051 105.435 0.910888C104.606 1.12614 104.361 1.73339 104.361 2.51058C104.361 3.33988 104.341 4.16918 104.338 4.99848C104.336 7.86478 104.338 10.7311 104.338 13.5974C104.338 13.9735 104.361 14.3519 104.361 14.728C104.361 15.4826 104.617 16.0558 105.412 16.2597C105.768 16.3526 105.818 16.586 105.68 16.9463H100.674C100.5 16.5974 100.554 16.3549 100.949 16.2507C101.712 16.049 101.959 15.4871 101.97 14.7711C101.982 13.8919 101.986 13.0105 101.989 12.1314C101.989 9.16311 101.989 6.19711 101.989 3.22885C101.989 2.92749 101.984 2.62614 101.968 2.32478C101.936 1.66542 101.683 1.17599 101.003 0.953939C100.611 0.827051 100.625 0.788532 100.649 0.251526H105.696V0.253792Z" fill="black"/>
<path d="M0.0694538 0.253784H5.09284C5.23106 0.611788 5.16308 0.827044 4.81188 0.92221C4.06188 1.12387 3.78091 1.66088 3.77865 2.39275C3.77865 2.71903 3.75599 3.04531 3.75599 3.37386C3.75599 6.8678 3.75599 10.364 3.75599 13.8579C3.75599 14.1842 3.77638 14.5105 3.77865 14.8391C3.78545 15.5437 4.05961 16.0558 4.78015 16.2484C5.16535 16.3504 5.24465 16.5815 5.08151 16.9576H0.0785172C-0.0891556 16.5634 0.0105418 16.3436 0.388939 16.2416C1.11401 16.0445 1.35646 15.5052 1.37458 14.8164C1.38138 14.515 1.39271 14.2137 1.39498 13.9123C1.39498 10.3663 1.39498 6.82248 1.39498 3.27643C1.39498 2.95014 1.38818 2.6216 1.37232 2.29531C1.3406 1.66314 1.09362 1.17825 0.445585 0.978856C0.123834 0.876893 -0.116346 0.729612 0.0694538 0.253784Z" fill="black"/>
<path d="M73.5946 46.4227H68.5826C68.4013 46.0647 68.4534 45.8132 68.8432 45.718C69.6181 45.5277 69.8583 44.968 69.899 44.2588C69.9172 43.9575 69.9285 43.6561 69.9285 43.3548C69.9285 39.8064 69.9285 36.2581 69.9285 32.7098C69.9285 32.4084 69.9172 32.1071 69.8968 31.8057C69.8515 31.1214 69.5886 30.589 68.8658 30.3964C68.5441 30.3103 68.3968 30.1199 68.5418 29.7257H73.6128C73.7533 30.0542 73.7011 30.2808 73.3454 30.3692C72.5025 30.5799 72.2895 31.2189 72.2601 31.9734C72.2442 32.4016 72.2465 32.8299 72.2465 33.2559C72.2465 36.6025 72.2465 39.9492 72.2465 43.2958C72.2465 43.6471 72.2487 44.0005 72.2737 44.3517C72.3212 45.0088 72.5841 45.5164 73.2752 45.6976C73.64 45.7928 73.7895 45.9899 73.5924 46.4227H73.5946Z" fill="black"/>
<path d="M92.1022 29.7121H97.1233C97.2593 30.0293 97.2434 30.2672 96.8809 30.3646C96.0062 30.598 95.8023 31.2574 95.8023 32.0459C95.8023 36.0701 95.8023 40.0942 95.8023 44.1184C95.8023 44.891 96.0402 45.5005 96.8763 45.7203C97.2298 45.8132 97.2751 46.0579 97.1142 46.4069H92.1135C91.9436 46.033 92.0251 45.8019 92.4103 45.7022C93.0969 45.5254 93.3869 45.0519 93.4073 44.3721C93.4209 43.9461 93.4662 43.5179 93.4662 43.0919C93.4707 39.7226 93.4707 36.351 93.4662 32.9817C93.4662 32.5557 93.4254 32.1275 93.4073 31.7015C93.3801 31.0512 93.0856 30.6026 92.4489 30.41C92.1112 30.308 91.9164 30.1335 92.1044 29.7076L92.1022 29.7121Z" fill="black"/>
</g>
<defs>
<clipPath id="clip0_1577_1735">
<rect width="140" height="46.6538" fill="white"/>
</clipPath>
</defs>
</svg>
