<svg width="145" height="30" viewBox="0 0 145 30" fill="none" xmlns="http://www.w3.org/2000/svg">
<g clip-path="url(#clip0_1631_54)">
<path fill-rule="evenodd" clip-rule="evenodd" d="M63.6457 7.56174C62.5921 6.97417 61.0271 6.68629 58.8594 6.68629C55.8945 6.68924 53.1417 7.31519 52.1014 7.70937C51.8656 7.78613 51.6151 7.99281 51.6092 8.34417V8.42389L51.9039 9.92381L51.9098 9.95334C52.0012 10.256 52.2517 10.3962 52.4771 10.3962H52.4816C52.5552 10.3903 52.6112 10.3756 52.6643 10.3623L53.1579 10.2442C54.4503 9.91938 56.4029 9.42039 58.5809 9.42039C59.9042 9.42039 60.7913 9.5385 61.3881 9.79242C62.3548 10.1659 62.3607 10.8022 62.371 11.8548V13.43C62.2605 13.4271 62.0734 13.4256 61.786 13.4256C60.7176 13.4256 58.6177 13.4773 56.5546 13.8124C53.404 14.3055 50.7972 15.0717 50.8149 19.4887C50.8149 25.0957 55.9284 25.1046 58.3834 25.1105C60.0486 25.1075 61.5885 24.8566 62.595 24.6469C64.8865 24.1051 65.473 23.3655 65.4421 21.0492V11.7234C65.4421 10.3003 65.448 8.53166 63.6442 7.56026L63.6457 7.56174ZM62.3858 21.9601C61.1656 22.3631 59.8305 22.5653 58.4158 22.5653C56.1553 22.5476 53.9508 22.2848 53.9463 19.3544C53.9611 17.0218 55.1842 16.7458 56.7315 16.3944L56.8391 16.3693C58.2154 16.0696 61.6755 16.015 62.3872 16.0062L62.3858 21.9601ZM90.9888 11.7219V21.0433C91.0182 23.3611 90.4332 24.0992 88.1403 24.641C87.1382 24.8521 85.5983 25.1031 83.9301 25.1046C81.4751 25.0987 76.3631 25.0898 76.3616 19.4843C76.3424 15.0702 78.9493 14.3025 82.0999 13.8094C84.163 13.4728 86.2643 13.4212 87.3313 13.4212C87.6201 13.4212 87.8057 13.4241 87.9207 13.4256V11.8519C87.9089 10.7993 87.9015 10.1644 86.9363 9.79094C86.341 9.53407 85.4509 9.41892 84.1276 9.41892C81.9466 9.41892 79.9956 9.91495 78.7047 10.2427L78.2125 10.3608C78.1594 10.3756 78.102 10.3903 78.0283 10.3903C77.8013 10.3903 77.5523 10.2545 77.4595 9.94743L77.4521 9.92086L77.1574 8.42094V8.3427C77.1633 7.99134 77.4138 7.7817 77.6481 7.70789C78.6914 7.31372 81.4412 6.68629 84.4076 6.68482C86.5738 6.68482 88.1403 6.97269 89.1924 7.56174C90.9947 8.53166 90.9917 10.3003 90.9888 11.7219ZM87.9384 16.0062C87.2222 16.0135 83.768 16.0696 82.3887 16.3693L82.2782 16.3944C80.7309 16.7458 79.5078 17.0218 79.4931 19.3544C79.496 22.2848 81.7035 22.5491 83.964 22.5653C85.3787 22.5653 86.7138 22.3631 87.934 21.9601V16.0062H87.9384ZM137.271 6.68482C130.153 6.69663 129.549 11.4533 129.542 15.9117C129.549 20.3553 130.152 25.0942 137.271 25.1046C144.384 25.0928 144.99 20.3657 145 15.9102C144.993 11.2451 144.39 6.69663 137.271 6.68482ZM137.271 22.5033C132.953 22.4827 132.736 20.2298 132.707 15.9131C132.736 11.5758 132.953 9.30967 137.269 9.29048C141.587 9.30967 141.805 11.5758 141.835 15.9117C141.805 20.2284 141.587 22.4812 137.271 22.5033ZM124.495 24.4491L124.31 24.4963C123.316 24.7532 121.953 25.1046 119.562 25.1046H119.556C112.966 25.0928 111.675 21.7135 111.668 15.8777C111.674 9.18714 113.761 6.69515 119.36 6.68629C121.338 6.68629 122.701 6.9476 123.678 7.18823L123.672 1.7968C123.665 1.56059 123.768 1.25057 124.318 1.14427L126.068 0.689575H126.164C126.566 0.699909 126.709 1.06308 126.709 1.3731V21.6279C126.736 22.9093 126.587 24.0047 124.495 24.452V24.4491ZM123.674 9.78061C123.09 9.63003 121.459 9.25505 119.621 9.25505C116.25 9.289 114.832 10.2205 114.8 15.9131C114.839 22.1653 116.668 22.5048 119.652 22.5343C121.509 22.5343 123.103 22.1402 123.672 21.9837L123.674 9.78061ZM107.952 24.6809H106.39C105.967 24.6809 105.653 24.359 105.653 23.9324V11.9153C105.623 9.88395 105.024 9.31705 102.872 9.28753C100.438 9.28753 97.9723 9.91052 97.1603 10.1349V23.9339C97.1603 24.3664 96.8656 24.6823 96.4574 24.6823H94.8585C94.4385 24.6823 94.1217 24.3605 94.1217 23.9353V10.4568C94.0996 9.21076 94.2131 8.3486 95.9593 7.77285C97.6289 7.18676 100.822 6.68925 102.937 6.68777C106.96 6.69367 108.677 8.17145 108.684 11.6275V23.9368C108.684 24.362 108.367 24.6838 107.947 24.6838L107.952 24.6809ZM72.5066 25.0057C73.4085 24.9865 74.0716 24.8078 74.3339 24.5096C74.4253 24.4063 74.4665 24.2823 74.4562 24.1627C74.4503 24.0623 74.4503 24.0623 74.2057 22.8872L74.1983 22.8576C74.1453 22.5521 73.9331 22.4118 73.7533 22.4118H73.7268C73.7268 22.4118 73.5013 22.4074 73.2773 22.4074C72.6348 22.3867 72.1028 22.2893 72.0925 21.3385V1.37015C72.0925 1.03946 71.8951 0.698433 71.5178 0.691051H71.4043L69.6507 1.1487C69.3531 1.17823 69.0406 1.39524 69.0554 1.79532V21.4005C69.0598 23.7213 70.2859 25.0012 72.5066 25.0057ZM47.7527 24.6809H35.1945C34.7745 24.6809 34.4577 24.359 34.4577 23.9324V22.3734C34.4503 21.9896 34.5697 21.8228 34.8025 21.529L44.7981 9.71122H35.0029C34.5829 9.71122 34.2661 9.38644 34.2661 8.96127V7.857C34.2661 7.42887 34.5844 7.10851 35.0029 7.10851H47.6908C48.1078 7.10851 48.4232 7.43035 48.4247 7.857V9.44844C48.432 9.73632 48.3363 9.97991 48.1078 10.2368L38.0872 22.0796H47.7542C48.1727 22.0796 48.488 22.4015 48.491 22.8281V23.9353C48.488 24.359 48.1712 24.6809 47.7527 24.6809Z" fill="#1D1D1B"/>
<path fill-rule="evenodd" clip-rule="evenodd" d="M5.81786 29.6338C4.75243 29.6338 4.16004 29.3799 3.84321 29.1953C3.40554 28.9385 2.59947 28.2845 1.87592 26.3505C0.71618 23.2488 0.0294724 19.4606 0 15.0111V14.9963C0.0294724 10.5379 0.71618 6.75119 1.87592 3.64802C2.598 1.71555 3.40407 1.06007 3.84615 0.804671C4.15856 0.617181 4.74948 0.366211 5.81344 0.366211C6.22016 0.366211 6.69761 0.403118 7.25169 0.493172C10.473 1.02464 14.0407 2.31345 17.847 4.51313L17.8588 4.51903C21.6342 6.77186 24.5167 9.26828 26.5782 11.8415C27.8647 13.4477 28.018 14.484 28.018 14.9978C28.018 15.5115 27.8647 16.5508 26.5782 18.1541C24.5152 20.7273 21.6342 23.2252 17.8588 25.4765L17.8441 25.4854C14.0421 27.6851 10.473 28.9739 7.25169 29.5039C6.69614 29.5969 6.22016 29.6323 5.81639 29.6323" fill="#FF6900"/>
</g>
<defs>
<clipPath id="clip0_1631_54">
<rect width="145" height="30" fill="white"/>
</clipPath>
</defs>
</svg>
