<svg width="120" height="40" viewBox="0 0 120 40" fill="none" xmlns="http://www.w3.org/2000/svg">
<path d="M117.321 13.0628C113.625 8.30402 106.78 7.43952 102.022 11.1355C101.3 11.6986 100.65 12.341 100.094 13.0628C98.7302 15.0139 98.0084 17.3457 98.0481 19.725C98.0164 22.1044 98.7302 24.4362 100.094 26.3873C103.79 31.146 110.635 32.0105 115.394 28.3146C116.115 27.7514 116.766 27.109 117.321 26.3873C118.685 24.4362 119.407 22.1044 119.367 19.725C119.399 17.3457 118.685 15.0139 117.321 13.0628ZM113.911 22.2234C113.125 24.5631 111.269 26.3873 108.7 26.4428C106.13 26.4983 104.274 24.5631 103.497 22.2234C102.942 20.6054 102.942 18.8446 103.497 17.2267C104.282 14.887 106.138 13.0628 108.7 13.0073C111.262 12.9517 113.125 14.887 113.911 17.2267C114.466 18.8446 114.466 20.5975 113.911 22.2154V22.2234ZM35.4388 30.0515C35.4388 30.3926 35.1612 30.6701 34.8202 30.6701H31.2432C30.9021 30.6701 30.6246 30.3926 30.6246 30.0515V0.618636C30.6246 0.277593 30.9021 0 31.2432 0H34.8202C35.1612 0 35.4388 0.277593 35.4388 0.618636V30.0515ZM27.0317 30.0515C27.0317 30.3926 26.7541 30.6701 26.4131 30.6701H22.8361C22.495 30.6701 22.2174 30.3926 22.2174 30.0515V0.618636C22.2174 0.285524 22.4871 0.00793125 22.8281 0H26.4051C26.7462 0 27.0238 0.277593 27.0238 0.618636V30.0515H27.0317ZM97.2312 10.0727V12.571C97.2788 12.9279 97.0329 13.2531 96.676 13.3007C96.5808 13.3166 96.4936 13.3007 96.3984 13.2769C92.3535 12.4441 89.8631 14.2445 89.8631 17.9801V30.0515C89.8631 30.3926 89.5855 30.6701 89.2444 30.6701H85.6674C85.3264 30.6701 85.0488 30.3926 85.0488 30.0515V17.7184C85.0091 15.3628 85.9609 13.0945 87.6899 11.4845C89.4427 9.77131 91.7983 8.81956 94.2411 8.83542C95.0818 8.83542 95.9146 8.91474 96.7394 9.06543C97.1677 9.2082 97.2312 9.45406 97.2312 10.0965V10.0648V10.0727ZM81.9001 19.725C81.9477 17.3457 81.2259 15.0059 79.8538 13.0628C76.1578 8.30402 69.3132 7.43952 64.5544 11.1355C63.8327 11.6986 63.1823 12.341 62.6271 13.0628C59.8591 17.068 59.8591 22.3741 62.6271 26.3873C64.6655 29.0918 67.8618 30.6543 71.2405 30.6067C73.4216 30.6067 75.563 29.9722 77.3792 28.7587V31.3919C77.3792 34.961 74.2543 35.6113 72.2557 35.7382C70.8836 35.7858 69.5035 35.7065 68.1394 35.5161C67.5921 35.4368 67.2035 35.5161 67.2035 36.111V39.2756C67.2193 39.5769 67.4731 39.8069 67.7666 39.7911C72.4064 40.1876 75.5233 40.1083 77.871 38.7679C79.5128 37.7924 80.7342 36.2379 81.2894 34.4137C81.7018 33.0019 81.9001 31.5346 81.8842 30.0674V19.7329H81.8921L81.9001 19.725ZM71.2325 26.4349C68.6628 26.4349 66.8069 24.5552 66.0217 22.2154C65.4665 20.5975 65.4665 18.8367 66.0217 17.2188C66.8069 14.879 68.6628 12.9993 71.2325 12.9993C76.9827 12.9993 77.1731 18.8685 77.1731 19.7171C77.1731 20.5657 76.9827 26.4349 71.2325 26.4349ZM18.9339 17.5677C18.9339 14.7283 18.2994 12.571 16.9352 11.08C15.571 9.58888 12.8189 8.85128 10.273 8.85128C7.71911 8.84334 5.20491 9.50958 2.99209 10.7944C2.84933 10.8817 2.76209 11.0324 2.77002 11.191L2.96036 14.3239C3.01588 14.6252 3.3014 14.8314 3.60279 14.7759C3.70589 14.7601 3.79314 14.7125 3.87245 14.649C6.99736 12.7297 10.7409 12.3648 12.6444 13.3325C13.7151 13.9511 14.3576 15.1011 14.31 16.3384V16.7984H9.10708C6.87046 16.7984 0.00993419 17.6312 0.00993419 23.9365V24C-0.101103 25.9431 0.723737 27.8228 2.23067 29.0601C3.84865 30.2022 5.81561 30.7653 7.79049 30.6464H18.3232C18.6642 30.6464 18.9418 30.3688 18.9418 30.0277V17.536V17.5598L18.9339 17.5677ZM14.31 26.7997H8.09188C7.29082 26.7759 6.52149 26.5063 5.88699 26.0224C5.22077 25.5545 4.83214 24.7852 4.848 23.9762C4.848 22.8499 5.60938 20.6054 9.39259 20.6054H14.31V26.7997ZM48.6126 8.85128C42.2438 8.85128 39.452 13.1262 38.5637 16.7349C38.3178 17.7105 38.1989 18.7098 38.1989 19.7171C38.1672 22.0965 38.881 24.4283 40.2452 26.3793C42.3152 29.0363 45.4956 30.5988 48.8585 30.5988C52.3006 30.7257 54.5928 30.1388 56.3535 29.1394C56.7025 28.9094 56.8691 28.489 56.7659 28.0846V25.3086C56.7659 24.7455 56.4249 24.4758 55.9332 24.8169C53.879 26.1335 51.4361 26.7204 49.0092 26.4824C46.146 26.4428 43.7587 24.2776 43.4494 21.4302H57.6067C57.9239 21.4302 58.1856 21.1764 58.1856 20.8592C58.4315 16.9887 57.3132 8.85128 48.6126 8.85128ZM43.5287 17.5994C43.6477 14.9425 45.9001 12.8883 48.5492 13.0073C48.573 13.0073 48.5968 13.0073 48.6206 13.0073C50.9761 12.8645 53.0065 14.657 53.1572 17.0205C53.1652 17.2108 53.1652 17.4091 53.1572 17.5994H43.5366H43.5287Z" fill="#FF5A00"/>
</svg>
