<svg width="109" height="72" viewBox="0 0 109 72" fill="none" xmlns="http://www.w3.org/2000/svg">
<path fill-rule="evenodd" clip-rule="evenodd" d="M103.152 50.0365C103.611 50.2977 104.062 50.4085 104.553 50.4085H104.569C105.059 50.4085 105.511 50.2977 105.97 50.0365C106.413 49.7991 106.777 49.4429 107.014 48.9918C107.26 48.5644 107.386 48.0816 107.386 47.5909C107.386 47.0843 107.275 46.6174 107.014 46.1583C106.769 45.6993 106.413 45.3589 105.954 45.1136C105.495 44.8682 105.044 44.7416 104.569 44.7416H104.553C104.07 44.7574 103.595 44.884 103.168 45.1136C102.709 45.3589 102.368 45.6993 102.107 46.1583C101.854 46.5936 101.727 47.0922 101.735 47.5909C101.735 48.0658 101.846 48.5327 102.107 48.9918C102.345 49.435 102.701 49.7991 103.152 50.0365ZM102.519 46.4037C102.725 46.0317 103.025 45.7309 103.397 45.5251C103.769 45.3273 104.165 45.2165 104.553 45.2165H104.569C104.957 45.2165 105.352 45.3273 105.724 45.5251C106.096 45.7309 106.397 46.0396 106.603 46.4037C106.816 46.7757 106.911 47.1714 106.911 47.5909C106.911 48.0024 106.809 48.4061 106.603 48.7623C106.405 49.1263 106.104 49.4271 105.74 49.625C105.384 49.8307 104.98 49.9336 104.569 49.9336H104.553C104.141 49.9336 103.738 49.8307 103.381 49.625C103.017 49.4271 102.717 49.1263 102.519 48.7623C102.305 48.3903 102.194 47.9945 102.194 47.5909C102.194 47.1714 102.305 46.7757 102.519 46.4037Z" fill="#1E71B8"/>
<path fill-rule="evenodd" clip-rule="evenodd" d="M103.809 47.8523H104.102C104.284 47.8523 104.411 47.8839 104.49 47.9631C104.521 47.9789 104.537 47.9947 104.553 48.0106C104.68 48.1214 104.83 48.3509 105.012 48.6596L105.289 49.1503H105.875L105.519 48.5488C105.337 48.2718 105.178 48.0581 105.06 47.9472C104.981 47.876 104.893 47.8206 104.798 47.781C105.06 47.7652 105.273 47.6702 105.432 47.504C105.59 47.3378 105.677 47.1478 105.677 46.9183C105.677 46.7521 105.63 46.6097 105.527 46.4751C105.432 46.3326 105.297 46.2297 105.139 46.1823C105.012 46.1348 104.814 46.1031 104.553 46.1031C104.506 46.1031 104.442 46.0873 104.371 46.0873H103.311V49.1503H103.801V47.8444L103.809 47.8523ZM103.809 46.5147H104.561C104.711 46.5305 104.806 46.5463 104.87 46.5622C104.957 46.5859 105.036 46.6492 105.083 46.7284C105.131 46.7917 105.147 46.8788 105.147 46.9737C105.147 47.1004 105.099 47.2191 104.996 47.2982C104.917 47.3774 104.767 47.4091 104.553 47.4328H103.801V46.5226L103.809 46.5147ZM30.6852 46.855H35.0779L30.6852 39.526L26.9733 33.3525L11.1993 42.8264L13.6054 46.8471H30.6852V46.855ZM71.5884 46.855H93.0689L79.701 24.583L64.9163 0L58.8299 3.66451L49.1582 9.47389L58.8299 25.5803L71.5963 46.8629L71.5884 46.855ZM64.0853 54.1999C62.5736 53.2263 60.7928 52.6565 58.8774 52.6565H58.8299C53.5191 52.6881 49.2057 57.0175 49.2057 62.3282C49.2057 67.639 53.5191 71.9683 58.8299 72H58.8774C60.8007 72 62.5736 71.4302 64.0853 70.4566V71.4697H68.5333V46.8708H64.0853V54.2157V54.1999ZM64.0853 63.3334C63.6104 65.7791 61.4497 67.6469 58.8774 67.6469H58.8299C55.9173 67.6153 53.5587 65.2409 53.5587 62.3203C53.5587 59.3998 55.9173 57.0254 58.8299 57.0096H58.8774C61.4497 57.0096 63.6183 58.8695 64.0853 61.3073V63.3255V63.3334ZM84.9563 54.1999C83.405 53.1868 81.5926 52.6486 79.7485 52.6565H79.701C74.3902 52.6881 70.0767 57.0175 70.0767 62.3282C70.0767 67.639 74.3902 71.9683 79.701 72H79.7485C81.6718 72 83.4605 71.4302 84.9563 70.4566V71.4697H89.4044V53.1551H84.9563V54.2157V54.1999ZM84.9563 63.3334C84.4814 65.7791 82.3208 67.6469 79.7485 67.6469H79.701C76.7884 67.6153 74.4298 65.2409 74.4298 62.3203C74.4298 59.3998 76.7884 57.0254 79.701 57.0096H79.7485C82.3208 57.0096 84.4894 58.8695 84.9563 61.3073V63.3255V63.3334ZM105.21 61.1173C105.044 61.0381 104.822 60.9511 104.561 60.8561C103.572 60.5158 101.957 60.0884 99.7093 59.6056C97.7386 59.1624 96.7492 58.5925 96.7492 57.8802C96.7492 57.3736 96.9313 56.97 97.2716 56.6772C97.7306 56.2893 98.538 56.0915 99.7173 56.0915C100.897 56.0915 101.767 56.3527 102.274 56.8592C102.582 57.1679 102.812 57.7219 102.954 58.5055H107.679C107.679 56.1944 106.738 54.5323 104.878 53.5271C104.783 53.4638 104.68 53.4084 104.569 53.3609C103.279 52.7594 101.569 52.4507 99.4402 52.4507C96.8521 52.4507 94.8972 53.1314 93.5992 54.5164C92.5545 55.6245 92.0558 56.9779 92.0558 58.5688C92.0558 60.5553 93.0293 61.9879 95.0159 62.9139C95.7678 63.2701 97.5882 63.7766 100.485 64.394C102.424 64.8135 103.398 65.4229 103.398 66.1827C103.398 66.6418 103.2 67.0296 102.78 67.3857C102.242 67.8448 101.427 68.0664 100.335 68.0664C98.8862 68.0664 97.8573 67.821 97.2558 67.3541C96.6543 66.895 96.3456 66.2302 96.3456 65.3833H91.3989C91.3989 67.6311 92.3407 69.309 94.2482 70.4171C95.7599 71.2798 97.7465 71.723 100.208 71.723C101.854 71.723 103.318 71.446 104.569 70.9078C104.83 70.797 105.06 70.6783 105.305 70.5516C107.244 69.4752 108.218 67.7656 108.218 65.4229C108.218 63.4996 107.22 62.0671 105.218 61.1252L105.21 61.1173ZM14.8796 54.1999C13.3204 53.1868 11.508 52.6565 9.65594 52.6565H9.60841C4.31347 52.6881 0 57.0175 0 62.3282C0 67.639 4.31347 71.9683 9.60841 72H9.65594C11.5792 72 13.3679 71.4302 14.8796 70.4566V71.4697H19.3277V53.1551H14.8796V54.2157V54.1999ZM14.8796 63.3334C14.4047 65.7791 12.244 67.6469 9.65594 67.6469H9.60841C6.71163 67.6153 4.35308 65.2409 4.35308 62.3203C4.35308 59.3998 6.71163 57.0254 9.60841 57.0096H9.65594C12.244 57.0096 14.4127 58.8695 14.8796 61.3073V63.3255V63.3334ZM42.6206 51.2002H47.4565V46.95H42.6206V51.2002ZM42.6206 71.4539H47.4565V52.6486H42.6206V71.4539ZM35.9644 54.1919C34.4052 53.1788 32.5927 52.6486 30.7407 52.6486H30.6932C25.3824 52.6802 21.0689 57.0096 21.0689 62.3203C21.0689 67.6311 25.3824 71.9604 30.6932 71.9921H30.7407C32.5927 71.9921 34.4131 71.4539 35.9644 70.4487V71.4618H40.4124V46.8629H35.9644V54.2078V54.1919ZM35.9644 63.3255C35.4895 65.7711 33.3288 67.639 30.7407 67.639H30.6932C27.7806 67.6074 25.4141 65.2329 25.4141 62.3124C25.4141 59.3919 27.7726 57.0175 30.6932 57.0017H30.7407C33.3288 57.0017 35.4974 58.8616 35.9644 61.2993V63.3176V63.3255ZM64.0695 46.8471L58.8299 38.0855L45.9527 16.6605L30.6932 25.8415L30.1708 26.1502L30.6932 27.0129L42.6127 46.8471H64.0695Z" fill="black"/>
</svg>
