<svg width="100" height="40" viewBox="0 0 100 40" fill="none" xmlns="http://www.w3.org/2000/svg">
<path d="M12.9112 8.72375C5.86754 8.72375 0 11.7092 0 20.7238C0 27.8643 3.94832 32.3619 13.0921 32.3619C23.8579 32.3619 24.5493 25.2731 24.5493 25.2731H19.3344C19.3344 25.2731 18.2165 29.0921 12.7755 29.0921C8.34251 29.0921 5.15672 26.1002 5.15672 21.9063H25.0921V19.2763C25.0921 15.1276 22.4556 8.73022 12.9112 8.73022V8.72375ZM12.7302 12.0905C16.95 12.0905 19.8191 14.6753 19.8191 18.5461H5.27303C5.27303 14.4362 9.02749 12.0905 12.7302 12.0905Z" fill="#E53238"/>
<path d="M25.0918 0V27.8385C25.0918 29.4217 24.9819 31.6382 24.9819 31.6382H29.9577C29.9577 31.6382 30.1387 30.0421 30.1387 28.5881C30.1387 28.5881 32.5942 32.433 39.2824 32.433C46.3196 32.433 51.1015 27.5477 51.1015 20.5428C51.1015 14.0291 46.7073 8.79484 39.2954 8.79484C32.3487 8.79484 30.1903 12.5428 30.1903 12.5428V0H25.0982H25.0918ZM38.0029 12.2391C42.7849 12.2391 45.822 15.7868 45.822 20.5493C45.822 25.6543 42.3131 28.9952 38.0353 28.9952C32.9367 28.9952 30.1839 25.0146 30.1839 20.5945C30.1839 16.4782 32.6524 12.2391 38.0029 12.2391Z" fill="#0064D2"/>
<path d="M63.4577 8.72375C52.8664 8.72375 52.1814 14.5267 52.1814 15.4507H57.4544C57.4544 15.4507 57.7323 12.0646 63.0893 12.0646C66.5724 12.0646 69.2735 13.6608 69.2735 16.7238V17.8159H63.0893C54.8825 17.8159 50.54 20.2197 50.54 25.0921C50.54 29.9645 54.5465 32.4976 59.9682 32.4976C67.3543 32.4976 69.7323 28.4201 69.7323 28.4201C69.7323 30.042 69.8551 31.6446 69.8551 31.6446H74.5401C74.5401 31.6446 74.3591 29.6608 74.3591 28.3942V17.4346C74.3591 10.2488 68.5627 8.73668 63.4512 8.73668L63.4577 8.72375ZM69.2735 21.0856V22.5396C69.2735 24.4395 68.1039 29.1567 61.2089 29.1567C57.435 29.1567 55.8195 27.2763 55.8195 25.0857C55.8195 21.1115 61.267 21.0856 69.2735 21.0856Z" fill="#F5AF02"/>
<path d="M71.5278 9.63489H77.46L85.9705 26.6882L94.4616 9.63489H99.8381L84.3679 40H78.733L83.1983 31.5348L71.5278 9.63489Z" fill="#86B817"/>
</svg>
