<svg width="225" height="36" viewBox="0 0 225 36" fill="none" xmlns="http://www.w3.org/2000/svg">
<g clip-path="url(#clip0_1275_578)">
<path d="M97.0539 30.793H90.3686C84.9104 30.793 84.3203 25.9876 84.3203 24.8046V5.17094C84.3203 2.31297 81.9868 0 79.1035 0V25.6885C79.1035 32.7936 85.2926 35.9573 89.5774 35.9573H102.271C102.271 33.0993 99.9373 30.7864 97.0539 30.7864V30.793Z" fill="#1D1F2A"/>
<path d="M5.21682 5.17094H17.0385C16.0729 6.76609 15.5164 8.64039 15.5164 10.641V35.964C18.3997 35.964 20.7332 33.651 20.7332 30.793V10.4948C20.7332 7.55702 23.1337 5.17094 26.1042 5.17094H32.5213C35.4046 5.17094 37.7381 2.85798 37.7381 0H0C0 2.85798 2.33349 5.17094 5.21682 5.17094Z" fill="#1D1F2A"/>
<path d="M102.271 0C102.271 2.85798 104.605 5.17094 107.488 5.17094H119.31C118.344 6.76609 117.788 8.64039 117.788 10.641V35.964C120.671 35.964 123.005 33.651 123.005 30.793V10.4948C123.005 7.55702 125.405 5.17094 128.376 5.17094H134.793C137.676 5.17094 140.01 2.85798 140.01 0H102.278L102.271 0Z" fill="#1D1F2A"/>
<path d="M60.0271 0H53.4089C45.9994 0 39.998 5.94858 39.998 13.2929V22.6711C39.998 30.0154 45.9994 35.964 53.4089 35.964H60.0271C67.4366 35.964 73.438 30.0154 73.438 22.6711V13.2929C73.438 5.94858 67.4366 0 60.0271 0ZM68.2882 20.4578C68.2882 25.961 63.7822 30.4275 58.2301 30.4275H55.206C49.6539 30.4275 45.1478 25.961 45.1478 20.4578V15.5062C45.1478 10.0029 49.6539 5.5365 55.206 5.5365H58.2301C63.7822 5.5365 68.2882 10.0029 68.2882 15.5062V20.4578Z" fill="#1D1F2A"/>
</g>
<path d="M173.574 10.6881H179.496V11.6508H177.047V18.6582H176.011V11.6508H173.574V10.6881Z" fill="#485867"/>
<path d="M184.248 15.1606C184.248 14.73 184.118 14.3847 183.858 14.1247C183.607 13.8566 183.274 13.7226 182.859 13.7226C182.437 13.7226 182.088 13.8607 181.811 14.1369C181.535 14.405 181.397 14.7544 181.397 15.185H181.227C181.227 14.5107 181.417 13.9541 181.799 13.5154C182.181 13.0685 182.677 12.8451 183.286 12.8451C183.846 12.8451 184.317 13.0564 184.699 13.4788C185.089 13.8932 185.284 14.4091 185.284 15.0266V18.6582H184.248V15.1606ZM181.397 13.0523L181.093 14.5391L181.397 14.6366V18.6582H180.386V10.2859H181.397V13.0523Z" fill="#485867"/>
<path d="M187.236 16.1234C187.284 16.7083 187.459 17.1633 187.759 17.4883C188.068 17.8052 188.486 17.9636 189.014 17.9636C189.437 17.9636 189.786 17.8539 190.062 17.6345C190.347 17.4152 190.529 17.1146 190.611 16.7327L191.585 16.9033C191.447 17.5208 191.147 18.0042 190.684 18.3536C190.229 18.6948 189.672 18.8654 189.014 18.8654C188.137 18.8654 187.447 18.5973 186.943 18.0611C186.448 17.5167 186.2 16.7733 186.2 15.8309C186.2 14.8966 186.439 14.1613 186.919 13.6251C187.398 13.0889 188.052 12.8207 188.88 12.8207C189.725 12.8207 190.387 13.0929 190.866 13.6373C191.346 14.1735 191.585 14.8803 191.585 15.7578V16.1234H187.236ZM187.26 15.3678H190.55C190.55 14.8884 190.391 14.4944 190.075 14.1857C189.758 13.8688 189.36 13.7104 188.88 13.7104C188.426 13.7104 188.056 13.8566 187.772 14.1491C187.495 14.4335 187.325 14.8397 187.26 15.3678Z" fill="#485867"/>
<path d="M196.53 12.2967C196.132 12.8654 195.933 13.6576 195.933 14.6731C195.933 15.6887 196.132 16.4768 196.53 17.0374C196.937 17.598 197.497 17.8783 198.212 17.8783C198.927 17.8783 199.483 17.598 199.881 17.0374C200.279 16.4768 200.478 15.6887 200.478 14.6731C200.478 13.6576 200.275 12.8654 199.869 12.2967C199.471 11.7199 198.914 11.4314 198.2 11.4314C197.493 11.4314 196.937 11.7199 196.53 12.2967ZM194.91 14.6731C194.91 13.357 195.206 12.3252 195.799 11.5777C196.4 10.8302 197.205 10.4565 198.212 10.4565C199.154 10.4565 199.938 10.8384 200.563 11.6021C201.189 12.3576 201.502 13.3813 201.502 14.6731C201.502 15.9974 201.205 17.0293 200.612 17.7686C200.019 18.4998 199.215 18.8654 198.2 18.8654C197.192 18.8654 196.392 18.4957 195.799 17.7564C195.206 17.0171 194.91 15.9893 194.91 14.6731Z" fill="#485867"/>
<path d="M203.422 15.8675C203.422 16.5499 203.572 17.078 203.873 17.4517C204.182 17.8173 204.604 18.0001 205.14 18.0001C205.676 18.0001 206.09 17.8173 206.383 17.4517C206.683 17.078 206.834 16.5499 206.834 15.8675C206.834 15.185 206.683 14.661 206.383 14.2954C206.09 13.9297 205.676 13.7469 205.14 13.7469C204.604 13.7469 204.182 13.9297 203.873 14.2954C203.572 14.661 203.422 15.185 203.422 15.8675ZM203.154 15.8675C203.154 14.9006 203.353 14.1572 203.751 13.6373C204.157 13.1092 204.718 12.8451 205.432 12.8451C206.155 12.8451 206.74 13.1132 207.187 13.6495C207.634 14.1775 207.857 14.9047 207.857 15.8309C207.857 16.7896 207.618 17.5411 207.138 18.0855C206.667 18.6217 206.078 18.8898 205.372 18.8898C204.681 18.8898 204.137 18.6298 203.739 18.1098C203.349 17.5817 203.154 16.8343 203.154 15.8675ZM202.411 21.0347V13.0523H203.422L203.105 14.5269L203.422 14.6366V17.0739L203.093 17.1836L203.422 18.6582V21.0347H202.411Z" fill="#485867"/>
<path d="M209.617 16.1234C209.666 16.7083 209.841 17.1633 210.141 17.4883C210.45 17.8052 210.868 17.9636 211.396 17.9636C211.819 17.9636 212.168 17.8539 212.444 17.6345C212.729 17.4152 212.911 17.1146 212.992 16.7327L213.967 16.9033C213.829 17.5208 213.529 18.0042 213.066 18.3536C212.611 18.6948 212.054 18.8654 211.396 18.8654C210.519 18.8654 209.829 18.5973 209.325 18.0611C208.829 17.5167 208.582 16.7733 208.582 15.8309C208.582 14.8966 208.821 14.1613 209.301 13.6251C209.78 13.0889 210.434 12.8207 211.262 12.8207C212.107 12.8207 212.769 13.0929 213.248 13.6373C213.728 14.1735 213.967 14.8803 213.967 15.7578V16.1234H209.617ZM209.642 15.3678H212.932C212.932 14.8884 212.773 14.4944 212.456 14.1857C212.14 13.8688 211.742 13.7104 211.262 13.7104C210.807 13.7104 210.438 13.8566 210.154 14.1491C209.877 14.4335 209.707 14.8397 209.642 15.3678Z" fill="#485867"/>
<path d="M218.743 15.1606C218.743 14.73 218.613 14.3847 218.353 14.1247C218.102 13.8566 217.769 13.7226 217.354 13.7226C216.932 13.7226 216.583 13.8607 216.306 14.1369C216.03 14.405 215.892 14.7544 215.892 15.185H215.722C215.722 14.5107 215.912 13.9541 216.294 13.5154C216.676 13.0685 217.171 12.8451 217.781 12.8451C218.341 12.8451 218.812 13.0564 219.194 13.4788C219.584 13.8932 219.779 14.4091 219.779 15.0266V18.6582H218.743V15.1606ZM214.881 13.0523H215.892L215.575 14.5391L215.892 14.6366V18.6582H214.881V13.0523Z" fill="#485867"/>
<path d="M173.806 25.3122H174.817V32.3075H179.289V33.2824H173.806V25.3122Z" fill="#485867"/>
<path d="M181 30.7476C181.049 31.3325 181.224 31.7875 181.524 32.1125C181.833 32.4293 182.251 32.5878 182.779 32.5878C183.202 32.5878 183.551 32.4781 183.827 32.2587C184.112 32.0394 184.294 31.7388 184.376 31.3569L185.35 31.5275C185.212 32.145 184.912 32.6284 184.449 32.9778C183.994 33.319 183.437 33.4896 182.779 33.4896C181.902 33.4896 181.212 33.2215 180.708 32.6853C180.213 32.1409 179.965 31.3975 179.965 30.4551C179.965 29.5208 180.204 28.7855 180.684 28.2493C181.163 27.713 181.817 27.4449 182.645 27.4449C183.49 27.4449 184.152 27.7171 184.631 28.2614C185.111 28.7977 185.35 29.5045 185.35 30.382V30.7476H181ZM181.025 29.992H184.315C184.315 29.5126 184.156 29.1186 183.839 28.8099C183.523 28.493 183.125 28.3346 182.645 28.3346C182.19 28.3346 181.821 28.4808 181.537 28.7733C181.26 29.0577 181.09 29.4639 181.025 29.992Z" fill="#485867"/>
<path d="M186.105 29.4558C186.105 28.8464 186.309 28.3589 186.715 27.9933C187.129 27.6277 187.685 27.4449 188.384 27.4449C189.115 27.4449 189.7 27.644 190.139 28.0421C190.585 28.4321 190.809 28.952 190.809 29.602C190.809 30.1951 190.618 30.6785 190.236 31.0522C189.854 31.426 189.355 31.6128 188.737 31.6128C188.624 31.5641 188.307 31.5275 187.787 31.5031V31.2838C187.259 31.2513 186.845 31.0725 186.544 30.7476C186.252 30.4145 186.105 29.9839 186.105 29.4558ZM187.129 29.5289C187.129 29.927 187.247 30.2357 187.482 30.4551C187.718 30.6744 188.043 30.7841 188.457 30.7841C188.88 30.7841 189.208 30.6744 189.444 30.4551C189.68 30.2357 189.797 29.927 189.797 29.5289C189.797 29.1389 189.68 28.8383 189.444 28.6271C189.217 28.4158 188.888 28.3102 188.457 28.3102C188.035 28.3102 187.706 28.4158 187.47 28.6271C187.243 28.8383 187.129 29.1389 187.129 29.5289ZM190.199 27.2134C189.915 27.2134 189.773 27.319 189.773 27.5302C189.773 27.6277 189.862 27.774 190.041 27.969L189.42 27.7618L189.554 27.5059C189.326 27.3596 189.213 27.1849 189.213 26.9818C189.213 26.795 189.294 26.6487 189.456 26.5431C189.627 26.4375 189.862 26.3847 190.163 26.3847H191.174V27.2134H190.199ZM185.911 34.4036C185.911 33.9893 186.081 33.6602 186.422 33.4165C186.772 33.1727 187.239 33.0509 187.824 33.0509V32.9046C186.962 32.7421 186.532 32.4618 186.532 32.0637C186.532 31.8363 186.682 31.6697 186.983 31.5641C187.291 31.4585 187.783 31.4056 188.457 31.4056L188.737 31.6128C188.323 31.6128 188.027 31.6291 187.848 31.6616C187.677 31.6941 187.592 31.7509 187.592 31.8322C187.592 31.9947 187.941 32.1653 188.64 32.344C189.509 32.5553 190.122 32.8112 190.48 33.1118C190.837 33.4043 191.016 33.774 191.016 34.2208C191.016 34.7733 190.788 35.2079 190.334 35.5248C189.879 35.8417 189.257 36.0001 188.469 36.0001C187.681 36.0001 187.056 35.8538 186.593 35.5614C186.138 35.277 185.911 34.8911 185.911 34.4036ZM186.922 34.1599C186.922 34.4442 187.06 34.6677 187.336 34.8301C187.612 35.0008 187.994 35.0861 188.481 35.0861C188.961 35.0861 189.33 35.0048 189.59 34.8423C189.858 34.6798 189.992 34.4564 189.992 34.1721C189.992 33.9608 189.903 33.7902 189.724 33.6602C189.554 33.5383 189.176 33.3799 188.591 33.1849C188.079 33.1849 187.673 33.2702 187.373 33.4408C187.072 33.6196 186.922 33.8593 186.922 34.1599Z" fill="#485867"/>
<path d="M192.566 31.8078C192.566 32.0597 192.672 32.2506 192.883 32.3806C193.102 32.5106 193.386 32.5756 193.736 32.5756C194.215 32.5756 194.601 32.4415 194.893 32.1734C195.194 31.9053 195.344 31.5641 195.344 31.1497H195.539C195.539 31.8566 195.344 32.4253 194.954 32.8559C194.564 33.2784 194.052 33.4896 193.419 33.4896C192.875 33.4896 192.424 33.3434 192.066 33.0509C191.717 32.7503 191.542 32.3684 191.542 31.9053C191.542 31.4991 191.664 31.1782 191.908 30.9426C192.16 30.6988 192.546 30.5038 193.066 30.3576L195.344 29.7848V30.5526L193.419 31.0035C192.85 31.1416 192.566 31.4097 192.566 31.8078ZM196.368 33.2824H195.344L195.673 31.8322L195.344 31.6981V29.5776C195.344 29.2201 195.218 28.9317 194.966 28.7124C194.723 28.493 194.398 28.3833 193.992 28.3833C193.585 28.3833 193.252 28.5052 192.992 28.7489C192.741 28.9845 192.59 29.2933 192.542 29.6751L191.542 29.5045C191.632 28.9114 191.896 28.4239 192.334 28.0421C192.773 27.6602 193.334 27.4693 194.016 27.4693C194.706 27.4693 195.271 27.6602 195.71 28.0421C196.148 28.4239 196.368 28.8911 196.368 29.4436V33.2824Z" fill="#485867"/>
<path d="M197.473 24.9101H198.484V33.2824H197.473V24.9101Z" fill="#485867"/>
<path d="M201.965 25.3122H207.887V26.275H205.438V33.2824H204.402V26.275H201.965V25.3122Z" fill="#485867"/>
<path d="M208.761 30.7476C208.809 31.3325 208.984 31.7875 209.285 32.1125C209.593 32.4293 210.012 32.5878 210.54 32.5878C210.962 32.5878 211.311 32.4781 211.587 32.2587C211.872 32.0394 212.055 31.7388 212.136 31.3569L213.111 31.5275C212.972 32.145 212.672 32.6284 212.209 32.9778C211.754 33.319 211.198 33.4896 210.54 33.4896C209.662 33.4896 208.972 33.2215 208.468 32.6853C207.973 32.1409 207.725 31.3975 207.725 30.4551C207.725 29.5208 207.965 28.7855 208.444 28.2493C208.923 27.713 209.577 27.4449 210.406 27.4449C211.25 27.4449 211.912 27.7171 212.392 28.2614C212.871 28.7977 213.111 29.5045 213.111 30.382V30.7476H208.761ZM208.785 29.992H212.075C212.075 29.5126 211.916 29.1186 211.6 28.8099C211.283 28.493 210.885 28.3346 210.406 28.3346C209.951 28.3346 209.581 28.4808 209.297 28.7733C209.021 29.0577 208.85 29.4639 208.785 29.992Z" fill="#485867"/>
<path d="M219.166 29.5411L218.216 29.6995C218.086 29.2608 217.878 28.9236 217.594 28.688C217.318 28.4524 216.973 28.3346 216.558 28.3346C216.022 28.3346 215.604 28.5214 215.303 28.8952C215.003 29.2608 214.853 29.7807 214.853 30.4551C214.853 31.1375 215.003 31.6656 215.303 32.0394C215.604 32.405 216.022 32.5878 216.558 32.5878C216.997 32.5878 217.363 32.4578 217.655 32.1978C217.956 31.9378 218.151 31.5763 218.24 31.1132L219.215 31.2716C219.077 31.9784 218.768 32.5268 218.289 32.9168C217.809 33.2987 217.233 33.4896 216.558 33.4896C215.73 33.4896 215.068 33.2255 214.572 32.6975C214.077 32.1612 213.829 31.4138 213.829 30.4551C213.829 29.5045 214.077 28.7652 214.572 28.2371C215.068 27.709 215.73 27.4449 216.558 27.4449C217.168 27.4449 217.704 27.6277 218.167 27.9933C218.63 28.3508 218.963 28.8667 219.166 29.5411Z" fill="#485867"/>
<path d="M223.967 29.7848C223.967 29.3542 223.837 29.0089 223.577 28.7489C223.325 28.4808 222.992 28.3468 222.578 28.3468C222.155 28.3468 221.806 28.4849 221.53 28.7611C221.254 29.0292 221.116 29.3786 221.116 29.8092H220.945C220.945 29.1348 221.136 28.5783 221.518 28.1396C221.9 27.6927 222.395 27.4693 223.004 27.4693C223.565 27.4693 224.036 27.6805 224.418 28.103C224.808 28.5174 225.003 29.0333 225.003 29.6507V33.2824H223.967V29.7848ZM221.116 27.6765L220.811 29.1633L221.116 29.2608V33.2824H220.104V24.9101H221.116V27.6765Z" fill="#485867"/>
<path d="M155.574 10.2859C156.994 10.2859 158.146 11.4372 158.146 12.8573V36.0001C156.725 36.0001 155.574 34.8488 155.574 33.4287V10.2859Z" fill="#9747FF"/>
<defs>
<clipPath id="clip0_1275_578">
<rect width="140.003" height="35.964" fill="white"/>
</clipPath>
</defs>
</svg>
