<svg width="623" height="800" viewBox="0 0 623 800" fill="none" xmlns="http://www.w3.org/2000/svg">
<path fill-rule="evenodd" clip-rule="evenodd" d="M311.111 0C482.933 0 622.222 125.356 622.222 280C622.222 532.511 311.111 800 311.111 800C311.111 800 0 534.756 0 280C0 125.356 139.289 0 311.111 0Z" fill="#9747FF"/>
<path d="M311.611 524C442.226 524 548.111 418.115 548.111 287.5C548.111 156.885 442.226 51 311.611 51C180.996 51 75.1111 156.885 75.1111 287.5C75.1111 418.115 180.996 524 311.611 524Z" fill="white"/>
<path d="M396.673 327.771H375.607C358.409 327.771 356.549 312.669 356.549 308.951V247.25C356.549 238.269 349.196 231 340.111 231V311.729C340.111 334.058 359.613 344 373.114 344H413.111C413.111 335.018 405.758 327.75 396.673 327.75V327.771Z" fill="#1D1F2A"/>
<path d="M108.561 247.247H145.839C142.794 252.259 141.039 258.148 141.039 264.434V344C150.131 344 157.489 336.733 157.489 327.753V263.975C157.489 254.744 165.059 247.247 174.426 247.247H194.661C203.753 247.247 211.111 239.98 211.111 231H92.1111C92.1111 239.98 99.4693 247.247 108.561 247.247Z" fill="#1D1F2A"/>
<path d="M413.111 231C413.111 239.98 420.407 247.247 429.423 247.247H466.387C463.368 252.259 461.628 258.148 461.628 264.434V344C470.643 344 477.94 336.733 477.94 327.753V263.975C477.94 254.744 485.446 247.247 494.734 247.247H514.799C523.815 247.247 531.111 239.98 531.111 231H413.111Z" fill="#1D1F2A"/>
<path d="M280.403 231H259.82C236.776 231 218.111 249.691 218.111 272.767V302.233C218.111 325.309 236.776 344 259.82 344H280.403C303.447 344 322.111 325.309 322.111 302.233V272.767C322.111 249.691 303.447 231 280.403 231ZM306.095 295.279C306.095 312.57 292.081 326.604 274.814 326.604H265.408C248.141 326.604 234.127 312.57 234.127 295.279V279.721C234.127 262.429 248.141 248.396 265.408 248.396H274.814C292.081 248.396 306.095 262.429 306.095 279.721V295.279Z" fill="#1D1F2A"/>
</svg>
