<svg width="930" height="203" viewBox="0 0 930 203" fill="none" xmlns="http://www.w3.org/2000/svg">
<path d="M242.611 201.622C242.611 201.033 242.387 200.665 242.113 200.802C241.839 200.94 241.274 200.387 240.856 199.572C240.415 198.713 239.736 198.091 239.237 198.091C238.558 198.091 238.503 197.968 238.976 197.504C239.435 197.053 239.42 196.875 238.91 196.735C238.388 196.592 238.411 196.39 239.017 195.79C239.604 195.208 239.635 194.984 239.145 194.85C238.792 194.753 238.504 194.49 238.504 194.266C238.504 194.041 238.732 193.973 239.011 194.113C239.302 194.26 239.388 194.092 239.213 193.719C239.045 193.362 239.171 193.07 239.494 193.07C239.921 193.07 239.931 192.843 239.53 192.233C239.089 191.561 239.14 191.397 239.789 191.397C240.443 191.397 240.474 191.289 239.955 190.836C239.29 190.256 237.999 190.774 238.168 191.553C238.211 191.755 237.976 192.001 237.645 192.1C237.25 192.219 237.146 191.964 237.341 191.355C237.505 190.846 237.429 190.529 237.173 190.651C236.916 190.773 236.244 190.735 235.68 190.566C234.865 190.322 235.105 190.195 236.835 189.954C238.196 189.764 239.017 189.427 239.017 189.059C239.017 188.734 239.466 188.468 240.015 188.468C240.564 188.468 241.329 188.1 241.715 187.651C242.407 186.845 245.023 185.746 245.87 185.904C246.11 185.948 247.612 185.716 249.208 185.388C250.804 185.06 253.554 184.659 255.32 184.497C257.085 184.334 258.658 184.032 258.816 183.824C258.973 183.617 259.608 183.443 260.227 183.438C260.845 183.433 262.738 182.872 264.432 182.192C266.126 181.512 267.903 180.952 268.381 180.946C268.858 180.941 269.392 180.749 269.566 180.519C269.741 180.288 269.623 180.1 269.304 180.1C268.593 180.1 268.849 178.229 269.566 178.188C269.849 178.172 271.093 177.923 272.331 177.634C273.569 177.345 275.146 177.224 275.835 177.365C276.524 177.506 277.822 177.437 278.718 177.212C279.615 176.986 281.638 176.596 283.214 176.345C287.538 175.655 289.847 175.079 289.847 174.69C289.847 174.287 263.508 174.568 256.987 175.041C253.552 175.291 252.241 175.222 250.826 174.721C249.838 174.371 248.914 174.057 248.772 174.024C248.631 173.991 247.84 173.736 247.015 173.458C246.19 173.181 245.15 173.069 244.705 173.21C244.259 173.352 237.425 173.535 229.518 173.618C221.612 173.7 214.103 173.955 212.832 174.185C211.561 174.414 207.753 174.82 204.369 175.087C200.985 175.354 197.775 175.765 197.235 176.001C196.694 176.237 195.124 176.341 193.744 176.233C192.365 176.125 191.112 176.201 190.96 176.402C190.808 176.603 190.468 176.658 190.205 176.526C189.942 176.394 189.727 176.485 189.727 176.728C189.727 176.972 189.554 177.134 189.342 177.088C188.488 176.904 184.079 177.665 184.079 177.997C184.079 178.405 180.201 179.084 178.734 178.933C178.195 178.877 177.32 179.211 176.789 179.675C176.258 180.139 175.429 180.541 174.946 180.568C174.463 180.595 172.681 180.658 170.987 180.708C169.292 180.757 166.982 181.015 165.852 181.281C164.723 181.547 162.926 181.87 161.859 181.999C160.792 182.129 160.045 182.4 160.198 182.602C160.676 183.232 159.535 183.397 150.614 183.988C150.14 184.019 149.794 184.223 149.844 184.441C149.895 184.659 149.474 184.948 148.909 185.084C148.344 185.219 147.299 185.653 146.586 186.049C145.653 186.566 143.709 186.843 139.654 187.036C136.555 187.184 133.485 187.286 132.833 187.262C132.18 187.238 130.936 187.517 130.069 187.882C129.173 188.26 128.355 188.381 128.175 188.163C127.733 187.628 125.925 187.114 126.321 187.636C126.739 188.186 126.239 188.158 124.872 187.554C122.113 186.335 109.051 187.262 107.688 188.773C107.266 189.241 107.22 189.556 107.56 189.648C107.852 189.728 108.091 189.959 108.091 190.163C108.091 190.367 107.768 190.432 107.373 190.309C106.978 190.185 106.502 190.285 106.315 190.531C105.818 191.188 108.895 191.093 110.555 190.4C111.318 190.082 112.981 189.683 114.252 189.514C115.523 189.345 116.967 189.145 117.461 189.07C117.955 188.995 118.36 189.181 118.36 189.482C118.36 189.87 118.998 189.99 120.542 189.891C122.228 189.783 122.517 189.849 121.814 190.182C121.314 190.418 121.021 190.764 121.162 190.95C121.467 191.352 118.596 191.756 113.039 192.094C109.918 192.283 108.9 192.208 108.554 191.763C108.229 191.346 108.104 191.331 108.099 191.71C108.087 192.481 105.001 192.356 103.895 191.541C103.379 191.16 102.956 191.027 102.956 191.244C102.956 191.484 101.29 191.527 98.7206 191.353C96.3909 191.194 92.7519 190.961 90.634 190.834C88.516 190.708 86.0243 190.385 85.0967 190.117C84.1691 189.85 82.8351 189.721 82.1322 189.83C81.4293 189.94 80.7085 189.837 80.5304 189.602C80.3313 189.34 80.4656 189.306 80.8787 189.514C81.2968 189.724 81.4262 189.688 81.221 189.418C80.8344 188.908 78.3856 188.446 75.4876 188.336C73.7781 188.272 73.4245 188.108 73.3781 187.36C73.3283 186.556 73.6824 186.427 76.7154 186.14C78.5816 185.964 80.6862 185.861 81.3921 185.91L82.6757 186.001L81.3134 185.397C78.951 184.351 76.6474 183.91 72.1503 183.641C69.75 183.498 66.2843 183.073 64.4487 182.697C60.227 181.833 45.5782 181.767 44.9393 182.609C44.7194 182.899 44.2678 182.999 43.9356 182.832C43.0778 182.4 33.6292 182.254 33.9506 182.678C34.2513 183.075 34.1748 183.081 27.4582 183.247C22.7177 183.365 20.7167 183.508 13.6186 184.236C10.382 184.568 8.48963 184.378 6.63979 183.534C5.8651 183.181 6.03206 182.98 7.89773 182.021C9.40254 181.246 11.2409 180.791 14.0159 180.505C18.7514 180.017 23.2697 179.403 26.525 178.804C28.4722 178.446 28.8605 178.224 28.6565 177.588C28.5101 177.132 28.1099 176.904 27.6875 177.036C27.2917 177.16 26.9679 177.053 26.9679 176.798C26.9679 176.543 27.3722 176.332 27.8664 176.328C28.6343 176.323 28.6529 176.263 27.9948 175.916C27.5077 175.66 27.4546 175.508 27.8503 175.504C28.1954 175.501 28.343 175.216 28.1794 174.868C27.9729 174.43 28.4852 174.02 29.8641 173.521L31.8455 172.803L26.829 172.551C24.0698 172.412 20.4309 172.318 18.7423 172.341C17.0538 172.364 15.6723 172.36 15.6723 172.331C15.6723 172.302 16.1344 171.845 16.6992 171.314C17.2639 170.783 17.726 170.477 17.726 170.632C17.726 170.788 18.2463 170.637 18.8822 170.298C19.5181 169.958 21.7513 169.464 23.8447 169.199C25.9382 168.934 28.5661 168.455 29.6845 168.133C30.8029 167.812 32.5553 167.542 33.5788 167.534C36.4381 167.511 43.6408 165.985 41.558 165.843C41.2992 165.825 40.6253 165.724 40.0605 165.619C39.4957 165.513 38.7515 165.376 38.4067 165.314C37.232 165.104 37.157 164.697 38.2414 164.416C38.8365 164.263 39.9274 163.681 40.6655 163.123C41.4036 162.566 42.5231 162.11 43.1532 162.11C43.7834 162.11 44.5626 161.851 44.8848 161.534C45.3661 161.062 44.9428 160.91 42.5088 160.684C40.8799 160.533 38.8539 160.318 38.0068 160.207C35.9913 159.942 27.9713 159.98 27.4204 160.258C26.6773 160.632 20.8067 160.808 20.8067 160.456C20.8067 160.271 21.1532 159.886 21.5768 159.599C22.0004 159.313 22.347 158.882 22.347 158.642C22.347 158.401 22.1949 158.329 22.0091 158.48C21.8233 158.631 21.3612 158.546 20.9823 158.289C20.6007 158.031 20.2932 158.002 20.2932 158.223C20.2932 158.443 19.9467 158.623 19.5231 158.623C18.29 158.623 18.6282 158.175 20.3227 157.564C22.2283 156.876 21.9554 156.588 18.8834 156.043C16.0809 155.546 15.5467 154.766 17.556 154.106C19.6353 153.423 29.4047 152.537 34.9893 152.525C37.607 152.518 40.3617 152.389 41.1108 152.235L42.4729 151.957L41.01 150.982C40.2054 150.445 39.1564 150 38.6789 149.992C37.4619 149.97 37.092 149.305 37.7448 148.311C38.4341 147.261 42.9002 145.374 44.6947 145.374C45.4512 145.374 45.8887 145.194 45.7083 144.956C45.5338 144.726 44.9673 144.537 44.4494 144.537C43.5795 144.537 42.6123 143.493 42.8029 142.759C42.9966 142.014 34.8504 142.848 34.1686 143.643C33.648 144.251 20.5371 145.839 19.2482 145.451L18.0208 145.081L19.2147 144.56C19.8714 144.274 24.1372 143.533 28.6943 142.914C37.0332 141.781 39.0627 140.981 33.5985 140.981C31.9195 140.981 30.3749 140.742 29.8727 140.405C29.1595 139.925 28.172 139.912 24.0123 140.326C16.3635 141.087 11.9183 141.61 10.8758 141.871C10.1852 142.044 9.97746 141.92 10.1057 141.411C10.2925 140.67 11.881 139.8 14.3713 139.075C16.5148 138.451 15.1824 137.901 12.4417 138.279C11.2534 138.442 9.24151 138.709 7.97076 138.871L5.66029 139.166L7.58568 137.662C8.64465 136.835 9.51107 136.091 9.51107 136.009C9.51107 135.927 8.07834 135.727 6.32723 135.566C2.18695 135.184 -0.0284062 134.238 0.000275016 132.865C0.015341 132.14 3.3369 131.168 6.42754 130.984C7.6999 130.908 10.5893 130.547 12.8484 130.181C15.1075 129.816 18.5735 129.432 20.5506 129.329C22.5277 129.225 25.5312 128.942 27.2252 128.7C37.7459 127.194 40.1137 126.824 40.5672 126.612C40.8459 126.482 40.0372 126.169 38.7702 125.918C37.4951 125.665 36.4665 125.216 36.4665 124.911C36.4665 124.207 41.6414 122.678 46.338 121.994C48.6226 121.661 50.313 121.166 50.8664 120.668C51.3618 120.222 53.0806 119.66 54.7811 119.387C58.6392 118.768 58.535 118.182 54.3429 116.919C53.4441 116.649 52.8129 116.21 52.9401 115.944C53.2298 115.338 55.6096 114.414 56.8799 114.414C57.405 114.414 57.6919 114.225 57.5174 113.995C57.3428 113.765 55.4808 113.577 53.3796 113.577C49.9175 113.577 48.5273 113.149 50.2009 112.599C51.6963 112.107 44.2033 112.373 40.5023 112.943C35.8935 113.653 33.3858 113.356 33.3858 112.1C33.3858 111.521 34.727 110.761 38.4255 109.243C41.9097 107.814 43.2567 107.066 42.7897 106.82C41.9027 106.353 42.7782 105.876 46.2218 104.949C51.0824 103.641 54.9383 101.448 54.4321 100.28C54.0863 99.482 55.9808 99.0468 63.8077 98.1262C67.6982 97.6686 71.5944 97.0043 72.4659 96.6501C73.3374 96.2958 75.1825 95.8954 76.5661 95.7602C80.3811 95.3876 87.681 93.8828 88.8228 93.2336C89.3798 92.9168 90.5351 92.6445 91.39 92.6283C92.245 92.6121 93.4065 92.4371 93.9713 92.2393C94.789 91.953 94.5798 91.8672 92.9444 91.8181C88.5681 91.6868 86.2459 91.3352 85.6657 90.7161C85.2696 90.2934 84.6508 90.1635 83.8687 90.3386C82.8421 90.5685 82.8023 90.5411 83.5835 90.1423C84.0828 89.8875 84.8915 89.7326 85.3805 89.7981C85.8696 89.8637 86.5806 89.7586 86.9605 89.5646C87.3692 89.3559 88.1684 89.4374 88.9176 89.7642C89.9045 90.1946 90.3983 90.2073 91.1553 89.8222C91.7699 89.5094 92.2408 89.4783 92.4375 89.7376C92.6084 89.963 94.0632 90.1541 95.6703 90.1623C97.2774 90.1704 99.1698 90.4462 99.8758 90.775C101.414 91.4915 101.93 91.544 101.93 90.9842C101.93 90.7541 101.569 90.5658 101.129 90.5658C100.689 90.5658 100.455 90.399 100.61 90.195C100.765 89.9911 100.407 89.7211 99.816 89.5951C99.2246 89.4691 98.8412 89.1182 98.9639 88.8153C99.1903 88.2565 101.49 87.9291 108.604 87.4428C115.031 87.0035 116.819 86.767 116.819 86.3563C116.819 86.1403 116.473 85.9636 116.049 85.9636C115.621 85.9636 115.279 85.5917 115.279 85.1268C115.279 84.5132 115.621 84.2901 116.563 84.2901C118.039 84.2901 118.291 83.6457 116.928 83.3552C116.423 83.2476 113.824 83.2601 111.152 83.3829C103.37 83.7408 100.257 83.6217 98.629 82.9039C97.8021 82.5392 96.9775 82.3155 96.7966 82.4066C96.6156 82.4977 96.563 82.0423 96.6797 81.3945C96.9343 79.981 96.2122 79.7605 90.9404 79.6424C87.7853 79.5716 87.5404 79.5081 88.6369 79.045C90.4408 78.2832 97.0578 77.1899 101.004 77.0017C103.02 76.9055 104.925 76.5619 105.611 76.1708C107.069 75.3383 107.948 75.3279 108.934 76.1315C109.378 76.493 110.614 76.7552 111.85 76.75C115.655 76.7341 129.853 75.5574 131.781 75.0983C133.581 74.6695 133.636 74.6003 133.256 73.228C133.017 72.3634 133.071 71.6328 133.393 71.3701C133.759 71.0717 133.744 70.7594 133.342 70.3656C132.116 69.1612 133.676 68.9119 141.169 69.1149C146.991 69.2726 148.807 69.1862 149.988 68.6953C151.238 68.1759 156.874 67.4594 160.718 67.3312C161.283 67.3124 162.9 67.1286 164.312 66.9229L166.879 66.5489L164.569 66.2445C163.298 66.0771 159.486 66.0362 156.097 66.1536C152.708 66.2709 147.856 66.3419 145.315 66.3112C142.773 66.2806 137.806 66.5622 134.276 66.9371C127.292 67.6787 120.089 68.1975 116.988 68.1822C115.907 68.1769 114.877 68.337 114.7 68.5379C114.522 68.7389 113.656 68.9273 112.774 68.9567C111.893 68.9861 111.171 69.166 111.171 69.3565C111.171 69.547 110.652 69.5837 110.016 69.4381C109.112 69.2308 109.028 69.2687 109.631 69.6127C110.295 69.9914 110.277 70.053 109.503 70.0585C109.009 70.0623 108.604 70.2748 108.604 70.5314C108.604 70.8179 108.116 70.7372 107.339 70.3222C105.933 69.5718 105.317 69.4539 105.744 70.0173C105.899 70.2213 105.566 70.4861 105.004 70.6057C104.42 70.7303 103.983 70.6164 103.983 70.3395C103.983 70.0594 103.172 69.8557 102.058 69.8557C100.834 69.8557 100.176 70.039 100.253 70.3587C100.336 70.7049 99.7822 70.8 98.478 70.664C96.3406 70.441 94.232 69.4661 94.2202 68.6955C94.2146 68.3661 94.034 68.407 93.7146 68.8097C93.3283 69.2968 93.2151 69.1736 93.209 68.2592C93.199 66.7502 94.045 65.4627 95.0466 65.4627C95.4769 65.4627 95.6861 65.2744 95.5116 65.0443C95.3371 64.8142 95.6123 64.6115 96.1231 64.5939C97.815 64.5355 98.8896 64.282 100.034 63.6712C101.059 63.1235 103.47 63.3344 103.47 63.9717C103.47 64.087 103.16 64.0844 102.782 63.9657C102.404 63.8474 101.768 64.0777 101.37 64.4775C100.746 65.104 100.747 65.1549 101.376 64.8463C101.936 64.5709 102.021 64.6653 101.743 65.2555C101.527 65.7145 101.647 66.1598 102.041 66.3637C103.023 66.8716 103.851 66.7761 102.957 66.2579C102.378 65.9218 102.675 65.8667 104.159 66.035C105.249 66.1587 106.55 66.0452 107.069 65.781C107.78 65.4194 108.191 65.4269 108.76 65.8119C109.366 66.2219 109.589 66.1765 109.91 65.5775C110.129 65.1689 110.271 64.6934 110.227 64.5208C110.182 64.3483 110.472 64.2071 110.873 64.2071C111.273 64.2071 111.688 63.9917 111.796 63.7286C111.903 63.4654 112.669 63.1912 113.498 63.1192C114.326 63.0472 115.262 62.7006 115.578 62.349C115.893 61.9974 116.338 61.848 116.567 62.017C116.796 62.186 116.838 61.9948 116.661 61.5922C116.264 60.6908 117.246 60.6066 117.67 61.5056C117.939 62.077 118.084 62.0695 118.937 61.4407C119.847 60.7695 119.901 60.7743 119.908 61.5272C119.915 62.195 119.997 62.2225 120.414 61.6967C121.156 60.7611 121.05 60.5574 119.676 60.2763C118.804 60.0981 118.449 59.7529 118.506 59.1395C118.596 58.1623 120.385 57.4318 122.445 57.5304C124.366 57.6224 126.062 57.084 126.062 56.3821C126.062 55.9303 126.572 55.7977 127.987 55.8819C130.056 56.005 133.538 55.5341 134.79 54.9616C135.412 54.6774 135.363 54.6033 134.533 54.5771C133.969 54.5593 132.351 54.4563 130.939 54.3484C126.573 54.0149 120.766 54.0254 118.671 54.3706C117.233 54.6076 116.772 54.5677 117.029 54.2286C117.25 53.9374 117.111 53.8433 116.666 53.9825C116.243 54.1146 115.562 53.7316 115.02 53.0577C114.358 52.235 114.272 51.8596 114.715 51.7393C115.131 51.6263 115.03 51.3768 114.408 50.9793C113.564 50.4399 113.619 50.4069 115.023 50.6057C115.87 50.7256 116.274 50.7128 115.921 50.5772C114.621 50.0777 115.337 49.5636 117.333 49.5636C118.63 49.5636 119.39 49.7564 119.395 50.0865C119.4 50.4714 119.519 50.4596 119.844 50.0419C120.121 49.6853 120.405 49.6325 120.608 49.9C120.953 50.3545 121.607 50.3191 123.211 49.7593C123.762 49.5673 124.971 49.3977 125.899 49.3823C128.027 49.3472 128.718 48.3084 126.614 48.3084C125.781 48.3084 125.016 48.0364 124.849 47.6809C124.65 47.2574 124.874 47.0533 125.539 47.0533C126.081 47.0533 126.709 46.8179 126.935 46.5303C127.523 45.7803 129.616 44.8919 130.154 45.1632C130.406 45.2898 130.757 45.2022 130.934 44.9682C131.111 44.7343 131.894 44.543 132.673 44.543C133.453 44.543 135.345 44.2372 136.879 43.8636C139.3 43.2737 139.517 43.1382 138.528 42.8359C137.902 42.6444 133.615 42.5132 129.001 42.5444C124.388 42.5758 120.312 42.4492 119.943 42.2633C119.561 42.0709 119.121 42.1249 118.921 42.3887C118.508 42.9326 102.547 43.345 102.151 42.8219C102.011 42.638 101.539 42.5997 101.1 42.7367C100.561 42.9055 100.49 43.0796 100.88 43.2763C101.197 43.436 100.755 43.5667 99.8965 43.5667C99.0382 43.5667 98.336 43.3868 98.336 43.1668C98.336 42.9469 97.9838 43.0051 97.5534 43.2962C97.123 43.5873 96.6066 43.6916 96.4058 43.528C96.2051 43.3644 96.615 42.8744 97.3168 42.4392L98.5927 41.6477L97.3091 41.8488C96.1843 42.025 96.1525 42.0006 97.0524 41.6522C98.5332 41.079 100.967 41.1383 102.393 41.7825C103.784 42.4103 105.524 42.2035 105.524 41.4104C105.524 41.045 106.538 40.8809 108.861 40.8702C110.955 40.8606 112.199 41.0261 112.199 41.3145C112.199 41.5674 112.488 41.4657 112.841 41.0887C113.304 40.5934 114.694 40.3285 117.847 40.1345C120.247 39.9869 123.669 39.6004 125.452 39.2758C127.234 38.9512 129.429 38.6675 130.329 38.6454C131.229 38.6232 133.121 38.3482 134.533 38.034C136.941 37.4983 136.669 37.4769 130.169 37.691C126.357 37.8165 122.891 37.9223 122.467 37.926C122.044 37.9298 116.73 38.3743 110.658 38.9136C104.587 39.453 97.9679 39.9519 95.9492 40.0221C93.9304 40.0925 92.3845 40.2911 92.5138 40.4637C92.643 40.6363 91.7532 40.7783 90.5364 40.7791C89.3196 40.7791 86.2445 41.0537 83.703 41.387C79.3449 41.9586 69.093 42.5481 70.4853 42.147C70.84 42.0448 70.9997 41.789 70.84 41.5785C70.6804 41.3681 71.1988 41.1869 71.9921 41.1758C72.7853 41.165 74.243 40.7985 75.2313 40.3618C76.2197 39.9252 77.4905 39.3923 78.0552 39.1777C79.9116 38.4723 110.194 34.3901 117.333 33.8828C119.451 33.7323 125.574 33.2362 130.939 32.7804C136.305 32.3246 143.386 31.769 146.676 31.5457C149.966 31.3224 153.77 30.867 155.128 30.5338C156.913 30.0961 157.697 30.0575 157.953 30.3948C158.277 30.8224 163.679 30.7053 170.217 30.129C171.205 30.0418 174.325 29.8529 177.148 29.7092C182.216 29.4512 189.936 28.5833 194.257 27.7859C195.477 27.5608 196.691 27.4854 196.956 27.6185C197.22 27.7517 200.797 27.4457 204.905 26.9386C210.983 26.1883 212.593 26.112 213.549 26.5291C214.51 26.9483 215.741 26.878 220.324 26.142C227.953 24.917 237.908 23.3243 242.868 22.5352C245.127 22.1759 248.41 21.6148 250.162 21.2885C251.914 20.9621 254.109 20.696 255.04 20.6971C255.97 20.6971 257.771 20.4281 259.042 20.0966C261.183 19.5382 265.568 18.9182 277.268 17.5194C283.28 16.8009 284.49 16.635 290.618 15.6911C293.442 15.2562 298.063 14.5896 300.887 14.2098C303.71 13.83 306.714 13.4258 307.561 13.3117C313.556 12.5044 314.698 12.5194 315.89 13.4213C316.533 13.9079 317.06 14.5198 317.06 14.781C317.06 15.0423 317.233 15.2337 317.445 15.2065C317.657 15.1795 318.358 15.1795 319.003 15.2065C319.984 15.2478 320.092 15.384 319.663 16.0378C319.035 16.9948 319.537 17.511 320.478 16.8747C321.537 16.1588 321.296 16.8027 320.078 17.9442C319.439 18.543 318.156 19.0798 316.975 19.2423C315.251 19.4797 315.054 19.6106 315.606 20.1526C316.435 20.9661 315.735 21.0166 348.636 17.7726C350.895 17.5498 354.939 17.2773 357.621 17.167C360.304 17.0566 365.156 16.7681 368.403 16.5259C371.651 16.2837 375.925 16.011 377.902 15.9198C379.879 15.8287 382.41 15.559 383.526 15.3206C384.643 15.0822 389.073 14.8756 393.371 14.8614C397.669 14.8473 401.492 14.7518 401.866 14.6492C402.79 14.3962 414.822 13.8826 417.684 13.974C418.95 14.0145 420.339 14.308 420.771 14.6265C421.739 15.3401 424.203 15.4116 435.664 15.0588C440.932 14.8966 445.77 14.5278 447.358 14.1673C449.431 13.6969 452.869 13.5682 461.991 13.6193C468.549 13.6563 479.46 13.5441 486.237 13.3705C499.971 13.0186 499.237 13.0146 513.449 13.5174C522.651 13.8428 527.959 13.8563 536.04 13.5749C537.452 13.5257 538.203 13.3993 537.709 13.2941C537.215 13.1889 536.81 12.9059 536.81 12.6654C536.81 12.3769 538.252 12.311 541.046 12.4718C543.376 12.6059 550.365 12.9063 556.578 13.1395C562.79 13.3728 570.761 13.7567 574.291 13.9928C588.473 14.9412 593.881 15.2754 601.247 15.6585C619.667 16.6169 629.377 16.9987 639.498 17.1627C644.157 17.2383 649.933 17.4284 652.334 17.5851C654.734 17.7419 658.315 17.8533 660.292 17.8326C662.269 17.8123 666.196 17.9802 669.02 18.2066C671.844 18.4329 680.99 18.701 689.344 18.8024C697.698 18.9037 705.553 19.1702 706.801 19.3944C708.048 19.6187 710.884 19.9042 713.102 20.0288C715.321 20.1535 717.862 20.3523 718.75 20.4707C721.786 20.8754 726.525 21.1507 733.457 21.3246C739.56 21.4778 745.491 21.8454 754.251 22.6137C755.663 22.7375 757.627 22.8913 758.615 22.9555C759.603 23.0198 762.145 23.1931 764.263 23.3409C766.381 23.4886 769.962 23.7246 772.22 23.8654C774.479 24.0061 776.443 24.1793 776.585 24.2502C776.726 24.3211 778.156 24.4928 779.762 24.632C781.368 24.7711 783.02 24.9907 783.434 25.1201C783.847 25.2494 786.23 25.4113 788.729 25.4799C795.591 25.6681 795.582 25.667 795.582 26.3432C795.582 26.6884 795.827 26.9708 796.126 26.9708C796.425 26.9708 796.503 26.7505 796.299 26.4813C796.045 26.1476 796.213 26.081 796.824 26.2721C797.317 26.4263 798.23 26.5524 798.852 26.5524C799.617 26.5524 800.01 26.8244 800.062 27.3892C800.155 28.3894 799.876 28.4374 798.846 27.5984C797.772 26.7227 796.569 26.7883 796.93 27.703C797.108 28.1535 797.053 28.2553 796.786 27.9676C796.491 27.6489 795.044 27.5891 792.245 27.7798C787.426 28.108 783.789 28.0177 777.099 27.4037C774.416 27.1575 770.95 26.8548 769.397 26.731C767.844 26.6073 766.303 26.4343 765.974 26.3465C765.644 26.2587 765.24 26.4724 765.076 26.8213C764.855 27.2913 764.367 27.3825 763.196 27.1729C761.357 26.8437 760.175 26.7185 755.278 26.3344C753.301 26.1794 751.545 25.9833 751.376 25.8987C751.017 25.7183 744.149 25.6887 734.74 25.8269C728.77 25.9145 724.561 25.675 721.421 25.0691C719.651 24.7276 707.271 24.5799 707.271 24.9003C707.271 25.065 708.831 25.3358 710.737 25.5021C712.643 25.6684 714.665 25.8786 715.23 25.9694C719.191 26.6062 729.802 27.3198 738.334 27.5235C740.311 27.5707 742.173 27.7367 742.471 27.8925C742.968 28.1516 758.69 29.1506 759.533 28.9767C759.734 28.9352 761.631 29.0331 763.749 29.1941C767.024 29.4429 775.385 29.9437 777.484 30.0167C778.242 30.043 778.332 30.5831 777.636 30.9337C777.136 31.1853 773.266 31.2434 769.763 31.0518C768.694 30.9933 767.631 30.6977 767.401 30.3948C767.091 29.9851 766.209 29.9167 763.955 30.1276C762.289 30.2835 760.771 30.486 760.582 30.5775C760.393 30.6691 759.888 30.4584 759.459 30.1094C759.031 29.7603 758.558 29.6359 758.409 29.833C758.119 30.2154 747.756 30.0525 744.752 29.6184C743.764 29.4755 742.022 29.3198 740.881 29.2724C739.74 29.225 738.296 28.9635 737.672 28.6913C736.765 28.2957 736.537 28.3085 736.537 28.7552C736.537 29.084 735.851 29.359 734.869 29.4236C730.809 29.6905 725.126 29.6652 720.621 29.3601C717.38 29.1408 715.997 29.1682 716.498 29.442C718.522 30.5463 714.725 31.0909 708.812 30.5445C703.569 30.06 702.632 30.0345 700.366 30.3147C699.197 30.4593 697.558 30.4284 696.723 30.2461C694.525 29.7661 683.095 28.9158 678.005 28.8538C675.605 28.8245 672.139 28.6718 670.304 28.5145C668.468 28.3572 664.772 28.1319 662.089 28.0137C659.406 27.8956 653.052 27.5222 647.969 27.1839C642.886 26.8456 635.326 26.4422 631.168 26.2876C624.393 26.0356 623.575 26.0788 623.281 26.7032C623.001 27.2972 622.109 27.3974 617.234 27.3822C614.089 27.3726 610.476 27.5171 609.205 27.7037L606.895 28.0432L610.745 28.5097C612.863 28.7662 615.405 28.971 616.393 28.9647C617.381 28.9579 621.425 29.2448 625.378 29.6011C629.332 29.9574 636.841 30.4592 642.065 30.7161C647.289 30.973 652.077 31.2733 652.706 31.3834C653.334 31.4936 658.532 31.767 664.258 31.991C674.548 32.3936 681.759 32.7222 687.247 33.0386C688.8 33.1282 694.129 33.3921 699.087 33.6252C704.046 33.8582 708.436 34.1328 708.843 34.2352C709.249 34.3377 710.044 34.5639 710.609 34.738C711.173 34.912 712.524 35.1066 713.609 35.1705C714.695 35.2345 715.851 35.5852 716.179 35.9501C716.651 36.4769 717.989 36.6357 722.676 36.7216C725.923 36.7811 728.81 36.9456 729.092 37.087C729.375 37.2285 731.339 37.4547 733.457 37.5897C743.581 38.2353 753.702 38.7596 758.358 38.8797C761.182 38.9526 767.189 39.341 771.708 39.7429C776.226 40.1447 782.002 40.5359 784.543 40.6123C802.134 41.141 816.183 41.8067 823.565 42.4614C826.106 42.6868 830.561 42.9923 833.464 43.1403C836.367 43.2883 838.865 43.5704 839.014 43.767C839.163 43.9638 838.521 44.14 837.586 44.1587C836.652 44.1776 835.235 44.2312 834.438 44.2785C833.64 44.3256 832.888 44.2318 832.765 44.0699C832.642 43.908 831.688 43.9677 830.645 44.2024C829.586 44.4407 827.262 44.5072 825.386 44.3531C823.537 44.2011 813.707 44.0031 803.541 43.913C793.375 43.823 781.245 43.6277 776.585 43.4792C768.28 43.2143 765.927 43.3763 771.375 43.8377C772.886 43.9658 774.234 44.1616 774.371 44.2729C774.737 44.5713 772.86 45.3096 771.302 45.4795C769.488 45.6775 768.915 46.2075 770.467 46.2529C771.149 46.2729 774.711 46.4647 778.382 46.6792C782.053 46.8936 789.273 47.1803 794.427 47.3163C802.899 47.5398 803.797 47.6338 803.797 48.2968C803.797 49.217 805.864 49.4347 818.321 49.8259C823.344 49.9837 827.574 50.2716 827.722 50.4658C827.869 50.66 829.002 50.8189 830.239 50.8189C834.457 50.8189 833.275 51.9741 828.094 52.9154C826.631 53.181 824.667 53.3637 823.729 53.3214C817.476 53.039 819.116 53.8628 826.132 54.5279C828.956 54.7956 832.883 55.1059 834.86 55.2173C836.837 55.3288 840.418 55.6076 842.818 55.837C845.219 56.0664 850.071 56.3782 853.601 56.5299C857.947 56.7168 860.184 56.9828 860.532 57.3541C860.816 57.6578 862.648 58.0238 864.64 58.1747C866.616 58.3245 868.465 58.677 868.747 58.958C869.029 59.2389 870.948 59.5958 873.01 59.7511C875.073 59.9063 877.278 60.3099 877.911 60.6478C878.636 61.0351 880.857 61.3304 883.916 61.4464C890.513 61.6966 895.682 62.168 895.968 62.5458C896.269 62.9427 891.774 63.5098 891.083 63.162C890.8 63.0193 890.568 63.0811 890.568 63.2992C890.568 63.5173 891.377 63.8193 892.365 63.9704C894.316 64.2687 894.685 64.7891 893.264 65.2383C891.586 65.7682 893.934 66.6077 899.212 67.365C903.646 68.0011 906.447 68.7872 904.405 68.8221C902.486 68.8549 905.449 69.5924 908.534 69.8496C910.365 70.0023 912.132 70.3088 912.46 70.5308C912.788 70.7528 914.518 71.1261 916.304 71.3605C921.266 72.0118 921.213 72.535 916.15 72.8592C914.259 72.9803 912.53 73.3392 912.01 73.7186C911.28 74.2508 910.388 74.3144 907.132 74.0666C900.511 73.5628 899.201 73.6609 898.207 74.7342C897.721 75.2596 897.423 75.8211 897.545 75.982C897.667 76.143 899.324 76.4065 901.227 76.5675C903.13 76.7286 904.919 77.0081 905.201 77.1888C905.483 77.3694 906.812 77.6503 908.153 77.813C911.834 78.2596 911.079 78.8507 906.827 78.8507C904.756 78.8507 902.887 78.9919 902.673 79.1645C902.459 79.337 900.306 79.4782 897.887 79.4782C894.829 79.4782 893.423 79.6375 893.27 80.0012C893.119 80.3596 893.669 80.5249 895.018 80.5265C896.1 80.5273 897.795 80.7016 898.783 80.9127C899.771 81.1237 902.536 81.4156 904.926 81.5611C907.316 81.7067 909.533 82.002 909.851 82.2174C910.169 82.4327 910.564 82.4992 910.729 82.3651C910.894 82.231 911.565 82.2777 912.222 82.4689C913.144 82.7373 912.597 82.8772 909.822 83.083C906.547 83.3258 902.812 83.9364 900.837 84.5519C899.583 84.9425 901.533 85.3719 907.383 85.9934C910.278 86.3009 912.646 86.6642 912.646 86.8007C912.646 86.9371 914.148 86.9709 915.983 86.8757C918.665 86.7365 919.321 86.8226 919.321 87.314C919.321 88.0724 917.695 89.3125 916.713 89.3039C916.109 89.2986 916.116 89.2274 916.753 88.8919C917.408 88.5468 917.387 88.4854 916.608 88.4799C916.105 88.4762 915.556 88.7657 915.388 89.1228C915.127 89.676 914.199 89.7397 909.114 89.5533C902.743 89.3197 901.177 89.5966 902.351 90.7491C904.317 92.6795 912.334 94.7493 917.845 94.7493C921.175 94.7493 922.914 95.2568 922.914 96.2284C922.914 96.7147 922.093 96.8392 918.935 96.8313C916.746 96.826 914.032 96.623 912.902 96.3806C911.773 96.1383 906.45 95.8547 901.075 95.7504C891.57 95.5661 891.3 95.5839 891.224 96.402C891.15 97.2066 891.777 97.7861 892.878 97.9314C893.161 97.9686 895.376 98.3037 897.8 98.676C905.736 99.8945 912.782 100.637 919.994 101.014C926.676 101.363 928.954 101.843 928.264 102.753C928.106 102.961 927.757 103.019 927.487 102.884C927.217 102.748 927.06 102.886 927.137 103.191C927.215 103.497 926.879 103.719 926.385 103.687C925.894 103.656 925.603 103.776 925.739 103.955C925.875 104.134 925.201 104.4 924.243 104.547C922.171 104.864 921.679 105.618 922.741 106.852C923.306 107.51 923.367 107.903 922.963 108.299C922.301 108.948 922.734 109.393 924.027 109.393C924.544 109.393 924.968 109.472 924.968 109.568C924.968 109.664 925.121 110.068 925.309 110.466C925.622 111.131 925.277 111.168 921.073 110.913C918.556 110.76 915.63 110.523 914.571 110.387C913.038 110.189 912.645 110.271 912.645 110.791C912.645 111.149 912.273 111.613 911.818 111.821C910.642 112.357 911.348 114.767 912.822 115.252C913.876 115.598 913.88 115.618 912.902 115.671C911.875 115.727 911.875 115.727 912.902 116.087C913.904 116.438 912.505 116.588 907.254 116.692C905.064 116.736 903.403 117.299 903.403 117.998C903.403 118.371 902.871 118.599 901.992 118.603C901.215 118.607 900.054 118.723 899.412 118.864C898.318 119.103 898.302 119.153 899.156 119.681C899.656 119.991 900.698 120.25 901.471 120.258C902.243 120.265 904.4 120.93 906.263 121.735C908.142 122.547 910.398 123.2 911.329 123.2C914.441 123.2 919.294 123.732 919.055 124.047C918.924 124.219 919.211 124.334 919.691 124.303C920.171 124.271 920.647 124.57 920.747 124.966C920.981 125.887 917.949 127.474 916.386 127.25C915.76 127.16 915.164 127.292 915.062 127.543C914.82 128.135 908.827 128.302 906.431 127.784C905.413 127.564 900.157 127.333 894.75 127.271C885.609 127.165 882.914 127.379 886.332 127.938C887.108 128.065 888.783 128.36 890.054 128.595C891.325 128.829 893.347 129.029 894.547 129.039C895.747 129.049 896.729 129.245 896.729 129.475C896.729 129.705 897.091 129.894 897.533 129.894C897.975 129.894 898.811 130.101 899.391 130.353C900.433 130.808 900.431 130.818 899.228 131.307C897.122 132.163 897.775 132.97 901.315 133.887C903.131 134.358 904.725 135.017 904.857 135.351C904.99 135.686 905.302 136.069 905.552 136.203C906.337 136.623 905.397 137.914 904.508 137.636C904.059 137.495 903.833 137.496 904.006 137.637C904.18 137.778 903.739 138.368 903.027 138.949C902.091 139.711 901.125 140.022 899.536 140.072C898.327 140.111 897.432 140.265 897.546 140.415C897.66 140.566 895.542 140.597 892.84 140.484C888.911 140.32 887.753 140.406 887.065 140.913C886.108 141.617 881.066 141.908 878.436 141.41C877.431 141.22 876.698 141.279 876.48 141.567C876.288 141.82 875.586 142.027 874.919 142.027C873.375 142.027 872.084 142.428 872.084 142.909C872.084 143.114 872.419 143.282 872.829 143.282C873.238 143.282 873.769 143.568 874.009 143.917C874.279 144.31 876.286 144.843 879.297 145.32C885.229 146.261 889.596 147.699 889.183 148.575C889.025 148.912 888.566 149.085 888.164 148.959C887.762 148.834 887.563 148.901 887.72 149.109C887.878 149.317 887.402 150.074 886.661 150.791C885.67 151.75 885.043 152.024 884.283 151.827C883.711 151.679 883.38 151.73 883.54 151.941C883.699 152.151 883.025 152.341 882.043 152.364C881.061 152.386 878.636 152.729 876.654 153.124L873.05 153.844L874.197 154.839C874.827 155.386 875.557 155.834 875.818 155.834C876.079 155.834 877.086 156.14 878.055 156.515C879.745 157.168 879.785 157.236 879.037 158.167C878.545 158.778 878.447 159.233 878.773 159.397C879.056 159.54 879.141 159.852 878.959 160.091C878.747 160.371 878.471 160.324 878.181 159.958C877.889 159.589 877.596 159.54 877.347 159.817C877.135 160.052 876.268 160.516 875.421 160.849L873.881 161.454L875.506 161.597C877.265 161.751 878.206 162.824 876.931 163.223C876.5 163.358 876.019 163.364 875.863 163.237C875.707 163.11 874.81 163.358 873.87 163.788C872.931 164.218 871.283 164.704 870.21 164.868C869.137 165.032 867.948 165.42 867.568 165.73C866.667 166.464 866.314 166.448 861.544 165.453C857.262 164.561 856.055 164.644 854.298 165.953C853.307 166.691 852.908 166.727 850.225 166.323C846.706 165.793 840.077 165.725 840.454 166.223C840.599 166.414 842.404 166.805 844.464 167.091C849.712 167.821 850.303 167.977 849.441 168.411C847.947 169.164 854.636 170.94 861.174 171.527C862.94 171.685 864.496 171.962 864.633 172.143C864.77 172.323 864.397 172.973 863.805 173.586C862.81 174.617 862.791 174.759 863.555 175.447C864.01 175.856 864.382 176.294 864.382 176.42C864.382 176.937 855.688 176.193 852.83 175.432C848.72 174.336 840.398 173.537 839.629 174.164C839.222 174.495 839.219 174.78 839.616 175.17C840.153 175.697 840.977 175.923 847.824 177.418C849.959 177.884 851.033 178.329 851.033 178.749C851.033 179.279 850.427 179.334 847.223 179.097C844.783 178.917 843.296 178.972 843.085 179.249C842.905 179.487 843.04 179.682 843.386 179.682C843.733 179.682 843.896 179.779 843.75 179.898C843.406 180.179 836.134 178.935 835.411 178.472C834.843 178.108 827.345 177.167 825.746 177.259C825.252 177.288 824.848 177.546 824.848 177.834C824.848 178.122 824.728 178.612 824.582 178.922C824.33 179.458 830.6 180.541 841.405 181.828C843.028 182.022 845.194 182.465 846.217 182.814C847.24 183.162 848.8 183.448 849.684 183.449C852.009 183.453 855.349 184.281 854.809 184.721C854.559 184.925 851.432 185.145 847.861 185.211C844.289 185.276 841.405 185.362 841.452 185.401C841.499 185.44 842.679 185.837 844.074 186.284C846.505 187.062 846.563 187.117 845.452 187.602C844.583 187.981 843.653 187.996 841.733 187.66C838.608 187.114 838.197 187.107 838.197 187.598C838.197 187.81 838.887 188.106 839.731 188.257C842.538 188.76 841.93 189.304 838.563 189.304C836.603 189.304 834.621 189.57 833.659 189.961C832.684 190.357 831.592 190.501 830.907 190.324C829.442 189.945 805.336 189.801 805.617 190.172C806.215 190.96 799.479 190.956 793.732 190.165C782.093 188.564 772.19 187.654 765.802 187.598C762.273 187.567 756.958 187.284 753.993 186.967C751.028 186.651 745.746 186.198 742.255 185.961C738.764 185.724 735.76 185.457 735.58 185.369C735.4 185.28 733.52 185.088 731.402 184.941C729.284 184.794 726.743 184.594 725.754 184.497C723.697 184.294 714.329 183.868 707.527 183.669C702.607 183.524 695.131 183.139 690.071 182.77C688.376 182.646 681.791 182.465 675.438 182.367C669.084 182.269 661.575 182.034 658.751 181.845C655.927 181.657 648.117 181.521 641.395 181.544C631.23 181.579 629.092 181.69 628.688 182.202C628.275 182.726 628.132 182.731 627.74 182.235C627.433 181.846 626.772 181.734 625.761 181.899C624.925 182.035 623.992 181.941 623.682 181.688C623.373 181.436 622.357 181.191 621.425 181.142C620.493 181.093 619.268 180.942 618.703 180.806C615.626 180.064 612.42 179.848 611.129 180.296C610.092 180.656 607.504 180.231 607.862 179.759C607.993 179.586 605.519 179.393 602.363 179.331C593.865 179.164 592.984 179.088 592.022 178.438C591.24 177.909 591.162 177.934 591.317 178.658C591.435 179.21 591.243 179.424 590.721 179.323C590.297 179.242 589.431 179.171 588.795 179.166C588.16 179.162 587.64 179.014 587.64 178.837C587.64 178.66 587.268 178.399 586.813 178.257C586.212 178.069 586.07 178.177 586.293 178.652C586.506 179.103 586.404 179.204 585.966 178.977C585.616 178.796 583.135 178.589 580.452 178.516C574.81 178.364 575.649 178.366 549.132 178.443C537.978 178.475 527.423 178.365 525.677 178.199C523.931 178.032 522.114 178.018 521.639 178.166C520.765 178.44 503.993 178.979 498.84 178.9C494.81 178.838 490.239 180.768 492.781 181.459C493.16 181.562 492.898 181.858 492.14 182.184C491.434 182.487 490.729 182.894 490.572 183.088C490.006 183.79 485.646 184.182 484.408 183.642C483.628 183.302 481.56 183.18 478.31 183.282C475.605 183.366 466.72 183.535 458.565 183.657C450.411 183.778 443.178 183.992 442.493 184.132C441.807 184.273 438.892 184.416 436.016 184.451C433.139 184.487 430.323 184.727 429.758 184.986C428.748 185.448 423.986 186.208 423.189 186.034C422.207 185.819 420.383 185.873 418.72 186.166C417.731 186.34 416.46 186.451 415.896 186.413C415.331 186.374 414.407 186.309 413.842 186.269C413.277 186.228 410.62 186.416 407.937 186.686C405.255 186.957 402.061 187.174 400.84 187.169C399.619 187.165 398.348 187.339 398.016 187.556C397.684 187.774 396.661 188.083 395.743 188.243C394.377 188.481 394.075 188.405 394.075 187.826C394.075 187.198 393.65 187.151 390.352 187.414C388.305 187.577 382.933 187.753 378.415 187.806C373.897 187.859 368.955 188.124 367.434 188.394C365.913 188.664 364.556 188.886 364.419 188.886C364.282 188.886 364.457 189.168 364.809 189.513C365.16 189.858 366.228 190.141 367.182 190.141C368.136 190.141 368.916 190.219 368.916 190.316C368.916 190.412 369.056 190.788 369.228 191.152C369.655 192.06 368.21 192.015 367.069 191.086C366.422 190.559 366.116 190.502 365.961 190.879C365.844 191.166 365.537 191.295 365.278 191.165C365.02 191.035 364.809 191.08 364.809 191.267C364.809 191.453 364.289 191.628 363.654 191.656C363.018 191.685 359.495 191.921 355.824 192.181C352.153 192.442 344.759 192.73 339.394 192.822C334.028 192.914 329.061 193.093 328.355 193.219C325.963 193.647 312.811 194.638 305.764 194.922C292.705 195.448 282.804 196.97 280.763 198.765C280.124 199.327 278.999 199.78 278.191 199.802C271.547 199.978 262.32 200.541 258.271 201.019C256.576 201.219 253.604 201.498 251.666 201.639C249.727 201.78 246.981 202.075 245.563 202.294C244.145 202.513 242.9 202.692 242.798 202.692C242.695 202.692 242.611 202.211 242.611 201.622ZM242.611 197.816C242.611 197.358 242.384 197.324 241.603 197.664C241.001 197.927 240.715 198.358 240.893 198.735C241.122 199.222 241.354 199.257 241.901 198.887C242.292 198.623 242.611 198.141 242.611 197.816ZM329.125 191.593C331.134 191.006 331.083 190.997 326.815 191.201C317.04 191.668 313.979 191.905 313.979 192.193C313.979 192.739 326.965 192.224 329.125 191.593ZM90.634 186.54C90.634 186.45 90.2874 186.376 89.8638 186.376C89.4403 186.376 89.0937 186.558 89.0937 186.781C89.0937 187.004 89.4403 187.078 89.8638 186.946C90.2874 186.813 90.634 186.631 90.634 186.54ZM127.858 185.121C128.037 184.884 127.617 184.702 126.892 184.702C126.186 184.702 125.465 184.891 125.291 185.121C125.112 185.357 125.532 185.539 126.257 185.539C126.963 185.539 127.684 185.351 127.858 185.121ZM103.47 182.98C103.47 182.548 102.855 182.508 101.715 182.864C100.427 183.267 100.772 183.77 102.186 183.55C102.892 183.44 103.47 183.183 103.47 182.98ZM393.991 182.912C395.742 182.514 395.983 182.362 395.12 182.195C393.75 181.93 377.414 182.489 368.66 183.101C366.281 183.267 384.653 183.672 388.427 183.537C390.263 183.471 392.766 183.19 393.991 182.912ZM411.788 181.624C412.353 181.515 411.313 181.442 409.478 181.46C405.097 181.505 403.363 181.89 406.141 182.2C407.27 182.326 408.772 182.293 409.478 182.126C410.184 181.959 411.224 181.733 411.788 181.624ZM84.1297 181.747C85.1869 181.722 85.18 181.7 83.9928 181.314C82.593 180.858 81.3922 181.085 81.3922 181.805C81.3922 182.068 81.7568 182.168 82.2043 182.028C82.651 181.888 83.5174 181.762 84.1297 181.747ZM419.501 181.276C419.639 181.164 418.725 181.041 417.47 181.003C416.216 180.964 415.03 181.143 414.835 181.4C414.586 181.729 415.189 181.81 416.866 181.674C418.178 181.567 419.364 181.388 419.501 181.276ZM820.997 176.335C821.194 176.076 820.374 175.935 818.845 175.966C816.653 176.01 816.549 176.051 817.916 176.335C820.163 176.801 820.644 176.801 820.997 176.335ZM29.6314 170.192C29.2607 170.071 28.8179 170.086 28.6473 170.225C28.4767 170.364 28.7799 170.463 29.3212 170.444C29.9193 170.424 30.041 170.325 29.6314 170.192ZM35.6963 169.641C36.7282 169.371 36.7786 169.303 35.9531 169.293C35.3883 169.287 34.4641 169.443 33.8993 169.641C32.591 170.099 33.9408 170.099 35.6963 169.641ZM42.5857 169.805C43.0324 169.665 43.3979 169.213 43.3979 168.799C43.3979 168.158 43.0749 168.08 41.2158 168.269C38.8565 168.509 37.317 169.222 39.1574 169.222C39.762 169.222 40.3995 169.411 40.574 169.641C40.9392 170.122 41.4405 170.163 42.5857 169.805ZM876.705 162.528C876.705 162.298 876.3 162.113 875.806 162.116C875.038 162.121 875.02 162.181 875.678 162.528C876.647 163.038 876.705 163.038 876.705 162.528ZM55.3032 145.507C54.9325 145.386 54.4897 145.401 54.3191 145.54C54.1485 145.679 54.4517 145.778 54.993 145.76C55.5911 145.739 55.7128 145.64 55.3032 145.507ZM51.0994 144.286C51.0994 143.604 49.6714 143.528 47.7955 144.109C45.7533 144.741 46.238 145.187 48.789 145.021C50.339 144.921 51.0994 144.679 51.0994 144.286ZM60.6363 144.588C60.1236 143.912 58.2875 143.74 58.2875 144.368C58.2875 144.72 58.8147 144.956 59.6014 144.956C60.3241 144.956 60.7898 144.79 60.6363 144.588ZM56.7472 144.119C57.3201 143.817 57.0242 143.712 55.592 143.707C54.533 143.703 53.6666 143.889 53.6666 144.119C53.6666 144.652 55.7353 144.652 56.7472 144.119ZM912.645 95.1681C912.645 94.938 912.414 94.7497 912.132 94.7497C911.85 94.7497 911.618 94.938 911.618 95.1681C911.618 95.3982 911.85 95.5865 912.132 95.5865C912.414 95.5865 912.645 95.3982 912.645 95.1681ZM916.368 87.3601C916.015 87.244 915.437 87.244 915.084 87.3601C914.731 87.4761 915.02 87.5711 915.726 87.5711C916.432 87.5711 916.721 87.4761 916.368 87.3601ZM908.666 82.3212C908.031 82.2215 906.991 82.2215 906.356 82.3212C905.72 82.421 906.24 82.5026 907.511 82.5026C908.782 82.5026 909.302 82.421 908.666 82.3212ZM884.92 78.9437C884.92 78.7646 883.014 78.3948 880.684 78.1219C878.354 77.849 875.892 77.4952 875.213 77.3357C874.445 77.1556 874.096 77.2026 874.291 77.4597C874.464 77.6873 876.637 78.1131 879.121 78.4059C881.604 78.6986 883.867 78.9978 884.15 79.0708C884.432 79.1437 884.721 79.2182 884.791 79.2364C884.862 79.2545 884.92 79.1229 884.92 78.9437ZM136.073 75.0856C136.99 74.7645 136.952 74.7229 135.718 74.6966C134.958 74.6804 134.194 74.8555 134.019 75.0856C133.641 75.5851 134.647 75.5851 136.073 75.0856ZM881.326 72.6344C881.326 72.4367 879.007 72.0602 876.173 71.7976C869.79 71.2061 868.643 71.1942 869.296 71.726C869.57 71.9492 872.331 72.2994 875.432 72.5043C878.532 72.7091 881.127 72.903 881.197 72.9352C881.268 72.9674 881.326 72.832 881.326 72.6344ZM107.268 67.6244C107.413 67.4326 107.196 67.2757 106.785 67.2757C106.373 67.2757 106.037 67.4326 106.037 67.6244C106.037 67.8161 106.255 67.973 106.52 67.973C106.786 67.973 107.122 67.8161 107.268 67.6244ZM175.961 66.8505C175.59 66.7296 175.147 66.7445 174.977 66.8834C174.806 67.0225 175.109 67.1214 175.65 67.1032C176.249 67.083 176.37 66.984 175.961 66.8505ZM96.2818 66.2995C96.2818 66.0694 95.8775 65.884 95.3833 65.8875C94.6154 65.8928 94.5967 65.9528 95.2549 66.2995C96.2239 66.8098 96.2818 66.8098 96.2818 66.2995ZM98.3355 65.6472C98.3355 65.5458 98.1045 65.4627 97.8221 65.4627C97.5397 65.4627 97.3087 65.6621 97.3087 65.9058C97.3087 66.1495 97.5397 66.2325 97.8221 66.0903C98.1045 65.9481 98.3355 65.7487 98.3355 65.6472ZM127.601 62.7342C128.307 62.5733 130.502 62.2846 132.479 62.0926C134.456 61.9005 136.882 61.5444 137.87 61.3012C138.858 61.0579 139.667 60.8747 139.667 60.8939C139.667 61.0543 143.184 60.159 144.93 59.5542C147.579 58.6366 147.746 57.9318 145.315 57.9318C144.06 57.9318 143.518 57.7425 143.518 57.3042C143.518 56.6608 145.816 56.4064 149.63 56.6277C151.292 56.724 156.033 56.0029 157.119 55.4888C157.93 55.1047 155.339 54.6717 151.959 54.6264C149.76 54.5968 147.886 54.8915 145.572 55.6307C143.77 56.206 141.82 56.6795 141.238 56.683C140.396 56.6883 140.332 56.7677 140.926 57.0738C141.336 57.2852 141.856 57.3654 142.081 57.2519C142.307 57.1384 142.491 57.2238 142.491 57.4412C142.491 57.8158 141.367 58.0803 137.446 58.6288C136.506 58.7601 135.613 59.1325 135.46 59.4563C135.234 59.9377 135.036 59.9478 134.377 59.5115C133.701 59.0645 133.62 59.0849 133.873 59.637C134.094 60.1193 133.878 60.2775 133.07 60.2264C132.463 60.188 131.199 60.3273 130.262 60.5361C129.08 60.7993 128.333 60.7632 127.823 60.4184C127.41 60.1388 127.088 60.1019 127.088 60.3341C127.088 60.7956 123.176 62.1157 121.808 62.1157C121.323 62.1157 120.927 62.3731 120.927 62.6877C120.927 63.1135 121.615 63.2299 123.622 63.1431C125.105 63.079 126.895 62.895 127.601 62.7342ZM148.722 47.5609C148.352 47.4603 147.805 47.5769 147.507 47.8201C147.126 48.1305 147.326 48.185 148.18 48.003C148.874 47.8551 149.107 47.6654 148.722 47.5609ZM768.882 45.9032C768.882 45.7306 768.18 45.5494 767.323 45.5005C766.432 45.4496 765.896 45.5838 766.071 45.8143C766.429 46.2862 768.884 46.3639 768.882 45.9032ZM150.193 43.2675L151.476 43.2353L150.279 42.8441C148.926 42.4022 146.599 42.7426 146.599 43.3825C146.599 43.6157 147.115 43.6915 147.754 43.552C148.389 43.4132 149.487 43.2853 150.193 43.2675ZM764.776 43.3581C764.776 43.1663 764.429 43.0094 764.006 43.0094C763.582 43.0094 763.235 43.1663 763.235 43.3581C763.235 43.5498 763.582 43.7067 764.006 43.7067C764.429 43.7067 764.776 43.5498 764.776 43.3581ZM766.926 43.4209C766.555 43.3 766.112 43.3149 765.942 43.4539C765.771 43.5929 766.074 43.6918 766.616 43.6736C767.214 43.6536 767.335 43.5544 766.926 43.4209ZM159.017 42.5841C158.647 42.4632 158.204 42.4781 158.033 42.6171C157.863 42.7561 158.166 42.855 158.707 42.8368C159.305 42.8168 159.427 42.7177 159.017 42.5841ZM101.416 42.0331C101.416 41.803 101.185 41.6148 100.903 41.6148C100.62 41.6148 100.389 41.803 100.389 42.0331C100.389 42.2632 100.62 42.4515 100.903 42.4515C101.185 42.4515 101.416 42.2632 101.416 42.0331ZM114.766 40.936C114.766 40.4672 113.801 40.8782 113.525 41.4648C113.255 42.0389 113.33 42.0648 113.984 41.6227C114.414 41.3319 114.766 41.0228 114.766 40.936ZM119.9 40.9872C119.9 40.642 119.809 40.3596 119.698 40.3596C119.587 40.3596 119.363 40.642 119.201 40.9872C119.038 41.3324 119.129 41.6148 119.403 41.6148C119.676 41.6148 119.9 41.3324 119.9 40.9872ZM792.084 26.6855C791.713 26.5646 791.271 26.5795 791.1 26.7185C790.929 26.8575 791.233 26.9564 791.774 26.9382C792.372 26.9182 792.494 26.8191 792.084 26.6855ZM319.348 18.214C319.51 17.9998 319.433 17.7185 319.175 17.5889C318.918 17.4592 318.575 17.6345 318.413 17.9784C318.094 18.6562 318.865 18.8507 319.348 18.214ZM75.6424 197.777C75.3469 197.489 75.3068 197.248 75.5531 197.241C75.7995 197.234 75.5691 197.024 75.041 196.774C73.6864 196.133 74.8864 195.583 77.5414 195.629C78.928 195.652 79.2616 195.752 78.5683 195.936C77.59 196.195 76.8607 197.26 77.6697 197.248C79.1773 197.226 80.266 196.679 80.0311 196.062C79.8018 195.46 79.863 195.465 80.5083 196.103C81.3853 196.971 85.2924 197.13 85.6301 196.313C85.8016 195.897 86.0104 195.9 86.6443 196.326C87.6437 196.998 88.2336 198.631 87.3846 198.376C87.0539 198.277 86.8581 197.942 86.9496 197.632C87.0659 197.238 86.8303 197.279 86.1658 197.769C85.407 198.329 84.3056 198.453 80.6976 198.385C77.8285 198.331 75.9836 198.109 75.6424 197.777ZM68.5943 196.855C67.9104 196.51 68.2393 195.58 69.0451 195.58C69.6307 195.58 70.1449 196.762 69.6645 197.004C69.4516 197.111 68.97 197.044 68.5943 196.855ZM79.4576 193.489C78.8897 192.748 78.949 192.644 79.9759 192.588C80.6136 192.553 81.482 192.494 81.9056 192.456C83.2752 192.334 83.5329 192.717 82.6296 193.53C81.4885 194.558 80.2646 194.542 79.4576 193.489ZM390.481 190.375C390.481 190.274 390.712 190.074 390.994 189.932C391.277 189.79 391.508 189.873 391.508 190.117C391.508 190.36 391.277 190.56 390.994 190.56C390.712 190.56 390.481 190.477 390.481 190.375ZM396.505 190.09C396.853 189.804 397.268 189.675 397.426 189.804C397.584 189.933 397.299 190.167 396.792 190.324C396.061 190.551 396.002 190.503 396.505 190.09ZM120.927 188.938C120.927 188.736 121.283 188.329 121.719 188.035C122.334 187.618 122.648 187.611 123.126 188.001C123.605 188.391 123.572 188.591 122.976 188.897C122.008 189.396 120.927 189.417 120.927 188.938ZM700.596 185.121C700.596 184.891 700.929 184.702 701.336 184.702C701.743 184.702 702.219 184.891 702.393 185.121C702.568 185.351 702.235 185.539 701.653 185.539C701.072 185.539 700.596 185.351 700.596 185.121ZM691.868 184.676C691.868 184.2 693.247 184.152 693.599 184.616C693.737 184.798 693.404 184.974 692.859 185.008C692.314 185.041 691.868 184.892 691.868 184.676ZM182.69 184.001C182.228 183.02 182.932 182.876 184.707 183.589C185.632 183.961 186.159 184.293 185.876 184.328C183.713 184.593 182.931 184.513 182.69 184.001ZM626.661 183.029C626.661 182.799 626.763 182.611 626.888 182.611C627.012 182.611 627.257 182.799 627.432 183.029C627.606 183.259 627.504 183.447 627.205 183.447C626.906 183.447 626.661 183.259 626.661 183.029ZM619.259 182.667C619.038 182.375 618.996 182.023 619.165 181.885C619.625 181.511 620.126 182.062 619.878 182.668C619.704 183.093 619.583 183.094 619.259 182.667ZM621.142 182.752C620.091 182.406 620.415 181.834 621.527 182.071C622.092 182.191 622.554 182.456 622.554 182.659C622.554 183.058 622.154 183.084 621.142 182.752ZM867.292 180.658C866.701 180.177 866.918 179.682 867.72 179.682C868.143 179.682 868.49 179.964 868.49 180.309C868.49 180.963 867.883 181.139 867.292 180.658ZM230.098 178.095C229.96 177.913 230.297 177.736 230.849 177.702C231.4 177.668 231.717 177.817 231.553 178.034C231.189 178.513 230.439 178.545 230.098 178.095ZM234.726 177.376C234.887 177.034 235.399 176.739 235.863 176.721C236.327 176.703 237.746 176.604 239.017 176.5C240.683 176.364 241.113 176.43 240.557 176.735C239.922 177.085 239.914 177.16 240.515 177.165C240.915 177.169 241.098 177.289 240.922 177.432C240.746 177.576 239.214 177.762 237.517 177.846C234.947 177.974 234.481 177.896 234.726 177.376ZM25.1928 176.364C24.8131 175.863 25.779 175.367 26.4629 175.711C27.0371 176.001 26.6601 176.753 25.941 176.753C25.692 176.753 25.3553 176.578 25.1928 176.364ZM30.0485 165.481C30.0485 165.265 30.2769 164.973 30.5561 164.832C30.8472 164.686 30.9332 164.853 30.7579 165.226C30.4166 165.951 30.0485 166.083 30.0485 165.481ZM33.8137 165.266C33.8137 164.931 34.01 164.756 34.25 164.876C34.4899 164.997 34.5533 165.271 34.3908 165.486C33.9756 166.033 33.8137 165.971 33.8137 165.266ZM928.562 110.648C928.138 110.425 928.023 110.243 928.305 110.243C928.588 110.243 929.165 110.425 929.589 110.648C930.012 110.871 930.128 111.054 929.845 111.054C929.563 111.054 928.986 110.871 928.562 110.648ZM84.9862 79.5987C84.9862 79.4176 85.4483 79.2694 86.0131 79.2694C86.5779 79.2694 87.0399 79.446 87.0399 79.6618C87.0399 79.8776 86.5779 80.0258 86.0131 79.9911C85.4483 79.9564 84.9862 79.7799 84.9862 79.5987ZM106.487 73.4543L105.283 72.6599L108.356 72.3275C110.046 72.1447 112.641 71.9845 114.123 71.9714C115.605 71.9583 116.818 71.8196 116.819 71.6631C116.819 71.3373 119.877 71.9861 120.355 72.4132C120.528 72.5684 119.957 72.5852 119.086 72.4504C118.111 72.2996 116.927 72.4534 116.006 72.8501C115.182 73.2046 113.296 73.5129 111.813 73.5352C110.331 73.5575 109.118 73.7272 109.118 73.9122C109.118 74.512 107.722 74.269 106.487 73.4543ZM100.015 73.5776C100.186 73.4386 100.628 73.4237 100.999 73.5446C101.409 73.6782 101.287 73.7773 100.689 73.7974C100.148 73.8155 99.8443 73.7166 100.015 73.5776ZM90.6745 67.7986C90.6523 67.3576 90.7736 67.1105 90.9442 67.2495C91.1148 67.3885 91.133 67.7494 90.9847 68.0514C90.8208 68.3852 90.6992 68.286 90.6745 67.7986ZM104.697 64.2821C104.84 64.0931 104.485 63.6085 103.907 63.2053C102.873 62.484 102.907 62.4526 106.033 61.2479C109.798 59.797 110.145 59.7644 110.145 60.8604C110.145 61.376 109.8 61.6997 109.246 61.7036C108.518 61.7089 108.485 61.781 109.074 62.0847C109.473 62.2907 110.224 62.3928 110.743 62.3115C111.261 62.2302 111.685 62.3555 111.685 62.59C111.685 62.8246 110.934 62.9829 110.016 62.942C109.098 62.9011 107.885 62.8896 107.321 62.9165C106.465 62.9571 106.422 63.0329 107.064 63.3708C107.722 63.7174 107.703 63.7773 106.936 63.7828C106.441 63.7866 106.037 63.9775 106.037 64.2076C106.037 64.4377 105.677 64.626 105.237 64.626C104.796 64.626 104.554 64.4712 104.697 64.2821ZM111.262 60.906C110.746 60.6461 110.766 60.4716 111.358 60.071C112.189 59.5091 112.851 59.9999 112.279 60.7537C112.075 61.0225 111.627 61.0897 111.262 60.906ZM93.4579 43.2882C93.2834 43.0581 93.4872 42.8698 93.9107 42.8698C94.3343 42.8698 94.8237 43.0581 94.9982 43.2882C95.1727 43.5184 94.969 43.7066 94.5454 43.7066C94.1218 43.7066 93.6324 43.5184 93.4579 43.2882ZM103.974 41.4151C104.713 40.6891 105.01 40.6135 105.01 41.1515C105.01 41.3571 104.631 41.6438 104.167 41.7887C103.463 42.009 103.431 41.9479 103.974 41.4151ZM829.613 34.6633C830.215 34.1728 833.503 33.7885 834.166 34.131C834.548 34.3281 834.629 34.5109 834.346 34.5373C831.583 34.7955 829.379 34.8541 829.613 34.6633ZM826.496 34.1471C826.069 33.9265 826.389 33.8049 827.395 33.8049C828.253 33.8049 828.955 33.9618 828.955 34.1535C828.955 34.5988 827.362 34.5951 826.496 34.1471ZM813.296 33.613C811.097 33.212 805.762 32.9245 795.792 32.6696C792.378 32.5824 789.09 32.2955 788.487 32.0323C787.83 31.7458 785.529 31.6 782.757 31.6692C780.209 31.7329 778.125 31.7421 778.125 31.6896C778.125 31.544 781.112 30.318 781.467 30.318C781.639 30.318 781.637 30.5063 781.463 30.7364C781.277 30.9805 781.8 31.1548 782.716 31.1548C783.58 31.1548 784.286 30.9665 784.286 30.7364C784.286 30.5063 784.531 30.318 784.83 30.318C785.129 30.318 785.2 30.5534 784.988 30.841C784.703 31.2277 784.796 31.2536 785.343 30.9403C785.75 30.7072 786.546 30.5382 787.11 30.5646C787.675 30.5909 789.364 30.6404 790.863 30.6745C792.362 30.7085 793.482 30.8776 793.351 31.0502C793.219 31.2227 794.534 31.3364 796.272 31.3027C798.011 31.2687 799.837 31.4169 800.331 31.6312C800.931 31.8914 801.23 31.8688 801.23 31.5633C801.23 31.3115 801.509 31.2461 801.851 31.418C802.192 31.5899 804.445 31.7819 806.857 31.8447C809.268 31.9075 811.242 31.9812 811.242 32.0084C811.242 32.0358 812.397 32.119 813.809 32.1936C815.221 32.2682 816.434 32.3709 816.505 32.4219C816.625 32.5089 817.154 32.6356 818.045 32.7909C818.453 32.8622 816.043 34.0773 815.606 34.0206C815.465 34.0021 814.425 33.819 813.296 33.613ZM792.501 31.5211C792.501 31.3198 792.053 31.1551 791.505 31.1551C790.957 31.1551 790.383 31.3198 790.23 31.5211C790.078 31.7225 790.526 31.8872 791.227 31.8872C791.928 31.8872 792.501 31.7225 792.501 31.5211ZM819.965 30.3115C819.788 30.0776 819.427 29.9946 819.164 30.127C818.902 30.2594 818.687 30.1794 818.687 29.9493C818.687 29.1393 819.515 29.1264 820.128 29.9271C820.47 30.3724 820.645 30.7368 820.518 30.7368C820.391 30.7368 820.142 30.5453 819.965 30.3115ZM808.974 28.6797C808.433 28.2386 807.883 27.965 807.752 28.0717C807.621 28.1785 806.389 28.3289 805.014 28.406C802.632 28.5397 799.678 27.6777 800.427 27.0675C801.026 26.579 804.572 26.6933 805.347 27.2261C806.14 27.7716 807.585 27.7896 808.232 27.262C808.777 26.818 811.396 26.9154 811.758 27.3931C812.251 28.0434 811.518 29.4813 810.694 29.4813C810.289 29.4813 809.515 29.1207 808.974 28.6797ZM814.273 28.9985C814.055 28.7102 814.132 28.6286 814.464 28.7961C814.771 28.9505 815.167 28.8854 815.344 28.6516C815.822 28.0208 816.462 28.1366 816.462 28.8539C816.462 29.5909 814.806 29.7003 814.273 28.9985ZM213.998 25.8817C214.168 25.7427 214.611 25.7278 214.982 25.8487C215.391 25.9823 215.27 26.0814 214.672 26.1015C214.13 26.1196 213.827 26.0208 213.998 25.8817ZM317.573 14.0013C317.573 13.7712 317.675 13.5829 317.799 13.5829C317.924 13.5829 318.168 13.7712 318.343 14.0013C318.517 14.2314 318.416 14.4197 318.117 14.4197C317.817 14.4197 317.573 14.2314 317.573 14.0013ZM329.545 14.0436C328.716 13.5474 328.915 12.8343 329.827 13.0288C330.409 13.1529 330.783 12.9822 330.837 12.5675C330.884 12.2055 330.961 11.627 331.008 11.2818C331.055 10.9366 331.517 10.6307 332.035 10.6019C332.552 10.573 333.149 10.5108 333.361 10.4632C333.573 10.4157 334.439 10.225 335.286 10.0394C337.17 9.62685 338.193 9.01053 337.818 8.5149C337.663 8.31087 337.993 8.14394 338.551 8.14394C339.109 8.14394 339.682 8.37925 339.825 8.66691C340.006 9.03028 340.215 9.05284 340.51 8.74101C341.264 7.94326 342.836 7.69427 343.665 8.24137C344.331 8.68049 344.393 8.66953 344.029 8.1774C343.695 7.72614 343.805 7.65069 344.486 7.86361C344.979 8.01781 345.694 8.14391 346.076 8.14391C346.457 8.14391 346.909 8.50112 347.079 8.93773C347.277 9.448 347.718 9.66121 348.311 9.53474C349.622 9.25547 349.486 8.22098 348.165 8.4191C347.121 8.57563 347.12 8.56991 348.122 8.18189C348.687 7.96324 349.931 7.77111 350.887 7.75494C351.843 7.73864 354.038 7.54087 355.765 7.31515C360.24 6.73023 371.492 5.70521 376.618 5.41539C379.018 5.27974 382.022 5.0941 383.293 5.00285C385.97 4.81065 391.255 4.5047 398.182 4.14096C400.865 4.00008 404.562 3.78113 406.397 3.65443C410.809 3.34989 417.753 3.32718 418.72 3.61427C419.143 3.74008 420.472 3.98755 421.672 4.16428C422.872 4.34097 423.854 4.62409 423.854 4.79341C423.854 4.9627 423.283 5.56671 422.585 6.13557C421.551 6.97766 420.835 7.16227 418.732 7.12875C417.196 7.10396 416.218 7.25933 416.321 7.51125C416.417 7.74422 418.274 7.95036 420.448 7.96928C423.862 7.99891 426.136 8.54025 425.36 9.13834C425.013 9.40595 418.206 9.67037 418.207 9.41623C418.208 9.29179 416.649 9.24888 414.742 9.32086C412.835 9.39285 409.949 9.28078 408.329 9.07131C406.709 8.86206 405.274 8.78017 405.14 8.88937C405.006 8.99849 403.906 9.12753 402.695 9.17608C401.484 9.22466 399.854 9.40981 399.074 9.58765C398.23 9.77996 397.391 9.7323 397.003 9.47003C396.645 9.2275 394.117 8.98555 391.387 8.93234C388.007 8.86656 386.528 8.69191 386.753 8.38522C386.935 8.13756 386.692 8.19411 386.212 8.51096C385.613 8.90724 384.689 9.00212 383.252 8.81488C381.88 8.63615 381.275 8.68974 381.488 8.97096C381.852 9.45031 381.784 9.45948 377.131 9.56136C375.296 9.60152 373.274 9.78245 372.639 9.9634C372.003 10.1443 371.484 10.1385 371.484 9.95042C371.484 9.76234 370.906 9.60844 370.2 9.60844C369.494 9.60844 368.916 9.74964 368.916 9.92223C368.916 10.0948 368.556 10.236 368.116 10.236C367.676 10.236 367.436 10.077 367.584 9.88257C367.94 9.41274 362.665 10.1027 362.283 10.5761C361.582 11.4425 351.973 12.3206 351.973 11.5182C351.973 11.2733 351.728 11.0728 351.429 11.0728C351.13 11.0728 351.018 11.2481 351.181 11.4623C351.645 12.0747 350.464 12.4517 349.7 11.9349C349.187 11.5883 348.947 11.6095 348.754 12.0181C348.588 12.3709 347.743 12.532 346.384 12.4701C345.222 12.4172 344.271 12.5497 344.271 12.7646C344.271 13.4565 341.634 13.0022 341.121 12.222C340.849 11.8072 340.403 11.5802 340.13 11.7176C339.857 11.855 339.752 12.1229 339.896 12.313C340.04 12.5031 339.82 12.7643 339.407 12.8934C338.994 13.0226 338.518 12.9452 338.348 12.7215C338.16 12.4735 337.502 12.5587 336.663 12.9397C335.084 13.6569 330.171 14.4186 329.545 14.0436ZM322.194 12.1433C322.194 11.4084 322.502 11.3002 322.942 11.8805C323.104 12.0947 323.002 12.3882 322.716 12.5327C322.429 12.6773 322.194 12.5024 322.194 12.1433ZM324.129 11.4205C324.427 11.1774 324.974 11.0608 325.345 11.1614C325.729 11.2659 325.496 11.4555 324.802 11.6035C323.948 11.7854 323.748 11.731 324.129 11.4205ZM500.998 10.359C500.363 10.2592 499.843 10.0339 499.843 9.85831C499.843 9.34629 502.074 9.62462 502.295 10.1642C502.405 10.4337 502.418 10.6286 502.324 10.5972C502.23 10.5658 501.633 10.4587 500.998 10.359ZM490.344 9.39905C491.756 8.90484 492.566 8.90484 491.628 9.39905C491.204 9.62215 490.511 9.79434 490.087 9.78164C489.58 9.76649 489.667 9.63617 490.344 9.39905ZM493.454 9.438C493.296 9.22933 493.629 9.15718 494.194 9.27763C495.393 9.5331 495.545 9.8174 494.482 9.8174C494.075 9.8174 493.613 9.64666 493.454 9.438ZM427.357 8.49119C426.548 7.82927 426.915 7.78336 433.261 7.75221C436.983 7.73372 440.542 7.63785 441.172 7.53872C441.801 7.43959 442.436 7.51651 442.582 7.70956C442.729 7.90264 443.556 8.02074 444.42 7.97196C446.756 7.84019 446.767 8.44931 444.432 8.63081C443.328 8.71663 442.534 8.64195 442.668 8.46533C443.089 7.90961 442.299 8.11579 441.494 8.77142C440.621 9.48319 438.452 9.61133 437.973 8.9795C437.761 8.70093 437.316 8.70741 436.648 8.99874C435.511 9.49448 434.441 9.15759 434.964 8.46855C435.192 8.16724 435.066 8.13858 434.587 8.38333C434.191 8.58622 432.595 8.85227 431.042 8.97457C428.82 9.14953 428.035 9.04671 427.357 8.49119ZM468.523 8.98056C468.523 8.75047 468.625 8.56221 468.749 8.56221C468.874 8.56221 469.119 8.75047 469.293 8.98056C469.468 9.21069 469.366 9.39896 469.067 9.39896C468.768 9.39896 468.523 9.21069 468.523 8.98056ZM447.986 8.1438C447.523 7.90012 447.46 7.73565 447.827 7.73181C448.163 7.72802 448.581 7.91367 448.756 8.1438C449.15 8.66325 448.972 8.66325 447.986 8.1438ZM648.526 8.08674C648.791 7.73647 646.835 7.32445 646.439 7.6473C645.887 8.09712 643.605 8.1821 643.605 7.75279C643.605 7.48725 642.144 7.42327 639.626 7.57857C636.538 7.76899 635.244 7.67086 633.849 7.14093C632.861 6.76531 632.442 6.54428 632.918 6.64978C633.394 6.75528 633.856 6.6779 633.945 6.47809C634.034 6.27819 634.453 6.05345 634.876 5.97863C635.3 5.90391 635.816 5.6544 636.024 5.42427C636.231 5.19415 636.404 5.41821 636.409 5.92245C636.416 6.78889 636.494 6.80614 637.829 6.23796C639.095 5.69877 639.314 5.71209 639.951 6.36735C640.628 7.06209 640.647 7.06202 640.353 6.36735C640.114 5.80231 640.326 5.63519 641.285 5.63519C641.968 5.63519 642.762 5.96468 643.05 6.36735C643.341 6.77369 643.581 6.86678 643.589 6.57656C643.606 6.02869 645.145 5.82166 645.145 6.36735C645.145 6.53993 646.892 6.67026 649.027 6.65697C651.161 6.64364 653.023 6.78485 653.164 6.97076C653.305 7.15663 653.915 7.3087 654.52 7.3087C655.399 7.3087 655.491 7.41331 654.977 7.83167C654.335 8.35531 648.136 8.60203 648.526 8.08845V8.08674ZM656.954 8.07416C656.954 7.88238 657.127 7.7128 657.339 7.69726C657.551 7.68172 658.464 7.59021 659.367 7.49392C661.398 7.27734 662.122 7.99509 660.168 8.28834C658.236 8.57827 656.954 8.49289 656.954 8.07416ZM619.987 6.6795C619.987 6.44941 619.121 6.26115 618.062 6.26115C617.003 6.26115 615.966 6.44941 615.759 6.6795C615.507 6.95844 615.379 6.95844 615.373 6.6795C615.361 6.15535 612.285 6.03135 612.285 6.5551C612.285 6.76576 612.075 6.83237 611.819 6.70311C611.33 6.45686 606.813 6.06146 602.016 5.84496C600.463 5.77486 599.193 5.67523 599.193 5.62354C599.193 5.34312 592.437 5.33879 592.005 5.61898C591.233 6.11909 586.1 6.46799 586.1 6.02028C586.1 5.80759 585.753 5.6336 585.33 5.6336C584.906 5.6336 584.56 5.81526 584.56 6.03735C584.56 6.28942 580.943 6.36668 574.933 6.24309C569.638 6.13423 564.748 6.04711 564.067 6.04952C563.386 6.0533 562.058 5.88031 561.115 5.66824C560.084 5.43638 559.401 5.43493 559.401 5.66445C559.401 6.04466 557.606 5.98308 557.118 5.58614C556.978 5.47165 554.641 5.44489 551.926 5.52672C548.654 5.62534 546.745 5.51007 546.264 5.18484C545.699 4.80266 545.537 4.82115 545.531 5.26837C545.525 5.63116 545.384 5.68168 545.146 5.40552C544.919 5.1432 541.998 4.94767 537.837 4.9164C534.025 4.8879 522.472 4.75653 512.165 4.62495C501.858 4.49341 488.631 4.36065 482.771 4.33001C476.911 4.2997 472.117 4.1565 472.116 4.01252C472.115 3.86846 470.844 3.75064 469.292 3.75064C467.739 3.75064 466.469 3.89185 466.469 4.06443C466.469 4.23702 466.225 4.37823 465.926 4.37823C465.626 4.37823 465.525 4.18995 465.699 3.95982C465.874 3.72973 465.656 3.54146 465.216 3.54146C464.776 3.54165 464.416 3.35338 464.416 3.12329C464.416 2.89317 464.171 2.70488 463.872 2.70488C463.573 2.70488 463.471 2.89317 463.645 3.12329C463.833 3.3704 463.267 3.53905 462.264 3.53524C460.978 3.52994 460.752 3.43023 461.335 3.12329C461.904 2.82374 461.928 2.71603 461.427 2.71129C460.904 2.70599 460.925 2.56061 461.518 2.07731C461.942 1.73214 462.767 1.44973 463.352 1.44973C463.937 1.44973 464.416 1.24876 464.416 1.00313C464.416 0.738221 464.859 0.671367 465.507 0.83881C466.241 1.02871 466.483 0.969497 466.247 0.657816C466.053 0.403011 466.032 0.194567 466.199 0.194567C466.366 0.194567 466.678 0.581775 466.893 1.05505L467.284 1.91557L468.638 1.04768C469.566 0.452815 470.104 0.327778 470.348 0.650265C470.601 0.98381 470.83 0.955546 471.136 0.553062C471.485 0.0917393 475.008 -0.0116894 489.94 0.00100424C500.046 0.00987087 512.473 0.137516 517.556 0.285376C522.639 0.433206 531.072 0.663325 536.297 0.796764C555.161 1.27847 560.02 1.45355 560.443 1.66643C561.388 2.1421 565.525 2.56405 566.151 2.24856C566.537 2.05415 566.987 2.12356 567.218 2.41319C567.515 2.78696 567.745 2.75481 568.122 2.28649C568.4 1.94132 568.631 1.84718 568.636 2.07731C568.641 2.34136 571.817 2.47703 577.244 2.44513C585.821 2.39466 600.476 3.07004 600.477 3.51586C600.477 3.64511 602.268 3.72966 604.456 3.70383C608.206 3.6595 616.844 4.23206 618.376 4.62652C618.941 4.77206 618.952 4.92846 618.432 5.43896C617.908 5.95342 617.921 6.03691 618.502 5.8873C618.895 5.78621 619.861 5.58809 620.65 5.44707C621.532 5.28907 621.969 4.99462 621.786 4.67995C621.622 4.39906 621.758 4.46395 622.087 4.82407C622.571 5.3537 623.231 5.41865 625.537 5.1637C627.158 4.98442 628.776 5.01775 629.288 5.24099C629.783 5.45694 630.839 5.65922 631.634 5.69056C632.965 5.743 632.982 5.76255 631.841 5.93774C630.883 6.08493 630.766 6.21256 631.328 6.50193C632.121 6.91137 631.454 6.96265 624.223 7.04799C621.7 7.07762 619.987 6.92868 619.987 6.6795ZM470.764 2.91646C470.602 2.57259 470.262 2.39546 470.01 2.52279C469.285 2.88787 469.474 3.54161 470.304 3.54161C470.762 3.54161 470.942 3.2962 470.764 2.91646ZM440.818 4.34666C441.347 3.54209 441.315 3.45073 440.589 3.67797C439.864 3.90466 439.831 3.81303 440.353 3.01782L440.96 2.09448L441.47 3.02727C442.057 4.09744 443.117 4.25304 443.55 3.33243C443.713 2.98726 443.661 2.70485 443.434 2.70485C443.208 2.70485 443.022 2.42014 443.022 2.07212C443.022 1.55771 443.486 1.48954 445.504 1.70764C447.199 1.89088 447.986 1.82624 447.986 1.50365C447.986 1.24129 448.798 1.03133 449.813 1.03133C451.011 1.03133 451.52 1.18981 451.291 1.49146C451.043 1.81857 451.254 1.8158 452.02 1.48184C452.915 1.09149 453.046 1.1198 452.797 1.64928C452.632 1.99975 452.29 2.28651 452.038 2.28651C451.786 2.28651 451.58 2.47479 451.58 2.70487C451.58 3.57701 452.508 3.07295 453.12 1.86811C453.834 0.462975 453.853 0.45525 455.14 1.01655C455.789 1.29971 455.99 1.74183 455.812 2.49825C455.673 3.09124 455.761 3.52155 456.008 3.45443C456.255 3.38736 456.573 3.51641 456.714 3.74134C456.866 3.9832 455.645 4.17921 453.727 4.22121C450.761 4.28608 450.434 4.20605 449.922 3.28934C449.369 2.30091 447.472 1.86746 447.472 2.72956C447.472 2.9733 447.701 3.05762 447.98 2.91705C448.266 2.77277 448.359 2.93297 448.194 3.28431C448.023 3.64828 447.563 3.8017 447.089 3.65332C446.561 3.48832 446.403 3.56647 446.639 3.8767C447.052 4.42129 445.345 4.8234 443.365 4.64826C442.659 4.58589 441.659 4.70215 441.144 4.90666C440.304 5.23987 440.27 5.18171 440.818 4.34666ZM454.864 2.7746C455.01 2.58285 454.802 2.42596 454.404 2.42596C454.005 2.42596 453.798 2.58285 453.943 2.7746C454.088 2.96635 454.296 3.12326 454.404 3.12326C454.511 3.12326 454.719 2.96635 454.864 2.7746ZM433.902 4.42595C433.748 4.22199 434.081 3.95705 434.644 3.83712C435.326 3.69188 435.563 3.39656 435.354 2.95281C435.181 2.58633 435.257 2.28648 435.523 2.28648C436.227 2.28648 436.113 3.65317 435.358 4.26884C434.591 4.89331 434.282 4.92668 433.902 4.42595ZM437.051 3.26271C437.195 2.95588 437.379 2.70485 437.46 2.70485C437.541 2.70485 437.725 2.95588 437.87 3.26271C438.014 3.56954 437.83 3.82057 437.46 3.82057C437.09 3.82057 436.906 3.56954 437.051 3.26271ZM439.031 2.09059C439.579 1.75275 440.534 1.47034 441.152 1.46301C442.377 1.44823 443.157 2.08297 442.39 2.46939C442.127 2.60175 441.824 2.49379 441.715 2.22909C441.567 1.86764 441.246 1.86694 440.422 2.22531C438.843 2.91361 437.851 2.81662 439.031 2.08942V2.09059ZM432.208 2.03368C432.379 1.89465 432.822 1.87978 433.192 2.00071C433.602 2.13425 433.48 2.2334 432.882 2.25345C432.341 2.27157 432.038 2.1727 432.208 2.03368ZM459.281 1.86805C458.623 1.52147 458.642 1.46153 459.41 1.45605C459.904 1.45226 460.308 1.63792 460.308 1.86805C460.308 2.37833 460.25 2.37833 459.281 1.86805ZM456.524 1.23082C456.279 0.710875 456.411 0.675061 457.239 1.03633C458.429 1.55537 458.542 1.86805 457.539 1.86805C457.146 1.86805 456.689 1.58127 456.524 1.23082Z" fill="#C0FF72"/>
</svg>
