<svg width="930" height="204" viewBox="0 0 930 204" fill="none" xmlns="http://www.w3.org/2000/svg">
<path d="M242.611 202.147C242.611 201.557 242.387 201.187 242.113 201.325C241.839 201.463 241.274 200.908 240.856 200.092C240.415 199.23 239.736 198.606 239.237 198.606C238.558 198.606 238.503 198.483 238.976 198.018C239.435 197.566 239.42 197.387 238.91 197.247C238.388 197.104 238.411 196.902 239.017 196.299C239.604 195.716 239.635 195.492 239.145 195.357C238.792 195.26 238.504 194.997 238.504 194.771C238.504 194.546 238.732 194.478 239.011 194.618C239.302 194.765 239.388 194.597 239.213 194.224C239.045 193.866 239.171 193.573 239.494 193.573C239.921 193.573 239.931 193.345 239.53 192.734C239.089 192.06 239.14 191.895 239.789 191.895C240.443 191.895 240.474 191.787 239.955 191.333C239.29 190.751 237.999 191.271 238.168 192.052C238.211 192.254 237.976 192.501 237.645 192.6C237.25 192.72 237.146 192.464 237.341 191.853C237.505 191.343 237.429 191.025 237.173 191.148C236.916 191.27 236.244 191.232 235.68 191.062C234.865 190.817 235.105 190.69 236.835 190.448C238.196 190.258 239.017 189.92 239.017 189.551C239.017 189.225 239.466 188.959 240.015 188.959C240.564 188.959 241.329 188.59 241.715 188.139C242.407 187.331 245.023 186.229 245.87 186.388C246.11 186.433 247.612 186.2 249.208 185.871C250.804 185.542 253.554 185.14 255.32 184.977C257.085 184.814 258.658 184.511 258.816 184.303C258.973 184.095 259.608 183.921 260.227 183.915C260.845 183.91 262.738 183.348 264.432 182.666C266.126 181.985 267.903 181.423 268.381 181.417C268.858 181.412 269.392 181.219 269.566 180.989C269.741 180.758 269.623 180.569 269.304 180.569C268.593 180.569 268.849 178.693 269.566 178.652C269.849 178.636 271.093 178.386 272.331 178.097C273.569 177.807 275.146 177.686 275.835 177.827C276.524 177.968 277.822 177.899 278.718 177.673C279.615 177.447 281.638 177.056 283.214 176.804C287.538 176.113 289.847 175.535 289.847 175.145C289.847 174.741 263.508 175.023 256.987 175.497C253.552 175.747 252.241 175.679 250.826 175.176C249.838 174.825 248.914 174.51 248.772 174.477C248.631 174.444 247.84 174.189 247.015 173.91C246.19 173.632 245.15 173.52 244.705 173.661C244.259 173.803 237.425 173.987 229.518 174.07C221.612 174.153 214.103 174.408 212.832 174.638C211.561 174.868 207.753 175.275 204.369 175.543C200.985 175.811 197.775 176.223 197.235 176.459C196.694 176.695 195.124 176.8 193.744 176.692C192.365 176.584 191.112 176.66 190.96 176.861C190.808 177.062 190.468 177.118 190.205 176.986C189.942 176.853 189.727 176.944 189.727 177.189C189.727 177.433 189.554 177.595 189.342 177.549C188.488 177.365 184.079 178.128 184.079 178.461C184.079 178.87 180.201 179.551 178.734 179.398C178.195 179.343 177.32 179.677 176.789 180.143C176.258 180.608 175.429 181.011 174.946 181.038C174.463 181.065 172.681 181.128 170.987 181.178C169.292 181.228 166.982 181.487 165.852 181.753C164.723 182.019 162.926 182.343 161.859 182.473C160.792 182.603 160.045 182.874 160.198 183.077C160.676 183.709 159.535 183.874 150.614 184.467C150.14 184.498 149.794 184.703 149.844 184.921C149.895 185.14 149.474 185.43 148.909 185.566C148.344 185.701 147.299 186.137 146.586 186.533C145.653 187.051 143.709 187.329 139.654 187.523C136.555 187.672 133.485 187.773 132.833 187.749C132.18 187.725 130.936 188.005 130.069 188.371C129.173 188.75 128.355 188.871 128.175 188.653C127.733 188.116 125.925 187.601 126.321 188.124C126.739 188.676 126.239 188.648 124.872 188.042C122.113 186.821 109.051 187.749 107.688 189.264C107.266 189.733 107.22 190.05 107.56 190.142C107.852 190.222 108.091 190.454 108.091 190.658C108.091 190.862 107.768 190.928 107.373 190.804C106.978 190.681 106.502 190.781 106.315 191.027C105.818 191.685 108.895 191.59 110.555 190.896C111.318 190.577 112.981 190.177 114.252 190.007C115.523 189.838 116.967 189.637 117.461 189.562C117.955 189.487 118.36 189.673 118.36 189.976C118.36 190.364 118.998 190.484 120.542 190.385C122.228 190.278 122.517 190.344 121.814 190.677C121.314 190.914 121.021 191.26 121.162 191.447C121.467 191.85 118.596 192.255 113.039 192.594C109.918 192.784 108.9 192.708 108.554 192.262C108.229 191.844 108.104 191.829 108.099 192.21C108.087 192.982 105.001 192.857 103.895 192.04C103.379 191.658 102.956 191.524 102.956 191.742C102.956 191.983 101.29 192.026 98.7206 191.851C96.3909 191.692 92.7519 191.458 90.634 191.331C88.516 191.204 86.0243 190.881 85.0967 190.612C84.1691 190.344 82.8351 190.215 82.1322 190.324C81.4293 190.434 80.7085 190.331 80.5304 190.096C80.3313 189.833 80.4656 189.799 80.8787 190.007C81.2968 190.218 81.4262 190.182 81.221 189.911C80.8344 189.4 78.3856 188.937 75.4876 188.827C73.7781 188.762 73.4245 188.598 73.3781 187.848C73.3283 187.042 73.6824 186.912 76.7154 186.625C78.5816 186.448 80.6862 186.344 81.3921 186.394L82.6757 186.485L81.3134 185.88C78.951 184.831 76.6474 184.388 72.1503 184.119C69.75 183.976 66.2843 183.55 64.4487 183.173C60.227 182.306 45.5782 182.24 44.9393 183.084C44.7194 183.375 44.2678 183.476 43.9356 183.308C43.0778 182.875 33.6292 182.729 33.9506 183.154C34.2513 183.551 34.1748 183.558 27.4582 183.725C22.7177 183.842 20.7167 183.985 13.6186 184.716C10.382 185.049 8.48963 184.858 6.63979 184.012C5.8651 183.658 6.03206 183.457 7.89773 182.494C9.40254 181.718 11.2409 181.262 14.0159 180.975C18.7514 180.486 23.2697 179.87 26.525 179.269C28.4722 178.91 28.8605 178.688 28.6565 178.051C28.5101 177.593 28.1099 177.365 27.6875 177.497C27.2917 177.621 26.9679 177.514 26.9679 177.258C26.9679 177.003 27.3722 176.791 27.8664 176.787C28.6343 176.782 28.6529 176.722 27.9948 176.374C27.5077 176.117 27.4546 175.965 27.8503 175.961C28.1954 175.957 28.343 175.672 28.1794 175.323C27.9729 174.884 28.4852 174.473 29.8641 173.972L31.8455 173.253L26.829 173C24.0698 172.861 20.4309 172.766 18.7423 172.79C17.0538 172.813 15.6723 172.809 15.6723 172.78C15.6723 172.751 16.1344 172.292 16.6992 171.76C17.2639 171.228 17.726 170.92 17.726 171.076C17.726 171.232 18.2463 171.082 18.8822 170.741C19.5181 170.401 21.7513 169.905 23.8447 169.64C25.9382 169.374 28.5661 168.893 29.6845 168.571C30.8029 168.249 32.5553 167.978 33.5788 167.97C36.4381 167.947 43.6408 166.417 41.558 166.275C41.2992 166.257 40.6253 166.156 40.0605 166.05C39.4957 165.944 38.7515 165.806 38.4067 165.744C37.232 165.534 37.157 165.126 38.2414 164.845C38.8365 164.69 39.9274 164.107 40.6655 163.548C41.4036 162.989 42.5231 162.532 43.1532 162.532C43.7834 162.532 44.5626 162.272 44.8848 161.955C45.3661 161.481 44.9428 161.329 42.5088 161.103C40.8799 160.951 38.8539 160.736 38.0068 160.624C35.9913 160.358 27.9713 160.397 27.4204 160.675C26.6773 161.05 20.8067 161.227 20.8067 160.874C20.8067 160.689 21.1532 160.302 21.5768 160.015C22.0004 159.728 22.347 159.296 22.347 159.055C22.347 158.814 22.1949 158.741 22.0091 158.893C21.8233 159.044 21.3612 158.958 20.9823 158.701C20.6007 158.443 20.2932 158.413 20.2932 158.635C20.2932 158.856 19.9467 159.036 19.5231 159.036C18.29 159.036 18.6282 158.587 20.3227 157.974C22.2283 157.285 21.9554 156.996 18.8834 156.449C16.0809 155.951 15.5467 155.169 17.556 154.508C19.6353 153.823 29.4047 152.934 34.9893 152.922C37.607 152.916 40.3617 152.785 41.1108 152.632L42.4729 152.352L41.01 151.375C40.2054 150.837 39.1564 150.39 38.6789 150.382C37.4619 150.361 37.092 149.694 37.7448 148.697C38.4341 147.645 42.9002 145.753 44.6947 145.753C45.4512 145.753 45.8887 145.572 45.7083 145.333C45.5338 145.103 44.9673 144.914 44.4494 144.914C43.5795 144.914 42.6123 143.867 42.8029 143.131C42.9966 142.383 34.8504 143.219 34.1686 144.017C33.648 144.627 20.5371 146.219 19.2482 145.829L18.0208 145.458L19.2147 144.936C19.8714 144.649 24.1372 143.906 28.6943 143.286C37.0332 142.15 39.0627 141.348 33.5985 141.348C31.9195 141.348 30.3749 141.109 29.8727 140.77C29.1595 140.29 28.172 140.276 24.0123 140.691C16.3635 141.455 11.9183 141.979 10.8758 142.24C10.1852 142.414 9.97746 142.29 10.1057 141.779C10.2925 141.036 11.881 140.164 14.3713 139.437C16.5148 138.812 15.1824 138.26 12.4417 138.639C11.2534 138.803 9.24151 139.07 7.97076 139.232L5.66029 139.528L7.58568 138.02C8.64465 137.191 9.51107 136.446 9.51107 136.363C9.51107 136.281 8.07834 136.081 6.32723 135.919C2.18695 135.536 -0.0284062 134.588 0.000275016 133.211C0.015341 132.484 3.3369 131.51 6.42754 131.325C7.6999 131.249 10.5893 130.887 12.8484 130.52C15.1075 130.154 18.5735 129.769 20.5506 129.665C22.5277 129.561 25.5312 129.278 27.2252 129.035C37.7459 127.525 40.1137 127.154 40.5672 126.941C40.8459 126.811 40.0372 126.498 38.7702 126.246C37.4951 125.992 36.4665 125.542 36.4665 125.237C36.4665 124.531 41.6414 122.997 46.338 122.312C48.6226 121.978 50.313 121.482 50.8664 120.982C51.3618 120.535 53.0806 119.971 54.7811 119.698C58.6392 119.078 58.535 118.489 54.3429 117.224C53.4441 116.953 52.8129 116.512 52.9401 116.245C53.2298 115.638 55.6096 114.712 56.8799 114.712C57.405 114.712 57.6919 114.523 57.5174 114.292C57.3428 114.061 55.4808 113.873 53.3796 113.873C49.9175 113.873 48.5273 113.444 50.2009 112.892C51.6963 112.399 44.2033 112.666 40.5023 113.237C35.8935 113.949 33.3858 113.651 33.3858 112.392C33.3858 111.811 34.727 111.049 38.4255 109.528C41.9097 108.094 43.2567 107.344 42.7897 107.098C41.9027 106.63 42.7782 106.152 46.2218 105.222C51.0824 103.911 54.9383 101.712 54.4321 100.541C54.0863 99.741 55.9808 99.3047 63.8077 98.3817C67.6982 97.9229 71.5944 97.2569 72.4659 96.9017C73.3374 96.5465 75.1825 96.145 76.5661 96.0095C80.3811 95.6359 87.681 94.1272 88.8228 93.4763C89.3798 93.1587 90.5351 92.8857 91.39 92.8694C92.245 92.8533 93.4065 92.6777 93.9713 92.4795C94.789 92.1924 94.5798 92.1063 92.9444 92.0571C88.5681 91.9255 86.2459 91.573 85.6657 90.9522C85.2696 90.5285 84.6508 90.3982 83.8687 90.5738C82.8421 90.8043 82.8023 90.7768 83.5835 90.377C84.0828 90.1215 84.8915 89.9662 85.3805 90.0319C85.8696 90.0976 86.5806 89.9923 86.9605 89.7978C87.3692 89.5886 88.1684 89.6703 88.9176 89.9979C89.9045 90.4294 90.3983 90.4422 91.1553 90.056C91.7699 89.7424 92.2408 89.7113 92.4375 89.9712C92.6084 90.1972 94.0632 90.3888 95.6703 90.397C97.2774 90.4051 99.1698 90.6816 99.8758 91.0113C101.414 91.7297 101.93 91.7823 101.93 91.2211C101.93 90.9904 101.569 90.8016 101.129 90.8016C100.689 90.8016 100.455 90.6343 100.61 90.4298C100.765 90.2253 100.407 89.9547 99.816 89.8283C99.2246 89.702 98.8412 89.3502 98.9639 89.0466C99.1903 88.4863 101.49 88.158 108.604 87.6704C115.031 87.23 116.819 86.9929 116.819 86.5812C116.819 86.3646 116.473 86.1874 116.049 86.1874C115.621 86.1874 115.279 85.8145 115.279 85.3484C115.279 84.7332 115.621 84.5095 116.563 84.5095C118.039 84.5095 118.291 83.8635 116.928 83.5722C116.423 83.4643 113.824 83.4769 111.152 83.6C103.37 83.9588 100.257 83.8394 98.629 83.1197C97.8021 82.7541 96.9775 82.5298 96.7966 82.6211C96.6156 82.7125 96.563 82.2559 96.6797 81.6064C96.9343 80.1892 96.2122 79.9682 90.9404 79.8497C87.7853 79.7788 87.5404 79.7151 88.6369 79.2508C90.4408 78.487 97.0578 77.3909 101.004 77.2022C103.02 77.1057 104.925 76.7612 105.611 76.3691C107.069 75.5344 107.948 75.524 108.934 76.3297C109.378 76.6921 110.614 76.9551 111.85 76.9499C115.655 76.9338 129.853 75.7541 131.781 75.2938C133.581 74.8639 133.636 74.7945 133.256 73.4187C133.017 72.5518 133.071 71.8193 133.393 71.5559C133.759 71.2568 133.744 70.9437 133.342 70.5487C132.116 69.3413 133.676 69.0913 141.169 69.2948C146.991 69.4529 148.807 69.3663 149.988 68.8741C151.238 68.3534 156.874 67.6351 160.718 67.5065C161.283 67.4876 162.9 67.3034 164.312 67.0971L166.879 66.7221L164.569 66.417C163.298 66.2491 159.486 66.2081 156.097 66.3258C152.708 66.4434 147.856 66.5146 145.315 66.4839C142.773 66.4532 137.806 66.7355 134.276 67.1113C127.292 67.8549 120.089 68.375 116.988 68.3597C115.907 68.3544 114.877 68.5149 114.7 68.7164C114.522 68.9178 113.656 69.1068 112.774 69.1362C111.893 69.1657 111.171 69.346 111.171 69.5371C111.171 69.7281 110.652 69.7649 110.016 69.6189C109.112 69.4111 109.028 69.4491 109.631 69.7939C110.295 70.1737 110.277 70.2354 109.503 70.2409C109.009 70.2447 108.604 70.4578 108.604 70.715C108.604 71.0023 108.116 70.9214 107.339 70.5053C105.933 69.7529 105.317 69.6348 105.744 70.1996C105.899 70.4041 105.566 70.6696 105.004 70.7896C104.42 70.9144 103.983 70.8003 103.983 70.5226C103.983 70.2418 103.172 70.0376 102.058 70.0376C100.834 70.0376 100.176 70.2213 100.253 70.5419C100.336 70.8889 99.7822 70.9844 98.478 70.848C96.3406 70.6244 94.232 69.647 94.2202 68.8744C94.2146 68.5441 94.034 68.5851 93.7146 68.9889C93.3283 69.4772 93.2151 69.3537 93.209 68.437C93.199 66.924 94.045 65.6331 95.0466 65.6331C95.4769 65.6331 95.6861 65.4443 95.5116 65.2136C95.3371 64.9829 95.6123 64.7797 96.1231 64.7621C97.815 64.7035 98.8896 64.4494 100.034 63.837C101.059 63.2879 103.47 63.4992 103.47 64.1383C103.47 64.2538 103.16 64.2513 102.782 64.1322C102.404 64.0136 101.768 64.2445 101.37 64.6454C100.746 65.2735 100.747 65.3246 101.376 65.0151C101.936 64.739 102.021 64.8337 101.743 65.4254C101.527 65.8856 101.647 66.332 102.041 66.5365C103.023 67.0457 103.851 66.9499 102.957 66.4304C102.378 66.0935 102.675 66.0381 104.159 66.2069C105.249 66.3309 106.55 66.2172 107.069 65.9523C107.78 65.5897 108.191 65.5972 108.76 65.9832C109.366 66.3943 109.589 66.3488 109.91 65.7482C110.129 65.3386 110.271 64.8619 110.227 64.6888C110.182 64.5158 110.472 64.3742 110.873 64.3742C111.273 64.3742 111.688 64.1583 111.796 63.8945C111.903 63.6306 112.669 63.3557 113.498 63.2835C114.326 63.2113 115.262 62.8639 115.578 62.5113C115.893 62.1588 116.338 62.0091 116.567 62.1785C116.796 62.3479 116.838 62.1562 116.661 61.7525C116.264 60.8488 117.246 60.7644 117.67 61.6657C117.939 62.2386 118.084 62.2311 118.937 61.6007C119.847 60.9277 119.901 60.9325 119.908 61.6874C119.915 62.3569 119.997 62.3845 120.414 61.8573C121.156 60.9193 121.05 60.715 119.676 60.4332C118.804 60.2545 118.449 59.9084 118.506 59.2934C118.596 58.3137 120.385 57.5813 122.445 57.6802C124.366 57.7724 126.062 57.2326 126.062 56.5289C126.062 56.0759 126.572 55.943 127.987 56.0274C130.056 56.1508 133.538 55.6786 134.79 55.1047C135.412 54.8197 135.363 54.7455 134.533 54.7191C133.969 54.7014 132.351 54.5981 130.939 54.4899C126.573 54.1555 120.766 54.166 118.671 54.5122C117.233 54.7498 116.772 54.7098 117.029 54.3698C117.25 54.0778 117.111 53.9834 116.666 54.123C116.243 54.2555 115.562 53.8715 115.02 53.1959C114.358 52.371 114.272 51.9946 114.715 51.874C115.131 51.7607 115.03 51.5105 114.408 51.112C113.564 50.5713 113.619 50.5381 115.023 50.7374C115.87 50.8577 116.274 50.8449 115.921 50.7088C114.621 50.208 115.337 49.6926 117.333 49.6926C118.63 49.6926 119.39 49.8859 119.395 50.2169C119.4 50.6028 119.519 50.591 119.844 50.1722C120.121 49.8146 120.405 49.7618 120.608 50.03C120.953 50.4856 121.607 50.4501 123.211 49.8888C123.762 49.6964 124.971 49.5263 125.899 49.5109C128.027 49.4756 128.718 48.4342 126.614 48.4342C125.781 48.4342 125.016 48.1614 124.849 47.805C124.65 47.3804 124.874 47.1758 125.539 47.1758C126.081 47.1758 126.709 46.9398 126.935 46.6514C127.523 45.8995 129.616 45.0088 130.154 45.2808C130.406 45.4077 130.757 45.3199 130.934 45.0852C131.111 44.8508 131.894 44.6589 132.673 44.6589C133.453 44.6589 135.345 44.3524 136.879 43.9777C139.3 43.3863 139.517 43.2505 138.528 42.9474C137.902 42.7554 133.615 42.6239 129.001 42.6552C124.388 42.6867 120.312 42.5597 119.943 42.3734C119.561 42.1804 119.121 42.2345 118.921 42.499C118.508 43.0444 102.547 43.4578 102.151 42.9334C102.011 42.749 101.539 42.7106 101.1 42.848C100.561 43.0172 100.49 43.1918 100.88 43.389C101.197 43.5491 100.755 43.6802 99.8965 43.6802C99.0382 43.6802 98.336 43.4998 98.336 43.2792C98.336 43.0587 97.9838 43.1171 97.5534 43.4089C97.123 43.7008 96.6066 43.8053 96.4058 43.6413C96.2051 43.4773 96.615 42.9861 97.3168 42.5497L98.5927 41.7561L97.3091 41.9577C96.1843 42.1344 96.1525 42.11 97.0524 41.7607C98.5332 41.1859 100.967 41.2454 102.393 41.8913C103.784 42.5208 105.524 42.3133 105.524 41.5182C105.524 41.1519 106.538 40.9873 108.861 40.9766C110.955 40.967 112.199 41.1329 112.199 41.4221C112.199 41.6756 112.488 41.5737 112.841 41.1956C113.304 40.6991 114.694 40.4335 117.847 40.239C120.247 40.091 123.669 39.7035 125.452 39.3781C127.234 39.0526 129.429 38.7682 130.329 38.746C131.229 38.7238 133.121 38.448 134.533 38.133C136.941 37.5959 136.669 37.5745 130.169 37.7891C126.357 37.9149 122.891 38.021 122.467 38.0248C122.044 38.0286 116.73 38.4742 110.658 39.0149C104.587 39.5557 97.9679 40.0559 95.9492 40.1263C93.9304 40.1968 92.3845 40.396 92.5138 40.569C92.643 40.7421 91.7532 40.8844 90.5364 40.8853C89.3196 40.8853 86.2445 41.1605 83.703 41.4947C79.3449 42.0678 69.093 42.6589 70.4853 42.2567C70.84 42.1543 70.9997 41.8978 70.84 41.6868C70.6804 41.4758 71.1988 41.2941 71.9921 41.283C72.7853 41.2722 74.243 40.9047 75.2313 40.4669C76.2197 40.0291 77.4905 39.4949 78.0552 39.2797C79.9116 38.5725 110.194 34.4796 117.333 33.971C119.451 33.8201 125.574 33.3227 130.939 32.8657C136.305 32.4088 143.386 31.8517 146.676 31.6278C149.966 31.4039 153.77 30.9474 155.128 30.6133C156.913 30.1745 157.697 30.1358 157.953 30.4739C158.277 30.9026 163.679 30.7852 170.217 30.2074C171.205 30.1201 174.325 29.9307 177.148 29.7865C182.216 29.5279 189.936 28.6578 194.257 27.8583C195.477 27.6325 196.691 27.557 196.956 27.6904C197.22 27.8239 200.797 27.5171 204.905 27.0087C210.983 26.2565 212.593 26.18 213.549 26.5981C214.51 27.0185 215.741 26.9479 220.324 26.2101C227.953 24.9818 237.908 23.3851 242.868 22.5939C245.127 22.2336 248.41 21.6711 250.162 21.3439C251.914 21.0167 254.109 20.7499 255.04 20.751C255.97 20.751 257.771 20.4812 259.042 20.149C261.183 19.589 265.568 18.9674 277.268 17.565C283.28 16.8446 284.49 16.6783 290.618 15.732C293.442 15.2959 298.063 14.6276 300.887 14.2468C303.71 13.866 306.714 13.4608 307.561 13.3464C313.556 12.5369 314.698 12.552 315.89 13.4562C316.533 13.9441 317.06 14.5576 317.06 14.8195C317.06 15.0814 317.233 15.2734 317.445 15.2461C317.657 15.219 318.358 15.219 319.003 15.2461C319.984 15.2875 320.092 15.4241 319.663 16.0795C319.035 17.0391 319.537 17.5566 320.478 16.9186C321.537 16.2008 321.296 16.8465 320.078 17.9909C319.439 18.5912 318.156 19.1295 316.975 19.2924C315.251 19.5304 315.054 19.6616 315.606 20.2051C316.435 21.0207 315.735 21.0713 348.636 17.8189C350.895 17.5955 354.939 17.3223 357.621 17.2117C360.304 17.101 365.156 16.8118 368.403 16.5689C371.651 16.3261 375.925 16.0527 377.902 15.9613C379.879 15.8699 382.41 15.5995 383.526 15.3605C384.643 15.1215 389.073 14.9143 393.371 14.9001C397.669 14.886 401.492 14.7902 401.866 14.6874C402.79 14.4337 414.822 13.9187 417.684 14.0104C418.95 14.051 420.339 14.3453 420.771 14.6646C421.739 15.38 424.203 15.4517 435.664 15.098C440.932 14.9354 445.77 14.5657 447.358 14.2042C449.431 13.7326 452.869 13.6035 461.991 13.6548C468.549 13.6919 479.46 13.5793 486.237 13.4053C499.971 13.0525 499.237 13.0485 513.449 13.5525C522.651 13.8789 527.959 13.8924 536.04 13.6102C537.452 13.5609 538.203 13.4342 537.709 13.3287C537.215 13.2232 536.81 12.9395 536.81 12.6984C536.81 12.4091 538.252 12.3431 541.046 12.5043C543.376 12.6387 550.365 12.9399 556.578 13.1737C562.79 13.4076 570.761 13.7925 574.291 14.0292C588.473 14.98 593.881 15.3152 601.247 15.6993C619.667 16.6601 629.377 17.0429 639.498 17.2074C644.157 17.2832 649.933 17.4737 652.334 17.6309C654.734 17.7881 658.315 17.8998 660.292 17.8791C662.269 17.8587 666.196 18.0271 669.02 18.254C671.844 18.4809 680.99 18.7497 689.344 18.8513C697.698 18.9529 705.553 19.2201 706.801 19.4449C708.048 19.6698 710.884 19.956 713.102 20.081C715.321 20.2059 717.862 20.4053 718.75 20.524C721.786 20.9298 726.525 21.2057 733.457 21.3801C739.56 21.5337 745.491 21.9023 754.251 22.6726C755.663 22.7967 757.627 22.9509 758.615 23.0153C759.603 23.0797 762.145 23.2535 764.263 23.4016C766.381 23.5497 769.962 23.7863 772.22 23.9275C774.479 24.0686 776.443 24.2422 776.585 24.3133C776.726 24.3844 778.156 24.5566 779.762 24.6961C781.368 24.8356 783.02 25.0558 783.434 25.1855C783.847 25.3152 786.23 25.4775 788.729 25.5462C795.591 25.735 795.582 25.7338 795.582 26.4118C795.582 26.7579 795.827 27.041 796.126 27.041C796.425 27.041 796.503 26.8202 796.299 26.5503C796.045 26.2156 796.213 26.1489 796.824 26.3405C797.317 26.4951 798.23 26.6216 798.852 26.6216C799.617 26.6216 800.01 26.8943 800.062 27.4605C800.155 28.4633 799.876 28.5114 798.846 27.6702C797.772 26.7922 796.569 26.858 796.93 27.7751C797.108 28.2268 797.053 28.3289 796.786 28.0404C796.491 27.7209 795.044 27.6609 792.245 27.8521C787.426 28.1812 783.789 28.0906 777.099 27.475C774.416 27.2282 770.95 26.9247 769.397 26.8006C767.844 26.6766 766.303 26.5031 765.974 26.4151C765.644 26.3271 765.24 26.5413 765.076 26.8912C764.855 27.3623 764.367 27.4537 763.196 27.2436C761.357 26.9136 760.175 26.7881 755.278 26.403C753.301 26.2476 751.545 26.0509 751.376 25.9661C751.017 25.7853 744.149 25.7556 734.74 25.8941C728.77 25.982 724.561 25.7419 721.421 25.1343C719.651 24.792 707.271 24.6439 707.271 24.9651C707.271 25.1303 708.831 25.4018 710.737 25.5685C712.643 25.7352 714.665 25.946 715.23 26.037C719.191 26.6754 729.802 27.3909 738.334 27.5951C740.311 27.6424 742.173 27.8089 742.471 27.9651C742.968 28.2248 758.69 29.2265 759.533 29.0521C759.734 29.0106 761.631 29.1087 763.749 29.2701C767.024 29.5196 775.385 30.0217 777.484 30.0948C778.242 30.1212 778.332 30.6627 777.636 31.0142C777.136 31.2665 773.266 31.3247 769.763 31.1327C768.694 31.074 767.631 30.7776 767.401 30.4739C767.091 30.0631 766.209 29.9946 763.955 30.206C762.289 30.3624 760.771 30.5653 760.582 30.6571C760.393 30.7489 759.888 30.5377 759.459 30.1877C759.031 29.8378 758.558 29.7131 758.409 29.9107C758.119 30.294 747.756 30.1307 744.752 29.6955C743.764 29.5523 742.022 29.3962 740.881 29.3486C739.74 29.301 738.296 29.0389 737.672 28.766C736.765 28.3694 736.537 28.3822 736.537 28.8301C736.537 29.1597 735.851 29.4354 734.869 29.5002C730.809 29.7678 725.126 29.7424 720.621 29.4366C717.38 29.2166 715.997 29.2441 716.498 29.5187C718.522 30.6258 714.725 31.1719 708.812 30.624C703.569 30.1383 702.632 30.1127 700.366 30.3936C699.197 30.5386 697.558 30.5077 696.723 30.3249C694.525 29.8436 683.095 28.9911 678.005 28.9289C675.605 28.8996 672.139 28.7465 670.304 28.5888C668.468 28.4311 664.772 28.2051 662.089 28.0867C659.406 27.9683 653.052 27.5938 647.969 27.2546C642.886 26.9154 635.326 26.511 631.168 26.356C624.393 26.1034 623.575 26.1467 623.281 26.7728C623.001 27.3683 622.109 27.4687 617.234 27.4535C614.089 27.4438 610.476 27.5887 609.205 27.7759L606.895 28.1162L610.745 28.5839C612.863 28.8411 615.405 29.0465 616.393 29.0401C617.381 29.0333 621.425 29.3209 625.378 29.6782C629.332 30.0354 636.841 30.5385 642.065 30.7961C647.289 31.0536 652.077 31.3547 652.706 31.4652C653.334 31.5756 658.532 31.8497 664.258 32.0743C674.548 32.478 681.759 32.8074 687.247 33.1247C688.8 33.2144 694.129 33.479 699.087 33.7127C704.046 33.9464 708.436 34.2216 708.843 34.3243C709.249 34.4271 710.044 34.6539 710.609 34.8284C711.173 35.0029 712.524 35.198 713.609 35.2621C714.695 35.3262 715.851 35.6779 716.179 36.0437C716.651 36.5719 717.989 36.7311 722.676 36.8172C725.923 36.8768 728.81 37.0418 729.092 37.1836C729.375 37.3254 731.339 37.5522 733.457 37.6876C743.581 38.3348 753.702 38.8605 758.358 38.981C761.182 39.054 767.189 39.4434 771.708 39.8463C776.226 40.2492 782.002 40.6415 784.543 40.7181C802.134 41.2481 816.183 41.9155 823.565 42.5719C826.106 42.798 830.561 43.1043 833.464 43.2526C836.367 43.401 838.865 43.6838 839.014 43.881C839.163 44.0782 838.521 44.2549 837.586 44.2737C836.652 44.2926 835.235 44.3464 834.438 44.3937C833.64 44.441 832.888 44.3469 832.765 44.1846C832.642 44.0223 831.688 44.0821 830.645 44.3175C829.586 44.5564 827.262 44.6231 825.386 44.4685C823.537 44.3162 813.707 44.1177 803.541 44.0274C793.375 43.9371 781.245 43.7413 776.585 43.5923C768.28 43.3268 765.927 43.4892 771.375 43.9519C772.886 44.0802 774.234 44.2766 774.371 44.3882C774.737 44.6873 772.86 45.4275 771.302 45.5979C769.488 45.7964 768.915 46.3278 770.467 46.3734C771.149 46.3934 774.711 46.5857 778.382 46.8007C782.053 47.0157 789.273 47.3032 794.427 47.4395C802.899 47.6636 803.797 47.7578 803.797 48.4225C803.797 49.3452 805.864 49.5634 818.321 49.9556C823.344 50.1138 827.574 50.4025 827.722 50.5972C827.869 50.7919 829.002 50.9512 830.239 50.9512C834.457 50.9512 833.275 52.1095 828.094 53.0531C826.631 53.3195 824.667 53.5027 823.729 53.4602C817.476 53.1771 819.116 54.003 826.132 54.6698C828.956 54.9383 832.883 55.2493 834.86 55.3611C836.837 55.4728 840.418 55.7524 842.818 55.9824C845.219 56.2123 850.071 56.525 853.601 56.6771C857.947 56.8644 860.184 57.1311 860.532 57.5034C860.816 57.8079 862.648 58.1748 864.64 58.3262C866.616 58.4764 868.465 58.8298 868.747 59.1115C869.029 59.3932 870.948 59.751 873.01 59.9066C875.073 60.0623 877.278 60.4669 877.911 60.8057C878.636 61.194 880.857 61.4901 883.916 61.6064C890.513 61.8572 895.682 62.3299 895.968 62.7086C896.269 63.1066 891.774 63.6751 891.083 63.3264C890.8 63.1834 890.568 63.2453 890.568 63.464C890.568 63.6826 891.377 63.9855 892.365 64.1369C894.316 64.436 894.685 64.9578 893.264 65.4081C891.586 65.9395 893.934 66.7811 899.212 67.5404C903.646 68.1781 906.447 68.9663 904.405 69.0013C902.486 69.0342 905.449 69.7736 908.534 70.0315C910.365 70.1846 912.132 70.4919 912.46 70.7144C912.788 70.937 914.518 71.3113 916.304 71.5463C921.266 72.1992 921.213 72.7238 916.15 73.0489C914.259 73.1703 912.53 73.5302 912.01 73.9105C911.28 74.4441 910.388 74.5079 907.132 74.2595C900.511 73.7543 899.201 73.8526 898.207 74.9288C897.721 75.4555 897.423 76.0185 897.545 76.1798C897.667 76.3412 899.324 76.6054 901.227 76.7669C903.13 76.9284 904.919 77.2086 905.201 77.3897C905.483 77.5708 906.812 77.8525 908.153 78.0156C911.834 78.4633 911.079 79.0559 906.827 79.0559C904.756 79.0559 902.887 79.1975 902.673 79.3706C902.459 79.5436 900.306 79.6852 897.887 79.6852C894.829 79.6852 893.423 79.8448 893.27 80.2095C893.119 80.5688 893.669 80.7346 895.018 80.7362C896.1 80.7369 897.795 80.9117 898.783 81.1233C899.771 81.3349 902.536 81.6275 904.926 81.7735C907.316 81.9194 909.533 82.2155 909.851 82.4314C910.169 82.6473 910.564 82.714 910.729 82.5795C910.894 82.4451 911.565 82.492 912.222 82.6836C913.144 82.9527 912.597 83.093 909.822 83.2993C906.547 83.5427 902.812 84.1549 900.837 84.7721C899.583 85.1637 901.533 85.5942 907.383 86.2173C910.278 86.5256 912.646 86.8898 912.646 87.0266C912.646 87.1635 914.148 87.1973 915.983 87.1019C918.665 86.9623 919.321 87.0486 919.321 87.5413C919.321 88.3017 917.695 89.545 916.713 89.5364C916.109 89.5311 916.116 89.4597 916.753 89.1233C917.408 88.7773 917.387 88.7158 916.608 88.7103C916.105 88.7065 915.556 88.9968 915.388 89.3548C915.127 89.9095 914.199 89.9734 909.114 89.7865C902.743 89.5523 901.177 89.8299 902.351 90.9854C904.317 92.9208 912.334 94.996 917.845 94.996C921.175 94.996 922.914 95.5048 922.914 96.4789C922.914 96.9665 922.093 97.0913 918.935 97.0834C916.746 97.078 914.032 96.8745 912.902 96.6316C911.773 96.3886 906.45 96.1042 901.075 95.9997C891.57 95.8149 891.3 95.8328 891.224 96.653C891.15 97.4597 891.777 98.0407 892.878 98.1863C893.161 98.2236 895.376 98.5596 897.8 98.9329C905.736 100.155 912.782 100.899 919.994 101.277C926.676 101.627 928.954 102.108 928.264 103.02C928.106 103.229 927.757 103.288 927.487 103.151C927.217 103.015 927.06 103.154 927.137 103.459C927.215 103.766 926.879 103.989 926.385 103.957C925.894 103.926 925.603 104.046 925.739 104.226C925.875 104.405 925.201 104.672 924.243 104.819C922.171 105.137 921.679 105.893 922.741 107.131C923.306 107.79 923.367 108.184 922.963 108.581C922.301 109.232 922.734 109.678 924.027 109.678C924.544 109.678 924.968 109.757 924.968 109.853C924.968 109.949 925.121 110.355 925.309 110.754C925.622 111.421 925.277 111.457 921.073 111.202C918.556 111.049 915.63 110.811 914.571 110.674C913.038 110.476 912.645 110.558 912.645 111.079C912.645 111.439 912.273 111.904 911.818 112.112C910.642 112.649 911.348 115.066 912.822 115.552C913.876 115.899 913.88 115.919 912.902 115.973C911.875 116.029 911.875 116.029 912.902 116.389C913.904 116.741 912.505 116.891 907.254 116.996C905.064 117.04 903.403 117.604 903.403 118.305C903.403 118.68 902.871 118.908 901.992 118.912C901.215 118.916 900.054 119.032 899.412 119.173C898.318 119.413 898.302 119.463 899.156 119.993C899.656 120.303 900.698 120.563 901.471 120.571C902.243 120.578 904.4 121.245 906.263 122.052C908.142 122.867 910.398 123.52 911.329 123.52C914.441 123.52 919.294 124.054 919.055 124.37C918.924 124.543 919.211 124.658 919.691 124.626C920.171 124.595 920.647 124.894 920.747 125.292C920.981 126.215 917.949 127.806 916.386 127.581C915.76 127.491 915.164 127.623 915.062 127.875C914.82 128.468 908.827 128.636 906.431 128.117C905.413 127.896 900.157 127.664 894.75 127.602C885.609 127.496 882.914 127.71 886.332 128.271C887.108 128.398 888.783 128.694 890.054 128.929C891.325 129.164 893.347 129.365 894.547 129.375C895.747 129.385 896.729 129.582 896.729 129.812C896.729 130.043 897.091 130.232 897.533 130.232C897.975 130.232 898.811 130.439 899.391 130.693C900.433 131.149 900.431 131.159 899.228 131.649C897.122 132.507 897.775 133.316 901.315 134.236C903.131 134.708 904.725 135.368 904.857 135.704C904.99 136.04 905.302 136.424 905.552 136.557C906.337 136.978 905.397 138.273 904.508 137.994C904.059 137.853 903.833 137.854 904.006 137.996C904.18 138.137 903.739 138.729 903.027 139.31C902.091 140.075 901.125 140.387 899.536 140.437C898.327 140.475 897.432 140.63 897.546 140.781C897.66 140.932 895.542 140.963 892.84 140.85C888.911 140.685 887.753 140.772 887.065 141.28C886.108 141.986 881.066 142.277 878.436 141.778C877.431 141.588 876.698 141.646 876.48 141.935C876.288 142.189 875.586 142.397 874.919 142.397C873.375 142.397 872.084 142.799 872.084 143.281C872.084 143.487 872.419 143.655 872.829 143.655C873.238 143.655 873.769 143.941 874.009 144.291C874.279 144.686 876.286 145.22 879.297 145.699C885.229 146.642 889.596 148.083 889.183 148.962C889.025 149.3 888.566 149.473 888.164 149.347C887.762 149.221 887.563 149.289 887.72 149.497C887.878 149.706 887.402 150.464 886.661 151.183C885.67 152.145 885.043 152.419 884.283 152.222C883.711 152.074 883.38 152.125 883.54 152.337C883.699 152.547 883.025 152.737 882.043 152.76C881.061 152.783 878.636 153.126 876.654 153.523L873.05 154.245L874.197 155.242C874.827 155.791 875.557 156.239 875.818 156.239C876.079 156.239 877.086 156.547 878.055 156.923C879.745 157.578 879.785 157.646 879.037 158.579C878.545 159.192 878.447 159.648 878.773 159.812C879.056 159.955 879.141 160.269 878.959 160.508C878.747 160.789 878.471 160.741 878.181 160.374C877.889 160.005 877.596 159.955 877.347 160.233C877.135 160.468 876.268 160.934 875.421 161.268L873.881 161.875L875.506 162.017C877.265 162.172 878.206 163.248 876.931 163.648C876.5 163.783 876.019 163.789 875.863 163.662C875.707 163.534 874.81 163.783 873.87 164.214C872.931 164.646 871.283 165.133 870.21 165.298C869.137 165.462 867.948 165.851 867.568 166.161C866.667 166.897 866.314 166.881 861.544 165.884C857.262 164.99 856.055 165.073 854.298 166.385C853.307 167.125 852.908 167.161 850.225 166.756C846.706 166.225 840.077 166.157 840.454 166.656C840.599 166.848 842.404 167.239 844.464 167.526C849.712 168.258 850.303 168.415 849.441 168.85C847.947 169.604 854.636 171.385 861.174 171.973C862.94 172.132 864.496 172.41 864.633 172.591C864.77 172.772 864.397 173.423 863.805 174.038C862.81 175.071 862.791 175.214 863.555 175.903C864.01 176.314 864.382 176.753 864.382 176.879C864.382 177.398 855.688 176.652 852.83 175.888C848.72 174.79 840.398 173.989 839.629 174.617C839.222 174.949 839.219 175.235 839.616 175.626C840.153 176.155 840.977 176.381 847.824 177.88C849.959 178.347 851.033 178.794 851.033 179.214C851.033 179.745 850.427 179.801 847.223 179.564C844.783 179.383 843.296 179.438 843.085 179.716C842.905 179.954 843.04 180.149 843.386 180.149C843.733 180.149 843.896 180.247 843.75 180.367C843.406 180.648 836.134 179.401 835.411 178.937C834.843 178.572 827.345 177.628 825.746 177.721C825.252 177.749 824.848 178.009 824.848 178.297C824.848 178.586 824.728 179.077 824.582 179.388C824.33 179.925 830.6 181.011 841.405 182.302C843.028 182.496 845.194 182.94 846.217 183.29C847.24 183.639 848.8 183.926 849.684 183.927C852.009 183.931 855.349 184.761 854.809 185.202C854.559 185.406 851.432 185.627 847.861 185.693C844.289 185.759 841.405 185.844 841.452 185.884C841.499 185.923 842.679 186.321 844.074 186.769C846.505 187.549 846.563 187.605 845.452 188.09C844.583 188.47 843.653 188.485 841.733 188.148C838.608 187.601 838.197 187.594 838.197 188.086C838.197 188.298 838.887 188.596 839.731 188.748C842.538 189.251 841.93 189.797 838.563 189.797C836.603 189.797 834.621 190.063 833.659 190.456C832.684 190.853 831.592 190.997 830.907 190.82C829.442 190.44 805.336 190.295 805.617 190.668C806.215 191.457 799.479 191.453 793.732 190.66C782.093 189.055 772.19 188.142 765.802 188.087C762.273 188.056 756.958 187.771 753.993 187.454C751.028 187.137 745.746 186.683 742.255 186.445C738.764 186.207 735.76 185.94 735.58 185.851C735.4 185.763 733.52 185.569 731.402 185.422C729.284 185.275 726.743 185.075 725.754 184.977C723.697 184.774 714.329 184.347 707.527 184.147C702.607 184.002 695.131 183.616 690.071 183.246C688.376 183.122 681.791 182.94 675.438 182.842C669.084 182.743 661.575 182.508 658.751 182.319C655.927 182.13 648.117 181.994 641.395 182.017C631.23 182.051 629.092 182.163 628.688 182.677C628.275 183.201 628.132 183.206 627.74 182.71C627.433 182.32 626.772 182.207 625.761 182.372C624.925 182.509 623.992 182.414 623.682 182.161C623.373 181.909 622.357 181.662 621.425 181.614C620.493 181.565 619.268 181.413 618.703 181.277C615.626 180.532 612.42 180.316 611.129 180.765C610.092 181.126 607.504 180.7 607.862 180.227C607.993 180.053 605.519 179.86 602.363 179.798C593.865 179.631 592.984 179.555 592.022 178.902C591.24 178.372 591.162 178.397 591.317 179.123C591.435 179.676 591.243 179.891 590.721 179.79C590.297 179.708 589.431 179.637 588.795 179.633C588.16 179.628 587.64 179.48 587.64 179.302C587.64 179.125 587.268 178.864 586.813 178.721C586.212 178.533 586.07 178.641 586.293 179.117C586.506 179.569 586.404 179.67 585.966 179.443C585.616 179.261 583.135 179.054 580.452 178.981C574.81 178.829 575.649 178.831 549.132 178.907C537.978 178.939 527.423 178.829 525.677 178.663C523.931 178.496 522.114 178.481 521.639 178.63C520.765 178.904 503.993 179.445 498.84 179.366C494.81 179.303 490.239 181.239 492.781 181.931C493.16 182.034 492.898 182.331 492.14 182.658C491.434 182.962 490.729 183.37 490.572 183.565C490.006 184.269 485.646 184.661 484.408 184.12C483.628 183.779 481.56 183.656 478.31 183.759C475.605 183.844 466.72 184.013 458.565 184.135C450.411 184.256 443.178 184.471 442.493 184.612C441.807 184.752 438.892 184.896 436.016 184.931C433.139 184.967 430.323 185.208 429.758 185.467C428.748 185.931 423.986 186.693 423.189 186.518C422.207 186.302 420.383 186.357 418.72 186.651C417.731 186.825 416.46 186.937 415.896 186.898C415.331 186.859 414.407 186.795 413.842 186.754C413.277 186.713 410.62 186.901 407.937 187.172C405.255 187.443 402.061 187.661 400.84 187.656C399.619 187.652 398.348 187.826 398.016 188.045C397.684 188.263 396.661 188.573 395.743 188.733C394.377 188.972 394.075 188.896 394.075 188.315C394.075 187.686 393.65 187.639 390.352 187.902C388.305 188.065 382.933 188.242 378.415 188.295C373.897 188.348 368.955 188.614 367.434 188.885C365.913 189.156 364.556 189.377 364.419 189.377C364.282 189.377 364.457 189.66 364.809 190.006C365.16 190.353 366.228 190.636 367.182 190.636C368.136 190.636 368.916 190.715 368.916 190.811C368.916 190.908 369.056 191.285 369.228 191.65C369.655 192.56 368.21 192.515 367.069 191.583C366.422 191.055 366.116 190.998 365.961 191.376C365.844 191.664 365.537 191.793 365.278 191.662C365.02 191.532 364.809 191.578 364.809 191.765C364.809 191.951 364.289 192.127 363.654 192.155C363.018 192.184 359.495 192.42 355.824 192.682C352.153 192.943 344.759 193.232 339.394 193.324C334.028 193.417 329.061 193.596 328.355 193.722C325.963 194.151 312.811 195.145 305.764 195.43C292.705 195.957 282.804 197.483 280.763 199.283C280.124 199.846 278.999 200.3 278.191 200.322C271.547 200.498 262.32 201.064 258.271 201.542C256.576 201.743 253.604 202.022 251.666 202.164C249.727 202.305 246.981 202.601 245.563 202.82C244.145 203.04 242.9 203.22 242.798 203.22C242.695 203.22 242.611 202.738 242.611 202.147ZM242.611 198.331C242.611 197.872 242.384 197.837 241.603 198.179C241.001 198.442 240.715 198.874 240.893 199.253C241.122 199.741 241.354 199.776 241.901 199.405C242.292 199.14 242.611 198.657 242.611 198.331ZM329.125 192.092C331.134 191.503 331.083 191.494 326.815 191.699C317.04 192.167 313.979 192.404 313.979 192.694C313.979 193.241 326.965 192.725 329.125 192.092ZM90.634 187.026C90.634 186.935 90.2874 186.861 89.8638 186.861C89.4403 186.861 89.0937 187.044 89.0937 187.267C89.0937 187.491 89.4403 187.565 89.8638 187.432C90.2874 187.3 90.634 187.117 90.634 187.026ZM127.858 185.603C128.037 185.366 127.617 185.183 126.892 185.183C126.186 185.183 125.465 185.372 125.291 185.603C125.112 185.84 125.532 186.022 126.257 186.022C126.963 186.022 127.684 185.833 127.858 185.603ZM103.47 183.456C103.47 183.024 102.855 182.983 101.715 183.341C100.427 183.744 100.772 184.248 102.186 184.028C102.892 183.917 103.47 183.66 103.47 183.456ZM393.991 183.388C395.742 182.989 395.983 182.836 395.12 182.669C393.75 182.404 377.414 182.965 368.66 183.577C366.281 183.744 384.653 184.15 388.427 184.015C390.263 183.949 392.766 183.667 393.991 183.388ZM411.788 182.097C412.353 181.988 411.313 181.914 409.478 181.933C405.097 181.978 403.363 182.363 406.141 182.675C407.27 182.801 408.772 182.768 409.478 182.6C410.184 182.433 411.224 182.206 411.788 182.097ZM84.1297 182.22C85.1869 182.195 85.18 182.173 83.9928 181.786C82.593 181.329 81.3922 181.556 81.3922 182.279C81.3922 182.542 81.7568 182.642 82.2043 182.502C82.651 182.362 83.5174 182.235 84.1297 182.22ZM419.501 181.748C419.639 181.636 418.725 181.513 417.47 181.474C416.216 181.435 415.03 181.614 414.835 181.872C414.586 182.202 415.189 182.283 416.866 182.147C418.178 182.04 419.364 181.86 419.501 181.748ZM820.997 176.794C821.194 176.534 820.374 176.393 818.845 176.424C816.653 176.468 816.549 176.51 817.916 176.794C820.163 177.261 820.644 177.261 820.997 176.794ZM29.6314 170.635C29.2607 170.514 28.8179 170.528 28.6473 170.668C28.4767 170.807 28.7799 170.906 29.3212 170.888C29.9193 170.868 30.041 170.769 29.6314 170.635ZM35.6963 170.082C36.7282 169.812 36.7786 169.744 35.9531 169.734C35.3883 169.727 34.4641 169.884 33.8993 170.082C32.591 170.542 33.9408 170.542 35.6963 170.082ZM42.5857 170.247C43.0324 170.107 43.3979 169.653 43.3979 169.238C43.3979 168.596 43.0749 168.517 41.2158 168.707C38.8565 168.948 37.317 169.663 39.1574 169.663C39.762 169.663 40.3995 169.852 40.574 170.082C40.9392 170.565 41.4405 170.606 42.5857 170.247ZM876.705 162.951C876.705 162.721 876.3 162.535 875.806 162.538C875.038 162.543 875.02 162.604 875.678 162.951C876.647 163.463 876.705 163.463 876.705 162.951ZM55.3032 145.886C54.9325 145.765 54.4897 145.779 54.3191 145.919C54.1485 146.058 54.4517 146.157 54.993 146.139C55.5911 146.119 55.7128 146.02 55.3032 145.886ZM51.0994 144.662C51.0994 143.978 49.6714 143.901 47.7955 144.484C45.7533 145.118 46.238 145.565 48.789 145.399C50.339 145.298 51.0994 145.056 51.0994 144.662ZM60.6363 144.964C60.1236 144.287 58.2875 144.114 58.2875 144.743C58.2875 145.097 58.8147 145.333 59.6014 145.333C60.3241 145.333 60.7898 145.167 60.6363 144.964ZM56.7472 144.494C57.3201 144.192 57.0242 144.086 55.592 144.081C54.533 144.077 53.6666 144.264 53.6666 144.494C53.6666 145.029 55.7353 145.029 56.7472 144.494ZM912.645 95.4158C912.645 95.1851 912.414 94.9964 912.132 94.9964C911.85 94.9964 911.618 95.1851 911.618 95.4158C911.618 95.6465 911.85 95.8353 912.132 95.8353C912.414 95.8353 912.645 95.6465 912.645 95.4158ZM916.368 87.5875C916.015 87.4711 915.437 87.4711 915.084 87.5875C914.731 87.7039 915.02 87.7991 915.726 87.7991C916.432 87.7991 916.721 87.7039 916.368 87.5875ZM908.666 82.5356C908.031 82.4356 906.991 82.4356 906.356 82.5356C905.72 82.6355 906.24 82.7173 907.511 82.7173C908.782 82.7173 909.302 82.6355 908.666 82.5356ZM884.92 79.1493C884.92 78.9697 883.014 78.5989 880.684 78.3253C878.354 78.0517 875.892 77.697 875.213 77.5371C874.445 77.3565 874.096 77.4036 874.291 77.6613C874.464 77.8896 876.637 78.3165 879.121 78.61C881.604 78.9035 883.867 79.2035 884.15 79.2766C884.432 79.3498 884.721 79.4245 884.791 79.4427C884.862 79.4608 884.92 79.3289 884.92 79.1493ZM136.073 75.2811C136.99 74.9592 136.952 74.9174 135.718 74.8911C134.958 74.8748 134.194 75.0503 134.019 75.2811C133.641 75.7818 134.647 75.7818 136.073 75.2811ZM881.326 72.8235C881.326 72.6253 879.007 72.2478 876.173 71.9845C869.79 71.3915 868.643 71.3795 869.296 71.9127C869.57 72.1365 872.331 72.4876 875.432 72.693C878.532 72.8984 881.127 73.0928 881.197 73.1251C881.268 73.1574 881.326 73.0216 881.326 72.8235ZM107.268 67.8004C107.413 67.6082 107.196 67.4509 106.785 67.4509C106.373 67.4509 106.037 67.6082 106.037 67.8004C106.037 67.9927 106.255 68.15 106.52 68.15C106.786 68.15 107.122 67.9927 107.268 67.8004ZM175.961 67.0245C175.59 66.9033 175.147 66.9182 174.977 67.0576C174.806 67.197 175.109 67.2961 175.65 67.2779C176.249 67.2577 176.37 67.1584 175.961 67.0245ZM96.2818 66.4721C96.2818 66.2414 95.8775 66.0555 95.3833 66.059C94.6154 66.0644 94.5967 66.1245 95.2549 66.4721C96.2239 66.9837 96.2818 66.9837 96.2818 66.4721ZM98.3355 65.8181C98.3355 65.7164 98.1045 65.6332 97.8221 65.6332C97.5397 65.6332 97.3087 65.8331 97.3087 66.0774C97.3087 66.3217 97.5397 66.405 97.8221 66.2624C98.1045 66.1198 98.3355 65.9199 98.3355 65.8181ZM127.601 62.8975C128.307 62.7362 130.502 62.4468 132.479 62.2542C134.456 62.0617 136.882 61.7046 137.87 61.4607C138.858 61.2169 139.667 61.0331 139.667 61.0524C139.667 61.2132 143.184 60.3156 144.93 59.7093C147.579 58.7893 147.746 58.0826 145.315 58.0826C144.06 58.0826 143.518 57.8929 143.518 57.4534C143.518 56.8083 145.816 56.5533 149.63 56.7751C151.292 56.8717 156.033 56.1487 157.119 55.6332C157.93 55.2482 155.339 54.8141 151.959 54.7687C149.76 54.7389 147.886 55.0344 145.572 55.7755C143.77 56.3523 141.82 56.8271 141.238 56.8306C140.396 56.8359 140.332 56.9155 140.926 57.2224C141.336 57.4344 141.856 57.5147 142.081 57.401C142.307 57.2872 142.491 57.3728 142.491 57.5908C142.491 57.9664 141.367 58.2315 137.446 58.7814C136.506 58.9131 135.613 59.2865 135.46 59.6111C135.234 60.0938 135.036 60.1038 134.377 59.6664C133.701 59.2183 133.62 59.2387 133.873 59.7922C134.094 60.2758 133.878 60.4344 133.07 60.3832C132.463 60.3447 131.199 60.4844 130.262 60.6937C129.08 60.9576 128.333 60.9214 127.823 60.5757C127.41 60.2954 127.088 60.2584 127.088 60.4911C127.088 60.9539 123.176 62.2774 121.808 62.2774C121.323 62.2774 120.927 62.5355 120.927 62.8509C120.927 63.2779 121.615 63.3945 123.622 63.3075C125.105 63.2432 126.895 63.0588 127.601 62.8975ZM148.722 47.6848C148.352 47.5839 147.805 47.7007 147.507 47.9446C147.126 48.2558 147.326 48.3104 148.18 48.128C148.874 47.9796 149.107 47.7895 148.722 47.6848ZM768.882 46.0227C768.882 45.8497 768.18 45.668 767.323 45.619C766.432 45.5679 765.896 45.7024 766.071 45.9336C766.429 46.4067 768.884 46.4846 768.882 46.0227ZM150.193 43.3801L151.476 43.3479L150.279 42.9557C148.926 42.5126 146.599 42.8539 146.599 43.4954C146.599 43.7293 147.115 43.8053 147.754 43.6654C148.389 43.5263 149.487 43.3979 150.193 43.3801ZM764.776 43.4709C764.776 43.2787 764.429 43.1214 764.006 43.1214C763.582 43.1214 763.235 43.2787 763.235 43.4709C763.235 43.6632 763.582 43.8205 764.006 43.8205C764.429 43.8205 764.776 43.6632 764.776 43.4709ZM766.926 43.5339C766.555 43.4127 766.112 43.4277 765.942 43.567C765.771 43.7064 766.074 43.8055 766.616 43.7873C767.214 43.7672 767.335 43.6678 766.926 43.5339ZM159.017 42.695C158.647 42.5738 158.204 42.5887 158.033 42.728C157.863 42.8674 158.166 42.9666 158.707 42.9483C159.305 42.9283 159.427 42.8289 159.017 42.695ZM101.416 42.1426C101.416 41.9119 101.185 41.7231 100.903 41.7231C100.62 41.7231 100.389 41.9119 100.389 42.1426C100.389 42.3733 100.62 42.562 100.903 42.562C101.185 42.562 101.416 42.3733 101.416 42.1426ZM114.766 41.0425C114.766 40.5726 113.801 40.9846 113.525 41.5727C113.255 42.1484 113.33 42.1744 113.984 41.7311C114.414 41.4395 114.766 41.1296 114.766 41.0425ZM119.9 41.0939C119.9 40.7478 119.809 40.4647 119.698 40.4647C119.587 40.4647 119.363 40.7478 119.201 41.0939C119.038 41.44 119.129 41.7231 119.403 41.7231C119.676 41.7231 119.9 41.44 119.9 41.0939ZM792.084 26.755C791.713 26.6338 791.271 26.6487 791.1 26.788C790.929 26.9274 791.233 27.0266 791.774 27.0083C792.372 26.9883 792.494 26.8889 792.084 26.755ZM319.348 18.2615C319.51 18.0467 319.433 17.7646 319.175 17.6347C318.918 17.5047 318.575 17.6804 318.413 18.0252C318.094 18.7048 318.865 18.8997 319.348 18.2615ZM75.6424 198.292C75.3469 198.003 75.3068 197.762 75.5531 197.755C75.7995 197.748 75.5691 197.537 75.041 197.286C73.6864 196.643 74.8864 196.092 77.5414 196.138C78.928 196.162 79.2616 196.262 78.5683 196.446C77.59 196.706 76.8607 197.774 77.6697 197.762C79.1773 197.739 80.266 197.191 80.0311 196.573C79.8018 195.969 79.863 195.974 80.5083 196.614C81.3853 197.484 85.2924 197.644 85.6301 196.824C85.8016 196.407 86.0104 196.41 86.6443 196.838C87.6437 197.511 88.2336 199.149 87.3846 198.893C87.0539 198.793 86.8581 198.457 86.9496 198.146C87.0659 197.751 86.8303 197.793 86.1658 198.284C85.407 198.845 84.3056 198.969 80.6976 198.901C77.8285 198.847 75.9836 198.625 75.6424 198.292ZM68.5943 197.367C67.9104 197.022 68.2393 196.09 69.0451 196.09C69.6307 196.09 70.1449 197.274 69.6645 197.517C69.4516 197.624 68.97 197.557 68.5943 197.367ZM79.4576 193.992C78.8897 193.249 78.949 193.146 79.9759 193.089C80.6136 193.054 81.482 192.995 81.9056 192.957C83.2752 192.835 83.5329 193.218 82.6296 194.034C81.4885 195.064 80.2646 195.048 79.4576 193.992ZM390.481 190.871C390.481 190.769 390.712 190.569 390.994 190.427C391.277 190.284 391.508 190.367 391.508 190.612C391.508 190.856 391.277 191.056 390.994 191.056C390.712 191.056 390.481 190.973 390.481 190.871ZM396.505 190.584C396.853 190.298 397.268 190.169 397.426 190.298C397.584 190.427 397.299 190.662 396.792 190.819C396.061 191.047 396.002 190.999 396.505 190.584ZM120.927 189.429C120.927 189.227 121.283 188.82 121.719 188.524C122.334 188.107 122.648 188.099 123.126 188.49C123.605 188.882 123.572 189.082 122.976 189.389C122.008 189.889 120.927 189.91 120.927 189.429ZM700.596 185.603C700.596 185.372 700.929 185.183 701.336 185.183C701.743 185.183 702.219 185.372 702.393 185.603C702.568 185.833 702.235 186.022 701.653 186.022C701.072 186.022 700.596 185.833 700.596 185.603ZM691.868 185.157C691.868 184.68 693.247 184.631 693.599 185.096C693.737 185.279 693.404 185.456 692.859 185.49C692.314 185.523 691.868 185.374 691.868 185.157ZM182.69 184.48C182.228 183.497 182.932 183.352 184.707 184.067C185.632 184.44 186.159 184.773 185.876 184.808C183.713 185.074 182.931 184.993 182.69 184.48ZM626.661 183.505C626.661 183.275 626.763 183.086 626.888 183.086C627.012 183.086 627.257 183.275 627.432 183.505C627.606 183.736 627.504 183.925 627.205 183.925C626.906 183.925 626.661 183.736 626.661 183.505ZM619.259 183.142C619.038 182.85 618.996 182.497 619.165 182.359C619.625 181.983 620.126 182.536 619.878 183.144C619.704 183.57 619.583 183.57 619.259 183.142ZM621.142 183.228C620.091 182.881 620.415 182.307 621.527 182.545C622.092 182.666 622.554 182.931 622.554 183.135C622.554 183.535 622.154 183.561 621.142 183.228ZM867.292 181.128C866.701 180.646 866.918 180.15 867.72 180.15C868.143 180.15 868.49 180.433 868.49 180.779C868.49 181.434 867.883 181.611 867.292 181.128ZM230.098 178.559C229.96 178.376 230.297 178.199 230.849 178.165C231.4 178.131 231.717 178.28 231.553 178.497C231.189 178.978 230.439 179.01 230.098 178.559ZM234.726 177.838C234.887 177.495 235.399 177.199 235.863 177.181C236.327 177.163 237.746 177.064 239.017 176.96C240.683 176.823 241.113 176.889 240.557 177.195C239.922 177.546 239.914 177.621 240.515 177.626C240.915 177.63 241.098 177.75 240.922 177.894C240.746 178.038 239.214 178.225 237.517 178.309C234.947 178.438 234.481 178.359 234.726 177.838ZM25.1928 176.823C24.8131 176.321 25.779 175.824 26.4629 176.169C27.0371 176.459 26.6601 177.213 25.941 177.213C25.692 177.213 25.3553 177.038 25.1928 176.823ZM30.0485 165.912C30.0485 165.695 30.2769 165.402 30.5561 165.261C30.8472 165.114 30.9332 165.283 30.7579 165.656C30.4166 166.383 30.0485 166.516 30.0485 165.912ZM33.8137 165.696C33.8137 165.36 34.01 165.185 34.25 165.306C34.4899 165.427 34.5533 165.702 34.3908 165.916C33.9756 166.465 33.8137 166.403 33.8137 165.696ZM928.562 110.936C928.138 110.713 928.023 110.53 928.305 110.53C928.588 110.53 929.165 110.713 929.589 110.936C930.012 111.16 930.128 111.343 929.845 111.343C929.563 111.343 928.986 111.16 928.562 110.936ZM84.9862 79.806C84.9862 79.6243 85.4483 79.4758 86.0131 79.4758C86.5779 79.4758 87.0399 79.6528 87.0399 79.8691C87.0399 80.0855 86.5779 80.2341 86.0131 80.1994C85.4483 80.1646 84.9862 79.9876 84.9862 79.806ZM106.487 73.6456L105.283 72.8491L108.356 72.5158C110.046 72.3326 112.641 72.1719 114.123 72.1588C115.605 72.1456 116.818 72.0065 116.819 71.8496C116.819 71.523 119.877 72.1735 120.355 72.6017C120.528 72.7573 119.957 72.7741 119.086 72.639C118.111 72.4878 116.927 72.6421 116.006 73.0397C115.182 73.3952 113.296 73.7043 111.813 73.7266C110.331 73.749 109.118 73.9191 109.118 74.1047C109.118 74.706 107.722 74.4623 106.487 73.6456ZM100.015 73.7691C100.186 73.6298 100.628 73.6148 100.999 73.7361C101.409 73.87 101.287 73.9694 100.689 73.9895C100.148 74.0077 99.8443 73.9085 100.015 73.7691ZM90.6745 67.9752C90.6523 67.533 90.7736 67.2852 90.9442 67.4246C91.1148 67.564 91.133 67.9258 90.9847 68.2286C90.8208 68.5632 90.6992 68.4638 90.6745 67.9752ZM104.697 64.4495C104.84 64.2599 104.485 63.7741 103.907 63.3699C102.873 62.6466 102.907 62.6151 106.033 61.4074C109.798 59.9527 110.145 59.92 110.145 61.0189C110.145 61.5358 109.8 61.8603 109.246 61.8642C108.518 61.8695 108.485 61.9419 109.074 62.2463C109.473 62.4529 110.224 62.5552 110.743 62.4737C111.261 62.3922 111.685 62.5178 111.685 62.753C111.685 62.9881 110.934 63.1469 110.016 63.1059C109.098 63.0648 107.885 63.0533 107.321 63.0803C106.465 63.121 106.422 63.197 107.064 63.5358C107.722 63.8833 107.703 63.9434 106.936 63.9488C106.441 63.9526 106.037 64.1441 106.037 64.3748C106.037 64.6055 105.677 64.7942 105.237 64.7942C104.796 64.7942 104.554 64.639 104.697 64.4495ZM111.262 61.0646C110.746 60.8039 110.766 60.629 111.358 60.2274C112.189 59.6641 112.851 60.1561 112.279 60.9119C112.075 61.1814 111.627 61.2487 111.262 61.0646ZM93.4579 43.4009C93.2834 43.1702 93.4872 42.9815 93.9107 42.9815C94.3343 42.9815 94.8237 43.1702 94.9982 43.4009C95.1727 43.6317 94.969 43.8204 94.5454 43.8204C94.1218 43.8204 93.6324 43.6317 93.4579 43.4009ZM103.974 41.5229C104.713 40.795 105.01 40.7193 105.01 41.2587C105.01 41.4647 104.631 41.7522 104.167 41.8975C103.463 42.1184 103.431 42.0571 103.974 41.5229ZM829.613 34.7535C830.215 34.2618 833.503 33.8765 834.166 34.2199C834.548 34.4175 834.629 34.6008 834.346 34.6272C831.583 34.886 829.379 34.9448 829.613 34.7535ZM826.496 34.236C826.069 34.0148 826.389 33.8929 827.395 33.8929C828.253 33.8929 828.955 34.0502 828.955 34.2424C828.955 34.6889 827.362 34.6851 826.496 34.236ZM813.296 33.7005C811.097 33.2985 805.762 33.0102 795.792 32.7547C792.378 32.6672 789.09 32.3796 788.487 32.1157C787.83 31.8284 785.529 31.6823 782.757 31.7517C780.209 31.8155 778.125 31.8247 778.125 31.7721C778.125 31.6261 781.112 30.3969 781.467 30.3969C781.639 30.3969 781.637 30.5857 781.463 30.8164C781.277 31.0611 781.8 31.2359 782.716 31.2359C783.58 31.2359 784.286 31.0471 784.286 30.8164C784.286 30.5857 784.531 30.3969 784.83 30.3969C785.129 30.3969 785.2 30.6329 784.988 30.9213C784.703 31.309 784.796 31.3349 785.343 31.0208C785.75 30.7872 786.546 30.6177 787.11 30.6442C787.675 30.6705 789.364 30.7202 790.863 30.7543C792.362 30.7885 793.482 30.958 793.351 31.131C793.219 31.304 794.534 31.418 796.272 31.3842C798.011 31.3501 799.837 31.4987 800.331 31.7136C800.931 31.9744 801.23 31.9517 801.23 31.6454C801.23 31.393 801.509 31.3275 801.851 31.4998C802.192 31.6722 804.445 31.8647 806.857 31.9277C809.268 31.9906 811.242 32.0644 811.242 32.0918C811.242 32.1192 812.397 32.2026 813.809 32.2774C815.221 32.3522 816.434 32.4552 816.505 32.5063C816.625 32.5935 817.154 32.7206 818.045 32.8763C818.453 32.9477 816.043 34.166 815.606 34.1092C815.465 34.0906 814.425 33.907 813.296 33.7005ZM792.501 31.6032C792.501 31.4014 792.053 31.2362 791.505 31.2362C790.957 31.2362 790.383 31.4014 790.23 31.6032C790.078 31.8051 790.526 31.9702 791.227 31.9702C791.928 31.9702 792.501 31.8051 792.501 31.6032ZM819.965 30.3904C819.788 30.1559 819.427 30.0727 819.164 30.2054C818.902 30.3382 818.687 30.258 818.687 30.0273C818.687 29.2151 819.515 29.2023 820.128 30.005C820.47 30.4515 820.645 30.8168 820.518 30.8168C820.391 30.8168 820.142 30.6248 819.965 30.3904ZM808.974 28.7543C808.433 28.3121 807.883 28.0379 807.752 28.1448C807.621 28.2518 806.389 28.4026 805.014 28.48C802.632 28.614 799.678 27.7498 800.427 27.138C801.026 26.6482 804.572 26.7628 805.347 27.297C806.14 27.8439 807.585 27.862 808.232 27.333C808.777 26.8879 811.396 26.9855 811.758 27.4644C812.251 28.1164 811.518 29.558 810.694 29.558C810.289 29.558 809.515 29.1965 808.974 28.7543ZM814.273 29.074C814.055 28.7849 814.132 28.7031 814.464 28.8711C814.771 29.0259 815.167 28.9606 815.344 28.7262C815.822 28.0937 816.462 28.2098 816.462 28.9291C816.462 29.668 814.806 29.7776 814.273 29.074ZM213.998 25.9491C214.168 25.8097 214.611 25.7948 214.982 25.916C215.391 26.0499 215.27 26.1493 214.672 26.1695C214.13 26.1876 213.827 26.0885 213.998 25.9491ZM317.573 14.0377C317.573 13.807 317.675 13.6183 317.799 13.6183C317.924 13.6183 318.168 13.807 318.343 14.0377C318.517 14.2684 318.416 14.4572 318.117 14.4572C317.817 14.4572 317.573 14.2684 317.573 14.0377ZM329.545 14.0802C328.716 13.5827 328.915 12.8678 329.827 13.0627C330.409 13.1871 330.783 13.016 330.837 12.6003C330.884 12.2373 330.961 11.6572 331.008 11.3112C331.055 10.9651 331.517 10.6584 332.035 10.6295C332.552 10.6006 333.149 10.5381 333.361 10.4905C333.573 10.4428 334.439 10.2516 335.286 10.0656C337.17 9.65192 338.193 9.03398 337.818 8.53706C337.663 8.3325 337.993 8.16514 338.551 8.16514C339.109 8.16514 339.682 8.40106 339.825 8.68948C340.006 9.05379 340.215 9.07641 340.51 8.76377C341.264 7.96394 342.836 7.7143 343.665 8.26283C344.331 8.70309 344.393 8.6921 344.029 8.19869C343.695 7.74626 343.805 7.67061 344.486 7.88408C344.979 8.03868 345.694 8.16512 346.076 8.16512C346.457 8.16512 346.909 8.52325 347.079 8.961C347.277 9.4726 347.718 9.68636 348.311 9.55956C349.622 9.27956 349.486 8.24239 348.165 8.44102C347.121 8.59795 347.12 8.59222 348.122 8.20319C348.687 7.98397 349.931 7.79134 350.887 7.77513C351.843 7.75879 354.038 7.5605 355.765 7.3342C360.24 6.74776 371.492 5.72006 376.618 5.42949C379.018 5.29348 382.022 5.10736 383.293 5.01587C385.97 4.82318 391.255 4.51643 398.182 4.15174C400.865 4.0105 404.562 3.79097 406.397 3.66394C410.809 3.35862 417.753 3.33584 418.72 3.62368C419.143 3.74981 420.472 3.99793 421.672 4.17512C422.872 4.35227 423.854 4.63612 423.854 4.80589C423.854 4.97562 423.283 5.58121 422.585 6.15155C421.551 6.99582 420.835 7.18092 418.732 7.1473C417.196 7.12246 416.218 7.27823 416.321 7.5308C416.417 7.76438 418.274 7.97106 420.448 7.99003C423.862 8.01974 426.136 8.56248 425.36 9.16213C425.013 9.43044 418.206 9.69555 418.207 9.44075C418.208 9.31598 416.649 9.27296 414.742 9.34512C412.835 9.4173 409.949 9.30494 408.329 9.09493C406.709 8.88513 405.274 8.80303 405.14 8.91251C405.006 9.02192 403.906 9.15129 402.695 9.19997C401.484 9.24867 399.854 9.43431 399.074 9.61261C398.23 9.80542 397.391 9.75764 397.003 9.49468C396.645 9.25153 394.117 9.00894 391.387 8.9556C388.007 8.88965 386.528 8.71454 386.753 8.40705C386.935 8.15875 386.692 8.21544 386.212 8.53312C385.613 8.93042 384.689 9.02555 383.252 8.83783C381.88 8.65864 381.275 8.71236 381.488 8.99432C381.852 9.47491 381.784 9.48411 377.131 9.58625C375.296 9.62652 373.274 9.80792 372.639 9.98934C372.003 10.1708 371.484 10.1649 371.484 9.97633C371.484 9.78775 370.906 9.63346 370.2 9.63346C369.494 9.63346 368.916 9.77503 368.916 9.94806C368.916 10.1211 368.556 10.2627 368.116 10.2627C367.676 10.2627 367.436 10.1033 367.584 9.9083C367.94 9.43724 362.665 10.1291 362.283 10.6036C361.582 11.4723 351.973 12.3527 351.973 11.5482C351.973 11.3026 351.728 11.1016 351.429 11.1016C351.13 11.1016 351.018 11.2774 351.181 11.4921C351.645 12.1061 350.464 12.4841 349.7 11.966C349.187 11.6185 348.947 11.6397 348.754 12.0494C348.588 12.4031 347.743 12.5647 346.384 12.5025C345.222 12.4495 344.271 12.5824 344.271 12.7979C344.271 13.4916 341.634 13.036 341.121 12.2539C340.849 11.8379 340.403 11.6103 340.13 11.7481C339.857 11.8858 339.752 12.1545 339.896 12.3451C340.04 12.5357 339.82 12.7976 339.407 12.927C338.994 13.0565 338.518 12.9789 338.348 12.7546C338.16 12.5059 337.502 12.5914 336.663 12.9734C335.084 13.6924 330.171 14.4561 329.545 14.0802ZM322.194 12.1749C322.194 11.4381 322.502 11.3296 322.942 11.9114C323.104 12.1262 323.002 12.4205 322.716 12.5654C322.429 12.7103 322.194 12.535 322.194 12.1749ZM324.129 11.4503C324.427 11.2065 324.974 11.0896 325.345 11.1905C325.729 11.2952 325.496 11.4854 324.802 11.6337C323.948 11.8161 323.748 11.7615 324.129 11.4503ZM500.998 10.3859C500.363 10.286 499.843 10.0601 499.843 9.88397C499.843 9.37063 502.074 9.64968 502.295 10.1906C502.405 10.4609 502.418 10.6562 502.324 10.6248C502.23 10.5933 501.633 10.4859 500.998 10.3859ZM490.344 9.42352C491.756 8.92802 492.566 8.92802 491.628 9.42352C491.204 9.6472 490.511 9.81983 490.087 9.80711C489.58 9.79191 489.667 9.66125 490.344 9.42352ZM493.454 9.46257C493.296 9.25336 493.629 9.18102 494.194 9.30178C495.393 9.55792 495.545 9.84296 494.482 9.84296C494.075 9.84296 493.613 9.67177 493.454 9.46257ZM427.357 8.5133C426.548 7.84965 426.915 7.80363 433.261 7.77239C436.983 7.75385 440.542 7.65774 441.172 7.55835C441.801 7.45896 442.436 7.53608 442.582 7.72963C442.729 7.92322 443.556 8.04162 444.42 7.99272C446.756 7.8606 446.767 8.47131 444.432 8.65328C443.328 8.73932 442.534 8.66445 442.668 8.48737C443.089 7.9302 442.299 8.13692 441.494 8.79426C440.621 9.50788 438.452 9.63636 437.973 9.00288C437.761 8.72359 437.316 8.73008 436.648 9.02217C435.511 9.51919 434.441 9.18143 434.964 8.4906C435.192 8.1885 435.066 8.15977 434.587 8.40515C434.191 8.60857 432.595 8.87532 431.042 8.99794C428.82 9.17335 428.035 9.07026 427.357 8.5133ZM468.523 9.00394C468.523 8.77325 468.625 8.58451 468.749 8.58451C468.874 8.58451 469.119 8.77325 469.293 9.00394C469.468 9.23467 469.366 9.42343 469.067 9.42343C468.768 9.42343 468.523 9.23467 468.523 9.00394ZM447.986 8.165C447.523 7.92069 447.46 7.75579 447.827 7.75194C448.163 7.74814 448.581 7.93428 448.756 8.165C449.15 8.68581 448.972 8.68581 447.986 8.165ZM648.526 8.1078C648.791 7.75661 646.835 7.34352 646.439 7.66721C645.887 8.1182 643.605 8.2034 643.605 7.77297C643.605 7.50674 642.144 7.44259 639.626 7.5983C636.538 7.78922 635.244 7.69083 633.849 7.15952C632.861 6.78292 632.442 6.56132 632.918 6.66709C633.394 6.77287 633.856 6.69528 633.945 6.49495C634.034 6.29454 634.453 6.06921 634.876 5.9942C635.3 5.91928 635.816 5.66912 636.024 5.43839C636.231 5.20767 636.404 5.43231 636.409 5.93787C636.416 6.80657 636.494 6.82386 637.829 6.2542C639.095 5.71361 639.314 5.72696 639.951 6.38393C640.628 7.08048 640.647 7.0804 640.353 6.38393C640.114 5.81741 640.326 5.64986 641.285 5.64986C641.968 5.64986 642.762 5.98021 643.05 6.38393C643.341 6.79132 643.581 6.88466 643.589 6.59368C643.606 6.04438 645.145 5.83682 645.145 6.38393C645.145 6.55696 646.892 6.68762 649.027 6.67431C651.161 6.66093 653.023 6.80252 653.164 6.98891C653.305 7.17526 653.915 7.32773 654.52 7.32773C655.399 7.32773 655.491 7.43261 654.977 7.85206C654.335 8.37706 648.136 8.62442 648.526 8.10951V8.1078ZM656.954 8.09518C656.954 7.9029 657.127 7.73288 657.339 7.7173C657.551 7.70172 658.464 7.60997 659.367 7.51343C661.398 7.29629 662.122 8.01591 660.168 8.30992C658.236 8.6006 656.954 8.515 656.954 8.09518ZM619.987 6.69689C619.987 6.46621 619.121 6.27745 618.062 6.27745C617.003 6.27745 615.966 6.46621 615.759 6.69689C615.507 6.97655 615.379 6.97655 615.373 6.69689C615.361 6.17137 612.285 6.04706 612.285 6.57216C612.285 6.78338 612.075 6.85016 611.819 6.72056C611.33 6.47367 606.813 6.07724 602.016 5.86017C600.463 5.78989 599.193 5.69001 599.193 5.63818C599.193 5.35703 592.437 5.35269 592.005 5.63361C591.233 6.13502 586.1 6.48483 586.1 6.03596C586.1 5.82271 585.753 5.64826 585.33 5.64826C584.906 5.64826 584.56 5.8304 584.56 6.05307C584.56 6.30579 580.943 6.38325 574.933 6.25934C569.638 6.1502 564.748 6.06285 564.067 6.06526C563.386 6.06906 562.058 5.89562 561.115 5.683C560.084 5.45053 559.401 5.44908 559.401 5.67919C559.401 6.0604 557.606 5.99865 557.118 5.60068C556.978 5.4859 554.641 5.45907 551.926 5.54111C548.654 5.63999 546.745 5.52442 546.264 5.19833C545.699 4.81516 545.537 4.8337 545.531 5.28209C545.525 5.64582 545.384 5.69647 545.146 5.41959C544.919 5.15659 541.998 4.96055 537.837 4.9292C534.025 4.90063 522.472 4.76892 512.165 4.63699C501.858 4.5051 488.631 4.372 482.771 4.34128C476.911 4.31089 472.117 4.16732 472.116 4.02297C472.115 3.87853 470.844 3.7604 469.292 3.7604C467.739 3.7604 466.469 3.90198 466.469 4.07501C466.469 4.24805 466.225 4.38963 465.926 4.38963C465.626 4.38963 465.525 4.20085 465.699 3.97013C465.874 3.73944 465.656 3.55068 465.216 3.55068C464.776 3.55087 464.416 3.36211 464.416 3.13142C464.416 2.9007 464.171 2.71193 463.872 2.71193C463.573 2.71193 463.471 2.9007 463.645 3.13142C463.833 3.37917 463.267 3.54827 462.264 3.54445C460.978 3.53913 460.752 3.43916 461.335 3.13142C461.904 2.83109 461.928 2.7231 461.427 2.71835C460.904 2.71303 460.925 2.56728 461.518 2.08271C461.942 1.73665 462.767 1.4535 463.352 1.4535C463.937 1.4535 464.416 1.25201 464.416 1.00574C464.416 0.740143 464.859 0.673115 465.507 0.840993C466.241 1.03139 466.483 0.972021 466.247 0.659529C466.053 0.40406 466.032 0.195074 466.199 0.195074C466.366 0.195074 466.678 0.58329 466.893 1.0578L467.284 1.92055L468.638 1.05041C469.566 0.453994 470.104 0.328631 470.348 0.651958C470.601 0.986371 470.83 0.958034 471.136 0.554502C471.485 0.0919782 475.008 -0.0117199 489.94 0.00100686C500.046 0.00989657 512.473 0.137874 517.556 0.286119C522.639 0.434334 531.072 0.665052 536.297 0.798839C555.161 1.2818 560.02 1.45733 560.443 1.67077C561.388 2.14768 565.525 2.57073 566.151 2.25442C566.537 2.0595 566.987 2.12909 567.218 2.41948C567.515 2.79422 567.745 2.76198 568.122 2.29244C568.4 1.94638 568.631 1.85199 568.636 2.08271C568.641 2.34746 571.817 2.48348 577.244 2.4515C585.821 2.40089 600.476 3.07803 600.477 3.52502C600.477 3.6546 602.268 3.73937 604.456 3.71347C608.206 3.66902 616.844 4.24308 618.376 4.63857C618.941 4.78448 618.952 4.94129 618.432 5.45312C617.908 5.96892 617.921 6.05263 618.502 5.90263C618.895 5.80128 619.861 5.60264 620.65 5.46126C621.532 5.30284 621.969 5.00762 621.786 4.69213C621.622 4.41051 621.758 4.47557 622.087 4.83663C622.571 5.36764 623.231 5.43276 625.537 5.17714C627.158 4.99739 628.776 5.03081 629.288 5.25463C629.783 5.47115 630.839 5.67396 631.634 5.70537C632.965 5.75795 632.982 5.77755 631.841 5.9532C630.883 6.10078 630.766 6.22873 631.328 6.51886C632.121 6.92936 631.454 6.98078 624.223 7.06633C621.7 7.09604 619.987 6.94672 619.987 6.69689ZM470.764 2.92406C470.602 2.57929 470.262 2.4017 470.01 2.52936C469.285 2.89539 469.474 3.55083 470.304 3.55083C470.762 3.55083 470.942 3.30478 470.764 2.92406ZM440.818 4.35798C441.347 3.55131 441.315 3.45971 440.589 3.68755C439.864 3.91482 439.831 3.82295 440.353 3.02568L440.96 2.09993L441.47 3.03515C442.057 4.10811 443.117 4.26412 443.55 3.3411C443.713 2.99504 443.661 2.71189 443.434 2.71189C443.208 2.71189 443.022 2.42644 443.022 2.07752C443.022 1.56176 443.486 1.49341 445.504 1.71209C447.199 1.8958 447.986 1.831 447.986 1.50756C447.986 1.24452 448.798 1.03402 449.813 1.03402C451.011 1.03402 451.52 1.19291 451.291 1.49534C451.043 1.8233 451.254 1.82053 452.02 1.4857C452.915 1.09433 453.046 1.12271 452.797 1.65357C452.632 2.00495 452.29 2.29247 452.038 2.29247C451.786 2.29247 451.58 2.48123 451.58 2.71191C451.58 3.58632 452.508 3.08095 453.12 1.87297C453.834 0.46418 453.853 0.456436 455.14 1.0192C455.789 1.30309 455.99 1.74636 455.812 2.50476C455.673 3.09928 455.761 3.53071 456.008 3.46342C456.255 3.39618 456.573 3.52556 456.714 3.75108C456.866 3.99357 455.645 4.19009 453.727 4.2322C450.761 4.29724 450.434 4.217 449.922 3.29791C449.369 2.3069 447.472 1.87232 447.472 2.73667C447.472 2.98104 447.701 3.06558 447.98 2.92465C448.266 2.77999 448.359 2.94061 448.194 3.29286C448.023 3.65778 447.563 3.8116 447.089 3.66283C446.561 3.4974 446.403 3.57576 446.639 3.8868C447.052 4.4328 445.345 4.83595 443.365 4.66036C442.659 4.59783 441.659 4.71439 441.144 4.91944C440.304 5.25351 440.27 5.19521 440.818 4.35798ZM454.864 2.78182C455.01 2.58957 454.802 2.43227 454.404 2.43227C454.005 2.43227 453.798 2.58957 453.943 2.78182C454.088 2.97407 454.296 3.13139 454.404 3.13139C454.511 3.13139 454.719 2.97407 454.864 2.78182ZM433.902 4.43747C433.748 4.23298 434.081 3.96735 434.644 3.84711C435.326 3.7015 435.563 3.4054 435.354 2.9605C435.181 2.59306 435.257 2.29243 435.523 2.29243C436.227 2.29243 436.113 3.66268 435.358 4.27995C434.591 4.90605 434.282 4.93951 433.902 4.43747ZM437.051 3.27121C437.195 2.96358 437.379 2.71189 437.46 2.71189C437.541 2.71189 437.725 2.96358 437.87 3.27121C438.014 3.57884 437.83 3.83052 437.46 3.83052C437.09 3.83052 436.906 3.57884 437.051 3.27121ZM439.031 2.09603C439.579 1.75731 440.534 1.47417 441.152 1.46682C442.377 1.45201 443.157 2.08839 442.39 2.47582C442.127 2.60853 441.824 2.50028 441.715 2.23489C441.567 1.8725 441.246 1.8718 440.422 2.2311C438.843 2.92119 437.851 2.82395 439.031 2.09486V2.09603ZM432.208 2.03897C432.379 1.89958 432.822 1.88467 433.192 2.00592C433.602 2.13981 433.48 2.23922 432.882 2.25932C432.341 2.27748 432.038 2.17836 432.208 2.03897ZM459.281 1.87291C458.623 1.52543 458.642 1.46534 459.41 1.45984C459.904 1.45604 460.308 1.64218 460.308 1.87291C460.308 2.38452 460.25 2.38452 459.281 1.87291ZM456.524 1.23402C456.279 0.712725 456.411 0.676819 457.239 1.03903C458.429 1.55942 458.542 1.87291 457.539 1.87291C457.146 1.87291 456.689 1.58539 456.524 1.23402Z" fill="#C0FF72"/>
</svg>
