<svg width="91" height="23" viewBox="0 0 91 23" fill="none" xmlns="http://www.w3.org/2000/svg">
<path fill-rule="evenodd" clip-rule="evenodd" d="M20.896 10.0296C20.896 15.5687 16.4057 20.0591 10.8665 20.0591C5.32734 20.0591 0.836958 15.5687 0.836958 10.0296C0.836958 9.18928 0.940286 8.37316 1.13493 7.59319C0.439397 6.55731 0 5.22081 0 3.51038C0.846468 3.318 2.02106 3.2505 3.24582 3.50875C5.08531 1.36101 7.81696 0 10.8665 0C11.0095 0 11.1519 0.00299405 11.2934 0.00892305C8.39974 0.135358 5.85324 1.59942 4.25695 3.7981C6.25513 4.53091 8.18514 6.26624 8.85943 9.86238C7.74503 8.74802 5.11506 6.41891 3.51034 6.01773C5.07049 6.79781 8.6254 9.36088 10.3639 13.3727C11.8126 11.3668 15.7129 7.22128 19.7248 6.68637C18.6661 6.63065 16.0473 6.98725 14.0414 8.85943C14.6543 6.96497 17.0836 3.67751 21.8978 5.68341C21.2849 7.46644 18.9558 10.6982 14.5428 9.36088C13.1503 10.1964 10.5662 12.6356 11.366 18.3815C11.4774 18.3855 11.5893 18.3875 11.7017 18.3875C16.6447 18.3875 20.6766 14.4866 20.8868 9.59528C20.8929 9.73928 20.896 9.88398 20.896 10.0296ZM9.86458 18.204C5.66729 17.3528 2.50792 13.6422 2.50792 9.19377C2.50792 9.14941 2.50824 9.10512 2.50886 9.06091C4.39282 10.5338 6.91507 10.9285 8.52511 10.8654C10.1245 13.3175 10.0855 16.5495 9.86458 18.204Z" fill="#62A111"/>
<path d="M27.3694 18.3218C27.0052 18.3218 26.7219 18.2274 26.5196 18.0385C26.3308 17.8362 26.2363 17.5529 26.2363 17.1887V5.19002C26.2363 4.82582 26.3308 4.54929 26.5196 4.36044C26.7219 4.1581 27.0052 4.05693 27.3694 4.05693H34.7548C35.0381 4.05693 35.2539 4.13112 35.4023 4.2795C35.5506 4.41439 35.6248 4.61673 35.6248 4.88652C35.6248 5.16979 35.5506 5.38562 35.4023 5.534C35.2539 5.68238 35.0381 5.75657 34.7548 5.75657H28.2597V10.2283H34.3096C34.6064 10.2283 34.8222 10.3025 34.9571 10.4508C35.1055 10.5992 35.1797 10.8083 35.1797 11.0781C35.1797 11.3614 35.1055 11.5772 34.9571 11.7256C34.8222 11.8605 34.6064 11.9279 34.3096 11.9279H28.2597V16.6222H34.7548C35.0381 16.6222 35.2539 16.6964 35.4023 16.8447C35.5506 16.9931 35.6248 17.2022 35.6248 17.472C35.6248 17.7553 35.5506 17.9711 35.4023 18.1195C35.2539 18.2544 35.0381 18.3218 34.7548 18.3218H27.3694Z" fill="#62A111"/>
<path d="M42.2 18.5039C41.1884 18.5039 40.3116 18.2948 39.5696 17.8767C38.8412 17.445 38.2747 16.8447 37.87 16.0759C37.4653 15.2935 37.263 14.3762 37.263 13.3241C37.263 12.5417 37.3776 11.8402 37.607 11.2197C37.8363 10.5857 38.16 10.0529 38.5782 9.62128C39.0098 9.18958 39.5292 8.8591 40.1362 8.62978C40.7567 8.38697 41.4446 8.26557 42.2 8.26557C42.6722 8.26557 43.1645 8.33976 43.6771 8.48814C44.2032 8.62303 44.6888 8.85235 45.134 9.17609C45.3093 9.28398 45.4172 9.41888 45.4577 9.58078C45.5117 9.72918 45.5184 9.88428 45.4779 10.0462C45.4509 10.208 45.3768 10.3497 45.2554 10.4711C45.1474 10.579 45.0126 10.6464 44.8507 10.6734C44.6888 10.6869 44.5134 10.6397 44.3246 10.5318C44.0009 10.3025 43.6704 10.1406 43.3331 10.0462C42.9959 9.93828 42.6722 9.88428 42.3619 9.88428C41.8763 9.88428 41.4446 9.96518 41.0669 10.1271C40.7027 10.2755 40.3925 10.4981 40.1362 10.7948C39.8799 11.0781 39.6843 11.4356 39.5494 11.8672C39.428 12.2989 39.3673 12.7912 39.3673 13.3443C39.3673 14.4504 39.6236 15.3205 40.1362 15.9545C40.6623 16.575 41.4042 16.8852 42.3619 16.8852C42.6722 16.8852 42.9959 16.838 43.3331 16.7436C43.6704 16.6491 44.0009 16.4873 44.3246 16.258C44.5134 16.15 44.6888 16.1096 44.8507 16.1366C45.0126 16.1635 45.1407 16.2377 45.2351 16.3591C45.343 16.467 45.4105 16.6019 45.4375 16.7638C45.4779 16.9122 45.4712 17.0673 45.4172 17.2292C45.3633 17.3911 45.2486 17.5259 45.0733 17.6339C44.6416 17.9441 44.1695 18.1667 43.6569 18.3016C43.1578 18.4365 42.6722 18.5039 42.2 18.5039Z" fill="#62A111"/>
<path d="M51.3868 18.5039C50.3886 18.5039 49.5253 18.2948 48.7969 17.8767C48.082 17.4585 47.5222 16.865 47.1175 16.0961C46.7128 15.3272 46.5105 14.4234 46.5105 13.3848C46.5105 12.5889 46.6251 11.8807 46.8545 11.2602C47.0838 10.6397 47.4075 10.1069 47.8257 9.66168C48.2573 9.20307 48.7699 8.8591 49.3635 8.62978C49.9705 8.38697 50.6449 8.26557 51.3868 8.26557C52.3716 8.26557 53.2214 8.47465 53.9363 8.89282C54.6647 9.31098 55.2313 9.90448 55.636 10.6734C56.0406 11.4288 56.243 12.3326 56.243 13.3848C56.243 14.1671 56.1283 14.8753 55.899 15.5093C55.6697 16.1433 55.3392 16.6829 54.9075 17.128C54.4894 17.5732 53.9768 17.9171 53.3698 18.1599C52.7762 18.3893 52.1153 18.5039 51.3868 18.5039ZM51.3868 16.9257C51.9399 16.9257 52.4255 16.7908 52.8437 16.521C53.2618 16.2512 53.5856 15.8533 53.8149 15.3272C54.0577 14.8011 54.1791 14.1536 54.1791 13.3848C54.1791 12.2247 53.9228 11.3479 53.4102 10.7544C52.8976 10.1608 52.2232 9.86408 51.3868 9.86408C50.8203 9.86408 50.3279 9.99898 49.9098 10.2687C49.4916 10.525 49.1611 10.9162 48.9183 11.4423C48.689 11.9684 48.5743 12.6159 48.5743 13.3848C48.5743 14.5313 48.8306 15.4081 49.3432 16.0152C49.8558 16.6222 50.537 16.9257 51.3868 16.9257Z" fill="#62A111"/>
<g clip-path="url(#clip0_4_38)">
<path d="M61.9915 18.2229H58.5181C57.9658 18.2229 57.5181 17.7752 57.5181 17.2229V5.40469C57.5181 4.85241 57.9658 4.40469 58.5181 4.40469H62.1332C63.4871 4.40469 64.6499 4.68133 65.6215 5.2346C66.593 5.78337 67.3375 6.57278 67.8548 7.60285C68.3765 8.62842 68.6374 9.85865 68.6374 11.2935C68.6374 12.7329 68.3743 13.9699 67.848 15.0045C67.3262 16.0391 66.5706 16.8352 65.581 17.393C64.5914 17.9463 63.3949 18.2229 61.9915 18.2229ZM59.603 15.4012C59.603 15.9535 60.0507 16.4012 60.603 16.4012H61.8768C62.9293 16.4012 63.8042 16.2033 64.5014 15.8074C65.1986 15.4071 65.7204 14.8291 66.0668 14.0734C66.4131 13.3132 66.5863 12.3866 66.5863 11.2935C66.5863 10.2095 66.4131 9.28964 66.0668 8.53396C65.7249 7.77828 65.2144 7.20477 64.5352 6.81343C63.8559 6.4221 63.0126 6.22643 62.005 6.22643H60.603C60.0507 6.22643 59.603 6.67414 59.603 7.22643V15.4012ZM74.0841 18.4523C73.4273 18.4523 72.8336 18.3309 72.3028 18.088C71.772 17.8406 71.3515 17.483 71.0411 17.0152C70.7352 16.5474 70.5823 15.9738 70.5823 15.2946C70.5823 14.7099 70.6948 14.2286 70.9197 13.8507C71.1446 13.4729 71.4482 13.1738 71.8305 12.9533C72.2129 12.7329 72.6402 12.5665 73.1125 12.4541C73.5848 12.3416 74.0661 12.2561 74.5564 12.1977C75.1771 12.1257 75.6809 12.0672 76.0677 12.0222C76.4546 11.9728 76.7357 11.894 76.9111 11.7861C77.0866 11.6781 77.1743 11.5027 77.1743 11.2598V11.2126C77.1743 10.6233 77.0078 10.1668 76.675 9.84291C76.3466 9.51904 75.8563 9.35711 75.2041 9.35711C74.5249 9.35711 73.9896 9.5078 73.5983 9.80917C73.4719 9.90614 73.3583 10.0067 73.2574 10.1109C72.922 10.457 72.4505 10.7225 71.9806 10.6154V10.6154C71.4055 10.4844 71.061 9.86574 71.4029 9.38507C71.5458 9.18416 71.7064 9.00391 71.8845 8.84433C72.3208 8.45299 72.8224 8.16961 73.3891 7.99419C73.9559 7.81426 74.5519 7.7243 75.1771 7.7243C75.5909 7.7243 76.0295 7.77378 76.4928 7.87274C76.9606 7.9672 77.3969 8.14262 77.8018 8.39902C78.2111 8.65541 78.5462 9.022 78.8071 9.4988C79.068 9.9711 79.1984 10.5851 79.1984 11.3408V17.2378C79.1984 17.7818 78.7574 18.2229 78.2133 18.2229H77.9367C77.5454 18.2229 77.2282 17.9057 77.2282 17.5144V16.856C77.2282 16.8284 77.2058 16.806 77.1782 16.806V16.806C77.1593 16.806 77.142 16.8167 77.1333 16.8335C77.003 17.0849 76.812 17.3321 76.5603 17.5752C76.2994 17.8271 75.9643 18.0362 75.555 18.2027C75.1456 18.3691 74.6553 18.4523 74.0841 18.4523ZM74.5226 16.833C75.0804 16.833 75.5572 16.7228 75.953 16.5024C76.3534 16.282 76.657 15.9941 76.8639 15.6387C77.0753 15.2789 77.181 14.8943 77.181 14.485V13.6176C77.181 13.4447 76.9282 13.3011 76.7627 13.3514V13.3514C76.5603 13.4099 76.3286 13.4616 76.0677 13.5066C75.8068 13.5471 75.5527 13.5853 75.3053 13.6213C75.0579 13.6528 74.851 13.6798 74.6846 13.7023C74.2932 13.7518 73.9356 13.835 73.6118 13.9519C73.2924 14.0689 73.036 14.2376 72.8426 14.458C72.6537 14.6739 72.5592 14.9618 72.5592 15.3216C72.5592 15.8209 72.7436 16.1988 73.1125 16.4551C73.4813 16.707 73.9514 16.833 74.5226 16.833ZM82.7896 22.1093C82.4882 22.1093 82.2138 22.0845 81.9664 22.035V22.035C81.6431 21.9763 81.4824 21.6512 81.575 21.3359L81.6428 21.1052C81.7853 20.6205 82.2902 20.3677 82.7953 20.364C82.8253 20.3638 82.8549 20.363 82.8841 20.3617C83.1719 20.3483 83.4261 20.2403 83.6465 20.0379C83.8714 19.8355 84.0693 19.5049 84.2402 19.0461L84.3665 18.6981C84.4462 18.4782 84.4464 18.2373 84.3669 18.0173L81.1819 9.19894C80.9464 8.54711 81.4354 7.85924 82.1285 7.85924V7.85924C82.5612 7.85924 82.9479 8.1376 83.0822 8.549L85.465 15.8505C85.4749 15.8812 85.5035 15.9019 85.5357 15.9019V15.9019C85.5679 15.9019 85.5965 15.8812 85.6065 15.8505L87.9892 8.549C88.1235 8.1376 88.5114 7.85924 88.9441 7.85924V7.85924C89.6381 7.85924 90.1294 8.54876 89.8923 9.20093L86.1092 19.6061C85.9113 20.1458 85.6594 20.6024 85.3535 20.9757C85.0476 21.3536 84.6833 21.637 84.2605 21.8259C83.8377 22.0148 83.3474 22.1093 82.7896 22.1093Z" fill="#62A111"/>
</g>
<defs>
<clipPath id="clip0_4_38">
<rect width="34" height="18" fill="white" transform="translate(57 4.22288)"/>
</clipPath>
</defs>
</svg>
