<svg width="20" height="17" viewBox="0 0 20 17" fill="none" xmlns="http://www.w3.org/2000/svg">
<path d="M1 0.5C0.447715 0.5 0 0.947715 0 1.5C0 2.05228 0.447715 2.5 1 2.5V0.5ZM19 2.5C19.5523 2.5 20 2.05228 20 1.5C20 0.947715 19.5523 0.5 19 0.5V2.5ZM1 2.5H19V0.5H1V2.5Z" fill="#8F8F8F"/>
<path d="M1 7.5C0.447715 7.5 0 7.94772 0 8.5C0 9.05228 0.447715 9.5 1 9.5V7.5ZM19 9.5C19.5523 9.5 20 9.05228 20 8.5C20 7.94772 19.5523 7.5 19 7.5V9.5ZM1 9.5H19V7.5H1V9.5Z" fill="#8F8F8F"/>
<path d="M1 14.5C0.447715 14.5 0 14.9477 0 15.5C0 16.0523 0.447715 16.5 1 16.5V14.5ZM19 16.5C19.5523 16.5 20 16.0523 20 15.5C20 14.9477 19.5523 14.5 19 14.5V16.5ZM1 16.5H19V14.5H1V16.5Z" fill="#8F8F8F"/>
</svg>
