<svg xmlns="http://www.w3.org/2000/svg" viewBox="0 0 145.66 239.28"><defs><style>.cls-1{fill:#3a6e38}</style></defs><title>logo</title><g id="Слой_2" data-name="Слой 2"><g id="Слой_1-2" data-name="Слой 1"><g id="Слой_2-2" data-name="Слой 2"><g id="Layer_1" data-name="Layer 1"><path class="cls-1" d="M106.18 151.29h14.59v-36.35q-.66 1.07-1.43 2.1v32.82H106.9v-20.18l-1.43 1v20.56zm-80.59 0h14.59v-20.64q-.72-.5-1.43-1v20.25H26.32v-33q-.74-1-1.43-2.12v36.52zm40.35 0h14.59V140.4l-1.43.17v9.29H66.66v-9.26l-1.43-.17v10.89zM59 149.85H46.54v-15.36l-1.43-.78v17.58h15.31v-11.75L59 139.2zm27.07 1.44h14.59v-17.58l-1.43.78v15.37H86.78V139.2l-1.43.34v11.75zm20.11-135.03h14.59v36.35q-.66-1.07-1.43-2.1V17.69H106.9v20.17l-1.43-1V16.28zm-80.59 0h14.59v20.65q-.72.5-1.43 1V17.69H26.32v33q-.74 1.07-1.44 2.12V16.26zm40.35 0h14.59v10.89L79.1 27v-9.31H66.66V27l-1.43.17V16.26zM59 17.69H46.54v15.37l-1.45.76V16.26h15.33V28l-1.42.34zm27.07-1.43h14.59v17.56L99.22 33V17.69H86.78v10.65L85.35 28V16.26zM15.82 167.54h114.74v-7.87H15.11v7.87zm113.28-1.43H16.54v-5h112.57zm-109.28-9.65h106v1.43h-106zm2.99-3.22h100.03v1.43H22.81zM15.82 0h114.74v7.87H15.11V0zm113.29 1.43H16.54v5h112.57zM19.82 9.65h106v1.43h-106zm2.99 3.22h100.03v1.43H22.81zM39.55 233a6.24 6.24 0 0 0 6.45 6.27 7.79 7.79 0 0 0 3.56-.82V237a5.62 5.62 0 0 1-3.25.9c-2.55 0-5.31-1.58-5.27-4.86 0-3.51 2.65-5 5.21-5a5.86 5.86 0 0 1 3.21.9v-1.47a7.44 7.44 0 0 0-3.46-.82 6.24 6.24 0 0 0-6.46 6.35zm12.85-6.23v1.37h4.31V239h1.47v-10.85h4.32v-1.41zm13.8 0v12.29h1.45v-4.35h2.72c2.85 0 5.21-.9 5.21-4s-2.37-4-5.21-4zm7.92 4c0 2.07-1.65 2.56-3.65 2.56h-2.82v-5.17h2.79c2 0 3.65.47 3.65 2.56zm4.7 2.18a6.43 6.43 0 1 0 6.43-6.35 6.13 6.13 0 0 0-6.44 6.33zm11.35 0a4.93 4.93 0 1 1-4.94-4.95 4.69 4.69 0 0 1 4.93 4.93zm14.49 6.14v-9.84l-7.39 9.83H95.9v-12.31h1.47v9.81l7.39-9.81h1.35v12.29zm-1.19-14.24v-1.35a4.3 4.3 0 0 1-4.91 0v1.33a4.46 4.46 0 0 0 4.9 0zm9.57 6.16h24v.72h-24zm-104.42 0h24v.72h-24z"/><path class="cls-1" d="M72.88 138.84a55 55 0 1 0-55-55 55 55 0 0 0 55 55zm0-1.88a53.19 53.19 0 1 1 53.19-53.19A53.19 53.19 0 0 1 72.88 137z"/><path class="cls-1" d="M64.9 80.77l6.63 10a27.4 27.4 0 0 0 3 4.13 7.89 7.89 0 0 0 5.69 2.77h.27v1h-.27c-4.11 0-7.67.31-10.25-3.53-1.73-2.57-3.48-5.13-5.17-7.73q-2.06-3.15-4.15-6.28l-1-.11-.83-.1v12.73a3.81 3.81 0 0 0 .09.78 2.65 2.65 0 0 0 .29.76 3.32 3.32 0 0 0 .44.62.58.58 0 0 0 .45.2h.5v1h-7.21V96h.5a.62.62 0 0 0 .43-.21 2.8 2.8 0 0 0 .46-.61 2.65 2.65 0 0 0 .28-.76 3.79 3.79 0 0 0 .09-.78v-25.4a3.32 3.32 0 0 0-.09-.7 2.69 2.69 0 0 0-.29-.74 2.33 2.33 0 0 0-.45-.58.66.66 0 0 0-.44-.19h-.5V65h8.56c2.55 0 5.4.39 7.51 1.91a6.59 6.59 0 0 1 2.71 5.7 8.13 8.13 0 0 1-.62 3.28 7.63 7.63 0 0 1-1.65 2.42 8.14 8.14 0 0 1-2.43 1.62 13.41 13.41 0 0 1-2.55.82zm27.85 17.07a8 8 0 0 0-.87-3.84 8.75 8.75 0 0 0-2.22-2.65 13.11 13.11 0 0 0-3.05-1.8c-1.09-.46-2.2-.92-3.32-1.33-.92-.34-1.84-.7-2.74-1.09a12.42 12.42 0 0 1-2.27-1.26 5.67 5.67 0 0 1-1.53-1.59 4 4 0 0 1-.56-2.15 7.81 7.81 0 0 1 .25-1.82 5 5 0 0 1 .94-1.9 5.6 5.6 0 0 1 1.84-1.5 6.53 6.53 0 0 1 3-.63 12.38 12.38 0 0 1 5.05.86 3.28 3.28 0 0 1 1.81 3.13v.25h1v-5.44h-.27a9.29 9.29 0 0 1-1.42-.08q-.78-.12-1.55-.31-1-.25-2.12-.41a15.82 15.82 0 0 0-2.37-.17 13.06 13.06 0 0 0-3.62.51 10 10 0 0 0-3.18 1.55 7.62 7.62 0 0 0-2.25 2.65 8.06 8.06 0 0 0-.84 3.77 7.09 7.09 0 0 0 .8 3.49 8.11 8.11 0 0 0 2.07 2.41 12.52 12.52 0 0 0 2.87 1.68c1.06.45 2.13.87 3.2 1.29s1.88.76 2.81 1.14a10.83 10.83 0 0 1 2.39 1.33 6.72 6.72 0 0 1 1.68 1.81 4.7 4.7 0 0 1 .63 2.51 6.55 6.55 0 0 1-.44 2.34 6.07 6.07 0 0 1-1.33 2.08 6.8 6.8 0 0 1-2.35 1.51 9.28 9.28 0 0 1-3.44.58 13.93 13.93 0 0 1-1.78-.17 8.48 8.48 0 0 1-2.41-.72 6.11 6.11 0 0 1-2.09-1.58 4 4 0 0 1-.87-2.71v-.27h-1v6h.27a4.5 4.5 0 0 1 1.17.16c.46.13.92.26 1.37.4l2.54.72a12.8 12.8 0 0 0 3.37.39 15.58 15.58 0 0 0 3.82-.48 10.61 10.61 0 0 0 3.48-1.57 8.18 8.18 0 0 0 3.53-7zM58.86 67.17v11.59a11.89 11.89 0 0 0 1.19.07h2.07a7.73 7.73 0 0 0 2-.3 6 6 0 0 0 2-1 5.63 5.63 0 0 0 1.55-1.84 6.09 6.09 0 0 0 .61-2.88 5.47 5.47 0 0 0-.63-2.81 4.72 4.72 0 0 0-1.77-1.66 8.27 8.27 0 0 0-2.88-.9 27.19 27.19 0 0 0-3.73-.24z"/><path class="cls-1" d="M72.88 117.16a33.39 33.39 0 1 0-23.61-9.78 33.39 33.39 0 0 0 23.61 9.78zm24.77-8.62a35 35 0 1 1 10.26-24.77 35 35 0 0 1-10.26 24.77z"/><path class="cls-1" d="M49.74 43.26l-4.19-3.06 2-.44 1.36-1.6zm.5.91c-4.26-1.66-9.34.73-8.58 5.75a4.73 4.73 0 0 0 4.8 4.24 4.33 4.33 0 0 0 2.92-1.33 2.88 2.88 0 0 0-1.18-4.78c-1.38-.34-3 .62-2.42 2.73 1-2 3.07-1.12 2.51.47-.34 1-1.62 1.87-3.45.81a3.85 3.85 0 0 1-1.51-1.74 3.38 3.38 0 0 1 2.59-4.39c3.48-.71 7.85 2 5.62 6.06a1.82 1.82 0 0 0 1.33-.57 2.17 2.17 0 0 0 1.63.17 2.17 2.17 0 0 0 .66-1.5 1.82 1.82 0 0 0 1.16-.88c-4.64-.09-4.8-5.23-2.44-7.89a3.38 3.38 0 0 1 5.09 0 3.85 3.85 0 0 1 .76 2.18c0 2.11-1.41 2.77-2.43 2.58-1.66-.31-1.39-2.58.85-2.41-1.54-1.53-3.18-.66-3.57.73a2.88 2.88 0 0 0 3.55 3.42 4.33 4.33 0 0 0 2.65-1.86 4.73 4.73 0 0 0-1.27-6.27c-4-3.16-8.58 0-9.27 4.53zM96 43.26l4.19-3.06-2-.44-1.4-1.6-.79 5.1zm-.52.91c4.26-1.66 9.34.73 8.58 5.75a4.73 4.73 0 0 1-4.8 4.24 4.33 4.33 0 0 1-2.92-1.33 2.88 2.88 0 0 1 1.18-4.78c1.38-.34 3 .62 2.42 2.73-1-2-3.07-1.12-2.51.47.34 1 1.62 1.87 3.45.81a3.85 3.85 0 0 0 1.51-1.74 3.38 3.38 0 0 0-2.59-4.39c-3.48-.71-7.85 2-5.62 6.06a1.82 1.82 0 0 1-1.33-.57 2.17 2.17 0 0 1-1.63.17 2.17 2.17 0 0 1-.66-1.5 1.82 1.82 0 0 1-1.16-.88c4.64-.09 4.8-5.23 2.44-7.89a3.38 3.38 0 0 0-5.09 0 3.85 3.85 0 0 0-.75 2.13c0 2.11 1.41 2.77 2.43 2.58 1.66-.31 1.39-2.58-.85-2.41 1.54-1.53 3.18-.66 3.57.73a2.88 2.88 0 0 1-3.55 3.42 4.33 4.33 0 0 1-2.6-1.86 4.73 4.73 0 0 1 1.27-6.27c3.93-3.16 8.57.01 9.23 4.53zm-62.7 16.04l-5.17-.56 1.51-1.37.38-2.07 3.28 4zm.89.54c-4.52.7-7.72 5.31-4.56 9.29a4.73 4.73 0 0 0 6.27 1.27 4.33 4.33 0 0 0 1.86-2.65 2.87 2.87 0 0 0-3.42-3.55c-1.37.39-2.26 2-.73 3.57-.17-2.24 2.1-2.51 2.41-.85.19 1-.46 2.43-2.58 2.43a3.85 3.85 0 0 1-2.18-.76 3.38 3.38 0 0 1 0-5.09c2.65-2.35 7.8-2.2 7.89 2.44a1.82 1.82 0 0 0 .89-1.17 2.17 2.17 0 0 0 1.5-.66 2.17 2.17 0 0 0-.17-1.63 1.82 1.82 0 0 0 .6-1.39c-4.07 2.24-6.77-2.14-6.06-5.62a3.38 3.38 0 0 1 4.39-2.59 3.85 3.85 0 0 1 1.74 1.51c1.06 1.82.17 3.1-.81 3.45-1.59.56-2.49-1.54-.47-2.51-2.1-.58-3.1 1-2.73 2.41a2.88 2.88 0 0 0 4.78 1.18A4.33 4.33 0 0 0 43.62 57a4.74 4.74 0 0 0-4.24-4.8c-4.99-.79-7.38 4.28-5.72 8.54zm79.33-.54l5.17-.56-1.51-1.37-.38-2.07-3.28 4zm-.89.54c4.52.7 7.72 5.31 4.56 9.29a4.73 4.73 0 0 1-6.27 1.27 4.33 4.33 0 0 1-1.86-2.65 2.87 2.87 0 0 1 3.46-3.57c1.37.39 2.26 2 .73 3.57.17-2.24-2.1-2.51-2.41-.85-.19 1 .46 2.43 2.58 2.43a3.85 3.85 0 0 0 2.18-.76 3.38 3.38 0 0 0 0-5.09c-2.65-2.35-7.8-2.2-7.89 2.44a1.82 1.82 0 0 1-.89-1.17 2.17 2.17 0 0 1-1.5-.66 2.17 2.17 0 0 1 .17-1.63 1.82 1.82 0 0 1-.57-1.33c4.07 2.24 6.77-2.14 6.06-5.62a3.38 3.38 0 0 0-4.46-2.59 3.85 3.85 0 0 0-1.74 1.51c-1.06 1.82-.17 3.1.81 3.45 1.59.56 2.49-1.54.47-2.51a2 2 0 0 1 2.73 2.42 2.88 2.88 0 0 1-4.78 1.18 4.34 4.34 0 0 1-1.35-2.88 4.74 4.74 0 0 1 4.24-4.8c5-.76 7.38 4.31 5.71 8.58zM26.53 83.37l-4.75 2.1.62-1.94-.71-2zm1 0c-3.57 2.87-4 8.45.66 10.31a4.74 4.74 0 0 0 6.07-2 4.33 4.33 0 0 0 .29-3.21 2.88 2.88 0 0 0-4.73-1.37c-1 1-.94 2.88 1.15 3.46-1.27-1.85.56-3.22 1.66-1.94.66.79.81 2.34-1 3.39a3.85 3.85 0 0 1-2.26.44A3.38 3.38 0 0 1 26.88 88c1.13-3.37 5.66-5.8 8.06-1.83a1.82 1.82 0 0 0 .18-1.45 2.17 2.17 0 0 0 1-1.33 2.17 2.17 0 0 0-1-1.33 1.82 1.82 0 0 0-.18-1.45c-2.4 4-6.93 1.54-8.06-1.83a3.38 3.38 0 0 1 2.51-4.44 3.85 3.85 0 0 1 2.26.44c1.83 1 1.69 2.61 1 3.39-1.1 1.28-2.93-.09-1.66-1.94-2.1.57-2.14 2.43-1.15 3.46a2.87 2.87 0 0 0 4.73-1.37 4.33 4.33 0 0 0-.29-3.21 4.74 4.74 0 0 0-6.07-2c-4.68 1.88-4.2 7.46-.64 10.33zm91.68 0l4.75 2.1-.62-1.94.71-2-4.84 1.83zm-1 0c3.57 2.87 4 8.45-.66 10.31a4.74 4.74 0 0 1-6.07-2 4.33 4.33 0 0 1-.29-3.21 2.88 2.88 0 0 1 4.73-1.37c1 1 .94 2.88-1.15 3.46 1.27-1.85-.56-3.22-1.66-1.94-.66.79-.81 2.34 1 3.39a3.85 3.85 0 0 0 2.26.44 3.38 3.38 0 0 0 2.49-4.45c-1.13-3.37-5.66-5.8-8.06-1.83a1.82 1.82 0 0 1-.18-1.45 2.17 2.17 0 0 1-1-1.33 2.17 2.17 0 0 1 1-1.33 1.82 1.82 0 0 1 .18-1.45c2.4 4 6.93 1.54 8.06-1.83a3.38 3.38 0 0 0-2.51-4.44 3.85 3.85 0 0 0-2.26.44c-1.83 1-1.69 2.61-1 3.39 1.1 1.28 2.93-.09 1.66-1.94 2.1.57 2.14 2.43 1.15 3.46a2.87 2.87 0 0 1-4.73-1.37 4.33 4.33 0 0 1 .29-3.21 4.74 4.74 0 0 1 6.07-2c4.7 1.88 4.23 7.46.66 10.33zm-85.45 23.16l-3.06 4.22-.44-2-1.6-1.36 5.11-.84zm.91-.5c-1.66 4.26.73 9.34 5.75 8.58a4.73 4.73 0 0 0 4.24-4.8 4.33 4.33 0 0 0-1.33-2.92 2.88 2.88 0 0 0-4.78 1.18c-.34 1.38.62 3 2.73 2.42-2-1-1.12-3.07.47-2.51 1 .34 1.87 1.62.81 3.45a3.85 3.85 0 0 1-1.76 1.51 3.38 3.38 0 0 1-4.39-2.59c-.71-3.48 2-7.85 6.06-5.62a1.82 1.82 0 0 0-.57-1.33 2.17 2.17 0 0 0 .17-1.63 2.17 2.17 0 0 0-1.5-.66 1.82 1.82 0 0 0-.88-1.16c-.09 4.64-5.23 4.8-7.89 2.44a3.38 3.38 0 0 1 0-5.09 3.85 3.85 0 0 1 2.18-.76c2.02 0 2.71 1.46 2.53 2.46-.31 1.66-2.58 1.39-2.41-.85-1.53 1.55-.66 3.18.73 3.57a2.88 2.88 0 0 0 3.42-3.55 4.33 4.33 0 0 0-1.86-2.65 4.73 4.73 0 0 0-6.27 1.27c-3.18 4 0 8.58 4.54 9.27zm79.33.5l3.06 4.22.44-2 1.6-1.36-5.11-.84zm-.91-.5c1.66 4.26-.73 9.34-5.75 8.58a4.73 4.73 0 0 1-4.24-4.8 4.34 4.34 0 0 1 1.33-2.92 2.88 2.88 0 0 1 4.78 1.18c.34 1.38-.62 3-2.73 2.42 2-1 1.12-3.07-.47-2.51-1 .34-1.87 1.62-.81 3.45a3.85 3.85 0 0 0 1.74 1.51 3.38 3.38 0 0 0 4.39-2.59c.71-3.48-2-7.85-6.06-5.62a1.82 1.82 0 0 1 .57-1.33 1.39 1.39 0 0 1 1.33-2.29 1.82 1.82 0 0 1 .88-1.16c.09 4.64 5.23 4.8 7.89 2.44a3.38 3.38 0 0 0 0-5.09 3.85 3.85 0 0 0-2.18-.76c-2.11 0-2.77 1.41-2.58 2.43.31 1.66 2.58 1.39 2.41-.85 1.53 1.55.66 3.18-.73 3.57a2.88 2.88 0 0 1-3.42-3.55 4.33 4.33 0 0 1 1.86-2.65 4.73 4.73 0 0 1 6.27 1.27c3.2 4 0 8.57-4.54 9.27zM49.7 123.49l-.56 5.17-1.39-1.52-2.07-.38 4-3.28zm.54-.89c.7 4.52 5.31 7.72 9.29 4.56a4.73 4.73 0 0 0 1.27-6.27 4.33 4.33 0 0 0-2.66-1.89 2.87 2.87 0 0 0-3.55 3.42c.39 1.37 2 2.26 3.57.73-2.24.17-2.51-2.1-.85-2.41 1-.19 2.43.46 2.43 2.58a3.85 3.85 0 0 1-.76 2.18 3.38 3.38 0 0 1-5.09 0c-2.35-2.65-2.2-7.8 2.44-7.89a1.82 1.82 0 0 0-1.15-.88 2.17 2.17 0 0 0-.66-1.5 2.17 2.17 0 0 0-1.63.17 1.82 1.82 0 0 0-1.33-.57c2.24 4.07-2.14 6.77-5.62 6.06a3.38 3.38 0 0 1-2.59-4.39 3.85 3.85 0 0 1 1.49-1.76c1.82-1.06 3.1-.17 3.45.81.56 1.59-1.54 2.49-2.51.47a2 2 0 0 0 2.42 2.73 2.88 2.88 0 0 0 1.18-4.75 4.33 4.33 0 0 0-2.92-1.33 4.74 4.74 0 0 0-4.8 4.24c-.76 4.97 4.34 7.35 8.58 5.69zm45.82.89l.56 5.17 1.38-1.51 2.07-.38-4-3.28zm-.54-.89c-.7 4.52-5.31 7.72-9.29 4.56A4.73 4.73 0 0 1 85 120.9a4.33 4.33 0 0 1 2.62-1.9 2.87 2.87 0 0 1 3.55 3.42c-.39 1.37-2 2.26-3.57.73 2.24.17 2.51-2.1.85-2.41-1-.19-2.43.46-2.43 2.58a3.85 3.85 0 0 0 .76 2.18 3.38 3.38 0 0 0 5.09 0c2.35-2.65 2.2-7.8-2.44-7.89a1.82 1.82 0 0 1 1.16-.88 1.39 1.39 0 0 1 2.29-1.33 1.82 1.82 0 0 1 1.33-.57c-2.24 4.07 2.14 6.77 5.62 6.06a3.38 3.38 0 0 0 2.59-4.39 3.85 3.85 0 0 0-1.51-1.74c-1.82-1.06-3.1-.17-3.44.81-.56 1.59 1.54 2.49 2.51.47a2 2 0 0 1-2.42 2.73 2.88 2.88 0 0 1-1.19-4.77 4.33 4.33 0 0 1 2.92-1.33 4.74 4.74 0 0 1 4.8 4.24c.77 5-4.3 7.37-8.59 5.72zm-22.66 7.11l2.1 4.75-1.96-.62-2 .71 1.83-4.84zm0-1c2.87 3.57 8.45 4 10.31-.66a4.74 4.74 0 0 0-2-6.07 4.33 4.33 0 0 0-3.21-.29 2.88 2.88 0 0 0-1.37 4.73c1 1 2.88.94 3.46-1.15-1.85 1.27-3.22-.56-1.94-1.66.79-.66 2.34-.81 3.39 1a3.85 3.85 0 0 1 .44 2.26 3.38 3.38 0 0 1-4.44 2.51c-3.37-1.13-5.8-5.66-1.83-8.06a1.82 1.82 0 0 0-1.45-.18 2.17 2.17 0 0 0-1.33-1 2.17 2.17 0 0 0-1.33 1 1.82 1.82 0 0 0-1.45.18c4 2.4 1.54 6.93-1.83 8.06a3.38 3.38 0 0 1-4.44-2.51 3.85 3.85 0 0 1 .44-2.26c1-1.83 2.61-1.69 3.39-1 1.28 1.1-.09 2.93-1.94 1.66.57 2.1 2.43 2.14 3.46 1.15a2.87 2.87 0 0 0-1.37-4.73 4.33 4.33 0 0 0-3.21.29 4.7 4.7 0 0 0-2 6.06c1.86 4.71 7.44 4.24 10.31.66zm0-91.64l2.08-4.76-1.94.62-2-.71 1.83 4.84zm0 1c2.87-3.57 8.45-4 10.31.66a4.74 4.74 0 0 1-2 6.07 4.33 4.33 0 0 1-3.21.29 2.88 2.88 0 0 1-1.37-4.73c1-1 2.88-.94 3.46 1.15-1.85-1.27-3.22.56-1.94 1.66.79.66 2.34.81 3.39-1a3.85 3.85 0 0 0 .44-2.26 3.38 3.38 0 0 0-4.44-2.51c-3.37 1.13-5.8 5.66-1.83 8.06a1.82 1.82 0 0 1-1.45.18 2.17 2.17 0 0 1-1.33 1 2.17 2.17 0 0 1-1.33-1 1.82 1.82 0 0 1-1.45-.18c4-2.4 1.54-6.93-1.83-8.06a3.38 3.38 0 0 0-4.44 2.51 3.85 3.85 0 0 0 .44 2.26c1 1.83 2.61 1.69 3.39 1 1.28-1.1-.09-2.93-1.94-1.66.57-2.1 2.43-2.14 3.46-1.15a2.87 2.87 0 0 1-1.37 4.73 4.33 4.33 0 0 1-3.21-.29 4.69 4.69 0 0 1-2-6c1.86-4.73 7.44-4.26 10.31-.69zM0 181.49v.5h.25a1 1 0 0 1 .72.31 2.94 2.94 0 0 1 .58.76 3.38 3.38 0 0 1 .35.92 4 4 0 0 1 .1.85v28.8a4.64 4.64 0 0 1-.11.95 3.32 3.32 0 0 1-.34 1 3.51 3.51 0 0 1-.57.76 1 1 0 0 1-.72.33H0v.5h7.57v-.5H7.3a1 1 0 0 1-.75-.33 4.09 4.09 0 0 1-.51-.76 3.32 3.32 0 0 1-.35-1 4.64 4.64 0 0 1-.11-.95v-14.84l.37.06.92.13 1.13.12h.15l.09.13q2.37 3.55 4.7 7.12c1.92 2.94 2.65 4 4.6 6.88 2.85 4.23 6.8 3.87 11.33 3.87v-.5a9.17 9.17 0 0 1-6.63-3.24 12.24 12.24 0 0 1-2.24-2.85l-7.82-11.71.46-.1a14.89 14.89 0 0 0 2.83-.91 8.93 8.93 0 0 0 2.68-1.79 8.34 8.34 0 0 0 1.8-2.65 8.91 8.91 0 0 0 .66-3.58 7.13 7.13 0 0 0-2.94-6.19c-2.35-1.68-5.52-2.1-8.34-2.1zm44.32-.58a18.51 18.51 0 0 1 7.58 1.48 17.35 17.35 0 0 1 5.72 4 17.73 17.73 0 0 1 3.63 5.85 19.33 19.33 0 0 1 1.27 7 18.48 18.48 0 0 1-1.5 7.52 17.52 17.52 0 0 1-4.09 5.85 19.19 19.19 0 0 1-6 3.82 19.51 19.51 0 0 1-7.34 1.38 17.91 17.91 0 0 1-7.48-1.53 17.35 17.35 0 0 1-5.63-4 17.72 17.72 0 0 1-3.55-5.74 18.75 18.75 0 0 1-1.25-6.77 19.7 19.7 0 0 1 1.25-6.85 18.13 18.13 0 0 1 17.44-11.94zM95.5 207.8h14.24l-7.17-19.58zm14.92 1.84H94.84l-1.69 4.68a2.32 2.32 0 0 0-.17.81 1.57 1.57 0 0 0 .38 1.11 1.11 1.11 0 0 0 .81.4h.27v.54h-6v-.54h.27a1.85 1.85 0 0 0 1.38-.84 7.2 7.2 0 0 0 1.11-2l12.4-33 12.13 32.71a9.63 9.63 0 0 0 1.05 2.11 2 2 0 0 0 1.76 1h.27v.54h-8v-.54h.27q1.33 0 1.33-1.19a2.92 2.92 0 0 0-.16-.92l-1.8-4.9zm34.57-.9c-2.94 5.61-4.89 6.45-9.54 6.45h-6.9v-30.38a3.28 3.28 0 0 1 .13-.87 5.1 5.1 0 0 1 .32-.94 2.48 2.48 0 0 1 .54-.73 1.09 1.09 0 0 1 .76-.3h.27v-.54h-7.8v.57h.27a1.09 1.09 0 0 1 .76.3 2.92 2.92 0 0 1 .57.73 4.12 4.12 0 0 1 .38.92 3.28 3.28 0 0 1 .13.87v29a3.44 3.44 0 0 1-.13.92 4.13 4.13 0 0 1-.38.92 2.93 2.93 0 0 1-.57.73 1.09 1.09 0 0 1-.76.3h-.27v.54h20.53l2.35-8.17-.66-.28zm-100.7 7.1a14.5 14.5 0 0 0 6.37-1.62 14.85 14.85 0 0 0 4.58-3.79 15.71 15.71 0 0 0 2.76-5.07 17.21 17.21 0 0 0-.19-11.48 18.57 18.57 0 0 0-3.09-5.52 16.21 16.21 0 0 0-4.8-4 12.73 12.73 0 0 0-6.27-1.55 12.08 12.08 0 0 0-6 1.49 15.32 15.32 0 0 0-4.53 3.82 17 17 0 0 0-2.85 5.2 17.46 17.46 0 0 0-1 5.62 16.81 16.81 0 0 0 1.13 6 19.23 19.23 0 0 0 3.15 5.45 16.28 16.28 0 0 0 4.75 4 12.17 12.17 0 0 0 6 1.52zm18.35-34.39v.55h.27a1.59 1.59 0 0 1 .92.35 5.68 5.68 0 0 1 .92.84 11.33 11.33 0 0 1 .81 1l.66 1 8.71 14.94v13.54a4.64 4.64 0 0 1-.11.95 3.71 3.71 0 0 1-.35 1 2.78 2.78 0 0 1-.57.76 1.09 1.09 0 0 1-.76.3h-.27v.54h7.75v-.54h-.27a1 1 0 0 1-.76-.32 2.75 2.75 0 0 1-.54-.78 6 6 0 0 1-.35-.95 3.44 3.44 0 0 1-.13-.92v-14L87 185a14.4 14.4 0 0 1 1.43-2 2.28 2.28 0 0 1 1.65-1v-.54h-5.8v.54a2.71 2.71 0 0 1 .62.22 1.22 1.22 0 0 1 .62 1.08 1.56 1.56 0 0 1-.08.54q-.08.22-.3.66L77.37 198l-8.12-14.26a1.33 1.33 0 0 1-.17-.6 1 1 0 0 1 .32-.81 1.4 1.4 0 0 1 .7-.32v-.54zM9.58 197.16H7.23a8 8 0 0 1-1.38-.08h-.29v-13.8h.85a31.09 31.09 0 0 1 4.27.27 9.68 9.68 0 0 1 3.32 1 5.68 5.68 0 0 1 2.17 2.06A6.5 6.5 0 0 1 17 190a7.2 7.2 0 0 1-.73 3.42 6.71 6.71 0 0 1-1.83 2.23 7.07 7.07 0 0 1-2.44 1.19 9.09 9.09 0 0 1-2.41.32z"/></g></g></g></g></svg>