<?xml version="1.0" encoding="utf-8"?>
<!-- Generator: Adobe Illustrator 25.0.1, SVG Export Plug-In . SVG Version: 6.00 Build 0)  -->
<svg version="1.1" id="Слой_1" xmlns="http://www.w3.org/2000/svg" xmlns:xlink="http://www.w3.org/1999/xlink" x="0px" y="0px"
	 viewBox="0 0 24 24" style="enable-background:new 0 0 24 24;" xml:space="preserve">
<style type="text/css">
	.st0{fill-rule:evenodd;clip-rule:evenodd;}
</style>
<path class="st0" d="M11.5,1c0.4,0,0.7,0.2,0.9,0.5l3,5.8l6.7,0.9C22.5,8.3,22.8,8.6,23,9c0.1,0.4,0,0.8-0.3,1l-4.8,4.5l1.1,6.3
	c0.1,0.4-0.1,0.8-0.4,1c-0.3,0.2-0.7,0.3-1,0.1l-6-3l-6,3c-0.3,0.2-0.7,0.1-1-0.1c-0.3-0.2-0.5-0.6-0.4-1l1.1-6.3L0.4,10
	C0.1,9.7,0,9.3,0.1,9C0.3,8.6,0.6,8.3,1,8.3l6.7-0.9l3-5.8C10.8,1.2,11.2,1,11.5,1z M11.5,4.2L9.2,8.7C9.1,9,8.8,9.2,8.5,9.2L3.3,10
	L7,13.4c0.2,0.2,0.4,0.6,0.3,0.9l-0.9,4.9l4.7-2.3c0.3-0.1,0.6-0.1,0.9,0l4.7,2.3l-0.9-4.9c-0.1-0.3,0.1-0.7,0.3-0.9l3.7-3.4
	l-5.1-0.7c-0.3,0-0.6-0.2-0.8-0.5L11.5,4.2z"/>
</svg>
