<?xml version="1.0" encoding="utf-8"?>
<!-- Generator: Adobe Illustrator 25.0.1, SVG Export Plug-In . SVG Version: 6.00 Build 0)  -->
<svg version="1.1" id="Слой_1" xmlns="http://www.w3.org/2000/svg" xmlns:xlink="http://www.w3.org/1999/xlink" x="0px" y="0px"
	 viewBox="0 0 24 24" style="enable-background:new 0 0 24 24;" xml:space="preserve">
<style type="text/css">
	.st0{fill-rule:evenodd;clip-rule:evenodd;}
</style>
<path class="st0" d="M22.1,7.6C22.1,7.6,22.1,7.6,22.1,7.6C20.4,3.7,16.5,1,12,1C8.4,1,5.2,2.7,3.2,5.4c0,0-0.1,0.1-0.1,0.1
	C1.8,7.4,1,9.6,1,12c0,5.6,4.2,10.3,9.7,10.9c0,0,0,0,0.1,0c0.4,0,0.8,0.1,1.2,0.1c6.1,0,11-4.9,11-11C23,10.4,22.7,9,22.1,7.6z
	 M12,3c3.1,0,5.9,1.6,7.5,4H12c-2.1,0-3.8,1.3-4.6,3L5.2,6.2C6.8,4.2,9.3,3,12,3z M15,12c0,1.7-1.3,3-3,3s-3-1.3-3-3s1.3-3,3-3
	S15,10.3,15,12z M3,12c0-1.4,0.3-2.8,0.9-4l3.7,6.5c0,0,0,0,0.1,0.1C8.6,16,10.2,17,12,17c0.2,0,0.4,0,0.6-0.1l-2.3,3.9
	C6.2,20.1,3,16.4,3,12z M12.6,21l3.7-6.5c0,0,0-0.1,0-0.1c0.4-0.7,0.6-1.5,0.6-2.4c0-1.1-0.4-2.2-1-3h4.5c0.3,0.9,0.5,1.9,0.5,3
	C21,16.8,17.3,20.7,12.6,21z"/>
</svg>
