<?xml version="1.0" encoding="utf-8"?>
<!-- Generator: Adobe Illustrator 25.0.1, SVG Export Plug-In . SVG Version: 6.00 Build 0)  -->
<svg version="1.1" id="Слой_1" xmlns="http://www.w3.org/2000/svg" xmlns:xlink="http://www.w3.org/1999/xlink" x="0px" y="0px"
	 viewBox="0 0 24 24" style="enable-background:new 0 0 24 24;" xml:space="preserve">
<style type="text/css">
	.st0{fill-rule:evenodd;clip-rule:evenodd;}
</style>
<g>
	<path class="st0" d="M12,1C5.9,1,1,5.9,1,12c0,6.1,4.9,11,11,11c6.1,0,11-4.9,11-11C23,5.9,18.1,1,12,1z M12,21c-5,0-9-4-9-9
		s4-9,9-9s9,4,9,9S17,21,12,21z"/>
	<path class="st0" d="M16.4,13.1L13,11.4V6c0-0.6-0.4-1-1-1s-1,0.4-1,1v6c0,0.4,0.2,0.7,0.6,0.9l4,2c0.5,0.2,1.1,0,1.3-0.4
		S16.9,13.4,16.4,13.1z"/>
</g>
</svg>
