<?xml version="1.0" encoding="utf-8"?>
<!-- Generator: Adobe Illustrator 25.0.1, SVG Export Plug-In . SVG Version: 6.00 Build 0)  -->
<svg version="1.1" id="Слой_1" xmlns="http://www.w3.org/2000/svg" xmlns:xlink="http://www.w3.org/1999/xlink" x="0px" y="0px"
	 viewBox="0 0 22 20" style="enable-background:new 0 0 22 20;" xml:space="preserve">
<style type="text/css">
	.st0{fill-rule:evenodd;clip-rule:evenodd;}
</style>
<path d="M0.1,0.6C0.3,0.2,0.6,0,1,0h20c0.4,0,0.7,0.2,0.9,0.6c0.2,0.4,0.1,0.8-0.1,1.1L14,10.8V19c0,0.3-0.2,0.7-0.5,0.9
	c-0.3,0.2-0.7,0.2-1,0l-4-2C8.2,17.7,8,17.4,8,17v-6.2L0.2,1.6C0,1.3-0.1,0.9,0.1,0.6z M3.2,2l6.6,7.8C9.9,10,10,10.2,10,10.5v5.9
	l2,1v-6.9c0-0.2,0.1-0.5,0.2-0.6L18.8,2H3.2z"/>
<path class="st0" d="M0.1,0.6C0.3,0.2,0.6,0,1,0h20c0.4,0,0.7,0.2,0.9,0.6c0.2,0.4,0.1,0.8-0.1,1.1L14,10.8V19
	c0,0.3-0.2,0.7-0.5,0.9c-0.3,0.2-0.7,0.2-1,0l-4-2C8.2,17.7,8,17.4,8,17v-6.2L0.2,1.6C0,1.3-0.1,0.9,0.1,0.6z M3.2,2l6.6,7.8
	C9.9,10,10,10.2,10,10.5v5.9l2,1v-6.9c0-0.2,0.1-0.5,0.2-0.6L18.8,2H3.2z"/>
</svg>
