<?xml version="1.0" encoding="utf-8"?>
<!-- Generator: Adobe Illustrator 25.0.1, SVG Export Plug-In . SVG Version: 6.00 Build 0)  -->
<svg version="1.1" id="Слой_1" xmlns="http://www.w3.org/2000/svg" xmlns:xlink="http://www.w3.org/1999/xlink" x="0px" y="0px"
	 viewBox="0 0 33 33" style="enable-background:new 0 0 33 33;" xml:space="preserve">
<style type="text/css">
	.st0{fill-rule:evenodd;clip-rule:evenodd;}
</style>
<path class="st0" d="M16.3,2.2c0.2,0,0.4,0.1,0.4,0.3l4.1,8.3l9.1,1.3c0.2,0,0.3,0.2,0.4,0.3c0.1,0.2,0,0.4-0.1,0.5l-6.6,6.4
	l1.6,9.1c0,0.2,0,0.4-0.2,0.5c-0.2,0.1-0.4,0.1-0.5,0l-8.2-4.3l-8.2,4.3c-0.2,0.1-0.4,0.1-0.5,0c-0.2-0.1-0.2-0.3-0.2-0.5L9,19.4
	L2.4,13c-0.1-0.1-0.2-0.3-0.1-0.5c0.1-0.2,0.2-0.3,0.4-0.3l9.1-1.3l4.1-8.3C16,2.3,16.1,2.2,16.3,2.2z M16.3,3.9l-3.8,7.6
	c-0.1,0.1-0.2,0.2-0.4,0.3L3.8,13l6.1,5.9C10,19,10,19.2,10,19.3l-1.4,8.4l7.5-4c0.1-0.1,0.3-0.1,0.5,0l7.5,4l-1.4-8.4
	c0-0.2,0-0.3,0.1-0.4l6.1-5.9l-8.4-1.2c-0.2,0-0.3-0.1-0.4-0.3L16.3,3.9z"/>
</svg>
