<svg width="21" height="23" viewBox="0 0 21 23" fill="none" xmlns="http://www.w3.org/2000/svg">
<path fill-rule="evenodd" clip-rule="evenodd" d="M1.65973 15.6597C2.72243 14.597 4.16377 14 5.66667 14H15C16.5029 14 17.9442 14.597 19.0069 15.6597C20.0696 16.7224 20.6667 18.1638 20.6667 19.6667V22C20.6667 22.5523 20.2189 23 19.6667 23C19.1144 23 18.6667 22.5523 18.6667 22V19.6667C18.6667 18.6942 18.2804 17.7616 17.5927 17.0739C16.9051 16.3863 15.9725 16 15 16H5.66667C4.69421 16 3.76157 16.3863 3.07394 17.0739C2.38631 17.7616 2 18.6942 2 19.6667V22C2 22.5523 1.55228 23 1 23C0.447715 23 0 22.5523 0 22V19.6667C0 18.1638 0.597022 16.7224 1.65973 15.6597Z" fill="black"/>
<path fill-rule="evenodd" clip-rule="evenodd" d="M10.3334 2C8.30831 2 6.66669 3.64162 6.66669 5.66667C6.66669 7.69171 8.30831 9.33334 10.3334 9.33334C12.3584 9.33334 14 7.69171 14 5.66667C14 3.64162 12.3584 2 10.3334 2ZM4.66669 5.66667C4.66669 2.53705 7.20374 0 10.3334 0C13.463 0 16 2.53705 16 5.66667C16 8.79628 13.463 11.3333 10.3334 11.3333C7.20374 11.3333 4.66669 8.79628 4.66669 5.66667Z" fill="black"/>
</svg>
