<?xml version="1.0" encoding="utf-8"?>
<!-- Generator: Adobe Illustrator 25.0.1, SVG Export Plug-In . SVG Version: 6.00 Build 0)  -->
<svg version="1.1" id="Слой_1" xmlns="http://www.w3.org/2000/svg" xmlns:xlink="http://www.w3.org/1999/xlink" x="0px" y="0px"
	 viewBox="0 0 26 21" style="enable-background:new 0 0 26 21;" xml:space="preserve">
<style type="text/css">
	.st0{fill-rule:evenodd;clip-rule:evenodd;}
</style>
<path class="st0" d="M22,0H3.3C1.5,0,0,1.5,0,3.3v14c0,1.8,1.5,3.3,3.3,3.3H22c1.8,0,3.3-1.5,3.3-3.3v-14C25.3,1.5,23.8,0,22,0z
	 M3.3,2H22c0.6,0,1.1,0.4,1.2,0.9l-10.6,7.4L2.1,2.9C2.3,2.4,2.8,2,3.3,2z M22,18.7H3.3c-0.7,0-1.3-0.6-1.3-1.3V5.3l10.1,7.1
	c0.3,0.2,0.8,0.2,1.1,0l10.1-7.1v12.1C23.3,18.1,22.7,18.7,22,18.7z"/>
</svg>
