<?xml version="1.0" encoding="utf-8"?>
<!-- Generator: Adobe Illustrator 25.0.1, SVG Export Plug-In . SVG Version: 6.00 Build 0)  -->
<svg version="1.1" id="Слой_1" xmlns="http://www.w3.org/2000/svg" xmlns:xlink="http://www.w3.org/1999/xlink" x="0px" y="0px"
	 viewBox="0 0 24 23" style="enable-background:new 0 0 24 23;" xml:space="preserve">
<style type="text/css">
	.st0{fill-rule:evenodd;clip-rule:evenodd;}
</style>
<g>
	<path class="st0" d="M7,21c0-1.1,0.9-2,2-2c1.1,0,2,0.9,2,2s-0.9,2-2,2C7.9,23,7,22.1,7,21z"/>
	<path class="st0" d="M18,21c0-1.1,0.9-2,2-2s2,0.9,2,2s-0.9,2-2,2S18,22.1,18,21z"/>
	<path class="st0" d="M0,1c0-0.6,0.4-1,1-1h4c0.5,0,0.9,0.3,1,0.8L6.8,5H23c0.3,0,0.6,0.1,0.8,0.4C24,5.6,24,5.9,24,6.2l-1.6,8.4
		c-0.1,0.7-0.5,1.3-1.1,1.8c-0.5,0.4-1.2,0.7-1.9,0.7H9.7c-0.7,0-1.4-0.2-1.9-0.7c-0.5-0.4-0.9-1.1-1.1-1.8c0,0,0,0,0,0L5,6.2
		c0,0,0-0.1,0-0.1L4.2,2H1C0.4,2,0,1.6,0,1z M7.2,7l1.4,7.2c0,0.2,0.2,0.4,0.4,0.6C9.2,14.9,9.4,15,9.7,15l0,0h9.7l0,0
		c0.2,0,0.5-0.1,0.6-0.2c0.2-0.1,0.3-0.4,0.4-0.6L21.8,7H7.2z"/>
</g>
</svg>
