<?xml version="1.0" encoding="utf-8"?>
<!-- Generator: Adobe Illustrator 25.0.1, SVG Export Plug-In . SVG Version: 6.00 Build 0)  -->
<svg version="1.1" id="Слой_1" xmlns="http://www.w3.org/2000/svg" xmlns:xlink="http://www.w3.org/1999/xlink" x="0px" y="0px"
	 viewBox="0 0 21 12" style="enable-background:new 0 0 21 12;" xml:space="preserve">
<path d="M0,1c0-0.6,0.4-1,1-1h12c0.6,0,1,0.4,1,1l0,0c0,0.6-0.4,1-1,1H1C0.4,2,0,1.6,0,1L0,1z"/>
<path d="M0,6c0-0.6,0.4-1,1-1h19c0.6,0,1,0.4,1,1l0,0c0,0.6-0.4,1-1,1H1C0.4,7,0,6.6,0,6L0,6z"/>
<path d="M7,11c0-0.6,0.4-1,1-1h12c0.6,0,1,0.4,1,1l0,0c0,0.6-0.4,1-1,1H8C7.4,12,7,11.6,7,11L7,11z"/>
</svg>
