<?xml version="1.0" encoding="utf-8"?>
<!-- Generator: Adobe Illustrator 25.0.1, SVG Export Plug-In . SVG Version: 6.00 Build 0)  -->
<svg version="1.1" id="Слой_1" xmlns="http://www.w3.org/2000/svg" xmlns:xlink="http://www.w3.org/1999/xlink" x="0px" y="0px"
	 viewBox="0 0 24 24" style="enable-background:new 0 0 24 24;" xml:space="preserve">
<style type="text/css">
	.st0{fill-rule:evenodd;clip-rule:evenodd;}
</style>
<path class="st0" d="M21.6,7.8l-8.5-6.6c-0.4-0.3-0.9-0.3-1.2,0L3.4,7.8C3.1,8,3,8.3,3,8.6V19c0,0.8,0.3,1.5,0.8,2
	c0.5,0.5,1.3,0.8,2,0.8h13.2c0.8,0,1.5-0.3,2-0.8c0.5-0.5,0.8-1.3,0.8-2V8.6C22,8.3,21.9,8,21.6,7.8z M14.3,19.9h-3.7v-7.4h3.7V19.9
	z M20,19c0,0.2-0.1,0.5-0.3,0.6c-0.2,0.2-0.4,0.3-0.6,0.3h-2.8v-8.4c0-0.6-0.4-1-1-1H9.7c-0.6,0-1,0.4-1,1v8.4H5.9
	c-0.2,0-0.5-0.1-0.6-0.3C5.1,19.5,5,19.2,5,19V9.1l7.5-5.8L20,9.1V19z"/>
</svg>
