<?xml version="1.0" encoding="utf-8"?>
<!-- Generator: Adobe Illustrator 25.0.1, SVG Export Plug-In . SVG Version: 6.00 Build 0)  -->
<svg version="1.1" id="Слой_1" xmlns="http://www.w3.org/2000/svg" xmlns:xlink="http://www.w3.org/1999/xlink" x="0px" y="0px"
	 viewBox="0 0 17 17" style="enable-background:new 0 0 17 17;" xml:space="preserve">
<style type="text/css">
	.st0{fill-rule:evenodd;clip-rule:evenodd;}
</style>
<path class="st0" d="M5.1,0c0.9,0,1.1,0,3.3,0c2.2,0,2.5,0,3.3,0s1.4,0.2,2,0.4c0.5,0.2,1,0.5,1.4,0.9c0.4,0.4,0.7,0.9,0.9,1.4
	c0.2,0.5,0.3,1.1,0.4,2c0,0.9,0,1.1,0,3.3c0,2.2,0,2.5,0,3.3c0,0.9-0.2,1.4-0.4,2c-0.2,0.5-0.5,1-0.9,1.4c-0.4,0.4-0.9,0.7-1.4,0.9
	c-0.5,0.2-1.1,0.3-2,0.4c-0.9,0-1.1,0-3.3,0c-2.2,0-2.5,0-3.3,0c-0.9,0-1.4-0.2-2-0.4c-0.5-0.2-1-0.5-1.4-0.9
	c-0.4-0.4-0.7-0.9-0.9-1.4c-0.2-0.5-0.3-1.1-0.4-2c0-0.9,0-1.1,0-3.3c0-2.2,0-2.5,0-3.3c0-0.9,0.2-1.4,0.4-2c0.2-0.5,0.5-1,0.9-1.4
	c0.4-0.4,0.9-0.7,1.4-0.9C3.6,0.2,4.2,0.1,5.1,0L5.1,0z M11.7,1.5c-0.9,0-1.1,0-3.3,0c-2.2,0-2.4,0-3.3,0c-0.8,0-1.2,0.2-1.5,0.3
	C3.3,1.9,3,2.1,2.7,2.4C2.4,2.6,2.2,3,2.1,3.3C2,3.6,1.9,4,1.8,4.8c0,0.9,0,1.1,0,3.3c0,2.2,0,2.4,0,3.3c0,0.8,0.2,1.2,0.3,1.5
	c0.1,0.3,0.3,0.7,0.6,0.9C3,14,3.3,14.2,3.6,14.4c0.3,0.1,0.7,0.2,1.5,0.3c0.9,0,1.1,0,3.3,0c2.2,0,2.4,0,3.3,0
	c0.8,0,1.2-0.2,1.5-0.3c0.4-0.1,0.6-0.3,0.9-0.6c0.3-0.3,0.5-0.6,0.6-0.9c0.1-0.3,0.2-0.7,0.3-1.5c0-0.9,0-1.1,0-3.3
	c0-2.2,0-2.4,0-3.3c0-0.8-0.2-1.2-0.3-1.5c-0.1-0.4-0.3-0.6-0.6-0.9c-0.3-0.3-0.6-0.5-0.9-0.6C12.9,1.7,12.4,1.5,11.7,1.5L11.7,1.5z
	 M7.4,10.6c0.6,0.2,1.2,0.3,1.8,0.1c0.6-0.2,1.1-0.6,1.5-1.1C11,9,11.1,8.4,11.1,7.8c-0.1-0.6-0.3-1.2-0.8-1.6
	c-0.3-0.3-0.6-0.5-1-0.6C8.9,5.4,8.5,5.3,8.1,5.4C7.7,5.4,7.4,5.6,7,5.8C6.7,6,6.4,6.2,6.2,6.6C5.9,6.9,5.8,7.3,5.7,7.7
	c-0.1,0.4,0,0.8,0.1,1.2c0.1,0.4,0.3,0.7,0.6,1C6.7,10.2,7,10.4,7.4,10.6z M5.5,5.1c0.4-0.4,0.8-0.7,1.3-0.9c0.5-0.2,1-0.3,1.6-0.3
	C8.9,3.9,9.5,4,10,4.2c0.5,0.2,1,0.5,1.3,0.9C11.7,5.5,12,6,12.2,6.5c0.2,0.5,0.3,1,0.3,1.6c0,0.5-0.1,1.1-0.3,1.6
	c-0.2,0.5-0.5,1-0.9,1.3c-0.8,0.8-1.8,1.2-2.9,1.2c-1.1,0-2.2-0.4-2.9-1.2c-0.8-0.8-1.2-1.8-1.2-2.9C4.3,7,4.7,5.9,5.5,5.1L5.5,5.1z
	 M13.5,4.5c0.1-0.1,0.2-0.2,0.2-0.3c0.1-0.1,0.1-0.2,0.1-0.4c0-0.1,0-0.3-0.1-0.4c0-0.1-0.1-0.2-0.2-0.3C13.4,3,13.3,3,13.2,2.9
	c-0.1,0-0.3-0.1-0.4-0.1c-0.1,0-0.3,0-0.4,0.1c-0.1,0.1-0.2,0.1-0.3,0.2c-0.2,0.2-0.3,0.4-0.3,0.7c0,0.3,0.1,0.5,0.3,0.7
	c0.2,0.2,0.4,0.3,0.7,0.3C13,4.8,13.3,4.7,13.5,4.5L13.5,4.5z"/>
</svg>
