<?xml version="1.0" encoding="utf-8"?>
<!-- Generator: Adobe Illustrator 25.0.1, SVG Export Plug-In . SVG Version: 6.00 Build 0)  -->
<svg version="1.1" id="Слой_1" xmlns="http://www.w3.org/2000/svg" xmlns:xlink="http://www.w3.org/1999/xlink" x="0px" y="0px"
	 viewBox="0 0 24 24" style="enable-background:new 0 0 24 24;" xml:space="preserve">
<style type="text/css">
	.st0{fill-rule:evenodd;clip-rule:evenodd;}
</style>
<path class="st0" d="M21.1,2.9C20.6,2.3,19.8,2,19,2H5C4.2,2,3.4,2.3,2.9,2.9C2.3,3.4,2,4.2,2,5v14c0,0.8,0.3,1.6,0.9,2.1
	C3.4,21.7,4.2,22,5,22h14c0.8,0,1.6-0.3,2.1-0.9c0.6-0.5,0.9-1.3,0.9-2.1V5C22,4.2,21.7,3.4,21.1,2.9z M11,20H5
	c-0.3,0-0.5-0.1-0.7-0.3C4.1,19.5,4,19.3,4,19V5c0-0.3,0.1-0.5,0.3-0.7C4.5,4.1,4.7,4,5,4h6V20z M20,19c0,0.3-0.1,0.5-0.3,0.7
	S19.3,20,19,20h-6V4h6c0.3,0,0.5,0.1,0.7,0.3S20,4.7,20,5V19z"/>
</svg>
