<?xml version="1.0" encoding="utf-8"?>
<!-- Generator: Adobe Illustrator 25.0.1, SVG Export Plug-In . SVG Version: 6.00 Build 0)  -->
<svg version="1.1" id="Слой_1" xmlns="http://www.w3.org/2000/svg" xmlns:xlink="http://www.w3.org/1999/xlink" x="0px" y="0px"
	 viewBox="0 0 24 24" style="enable-background:new 0 0 24 24;" xml:space="preserve">
<g>
	<path d="M12,1.2C6,1.2,1.2,6,1.2,12S6,22.8,12,22.8S22.8,18,22.8,12S18,1.2,12,1.2z M12,21.2c-5.1,0-9.2-4.1-9.2-9.2
		c0-5.1,4.1-9.2,9.2-9.2c5.1,0,9.2,4.1,9.2,9.2C21.2,17.1,17.1,21.2,12,21.2z"/>
	<path d="M9.5,10.8c1.3,0,2.3-1,2.3-2.3s-1-2.3-2.3-2.3s-2.3,1-2.3,2.3S8.2,10.8,9.5,10.8z M9.5,7.8c0.4,0,0.7,0.3,0.7,0.7
		S9.9,9.2,9.5,9.2S8.8,8.9,8.8,8.5S9.1,7.8,9.5,7.8z"/>
	<path d="M15.5,13.2c-1.3,0-2.3,1-2.3,2.3s1,2.3,2.3,2.3s2.3-1,2.3-2.3S16.8,13.2,15.5,13.2z M15.5,16.2c-0.4,0-0.7-0.3-0.7-0.7
		s0.3-0.7,0.7-0.7s0.7,0.3,0.7,0.7S15.9,16.2,15.5,16.2z"/>
	<path d="M17.1,8c-0.3-0.3-0.8-0.4-1.1-0.1l-8.5,7c-0.3,0.3-0.4,0.8-0.1,1.1c0.3,0.3,0.8,0.4,1.1,0.1l8.5-7
		C17.3,8.8,17.4,8.3,17.1,8z"/>
</g>
</svg>
