<?xml version="1.0" encoding="utf-8"?>
<!-- Generator: Adobe Illustrator 25.0.1, SVG Export Plug-In . SVG Version: 6.00 Build 0)  -->
<svg version="1.1" id="Слой_1" xmlns="http://www.w3.org/2000/svg" xmlns:xlink="http://www.w3.org/1999/xlink" x="0px" y="0px"
	 viewBox="0 0 54 54" style="enable-background:new 0 0 54 54;" xml:space="preserve">
<style type="text/css">
	.st0{fill-rule:evenodd;clip-rule:evenodd;}
</style>
<g>
	<path class="st0" d="M27,2.4C13.4,2.4,2.4,13.4,2.4,27s11,24.7,24.6,24.7s24.7-11,24.7-24.7S40.6,2.4,27,2.4z M0.4,27
		C0.4,12.3,12.3,0.4,27,0.4S53.7,12.3,53.7,27S41.7,53.7,27,53.7S0.4,41.7,0.4,27z"/>
	<path class="st0" d="M27,15.5c0.4,0,0.7,0.2,0.9,0.5l3.3,6.5l7.4,1c0.4,0.1,0.7,0.3,0.8,0.7c0.1,0.4,0,0.8-0.3,1l-5.4,5l1.3,7.1
		c0.1,0.4-0.1,0.8-0.4,1c-0.3,0.2-0.7,0.3-1,0.1L27,35l-6.7,3.4c-0.3,0.2-0.7,0.1-1-0.1c-0.3-0.2-0.5-0.6-0.4-1l1.3-7.1l-5.4-5
		c-0.3-0.3-0.4-0.7-0.3-1c0.1-0.4,0.4-0.6,0.8-0.7l7.4-1l3.3-6.5C26.3,15.7,26.6,15.5,27,15.5z M27,18.7l-2.7,5.2
		c-0.1,0.3-0.4,0.5-0.8,0.5l-5.9,0.8l4.2,3.9c0.2,0.2,0.4,0.6,0.3,0.9l-1,5.6l5.3-2.7c0.3-0.1,0.6-0.1,0.9,0l5.3,2.7l-1-5.6
		c-0.1-0.3,0.1-0.7,0.3-0.9l4.2-3.9l-5.9-0.8c-0.3,0-0.6-0.2-0.8-0.5L27,18.7z"/>
</g>
</svg>
