<?xml version="1.0" encoding="utf-8"?>
<!-- Generator: Adobe Illustrator 25.0.1, SVG Export Plug-In . SVG Version: 6.00 Build 0)  -->
<svg version="1.1" id="Слой_1" xmlns="http://www.w3.org/2000/svg" xmlns:xlink="http://www.w3.org/1999/xlink" x="0px" y="0px"
	 viewBox="0 0 54 54" style="enable-background:new 0 0 54 54;" xml:space="preserve">
<style type="text/css">
	.st0{fill-rule:evenodd;clip-rule:evenodd;}
</style>
<g>
	<path class="st0" d="M27,0.4C12.3,0.4,0.4,12.3,0.4,27c0,14.7,11.9,26.6,26.7,26.6S53.6,41.7,53.6,27C53.6,12.3,41.7,0.4,27,0.4z
		 M27,51.6c-13.6,0-24.7-11-24.7-24.6c0-13.6,11-24.7,24.7-24.7c13.6,0,24.6,11,24.6,24.7C51.6,40.6,40.6,51.6,27,51.6z"/>
	<path class="st0" d="M34.5,19.5c-0.4-0.4-1-0.4-1.4,0l-6,6l-6-6c-0.4-0.4-1-0.4-1.4,0c-0.4,0.4-0.4,1,0,1.4l6,6l-6,6
		c-0.4,0.4-0.4,1,0,1.4s1,0.4,1.4,0l6-6l6,6c0.4,0.4,1,0.4,1.4,0c0.4-0.4,0.4-1,0-1.4l-6-6l6-6C34.8,20.6,34.8,19.9,34.5,19.5z"/>
</g>
</svg>
