<?xml version="1.0" encoding="utf-8"?>
<!-- Generator: Adobe Illustrator 25.0.1, SVG Export Plug-In . SVG Version: 6.00 Build 0)  -->
<svg version="1.1" id="Слой_1" xmlns="http://www.w3.org/2000/svg" xmlns:xlink="http://www.w3.org/1999/xlink" x="0px" y="0px"
	 viewBox="0 0 54 54" style="enable-background:new 0 0 54 54;" xml:space="preserve">
<style type="text/css">
	.st0{fill-rule:evenodd;clip-rule:evenodd;}
</style>
<g>
	<path class="st0" d="M37,19.1c-0.6-0.7-1.4-1.2-2.2-1.5C34,17.2,33.1,17,32.2,17c-0.9,0-1.8,0.2-2.6,0.5c-0.8,0.4-1.6,0.9-2.2,1.5
		L27,19.5l-0.4-0.4c-1.3-1.3-3-2.1-4.8-2.1s-3.5,0.8-4.8,2.1c-1.3,1.3-2,3.1-2,5c0,1.9,0.7,3.6,2,5l9.3,9.7c0.2,0.2,0.4,0.3,0.7,0.3
		s0.5-0.1,0.7-0.3L37,29c0.6-0.7,1.1-1.4,1.5-2.3C38.8,25.9,39,25,39,24c0-0.9-0.2-1.8-0.5-2.7C38.2,20.5,37.7,19.7,37,19.1z
		 M36.6,26c-0.2,0.6-0.6,1.2-1,1.6L27,36.6l-8.6-8.9C17.5,26.7,17,25.4,17,24c0-1.3,0.5-2.6,1.4-3.6c0.9-0.9,2.1-1.5,3.4-1.5
		s2.5,0.5,3.4,1.5l1.1,1.2c0.2,0.2,0.4,0.3,0.7,0.3s0.5-0.1,0.7-0.3l1.1-1.2c0.4-0.5,1-0.8,1.6-1.1c0.6-0.2,1.2-0.4,1.8-0.4
		c0.6,0,1.2,0.1,1.8,0.4c0.6,0.2,1.1,0.6,1.6,1.1c0.4,0.5,0.8,1,1,1.6c0.2,0.6,0.4,1.3,0.4,1.9C37,24.7,36.9,25.4,36.6,26z"/>
	<path class="st0" d="M27,0C12.1,0,0,12.1,0,27c0,14.9,12.1,27,27,27s27-12.1,27-27C54,12.1,41.9,0,27,0z M27,52
		C13.2,52,2,40.8,2,27C2,13.2,13.2,2,27,2c13.8,0,25,11.2,25,25C52,40.8,40.8,52,27,52z"/>
</g>
</svg>
