<?xml version="1.0" encoding="utf-8"?>
<!-- Generator: Adobe Illustrator 25.0.1, SVG Export Plug-In . SVG Version: 6.00 Build 0)  -->
<svg version="1.1" id="Слой_1" xmlns="http://www.w3.org/2000/svg" xmlns:xlink="http://www.w3.org/1999/xlink" x="0px" y="0px"
	 viewBox="0 0 43 45" style="enable-background:new 0 0 43 45;" xml:space="preserve">
<path d="M33,14.3c-0.3,3.5-1.7,11.9-2.4,15.8c-0.3,1.7-0.9,2.2-1.5,2.3c-1,0.1-1.8-0.5-2.6-1.1c-0.2-0.2-0.5-0.4-0.7-0.5
	c-1-0.7-1.7-1.2-2.5-1.7c-0.7-0.5-1.4-1-2.3-1.6c-1.8-1.2-1-2,0-3c0.2-0.2,0.3-0.3,0.5-0.5c0.1-0.1,0.4-0.4,1-0.9
	c1.6-1.6,4.8-4.6,4.9-5c0-0.1,0-0.3-0.1-0.4c-0.1-0.1-0.3-0.1-0.4,0c-0.2,0-3.2,2.1-9,6.2c-0.8,0.6-1.6,0.9-2.3,0.9
	c-0.8,0-2.2-0.4-3.3-0.8l-0.5-0.2c-1.1-0.4-1.9-0.6-1.8-1.3c0-0.4,0.6-0.8,1.6-1.2c6.2-2.8,10.3-4.6,12.4-5.5c5.9-2.5,7.1-3,7.9-3
	c0.3,0,0.6,0.1,0.8,0.3c0.2,0.1,0.3,0.4,0.3,0.6C33,13.7,33,14,33,14.3z"/>
</svg>
