<?xml version="1.0" encoding="utf-8"?>
<!-- Generator: Adobe Illustrator 25.0.1, SVG Export Plug-In . SVG Version: 6.00 Build 0)  -->
<svg version="1.1" id="Слой_1" xmlns="http://www.w3.org/2000/svg" xmlns:xlink="http://www.w3.org/1999/xlink" x="0px" y="0px"
	 viewBox="0 0 26 26" style="enable-background:new 0 0 26 26;" xml:space="preserve">
<path d="M24.4,16.2c-0.5-0.6-1.3-1-2.1-1.1c-1-0.1-2.1-0.4-3.1-0.8c-0.6-0.2-1.2-0.3-1.9-0.1c-0.6,0.1-1.2,0.4-1.7,0.9L14.8,16
	c-2.3-1.4-4.2-3.3-5.6-5.6l0.9-0.9c0.4-0.5,0.8-1,0.9-1.6c0.1-0.6,0.1-1.3-0.1-1.9c-0.4-1-0.6-2-0.8-3.1C10,2.1,9.6,1.3,9,0.8
	C8.4,0.3,7.7,0,6.8,0H3.3C2.9,0,2.4,0.1,2,0.3S1.2,0.7,0.9,1.1C0.6,1.4,0.3,1.8,0.2,2.3C0,2.7,0,3.2,0,3.6C0.4,7.4,1.7,11,3.7,14.2
	c1.9,2.9,4.4,5.5,7.3,7.3c3.1,2,6.8,3.3,10.5,3.7c0.1,0,0.2,0,0.3,0c0.4,0,0.7-0.1,1.1-0.2c0.4-0.2,0.8-0.4,1.2-0.7
	c0.3-0.3,0.6-0.7,0.8-1.1c0.2-0.4,0.3-0.9,0.3-1.3v-3.5C25.2,17.6,24.9,16.8,24.4,16.2z M23.2,18.4v3.5c0,0.2,0,0.4-0.1,0.5
	c-0.1,0.2-0.2,0.3-0.3,0.4c-0.1,0.1-0.3,0.2-0.5,0.3c-0.2,0.1-0.4,0.1-0.5,0.1c-3.4-0.4-6.7-1.6-9.6-3.4c-2.7-1.7-5-4-6.7-6.7
	C3.6,10.2,2.4,6.9,2,3.5c0-0.2,0-0.4,0.1-0.5c0.1-0.2,0.2-0.3,0.3-0.5c0.1-0.1,0.3-0.2,0.4-0.3C3,2,3.1,2,3.3,2h3.5c0,0,0,0,0,0
	c0.3,0,0.6,0.1,0.9,0.3C8,2.5,8.1,2.8,8.2,3.1C8.3,4.3,8.6,5.5,9,6.6c0.1,0.2,0.1,0.5,0.1,0.7C9,7.6,8.9,7.9,8.7,8L7.3,9.5
	c-0.3,0.3-0.4,0.8-0.2,1.2c1.7,3.1,4.3,5.6,7.4,7.4c0.4,0.2,0.9,0.2,1.2-0.2l1.5-1.5c0.2-0.2,0.4-0.3,0.7-0.4c0.3-0.1,0.5,0,0.8,0.1
	c1.1,0.4,2.3,0.7,3.5,0.9c0.3,0,0.6,0.2,0.8,0.5C23.1,17.7,23.2,18.1,23.2,18.4C23.2,18.4,23.2,18.4,23.2,18.4z"/>
</svg>
