<?xml version="1.0" encoding="utf-8"?>
<!-- Generator: Adobe Illustrator 25.0.1, SVG Export Plug-In . SVG Version: 6.00 Build 0)  -->
<svg version="1.1" id="Слой_1" xmlns="http://www.w3.org/2000/svg" xmlns:xlink="http://www.w3.org/1999/xlink" x="0px" y="0px"
	 viewBox="0 0 17 17" style="enable-background:new 0 0 17 17;" xml:space="preserve">
<path d="M14.1,2.3c-0.7-0.7-1.6-1.3-2.6-1.7c-1-0.4-2-0.6-3.1-0.6c-4.4,0-8,3.6-8,8c0,1.4,0.4,2.8,1.1,4l-1.1,4.1L4.6,15
	c1.2,0.6,2.5,1,3.8,1h0c4.4,0,8-3.6,8-8c0-1.1-0.2-2.1-0.6-3.1C15.4,4,14.8,3.1,14.1,2.3L14.1,2.3z M8.4,14.6
	c-1.2,0-2.4-0.3-3.4-0.9l-0.2-0.1l-2.5,0.7l0.7-2.5l-0.2-0.3c-0.7-1.1-1-2.3-1-3.5c0-3.7,3-6.6,6.6-6.6c0.9,0,1.7,0.2,2.5,0.5
	c0.8,0.3,1.5,0.8,2.2,1.4c0.6,0.6,1.1,1.3,1.4,2.2c0.3,0.8,0.5,1.7,0.5,2.5C15,11.7,12.1,14.6,8.4,14.6L8.4,14.6z M12,9.7
	c-0.2-0.1-1.2-0.6-1.4-0.7c-0.2-0.1-0.3-0.1-0.4,0.1c-0.1,0.2-0.5,0.7-0.6,0.8C9.5,10,9.4,10,9.2,9.9C9,9.8,8.3,9.6,7.6,9
	C7,8.4,6.6,7.8,6.5,7.6c-0.1-0.2,0-0.3,0.1-0.4c0.1-0.1,0.2-0.2,0.3-0.3C6.9,6.7,7,6.6,7,6.5c0.1-0.1,0-0.3,0-0.3C7,6,6.6,5,6.4,4.7
	C6.2,4.3,6.1,4.3,6,4.3c-0.1,0-0.2,0-0.4,0c-0.1,0-0.2,0-0.3,0.1C5.2,4.4,5.1,4.5,5,4.5C4.9,4.7,4.3,5.2,4.3,6.2s0.7,1.9,0.8,2.1
	c0.1,0.1,1.4,2.1,3.4,3c0.5,0.2,0.8,0.3,1.1,0.4c0.5,0.2,0.9,0.1,1.3,0.1c0.4-0.1,1.2-0.5,1.3-1c0.2-0.5,0.2-0.9,0.1-1
	C12.4,9.8,12.2,9.8,12,9.7L12,9.7z"/>
</svg>
