
<svg xmlns="http://www.w3.org/2000/svg">
  <symbol id="desc1" viewBox="0 0 217 173">
    
    <path d="M189.027 132.801C197.608 127.051 203.77 116.835 202.351 106.604C194.663 114.793 184.326 119.999 173.169 121.301C168.865 121.787 164.026 121.88 161.005 124.984C159.124 126.916 158.351 129.713 158.344 132.409C158.337 135.104 159.018 137.748 159.695 140.358L159.545 141.014C169.861 140.5 180.446 138.551 189.027 132.801Z" fill="#F0F0F0"/>
    <path d="M202.134 106.604C198.998 114.558 193.436 121.322 186.238 125.934C184.706 126.955 183.023 127.727 181.25 128.224C179.508 128.652 177.682 128.605 175.964 128.089C174.352 127.639 172.756 126.993 171.063 126.944C170.196 126.931 169.336 127.102 168.54 127.445C167.744 127.788 167.029 128.296 166.443 128.935C164.94 130.488 164.086 132.489 163.318 134.474C162.466 136.679 161.615 138.982 159.843 140.629C159.628 140.829 159.95 141.151 160.165 140.951C163.248 138.085 163.534 133.546 165.944 130.236C167.069 128.691 168.666 127.476 170.636 127.401C172.359 127.335 174.007 127.999 175.635 128.468C177.303 128.996 179.076 129.108 180.798 128.793C182.59 128.389 184.3 127.682 185.856 126.704C189.392 124.557 192.569 121.868 195.27 118.734C198.372 115.175 200.842 111.112 202.575 106.719C202.682 106.448 202.24 106.334 202.134 106.604Z" fill="white"/>
    <path d="M188.643 124.586C189.581 125.688 190.88 126.422 192.309 126.655C193.738 126.888 195.203 126.606 196.443 125.858C196.693 125.706 196.468 125.31 196.218 125.462C195.065 126.16 193.7 126.423 192.37 126.203C191.04 125.984 189.832 125.296 188.965 124.264C188.776 124.04 188.456 124.363 188.643 124.586Z" fill="white"/>
    <path d="M176.751 128.424C176.963 125.473 178.28 122.709 180.438 120.685C180.653 120.485 180.33 120.163 180.117 120.363C177.874 122.474 176.51 125.352 176.296 128.424C176.276 128.717 176.731 128.715 176.751 128.424Z" fill="white"/>
    <path d="M197.797 114.992C197.345 114.641 196.987 114.183 196.756 113.66C196.525 113.137 196.427 112.564 196.472 111.994C196.496 111.701 196.041 111.703 196.017 111.994C195.97 112.624 196.079 113.256 196.333 113.835C196.587 114.414 196.979 114.922 197.475 115.314C197.518 115.355 197.576 115.378 197.636 115.378C197.696 115.378 197.753 115.355 197.797 115.314C197.839 115.271 197.863 115.213 197.863 115.153C197.863 115.093 197.839 115.035 197.797 114.992Z" fill="white"/>
    <path d="M172.595 88.2285C172.575 88.4107 172.555 88.5928 172.531 88.7769C172.248 91.2246 171.767 93.6453 171.092 96.015C171.043 96.1991 170.99 96.3848 170.936 96.5671C169.249 102.259 166.52 107.588 162.888 112.284C161.441 114.151 159.854 115.906 158.141 117.532C155.774 119.778 153.03 122.025 151.587 124.839C151.433 125.131 151.297 125.432 151.18 125.74L158.756 140.78C158.791 140.806 158.822 140.833 158.856 140.859L159.131 141.473C159.226 141.396 159.322 141.313 159.416 141.235C159.471 141.19 159.524 141.142 159.579 141.097C159.615 141.066 159.651 141.035 159.685 141.009C159.697 140.999 159.709 140.989 159.718 140.98C159.752 140.954 159.781 140.927 159.812 140.902C160.35 140.442 160.886 139.977 161.419 139.508C161.423 139.506 161.423 139.506 161.425 139.501C165.481 135.913 169.273 131.955 172.345 127.547C172.437 127.414 172.533 127.28 172.622 127.14C173.995 125.146 175.203 123.042 176.234 120.851C176.794 119.649 177.293 118.42 177.73 117.168C178.85 113.93 179.455 110.536 179.521 107.111C179.652 100.282 177.597 93.487 172.953 88.5985C172.834 88.4736 172.717 88.3518 172.595 88.2285Z" fill="#F0F0F0"/>
    <path d="M172.421 88.3585C174.706 96.5971 174.337 105.346 171.367 113.363C170.758 115.1 169.879 116.731 168.763 118.194C167.629 119.585 166.144 120.646 164.461 121.269C162.904 121.881 161.24 122.326 159.858 123.306C159.159 123.818 158.575 124.472 158.146 125.225C157.717 125.978 157.452 126.814 157.368 127.677C157.104 129.822 157.626 131.934 158.208 133.981C158.855 136.255 159.563 138.606 159.139 140.988C159.088 141.277 159.539 141.34 159.59 141.051C160.327 136.906 157.822 133.11 157.753 129.016C157.722 127.106 158.265 125.174 159.793 123.927C161.129 122.837 162.844 122.376 164.426 121.77C166.077 121.187 167.559 120.209 168.745 118.921C169.932 117.519 170.872 115.925 171.525 114.208C173.056 110.365 173.973 106.305 174.243 102.177C174.578 97.4673 174.104 92.7353 172.842 88.1855C172.764 87.904 172.343 88.0788 172.421 88.3585Z" fill="white"/>
    <path d="M172.475 110.838C173.888 111.154 175.367 110.957 176.648 110.283C177.929 109.609 178.929 108.502 179.469 107.158C179.577 106.886 179.16 106.705 179.051 106.978C178.551 108.229 177.619 109.261 176.425 109.886C175.231 110.511 173.852 110.689 172.539 110.387C172.253 110.322 172.191 110.773 172.475 110.838Z" fill="white"/>
    <path d="M165.291 121.062C163.684 118.578 163.071 115.579 163.576 112.663C163.626 112.375 163.175 112.312 163.125 112.6C162.605 115.636 163.249 118.755 164.928 121.337C165.088 121.582 165.451 121.307 165.291 121.062Z" fill="white"/>
    <path d="M174.008 97.6671C173.436 97.6588 172.875 97.5086 172.375 97.2299C171.876 96.9512 171.453 96.5527 171.145 96.0703C170.988 95.8225 170.626 96.0982 170.782 96.3445C171.124 96.8759 171.591 97.3153 172.143 97.6245C172.694 97.9336 173.313 98.103 173.945 98.1179C174.004 98.1243 174.064 98.1078 174.112 98.0718C174.159 98.0358 174.192 97.983 174.202 97.9241C174.21 97.8643 174.194 97.8038 174.158 97.7557C174.121 97.7076 174.068 97.6757 174.008 97.6671Z" fill="white"/>
    <path d="M14.1116 152.122C14.745 145.478 18.6612 138.836 24.914 136.5C22.6193 143.387 22.8344 150.863 25.5213 157.606C26.5669 160.203 28.0003 162.982 27.1635 165.654C26.6429 167.316 25.2898 168.615 23.7595 169.447C22.2291 170.279 20.5164 170.704 18.8251 171.121L18.4981 171.407C15.6212 165.384 13.4782 158.767 14.1116 152.122Z" fill="#F0F0F0"/>
    <path d="M24.9802 136.624C21.4212 140.849 19.2841 146.089 18.8726 151.599C18.7629 152.783 18.8407 153.978 19.103 155.138C19.395 156.26 19.9822 157.284 20.8035 158.102C21.5539 158.88 22.4117 159.59 22.9598 160.537C23.2332 161.026 23.4001 161.567 23.4496 162.125C23.4991 162.684 23.4301 163.246 23.247 163.775C22.8253 165.107 21.9503 166.207 21.0573 167.254C20.0657 168.415 19.0174 169.606 18.6252 171.12C18.5777 171.304 18.2959 171.219 18.3433 171.036C19.0257 168.402 21.5186 166.846 22.6603 164.459C23.193 163.345 23.3932 162.063 22.831 160.92C22.3394 159.92 21.4555 159.188 20.6889 158.406C19.876 157.619 19.268 156.646 18.9182 155.57C18.5977 154.427 18.474 153.237 18.5526 152.053C18.6868 149.383 19.2401 146.751 20.192 144.252C21.2626 141.395 22.8141 138.742 24.7793 136.409C24.901 136.264 25.1011 136.48 24.9802 136.624Z" fill="white"/>
    <path d="M18.9007 149.817C17.9856 149.622 17.1696 149.109 16.5982 148.368C16.0268 147.628 15.7373 146.708 15.7814 145.773C15.7835 145.735 15.8004 145.7 15.8284 145.674C15.8564 145.648 15.8933 145.634 15.9315 145.635C15.9696 145.635 16.006 145.651 16.0328 145.678C16.0597 145.705 16.075 145.742 16.0756 145.78C16.0329 146.65 16.3027 147.506 16.8362 148.195C17.3696 148.884 18.1317 149.359 18.9849 149.535C19.1702 149.574 19.0849 149.855 18.9007 149.817Z" fill="white"/>
    <path d="M20.371 157.757C21.9841 156.73 23.1508 155.133 23.6385 153.284C23.6866 153.101 23.9685 153.185 23.9203 153.368C23.4092 155.291 22.1917 156.951 20.5108 158.016C20.3505 158.118 20.2116 157.858 20.371 157.757Z" fill="white"/>
    <path d="M21.5435 141.666C21.8818 141.815 22.2519 141.878 22.6205 141.848C22.9891 141.819 23.3446 141.699 23.6551 141.498C23.814 141.395 23.9528 141.654 23.7949 141.757C23.4508 141.977 23.058 142.109 22.6508 142.143C22.2437 142.176 21.8346 142.109 21.4593 141.948C21.4226 141.936 21.392 141.91 21.3737 141.876C21.3553 141.842 21.3506 141.802 21.3604 141.765C21.3718 141.728 21.3974 141.696 21.4316 141.678C21.4659 141.659 21.5061 141.655 21.5435 141.666Z" fill="white"/>
    <path d="M43.2364 147.774C43.139 147.841 43.0416 147.908 42.9442 147.978C41.639 148.89 41.6762 149.909 40.5358 151.02C40.4463 151.104 40.3568 151.191 40.2699 151.278C37.5518 153.986 35.36 157.174 33.8059 160.682C33.1888 162.078 32.6788 163.519 32.2803 164.993C31.7301 167.028 31.2954 169.279 30.1391 170.964C30.0204 171.141 29.8909 171.31 29.7512 171.472L18.8731 171.784C18.848 171.772 18.8229 171.763 18.7977 171.751L18.364 171.783C18.3792 171.706 18.3967 171.626 18.4119 171.549C18.4206 171.504 18.4316 171.459 18.4403 171.414C18.4468 171.384 18.4535 171.354 18.4577 171.326C18.4598 171.316 18.4621 171.306 18.4643 171.299C18.4685 171.271 18.4753 171.246 18.4795 171.221C18.576 170.774 18.6757 170.326 18.7788 169.879C18.7787 169.876 18.7787 169.876 18.7811 169.874C19.5338 166.456 20.6893 163.139 22.2234 159.993C22.2704 159.9 22.3173 159.804 22.3693 159.711C23.0815 158.317 23.9064 156.984 24.8358 155.725C25.3469 155.038 25.8925 154.376 26.4705 153.743C27.967 152.112 29.711 150.726 31.6383 149.636C35.4808 147.464 38.7102 146.545 42.9159 147.684C43.0235 147.713 43.1288 147.742 43.2364 147.774Z" fill="#F0F0F0"/>
    <path d="M43.216 147.913C37.8863 149.129 34.1757 152.057 30.588 156.192C29.7873 157.072 29.1303 158.073 28.6411 159.157C28.1987 160.229 28.0514 161.399 28.2145 162.547C28.345 163.621 28.6028 164.703 28.4701 165.79C28.394 166.345 28.2013 166.878 27.9048 167.353C27.6083 167.828 27.2147 168.236 26.7497 168.548C25.6114 169.358 24.2503 169.709 22.9073 170.007C21.4161 170.338 19.862 170.658 18.6374 171.63C18.4891 171.748 18.3149 171.511 18.463 171.393C20.5935 169.701 23.5211 169.959 25.8699 168.741C26.9659 168.172 27.8972 167.27 28.1368 166.018C28.3464 164.923 28.0815 163.807 27.9399 162.721C27.7644 161.604 27.8653 160.46 28.2336 159.391C28.666 158.285 29.2834 157.261 30.0593 156.362C31.774 154.311 33.8005 152.543 36.0646 151.121C38.6373 149.486 40.2134 148.298 43.185 147.62C43.3691 147.578 43.3989 147.871 43.216 147.913Z" fill="white"/>
    <path d="M31.6831 154.786C31.0697 154.08 30.7272 153.179 30.7169 152.244C30.7066 151.308 31.0292 150.4 31.627 149.68C31.7484 149.535 31.9797 149.717 31.8581 149.862C31.3002 150.531 30.9998 151.378 31.0112 152.249C31.0226 153.12 31.3449 153.958 31.9201 154.612C32.0449 154.754 31.8072 154.928 31.6831 154.786Z" fill="white"/>
    <path d="M28.0766 162.012C29.9829 162.163 31.8762 161.59 33.3788 160.407C33.5276 160.29 33.7018 160.527 33.5532 160.644C31.9872 161.872 30.0158 162.464 28.0324 162.303C27.8433 162.287 27.8886 161.996 28.0766 162.012Z" fill="white"/>
    <path d="M38.7008 149.87C38.8812 150.192 39.139 150.465 39.4509 150.664C39.7628 150.862 40.1192 150.98 40.4879 151.007C40.6771 151.02 40.6316 151.311 40.4437 151.298C40.0364 151.266 39.643 151.136 39.2979 150.917C38.9528 150.699 38.6664 150.399 38.4638 150.044C38.4419 150.012 38.433 149.973 38.4388 149.935C38.4446 149.897 38.4647 149.862 38.4951 149.838C38.5266 149.815 38.5659 149.806 38.6044 149.812C38.6429 149.818 38.6775 149.838 38.7008 149.87Z" fill="white"/>
    <path d="M149.813 0.632334H142.372C142.714 1.47128 142.845 2.38151 142.753 3.28283C142.66 4.18416 142.348 5.04891 141.842 5.80092C141.337 6.55293 140.654 7.16911 139.855 7.59518C139.055 8.02125 138.163 8.24415 137.257 8.24422H104.599C103.693 8.24415 102.801 8.02126 102.001 7.59519C101.202 7.16911 100.519 6.55293 100.014 5.80092C99.5085 5.04891 99.1958 4.18415 99.1034 3.28283C99.0109 2.3815 99.1415 1.47127 99.4837 0.632324H92.5338C89.4494 0.632322 86.4914 1.85757 84.3105 4.03853C82.1295 6.21949 80.9042 9.17751 80.9042 12.2619V159.656C80.9042 161.184 81.205 162.696 81.7895 164.107C82.3739 165.518 83.2305 166.8 84.3104 167.88C85.3903 168.96 86.6724 169.816 88.0834 170.401C89.4943 170.985 91.0066 171.286 92.5338 171.286H149.813C151.341 171.286 152.853 170.985 154.264 170.401C155.675 169.816 156.957 168.96 158.037 167.88C159.117 166.8 159.973 165.518 160.558 164.107C161.142 162.696 161.443 161.184 161.443 159.656V12.2619C161.443 10.7347 161.142 9.2224 160.558 7.81143C159.973 6.40047 159.117 5.11844 158.037 4.03854C156.957 2.95864 155.675 2.10201 154.264 1.51758C152.853 0.933138 151.341 0.632332 149.813 0.632334Z" fill="white"/>
    <path d="M149.813 171.918H92.5339C89.2829 171.915 86.1661 170.622 83.8673 168.323C81.5685 166.024 80.2755 162.907 80.2718 159.656V12.262C80.2755 9.01107 81.5685 5.89434 83.8673 3.59556C86.1661 1.29679 89.2828 0.00371442 92.5338 0H100.425L100.069 0.871326C99.7663 1.61424 99.6507 2.42027 99.7325 3.21843C99.8144 4.01658 100.091 4.78236 100.539 5.44829C100.986 6.11421 101.591 6.65986 102.299 7.03716C103.007 7.41445 103.797 7.61182 104.599 7.61186H137.257C138.059 7.61176 138.849 7.41436 139.557 7.03705C140.265 6.65974 140.87 6.1141 141.317 5.44819C141.765 4.78228 142.042 4.01653 142.123 3.2184C142.205 2.42027 142.09 1.61425 141.787 0.871326L141.431 0H149.813C153.064 0.0036877 156.181 1.29676 158.48 3.59554C160.779 5.89431 162.072 9.01106 162.075 12.262V159.657C162.072 162.908 160.779 166.024 158.48 168.323C156.181 170.622 153.064 171.915 149.813 171.918ZM92.5338 1.26491C89.6182 1.26824 86.823 2.42793 84.7613 4.48956C82.6997 6.5512 81.54 9.34643 81.5367 12.262V159.656C81.54 162.572 82.6997 165.367 84.7613 167.429C86.8229 169.491 89.6182 170.65 92.5338 170.654H149.813C152.729 170.65 155.524 169.491 157.586 167.429C159.647 165.367 160.807 162.572 160.81 159.657V12.262C160.807 9.34644 159.648 6.5512 157.586 4.48955C155.524 2.42791 152.729 1.26823 149.813 1.26493H143.24C143.46 2.17091 143.472 3.11505 143.274 4.02614C143.076 4.93723 142.674 5.79148 142.098 6.52446C141.522 7.25745 140.786 7.85002 139.948 8.25751C139.109 8.66499 138.189 8.87674 137.257 8.87679H104.599C103.667 8.87641 102.747 8.66445 101.909 8.25686C101.07 7.84927 100.335 7.2567 99.7592 6.5238C99.1831 5.7909 98.7808 4.93679 98.5828 4.02585C98.3847 3.1149 98.396 2.17088 98.6158 1.26493L92.5338 1.26491Z" fill="#E4E4E4"/>
    <path d="M150.243 23.2849H132.97C132.776 23.2849 132.589 23.2078 132.452 23.0704C132.315 22.933 132.237 22.7467 132.237 22.5524C132.237 22.3581 132.315 22.1718 132.452 22.0344C132.589 21.897 132.776 21.8198 132.97 21.8198H150.243C150.339 21.8196 150.435 21.8384 150.524 21.8752C150.613 21.9119 150.694 21.9658 150.762 22.0338C150.83 22.1019 150.884 22.1827 150.921 22.2717C150.958 22.3607 150.977 22.456 150.977 22.5524C150.977 22.6487 150.958 22.7441 150.921 22.8331C150.884 22.922 150.83 23.0029 150.762 23.0709C150.694 23.139 150.613 23.1929 150.524 23.2296C150.435 23.2663 150.339 23.2851 150.243 23.2849Z" fill="#FF9900"/>
    <path d="M150.243 26.5718H132.97C132.776 26.5718 132.589 26.4946 132.452 26.3572C132.315 26.2199 132.237 26.0335 132.237 25.8392C132.237 25.645 132.315 25.4586 132.452 25.3213C132.589 25.1839 132.776 25.1067 132.97 25.1067H150.243C150.339 25.1065 150.435 25.1253 150.524 25.162C150.613 25.1987 150.694 25.2527 150.762 25.3207C150.83 25.3888 150.884 25.4696 150.921 25.5586C150.958 25.6475 150.977 25.7429 150.977 25.8392C150.977 25.9356 150.958 26.031 150.921 26.1199C150.884 26.2089 150.83 26.2897 150.762 26.3578C150.694 26.4258 150.613 26.4797 150.524 26.5165C150.435 26.5532 150.339 26.572 150.243 26.5718Z" fill="#FF9900"/>
    <path d="M150.243 29.8587H132.97C132.776 29.8587 132.589 29.7815 132.452 29.6441C132.315 29.5067 132.237 29.3204 132.237 29.1261C132.237 28.9318 132.315 28.7455 132.452 28.6081C132.589 28.4707 132.776 28.3936 132.97 28.3936H150.243C150.339 28.3934 150.435 28.4121 150.524 28.4489C150.613 28.4856 150.694 28.5395 150.762 28.6076C150.83 28.6756 150.884 28.7564 150.921 28.8454C150.958 28.9344 150.977 29.0298 150.977 29.1261C150.977 29.2224 150.958 29.3178 150.921 29.4068C150.884 29.4958 150.83 29.5766 150.762 29.6446C150.694 29.7127 150.613 29.7666 150.524 29.8033C150.435 29.8401 150.339 29.8589 150.243 29.8587Z" fill="#FF9900"/>
    <path d="M62.8797 168.718L65.7738 168.718L67.1507 157.555H62.8794L62.8797 168.718Z" fill="#FFB6B6"/>
    <path d="M62.1415 167.773L67.8412 167.773C68.8046 167.773 69.7286 168.156 70.4098 168.837C71.091 169.518 71.4737 170.442 71.4738 171.405V171.523L62.1417 171.524L62.1415 167.773Z" fill="#2F2E41"/>
    <path d="M51.5641 166.024L54.2941 166.985L59.2991 156.912L55.2697 155.494L51.5641 166.024Z" fill="#FFB6B6"/>
    <path d="M51.1815 164.888L56.558 166.78C57.4666 167.1 58.2112 167.768 58.6276 168.637C59.044 169.505 59.0983 170.504 58.7786 171.412L58.7394 171.524L49.9365 168.426L51.1815 164.888Z" fill="#2F2E41"/>
    <path d="M49.8442 103.832L48.092 105.741L55.1745 135.223L62.4513 163.974H68.2689L64.9229 136.537V108.32L49.8442 103.832Z" fill="#2F2E41"/>
    <path d="M67.9482 106.197L68.7151 109.052L64.6171 134.515L58.7979 161.496H52.2086L57.1557 128.413L63.2007 104.062L67.9482 106.197Z" fill="#2F2E41"/>
    <path d="M71.57 63.8931L69.0085 59.2948L62.9323 58.3003C59.9036 59.1013 57.1923 60.8096 55.1626 63.1961C53.1329 65.5825 51.8818 68.5328 51.5774 71.6508L48.2828 105.394C48.2828 105.394 65.1405 113.152 68.715 108.784L73.686 70.4837C73.8826 69.296 73.7932 68.0786 73.4252 66.9324C73.0572 65.7862 72.4212 64.7443 71.57 63.8931Z" fill="#3F3D56"/>
    <path d="M67.2519 56.8087C70.8128 56.8087 73.6995 53.922 73.6995 50.3611C73.6995 46.8002 70.8128 43.9136 67.2519 43.9136C63.691 43.9136 60.8044 46.8002 60.8044 50.3611C60.8044 53.922 63.691 56.8087 67.2519 56.8087Z" fill="#FFB6B6"/>
    <path d="M75.7221 46.8464C75.3251 46.7353 74.9865 46.4749 74.7772 46.1198C74.6351 45.8822 74.5594 45.6108 74.5581 45.3339C74.5568 45.0571 74.63 44.785 74.7699 44.5461C74.4733 44.3922 74.1471 44.3037 73.8133 44.2868C73.4796 44.2698 73.1461 44.3247 72.8354 44.4477C73.0979 44.2185 73.3023 43.9304 73.4318 43.6069C73.5614 43.2834 73.6123 42.9338 73.5804 42.5868C72.8067 42.8486 72.033 43.1105 71.2593 43.3723C71.5399 43.1577 71.747 42.8612 71.8519 42.5238C71.9567 42.1864 71.9543 41.8247 71.8448 41.4888C71.2097 42.3935 69.8945 42.515 68.8226 42.2451C67.7507 41.9753 66.7603 41.4092 65.6682 41.2388C65.0623 41.1443 64.4434 41.1752 63.85 41.3297C63.2565 41.4842 62.7011 41.7589 62.2182 42.1369C61.7353 42.5148 61.3352 42.9879 61.0426 43.5269C60.75 44.0658 60.5713 44.6591 60.5174 45.27C60.2357 45.3057 59.9677 45.4125 59.7386 45.5802C59.5095 45.748 59.3268 45.9713 59.2077 46.2291C58.9754 46.7482 58.8697 47.315 58.899 47.8829C58.9183 49.2381 59.2484 50.5708 59.8638 51.7784C60.4793 52.986 61.3637 54.0362 62.4489 54.8483L62.8052 54.7256C62.7642 53.9928 63.0073 53.2723 63.4838 52.7141C63.9603 52.1558 64.6337 51.8026 65.3639 51.728C66.3096 51.6686 67.4263 52.0474 68.1013 51.3823C68.7187 50.7738 68.4978 49.6846 69.0018 48.9792C69.4401 48.3657 70.3121 48.2226 71.0517 48.3696C71.7913 48.5165 72.4642 48.8911 73.1824 49.1206C73.9007 49.35 74.7419 49.4146 75.3595 48.9819C75.6144 48.7771 75.8205 48.5182 75.9631 48.2239C76.1056 47.9296 76.181 47.6074 76.1836 47.2804C76.1908 47.1482 76.1897 47.0156 76.1803 46.8836C76.0266 46.8918 75.8725 46.8793 75.7221 46.8464Z" fill="#2F2E41"/>
    <path d="M99.074 107.051H32.6781V126.277H99.074V107.051Z" fill="white"/>
    <path d="M99.6775 126.881H32.0744V106.447H99.6775V126.881ZM33.2816 125.674H98.4703V107.654H33.2816L33.2816 125.674Z" fill="#E4E4E4"/>
    <path d="M86.1764 113.662H45.5755C45.3472 113.662 45.1283 113.571 44.9669 113.41C44.8054 113.249 44.7147 113.03 44.7147 112.801C44.7147 112.573 44.8054 112.354 44.9669 112.193C45.1283 112.031 45.3472 111.94 45.5755 111.94H86.1764C86.4047 111.94 86.6236 112.031 86.7851 112.193C86.9465 112.354 87.0372 112.573 87.0372 112.801C87.0372 113.03 86.9465 113.249 86.7851 113.41C86.6236 113.571 86.4047 113.662 86.1764 113.662Z" fill="#FF9900"/>
    <path d="M86.1764 117.525H45.5756C45.3475 117.525 45.129 117.434 44.9679 117.272C44.8068 117.111 44.7163 116.892 44.7163 116.664C44.7163 116.436 44.8068 116.217 44.9679 116.056C45.129 115.895 45.3475 115.804 45.5756 115.803H86.1764C86.4045 115.804 86.6231 115.895 86.7841 116.056C86.9453 116.217 87.0357 116.436 87.0357 116.664C87.0357 116.892 86.9453 117.111 86.7841 117.272C86.6231 117.434 86.4045 117.525 86.1764 117.525Z" fill="#FF9900"/>
    <path d="M69.7424 121.388H45.5755C45.3472 121.388 45.1283 121.297 44.9669 121.136C44.8054 120.974 44.7147 120.755 44.7147 120.527C44.7147 120.299 44.8054 120.08 44.9669 119.918C45.1283 119.757 45.3472 119.666 45.5755 119.666H69.7424C69.9707 119.666 70.1897 119.757 70.3511 119.918C70.5125 120.08 70.6032 120.299 70.6032 120.527C70.6032 120.755 70.5125 120.974 70.3511 121.136C70.1897 121.297 69.9707 121.388 69.7424 121.388Z" fill="#FF9900"/>
    <path d="M72.2543 109.453C71.9963 109.221 71.7922 108.935 71.6565 108.616C71.5208 108.296 71.4568 107.951 71.469 107.604C71.4812 107.258 71.5693 106.918 71.727 106.608C71.8848 106.299 72.1085 106.029 72.3822 105.815L69.6646 97.8291L73.9066 98.9348L75.8369 106.349C76.1648 106.833 76.3039 107.42 76.2279 107.999C76.1518 108.578 75.8659 109.11 75.4243 109.492C74.9827 109.875 74.4161 110.082 73.8319 110.075C73.2476 110.068 72.6863 109.847 72.2543 109.453Z" fill="#FFB6B6"/>
    <path d="M70.3769 104.13L65.9791 87.8718L65.594 68.0642C65.5745 67.2534 65.8188 66.4583 66.2902 65.7984C66.7615 65.1385 67.4344 64.6495 68.2077 64.405C68.7863 64.2192 69.4014 64.1761 70.0003 64.2795C70.5992 64.3829 71.1642 64.6297 71.6471 64.9989C72.1299 65.368 72.5163 65.8485 72.7731 66.3993C73.03 66.9502 73.1497 67.555 73.1221 68.1622L72.4137 83.7477L75.9029 102.352L70.3769 104.13Z" fill="#3F3D56"/>
    <path d="M56.3673 109.925C56.1092 109.693 55.9051 109.407 55.7694 109.088C55.6338 108.769 55.5697 108.423 55.5819 108.077C55.5941 107.73 55.6822 107.39 55.84 107.081C55.9978 106.772 56.2214 106.501 56.4951 106.287L53.7775 98.3013L58.0195 99.407L59.9499 106.821C60.2778 107.305 60.4169 107.892 60.3408 108.471C60.2648 109.051 59.9789 109.582 59.5373 109.965C59.0957 110.347 58.529 110.554 57.9448 110.547C57.3606 110.54 56.7993 110.319 56.3673 109.925Z" fill="#FFB6B6"/>
    <path d="M53.8218 103.372L51.9404 86.6551L54.5697 66.9978C54.6367 66.4974 54.8035 66.0155 55.0604 65.5808C55.3173 65.1462 55.6589 64.7676 56.065 64.4676C56.4712 64.1676 56.9334 63.9524 57.4244 63.8346C57.9154 63.7168 58.425 63.699 58.923 63.7821C59.421 63.8652 59.8972 64.0477 60.3233 64.3185C60.7494 64.5893 61.1167 64.9431 61.4034 65.3587C61.69 65.7744 61.8902 66.2434 61.992 66.7379C62.0937 67.2324 62.095 67.7424 61.9958 68.2374L58.9293 83.535L59.5536 102.453L53.8218 103.372Z" fill="#3F3D56"/>
    <path d="M197.41 161.765H95.7687V138.373H197.41V161.765Z" fill="white"/>
    <path d="M109.99 146.107C109.728 146.107 109.476 146.212 109.29 146.397C109.104 146.583 109 146.835 109 147.098C109 147.36 109.104 147.612 109.29 147.798C109.476 147.984 109.728 148.088 109.99 148.088H182.298C182.56 148.088 182.812 147.983 182.997 147.797C183.182 147.612 183.286 147.36 183.286 147.098C183.286 146.835 183.182 146.584 182.997 146.398C182.812 146.212 182.56 146.108 182.298 146.107H109.99Z" fill="#E6E6E6"/>
    <path d="M109.999 152C109.734 151.999 109.481 152.104 109.293 152.291C109.106 152.479 109.001 152.733 109 152.998C108.999 153.263 109.104 153.518 109.29 153.706C109.477 153.894 109.73 153.999 109.995 154H156.002C156.133 154 156.262 153.975 156.383 153.924C156.505 153.874 156.615 153.801 156.707 153.708C156.8 153.615 156.874 153.505 156.924 153.383C156.974 153.262 157 153.131 157 153C157 152.869 156.974 152.738 156.924 152.617C156.874 152.495 156.8 152.385 156.707 152.292C156.615 152.199 156.505 152.126 156.383 152.076C156.262 152.025 156.133 152 156.002 152H109.999Z" fill="#E6E6E6"/>
    <path d="M197.41 161.765H95.7687V138.373H197.41V161.765ZM97.4395 160.094H195.74V140.044H97.4395V160.094Z" fill="#E5E5E5"/>
    <path d="M37.2475 94.4883C36.4081 94.4883 35.5875 94.2393 34.8896 93.773C34.1916 93.3066 33.6477 92.6438 33.3264 91.8683C33.0052 91.0928 32.9211 90.2394 33.0849 89.4161C33.2487 88.5929 33.6529 87.8366 34.2464 87.2431C34.84 86.6495 35.5962 86.2453 36.4195 86.0816C37.2428 85.9178 38.0961 86.0018 38.8716 86.3231C39.6472 86.6443 40.31 87.1883 40.7764 87.8862C41.2427 88.5842 41.4916 89.4047 41.4916 90.2441C41.4916 91.3698 41.0445 92.4493 40.2485 93.2452C39.4526 94.0411 38.3731 94.4883 37.2475 94.4883Z" fill="#F0F0F0"/>
    <path d="M56.6111 34.346C55.6847 34.346 54.7791 34.0713 54.0088 33.5566C53.2385 33.0419 52.6382 32.3104 52.2837 31.4545C51.9292 30.5986 51.8364 29.6568 52.0171 28.7482C52.1979 27.8396 52.644 27.005 53.299 26.3499C53.9541 25.6949 54.7887 25.2488 55.6973 25.068C56.6059 24.8873 57.5477 24.9801 58.4036 25.3346C59.2595 25.6891 59.991 26.2894 60.5057 27.0597C61.0204 27.83 61.2951 28.7356 61.2951 29.662C61.2951 30.2771 61.1739 30.8862 60.9385 31.4545C60.7031 32.0228 60.3581 32.5391 59.9232 32.9741C59.4882 33.409 58.9719 33.754 58.4036 33.9894C57.8353 34.2248 57.2262 34.346 56.6111 34.346Z" fill="#F0F0F0"/>
    <path d="M177.428 67.8237C176.631 67.8237 175.853 67.5874 175.19 67.1448C174.528 66.7022 174.011 66.073 173.706 65.337C173.402 64.6009 173.322 63.7909 173.477 63.0095C173.633 62.2281 174.016 61.5103 174.58 60.947C175.143 60.3836 175.861 59.9999 176.642 59.8445C177.424 59.6891 178.234 59.7688 178.97 60.0737C179.706 60.3786 180.335 60.8949 180.778 61.5574C181.22 62.2198 181.456 62.9987 181.456 63.7954C181.456 64.8637 181.032 65.8884 180.277 66.6438C179.521 67.3993 178.496 67.8237 177.428 67.8237Z" fill="#F0F0F0"/>
    <path d="M151.924 42.146H90.1791V88.7725H151.924V42.146Z" fill="white"/>
    <path d="M152.733 89.581H89.3705V41.3374H152.733V89.581ZM90.9876 87.9639H151.116V42.9545H90.9876V87.9639Z" fill="#E4E4E4"/>
    <path d="M151.223 43.0984H91.2302L151.223 88.319V43.0984Z" fill="#F0F0F0"/>
    <path d="M185.946 171.541C184.148 171.541 182.392 171.008 180.897 170.01C179.403 169.011 178.238 167.592 177.55 165.932C176.863 164.271 176.683 162.444 177.033 160.681C177.384 158.919 178.249 157.3 179.52 156.029C180.791 154.758 182.41 153.892 184.173 153.542C185.936 153.191 187.763 153.371 189.423 154.059C191.083 154.747 192.503 155.911 193.501 157.406C194.5 158.9 195.033 160.657 195.033 162.454C195.033 163.647 194.797 164.829 194.341 165.932C193.884 167.034 193.215 168.036 192.371 168.88C191.527 169.723 190.525 170.393 189.423 170.849C188.321 171.306 187.139 171.541 185.946 171.541Z" fill="#FF9900"/>
    <path d="M189.531 161.558H186.842V158.869C186.842 158.631 186.748 158.403 186.579 158.235C186.411 158.067 186.183 157.972 185.946 157.972C185.708 157.972 185.48 158.067 185.312 158.235C185.144 158.403 185.049 158.631 185.049 158.869V161.558H182.36C182.123 161.558 181.895 161.653 181.727 161.821C181.56 161.989 181.465 162.217 181.465 162.454C181.465 162.691 181.56 162.919 181.727 163.087C181.895 163.255 182.123 163.35 182.36 163.35H185.049V166.04C185.049 166.277 185.144 166.505 185.312 166.673C185.48 166.841 185.708 166.936 185.946 166.936C186.183 166.936 186.411 166.841 186.579 166.673C186.748 166.505 186.842 166.277 186.842 166.04V163.35H189.531C189.649 163.351 189.766 163.328 189.875 163.283C189.984 163.238 190.083 163.172 190.166 163.088C190.249 163.005 190.316 162.906 190.361 162.797C190.406 162.689 190.429 162.572 190.429 162.454C190.429 162.336 190.406 162.22 190.361 162.111C190.316 162.002 190.249 161.903 190.166 161.82C190.083 161.736 189.984 161.67 189.875 161.625C189.766 161.58 189.649 161.557 189.531 161.558Z" fill="white"/>
    <path d="M197.034 172.041H14.4774C14.3777 172.041 14.2822 172.001 14.2118 171.93C14.1415 171.86 14.1019 171.764 14.1019 171.665C14.1019 171.565 14.1415 171.469 14.2118 171.399C14.2822 171.328 14.3777 171.288 14.4774 171.288H197.034C197.134 171.288 197.229 171.328 197.299 171.399C197.37 171.469 197.409 171.565 197.409 171.665C197.409 171.764 197.37 171.86 197.299 171.93C197.229 172.001 197.134 172.041 197.034 172.041Z" fill="#CACACA"/>
    <g opacity="0.7">
    <path d="M113.972 64.9232L121.278 79.22L109 64.9232H113.972Z" fill="#EA6C00"/>
    <path d="M128.584 64.9232L121.279 79.22L133.557 64.9232H128.584Z" fill="#EA6C00"/>
    <path d="M113.972 64.9232H128.582L121.278 79.22L113.972 64.9232Z" fill="#FDAD00"/>
    <path d="M121.278 57L114.357 57.7315L113.97 64.9232L121.278 57Z" fill="#FDD231"/>
    <path d="M121.278 57L128.197 57.7315L128.584 64.9232L121.278 57Z" fill="#FDD231"/>
    <path d="M133.557 64.9232L128.2 57.7316L128.587 64.9232H133.557Z" fill="#FDAD00"/>
    <path d="M109 64.9232L114.357 57.7316L113.97 64.9232H109Z" fill="#FDAD00"/>
    <path d="M121.278 57L113.972 64.9232H128.582L121.278 57Z" fill="#FEEEB7"/>
    </g>


  </symbol>
  <symbol id="desc2" viewBox="0 0 250 205">
    
    <g clip-path="url(#clip0_2_154)">
    <path d="M213.319 183.058H221.89V157.29C221.878 147.19 217.845 137.507 210.674 130.365C203.504 123.223 193.782 119.205 183.641 119.194H103.986C93.8454 119.205 84.1233 123.223 76.9527 130.365C69.7822 137.507 65.7487 147.19 65.7373 157.29V183.058H74.3081V169.69C74.3197 159.496 78.3906 149.722 85.6278 142.514C92.8651 135.306 102.678 131.251 112.913 131.239H174.715C184.95 131.251 194.762 135.306 201.999 142.514C209.237 149.722 213.307 159.496 213.319 169.69V183.058Z" fill="#E6E6E6"/>
    <path d="M109.509 163L100.483 160.293C99.8966 157.904 99.6005 155.454 99.6017 152.995C99.606 152.439 99.7699 151.897 100.074 151.43C100.378 150.964 100.811 150.593 101.32 150.361C101.829 150.129 102.395 150.045 102.95 150.12C103.506 150.194 104.029 150.424 104.457 150.782C109.298 154.895 116.389 157.09 120.965 161.777C122.859 163.747 124.281 166.113 125.126 168.702C125.971 171.29 126.217 174.033 125.846 176.728L127.822 183.058C123.4 182.742 119.1 181.48 115.219 179.359C111.337 177.239 107.965 174.31 105.336 170.774C103.881 168.776 102.686 166.604 101.779 164.31C105.607 163.88 109.509 163 109.509 163Z" fill="#F2F2F2"/>
    <path d="M133.45 173.264L138.078 171.815C138.084 171.79 138.09 171.764 138.096 171.739C138.224 171.153 138.184 170.542 137.98 169.98C137.776 169.418 137.417 168.931 136.948 168.577C136.478 168.224 135.92 168.021 135.34 167.992C134.76 167.963 134.185 168.111 133.685 168.416C131.584 169.707 129.251 170.818 127.576 172.609C126.604 173.664 125.875 174.93 125.442 176.316C125.008 177.701 124.882 179.169 125.072 180.612L124.059 184C126.327 183.831 128.532 183.155 130.522 182.02C132.513 180.885 134.242 179.317 135.59 177.425C136.336 176.355 136.949 175.193 137.414 173.965C135.451 173.735 133.45 173.264 133.45 173.264Z" fill="#F2F2F2"/>
    <path d="M160.739 86.2094H142.039C141.774 86.2097 141.521 86.3105 141.334 86.4896C141.147 86.6687 141.042 86.9114 141.042 87.1643V115.407H161.737V87.1643C161.737 87.0389 161.712 86.9147 161.661 86.7988C161.611 86.6829 161.538 86.5776 161.445 86.4889C161.352 86.4002 161.242 86.3299 161.121 86.2819C161 86.2339 160.87 86.2093 160.739 86.2094ZM151.451 102.257C150.867 102.254 150.307 102.031 149.893 101.635C149.48 101.24 149.246 100.704 149.243 100.145V96.8878C149.244 96.3284 149.477 95.7921 149.891 95.3968C150.305 95.0015 150.866 94.7794 151.451 94.7794C152.037 94.7794 152.598 95.0015 153.012 95.3968C153.426 95.7921 153.659 96.3284 153.66 96.8878V100.145C153.657 100.704 153.423 101.24 153.01 101.635C152.596 102.031 152.036 102.254 151.451 102.257Z" fill="#3F3D56"/>
    <path d="M190.26 41H112.52C111.852 41.0011 111.211 41.271 110.739 41.7507C110.267 42.2303 110.001 42.8805 110 43.5589V96.8365C110.001 97.5149 110.266 98.1654 110.739 98.6452C111.211 99.1249 111.852 99.3947 112.52 99.3953H190.26C190.928 99.3947 191.569 99.1249 192.041 98.6452C192.513 98.1654 192.779 97.5149 192.78 96.8365V43.5589C192.779 42.8806 192.513 42.2303 192.041 41.7507C191.568 41.271 190.928 41.0011 190.26 41Z" fill="#3F3D56"/>
    <path d="M189.553 42.8838H113.227C112.87 42.8846 112.528 43.0267 112.275 43.279C112.023 43.5314 111.881 43.8733 111.881 44.2298V95.2266C111.882 95.5827 112.024 95.924 112.276 96.1757C112.528 96.4275 112.87 96.5692 113.227 96.5698H189.553C189.91 96.5692 190.251 96.4275 190.504 96.1757C190.756 95.924 190.898 95.5827 190.898 95.2266V44.2298C190.898 43.8733 190.757 43.5314 190.504 43.279C190.252 43.0267 189.91 42.8846 189.553 42.8838Z" fill="white"/>
    <path d="M141.042 115.407V117.771C141.043 117.893 141.101 118.01 141.205 118.097C141.309 118.184 141.449 118.232 141.596 118.233H161.184C161.33 118.232 161.471 118.183 161.574 118.097C161.678 118.01 161.737 117.893 161.737 117.771V115.407H141.042Z" fill="#3F3D56"/>
    <path d="M175.937 119.174H129.665C129.538 119.174 129.413 119.148 129.299 119.098C129.184 119.048 129.084 118.975 129.004 118.884C128.924 118.794 128.867 118.688 128.837 118.574C128.808 118.461 128.806 118.343 128.832 118.229L129.55 115.088C129.591 114.912 129.696 114.754 129.847 114.641C129.999 114.528 130.188 114.466 130.383 114.465H175.219C175.414 114.466 175.603 114.528 175.755 114.641C175.906 114.754 176.011 114.912 176.052 115.088L176.77 118.229C176.796 118.343 176.794 118.461 176.764 118.574C176.735 118.688 176.678 118.794 176.598 118.884C176.518 118.975 176.417 119.048 176.303 119.098C176.189 119.148 176.064 119.174 175.937 119.174Z" fill="#3F3D56"/>
    <path d="M132.342 116.349H130.929C130.8 116.349 130.695 116.436 130.695 116.544V117.096C130.695 117.203 130.8 117.291 130.929 117.291H132.342C132.472 117.291 132.576 117.203 132.576 117.096V116.544C132.576 116.436 132.472 116.349 132.342 116.349Z" fill="#E6E6E6"/>
    <path d="M134.341 116.349H133.634C133.569 116.349 133.517 116.436 133.517 116.544V117.096C133.517 117.203 133.569 117.291 133.634 117.291H134.341C134.405 117.291 134.458 117.203 134.458 117.096V116.544C134.458 116.436 134.405 116.349 134.341 116.349Z" fill="#E6E6E6"/>
    <path d="M137.163 116.349H136.456C136.391 116.349 136.339 116.436 136.339 116.544V117.096C136.339 117.203 136.391 117.291 136.456 117.291H137.163C137.227 117.291 137.28 117.203 137.28 117.096V116.544C137.28 116.436 137.227 116.349 137.163 116.349Z" fill="#E6E6E6"/>
    <path d="M140.809 116.349H139.395C139.266 116.349 139.161 116.436 139.161 116.544V117.096C139.161 117.203 139.266 117.291 139.395 117.291H140.809C140.938 117.291 141.042 117.203 141.042 117.096V116.544C141.042 116.436 140.938 116.349 140.809 116.349Z" fill="#E6E6E6"/>
    <path d="M142.807 116.349H142.1C142.035 116.349 141.983 116.436 141.983 116.544V117.096C141.983 117.203 142.035 117.291 142.1 117.291H142.807C142.871 117.291 142.924 117.203 142.924 117.096V116.544C142.924 116.436 142.871 116.349 142.807 116.349Z" fill="#E6E6E6"/>
    <path d="M145.629 116.349H144.922C144.857 116.349 144.805 116.436 144.805 116.544V117.096C144.805 117.203 144.857 117.291 144.922 117.291H145.629C145.693 117.291 145.746 117.203 145.746 117.096V116.544C145.746 116.436 145.693 116.349 145.629 116.349Z" fill="#E6E6E6"/>
    <path d="M149.275 116.349H147.861C147.732 116.349 147.627 116.436 147.627 116.544V117.096C147.627 117.203 147.732 117.291 147.861 117.291H149.275C149.404 117.291 149.508 117.203 149.508 117.096V116.544C149.508 116.436 149.404 116.349 149.275 116.349Z" fill="#E6E6E6"/>
    <path d="M151.273 116.349H150.566C150.501 116.349 150.449 116.436 150.449 116.544V117.096C150.449 117.203 150.501 117.291 150.566 117.291H151.273C151.337 117.291 151.39 117.203 151.39 117.096V116.544C151.39 116.436 151.337 116.349 151.273 116.349Z" fill="#E6E6E6"/>
    <path d="M154.095 116.349H153.388C153.324 116.349 153.271 116.436 153.271 116.544V117.096C153.271 117.203 153.324 117.291 153.388 117.291H154.095C154.16 117.291 154.212 117.203 154.212 117.096V116.544C154.212 116.436 154.16 116.349 154.095 116.349Z" fill="#E6E6E6"/>
    <path d="M157.741 116.349H156.327C156.198 116.349 156.093 116.436 156.093 116.544V117.096C156.093 117.203 156.198 117.291 156.327 117.291H157.741C157.87 117.291 157.975 117.203 157.975 117.096V116.544C157.975 116.436 157.87 116.349 157.741 116.349Z" fill="#E6E6E6"/>
    <path d="M159.739 116.349H159.032C158.968 116.349 158.915 116.436 158.915 116.544V117.096C158.915 117.203 158.968 117.291 159.032 117.291H159.739C159.804 117.291 159.856 117.203 159.856 117.096V116.544C159.856 116.436 159.804 116.349 159.739 116.349Z" fill="#E6E6E6"/>
    <path d="M162.561 116.349H161.854C161.79 116.349 161.737 116.436 161.737 116.544V117.096C161.737 117.203 161.79 117.291 161.854 117.291H162.561C162.626 117.291 162.678 117.203 162.678 117.096V116.544C162.678 116.436 162.626 116.349 162.561 116.349Z" fill="#E6E6E6"/>
    <path d="M166.207 116.349H164.793C164.664 116.349 164.559 116.436 164.559 116.544V117.096C164.559 117.203 164.664 117.291 164.793 117.291H166.207C166.336 117.291 166.441 117.203 166.441 117.096V116.544C166.441 116.436 166.336 116.349 166.207 116.349Z" fill="#E6E6E6"/>
    <path d="M168.205 116.349H167.498C167.434 116.349 167.381 116.436 167.381 116.544V117.096C167.381 117.203 167.434 117.291 167.498 117.291H168.205C168.27 117.291 168.322 117.203 168.322 117.096V116.544C168.322 116.436 168.27 116.349 168.205 116.349Z" fill="#E6E6E6"/>
    <path d="M171.027 116.349H170.32C170.256 116.349 170.203 116.436 170.203 116.544V117.096C170.203 117.203 170.256 117.291 170.32 117.291H171.027C171.092 117.291 171.144 117.203 171.144 117.096V116.544C171.144 116.436 171.092 116.349 171.027 116.349Z" fill="#E6E6E6"/>
    <path d="M173.732 116.349H172.319C172.189 116.349 172.085 116.436 172.085 116.544V117.096C172.085 117.203 172.189 117.291 172.319 117.291H173.732C173.861 117.291 173.966 117.203 173.966 117.096V116.544C173.966 116.436 173.861 116.349 173.732 116.349Z" fill="#E6E6E6"/>
    <path d="M154.977 118.233H144.04C143.943 118.233 143.864 118.32 143.864 118.428V118.979C143.864 119.087 143.943 119.174 144.04 119.174H154.977C155.074 119.174 155.153 119.087 155.153 118.979V118.428C155.153 118.32 155.074 118.233 154.977 118.233Z" fill="#E6E6E6"/>
    <path d="M178.67 56.1439V83.1559C178.669 84.9648 177.955 86.6996 176.682 87.9787C175.41 89.2578 173.685 89.9766 171.886 89.9768H138.266C136.942 89.9771 135.647 89.5882 134.541 88.858C133.434 88.1278 132.564 87.0882 132.038 85.8671C131.861 85.4635 131.726 85.0428 131.636 84.6116C132.35 84.8897 133.11 85.0316 133.876 85.0301H167.497C169.155 85.0278 170.744 84.3646 171.916 83.1858C173.088 82.0071 173.748 80.4091 173.75 78.7421V51.7302C173.752 50.9596 173.611 50.1955 173.334 49.4768C173.763 49.5682 174.181 49.7036 174.583 49.881C175.797 50.4105 176.831 51.2855 177.557 52.3982C178.283 53.511 178.67 54.813 178.67 56.1439Z" fill="#F2F2F2"/>
    <path d="M83.3077 71.5609C83.1695 71.7499 82.9785 71.8877 82.7619 71.9547C82.5454 72.0216 82.3145 72.0142 82.1022 71.9336C82.0376 71.9133 81.9742 71.8888 81.9125 71.8602C81.9822 71.0696 81.9477 70.2726 81.8099 69.4921C81.7557 70.1629 81.6011 70.8204 81.3517 71.4395C81.1484 71.2233 80.982 70.9713 80.8599 70.6947C80.6324 70.1225 80.4816 69.5192 80.4119 68.9026C80.0754 66.8016 79.7433 64.6159 80.2925 62.5627C81.0969 59.5633 83.6338 57.4071 84.6934 54.4971L85.2154 54C86.109 55.6141 86.1486 57.6197 85.7843 59.45C85.422 61.2839 84.6918 63.005 84.1146 64.7735C83.5374 66.5421 83.1049 68.4232 83.3727 70.2738C83.4343 70.7095 83.5282 71.1885 83.3077 71.5609Z" fill="#2F2E41"/>
    <path d="M70.8921 98L67 114.781L84 120L81.5002 98H70.8921Z" fill="#FFB6B6"/>
    <path d="M57 162.225L53.959 164L45 153.619L49.4881 151L57 162.225Z" fill="#FFB6B6"/>
    <path d="M60 165.466L57.5033 166.493L56.0055 164.505L55.9164 167.146L49.2947 169.87C48.9773 170 48.6229 170.034 48.2832 169.966C47.9436 169.897 47.6365 169.731 47.4068 169.491C47.177 169.25 47.0367 168.949 47.0063 168.63C46.9758 168.311 47.0569 167.991 47.2375 167.717L50.8951 162.177L49.8314 159.982L55.5415 158L60 165.466Z" fill="#2F2E41"/>
    <path d="M49.3496 161L54.1141 156.24C50.5743 147.234 50.2915 141.651 45.3841 130.759C57.0272 133.215 65.3513 133.065 74.9804 130.864C78.2402 130.131 86.6513 123.432 85.9598 119.997C85.9275 119.837 85.8893 119.678 85.8452 119.52C84.8116 115.887 85.5395 110.323 83.3023 106.291C79.1633 104.682 72.875 110.115 67.9559 113.427C65.584 115.023 67.3203 117.2 65.5487 117.77L58.7575 120.043L42.0954 117.268C41.2901 117.143 40.4687 117.182 39.6784 117.385C38.8881 117.588 38.1446 117.95 37.4907 118.451C36.8368 118.952 36.2855 119.581 35.8686 120.302C35.4516 121.023 35.1772 121.823 35.0613 122.654C35.0331 122.84 35.0127 123.028 35 123.216C35.7667 127.592 36.5658 131.853 37.4262 135.897C37.704 137.202 37.2351 139.705 38.2795 139.743C39.3239 139.78 38.9032 142.368 39.2285 143.634C41.231 151.425 42.4973 155.196 49.3496 161Z" fill="#2F2E41"/>
    <path d="M39.616 181L37 179.339L41.139 166L45 168.452L39.616 181Z" fill="#FFB6B6"/>
    <path d="M39 170.777L43.7488 174C49.5689 165.702 53.3479 154.614 56.1623 142.207C67.1202 137.495 76.7086 132.103 83.3903 124.872C84.4876 123.66 85.063 122.074 84.9945 120.45C84.9261 118.827 84.2192 117.293 83.0236 116.175C82.9067 116.067 82.7858 115.963 82.661 115.864C79.7668 113.592 73.3391 114.899 69.2308 113L61.8917 123.014L62.7353 125.346L60.1822 126.571L58.0266 127.606L55.5589 128.79L47.4696 132.672C46.7362 133.033 46.0827 133.534 45.5467 134.146C45.0107 134.758 44.6028 135.468 44.3466 136.236C44.0904 137.003 43.9909 137.814 44.0539 138.619C44.1169 139.425 44.3411 140.211 44.7137 140.931C44.7954 141.094 44.8841 141.253 44.9798 141.409L41.9755 156.164C41.9755 156.164 42.8021 158.732 41.5014 158.492C40.2006 158.252 40.9095 161.399 40.9095 161.399L39 170.777Z" fill="#2F2E41"/>
    <path d="M37.8634 187L35.7419 185.916L36.4086 183.761L34.3934 185.226L28.7667 182.351C28.497 182.213 28.2793 181.994 28.1455 181.727C28.0116 181.459 27.9686 181.157 28.0228 180.863C28.0769 180.57 28.2253 180.302 28.4463 180.097C28.6673 179.892 28.9494 179.762 29.2513 179.725L35.3642 178.983L36.421 177L41 179.692L37.8634 187Z" fill="#2F2E41"/>
    <path d="M102.718 122.4L99.52 114L97 115.521L98.5219 124.066C98.3695 124.608 98.359 125.185 98.4917 125.732C98.6244 126.279 98.895 126.776 99.2731 127.165C99.6512 127.555 100.122 127.822 100.632 127.937C101.142 128.052 101.671 128.009 102.161 127.815C102.65 127.621 103.08 127.282 103.402 126.837C103.723 126.392 103.925 125.858 103.983 125.295C104.041 124.733 103.953 124.164 103.73 123.652C103.506 123.141 103.156 122.707 102.718 122.4Z" fill="#FFB6B6"/>
    <path d="M44.3024 56.2177L50.346 64L53 61.7872L48.9469 53.4218C48.9911 52.8273 48.8543 52.2333 48.5521 51.7065C48.2498 51.1797 47.794 50.741 47.2359 50.4397C46.6778 50.1384 46.0395 49.9864 45.3928 50.001C44.746 50.0155 44.1165 50.1959 43.575 50.5219C43.0335 50.8478 42.6014 51.3065 42.3274 51.8463C42.0534 52.386 41.9482 52.9855 42.0238 53.5773C42.0994 54.169 42.3527 54.7297 42.7552 55.1961C43.1578 55.6626 43.6936 56.0163 44.3024 56.2177Z" fill="#FFB6B6"/>
    <path d="M68.6491 102.789C65.2549 108.125 77.6899 119.752 84.2364 117.033C85.3828 116.557 89.326 114.984 86.6307 112.804C83.9354 110.624 86.9432 113.064 87.0142 111.645C87.0618 110.696 86.337 108.615 87.0932 108.704C87.8494 108.793 88.2833 106.577 86.6365 106.012C86.0639 105.805 85.5615 105.436 85.1882 104.95C84.8149 104.464 84.5862 103.879 84.529 103.266C84.3715 97.4168 86.3258 91.3102 86.3258 91.3102L94.3037 111.98C94.3037 111.98 94.2448 115.557 95.2622 114.464C96.2795 113.371 96.2055 116.908 96.2055 116.908C96.2055 116.908 97.7183 117.978 96.8484 118.573C95.9784 119.169 97.7849 121 97.7849 121L102 120.695C102 120.695 101.934 117.521 101.214 116.819C100.495 116.117 100.848 115.013 100.848 115.013C100.848 115.013 99.3643 113.614 100.231 111.967C101.097 110.319 93.9227 80.8516 93.9227 80.8516C93.6353 79.4339 92.9667 78.1243 91.9908 77.0677C91.0149 76.011 89.7698 75.2484 88.3931 74.8642L83.8405 73.5937L83.0321 70.3427H76.6218L75.5052 72.4789L65.2685 71.5634C65.2685 71.5634 55.1395 62.2223 55.6341 61.493C56.1286 60.7636 54.5585 59.056 54.5585 59.056C54.5585 59.056 53.2175 58.6112 53.9742 58.3736C54.7308 58.1361 53.3006 57.587 53.3006 57.587C53.3006 57.587 51.9759 57.2342 52.6007 56.7697C53.2254 56.3052 50.5157 56 50.5157 56L47 58.9075L47.7106 60.1287C47.7106 60.1287 47.2773 61.7917 47.8427 61.1846C48.4082 60.5775 48.5146 62.3393 48.5146 62.3393C48.5146 62.3393 48.8034 64.2685 50.5157 64.8498C52.2281 65.431 53.5265 70.9531 53.5265 70.9531L67.9782 83.1596C65.7772 85.7203 66.3011 88.3981 68.2509 91.1372L68.6491 102.789Z" fill="#FF9900"/>
    <path d="M79.5 68C83.0899 68 86 65.0899 86 61.5C86 57.9101 83.0899 55 79.5 55C75.9101 55 73 57.9101 73 61.5C73 65.0899 75.9101 68 79.5 68Z" fill="#FFB6B6"/>
    <path d="M85.9292 58.9225C85.7516 58.974 83.1448 59.316 82.016 59.5278C80.9082 59.7366 80.7156 58.3173 79.8095 58.5836C79.81 58.5774 79.809 58.5711 79.8065 58.5654C79.666 57.8134 79.4261 57.0836 79.0931 56.3955C79.2139 57.0545 79.2312 57.7285 79.1443 58.3929C79.1438 58.4102 79.1418 58.4274 79.1383 58.4444C79.1353 58.4746 79.1292 58.5019 79.1262 58.5321C78.169 58.1084 77.5609 58.4867 76.8987 58.6199C76.1582 58.7682 75.5802 59.095 75.9956 61.6463C76.8475 66.894 81.2785 68.7674 80.5109 72.2386C80.3604 72.9256 79.9811 73.7851 79.5055 74C79.365 73.2479 79.1251 72.5182 78.7921 71.8301C78.9129 72.4891 78.9302 73.1631 78.8433 73.8275C78.1058 73.0255 77.573 70.2231 75.0926 68.0017C74.4815 67.4569 71.4202 64.2248 71.0529 63.4621C71.1656 64.0719 71.2201 64.6911 71.2155 65.3112C71.2162 65.7263 71.188 66.1409 71.1312 66.5521C71.1312 66.5785 71.1281 66.6049 71.1222 66.6307C71.1192 66.6792 71.1101 66.7215 71.1041 66.7669C71.0981 66.8184 71.0891 66.8668 71.08 66.9183C70.0776 66.773 69.1896 66.5975 68.7712 66.1859C66.7363 64.1945 69.2197 60.3147 70.5773 56.8041C72.5189 51.7772 78.157 51.1084 78.7048 51.0539C81.119 50.8088 85.1978 51.3293 86.5313 54.0803C87.4644 56.0081 86.8684 58.6501 85.9292 58.9225Z" fill="#2F2E41"/>
    <path d="M70.8295 60.2083L76.1821 52.0827C74.8992 51.356 73.4386 50.982 71.9554 51.0007C71.2163 51.0157 70.4886 51.1825 69.8199 51.4903C69.1513 51.798 68.5565 52.2399 68.0746 52.787C66.9814 54.1128 66.7938 55.9871 67.2034 57.6412C67.3448 58.2125 70.0384 56.2024 69.3975 57.1407C68.8713 57.8753 68.0108 60.9631 67.795 61.8321C67.4477 63.2307 66.4927 64.6664 67.3434 65.8419C68.3494 67.2319 70.1445 67.9229 71.8868 67.993C73.6292 68.0632 75.3442 67.592 77 67.0583L70.8295 60.2083Z" fill="#2F2E41"/>
    <path d="M73.2862 60C73.2171 59.9999 73.1504 59.9739 73.0983 59.9267C73.0462 59.8796 73.0123 59.8144 73.0027 59.7433C72.9932 59.6722 73.0087 59.5999 73.0465 59.5398C73.0842 59.4796 73.1415 59.4357 73.208 59.416C73.2831 59.2872 73.2523 58.7452 73.2276 58.3073C73.1344 56.663 72.9784 53.911 75.55 52.0533C75.6124 52.0082 75.6894 51.9907 75.7642 52.0047C75.839 52.0186 75.9054 52.0629 75.9487 52.1277C75.9921 52.1925 76.0089 52.2725 75.9955 52.3502C75.9821 52.4279 75.9395 52.4969 75.8771 52.5419C73.5694 54.2092 73.7079 56.6544 73.7996 58.2723C73.852 59.1972 73.8899 59.8654 73.3499 59.9926C73.329 59.9975 73.3076 60 73.2862 60Z" fill="#FF9900"/>
    <path d="M-1.99153 183.529C-1.99186 183.654 -1.94778 183.773 -1.86898 183.861C-1.79018 183.95 -1.68312 184 -1.57134 184H252.509C252.622 184 252.729 183.95 252.808 183.862C252.888 183.774 252.932 183.654 252.932 183.529C252.932 183.404 252.888 183.284 252.808 183.196C252.729 183.108 252.622 183.058 252.509 183.058H-1.56882C-1.62416 183.058 -1.679 183.07 -1.7302 183.093C-1.78139 183.117 -1.82795 183.151 -1.8672 183.195C-1.90645 183.238 -1.93763 183.29 -1.95896 183.347C-1.98029 183.404 -1.99136 183.465 -1.99152 183.526L-1.99153 183.529Z" fill="#CCCCCC"/>
    <path d="M145.197 65.4884H139.71C139.564 65.4884 139.425 65.4388 139.322 65.3504C139.219 65.2621 139.161 65.1423 139.161 65.0174C139.161 64.8925 139.219 64.7728 139.322 64.6844C139.425 64.5961 139.564 64.5465 139.71 64.5465H145.197C145.343 64.5465 145.482 64.5961 145.585 64.6844C145.688 64.7728 145.746 64.8925 145.746 65.0174C145.746 65.1423 145.688 65.2621 145.585 65.3504C145.482 65.4388 145.343 65.4884 145.197 65.4884Z" fill="#FF9900"/>
    <path d="M154.682 65.4884H149.979C149.917 65.4884 149.856 65.4762 149.799 65.4525C149.742 65.4289 149.69 65.3942 149.646 65.3504C149.603 65.3067 149.568 65.2548 149.544 65.1977C149.521 65.1405 149.508 65.0793 149.508 65.0174C149.508 64.9556 149.521 64.8944 149.544 64.8372C149.568 64.7801 149.603 64.7282 149.646 64.6844C149.69 64.6407 149.742 64.606 149.799 64.5824C149.856 64.5587 149.917 64.5465 149.979 64.5465H154.682C154.744 64.5465 154.805 64.5587 154.862 64.5824C154.919 64.606 154.971 64.6407 155.015 64.6844C155.058 64.7282 155.093 64.7801 155.117 64.8372C155.14 64.8944 155.153 64.9556 155.153 65.0174C155.153 65.0793 155.14 65.1405 155.117 65.1977C155.093 65.2548 155.058 65.3067 155.015 65.3504C154.971 65.3942 154.919 65.4289 154.862 65.4525C154.805 65.4762 154.744 65.4884 154.682 65.4884Z" fill="#FF9900"/>
    <path d="M159.307 70.1977H153.82C153.748 70.1977 153.677 70.1733 153.61 70.126C153.543 70.0786 153.483 70.0093 153.432 69.9218C153.381 69.8344 153.341 69.7305 153.313 69.6163C153.285 69.502 153.271 69.3795 153.271 69.2558C153.271 69.1321 153.285 69.0097 153.313 68.8954C153.341 68.7811 153.381 68.6773 153.432 68.5898C153.483 68.5024 153.543 68.433 153.61 68.3857C153.677 68.3383 153.748 68.314 153.82 68.314H159.307C159.379 68.314 159.451 68.3383 159.517 68.3857C159.584 68.433 159.644 68.5024 159.695 68.5898C159.746 68.6773 159.787 68.7811 159.814 68.8954C159.842 69.0097 159.856 69.1321 159.856 69.2558C159.856 69.3795 159.842 69.502 159.814 69.6163C159.787 69.7305 159.746 69.8344 159.695 69.9218C159.644 70.0093 159.584 70.0786 159.517 70.126C159.451 70.1733 159.379 70.1977 159.307 70.1977Z" fill="#FF9900"/>
    <path d="M149.913 70.1977H139.697C139.555 70.1977 139.419 70.0985 139.318 69.9218C139.217 69.7452 139.161 69.5056 139.161 69.2558C139.161 69.006 139.217 68.7665 139.318 68.5898C139.419 68.4132 139.555 68.314 139.697 68.314H149.913C150.055 68.314 150.192 68.4132 150.292 68.5898C150.393 68.7665 150.449 69.006 150.449 69.2558C150.449 69.5056 150.393 69.7452 150.292 69.9218C150.192 70.0985 150.055 70.1977 149.913 70.1977Z" fill="#FF9900"/>
    <path d="M169.667 65.4884H159.451C159.309 65.4884 159.173 65.4388 159.072 65.3504C158.972 65.2621 158.915 65.1423 158.915 65.0174C158.915 64.8925 158.972 64.7728 159.072 64.6844C159.173 64.5961 159.309 64.5465 159.451 64.5465H169.667C169.738 64.5465 169.807 64.5587 169.872 64.5824C169.937 64.606 169.997 64.6407 170.046 64.6844C170.096 64.7282 170.136 64.7801 170.163 64.8372C170.19 64.8944 170.203 64.9556 170.203 65.0174C170.203 65.0793 170.19 65.1405 170.163 65.1977C170.136 65.2548 170.096 65.3067 170.046 65.3504C169.997 65.3942 169.937 65.4289 169.872 65.4525C169.807 65.4762 169.738 65.4884 169.667 65.4884Z" fill="#FF9900"/>
    <path d="M148.972 57.9535H138.758C138.687 57.9539 138.617 57.9297 138.552 57.8825C138.487 57.8353 138.428 57.766 138.378 57.6785C138.328 57.591 138.288 57.4871 138.261 57.3727C138.234 57.2583 138.22 57.1356 138.22 57.0117C138.22 56.8878 138.234 56.7651 138.261 56.6507C138.288 56.5363 138.328 56.4323 138.378 56.3448C138.428 56.2573 138.487 56.188 138.552 56.1408C138.617 56.0936 138.687 56.0695 138.758 56.0698H148.972C149.115 56.0698 149.251 56.1691 149.351 56.3457C149.452 56.5223 149.508 56.7619 149.508 57.0117C149.508 57.2615 149.452 57.501 149.351 57.6777C149.251 57.8543 149.115 57.9535 148.972 57.9535Z" fill="#FF9900"/>
    <path d="M149.978 59.8373C149.88 59.8373 149.785 59.8098 149.705 59.7586C149.625 59.7075 149.566 59.6351 149.534 59.5518C149.502 59.4684 149.5 59.3782 149.528 59.2938C149.556 59.2093 149.612 59.1348 149.69 59.0808L152.245 57.2903C152.347 57.2184 152.432 57.128 152.494 57.0249C152.556 56.9218 152.594 56.8082 152.604 56.6914C152.615 56.5745 152.599 56.457 152.556 56.3461C152.514 56.2353 152.446 56.1336 152.358 56.0475L150.213 53.954C150.171 53.9132 150.139 53.8654 150.117 53.8133C150.096 53.7612 150.086 53.7059 150.089 53.6504C150.091 53.5949 150.106 53.5404 150.132 53.49C150.157 53.4396 150.194 53.3942 150.239 53.3566C150.284 53.3189 150.337 53.2896 150.395 53.2704C150.453 53.2512 150.514 53.2424 150.576 53.2446C150.637 53.2468 150.698 53.2599 150.754 53.2831C150.81 53.3064 150.86 53.3393 150.902 53.3801L154.087 56.4889C154.131 56.5319 154.165 56.5826 154.186 56.638C154.207 56.6934 154.216 56.7521 154.21 56.8104C154.205 56.8688 154.186 56.9255 154.155 56.977C154.124 57.0285 154.082 57.0736 154.031 57.1096L150.265 59.7483C150.183 59.806 150.082 59.8373 149.978 59.8373Z" fill="#FF9900"/>
    <path d="M138.598 59.8373C138.715 59.8373 138.83 59.8098 138.925 59.7586C139.021 59.7075 139.092 59.6351 139.131 59.5518C139.169 59.4684 139.171 59.3782 139.138 59.2938C139.104 59.2093 139.036 59.1348 138.944 59.0808L135.878 57.2903C135.754 57.2184 135.652 57.128 135.578 57.0249C135.504 56.9218 135.459 56.8082 135.446 56.6914C135.433 56.5745 135.453 56.457 135.504 56.3461C135.555 56.2353 135.636 56.1336 135.741 56.0475L138.316 53.954C138.366 53.9132 138.405 53.8654 138.43 53.8133C138.456 53.7612 138.467 53.7059 138.465 53.6504C138.462 53.5949 138.444 53.5404 138.413 53.49C138.382 53.4396 138.338 53.3942 138.284 53.3566C138.23 53.3189 138.166 53.2896 138.097 53.2704C138.028 53.2512 137.954 53.2424 137.88 53.2446C137.806 53.2468 137.734 53.2599 137.667 53.2831C137.6 53.3064 137.539 53.3393 137.489 53.3801L133.666 56.4889C133.614 56.5319 133.573 56.5826 133.548 56.638C133.522 56.6934 133.512 56.7521 133.519 56.8104C133.525 56.8688 133.548 56.9255 133.585 56.977C133.622 57.0285 133.673 57.0736 133.734 57.1096L138.253 59.7483C138.352 59.806 138.473 59.8373 138.598 59.8373Z" fill="#FF9900"/>
    <path d="M155.622 81.5C155.524 81.5 155.429 81.4686 155.349 81.4101C155.27 81.3516 155.21 81.2689 155.178 81.1737C155.146 81.0784 155.144 80.9753 155.172 80.8788C155.2 80.7823 155.257 80.6972 155.334 80.6354L157.889 78.5891C157.991 78.5069 158.076 78.4036 158.138 78.2858C158.2 78.168 158.238 78.0382 158.248 77.9046C158.259 77.7711 158.243 77.6368 158.2 77.5101C158.158 77.3834 158.09 77.2672 158.002 77.1688L155.857 74.7761C155.815 74.7296 155.783 74.6749 155.762 74.6154C155.74 74.5559 155.731 74.4926 155.733 74.4292C155.735 74.3658 155.75 74.3035 155.776 74.2459C155.801 74.1883 155.838 74.1365 155.883 74.0934C155.928 74.0503 155.981 74.0169 156.039 73.9949C156.097 73.973 156.158 73.963 156.22 73.9655C156.282 73.968 156.342 73.9829 156.398 74.0095C156.454 74.0361 156.504 74.0737 156.546 74.1203L159.731 77.6732C159.775 77.7224 159.809 77.7804 159.83 77.8437C159.852 77.9069 159.86 77.974 159.854 78.0407C159.849 78.1074 159.83 78.1722 159.799 78.2311C159.769 78.2899 159.726 78.3415 159.675 78.3826L155.909 81.3983C155.827 81.4643 155.726 81.5 155.622 81.5Z" fill="#FF9900"/>
    <path d="M138.598 81.5C138.715 81.5 138.83 81.4686 138.925 81.4101C139.021 81.3516 139.092 81.2689 139.131 81.1737C139.169 81.0784 139.171 80.9753 139.138 80.8788C139.104 80.7823 139.036 80.6972 138.944 80.6354L135.878 78.5891C135.754 78.5069 135.652 78.4036 135.578 78.2858C135.504 78.168 135.459 78.0382 135.446 77.9046C135.433 77.7711 135.453 77.6368 135.504 77.5101C135.555 77.3834 135.636 77.2672 135.741 77.1688L138.316 74.7762C138.417 74.682 138.47 74.5573 138.465 74.4292C138.459 74.3012 138.394 74.1804 138.284 74.0934C138.175 74.0064 138.029 73.9604 137.88 73.9655C137.731 73.9705 137.59 74.0262 137.489 74.1203L133.666 77.6732C133.614 77.7224 133.573 77.7804 133.548 77.8437C133.522 77.9069 133.512 77.974 133.519 78.0407C133.525 78.1074 133.548 78.1722 133.585 78.2311C133.622 78.2899 133.673 78.3415 133.734 78.3826L138.253 81.3983C138.352 81.4643 138.473 81.5 138.598 81.5Z" fill="#FF9900"/>
    <path d="M139.201 79.8469L141.083 75.2084C141.134 75.0859 141.227 74.99 141.343 74.9414C141.459 74.8929 141.588 74.8957 141.701 74.9494C141.815 75.003 141.905 75.103 141.95 75.2275C141.996 75.3521 141.994 75.491 141.945 75.6139L140.062 80.2524C140.038 80.3137 140.002 80.3691 139.958 80.4155C139.913 80.4619 139.861 80.4984 139.803 80.5228C139.746 80.5473 139.684 80.5593 139.622 80.5581C139.56 80.5568 139.499 80.5425 139.443 80.5158C139.386 80.4891 139.335 80.4505 139.292 80.4024C139.249 80.3543 139.215 80.2975 139.193 80.2354C139.171 80.1732 139.16 80.1069 139.161 80.0403C139.163 79.9736 139.176 79.9079 139.201 79.8469Z" fill="#FF9900"/>
    </g>
   


  </symbol>
  <symbol id="desc3" viewBox="0 0 250 205">
    
    <path d="M210.49 78.5733H32.1526C29.726 78.5705 27.3996 77.6073 25.6838 75.8948C23.9679 74.1823 23.0027 71.8605 23 69.4387V61.1346C23.0027 58.7128 23.9679 56.3909 25.6838 54.6785C27.3996 52.966 29.726 52.0027 32.1526 52H210.49C212.916 52.0027 215.243 52.966 216.958 54.6785C218.674 56.3909 219.639 58.7128 219.642 61.1346V69.4387C219.639 71.8605 218.674 74.1823 216.958 75.8948C215.243 77.6073 212.916 78.5705 210.49 78.5733ZM32.1526 52.5536C29.8731 52.5562 27.6877 53.4611 26.0758 55.0698C24.464 56.6784 23.5573 58.8595 23.5547 61.1346V69.4387C23.5573 71.7137 24.464 73.8948 26.0758 75.5035C27.6877 77.1122 29.8731 78.0171 32.1526 78.0197H210.49C212.769 78.0171 214.955 77.1122 216.566 75.5035C218.178 73.8948 219.085 71.7137 219.088 69.4387V61.1346C219.085 58.8595 218.178 56.6784 216.566 55.0698C214.955 53.4611 212.769 52.5562 210.49 52.5536H32.1526Z" fill="#3F3D56"/>
    <path d="M164.164 60.2672H45.4092C42.4908 60.2672 40.125 62.5145 40.125 65.2866C40.125 68.0587 42.4908 70.306 45.4092 70.306H164.164C167.082 70.306 169.448 68.0587 169.448 65.2866C169.448 62.5145 167.082 60.2672 164.164 60.2672Z" fill="#E6E6E6"/>
    <path d="M179.542 106.328H61.329C58.424 106.328 56.069 108.707 56.069 111.642C56.069 114.577 58.424 116.957 61.329 116.957H179.542C182.447 116.957 184.802 114.577 184.802 111.642C184.802 108.707 182.447 106.328 179.542 106.328Z" fill="#FF9900"/>
    <path d="M179.542 139.987H61.329C58.424 139.987 56.069 142.367 56.069 145.302C56.069 148.237 58.424 150.616 61.329 150.616H179.542C182.447 150.616 184.802 148.237 184.802 145.302C184.802 142.367 182.447 139.987 179.542 139.987Z" fill="#E6E6E6"/>
    <path d="M179.542 173.647H61.329C58.424 173.647 56.069 175.894 56.069 178.666C56.069 181.438 58.424 183.685 61.329 183.685H179.542C182.447 183.685 184.802 181.438 184.802 178.666C184.802 175.894 182.447 173.647 179.542 173.647Z" fill="#E6E6E6"/>
    <path d="M202.374 71.1395C202.254 71.3166 202.07 71.4372 201.863 71.4747C201.656 71.5122 201.443 71.4637 201.271 71.3397L196.95 68.2457C196.778 68.1217 196.661 67.9324 196.624 67.7195C196.588 67.5067 196.635 67.2876 196.755 67.1105C196.876 66.9334 197.06 66.8129 197.267 66.7753C197.473 66.7378 197.686 66.7864 197.858 66.9103L202.179 70.0044C202.352 70.1284 202.469 70.3176 202.505 70.5305C202.542 70.7434 202.494 70.9624 202.374 71.1395Z" fill="#FF9900"/>
    <path d="M197.318 67.1973C196.648 68.1541 195.709 68.8906 194.621 69.314C193.532 69.7373 192.342 69.8283 191.201 69.5755C190.061 69.3228 189.021 68.7375 188.213 67.8939C187.405 67.0502 186.866 65.986 186.663 64.8358C186.46 63.6856 186.603 62.5011 187.073 61.4321C187.544 60.3631 188.321 59.4575 189.306 58.83C190.291 58.2024 191.441 57.8811 192.609 57.9066C193.776 57.932 194.911 58.3032 195.868 58.9731C197.149 59.8725 198.022 61.2435 198.294 62.7853C198.566 64.3271 198.215 65.9138 197.318 67.1973ZM188.851 61.2701C188.348 61.9876 188.07 62.838 188.051 63.7138C188.032 64.5895 188.273 65.4512 188.744 66.19C189.214 66.9287 189.894 67.5113 190.696 67.8641C191.498 68.2169 192.386 68.324 193.249 68.1719C194.112 68.0198 194.91 67.6153 195.543 67.0095C196.176 66.4038 196.615 65.624 196.805 64.7688C196.994 63.9137 196.926 63.0215 196.608 62.2051C196.291 61.3887 195.738 60.6848 195.021 60.1824C194.058 59.51 192.867 59.2469 191.711 59.4508C190.554 59.6547 189.526 60.309 188.851 61.2701Z" fill="#FF9900"/>
    <path d="M205.193 121.681H37.4492C37.3758 121.681 37.3054 121.65 37.2535 121.595C37.2016 121.539 37.1724 121.464 37.1724 121.386C37.1724 121.308 37.2016 121.232 37.2535 121.177C37.3054 121.122 37.3758 121.091 37.4492 121.091H205.193C205.266 121.091 205.337 121.122 205.389 121.177C205.441 121.232 205.47 121.308 205.47 121.386C205.47 121.464 205.441 121.539 205.389 121.595C205.337 121.65 205.266 121.681 205.193 121.681Z" fill="#3F3D56"/>
    <path d="M205.193 155.341H37.4492C37.3758 155.341 37.3054 155.309 37.2535 155.254C37.2016 155.199 37.1724 155.124 37.1724 155.045C37.1724 154.967 37.2016 154.892 37.2535 154.836C37.3054 154.781 37.3758 154.75 37.4492 154.75H205.193C205.266 154.75 205.337 154.781 205.389 154.836C205.441 154.892 205.47 154.967 205.47 155.045C205.47 155.124 205.441 155.199 205.389 155.254C205.337 155.309 205.266 155.341 205.193 155.341Z" fill="#3F3D56"/>
    <path d="M205.193 189H37.4492C37.3758 189 37.3054 188.969 37.2535 188.913C37.2016 188.858 37.1724 188.783 37.1724 188.705C37.1724 188.626 37.2016 188.551 37.2535 188.496C37.3054 188.441 37.3758 188.409 37.4492 188.409H205.193C205.266 188.409 205.337 188.441 205.389 188.496C205.441 188.551 205.47 188.626 205.47 188.705C205.47 188.783 205.441 188.858 205.389 188.913C205.337 188.969 205.266 189 205.193 189Z" fill="#3F3D56"/>



  </symbol>
  <symbol id="desc4" viewBox="0 0 250 205">
    
    <g clip-path="url(#clip0_2_154)">
    <mask id="mask0_2_154" style="mask-type:luminance" maskUnits="userSpaceOnUse" x="0" y="1" width="250" height="202">
    <path d="M250 1H0V203H250V1Z" fill="white"/>
    </mask>
    <g mask="url(#mask0_2_154)">
    <path d="M108.512 201.176C108.512 201.513 108.689 201.784 108.909 201.784H191.405C191.625 201.784 191.802 201.513 191.802 201.176C191.802 201.013 191.762 200.87 191.695 200.762H161.765C161.128 200.762 160.504 200.696 159.89 200.568H108.909C108.689 200.568 108.512 200.839 108.512 201.176Z" fill="#3F3D56"/>
    <path d="M68.7998 131.169H114.598C122.357 131.169 128.647 137.459 128.647 145.218V181.956C128.647 189.715 122.357 196.005 114.598 196.005H68.7998C61.0409 196.005 54.7511 189.715 54.7511 181.956V145.218C54.7511 137.459 61.0409 131.169 68.7998 131.169Z" fill="white"/>
    <path d="M54.4184 181.956V145.218C54.4184 137.288 60.8699 130.837 68.7998 130.837H114.598C122.528 130.837 128.98 137.288 128.98 145.218V181.956C128.98 189.886 122.528 196.337 114.598 196.337H68.7998C60.8699 196.337 54.4184 189.886 54.4184 181.956ZM68.7998 131.502C61.2367 131.502 55.0838 137.655 55.0838 145.218V181.956C55.0838 189.519 61.2367 195.672 68.7998 195.672H114.598C122.161 195.672 128.314 189.519 128.314 181.956V145.218C128.314 137.655 122.161 131.502 114.598 131.502H68.7998Z" fill="#3F3D56"/>
    <path d="M85.9226 147.255H96.1808L85.5318 178.807C85.3074 179.472 84.684 179.919 83.9823 179.919H75.999C75.0971 179.919 74.3659 179.188 74.3658 178.286C74.3658 178.109 74.3947 177.933 74.4515 177.764L84.3727 148.368C84.5971 147.703 85.2207 147.255 85.9226 147.255Z" fill="url(#paint0_linear_2_154)"/>
    <path d="M100.829 168.418H84.5623C84.1465 168.417 83.809 168.754 83.8086 169.17C83.8083 169.379 83.8951 169.579 84.0481 169.721L94.5009 179.478C94.8052 179.762 95.2059 179.919 95.6221 179.919H104.833L100.829 168.418Z" fill="#0078D4"/>
    <path d="M85.9226 147.255C85.2123 147.252 84.5829 147.712 84.3692 148.389L74.4636 177.738C74.1594 178.585 74.6002 179.519 75.4481 179.824C75.6262 179.887 75.814 179.92 76.0032 179.919H84.1927C84.8136 179.808 85.3269 179.372 85.5361 178.777L87.5114 172.955L94.5674 179.536C94.8631 179.781 95.234 179.916 95.6177 179.919H104.794L100.77 168.418L89.0369 168.421L96.2177 147.255H85.9226Z" fill="url(#paint1_linear_2_154)"/>
    <path d="M99.0248 148.366C98.8008 147.702 98.1781 147.255 97.4773 147.255H86.0447C86.7455 147.255 87.3681 147.702 87.5922 148.366L97.5139 177.764C97.8024 178.619 97.3435 179.545 96.4887 179.834C96.3205 179.891 96.144 179.92 95.9664 179.92H107.399C108.301 179.919 109.033 179.188 109.032 178.286C109.032 178.108 109.003 177.932 108.946 177.764L99.0248 148.366Z" fill="url(#paint2_linear_2_154)"/>
    <path d="M27.5485 49.3326H73.347C81.1059 49.3326 87.3957 55.6225 87.3957 63.3813V100.119C87.3957 107.878 81.1059 114.168 73.347 114.168H27.5485C19.7896 114.168 13.4998 107.878 13.4998 100.119V63.3813C13.4998 55.6225 19.7896 49.3326 27.5485 49.3326Z" fill="white"/>
    <path d="M13.1671 100.119V63.3814C13.1671 55.4515 19.6186 49 27.5485 49H73.347C81.2768 49 87.7284 55.4515 87.7284 63.3814V100.119C87.7284 108.049 81.2768 114.5 73.347 114.5H27.5485C19.6186 114.5 13.1671 108.049 13.1671 100.119ZM27.5485 49.6653C19.9854 49.6653 13.8325 55.8183 13.8325 63.3814V100.119C13.8325 107.682 19.9854 113.835 27.5485 113.835H73.347C80.9101 113.835 87.063 107.682 87.063 100.119V63.3814C87.063 55.8183 80.9101 49.6654 73.347 49.6654L27.5485 49.6653Z" fill="#3F3D56"/>
    <path d="M41.3008 82.3121C41.3008 82.8279 41.3566 83.2462 41.4542 83.553C41.5657 83.8597 41.7051 84.1943 41.9003 84.5569C41.97 84.6684 41.9979 84.7799 41.9979 84.8775C41.9979 85.017 41.9143 85.1564 41.733 85.2958L40.8546 85.8814C40.7291 85.9651 40.6036 86.0069 40.4921 86.0069C40.3527 86.0069 40.2132 85.9372 40.0738 85.8117C39.8786 85.6026 39.7113 85.3795 39.5719 85.1564C39.4324 84.9194 39.293 84.6544 39.1396 84.3338C38.0521 85.6165 36.6857 86.2579 35.0405 86.2579C33.8693 86.2579 32.9351 85.9232 32.2519 85.254C31.5687 84.5847 31.2201 83.6924 31.2201 82.577C31.2201 81.3918 31.6384 80.4298 32.4889 79.7047C33.3394 78.9797 34.4688 78.6172 35.9049 78.6172C36.379 78.6172 36.867 78.659 37.3828 78.7287C37.8987 78.7985 38.4286 78.91 38.9863 79.0355V78.0177C38.9863 76.958 38.7632 76.219 38.331 75.7868C37.8848 75.3546 37.1319 75.1454 36.0583 75.1454C35.5703 75.1454 35.0683 75.2012 34.5525 75.3267C34.0366 75.4522 33.5346 75.6056 33.0466 75.8008C32.8235 75.8984 32.6562 75.9541 32.5586 75.982C32.461 76.0099 32.3913 76.0238 32.3355 76.0238C32.1403 76.0238 32.0427 75.8844 32.0427 75.5916V74.9084C32.0427 74.6853 32.0706 74.518 32.1403 74.4204C32.2101 74.3228 32.3355 74.2252 32.5307 74.1276C33.0187 73.8766 33.6043 73.6675 34.2875 73.5002C34.9707 73.3189 35.6958 73.2353 36.4626 73.2353C38.1218 73.2353 39.3348 73.6117 40.1156 74.3646C40.8825 75.1175 41.2729 76.2609 41.2729 77.7946V82.312L41.3008 82.3121ZM35.64 84.4314C36.1001 84.4314 36.5742 84.3477 37.0761 84.1804C37.578 84.0131 38.0242 83.7063 38.4007 83.2881C38.6238 83.0231 38.7911 82.7303 38.8747 82.3957C38.9584 82.0611 39.0142 81.6567 39.0142 81.1827V80.5971C38.6098 80.4995 38.1776 80.4158 37.7314 80.3601C37.2852 80.3043 36.853 80.2764 36.4208 80.2764C35.4866 80.2764 34.8034 80.4577 34.3433 80.8341C33.8832 81.2106 33.6601 81.7404 33.6601 82.4376C33.6601 83.0929 33.8274 83.5809 34.176 83.9155C34.5106 84.2641 34.9986 84.4314 35.64 84.4314ZM46.8361 85.9372C46.5851 85.9372 46.4178 85.8954 46.3063 85.7978C46.1947 85.7141 46.0971 85.5189 46.0135 85.254L42.7369 74.4762C42.6532 74.1973 42.6114 74.0161 42.6114 73.9185C42.6114 73.6954 42.7229 73.5699 42.946 73.5699H44.3124C44.5773 73.5699 44.7586 73.6117 44.8562 73.7093C44.9677 73.793 45.0514 73.9882 45.1351 74.2531L47.4774 83.4833L49.6525 74.2531C49.7222 73.9743 49.8059 73.793 49.9174 73.7093C50.029 73.6257 50.2242 73.5699 50.4752 73.5699H51.5906C51.8555 73.5699 52.0368 73.6117 52.1483 73.7093C52.2598 73.793 52.3574 73.9882 52.4132 74.2531L54.6162 83.5948L57.0283 74.2531C57.1119 73.9743 57.2095 73.793 57.3071 73.7093C57.4187 73.6257 57.5999 73.5699 57.8509 73.5699H59.1476C59.3707 73.5699 59.4962 73.6815 59.4962 73.9185C59.4962 73.9882 59.4822 74.0579 59.4683 74.1416C59.4543 74.2252 59.4264 74.3368 59.3707 74.4901L56.0105 85.2679C55.9268 85.5468 55.8292 85.728 55.7177 85.8117C55.6061 85.8954 55.4249 85.9511 55.1878 85.9511H53.9887C53.7238 85.9511 53.5426 85.9093 53.431 85.8117C53.3195 85.7141 53.2219 85.5328 53.1661 85.254L51.005 76.2609L48.8578 85.24C48.7881 85.5189 48.7044 85.7001 48.5929 85.7977C48.4813 85.8953 48.2861 85.9372 48.0352 85.9372H46.8361ZM64.7526 86.3136C64.0276 86.3136 63.3026 86.23 62.6054 86.0627C61.9083 85.8954 61.3645 85.7141 61.002 85.505C60.7789 85.3795 60.6255 85.24 60.5698 85.1146C60.514 84.9891 60.4861 84.8496 60.4861 84.7242V84.0131C60.4861 83.7203 60.5976 83.5808 60.8068 83.5808C60.8904 83.5808 60.9741 83.5948 61.0578 83.6227C61.1414 83.6506 61.2669 83.7063 61.4063 83.7621C61.8804 83.9713 62.3963 84.1386 62.94 84.2501C63.4977 84.3617 64.0415 84.4174 64.5992 84.4174C65.4776 84.4174 66.1608 84.264 66.6349 83.9573C67.1089 83.6506 67.3599 83.2044 67.3599 82.6327C67.3599 82.2423 67.2344 81.9216 66.9835 81.6567C66.7325 81.3918 66.2584 81.1548 65.5752 80.9317L63.5535 80.3043C62.5357 79.9836 61.7828 79.5096 61.3227 78.8821C60.8626 78.2686 60.6255 77.5854 60.6255 76.8604C60.6255 76.2748 60.751 75.7589 61.002 75.3128C61.253 74.8666 61.5876 74.4762 62.0059 74.1695C62.4242 73.8488 62.8982 73.6117 63.4559 73.4444C64.0136 73.2771 64.5992 73.2074 65.2127 73.2074C65.5195 73.2074 65.8401 73.2213 66.1469 73.2632C66.4676 73.305 66.7604 73.3608 67.0532 73.4165C67.332 73.4863 67.5969 73.556 67.8479 73.6396C68.0989 73.7233 68.2941 73.8069 68.4335 73.8906C68.6287 74.0022 68.7681 74.1137 68.8518 74.2392C68.9355 74.3507 68.9773 74.5041 68.9773 74.6993V75.3546C68.9773 75.6474 68.8657 75.8008 68.6566 75.8008C68.5451 75.8008 68.3638 75.745 68.1268 75.6335C67.332 75.2709 66.4397 75.0897 65.4498 75.0897C64.655 75.0897 64.0276 75.2152 63.5954 75.4801C63.1631 75.745 62.9401 76.1493 62.9401 76.721C62.9401 77.1114 63.0795 77.446 63.3583 77.7109C63.6372 77.9759 64.1531 78.2408 64.892 78.4778L66.8719 79.1052C67.8758 79.4259 68.6008 79.8721 69.0331 80.4437C69.4653 81.0154 69.6744 81.6707 69.6744 82.3957C69.6744 82.9953 69.549 83.539 69.3119 84.0131C69.061 84.4871 68.7263 84.9054 68.2941 85.2401C67.8619 85.5886 67.346 85.8396 66.7464 86.0209C66.119 86.2161 65.4637 86.3136 64.7526 86.3136Z" fill="#252F3E"/>
    <path fill-rule="evenodd" clip-rule="evenodd" d="M67.3878 93.0901C62.8006 96.4782 56.1359 98.2768 50.4054 98.2768C42.3744 98.2768 35.1381 95.307 29.6725 90.3712C29.2402 89.9808 29.6306 89.451 30.1465 89.7577C36.0583 93.1877 43.3504 95.2652 50.8934 95.2652C55.9826 95.2652 61.5736 94.2055 66.7185 92.0304C67.4854 91.6819 68.1407 92.5324 67.3878 93.0901Z" fill="#FF9900"/>
    <path fill-rule="evenodd" clip-rule="evenodd" d="M69.298 90.915C68.7124 90.1621 65.4219 90.5525 63.93 90.7337C63.4838 90.7895 63.4141 90.3991 63.8184 90.1063C66.4397 88.2659 70.748 88.7957 71.25 89.4092C71.7519 90.0366 71.1105 94.3449 68.6566 96.4085C68.2801 96.7291 67.9176 96.5618 68.0849 96.1435C68.6427 94.7632 69.8836 91.654 69.298 90.915Z" fill="#FF9900"/>
    <path d="M155.933 73.5054C155.601 73.1882 152.95 66.5272 152.95 66.5272L146.654 66.21L143.774 72.7112L155.933 73.5054Z" fill="#FFB6B6"/>
    <path d="M146.813 69.2496C151.514 69.2496 155.325 65.4389 155.325 60.7382C155.325 56.0375 151.514 52.2268 146.813 52.2268C142.113 52.2268 138.302 56.0375 138.302 60.7382C138.302 65.4389 142.113 69.2496 146.813 69.2496Z" fill="#FFB6B6"/>
    <path d="M162.707 120.042L165.66 130.007L157.786 187.801H152.455L149.583 144.289L146.302 159.236L163.035 180.826L158.77 185.808L134.654 162.059L135.146 125.357L137.115 119.71L162.707 120.042Z" fill="#2F2E41"/>
    <path d="M153.97 68.0009L153.296 68.0337C153.296 68.0337 152.694 62.7148 152.34 62.3978C151.986 62.0808 151.346 62.7805 151.346 62.7805C151.346 62.7805 148.567 61.2447 148.484 59.5774C148.401 57.9101 148.334 56.5763 147.323 56.6256C146.312 56.6748 140.649 58.2879 139.301 58.3537C137.953 58.4194 135.815 56.1837 138.074 54.068C140.334 51.9522 142.323 51.1868 142.643 50.8369C142.963 50.487 145.073 49.0471 146.916 50.2943C148.759 51.5415 151.118 51.4265 151.118 51.4265C151.118 51.4265 155.549 52.2134 154.975 54.247C154.4 56.2806 156.622 60.1835 155.71 62.2335C154.799 64.2836 153.97 68.0009 153.97 68.0009Z" fill="#2F2E41"/>
    <path d="M152.236 186.585L158.299 187.253L158.972 198.269C158.972 198.269 158.636 203.61 152.91 202.942C147.184 202.275 148.868 196.934 148.868 196.934L152.236 186.585Z" fill="#2F2E41"/>
    <path d="M159.887 178.867C159.887 178.867 164.227 176.879 164.895 179.198L166.23 183.836C166.23 183.836 166.23 188.474 166.564 188.805C166.898 189.136 173.24 197.749 167.565 202.387C167.565 202.387 164.561 202.718 162.892 198.081C161.223 193.443 156.215 188.805 156.215 188.805C156.215 188.805 155.245 186.486 156.899 186.652C158.552 186.817 160.889 182.842 160.221 181.517C159.554 180.192 159.887 178.867 159.887 178.867Z" fill="#2F2E41"/>
    <path d="M105.15 135.361C103.607 134.714 103.184 132.23 104.206 129.814C104.6 128.843 105.223 127.98 106.02 127.298L107.212 124.574L107.17 124.545L110.596 110.935C111.393 107.771 113.587 105.101 116.599 103.824C118.392 103.064 120.092 102.927 120.587 104.747C121.407 107.767 116.063 117.494 112.84 122.967L110.33 129.106C110.397 130.152 110.213 131.199 109.792 132.159C108.771 134.575 106.693 136.009 105.15 135.361Z" fill="#FFB6B6"/>
    <path d="M143.612 71.6814L154.497 72.0145L165.052 76.6786L163.403 104.33C163.403 104.33 165.382 110.66 164.392 111.659C163.403 112.659 164.392 117.139 163.733 117.231C163.073 117.323 163.733 122.142 163.733 122.142C163.733 122.142 154.497 118.989 146.581 120.988C138.664 122.986 136.025 119.655 136.025 119.655C136.025 119.655 134.046 111.659 134.046 109.994V75.931L143.612 71.6814Z" fill="#FF9900"/>
    <path d="M135.87 76.2004C135.87 76.2004 131.218 74.8681 128.892 78.1989C126.566 81.5298 125.237 81.5298 125.237 85.8599C125.237 85.8599 111.612 105.179 112.277 107.177L109.12 112.34L117.095 116.67C117.095 116.67 119.92 113.839 119.92 111.174C119.92 108.51 127.895 101.182 127.895 101.182C127.895 101.182 134.873 92.1885 135.206 88.8577C135.538 85.5268 135.87 76.2004 135.87 76.2004Z" fill="#FF9900"/>
    <path d="M176.918 137.158H222.716C230.475 137.158 236.765 143.448 236.765 151.206V187.944C236.765 195.703 230.475 201.993 222.716 201.993H176.918C169.159 201.993 162.869 195.703 162.869 187.944V151.206C162.869 143.448 169.159 137.158 176.918 137.158Z" fill="white"/>
    <path d="M162.204 187.612V150.874C162.204 142.944 168.655 136.493 176.585 136.493H222.384C230.314 136.493 236.765 142.944 236.765 150.874V187.612C236.765 195.542 230.314 201.993 222.384 201.993H176.585C168.655 201.993 162.204 195.542 162.204 187.612ZM176.585 137.158C169.022 137.158 162.869 143.311 162.869 150.874V187.612C162.869 195.175 169.022 201.328 176.585 201.328H222.384C229.947 201.328 236.1 195.175 236.1 187.612V150.874C236.1 143.311 229.947 137.158 222.384 137.158H176.585Z" fill="#3F3D56"/>
    <path d="M205.647 162.844H206.777L209.998 159.623L210.156 158.255C204.162 152.964 195.013 153.535 189.722 159.529C188.252 161.194 187.186 163.175 186.604 165.319C186.963 165.172 187.36 165.148 187.734 165.251L194.176 164.189C194.176 164.189 194.504 163.646 194.673 163.68C197.539 160.533 202.361 160.166 205.669 162.844H205.647Z" fill="#EA4335"/>
    <path d="M214.586 165.319C213.846 162.593 212.326 160.142 210.213 158.267L205.692 162.787C207.601 164.347 208.688 166.697 208.642 169.161V169.964C210.864 169.964 212.665 171.765 212.665 173.987C212.665 176.209 210.864 178.01 208.642 178.01H200.595L199.793 178.824V183.65L200.595 184.452H208.642C214.421 184.497 219.143 179.848 219.188 174.069C219.215 170.566 217.488 167.282 214.586 165.319Z" fill="#4285F4"/>
    <path d="M192.537 184.407H200.584V177.965H192.537C191.964 177.965 191.397 177.842 190.876 177.603L189.746 177.954L186.502 181.175L186.22 182.305C188.039 183.678 190.258 184.417 192.537 184.407Z" fill="#34A853"/>
    <path d="M192.537 163.511C186.758 163.545 182.1 168.258 182.135 174.038C182.154 177.265 183.662 180.303 186.22 182.271L190.887 177.603C188.862 176.689 187.962 174.305 188.877 172.28C189.792 170.256 192.175 169.356 194.2 170.271C195.093 170.674 195.807 171.388 196.21 172.28L200.878 167.613C198.892 165.017 195.806 163.499 192.537 163.511Z" fill="#FBBC05"/>
    <path d="M172.022 142.989C173.699 142.901 174.947 140.694 174.808 138.058C174.768 137.004 174.475 135.975 173.955 135.058L173.761 132.072L173.811 132.06L175.228 118.006C175.557 114.738 174.399 111.463 171.992 109.229C170.561 107.899 169.003 107.19 167.914 108.745C166.108 111.325 167.828 122.355 168.999 128.635L169.271 135.303C168.85 136.27 168.666 137.324 168.736 138.377C168.874 141.012 170.345 143.077 172.022 142.989Z" fill="#FFB6B6"/>
    <path d="M163.238 76.566C163.238 76.566 168.071 76.895 169.132 80.8146C170.194 84.7342 171.445 85.1858 169.978 89.2539C169.978 89.2539 176.259 112.033 174.956 113.684L176.179 119.607L167.201 120.966C167.201 120.966 165.5 117.346 166.404 114.843C167.307 112.339 162.281 102.745 162.281 102.745C162.281 102.745 158.758 91.9252 159.574 88.683C160.39 85.4409 163.238 76.566 163.238 76.566Z" fill="#FF9900"/>
    </g>
    </g>
    <defs>
    <linearGradient id="paint0_linear_2_154" x1="89.6613" y1="149.676" x2="79.008" y2="181.148" gradientUnits="userSpaceOnUse">
    <stop stop-color="#114A8B"/>
    <stop offset="1" stop-color="#0669BC"/>
    </linearGradient>
    <linearGradient id="paint1_linear_2_154" x1="92.989" y1="164.342" x2="90.5248" y2="165.175" gradientUnits="userSpaceOnUse">
    <stop stop-opacity="0.3"/>
    <stop offset="0.071" stop-opacity="0.2"/>
    <stop offset="0.321" stop-opacity="0.1"/>
    <stop offset="0.623" stop-opacity="0.05"/>
    <stop offset="1" stop-opacity="0"/>
    </linearGradient>
    <linearGradient id="paint2_linear_2_154" x1="91.7105" y1="148.729" x2="103.405" y2="179.884" gradientUnits="userSpaceOnUse">
    <stop stop-color="#3CCBF4"/>
    <stop offset="1" stop-color="#2892DF"/>
    </linearGradient>
    <clipPath id="clip0_2_154">
    <rect width="250" height="202" fill="white" transform="translate(0 1)"/>
    </clipPath>
    </defs>


  </symbol>

  <symbol id="check" viewBox="0 0 21 21">
    <path d="M10.5 20.5C8.52219 20.5 6.58879 19.9135 4.9443 18.8147C3.29981 17.7159 2.01809 16.1541 1.26121 14.3268C0.504333 12.4996 0.306299 10.4889 0.692151 8.5491C1.078 6.60929 2.03041 4.82746 3.42894 3.42894C4.82746 2.03041 6.60929 1.078 8.5491 0.692151C10.4889 0.306299 12.4996 0.504333 14.3268 1.26121C16.1541 2.01809 17.7159 3.29981 18.8147 4.9443C19.9135 6.58879 20.5 8.52219 20.5 10.5C20.497 13.1512 19.4425 15.693 17.5678 17.5678C15.693 19.4425 13.1512 20.497 10.5 20.5ZM10.5 0.844834C8.59039 0.844834 6.72366 1.4111 5.13588 2.47202C3.54809 3.53294 2.31057 5.04088 1.57979 6.80513C0.849015 8.56938 0.657802 10.5107 1.03035 12.3836C1.4029 14.2566 2.32247 15.9769 3.67277 17.3272C5.02307 18.6775 6.74346 19.5971 8.61637 19.9696C10.4893 20.3422 12.4306 20.151 14.1949 19.4202C15.9591 18.6894 17.4671 17.4519 18.528 15.8641C19.5889 14.2763 20.1552 12.4096 20.1552 10.5C20.1523 7.94018 19.1341 5.48604 17.324 3.67597C15.514 1.8659 13.0598 0.847733 10.5 0.844834Z"/>
    <path d="M9.33092 15.1154C9.0515 15.1159 8.77948 15.0276 8.55591 14.8638L8.54205 14.8537L5.62337 12.6698C5.4882 12.5686 5.37475 12.4424 5.28951 12.2983C5.20426 12.1542 5.14889 11.9952 5.12654 11.8302C5.10419 11.6652 5.11532 11.4976 5.15927 11.3368C5.20323 11.176 5.27916 11.0253 5.38273 10.8932C5.4863 10.7611 5.61547 10.6502 5.76288 10.5669C5.91029 10.4836 6.07305 10.4295 6.24186 10.4076C6.41068 10.3858 6.58224 10.3967 6.74675 10.4396C6.91127 10.4826 7.06551 10.5568 7.20068 10.658L9.09117 12.0747L13.5587 6.38079C13.6623 6.24872 13.7915 6.1379 13.939 6.05464C14.0864 5.97138 14.2492 5.91732 14.418 5.89554C14.5869 5.87376 14.7584 5.8847 14.9229 5.92771C15.0874 5.97073 15.2416 6.04499 15.3767 6.14626L15.349 6.18312L15.3775 6.14679C15.65 6.35153 15.8284 6.65357 15.8734 6.98665C15.9184 7.31973 15.8263 7.65666 15.6175 7.9235L10.3626 14.6209C10.241 14.7752 10.0847 14.9001 9.90583 14.9858C9.72692 15.0716 9.5302 15.1159 9.33092 15.1154Z" fill="#FF9D00"/>
  </symbol>

  <symbol id="telegram" viewBox="0 0 26 26">
    
    <g clip-path="url(#clip0_37_156)">
    <path d="M13 0C9.55297 0 6.24406 1.37048 3.80859 3.80758C1.37061 6.24564 0.000675329 9.55212 0 13C0 16.4464 1.37109 19.7553 3.80859 22.1924C6.24406 24.6295 9.55297 26 13 26C16.447 26 19.7559 24.6295 22.1914 22.1924C24.6289 19.7553 26 16.4464 26 13C26 9.55358 24.6289 6.24467 22.1914 3.80758C19.7559 1.37048 16.447 0 13 0Z" fill="url(#paint0_linear_37_156)"/>
    <path d="M5.88453 12.8627C9.67484 11.2117 12.2017 10.1231 13.4652 9.59725C17.0767 8.09555 17.8262 7.83473 18.3158 7.8259C18.4234 7.82417 18.6631 7.85078 18.8195 7.97723C18.9495 8.08387 18.9861 8.22809 19.0044 8.32934C19.0206 8.4305 19.043 8.66105 19.0247 8.84102C18.8297 10.8966 17.9827 15.885 17.552 18.1874C17.3713 19.1616 17.0117 19.4882 16.6644 19.5201C15.9087 19.5896 15.3359 19.0212 14.6047 18.5421C13.4611 17.7919 12.8152 17.3251 11.7041 16.5933C10.4203 15.7475 11.2531 15.2825 11.9844 14.5228C12.1753 14.324 15.5025 11.2984 15.5655 11.024C15.5736 10.9897 15.5817 10.8617 15.5045 10.7943C15.4294 10.7266 15.3177 10.7498 15.2364 10.7681C15.1206 10.7941 13.2945 12.0023 9.75203 14.3924C9.23406 14.7487 8.76484 14.9224 8.34234 14.9132C7.87922 14.9033 6.98547 14.6508 6.32125 14.4351C5.50875 14.1704 4.86078 14.0305 4.91766 13.5809C4.94609 13.3469 5.26906 13.1075 5.88453 12.8627Z" fill="white"/>
    </g>
    <defs>
    <linearGradient id="paint0_linear_37_156" x1="13" y1="0" x2="13" y2="26" gradientUnits="userSpaceOnUse">
    <stop stop-color="#2AABEE"/>
    <stop offset="1" stop-color="#229ED9"/>
    </linearGradient>
    <clipPath id="clip0_37_156">
    <rect width="26" height="26" fill="white"/>
    </clipPath>
    </defs>


  </symbol>

  <symbol id="whatsaap" viewBox="0 0 26 26">
    
    
    <g clip-path="url(#clip0_37_161)">
    <path d="M0.554835 12.8444C0.554226 15.0289 1.12948 17.1619 2.2233 19.042L0.450226 25.4656L7.07535 23.7419C8.90777 24.7318 10.9609 25.2504 13.0472 25.2505H13.0527C19.9402 25.2505 25.5467 19.6895 25.5497 12.8542C25.551 9.542 24.2522 6.42744 21.8925 4.08422C19.5332 1.74119 16.3954 0.450162 13.0522 0.44865C6.16393 0.44865 0.557781 6.00943 0.554937 12.8444" fill="url(#paint0_linear_37_161)"/>
    <path d="M0.108672 12.8404C0.107961 15.1035 0.703828 17.3128 1.83666 19.2602L0 25.914L6.86268 24.1286C8.75357 25.1516 10.8825 25.6909 13.0489 25.6917H13.0544C20.189 25.6917 25.997 19.9306 26 12.8507C26.0012 9.41946 24.6557 6.19294 22.2117 3.76577C19.7674 1.3389 16.5174 0.00141085 13.0544 0C5.91866 0 0.111516 5.76031 0.108672 12.8404ZM4.19555 18.9248L3.9393 18.5212C2.86213 16.8217 2.29359 14.8578 2.2944 12.8412C2.29673 6.95641 7.12339 2.16868 13.0585 2.16868C15.9327 2.16989 18.6339 3.28164 20.6655 5.29876C22.6971 7.31608 23.815 9.99771 23.8143 12.8498C23.8116 18.7346 18.9849 23.5229 13.0544 23.5229H13.0502C11.1192 23.5219 9.22533 23.0074 7.57372 22.035L7.18067 21.8037L3.10822 22.8632L4.19555 18.9247V18.9248Z" fill="url(#paint1_linear_37_161)"/>
    <path d="M9.81886 7.47228C9.57653 6.93787 9.32151 6.92708 9.09107 6.91771C8.90236 6.90965 8.68664 6.91025 8.47113 6.91025C8.25541 6.91025 7.90492 6.99077 7.60866 7.31174C7.3121 7.63301 6.47644 8.40939 6.47644 9.98843C6.47644 11.5676 7.63557 13.0936 7.79716 13.308C7.95895 13.5219 10.0349 16.866 13.3227 18.1525C16.0551 19.2217 16.6112 19.009 17.2042 18.9554C17.7973 18.902 19.118 18.1792 19.3875 17.4298C19.6571 16.6804 19.6571 16.0381 19.5763 15.9038C19.4954 15.7701 19.2797 15.6898 18.9562 15.5294C18.6327 15.3688 17.0424 14.5923 16.7459 14.4852C16.4494 14.3782 16.2338 14.3248 16.018 14.6462C15.8023 14.967 15.1829 15.6898 14.9941 15.9038C14.8055 16.1184 14.6167 16.1451 14.2933 15.9846C13.9696 15.8235 12.9279 15.485 11.692 14.3917C10.7304 13.541 10.0812 12.4904 9.89249 12.169C9.70379 11.8481 9.87228 11.6742 10.0345 11.5143C10.1798 11.3705 10.3581 11.1395 10.5199 10.9521C10.6812 10.7647 10.7351 10.631 10.8429 10.4169C10.9509 10.2027 10.8968 10.0152 10.8161 9.8547C10.7351 9.69417 10.1065 8.10686 9.81886 7.47228Z" fill="white"/>
    </g>
    <defs>
    <linearGradient id="paint0_linear_37_161" x1="12.9999" y1="25.4656" x2="12.9999" y2="0.44865" gradientUnits="userSpaceOnUse">
    <stop stop-color="#1FAF38"/>
    <stop offset="1" stop-color="#60D669"/>
    </linearGradient>
    <linearGradient id="paint1_linear_37_161" x1="13" y1="25.914" x2="13" y2="0" gradientUnits="userSpaceOnUse">
    <stop stop-color="#EEEEEE"/>
    <stop offset="1" stop-color="white"/>
    </linearGradient>
    <clipPath id="clip0_37_161">
    <rect width="26" height="26" fill="white"/>
    </clipPath>
    </defs>




  </symbol>
  
  
</svg>