<?xml version="1.0" encoding="utf-8"?>
<!-- Generator: Adobe Illustrator 25.0.1, SVG Export Plug-In . SVG Version: 6.00 Build 0)  -->
<svg version="1.1" id="Слой_1" xmlns="http://www.w3.org/2000/svg" xmlns:xlink="http://www.w3.org/1999/xlink" x="0px" y="0px"
	 viewBox="0 0 706 473" style="enable-background:new 0 0  706 473;" xml:space="preserve">
<style type="text/css">

	.woman,.man,.phone{
		transform: translateX(100%);
		transition: all 1s;
		opacity: 0;
		animation: translateX .5s linear forwards;
	}
	.man{
					animation-delay: .5s;
				}
				.phone{
					animation-delay: .3s;
				}
	@keyframes translateX {
          to {
            		transform: translateX(0);
						opacity: 1;
          }
        }

.phone1{
	opacity: 0;
	animation: phone .3s linear forwards;
}

.phone1 {
	animation-delay: 1s;
}
@keyframes phone {
          to {
						opacity: 1;
          }
        }
				
</style>
	<g class="phone">
    <path class="c3" d="M516.041 437.98C536.549 424.238 551.275 399.82 547.885 375.368C529.511 394.941 504.806 407.383 478.141 410.494C467.853 411.657 456.29 411.879 449.068 419.297C444.575 423.914 442.726 430.6 442.709 437.042C442.692 443.484 444.321 449.804 445.938 456.04L445.58 457.608C470.236 456.38 495.533 451.722 516.041 437.98Z" fill="#F0F0F0"></path>
    <path class="c3" d="M547.366 375.368C539.872 394.378 526.579 410.543 509.375 421.567C505.714 424.006 501.691 425.853 497.454 427.039C493.29 428.061 488.928 427.949 484.821 426.716C480.969 425.642 477.153 424.098 473.107 423.98C471.035 423.95 468.98 424.358 467.077 425.178C465.174 425.998 463.466 427.211 462.065 428.738C458.474 432.451 456.432 437.232 454.597 441.977C452.56 447.246 450.527 452.751 446.291 456.688C445.778 457.165 446.548 457.933 447.06 457.457C454.43 450.607 455.112 439.759 460.873 431.848C463.561 428.157 467.378 425.253 472.088 425.072C476.206 424.914 480.142 426.502 484.033 427.623C488.022 428.885 492.258 429.152 496.374 428.399C500.657 427.432 504.745 425.744 508.461 423.406C516.913 418.275 524.505 411.848 530.96 404.359C538.375 395.853 544.279 386.141 548.419 375.644C548.675 374.994 547.621 374.723 547.366 375.368Z" fill="white"></path>
    <path class="c3" d="M515.124 418.344C517.365 420.979 520.471 422.732 523.885 423.289C527.3 423.847 530.801 423.172 533.764 421.386C534.362 421.022 533.826 420.076 533.227 420.439C530.471 422.108 527.209 422.736 524.03 422.211C520.852 421.685 517.966 420.041 515.893 417.574C515.442 417.039 514.675 417.812 515.124 418.344Z" fill="white"></path>
    <path class="c3" d="M486.703 427.518C487.209 420.464 490.356 413.86 495.515 409.022C496.026 408.544 495.256 407.775 494.745 408.253C489.386 413.297 486.126 420.176 485.615 427.518C485.567 428.218 486.655 428.214 486.703 427.518Z" fill="white"></path>
    <path class="c3" d="M537 395.416C535.92 394.577 535.066 393.483 534.514 392.233C533.961 390.982 533.728 389.613 533.835 388.25C533.892 387.551 532.804 387.556 532.747 388.25C532.636 389.757 532.895 391.268 533.502 392.651C534.11 394.035 535.047 395.248 536.231 396.186C536.335 396.284 536.473 396.338 536.616 396.338C536.759 396.338 536.896 396.283 537 396.186C537.102 396.083 537.159 395.945 537.159 395.801C537.159 395.657 537.102 395.519 537 395.416Z" fill="white"></path>
    <path class="c3" d="M476.769 331.451C476.721 331.887 476.673 332.322 476.617 332.762C475.941 338.612 474.79 344.397 473.178 350.061C473.06 350.501 472.934 350.945 472.804 351.38C468.772 364.984 462.25 377.721 453.569 388.944C450.111 393.406 446.318 397.599 442.223 401.486C436.568 406.854 430.009 412.225 426.559 418.949C426.192 419.647 425.867 420.366 425.589 421.104L443.695 457.049C443.777 457.11 443.852 457.175 443.934 457.237L444.591 458.705C444.816 458.519 445.046 458.322 445.271 458.136C445.402 458.029 445.529 457.914 445.66 457.806C445.746 457.732 445.832 457.658 445.914 457.596C445.943 457.572 445.972 457.547 445.992 457.526C446.074 457.465 446.144 457.398 446.217 457.341C447.504 456.24 448.784 455.129 450.059 454.007C450.068 454.003 450.068 454.003 450.072 453.991C459.766 445.416 468.83 435.956 476.17 425.421C476.391 425.104 476.62 424.783 476.833 424.45C480.115 419.683 483.002 414.656 485.465 409.418C486.805 406.546 487.998 403.608 489.04 400.615C491.719 392.877 493.164 384.766 493.322 376.579C493.634 360.258 488.724 344.019 477.625 332.336C477.341 332.037 477.061 331.746 476.769 331.451Z" fill="#F0F0F0"></path>
    <path class="c3" d="M476.354 331.762C481.815 351.452 480.934 372.362 473.834 391.522C472.379 395.674 470.279 399.571 467.61 403.069C464.901 406.392 461.351 408.929 457.329 410.417C453.607 411.879 449.631 412.943 446.329 415.285C444.657 416.508 443.262 418.072 442.236 419.872C441.21 421.673 440.577 423.67 440.377 425.732C439.745 430.858 440.993 435.906 442.385 440.799C443.931 446.232 445.622 451.851 444.61 457.546C444.488 458.235 445.565 458.385 445.688 457.696C447.448 447.79 441.462 438.718 441.298 428.933C441.222 424.367 442.521 419.75 446.173 416.77C449.365 414.165 453.465 413.063 457.246 411.615C461.191 410.222 464.734 407.884 467.567 404.805C470.405 401.455 472.652 397.645 474.212 393.541C477.871 384.356 480.063 374.653 480.709 364.787C481.507 353.532 480.375 342.222 477.36 331.349C477.173 330.676 476.168 331.093 476.354 331.762Z" fill="white"></path>
    <path class="c3" d="M476.483 385.488C479.859 386.242 483.394 385.772 486.456 384.161C489.517 382.55 491.907 379.903 493.197 376.693C493.456 376.043 492.458 375.61 492.198 376.262C491.002 379.253 488.776 381.718 485.922 383.212C483.068 384.707 479.774 385.131 476.634 384.41C475.951 384.254 475.804 385.332 476.483 385.488Z" fill="white"></path>
    <path class="c3" d="M459.313 409.924C455.471 403.987 454.007 396.819 455.214 389.851C455.334 389.16 454.256 389.01 454.136 389.7C452.894 396.954 454.432 404.409 458.445 410.579C458.828 411.167 459.694 410.508 459.313 409.924Z" fill="white"></path>
    <path class="c3" d="M480.146 354.009C478.779 353.989 477.438 353.63 476.244 352.964C475.05 352.298 474.04 351.346 473.305 350.193C472.929 349.601 472.063 350.26 472.436 350.848C473.254 352.118 474.371 353.169 475.689 353.907C477.006 354.646 478.485 355.051 479.995 355.087C480.138 355.102 480.28 355.063 480.394 354.977C480.508 354.891 480.585 354.764 480.61 354.623C480.629 354.481 480.591 354.336 480.504 354.221C480.418 354.106 480.289 354.03 480.146 354.009Z" fill="white"></path>
    <path class="c3" d="M233.551 107.709H235.14V27.9391C235.14 20.7007 238.016 13.7589 243.134 8.64063C248.252 3.52237 255.194 0.646973 262.433 0.646973H440.081C447.319 0.646973 454.261 3.52237 459.379 8.64063C464.498 13.7589 467.373 20.7007 467.373 27.9391V62.8892H467.975C468.4 62.8893 468.808 63.0581 469.108 63.3588C469.409 63.6594 469.578 64.0671 469.578 64.4922V80.1228C469.578 80.548 469.409 80.9557 469.108 81.2563C468.808 81.5569 468.4 81.7258 467.975 81.7258H467.373V97.3704H468.115C468.326 97.3704 468.534 97.4119 468.728 97.4924C468.923 97.573 469.1 97.691 469.249 97.8399C469.397 97.9887 469.515 98.1655 469.596 98.36C469.677 98.5544 469.718 98.7629 469.718 98.9734V128.554C469.718 128.98 469.549 129.387 469.248 129.688C468.948 129.989 468.54 130.157 468.115 130.157H467.373V141.63H468.045C468.255 141.63 468.464 141.672 468.658 141.752C468.853 141.833 469.03 141.951 469.178 142.1C469.327 142.248 469.445 142.425 469.526 142.619C469.606 142.814 469.648 143.022 469.648 143.233V173.094C469.648 173.519 469.479 173.927 469.178 174.228C468.878 174.528 468.47 174.697 468.045 174.697H467.373V445.331C467.373 452.569 464.498 459.511 459.379 464.63C454.261 469.748 447.319 472.623 440.081 472.623H262.433C255.194 472.623 248.252 469.748 243.134 464.63C238.016 459.511 235.14 452.569 235.14 445.331V164.919H233.551C233.126 164.919 232.718 164.75 232.418 164.449C232.117 164.149 231.948 163.741 231.948 163.316V109.312C231.948 108.887 232.117 108.479 232.418 108.178C232.718 107.878 233.126 107.709 233.551 107.709Z" fill="#3F3D56"></path>
    <path class="c3" d="M343.938 21.6742H370.951C371.762 21.6734 372.539 21.3509 373.113 20.7776C373.686 20.2043 374.009 19.4268 374.01 18.6159V17.4463C374.009 16.6354 373.686 15.858 373.113 15.2846C372.539 14.7113 371.762 14.3888 370.951 14.388H343.938C343.128 14.3888 342.35 14.7113 341.777 15.2846C341.203 15.858 340.88 16.6354 340.879 17.4463V18.6159C340.88 19.4268 341.203 20.2042 341.777 20.7776C342.35 21.3509 343.128 21.6734 343.938 21.6742Z" fill="white"></path>
    <path class="c3" d="M332.592 21.7725C330.527 21.7725 328.854 20.099 328.854 18.0346C328.854 15.9702 330.527 14.2967 332.592 14.2967C334.656 14.2967 336.33 15.9702 336.33 18.0346C336.33 20.099 334.656 21.7725 332.592 21.7725Z" fill="white"></path>
    <path class="c3" d="M294.527 12.9388V16.1377C294.527 20.1663 296.127 24.0298 298.976 26.8784C301.824 29.727 305.688 31.3273 309.716 31.3273H394.456C396.45 31.3282 398.424 30.9365 400.267 30.1743C402.109 29.4122 403.783 28.2946 405.194 26.8854C406.604 25.4762 407.723 23.803 408.487 21.9613C409.251 20.1196 409.645 18.1455 409.646 16.1517V12.9388H434.586C439.478 12.9388 444.169 14.8821 447.628 18.3411C451.087 21.8001 453.03 26.4915 453.03 31.3833V441.88C453.03 446.772 451.087 451.464 447.628 454.923C444.169 458.382 439.478 460.325 434.586 460.325H267.927C263.037 460.325 258.348 458.382 254.89 454.925C251.432 451.467 249.49 446.777 249.49 441.887V31.3833C249.489 28.9621 249.965 26.5644 250.891 24.3271C251.816 22.0898 253.174 20.0567 254.885 18.344C256.597 16.6313 258.629 15.2724 260.865 14.345C263.102 13.4176 265.499 12.9397 267.92 12.9388H294.527Z" fill="white"></path>
    <path class="c3" d="M315.561 410.513H386.959C392.065 410.513 396.961 408.485 400.571 404.875C404.181 401.265 406.209 396.369 406.209 391.264C406.209 386.158 404.181 381.262 400.571 377.652C396.961 374.042 392.065 372.014 386.959 372.014H315.561C310.455 372.014 305.559 374.042 301.949 377.652C298.339 381.262 296.311 386.158 296.311 391.264C296.311 396.369 298.339 401.265 301.949 404.875C305.559 408.485 310.455 410.513 315.561 410.513Z" fill="#FF9D00"></path>
    <path class="c3" d="M287.562 252.395H414.958C416.722 252.395 418.413 251.694 419.661 250.447C420.908 249.2 421.608 247.509 421.608 245.745C421.608 243.982 420.908 242.29 419.661 241.043C418.413 239.796 416.722 239.095 414.958 239.095H287.562C285.798 239.095 284.106 239.796 282.859 241.043C281.612 242.29 280.912 243.982 280.912 245.745C280.912 247.509 281.612 249.2 282.859 250.447C284.106 251.694 285.798 252.395 287.562 252.395Z" fill="#E6E6E6"></path>
    <path class="c3" d="M287.562 271.995H414.958C416.722 271.995 418.413 271.294 419.661 270.047C420.908 268.8 421.608 267.109 421.608 265.345C421.608 263.581 420.908 261.89 419.661 260.643C418.413 259.396 416.722 258.695 414.958 258.695H287.562C285.798 258.695 284.106 259.396 282.859 260.643C281.612 261.89 280.912 263.581 280.912 265.345C280.912 267.109 281.612 268.8 282.859 270.047C284.106 271.294 285.798 271.995 287.562 271.995Z" fill="#E6E6E6"></path>
    <path class="c3" d="M287.562 291.594H414.958C416.722 291.594 418.413 290.894 419.661 289.646C420.908 288.399 421.608 286.708 421.608 284.944C421.608 283.181 420.908 281.489 419.661 280.242C418.413 278.995 416.722 278.294 414.958 278.294H287.562C285.798 278.294 284.106 278.995 282.859 280.242C281.612 281.489 280.912 283.181 280.912 284.944C280.912 286.708 281.612 288.399 282.859 289.646C284.106 290.894 285.798 291.594 287.562 291.594Z" fill="#E6E6E6"></path>
    <path class="c3" d="M287.562 311.194H414.958C416.722 311.194 418.413 310.493 419.661 309.246C420.908 307.999 421.608 306.307 421.608 304.544C421.608 302.78 420.908 301.089 419.661 299.842C418.413 298.594 416.722 297.894 414.958 297.894H287.562C285.798 297.894 284.106 298.594 282.859 299.842C281.612 301.089 280.912 302.78 280.912 304.544C280.912 306.307 281.612 307.999 282.859 309.246C284.106 310.493 285.798 311.194 287.562 311.194Z" fill="#E6E6E6"></path>
    <path class="c3" d="M374.359 330.793H414.958C416.722 330.793 418.413 330.092 419.661 328.845C420.908 327.598 421.608 325.907 421.608 324.143C421.608 322.38 420.908 320.688 419.661 319.441C418.413 318.194 416.722 317.493 414.958 317.493H374.359C372.596 317.493 370.904 318.194 369.657 319.441C368.41 320.688 367.709 322.38 367.709 324.143C367.709 325.907 368.41 327.598 369.657 328.845C370.904 330.092 372.596 330.793 374.359 330.793Z" fill="#E6E6E6"></path>
    <path class="c3" d="M267.622 197.9H434.898C436.377 197.899 437.794 197.311 438.84 196.265C439.886 195.22 440.474 193.802 440.476 192.323V68.1733C440.474 66.6946 439.886 65.2769 438.84 64.2313C437.794 63.1857 436.377 62.5976 434.898 62.596H267.622C266.144 62.5976 264.726 63.1858 263.68 64.2313C262.635 65.2769 262.047 66.6946 262.045 68.1733V192.323C262.047 193.802 262.635 195.22 263.68 196.265C264.726 197.311 266.144 197.899 267.622 197.9Z" fill="#E6E6E6"></path>
    <path class="c3" d="M237.994 162.461C237.994 161.5 237.994 160.534 237.994 159.563C238.032 160.312 238.032 161.062 237.994 161.81C238 162.027 237.994 162.244 237.994 162.461Z" fill="black"></path>
</g>
<g class="man">
    <path class="c2" d="M705.757 466.626C705.758 466.763 705.731 466.9 705.678 467.027C705.626 467.155 705.549 467.271 705.452 467.368C705.354 467.465 705.239 467.543 705.111 467.595C704.984 467.648 704.848 467.675 704.71 467.674H481.934C481.656 467.674 481.39 467.564 481.194 467.367C480.997 467.17 480.887 466.904 480.887 466.626C480.887 466.347 480.997 466.081 481.194 465.884C481.39 465.687 481.656 465.577 481.934 465.577H704.71C704.848 465.576 704.984 465.603 705.111 465.656C705.239 465.708 705.354 465.786 705.451 465.883C705.549 465.98 705.626 466.096 705.678 466.224C705.731 466.351 705.758 466.488 705.757 466.626Z" fill="#CCCCCC"></path>
    <path class="c2" d="M516.926 465.607C507.831 465.607 500.459 458.219 500.459 449.106C500.459 439.993 507.831 432.605 516.926 432.605C526.021 432.605 533.393 439.993 533.393 449.106C533.393 458.219 526.021 465.607 516.926 465.607Z" fill="#FF9900"></path>
    <path class="c2" d="M520.861 457.452C521.177 457.452 521.492 457.362 521.768 457.184C522.251 456.873 522.54 456.343 522.54 455.768V443.861C522.54 443.254 522.227 442.709 521.703 442.405C521.179 442.1 520.552 442.098 520.026 442.4L508.473 449.014C507.922 449.329 507.599 449.919 507.628 450.553C507.656 451.187 508.032 451.744 508.607 452.008L520.161 457.299C520.385 457.402 520.623 457.452 520.861 457.452Z" fill="white"></path>
    <path class="c2" d="M584.453 459.922L575.577 459.921L571.354 425.612L584.455 425.613L584.453 459.922Z" fill="#FFB6B6"></path>
    <path class="c2" d="M554.04 459.72C553.764 460.186 553.618 461.692 553.618 462.234C553.618 463.901 554.967 465.253 556.631 465.253H584.121C585.256 465.253 586.177 464.331 586.177 463.193V462.047C586.177 462.047 587.536 458.6 584.737 454.351C584.737 454.351 581.257 457.678 576.057 452.468L574.524 449.684L563.424 457.818L557.272 458.577C555.926 458.743 554.733 458.551 554.04 459.72Z" fill="#2F2E41"></path>
    <path class="c2" d="M528.182 430.841L519.529 432.823L507.779 400.321L520.55 397.395L528.182 430.841Z" fill="#FFB6B6"></path>
    <path class="c2" d="M498.49 437.439C498.325 437.955 498.517 439.455 498.638 439.984C499.009 441.609 500.625 442.626 502.247 442.254L529.045 436.113C530.151 435.859 530.843 434.755 530.59 433.646L530.335 432.528C530.335 432.528 530.894 428.864 527.219 425.348C527.219 425.348 524.567 429.368 518.339 425.45L516.225 423.08L507.215 433.489L501.386 435.603C500.111 436.065 498.905 436.145 498.49 437.439Z" fill="#2F2E41"></path>
    <path class="c2" d="M589.968 269.072L600.341 283.323L586.974 438.582H569.788L566.764 362.827L558.531 305.074L515.865 350.077L524.847 407.08L507.632 413.83L488.17 341.076L521.105 286.323L525.596 272.072L589.968 269.072Z" fill="#2F2E41"></path>
    <path class="c2" d="M542.812 145.315H564.271L571.256 154.316L595.956 165.566L592.214 257.821L600.448 283.323C600.448 283.323 561.525 302.074 525.596 272.072L526.345 245.071L513.62 167.066L536.075 152.816L542.812 145.315Z" fill="#FF9900"></path>
    <path class="c2" d="M619.617 278.909C618.961 276.704 617.863 274.829 616.568 273.498L611.652 252.089L601.554 254.731L607.628 276.164C607.269 277.988 607.372 280.159 608.027 282.365C609.524 287.404 613.331 290.716 616.532 289.762C619.732 288.807 621.113 283.949 619.617 278.909Z" fill="#FFB6B6"></path>
    <path class="c2" d="M584.41 167.093L590.994 163.718C590.994 163.718 597.322 164.153 600.256 170.034C603.191 175.915 603.191 218.257 603.191 218.257L616.689 267.067L604.951 273.536L588.994 228.254L584.41 167.093Z" fill="#FF9900"></path>
    <path class="c2" d="M513.406 284.446C513.452 282.145 512.975 280.025 512.144 278.362L513.958 256.469L503.536 255.909L502.818 278.177C501.923 279.806 501.363 281.906 501.317 284.207C501.214 289.464 503.836 293.778 507.174 293.844C510.513 293.91 513.303 289.703 513.406 284.446Z" fill="#FFB6B6"></path>
    <path class="c2" d="M513.8 167.198L521.097 165.988C521.097 165.988 526.992 168.331 528.003 174.828C529.014 181.324 516.165 221.661 516.165 221.661L514.211 272.273L501.066 274.859L499.607 226.859L513.8 167.198Z" fill="#FF9900"></path>
    <path class="c2" d="M551.722 141.469C540.163 141.469 530.793 132.08 530.793 120.498C530.793 108.915 540.163 99.5261 551.722 99.5261C563.28 99.5261 572.651 108.915 572.651 120.498C572.651 132.08 563.28 141.469 551.722 141.469Z" fill="#FFB6B6"></path>
    <path class="c2" d="M625.148 291.573C630.936 291.573 635.628 286.872 635.628 281.073C635.628 275.273 630.936 270.572 625.148 270.572C619.361 270.572 614.669 275.273 614.669 281.073C614.669 286.872 619.361 291.573 625.148 291.573Z" fill="#3F3D56"></path>
    <path class="c2" d="M630.599 274.924C630.099 274.631 629.337 274.783 629.062 275.328C627.817 277.8 626.571 280.273 625.326 282.745C624.321 281.168 623.036 279.791 621.544 278.637C621.064 278.265 620.287 278.563 620.008 279.04C619.669 279.621 619.93 280.207 620.411 280.58C622.15 281.926 623.491 283.735 624.394 285.731C624.737 286.491 625.974 286.443 626.333 285.731C627.889 282.642 629.445 279.553 631.001 276.463C631.275 275.921 631.144 275.244 630.599 274.924Z" fill="white"></path>
    <path class="c2" d="M528.372 106.993C533.829 107.427 533.081 104.813 533.081 104.813L532.59 100.362C532.731 99.5914 532.998 98.9692 533.528 98.6689C534.774 97.9632 536.038 99.2978 537.357 98.7424C538.56 98.2356 539.768 97.7274 541.028 97.3868C542.628 96.9544 543.405 98.6839 545.057 98.8128C546.62 98.9347 549.046 97.4226 550.569 97.7945C551.909 98.122 550.158 96.0393 551.794 95.8126L557.034 98.8128C557.034 98.8128 559.036 100.562 559.279 98.8128C563.555 99.5022 566.899 96.5081 568.315 103.793C569.21 108.4 573.795 110.914 575.017 115.446C576.756 121.902 573.803 127.494 569.898 131.971C568.933 133.077 570.458 135.013 569.754 136.303C569.1 137.501 567.622 138.063 566.955 139.255C566.385 140.273 565.355 138.578 564.694 139.54C564.125 140.371 566.273 140.801 565.267 140.815C564.774 140.822 563.503 140.924 563.022 140.815C561.199 140.933 562.629 140.859 561.106 140.955C560.442 137.076 563.036 135.959 564.39 132.266C564.842 131.033 565.404 129.833 565.68 128.549C565.956 127.265 565.917 125.849 565.226 124.734C564.168 123.027 561.704 122.502 559.909 123.395C558.113 124.288 557.055 126.344 557.068 128.353C555.517 127.035 554.302 125.369 553.448 123.527L554.039 120.564C554.039 120.564 553.345 121.133 552.75 121.741C551.661 118.332 551.741 114.538 553.207 111.268C552.442 110.662 546.832 113.1 542.063 114.184V113.814L538.321 114.564C534.621 115.236 533.62 116.155 534.578 112.314C534.891 111.059 533.081 116.814 530.087 115.314C528.211 114.374 530.451 112.58 529.229 110.872C528.435 109.762 528.192 108.357 528.372 106.993Z" fill="#2F2E41"></path>
</g>
<g class="woman">
    <path class="c1" d="M142.636 459.654L151.51 459.654L155.731 425.357L142.634 425.358L142.636 459.654Z" fill="#FFB6B6"></path>
    <path class="c1" d="M142.324 468.93L169.611 468.929V468.584C169.611 465.761 168.492 463.054 166.5 461.058C164.508 459.063 161.807 457.941 158.99 457.941L154.005 454.152L144.705 457.942L142.323 457.942L142.324 468.93Z" fill="#2F2E41"></path>
    <path class="c1" d="M91.341 459.654L100.215 459.654L104.435 425.357L91.3393 425.358L91.341 459.654Z" fill="#FFB6B6"></path>
    <path class="c1" d="M91.0283 468.93L118.316 468.929V468.584C118.316 465.761 117.196 463.054 115.205 461.058C113.213 459.063 110.512 457.941 107.695 457.941L102.71 454.152L93.4099 457.942L91.0279 457.942L91.0283 468.93Z" fill="#2F2E41"></path>
    <path class="c1" d="M202.408 231.938L172.175 203.527L180.363 189.781L210.181 223.949C211.95 223.771 213.731 224.142 215.283 225.013C216.834 225.884 218.081 227.212 218.853 228.818C219.625 230.423 219.886 232.227 219.599 233.986C219.313 235.745 218.493 237.372 217.252 238.648C216.011 239.924 214.407 240.787 212.66 241.118C210.913 241.45 209.106 241.234 207.485 240.501C205.864 239.769 204.507 238.554 203.599 237.022C202.691 235.49 202.275 233.715 202.408 231.938Z" fill="#FFB6B6"></path>
    <path class="c1" d="M82.6593 273.3C82.6593 273.3 78.9059 307.149 87.0381 339.117L83.9752 354.571L90.7914 443.17H107.337L118.941 297.12L140.604 443.17H157.982L155.849 362.937L163.37 285.837L160.228 268.286L82.6593 273.3Z" fill="#2F2E41"></path>
    <path class="c1" d="M128.379 141.428H91.4389L85.2264 157.255L86.7254 282.389C86.7254 282.389 159.915 282.389 164.919 277.375L149.281 222.841L143.651 153.263L128.379 141.428Z" fill="#FF9900"></path>
    <path class="c1" d="M148.655 152.636L174.928 180.843L184.311 187.111L186.813 195.26L176.179 213.438L164.294 209.05L160.541 195.26L138.486 177.193L136.143 148.248L148.655 152.636Z" fill="#2F2E41"></path>
    <path class="c1" d="M124.936 142.323L129.259 160.817L135.206 226.915L143.338 277.061H166.799L152.721 222.528L147.091 152.323L128.324 141.04L124.936 142.323Z" fill="#2F2E41"></path>
    <path class="c1" d="M94.8056 142.323L101.426 163.606L112.06 233.81L95.7959 283.956L80.0048 284.203L75.8956 268.646L85.1615 228.796L72.6501 152.323L91.4167 141.04L94.8056 142.323Z" fill="#2F2E41"></path>
    <path class="c1" d="M108.474 135.161C120.841 135.161 130.866 125.115 130.866 112.724C130.866 100.332 120.841 90.2871 108.474 90.2871C96.1082 90.2871 86.0833 100.332 86.0833 112.724C86.0833 125.115 96.1082 135.161 108.474 135.161Z" fill="#FFB6B6"></path>
    <path class="c1" d="M95.5568 123.831C95.5568 123.831 94.4813 125.465 96.5578 132.401L87.0381 124.742L85.9968 116.332C85.9968 116.332 81.1518 98.9932 97.7632 90.6705C97.7632 90.6705 112.298 83.0414 126.141 94.1383C126.141 94.1383 131.678 94.8318 130.986 95.5254C130.294 96.2189 126.833 98.2996 130.294 97.6061C133.755 96.9125 135.831 93.4447 135.831 95.5254C135.831 97.606 129.602 102.461 129.602 102.461C129.602 102.461 132.024 109.05 115.413 100.033C113.636 104.484 110.213 108.076 105.858 110.06L106.391 110.582L102.262 119.453C102.262 119.453 97.9794 113.774 95.5568 123.831Z" fill="#2F2E41"></path>
    <path class="c1" d="M97.3142 298.911L172.543 128.941C173.326 127.178 174.775 125.797 176.572 125.103C178.369 124.409 180.368 124.457 182.13 125.238L237.217 149.719C238.977 150.504 240.355 151.956 241.048 153.756C241.741 155.557 241.692 157.56 240.913 159.325L165.685 329.295C164.902 331.059 163.453 332.439 161.656 333.133C159.859 333.828 157.86 333.779 156.098 332.999L101.01 308.517C99.2503 307.733 97.8728 306.281 97.1799 304.48C96.4871 302.679 96.5354 300.676 97.3142 298.911Z" fill="white"></path>
    <path class="c1" d="M97.3142 298.911L172.543 128.941C173.326 127.178 174.775 125.797 176.572 125.103C178.369 124.409 180.368 124.457 182.13 125.238L237.217 149.719C238.977 150.504 240.355 151.956 241.048 153.756C241.741 155.557 241.692 157.56 240.913 159.325L165.685 329.295C164.902 331.059 163.453 332.439 161.656 333.133C159.859 333.828 157.86 333.779 156.098 332.999L101.01 308.517C99.2503 307.733 97.8728 306.281 97.1799 304.48C96.4871 302.679 96.5354 300.676 97.3142 298.911ZM239.745 158.806C240.387 157.351 240.426 155.701 239.855 154.217C239.284 152.733 238.149 151.537 236.699 150.89L181.611 126.409C180.16 125.765 178.513 125.726 177.032 126.298C175.55 126.87 174.356 128.007 173.711 129.46L98.483 299.43C97.8411 300.885 97.8013 302.535 98.3722 304.019C98.9432 305.503 100.078 306.7 101.529 307.346L156.616 331.828C158.068 332.471 159.715 332.511 161.196 331.938C162.677 331.366 163.871 330.229 164.516 328.776L239.745 158.806Z" fill="#3F3D56"></path>
    <path class="c1" d="M179.546 229.412C195.093 229.412 207.696 216.783 207.696 201.204C207.696 185.626 195.093 172.997 179.546 172.997C163.999 172.997 151.396 185.626 151.396 201.204C151.396 216.783 163.999 229.412 179.546 229.412Z" fill="#CCCCCC"></path>
    <path class="c1" d="M165.851 260.354C181.398 260.354 194.001 247.725 194.001 232.147C194.001 216.568 181.398 203.939 165.851 203.939C150.304 203.939 137.701 216.568 137.701 232.147C137.701 247.725 150.304 260.354 165.851 260.354Z" fill="#3F3D56"></path>
    <path class="c1" d="M140.744 288.874C137.364 287.372 134.313 285.218 131.765 282.535C129.216 279.852 127.22 276.692 125.891 273.235C124.561 269.779 123.923 266.094 124.015 262.391C124.106 258.688 124.925 255.039 126.423 251.653C127.922 248.267 130.072 245.21 132.75 242.656C135.427 240.102 138.581 238.102 142.03 236.77C145.479 235.437 149.157 234.799 152.852 234.89C156.548 234.982 160.189 235.802 163.568 237.304C177.78 243.62 193.364 276.013 177.889 274.525C160.167 272.82 154.955 295.19 140.744 288.874Z" fill="#FF9900"></path>
    <path class="c1" d="M102.881 272.14L80.8844 217.222L98.475 220.747L113.155 267.841C114.853 268.371 116.347 269.412 117.434 270.822C118.521 272.233 119.149 273.944 119.232 275.724C119.315 277.504 118.849 279.267 117.898 280.772C116.947 282.278 115.556 283.454 113.915 284.141C112.274 284.828 110.462 284.992 108.725 284.611C106.988 284.23 105.409 283.323 104.204 282.012C102.999 280.702 102.226 279.051 101.989 277.285C101.753 275.519 102.064 273.723 102.881 272.14Z" fill="#FFB6B6"></path>
    <path class="c1" d="M67.2645 165.72C65.9841 179.877 68.6361 192.307 73.3924 203.813L74.0033 214.047L78.8932 221.024L99.7444 223.752L103.573 211.653L95.0026 200.227L94.2821 171.691L72.8991 152.09L67.2645 165.72Z" fill="#2F2E41"></path>
    <path class="c1" d="M224.87 468.51C224.87 468.648 224.844 468.785 224.791 468.912C224.739 469.04 224.662 469.155 224.564 469.253C224.467 469.35 224.351 469.427 224.224 469.48C224.097 469.533 223.961 469.559 223.823 469.559H1.04667C0.769086 469.559 0.502869 469.449 0.306585 469.252C0.110301 469.055 3.05176e-05 468.788 3.05176e-05 468.51C3.05176e-05 468.232 0.110301 467.965 0.306585 467.769C0.502869 467.572 0.769086 467.461 1.04667 467.461H223.823C223.961 467.461 224.097 467.488 224.224 467.54C224.351 467.593 224.467 467.67 224.564 467.768C224.662 467.865 224.739 467.981 224.791 468.108C224.844 468.236 224.87 468.372 224.87 468.51Z" fill="#CCCCCC"></path>
</g>
</svg>





