<svg width="80" height="80" viewBox="0 0 80 80" fill="none" xmlns="http://www.w3.org/2000/svg">
<g clip-path="url(#clip0_102_45)">
<path d="M0 12.8C0 5.73076 5.73076 0 12.8 0H67.2C74.2692 0 80 5.73076 80 12.8V67.2C80 74.2692 74.2692 80 67.2 80H12.8C5.73076 80 0 74.2692 0 67.2V12.8Z" fill="#232323"/>
<path d="M25.3953 56.2944C25.3953 59.9934 22.3967 62.992 18.6977 62.992C14.9987 62.992 12 59.9934 12 56.2944C12 52.5953 14.9987 49.5967 18.6977 49.5967C22.3967 49.5967 25.3953 52.5953 25.3953 56.2944Z" fill="#FF9900"/>
<path d="M12 18.0805C12 17.1968 12.7163 16.4805 13.6 16.4805H23.7953C24.679 16.4805 25.3953 17.1968 25.3953 18.0805V33.6982C25.3953 40.4237 19.9433 45.8758 13.2178 45.8758C12.5452 45.8758 12 45.3306 12 44.6581V18.0805Z" fill="white"/>
<path fill-rule="evenodd" clip-rule="evenodd" d="M33.2101 45.5035C33.2101 44.4179 32.7789 43.3768 32.0113 42.6092C31.6258 42.2237 31.1712 41.923 30.6767 41.7192C29.8597 41.3825 29.1171 40.6941 29.1171 39.8104L29.1171 29.6151C29.1171 28.7314 29.835 28.0075 30.715 28.0882C34.7672 28.4598 38.5823 30.2364 41.4832 33.1373C44.7629 36.417 46.6055 40.8653 46.6055 45.5035C46.6055 50.1417 44.7629 54.5899 41.4832 57.8696C38.5823 60.7705 34.7672 62.5471 30.715 62.9187C29.835 62.9994 29.1171 62.2755 29.1171 61.3918L29.1171 51.1965C29.1171 50.3128 29.8597 49.6244 30.6767 49.2877C31.1712 49.0839 31.6258 48.7832 32.0113 48.3977C32.7789 47.6301 33.2101 46.589 33.2101 45.5035Z" fill="white"/>
<path fill-rule="evenodd" clip-rule="evenodd" d="M63.7196 45.6901C63.7196 44.5553 64.1704 43.4669 64.9729 42.6644C65.3934 42.2438 65.8925 41.9199 66.4356 41.7068C67.2582 41.384 67.9986 40.6947 67.9986 39.8111L67.9986 29.6157C67.9986 28.7321 67.2807 28.0082 66.4007 28.0881C62.2991 28.4603 58.4368 30.2566 55.5009 33.1924C52.1863 36.507 50.3242 41.0026 50.3242 45.6901C50.3242 50.3777 52.1863 54.8733 55.5009 58.1879C58.4368 61.1237 62.2991 62.92 66.4007 63.2922C67.2807 63.3721 67.9986 62.6482 67.9986 61.7646L67.9986 51.5692C67.9986 50.6856 67.2582 49.9963 66.4356 49.6735C65.8925 49.4604 65.3934 49.1365 64.9729 48.7159C64.1704 47.9134 63.7196 46.825 63.7196 45.6901Z" fill="white"/>
</g>
<defs>
<clipPath id="clip0_102_45">
<rect width="80" height="80" fill="white"/>
</clipPath>
</defs>
</svg>
