<svg width="129" height="30" viewBox="0 0 129 30" fill="none" xmlns="http://www.w3.org/2000/svg">
<path d="M36.4699 21.3742C36.0983 21.3742 35.8112 21.2778 35.6085 21.0851C35.4171 20.881 35.3214 20.5919 35.3214 20.2178V10.5409C35.3214 10.1667 35.4171 9.88329 35.6085 9.69055C35.8112 9.48646 36.0983 9.38442 36.4699 9.38442H40.5231C41.3563 9.38442 42.0656 9.50914 42.651 9.75857C43.2365 10.008 43.6812 10.3651 43.9852 10.83C44.3005 11.2949 44.4581 11.8504 44.4581 12.4967C44.4581 13.2223 44.2498 13.8345 43.8332 14.3334C43.4166 14.8323 42.8481 15.1667 42.1275 15.3368V15.0817C42.9607 15.2064 43.608 15.5239 44.0697 16.0341C44.5313 16.5443 44.7621 17.2076 44.7621 18.0239C44.7621 19.0896 44.4018 19.9173 43.6812 20.5069C42.9719 21.0851 41.9811 21.3742 40.7089 21.3742H36.4699ZM37.3987 19.7246H40.4386C41.2043 19.7246 41.7672 19.5772 42.1275 19.2824C42.4878 18.9763 42.6679 18.5227 42.6679 17.9218C42.6679 17.3096 42.4878 16.8561 42.1275 16.5613C41.7672 16.2665 41.2043 16.1191 40.4386 16.1191H37.3987V19.7246ZM37.3987 14.4695H40.1515C40.8946 14.4695 41.4463 14.3277 41.8066 14.0443C42.1782 13.7495 42.3639 13.3187 42.3639 12.7518C42.3639 12.1849 42.1782 11.7597 41.8066 11.4763C41.4463 11.1815 40.8946 11.0341 40.1515 11.0341H37.3987V14.4695Z" fill="#232323"/>
<path d="M48.8403 24.5715C48.5926 24.5715 48.3899 24.5035 48.2323 24.3674C48.0746 24.2427 47.9789 24.0726 47.9452 23.8572C47.9227 23.6418 47.9621 23.415 48.0634 23.1769L49.2118 20.6089V21.4933L46.1381 14.3334C46.0368 14.084 46.003 13.8515 46.0368 13.6361C46.0706 13.4207 46.1719 13.2506 46.3408 13.1259C46.5209 12.9899 46.763 12.9218 47.067 12.9218C47.3259 12.9218 47.5342 12.9842 47.6918 13.1089C47.8495 13.2223 47.9902 13.4434 48.1141 13.7722L50.394 19.5035H49.8873L52.218 13.7552C52.3418 13.4377 52.4882 13.2223 52.6571 13.1089C52.8259 12.9842 53.0511 12.9218 53.3326 12.9218C53.5803 12.9218 53.7773 12.9899 53.9237 13.1259C54.0701 13.2506 54.1601 13.4207 54.1939 13.6361C54.2277 13.8402 54.1883 14.067 54.0757 14.3164L49.9718 23.7552C49.8254 24.0726 49.6678 24.2881 49.4989 24.4014C49.33 24.5148 49.1105 24.5715 48.8403 24.5715Z" fill="#232323"/>
<path d="M59.666 21.5443C58.9342 21.5443 58.3206 21.4196 57.8252 21.1701C57.341 20.9207 56.9808 20.5579 56.7443 20.0817C56.5079 19.5942 56.3897 18.9933 56.3897 18.279V14.6565H55.5115C55.2412 14.6565 55.033 14.5885 54.8866 14.4525C54.7402 14.3051 54.667 14.1066 54.667 13.8572C54.667 13.5964 54.7402 13.398 54.8866 13.262C55.033 13.1259 55.2412 13.0579 55.5115 13.0579H56.3897V11.5103C56.3897 11.1588 56.4797 10.8924 56.6599 10.711C56.8513 10.5295 57.1159 10.4388 57.4536 10.4388C57.7914 10.4388 58.0504 10.5295 58.2305 10.711C58.4107 10.8924 58.5007 11.1588 58.5007 11.5103V13.0579H60.2909C60.5611 13.0579 60.7694 13.1259 60.9158 13.262C61.0621 13.398 61.1353 13.5964 61.1353 13.8572C61.1353 14.1066 61.0621 14.3051 60.9158 14.4525C60.7694 14.5885 60.5611 14.6565 60.2909 14.6565H58.5007V18.1599C58.5007 18.7042 58.6189 19.1123 58.8554 19.3844C59.0918 19.6565 59.4746 19.7926 60.0038 19.7926C60.1952 19.7926 60.3641 19.7756 60.5104 19.7416C60.6568 19.7076 60.7863 19.6849 60.8989 19.6735C61.034 19.6622 61.1466 19.7076 61.2367 19.8096C61.3267 19.9003 61.3718 20.093 61.3718 20.3878C61.3718 20.6146 61.3324 20.8187 61.2535 21.0001C61.186 21.1701 61.0565 21.2892 60.8651 21.3572C60.7187 21.4026 60.5273 21.4422 60.2909 21.4763C60.0545 21.5216 59.8462 21.5443 59.666 21.5443Z" fill="#232323"/>
<path d="M66.3523 21.5443C65.4178 21.5443 64.6128 21.3686 63.9372 21.0171C63.2617 20.6656 62.7381 20.1667 62.3666 19.5205C62.0063 18.8742 61.8262 18.1089 61.8262 17.2246C61.8262 16.3629 62.0007 15.6089 62.3497 14.9627C62.71 14.3164 63.1998 13.8119 63.819 13.449C64.4495 13.0749 65.1645 12.8878 65.9638 12.8878C66.5493 12.8878 67.0728 12.9842 67.5345 13.1769C68.0073 13.3697 68.407 13.6475 68.7335 14.0103C69.0713 14.3731 69.3246 14.8153 69.4935 15.3368C69.6737 15.847 69.7637 16.4252 69.7637 17.0715C69.7637 17.2756 69.6906 17.4343 69.5442 17.5477C69.4091 17.6497 69.2121 17.7008 68.9531 17.7008H63.5319V16.4763H68.2776L68.0073 16.7314C68.0073 16.2098 67.9285 15.7733 67.7709 15.4218C67.6245 15.0704 67.405 14.8039 67.1123 14.6225C66.8308 14.4298 66.4761 14.3334 66.0483 14.3334C65.5754 14.3334 65.1701 14.4468 64.8323 14.6735C64.5058 14.889 64.2525 15.2007 64.0723 15.6089C63.9034 16.0057 63.819 16.4819 63.819 17.0375V17.1565C63.819 18.0862 64.0329 18.7835 64.4608 19.2484C64.8999 19.7019 65.5416 19.9286 66.386 19.9286C66.6788 19.9286 67.0053 19.8946 67.3656 19.8266C67.7371 19.7472 68.0862 19.6168 68.4127 19.4354C68.6491 19.2994 68.8574 19.2427 69.0375 19.2654C69.2177 19.2767 69.3584 19.3391 69.4597 19.4525C69.5723 19.5658 69.6399 19.7076 69.6624 19.8776C69.6849 20.0364 69.6512 20.2008 69.5611 20.3708C69.4823 20.5409 69.3415 20.6883 69.1389 20.813C68.7448 21.0624 68.2888 21.2495 67.7709 21.3742C67.2642 21.4876 66.7914 21.5443 66.3523 21.5443Z" fill="#232323"/>
<path d="M81.7626 21.5443C80.5241 21.5443 79.4601 21.2949 78.5707 20.796C77.6925 20.2858 77.0169 19.5715 76.5441 18.6531C76.0712 17.7234 75.8348 16.6293 75.8348 15.3708C75.8348 14.4298 75.9699 13.5851 76.2401 12.8368C76.5103 12.0772 76.8987 11.4309 77.4054 10.898C77.912 10.3538 78.5313 9.93998 79.2631 9.65653C80.0062 9.36175 80.8394 9.21436 81.7626 9.21436C82.3818 9.21436 82.9898 9.29372 83.5866 9.45245C84.1833 9.61118 84.7068 9.83794 85.1572 10.1327C85.3936 10.2801 85.5512 10.4615 85.6301 10.6769C85.7089 10.881 85.7258 11.0851 85.6807 11.2892C85.6357 11.4819 85.54 11.6463 85.3936 11.7824C85.2585 11.9184 85.084 11.9978 84.8701 12.0205C84.6674 12.0318 84.4422 11.9581 84.1945 11.7994C83.8455 11.5726 83.4683 11.4082 83.063 11.3062C82.6577 11.2042 82.2467 11.1531 81.8302 11.1531C81.0308 11.1531 80.3552 11.3175 79.8035 11.6463C79.2518 11.9751 78.8353 12.4513 78.5538 13.0749C78.2723 13.6985 78.1316 14.4638 78.1316 15.3708C78.1316 16.2665 78.2723 17.0318 78.5538 17.6667C78.8353 18.3017 79.2518 18.7835 79.8035 19.1123C80.3552 19.4411 81.0308 19.6055 81.8302 19.6055C82.258 19.6055 82.6802 19.5545 83.0968 19.4525C83.5134 19.3391 83.9074 19.169 84.279 18.9422C84.5267 18.7949 84.7462 18.7325 84.9376 18.7552C85.1403 18.7665 85.3092 18.8345 85.4443 18.9593C85.5794 19.084 85.6695 19.2427 85.7145 19.4354C85.7595 19.6168 85.7483 19.8096 85.6807 20.0137C85.6132 20.2064 85.4781 20.3765 85.2754 20.5239C84.825 20.8527 84.2846 21.1078 83.6541 21.2892C83.0349 21.4593 82.4044 21.5443 81.7626 21.5443Z" fill="#232323"/>
<path d="M90.3198 21.5443C89.3853 21.5443 88.6816 21.2778 88.2087 20.745C87.7358 20.2008 87.4994 19.4071 87.4994 18.364V10.3198C87.4994 9.96832 87.5895 9.70188 87.7696 9.52048C87.9498 9.33907 88.2087 9.24837 88.5465 9.24837C88.8843 9.24837 89.1432 9.33907 89.3233 9.52048C89.5148 9.70188 89.6105 9.96832 89.6105 10.3198V18.262C89.6105 18.7835 89.7174 19.169 89.9313 19.4184C90.1565 19.6679 90.4718 19.7926 90.8771 19.7926C90.9672 19.7926 91.0516 19.7926 91.1304 19.7926C91.2092 19.7812 91.288 19.7699 91.3669 19.7586C91.5245 19.7359 91.6314 19.7812 91.6877 19.8946C91.744 19.9967 91.7722 20.2121 91.7722 20.5409C91.7722 20.8243 91.7159 21.0454 91.6033 21.2042C91.4907 21.3629 91.3049 21.4593 91.046 21.4933C90.9334 21.5046 90.8152 21.5159 90.6913 21.5273C90.5675 21.5386 90.4436 21.5443 90.3198 21.5443Z" fill="#232323"/>
<path d="M96.5762 21.5443C95.7205 21.5443 94.9774 21.3686 94.3469 21.0171C93.7164 20.6656 93.2266 20.1667 92.8776 19.5205C92.5285 18.8629 92.354 18.0919 92.354 17.2076C92.354 16.5386 92.4497 15.9434 92.6411 15.4218C92.8438 14.889 93.1309 14.4354 93.5025 14.0613C93.874 13.6758 94.3187 13.3867 94.8366 13.1939C95.3546 12.9899 95.9344 12.8878 96.5762 12.8878C97.4318 12.8878 98.1749 13.0636 98.8054 13.415C99.4359 13.7665 99.9257 14.2654 100.275 14.9116C100.624 15.5579 100.798 16.3232 100.798 17.2076C100.798 17.8765 100.697 18.4774 100.494 19.0103C100.303 19.5432 100.021 20.0023 99.6499 20.3878C99.2783 20.762 98.8336 21.0511 98.3157 21.2552C97.7978 21.4479 97.2179 21.5443 96.5762 21.5443ZM96.5762 19.9286C96.9927 19.9286 97.3587 19.8266 97.6739 19.6225C97.9892 19.4184 98.2312 19.118 98.4001 18.7212C98.5802 18.313 98.6703 17.8085 98.6703 17.2076C98.6703 16.3005 98.4789 15.6259 98.0961 15.1837C97.7133 14.7302 97.2067 14.5035 96.5762 14.5035C96.1596 14.5035 95.7937 14.6055 95.4784 14.8096C95.1632 15.0023 94.9155 15.3028 94.7353 15.711C94.5664 16.1078 94.482 16.6066 94.482 17.2076C94.482 18.1032 94.6734 18.7835 95.0562 19.2484C95.439 19.7019 95.9457 19.9286 96.5762 19.9286Z" fill="#232323"/>
<path d="M105.53 21.5443C104.843 21.5443 104.275 21.4196 103.824 21.1701C103.374 20.9094 103.036 20.5239 102.811 20.0137C102.597 19.5035 102.49 18.8686 102.49 18.1089V13.9933C102.49 13.6305 102.58 13.364 102.76 13.1939C102.94 13.0125 103.199 12.9218 103.537 12.9218C103.875 12.9218 104.134 13.0125 104.314 13.1939C104.505 13.364 104.601 13.6305 104.601 13.9933V18.1429C104.601 18.7325 104.719 19.169 104.956 19.4525C105.192 19.7359 105.569 19.8776 106.087 19.8776C106.65 19.8776 107.112 19.6849 107.472 19.2994C107.832 18.9026 108.013 18.381 108.013 17.7348V13.9933C108.013 13.6305 108.103 13.364 108.283 13.1939C108.463 13.0125 108.722 12.9218 109.06 12.9218C109.397 12.9218 109.656 13.0125 109.837 13.1939C110.028 13.364 110.124 13.6305 110.124 13.9933V20.4218C110.124 21.1475 109.78 21.5103 109.093 21.5103C108.767 21.5103 108.514 21.4196 108.333 21.2382C108.153 21.0454 108.063 20.7733 108.063 20.4218V19.1293L108.3 19.6395C108.063 20.2518 107.703 20.7223 107.219 21.0511C106.746 21.3799 106.183 21.5443 105.53 21.5443Z" fill="#232323"/>
<path d="M115.496 21.5443C114.775 21.5443 114.139 21.3686 113.587 21.0171C113.047 20.6656 112.625 20.1667 112.321 19.5205C112.017 18.8629 111.865 18.0919 111.865 17.2076C111.865 16.3119 112.017 15.5466 112.321 14.9116C112.625 14.2654 113.047 13.7665 113.587 13.415C114.139 13.0636 114.775 12.8878 115.496 12.8878C116.183 12.8878 116.779 13.0579 117.286 13.398C117.804 13.7382 118.153 14.186 118.333 14.7416H118.147V10.3198C118.147 9.96832 118.237 9.70188 118.418 9.52048C118.598 9.33907 118.857 9.24837 119.194 9.24837C119.532 9.24837 119.791 9.33907 119.971 9.52048C120.163 9.70188 120.258 9.96832 120.258 10.3198V20.4218C120.258 20.7733 120.168 21.0454 119.988 21.2382C119.808 21.4196 119.549 21.5103 119.211 21.5103C118.874 21.5103 118.615 21.4196 118.434 21.2382C118.254 21.0454 118.164 20.7733 118.164 20.4218V19.0953L118.35 19.6055C118.181 20.1951 117.838 20.6656 117.32 21.0171C116.802 21.3686 116.194 21.5443 115.496 21.5443ZM116.087 19.9286C116.504 19.9286 116.869 19.8266 117.185 19.6225C117.5 19.4184 117.742 19.118 117.911 18.7212C118.091 18.313 118.181 17.8085 118.181 17.2076C118.181 16.3005 117.99 15.6259 117.607 15.1837C117.224 14.7302 116.717 14.5035 116.087 14.5035C115.67 14.5035 115.304 14.6055 114.989 14.8096C114.674 15.0023 114.426 15.3028 114.246 15.711C114.077 16.1078 113.993 16.6066 113.993 17.2076C113.993 18.1032 114.184 18.7835 114.567 19.2484C114.95 19.7019 115.456 19.9286 116.087 19.9286Z" fill="#232323"/>
<path d="M125.47 21.5443C124.986 21.5443 124.474 21.4933 123.933 21.3912C123.393 21.2892 122.909 21.1134 122.481 20.864C122.301 20.7506 122.171 20.6203 122.093 20.4729C122.025 20.3141 121.997 20.1611 122.008 20.0137C122.031 19.8549 122.087 19.7189 122.177 19.6055C122.278 19.4921 122.402 19.4184 122.549 19.3844C122.706 19.3504 122.875 19.3788 123.055 19.4695C123.506 19.6849 123.928 19.8379 124.322 19.9286C124.716 20.008 125.104 20.0477 125.487 20.0477C126.028 20.0477 126.427 19.957 126.686 19.7756C126.957 19.5828 127.092 19.3334 127.092 19.0273C127.092 18.7665 127.002 18.5681 126.821 18.432C126.653 18.2846 126.394 18.1769 126.045 18.1089L124.356 17.7858C123.658 17.6497 123.123 17.3946 122.751 17.0205C122.391 16.635 122.211 16.1418 122.211 15.5409C122.211 14.9967 122.357 14.5261 122.65 14.1293C122.954 13.7325 123.371 13.4264 123.9 13.211C124.429 12.9955 125.037 12.8878 125.724 12.8878C126.219 12.8878 126.681 12.9445 127.109 13.0579C127.548 13.1599 127.97 13.3243 128.375 13.5511C128.544 13.6418 128.657 13.7608 128.713 13.9082C128.78 14.0556 128.797 14.2087 128.764 14.3674C128.73 14.5148 128.662 14.6509 128.561 14.7756C128.46 14.889 128.33 14.9627 128.172 14.9967C128.026 15.0193 127.857 14.9853 127.666 14.8946C127.317 14.7132 126.979 14.5828 126.653 14.5035C126.337 14.4241 126.033 14.3844 125.741 14.3844C125.189 14.3844 124.778 14.4808 124.508 14.6735C124.249 14.8663 124.119 15.1214 124.119 15.4388C124.119 15.6769 124.198 15.8754 124.356 16.0341C124.513 16.1928 124.755 16.3005 125.082 16.3572L126.771 16.6803C127.503 16.8164 128.054 17.0658 128.426 17.4286C128.809 17.7915 129 18.279 129 18.8912C129 19.7189 128.679 20.3708 128.037 20.847C127.396 21.3119 126.54 21.5443 125.47 21.5443Z" fill="#232323"/>
<path d="M0 4.79143C0 2.1452 2.1452 0 4.79143 0H25.155C27.8012 0 29.9464 2.1452 29.9464 4.79143V25.155C29.9464 27.8012 27.8012 29.9464 25.155 29.9464H4.79143C2.1452 29.9464 0 27.8012 0 25.155V4.79143Z" fill="#232323"/>
<path d="M9.50745 21.1326C9.50745 22.5173 8.38496 23.6398 7.00031 23.6398C5.61565 23.6398 4.49316 22.5173 4.49316 21.1326C4.49316 19.748 5.61565 18.6255 7.00031 18.6255C8.38496 18.6255 9.50745 19.748 9.50745 21.1326Z" fill="#FF9900"/>
<path d="M4.49316 6.82793C4.49316 6.49715 4.76131 6.229 5.09209 6.229H8.90852C9.2393 6.229 9.50745 6.49715 9.50745 6.82793V12.6741C9.50745 15.1917 7.46657 17.2326 4.94901 17.2326C4.69725 17.2326 4.49316 17.0285 4.49316 16.7767V6.82793Z" fill="white"/>
<path fill-rule="evenodd" clip-rule="evenodd" d="M12.4335 17.0936C12.4335 16.6873 12.272 16.2976 11.9847 16.0102C11.8404 15.8659 11.6702 15.7534 11.4851 15.6771C11.1793 15.551 10.9013 15.2933 10.9013 14.9626L10.9013 11.1461C10.9013 10.8154 11.1701 10.5444 11.4995 10.5746C13.0163 10.7137 14.4444 11.3787 15.5304 12.4646C16.758 13.6923 17.4478 15.3574 17.4478 17.0936C17.4478 18.8299 16.758 20.495 15.5303 21.7227C14.4444 22.8086 13.0163 23.4736 11.4995 23.6127C11.1701 23.6429 10.9013 23.3719 10.9013 23.0411L10.9013 19.2247C10.9013 18.8939 11.1793 18.6362 11.4851 18.5102C11.6702 18.4339 11.8404 18.3213 11.9847 18.177C12.272 17.8897 12.4335 17.5 12.4335 17.0936Z" fill="white"/>
<path fill-rule="evenodd" clip-rule="evenodd" d="M23.8538 17.1625C23.8538 16.7377 24.0226 16.3303 24.3229 16.0299C24.4804 15.8725 24.6672 15.7512 24.8705 15.6714C25.1784 15.5506 25.4556 15.2926 25.4556 14.9618L25.4556 11.1454C25.4556 10.8146 25.1868 10.5437 24.8574 10.5735C23.3221 10.7129 21.8763 11.3853 20.7773 12.4843C19.5366 13.725 18.8395 15.4079 18.8395 17.1625C18.8395 18.9172 19.5366 20.6001 20.7773 21.8408C21.8763 22.9398 23.3221 23.6122 24.8574 23.7515C25.1868 23.7814 25.4556 23.5105 25.4556 23.1797L25.4556 19.3633C25.4556 19.0325 25.1784 18.7745 24.8705 18.6536C24.6672 18.5739 24.4804 18.4526 24.3229 18.2952C24.0226 17.9948 23.8538 17.5874 23.8538 17.1625Z" fill="white"/>
</svg>
