<svg width="23" height="31" viewBox="0 0 23 31" fill="none" xmlns="http://www.w3.org/2000/svg">
<g clip-path="url(#clip0_6_11)">
<path d="M10.0805 30.225C6.95391 26.3379 0 16.9168 0 11.625C0 5.20461 5.14865 0 11.5 0C17.849 0 23 5.20461 23 11.625C23 16.9168 15.9922 26.3379 12.9195 30.225C12.1828 31.1514 10.8172 31.1514 10.0805 30.225V30.225ZM11.5 15.5C13.6143 15.5 15.3333 13.7623 15.3333 11.625C15.3333 9.48769 13.6143 7.75 11.5 7.75C9.38568 7.75 7.66667 9.48769 7.66667 11.625C7.66667 13.7623 9.38568 15.5 11.5 15.5Z" fill="#F16A21"/>
<g clip-path="url(#clip1_6_11)" filter="url(#filter0_d_6_11)">
<path d="M5 6.24C5 5.00288 6.00288 4 7.24 4H16.76C17.9971 4 19 5.00288 19 6.24V15.76C19 16.9971 17.9971 18 16.76 18H7.24C6.00288 18 5 16.9971 5 15.76V6.24Z" fill="white"/>
<path d="M9.44419 13.8515C9.44419 14.4989 8.91943 15.0236 8.2721 15.0236C7.62477 15.0236 7.10001 14.4989 7.10001 13.8515C7.10001 13.2042 7.62477 12.6795 8.2721 12.6795C8.91943 12.6795 9.44419 13.2042 9.44419 13.8515Z" fill="#FF9900"/>
<path d="M7.10001 7.164C7.10001 7.00936 7.22537 6.884 7.38001 6.884H9.16419C9.31883 6.884 9.44419 7.00936 9.44419 7.164V9.89711C9.44419 11.0741 8.49008 12.0282 7.31311 12.0282V12.0282C7.19542 12.0282 7.10001 11.9328 7.10001 11.8151V7.164Z" fill="#232323"/>
<path fill-rule="evenodd" clip-rule="evenodd" d="M10.8114 11.963C10.8114 11.773 10.7359 11.5908 10.6016 11.4565C10.5341 11.389 10.4546 11.3364 10.368 11.3007C10.225 11.2418 10.0951 11.1213 10.0951 10.9667L10.0951 9.1825C10.0951 9.02786 10.2207 8.90117 10.3747 8.91529C11.0838 8.98033 11.7515 9.29123 12.2592 9.79889C12.8331 10.3728 13.1555 11.1513 13.1555 11.963C13.1555 12.7747 12.8331 13.5531 12.2592 14.127C11.7515 14.6347 11.0838 14.9456 10.3747 15.0106C10.2207 15.0248 10.0951 14.8981 10.0951 14.7434L10.0951 12.9592C10.0951 12.8046 10.225 12.6841 10.368 12.6252C10.4546 12.5895 10.5341 12.5369 10.6016 12.4694C10.7359 12.3351 10.8114 12.1529 10.8114 11.963Z" fill="#232323"/>
<path fill-rule="evenodd" clip-rule="evenodd" d="M16.1511 11.9956C16.1511 11.797 16.23 11.6066 16.3704 11.4661C16.444 11.3925 16.5313 11.3358 16.6264 11.2985C16.7703 11.2421 16.8999 11.1214 16.8999 10.9668L16.8999 9.18261C16.8999 9.02797 16.7743 8.9013 16.6203 8.91527C15.9025 8.98041 15.2266 9.29477 14.7128 9.80854C14.1327 10.3886 13.8069 11.1753 13.8069 11.9956C13.8069 12.816 14.1327 13.6027 14.7128 14.1827C15.2266 14.6965 15.9025 15.0109 16.6203 15.076C16.7743 15.09 16.8999 14.9633 16.8999 14.8087L16.8999 13.0245C16.8999 12.8698 16.7703 12.7492 16.6264 12.6927C16.5313 12.6554 16.444 12.5987 16.3704 12.5251C16.23 12.3847 16.1511 12.1942 16.1511 11.9956Z" fill="#232323"/>
</g>
</g>
<defs>
<filter id="filter0_d_6_11" x="-2" y="-2" width="34" height="34" filterUnits="userSpaceOnUse" color-interpolation-filters="sRGB">
<feFlood flood-opacity="0" result="BackgroundImageFix"/>
<feColorMatrix in="SourceAlpha" type="matrix" values="0 0 0 0 0 0 0 0 0 0 0 0 0 0 0 0 0 0 127 0" result="hardAlpha"/>
<feOffset dx="3" dy="4"/>
<feGaussianBlur stdDeviation="5"/>
<feComposite in2="hardAlpha" operator="out"/>
<feColorMatrix type="matrix" values="0 0 0 0 0.95 0 0 0 0 0.95 0 0 0 0 0.95 0 0 0 0.25 0"/>
<feBlend mode="normal" in2="BackgroundImageFix" result="effect1_dropShadow_6_11"/>
<feBlend mode="normal" in="SourceGraphic" in2="effect1_dropShadow_6_11" result="shape"/>
</filter>
<clipPath id="clip0_6_11">
<rect width="23" height="31" fill="white"/>
</clipPath>
<clipPath id="clip1_6_11">
<rect width="14" height="14" fill="white" transform="translate(5 4)"/>
</clipPath>
</defs>
</svg>
