<svg xmlns="http://www.w3.org/2000/svg" viewBox="0 0 193.95 106.27"><defs><style>.cls-1{fill:#FE8C5C;}</style></defs><g id="Слой_2" data-name="Слой 2"><g id="Слой_1-2" data-name="Слой 1"><path class="cls-1" d="M111.15,106.27a252.61,252.61,0,0,1-37.37-2.94C39.39,98.17,16.62,87,6.08,70.22-2.22,57,.14,44.72.87,41.82,1.52,36.64,8,6.45,70.34,1c4.17-.73,44.07-6.81,67.15,22.21,13-1.34,28-.41,40.13,7.1,14.51,9,19.59,24.27,14.29,42.88a31,31,0,0,1-14.64,18.67C166.59,97.9,145.54,106.27,111.15,106.27Zm-27.9-95.2a70.19,70.19,0,0,0-11.18.81l-.54.07C41.41,14.54,26.7,23.1,19.67,29.83,12.44,36.75,11.81,43,11.78,43.22l0,.73-.19.51c-.1.35-2.71,9.67,4,20.17C24.28,78.27,45,87.89,75.41,92.45c53.92,8.08,83.58-2.89,96.46-10.15a20.12,20.12,0,0,0,9.46-12.1c3.94-13.87.74-24.14-9.53-30.53-7.89-4.91-17.75-6.24-27.2-5.91A5.5,5.5,0,0,1,135,38.94L132.36,35a118.22,118.22,0,0,0-21,5.55,5.5,5.5,0,1,1-4-10.23,119.71,119.71,0,0,1,17.21-5C111.7,13.32,94.41,11.07,83.25,11.07Z"/></g></g></svg>