<?xml version="1.0" standalone="no"?>
<!DOCTYPE svg PUBLIC "-//W3C//DTD SVG 1.1//EN" "http://www.w3.org/Graphics/SVG/1.1/DTD/svg11.dtd">
<svg xmlns="http://www.w3.org/2000/svg">
<metadata>Copyright (C) 2022 by original authors @ fontello.com</metadata>
<defs>
<font id="icon" horiz-adv-x="1000" >
<font-face font-family="icon" font-weight="400" font-stretch="normal" units-per-em="1000" ascent="850" descent="-150" />
<missing-glyph horiz-adv-x="1000" />
<glyph glyph-name="plus" unicode="&#xe800;" d="M550 400q30 0 30-50t-30-50l-210 0 0-210q0-30-50-30t-50 30l0 210-210 0q-30 0-30 50t30 50l210 0 0 210q0 30 50 30t50-30l0-210 210 0z" horiz-adv-x="580" />

<glyph glyph-name="minus" unicode="&#xe801;" d="M550 400q30 0 30-50t-30-50l-520 0q-30 0-30 50t30 50l520 0z" horiz-adv-x="580" />

<glyph glyph-name="action-off" unicode="&#xe802;" d="M479 808c17 0 29-8 38-20l125-242 279-38c17-4 29-16 37-33 5-17 0-33-12-42l-200-187 46-263c4-16-4-33-17-41-12-9-29-13-42-5l-250 126-250-126c-12-8-29-4-41 5-13 8-21 25-17 41l46 263-204 187c-13 13-17 30-13 42 9 17 21 29 38 29l279 38 125 241c4 17 21 25 33 25z m0-133l-96-187c-4-13-16-21-29-21l-216-34 154-141c8-9 16-25 12-38l-37-204 196 96c12 4 25 4 37 0l196-96-38 204c-4 13 5 29 13 38l154 141-212 30c-13 0-25 8-34 20l-100 192z" horiz-adv-x="1000" />

<glyph glyph-name="angle-down" unicode="&#xe803;" d="M0 850h1575l-775-1000-800 1000z" horiz-adv-x="1575" />

<glyph glyph-name="ar" unicode="&#xe804;" d="M450 820l390-390-80-70-260 270v-730h-100v730l-260-270-80 80 390 380z" horiz-adv-x="900" />

<glyph glyph-name="back" unicode="&#xe805;" d="M769 427h-446l204 204c15 15 15 38 0 54-15 15-38 15-54 0l-269-270c-4-3-8-7-8-11-4-8-4-19 0-31 4-4 4-8 8-11l269-270c16-15 39-15 54 0s15 39 0 54l-204 204h446c23 0 39 15 39 39s-16 38-39 38z" horiz-adv-x="1000" />

<glyph glyph-name="chrome-1" unicode="&#xe806;" d="M921 533c0 0 0 0 0 0-71 163-233 275-421 275-150 0-283-70-367-183 0 0-4-4-4-4-54-79-87-171-87-271 0-233 175-429 404-454 0 0 0 0 4 0 17 0 33-4 50-4 254 0 458 204 458 458 0 67-12 125-37 183z m-421 192c129 0 246-67 313-167h-313c-87 0-158-54-192-125l-91 159c66 83 171 133 283 133z m125-375c0-71-54-125-125-125s-125 54-125 125 54 125 125 125 125-54 125-125z m-500 0c0 58 13 117 38 167l154-271c0 0 0 0 4-4 37-59 104-100 179-100 8 0 17 0 25 4l-96-163c-171 30-304 184-304 367z m400-375l154 271c0 0 0 4 0 4 17 29 25 63 25 100 0 46-16 92-41 125h187c13-37 21-79 21-125 4-200-150-363-346-375z" horiz-adv-x="1000" />

<glyph glyph-name="clock-1" unicode="&#xe807;" d="M500 808c-254 0-458-204-458-458 0-254 204-458 458-458 254 0 458 204 458 458 0 254-204 458-458 458z m0-833c-208 0-375 167-375 375s167 375 375 375 375-167 375-375-167-375-375-375z m183 329l-141 71v225c0 25-17 42-42 42s-42-17-42-42v-250c0-17 9-29 25-37l167-84c21-8 46 0 54 17s0 46-21 58z" horiz-adv-x="1000" />

<glyph glyph-name="close" unicode="&#xe808;" d="M733 642l-233-233-233 233-59-59 233-233-233-233 59-59 233 233 233-233 59 59-233 233 233 233-59 59z" horiz-adv-x="1000" />

<glyph glyph-name="facebook" unicode="&#xe809;" d="M469 306l31 175h-169v113c0 50 25 94 94 94h75v150c6 0-62 12-125 12-137 0-225-81-225-237v-132h-150v-175h150v-419h181v419l138 0z" horiz-adv-x="563" />

<glyph glyph-name="favorite" unicode="&#xe80a;" d="M709 628l62-192h202l-163-119 62-192-163 119-164-119 63 192-164 119h202l63 192z" horiz-adv-x="1444" />

<glyph glyph-name="filtr" unicode="&#xe80b;" d="M5 820c10 20 25 30 45 30h1000c20 0 35-10 45-30 10-20 5-40-5-55l-390-455v-410c0-15-10-35-25-45-15-10-35-10-50 0l-200 100c-15 10-25 25-25 45v310l-390 460c-10 15-15 35-5 50z m155-70l330-390c5-10 10-20 10-35v-295l100-50v345c0 10 5 25 10 30l330 395h-780z m-155 70c10 20 25 30 45 30h1000c20 0 35-10 45-30 10-20 5-40-5-55l-390-455v-410c0-15-10-35-25-45-15-10-35-10-50 0l-200 100c-15 10-25 25-25 45v310l-390 460c-10 15-15 35-5 50z m155-70l330-390c5-10 10-20 10-35v-295l100-50v345c0 10 5 25 10 30l330 395h-780z" horiz-adv-x="1100" />

<glyph glyph-name="group-311" unicode="&#xe80c;" d="M0 788c0 37 25 62 63 62h1125c37 0 62-25 62-62 0-38-25-63-62-63h-1125c-38 0-63 25-63 63z m0-438c0 38 25 63 63 63h1125c37 0 62-25 62-63s-25-62-62-62h-1125c-38 0-63 25-63 62z m0-438c0 38 25 63 63 63h1125c37 0 62-25 62-63s-25-62-62-62h-1125c-38 0-63 25-63 62z" horiz-adv-x="1250" />

<glyph glyph-name="group-325" unicode="&#xe80d;" d="M494 783c6 0 12-3 12-9l124-251 276-40c6 0 9-6 12-9 3-6 0-12-3-15l-200-194 49-276c0-6 0-12-6-15-6-3-12-3-16 0l-248 131-248-131c-7-3-13-3-16 0-6 3-6 9-6 15l49 273-200 194c-3 3-6 9-3 15 3 6 6 9 12 9l276 40 124 251c3 9 6 12 12 12z m0-51l-115-230c-3-3-6-6-12-10l-252-36 185-179c3-3 3-9 3-12l-42-254 227 121c3 3 9 3 15 0l227-121-42 254c0 6 0 9 3 12l185 179-255 36c-6 0-9 4-12 10l-115 230z" horiz-adv-x="1000" />

<glyph glyph-name="group-531" unicode="&#xe80e;" d="M0 767c0 50 33 83 83 83h1000c50 0 84-33 84-83l0 0c0-50-34-84-84-84h-1000c-50 0-83 34-83 84l0 0z m0-417c0 50 33 83 83 83h1584c50 0 83-33 83-83l0 0c0-50-33-83-83-83h-1584c-50 0-83 33-83 83l0 0z m583-417c0 50 34 84 84 84h1000c50 0 83-34 83-84l0 0c0-50-33-83-83-83h-1000c-50 0-84 33-84 83l0 0z" horiz-adv-x="1750" />

<glyph glyph-name="group-533" unicode="&#xe80f;" d="M304-63c0 48 40 87 87 87 48 0 87-39 87-87s-39-87-87-87c-47 0-87 39-87 87z m479 0c0 48 39 87 87 87s87-39 87-87-40-87-87-87-87 39-87 87z m-783 870c0 26 17 43 44 43h173c22 0 40-13 44-35l35-182h704c13 0 26-5 35-18 9-8 9-21 9-35l-70-365c-4-30-22-56-48-78-22-17-52-30-82-30h-422c-31 0-61 8-83 30-22 17-39 48-48 78 0 0 0 0 0 0l-74 365c0 0 0 5 0 5l-34 178h-139c-27 0-44 17-44 44z m313-261l61-313c0-9 9-18 17-26 9-5 18-9 31-9l0 0h422l0 0c8 0 21 4 26 9 8 4 13 17 17 26l61 313h-635z" horiz-adv-x="1043" />

<glyph glyph-name="group-540" unicode="&#xe810;" d="M1048 850h-891c-86 0-157-71-157-157v-667c0-86 71-157 157-157h891c85 0 157 71 157 157v667c0 86-72 157-157 157z m-891-95h891c28 0 52-19 57-43l-505-352-500 352c10 24 33 43 57 43z m891-796h-891c-33 0-62 29-62 62v577l481-338c15-10 38-10 53 0l481 338v-577c0-33-29-62-62-62z" horiz-adv-x="1238" />

<glyph glyph-name="group-541" unicode="&#xe811;" d="M72 169c46 46 109 72 174 72h406c66 0 128-26 174-72 47-46 73-109 73-174v-102c0-24-20-43-44-43-24 0-43 19-43 43v102c0 42-17 83-47 113-30 30-70 46-113 46h-406c-42 0-82-16-112-46-30-30-47-71-47-113v-102c0-24-19-43-43-43-24 0-44 19-44 43v102c0 65 26 128 72 174z m377 594c-88 0-159-71-159-159 0-88 71-160 159-160 88 0 160 72 160 160 0 88-72 159-160 159z m-246-159c0 136 110 246 246 246 136 0 247-110 247-246 0-136-111-247-247-247-136 0-246 111-246 247z" horiz-adv-x="913" />

<glyph glyph-name="home-off" unicode="&#xe812;" d="M900 525l-354 275c-17 13-38 13-50 0l-354-275c-13-8-17-21-17-33v-434c0-33 13-62 33-83 21-21 55-33 84-33h550c33 0 62 12 83 33 21 21 33 54 33 83v434c9 12 5 25-8 33z m-304-504h-154v308h154v-308z m237 37c0-8-4-20-12-25-8-8-17-12-25-12h-117v350c0 25-16 42-41 42h-234c-25 0-41-17-41-42v-350h-117c-8 0-21 4-25 12-8 5-13 17-13 25v413l313 242 312-242v-413z" horiz-adv-x="1000" />

<glyph glyph-name="ins" unicode="&#xe813;" d="M300 850c53 0 65 0 194 0 130 0 147 0 194 0s83-12 118-23c29-12 59-30 82-53 24-24 41-53 53-83 12-29 18-64 24-117 0-53 0-65 0-195 0-129 0-147 0-194 0-53-12-82-24-117-12-30-29-59-53-83-23-23-53-41-82-53-29-11-65-17-118-23-53 0-64 0-194 0-129 0-147 0-194 0-53 0-82 12-118 23-29 12-58 30-82 53-23 24-41 53-53 83-12 29-18 64-23 117 0 53 0 65 0 194 0 130 0 148 0 195 0 53 11 82 23 117 12 30 30 59 53 83 24 23 53 41 82 53 30 11 65 17 118 23l0 0z m388-88c-53 0-64 0-194 0-129 0-141 0-194 0-47 0-71-12-88-18-18-6-35-17-53-35-18-12-30-35-35-53-6-18-12-41-18-88 0-53 0-65 0-194 0-130 0-142 0-195 0-47 12-70 18-88 5-17 17-41 35-53 18-11 35-23 53-35 17-6 41-12 88-18 53 0 65 0 194 0 130 0 141 0 194 0 47 0 71 12 89 18 23 6 35 18 52 35 18 18 30 36 36 53 6 18 12 41 17 88 0 53 0 65 0 195 0 129 0 141 0 194 0 47-11 70-17 88-6 23-18 35-36 53-17 18-35 29-52 35-18 6-48 18-89 18l0 0z m-253-535c36-12 71-18 106-6 36 11 65 35 88 64 18 36 24 71 24 106-6 36-18 71-47 94-18 18-35 30-59 36-23 11-47 17-70 11-24 0-42-11-65-23-18-12-35-24-47-47-18-18-24-41-30-65-6-23 0-47 6-70 6-24 18-42 36-59 17-18 35-30 58-41z m-111 323c23 24 47 41 76 53 29 12 59 18 94 18 30 0 65-6 94-18 30-12 59-29 77-53 23-23 41-53 53-82 11-30 17-59 17-94 0-30-6-65-17-95-12-29-30-58-53-76-47-47-106-71-171-71-65 0-129 24-170 71-47 47-71 106-71 171 0 64 24 129 71 176l0 0z m470 35c6 6 12 12 12 18 6 6 6 12 6 24 0 5 0 17-6 23 0 6-6 12-12 18-6 6-12 6-17 11-6 0-18 6-24 6-6 0-18 0-24-6-5-5-11-5-17-11-12-12-18-24-18-41 0-18 6-30 18-42 12-11 23-17 41-17 12 0 29 6 41 17l0 0z" horiz-adv-x="1000" />

<glyph glyph-name="map-pin-1" unicode="&#xe814;" d="M500 767c-87 0-175-34-237-96-63-63-96-150-96-238 0-129 83-254 175-350 46-45 91-87 125-112 12-9 25-17 33-25 8 8 21 16 33 25 34 29 80 67 125 112 92 96 175 221 175 350 0 88-33 175-95 238-63 62-150 96-238 96z m0-875c-25-34-25-34-25-34l0 0 0 0 0 0c0 0 0 0-4 4-4 0-8 5-13 9-12 8-25 21-45 33-38 29-84 71-134 121-91 100-196 246-196 408 0 113 46 217 121 296 79 75 184 121 296 121 113 0 217-46 296-121 75-79 121-183 121-296 0-162-104-308-200-408-46-50-96-92-134-121-16-12-33-25-45-33-5-4-9-9-13-9 0 0-4 0-4-4l0 0 0 0 0 0c4 0 4 0-21 34z m0 0l25-34c-12-8-33-8-46 0l21 34z m0 625c-46 0-83-38-83-84 0-45 37-83 83-83s83 38 83 83c0 46-37 84-83 84z m-167-84c0 92 75 167 167 167 92 0 167-75 167-167 0-91-75-166-167-166-92 0-167 75-167 166z" horiz-adv-x="1000" />

<glyph glyph-name="newsoff" unicode="&#xe815;" d="M879 729c-21 25-54 38-87 38h-584c-33 0-66-13-87-38-25-21-38-54-38-87v-584c0-33 13-66 38-87 21-25 54-38 87-38h584c33 0 66 13 87 38 25 21 38 54 38 87v584c0 33-13 66-38 87z m-421-712h-250c-12 0-20 4-29 12-8 9-12 17-12 29v584c0 12 4 21 12 29 9 8 17 12 29 12h250v-666z m375 41c0-12-4-20-12-29s-17-12-29-12h-250v666h250c12 0 21-4 29-12s12-17 12-29v-584z" horiz-adv-x="1000" />

<glyph glyph-name="percent" unicode="&#xe816;" d="M500 800c-250 0-450-200-450-450s200-450 450-450 450 200 450 450-200 450-450 450z m0-833c-212 0-383 171-383 383 0 213 171 383 383 383 213 0 383-170 383-383 0-212-170-383-383-383z m-104 433c54 0 96 42 96 96s-42 96-96 96-96-42-96-96 42-96 96-96z m0 125c17 0 29-12 29-29s-12-29-29-29-29 12-29 29 12 29 29 29z m250-225c-54 0-96-42-96-96s42-96 96-96 96 42 96 96-42 96-96 96z m0-125c-17 0-29 13-29 29s12 29 29 29 29-12 29-29-12-29-29-29z m67 342c-13 12-34 16-46 4l-354-292c-13-12-17-33-5-46 13-12 34-16 46-4l354 292c13 12 17 33 5 46z" horiz-adv-x="1000" />

<glyph glyph-name="swipe-close" unicode="&#xe817;" d="M500 843c-272 0-493-221-493-493 0-272 221-493 495-493s491 221 491 493c0 272-221 493-493 493z m0-949c-252 0-457 204-457 456 0 252 203 457 457 457 252 0 456-203 456-457 0-252-204-456-456-456z m139 595c-7 7-19 7-26 0l-111-111-111 111c-8 7-19 7-26 0-8-7-8-19 0-26l111-111-111-111c-8-8-8-19 0-26s18-8 26 0l111 111 111-111c7-8 19-8 26 0 7 7 7 18 0 26l-111 111 111 111c5 6 5 19 0 26z" horiz-adv-x="1000" />

<glyph glyph-name="swipe-star" unicode="&#xe818;" d="M500 806c-252 0-456-204-456-456s204-457 456-457 457 203 457 457-205 456-457 456z m-493-456c0 272 221 493 493 493s494-221 494-493-222-494-494-494-493 222-493 494z m493 213c7 0 13-4 17-9l61-121 137-18c7-2 13-6 15-13 2-8 0-15-6-19l-100-92 24-132c2-7-2-15-7-18-6-4-13-6-19-2l-122 63-124-63c-6-4-13-2-19 2-5 3-9 11-7 18l24 132-100 92c-5 6-7 13-5 19 1 7 7 11 14 13l137 18 62 121c5 5 11 9 18 9z m0-59l-50-97c-2-5-7-9-15-9l-109-15 78-72c3-4 7-11 5-17l-18-103 98 50c5 2 11 2 17 0l98-50-19 103c-2 6 2 13 6 17l78 72-110 15c-5 0-11 4-15 9l-44 97z" horiz-adv-x="1000" />

<glyph glyph-name="swipe-heart" unicode="&#xe819;" d="M685 496c-11 13-26 23-41 28-14 8-31 11-48 11-16 0-33-3-48-9-15-7-29-17-41-28l-7-9-7 7c-24 24-56 39-89 39s-65-15-89-39c-24-24-37-57-37-92 0-35 13-67 37-93l172-179c4-4 7-6 13-6s9 2 13 6l172 181c11 13 21 26 28 43 6 14 9 31 9 50 0 16-3 33-9 50-6 14-15 29-28 40z m-7-127c-4-12-11-23-19-30l-159-167-159 165c-17 19-26 43-26 69 0 24 9 48 26 66 16 17 39 28 63 28s46-9 63-28l20-22c4-4 7-6 13-6s9 2 13 6l20 22c8 10 19 15 30 21 11 3 22 7 33 7 11 0 23-2 34-7 11-4 20-11 29-21 8-9 15-18 19-29 4-11 7-24 7-36 0-14-2-27-7-38z m-178 481c-276 0-500-224-500-500 0-276 224-500 500-500s500 224 500 500c0 276-224 500-500 500z m0-963c-256 0-463 207-463 463 0 256 207 463 463 463 256 0 463-207 463-463 0-256-207-463-463-463z" horiz-adv-x="1000" />

<glyph glyph-name="tg" unicode="&#xe81a;" d="M733 532c-6-78-37-264-53-351-7-38-20-49-33-51-23-2-40 11-58 24-5 5-11 9-16 12-22 15-37 26-55 37-16 11-31 23-51 36-40 27-23 44 0 67 4 4 6 6 11 11 2 2 9 9 22 20 36 35 107 102 109 111 0 2 0 6-2 9-3 2-7 2-9 0-5 0-71-47-200-138-18-13-36-20-51-20-18 0-49 9-74 18l-11 4c-24 9-42 13-40 29 0 9 14 18 36 27 138 62 229 102 275 122 131 55 158 67 176 67 7 0 13-3 18-7 4-2 6-9 6-13 0 0 0-7 0-14z" horiz-adv-x="956" />

<glyph glyph-name="tw" unicode="&#xe81b;" d="M1214 707c-43-21-85-28-135-36 50 29 85 79 107 129-50-29-100-50-150-57-36 36-86 64-136 71-50 7-107 0-150-28-50-22-93-65-114-107s-22-100-15-158c-92 8-185 29-271 72-86 43-157 107-214 178-22-35-36-71-36-121 0-36 7-79 29-114 21-36 42-65 78-86-36 0-71 14-107 29v0c0-58 21-108 57-150s86-72 136-86c-36-7-79-7-107 0 14-50 43-86 85-122 43-28 86-42 136-50-86-64-186-100-293-100-21 0-35 0-57 0 107-71 236-107 364-107 436 0 679 365 679 679 0 7 0 21 0 28 43 43 79 86 114 136l0 0 0 0z" horiz-adv-x="1214" />

<glyph glyph-name="union" unicode="&#xe81c;" d="M517 850l121-375h395l-320-233 120-375-320 233-321-233 121 375-313 233h396l121 375z" horiz-adv-x="1042" />

<glyph glyph-name="vector-(stroke)" unicode="&#xe81d;" d="M42 808c56 56 146 56 202 0l613-613 613 613c56 56 147 56 202 0 56-56 56-146 0-202l-714-714c-56-56-146-56-202 0l-714 714c-56 56-56 146 0 202z" horiz-adv-x="1714" />

<glyph glyph-name="user-1" unicode="&#xe81e;" d="M188 204c37 42 91 63 145 63h334c54 0 108-21 146-63 37-37 62-91 62-146v-83c0-25-17-42-42-42s-41 17-41 42v83c0 34-13 67-38 88-21 25-54 37-87 37h-334c-33 0-66-12-87-37-25-21-38-54-38-88v-83c0-25-16-42-41-42s-42 17-42 42v83c0 55 21 109 63 146z m312 479c-71 0-125-54-125-125s54-125 125-125 125 55 125 125-54 125-125 125z m-208-125c0 117 91 209 208 209 117 0 208-92 208-209s-91-208-208-208c-117 0-208 92-208 208z" horiz-adv-x="1000" />

<glyph glyph-name="vector-(stroke)-1" unicode="&#xe81f;" d="M43-107c57-57 143-57 200 0l614 614 614-614c58-57 143-57 200 0 58 57 58 143 0 200l-714 714c-57 57-143 57-200 0l-714-714c-57-57-57-143 0-200z" horiz-adv-x="1714" />

<glyph glyph-name="vector" unicode="&#xe820;" d="M939 227c-20 23-50 38-81 42-39 4-81 16-119 31-24 8-47 12-74 4-23-4-46-15-65-35l-31-34c-88 54-161 127-215 215l35 35c15 19 30 38 34 61 4 23 4 50-4 73-15 39-23 77-30 120-4 30-20 61-43 80-23 20-50 31-84 31h-135c-15 0-35-4-50-11s-31-16-42-31c-12-12-23-27-27-46-8-16-8-35-8-50 15-147 65-285 142-408 73-112 170-212 281-281 119-77 262-127 404-142 4 0 8 0 12 0 15 0 26 4 42 7 15 8 31 16 46 27 12 12 23 27 31 43 7 15 11 34 11 50v134c0 31-11 62-30 85z m-47-85v-134c0-8 0-16-3-20-4-7-8-11-12-15-4-4-12-8-19-12-8-3-16-3-19-3-131 15-258 61-370 131-104 65-192 153-257 257-73 112-120 239-135 369 0 8 0 16 4 20 4 7 8 11 11 19 4 4 12 8 16 11 7 8 11 8 19 8h135c0 0 0 0 0 0 11 0 23-4 34-11 12-8 16-20 19-31 4-46 16-92 31-135 4-7 4-19 4-27-4-11-8-23-15-27l-54-57c-12-12-16-31-8-46 66-120 166-216 285-285 15-8 34-8 46 8l58 57c7 8 15 12 27 16 11 4 19 0 30-4 43-16 89-27 135-35 11 0 23-7 31-19 4-8 7-23 7-35 0 0 0 0 0 0z" horiz-adv-x="1000" />

<glyph glyph-name="wp" unicode="&#xe821;" d="M829 715c-41 41-94 76-152 100-59 23-118 35-183 35-259 0-470-212-470-471 0-82 23-164 64-235l-64-241 247 65c70-36 147-59 223-59h0c259 0 471 212 471 470 0 65-12 124-36 183-23 53-58 106-100 153l0 0z m-335-724c-70 0-141 18-200 53l-12 6-147-41 42 147-12 18c-41 64-59 135-59 205 0 218 176 389 388 389 53 0 100-12 147-30 47-17 88-47 130-82 35-35 64-77 82-129 18-48 29-100 29-148 0-217-170-388-388-388l0 0z m212 288c-12 6-71 36-82 42-12 6-18 6-24-6-6-12-29-41-35-47-6-6-12-6-24 0-12 6-53 17-94 53-35 35-59 70-65 82-5 12 0 18 6 24 6 5 12 11 18 17 0 12 6 18 6 24 6 6 0 17 0 17 0 12-24 71-35 89-12 23-18 23-24 23-6 0-12 0-24 0-5 0-11 0-17-6-6 0-12-6-18-6-6-11-41-41-41-100s41-111 47-123c6-6 82-124 200-177 29-11 47-17 65-23 29-12 53-6 76-6 24 6 71 29 77 59 11 29 11 53 6 59 5 0-6 0-18 5l0 0z" horiz-adv-x="1000" />

<glyph glyph-name="eye-off" unicode="&#xe822;" d="M0 326q6 49 64 110 79 80 176 128 129 61 260 61 29 0 59-2l74 129q10 16 23 18 4 0 8-2l51-32q17-7 2-33l-57-101-47-79-41-72-144-250-41-72-47-80-57-100q-15-25-31-15l-53 31q-15 8 0 33l49 86-8 4q-103 53-176 129-64 72-64 109z m264 0q0-74 47-133l48 84q-9 24-9 49 0 51 34 91t85 50l49 84-18 0q-98 0-167-66t-69-159z m177-295l41 71 18 0q98 0 167 65t69 159q0 74-47 133l63 109q2-2 4-3t4-1q103-52 176-128 64-73 64-110-6-49-64-109-79-80-176-129-129-61-260-61-25 0-59 4z m90 155l110 189q9-25 9-49 0-51-34-90t-85-50z" horiz-adv-x="1000" />

<glyph glyph-name="eye" unicode="&#xe823;" d="M0 350q6 49 64 110 79 80 176 129 129 60 260 60 137-2 260-60 103-53 176-129 64-73 64-110-6-49-64-109-79-80-176-129-129-61-260-61-137 2-260 61-103 53-176 129-64 72-64 109z m264 0q0-94 69-159t167-65 167 65 69 159-69 159-167 66-167-66-69-159z m86 1q0 60 44 102t106 42 106-42 44-102-44-102-106-43-106 43-44 102z" horiz-adv-x="1000" />

<glyph glyph-name="doc-inv" unicode="&#xf15b;" d="M571 564v264q13-8 21-16l227-228q8-7 16-20h-264z m-71-18q0-22 16-37t38-16h303v-589q0-23-15-38t-38-16h-750q-23 0-38 16t-16 38v892q0 23 16 38t38 16h446v-304z" horiz-adv-x="857.1" />
</font>
</defs>
</svg>
