<svg width="72" height="52" viewBox="0 0 72 52" fill="none" xmlns="http://www.w3.org/2000/svg">
<g clip-path="url(#clip0)">
<path d="M11.187 41.4276C11.187 39.8974 11.187 38.8568 11.1771 38.3428C11.1483 37.8288 11.1096 37.5372 11.0412 37.4427C10.9728 37.3482 10.7892 37.2887 10.4697 37.2383C10.2654 37.2095 10.1691 37.124 10.1691 37.016C10.1691 36.926 10.188 36.8621 10.2753 36.8504C10.3428 36.8216 10.566 36.8018 10.9539 36.8018H13.0788L13.05 42.4664L13.0014 45.9887C13.0014 46.5288 13.059 46.8808 13.1544 47.0167C13.2498 47.1526 13.4649 47.2489 13.7943 47.2867C13.9887 47.3155 14.085 47.384 14.085 47.51C14.085 47.663 13.9887 47.7332 13.7745 47.7332H11.1861V46.6386C10.9922 47.0092 10.7088 47.3255 10.3617 47.5586C10.012 47.7637 9.61226 47.8678 9.20697 47.8592C8.8031 47.8647 8.40274 47.7836 8.03292 47.6211C7.66309 47.4587 7.3324 47.2188 7.06317 46.9177C6.45207 46.2777 6.13257 45.4576 6.13257 44.4675C6.13257 43.3711 6.49257 42.4691 7.19907 41.767C7.88937 41.0586 8.68407 40.6994 9.53907 40.6994C9.849 40.7012 10.1552 40.7668 10.4387 40.8921C10.7222 41.0174 10.9769 41.1997 11.187 41.4276ZM8.29527 44.2316C8.29527 45.2407 8.43117 45.9878 8.69307 46.4631C8.97477 46.9285 9.30417 47.1715 9.72177 47.1715C10.1196 47.1715 10.4688 46.9483 10.7496 46.5018C11.0304 46.0553 11.1762 45.2308 11.1762 44.066C11.1762 43.0956 11.0502 42.3881 10.8162 41.9056C10.5822 41.4231 10.215 41.1855 9.72987 41.1855C9.24477 41.1855 8.88657 41.4285 8.64987 41.9425C8.41317 42.4565 8.28987 43.2235 8.28987 44.2325L8.29527 44.2316Z" fill="#59595B"/>
<path d="M66.9168 41.6897C67.1704 41.3899 67.4801 41.1426 67.8285 40.9614C68.1485 40.8036 68.5003 40.7205 68.8572 40.7184C69.6042 40.7184 70.3134 41.0389 70.9911 41.7086C71.6508 42.3603 72 43.2037 72 44.229C72.0057 45.1636 71.6432 46.0629 70.9911 46.7323C70.3215 47.4407 69.534 47.79 68.6241 47.79C68.3019 47.7931 67.9811 47.7473 67.6728 47.6541C67.3661 47.5505 67.0731 47.4106 66.7998 47.2373C66.7998 49.3518 66.8583 50.6039 66.9744 50.9621C67.0905 51.3204 67.401 51.5022 67.9158 51.5157C68.1102 51.5247 68.1858 51.6057 68.1858 51.7381C68.1858 51.8704 68.0598 51.9424 67.8168 51.9424C67.671 51.9424 67.4568 51.9424 67.1481 51.9325C66.537 51.8938 65.9835 51.865 65.5281 51.865C65.2077 51.865 64.8378 51.874 64.3932 51.9136C64.17 51.9325 64.0332 51.9424 63.9558 51.9424C63.6939 51.9424 63.549 51.8749 63.549 51.739C63.549 51.603 63.6939 51.5256 64.0044 51.5058C64.4895 51.4572 64.7802 51.1566 64.8774 50.6138C64.9746 50.071 65.0133 48.2077 65.0133 45.0157L64.98 42.4179C64.98 41.9129 64.9116 41.5835 64.7856 41.4475C64.7128 41.3648 64.6232 41.2986 64.5228 41.2535C64.4223 41.2083 64.3134 41.1851 64.2033 41.1856C64.0098 41.1559 63.8928 41.0884 63.8928 40.9425C63.8928 40.7967 64.0197 40.7193 64.242 40.7193C65.1834 40.7193 66.0762 40.6995 66.9195 40.6518L66.9294 41.4565C66.9294 41.4862 66.9195 41.5718 66.9195 41.6897H66.9168ZM69.7428 44.5035C69.7428 43.5332 69.6069 42.7861 69.3162 42.2622C69.0345 41.7221 68.6646 41.4565 68.2101 41.4565C67.7349 41.4565 67.3857 41.7383 67.1526 42.3C66.9006 42.8725 66.7926 43.7267 66.7926 44.8807C66.7926 45.7809 66.8997 46.4038 67.1418 46.7341C67.365 47.0834 67.7241 47.2481 68.2218 47.2481C68.7357 47.2481 69.1137 47.0249 69.3756 46.5577C69.6186 46.1022 69.7446 45.4226 69.7446 44.5008L69.7428 44.5035Z" fill="#59595B"/>
<path d="M58.904 40.8165C58.9337 41.3566 58.9427 42.1073 58.9427 43.0669C58.9427 44.4937 58.9625 45.4253 58.9913 45.8232C59.0201 46.2211 59.1173 46.5127 59.2919 46.7233C59.3718 46.8152 59.4699 46.8894 59.5801 46.9412C59.6903 46.993 59.8101 47.0212 59.9318 47.024C60.2345 47.0117 60.5246 46.8989 60.7562 46.7035C61.0459 46.5098 61.2694 46.2322 61.397 45.9078C61.5428 45.5684 61.6103 45.0157 61.6103 44.2596L61.6202 42.4935C61.6202 42.0272 61.5905 41.7176 61.5428 41.5736C61.4951 41.4295 61.3205 41.3305 61.0289 41.3305C60.7094 41.3017 60.5537 41.2243 60.5537 41.0884C60.5483 41.049 60.5569 41.009 60.5779 40.9753C60.599 40.9416 60.6312 40.9163 60.6689 40.9038C60.8723 40.884 61.0667 40.8741 61.2701 40.8741C62.0072 40.8741 62.6966 40.8453 63.3401 40.8165C63.3689 41.0299 63.3887 42.1668 63.3887 44.2317C63.3887 45.8799 63.3986 46.7926 63.4274 46.9484C63.4562 47.1041 63.6308 47.1806 63.9413 47.2103C64.1348 47.2391 64.2113 47.3075 64.2113 47.4426C64.2113 47.5965 64.1141 47.6658 63.8909 47.6658H63.6974C63.5516 47.6568 63.3869 47.6568 63.1727 47.6568H62.0099C61.9357 47.6643 61.8612 47.6673 61.7867 47.6658C61.6895 47.6658 61.622 47.6568 61.5923 47.6073C61.5733 47.5085 61.5636 47.4081 61.5635 47.3075C61.5631 47.0284 61.5827 46.7495 61.622 46.4731C61.2949 46.8714 60.9008 47.2096 60.4574 47.4723C60.0683 47.6875 59.6312 47.8008 59.1866 47.8017C57.8282 47.8017 57.1493 47.045 57.1499 45.5315V43.0687C57.1499 42.2055 57.1211 41.7104 57.0527 41.5547C56.9942 41.4187 56.8295 41.3224 56.5676 41.2927C56.3255 41.2549 56.2184 41.1865 56.2184 41.0893C56.2184 40.9362 56.3156 40.866 56.519 40.866C57.9455 40.866 58.7429 40.8462 58.9058 40.8174L58.904 40.8165Z" fill="#59595B"/>
<path d="M56.6631 44.067C56.6631 45.0473 56.295 45.9105 55.5669 46.6864C54.8298 47.4336 53.8983 47.8215 52.7832 47.8215C51.7545 47.8215 50.8815 47.502 50.1831 46.8611C49.4847 46.2202 49.14 45.3677 49.14 44.31C49.14 43.2235 49.5 42.3504 50.2461 41.6807C50.9922 41.011 51.894 40.6815 52.9524 40.6815C54.0486 40.6815 54.9324 41.002 55.62 41.6231C56.3184 42.2631 56.6676 43.0687 56.6676 44.0679L56.6631 44.067ZM54.45 44.6017C54.4617 43.7915 54.3133 42.987 54.0135 42.2343C53.7228 41.5439 53.3061 41.1856 52.7625 41.1856C52.2972 41.1856 51.9192 41.4286 51.6564 41.9147C51.3945 42.4188 51.2685 43.1083 51.2685 44.0004C51.2685 44.9707 51.4224 45.7566 51.7185 46.3777C52.0146 46.9988 52.4088 47.3093 52.9308 47.3093C53.4357 47.3093 53.8236 47.0564 54.0657 46.5613C54.3078 46.0662 54.45 45.4262 54.45 44.6017Z" fill="#59595B"/>
<path d="M45.8181 42.2721C46.0881 41.7383 46.3905 41.3305 46.7379 41.0587C47.0694 40.7982 47.4811 40.6611 47.9025 40.6707C48.3003 40.6707 48.6225 40.7778 48.8727 41.0109C48.9873 41.1255 49.0782 41.2617 49.14 41.4115C49.2017 41.5614 49.2333 41.722 49.2327 41.8841C49.2404 42.1452 49.1465 42.3992 48.9708 42.5925C48.8911 42.684 48.7926 42.7574 48.682 42.8075C48.5715 42.8577 48.4514 42.8835 48.33 42.8833C48.167 42.8924 48.0059 42.8444 47.8746 42.7473C47.713 42.603 47.5812 42.4284 47.4867 42.2333C47.2923 41.8841 47.1267 41.7095 46.9728 41.7095C46.7784 41.7095 46.5552 41.9129 46.3032 42.3009C46.0602 42.7086 45.9342 43.4846 45.9342 44.6296C45.9342 46.0869 45.9927 46.8916 46.0881 47.0555C46.1835 47.2193 46.3887 47.2877 46.7397 47.2877C47.0304 47.2877 47.1663 47.3777 47.1663 47.5397C47.1663 47.6757 47.0304 47.763 46.7397 47.763C46.5057 47.7629 46.2721 47.7433 46.0413 47.7045C45.7836 47.6775 45.5246 47.6649 45.2655 47.6667C44.7408 47.6667 44.2179 47.6955 43.7031 47.7342C43.4799 47.754 43.3539 47.754 43.3152 47.754C43.092 47.754 42.9858 47.664 42.9858 47.5019C42.9858 47.366 43.101 47.2787 43.3737 47.2787C43.6464 47.2787 43.8003 47.2103 43.9074 47.0942C44.0145 46.9781 44.0604 46.7548 44.0604 46.3741L44.0901 44.3856C44.0901 43.9778 44.0703 43.4855 44.0514 42.8716C44.0316 42.804 44.0514 42.4161 44.0028 41.9714C43.9353 41.263 43.857 41.4574 43.5078 41.2513C43.4831 41.2278 43.4642 41.1989 43.4525 41.1669C43.4408 41.1349 43.4366 41.1006 43.4403 41.0668C43.4403 40.9137 43.5762 40.8435 43.8381 40.8435C44.3232 40.8345 44.5851 40.7949 45.7686 40.6689L45.8181 42.2721Z" fill="#59595B"/>
<path d="M40.5 41.389C41.121 40.8363 41.67 40.5546 42.1479 40.5546C42.4272 40.5471 42.6985 40.6481 42.9048 40.8363C43.001 40.9089 43.0791 41.0027 43.133 41.1104C43.1868 41.2182 43.215 41.337 43.2153 41.4574C43.2144 41.6578 43.1382 41.8506 43.002 41.9975C42.9304 42.0745 42.8429 42.1351 42.7457 42.1752C42.6485 42.2153 42.5437 42.2339 42.4386 42.2298C42.1092 42.2298 41.8572 42.0551 41.7015 41.6897C41.6052 41.4565 41.508 41.3296 41.4108 41.3296C41.3136 41.3296 41.0904 41.4556 40.7898 41.7176C41.0566 42.1279 41.2014 42.6055 41.2074 43.0948C41.2079 43.5868 41.055 44.0666 40.77 44.4676C40.4793 44.8843 40.14 45.1877 39.7323 45.3497C39.3156 45.5297 38.7522 45.6603 37.9863 45.7278C37.3551 45.7878 36.9669 45.8847 36.8217 46.0185C36.6867 46.1724 36.5985 46.3192 36.5985 46.5037C36.5985 46.7071 36.7524 46.853 37.0485 46.9205C37.3446 46.988 38.1348 47.0276 39.4353 47.0744C41.4432 47.123 42.4422 47.7945 42.4422 49.034C42.4422 49.8883 42.0642 50.5868 41.3172 51.1593C40.5702 51.712 39.4353 52.0027 37.9224 52.0027C36.7866 52.0027 35.9721 51.838 35.4582 51.5077C34.9443 51.1773 34.7112 50.7794 34.7112 50.3239C34.7095 50.0906 34.764 49.8602 34.8702 49.6524C34.9765 49.4447 35.1312 49.2656 35.3214 49.1303C35.7291 48.8009 36.36 48.538 37.1745 48.3544C36.5535 48.2869 36.0783 48.1609 35.7561 47.9466C35.6085 47.8579 35.4875 47.7309 35.4059 47.5792C35.3243 47.4274 35.2852 47.2564 35.2926 47.0843C35.2913 46.9015 35.3297 46.7206 35.4052 46.5541C35.4807 46.3876 35.5916 46.2396 35.73 46.1202C36.0207 45.8583 36.4671 45.6648 37.0395 45.5288C36.4383 45.3344 35.982 45.0725 35.6814 44.7133C35.3744 44.3407 35.2115 43.8701 35.2224 43.3874C35.2224 42.6114 35.523 41.9615 36.135 41.4277C36.747 40.8939 37.5219 40.6518 38.4237 40.6518C38.8197 40.6449 39.2139 40.7073 39.5883 40.8363C39.9271 40.9539 40.2376 41.1409 40.5 41.3854V41.389ZM37.134 43.0642C37.134 43.7429 37.2402 44.2668 37.4733 44.6458C37.7064 45.0248 37.9782 45.2084 38.2986 45.2084C38.4566 45.2078 38.611 45.1617 38.7435 45.0757C38.8759 44.9896 38.9808 44.8673 39.0456 44.7232C39.2103 44.4027 39.2976 43.9185 39.2976 43.2875C39.2976 42.6087 39.2004 42.065 38.9871 41.6771C38.7927 41.2891 38.5317 41.0956 38.2302 41.0956C37.9107 41.0956 37.6488 41.2603 37.4346 41.6195C37.2204 41.9786 37.1349 42.4539 37.1349 43.0651L37.134 43.0642ZM36.27 50.1196C36.27 50.4797 36.4545 50.7983 36.81 51.0702C37.1655 51.342 37.6632 51.4779 38.3328 51.4779C39.1185 51.4779 39.7782 51.2979 40.302 50.9379C40.8258 50.5778 41.0877 50.1511 41.0877 49.647C41.0877 49.2591 40.8843 48.9566 40.4577 48.7739C39.9458 48.5705 39.3984 48.4713 38.8476 48.4822C38.052 48.4822 37.4292 48.647 36.9747 48.9575C36.4995 49.2582 36.2673 49.6659 36.2673 50.1223L36.27 50.1196Z" fill="#59595B"/>
<path d="M28.871 42.272C29.1329 41.7383 29.4434 41.3305 29.7908 41.0586C30.1194 40.8071 30.5218 40.671 30.9356 40.6716C31.3532 40.6716 31.6727 40.7787 31.9058 41.0118C32.0257 41.1234 32.1213 41.2585 32.1865 41.4088C32.2517 41.5591 32.2851 41.7212 32.2847 41.885C32.2881 42.1454 32.1948 42.3979 32.0228 42.5934C31.9423 42.6841 31.8437 42.7569 31.7333 42.807C31.6229 42.8571 31.5032 42.8834 31.382 42.8841C31.2188 42.8947 31.0573 42.8465 30.9266 42.7482C30.7654 42.6035 30.6337 42.429 30.5387 42.2342C30.3443 41.885 30.1787 41.7103 30.0248 41.7103C29.8304 41.7103 29.6072 41.9138 29.3552 42.3017C29.1131 42.7095 28.9862 43.4854 28.9862 44.6304C28.9862 46.0878 29.0249 46.8925 29.1221 47.0554C29.2193 47.2184 29.4425 47.2886 29.7737 47.2886C30.0653 47.2886 30.2237 47.3786 30.2237 47.5406C30.2237 47.6766 30.0878 47.7639 29.7971 47.7639C29.5631 47.7638 29.3295 47.7442 29.0987 47.7054C28.8377 47.6784 28.5754 47.6658 28.313 47.6675C27.7793 47.6675 27.2744 47.6964 26.7407 47.7351C26.5373 47.7549 26.4014 47.7549 26.3726 47.7549C26.1494 47.7549 26.0324 47.6648 26.0324 47.5028C26.0324 47.3669 26.1593 47.2796 26.4203 47.2796C26.6813 47.2796 26.8577 47.2112 26.954 47.0996C27.0503 46.9879 27.0998 46.7593 27.0998 46.3794L27.1484 44.3901C27.1484 43.9832 27.1295 43.4899 27.0908 42.8769C27.0521 42.2639 27.0323 41.9165 27.0008 41.8094C26.974 41.6842 26.9014 41.5734 26.7974 41.4988C26.672 41.3916 26.5123 41.3332 26.3474 41.3341C26.224 41.336 26.1015 41.3128 25.9874 41.2657C25.9621 41.2448 25.9425 41.2178 25.9305 41.1872C25.9185 41.1567 25.9146 41.1236 25.919 41.091C25.919 40.938 26.0459 40.8678 26.3069 40.8678C26.8019 40.8489 27.6362 40.8003 28.8197 40.6743L28.871 42.272Z" fill="#59595B"/>
<path d="M21.9446 44.0382V44.3676C21.9446 45.1346 22.1192 45.7647 22.4846 46.2985C22.6513 46.5434 22.8765 46.743 23.1397 46.8791C23.4029 47.0152 23.6958 47.0836 23.9921 47.078C24.632 47.078 25.2719 46.7971 25.8929 46.2435C25.9639 46.1662 26.0543 46.1093 26.1548 46.0788C26.3006 46.0788 26.3681 46.1472 26.3681 46.3021C26.3681 46.4092 26.2151 46.6126 25.8929 46.9232C25.5581 47.2362 25.1587 47.4718 24.7229 47.6136C24.2574 47.772 23.7692 47.8538 23.2775 47.8557C22.1975 47.8557 21.356 47.5164 20.726 46.8574C20.1272 46.2237 19.8 45.3808 19.8143 44.5089C19.8143 43.4288 20.1635 42.5196 20.8718 41.7923C21.5801 41.065 22.4432 40.7058 23.5097 40.7058C24.4997 40.7058 25.2467 41.0164 25.7714 41.696C26.2961 42.3756 26.5472 42.9868 26.5472 43.598C26.5472 43.778 26.4986 43.9085 26.4023 43.9275C26.3051 43.9761 25.9649 43.986 25.4123 43.986L21.9446 44.0382ZM22.0031 43.4558C22.7789 43.4558 23.2352 43.4657 23.3612 43.4657C23.9723 43.4657 24.3314 43.427 24.4673 43.3388C24.6032 43.2505 24.6707 43.0777 24.6707 42.8149C24.6813 42.4024 24.5512 41.9985 24.3017 41.6699C24.0398 41.3206 23.7491 41.1559 23.4017 41.1559C22.5863 41.1559 22.1111 41.9318 22.0049 43.4567L22.0031 43.4558Z" fill="#59595B"/>
<path d="M17.6472 45.5414C17.9964 44.8123 18.3168 44.0373 18.6174 43.2226C18.918 42.408 19.0674 41.8832 19.0674 41.6924C19.0674 41.5015 18.9414 41.3521 18.6894 41.2846C18.4563 41.2261 18.3501 41.1316 18.3501 41.0145C18.3501 40.8975 18.4401 40.821 18.6408 40.821H20.6973C20.8719 40.821 20.9493 40.8975 20.9493 41.0433C20.9493 41.1586 20.8431 41.2279 20.6199 41.2666C20.106 41.3566 19.6884 41.8202 19.3599 42.6636C18.972 43.6538 18.612 44.5539 18.2628 45.3812C17.9136 46.2084 17.6517 46.807 17.4582 47.1761C17.4012 47.3177 17.3262 47.4515 17.235 47.574C17.1951 47.6012 17.1474 47.6145 17.0991 47.6118C17.0343 47.6118 16.9668 47.5641 16.8957 47.4668C16.6265 46.9917 16.3899 46.4987 16.1874 45.9915L14.6448 42.3324C14.3838 41.7113 14.4414 41.4889 13.6458 41.3044C13.3164 41.0613 13.7043 40.8777 14.0535 40.8678L16.0335 40.8093C16.3836 40.8003 16.5582 40.8777 16.5582 40.9938C16.5582 41.1397 16.461 41.227 16.2666 41.2558C15.9966 41.2846 15.8499 41.4016 15.8499 41.6437C15.8499 41.7797 16.0731 42.3225 16.5195 43.2928C16.9695 44.2434 17.3538 44.9905 17.6544 45.5432L17.6472 45.5414Z" fill="#59595B"/>
<path d="M3.71876 46.898C3.42823 47.1894 3.09007 47.429 2.71886 47.6064C2.40588 47.7645 2.06057 47.848 1.70996 47.8504C1.16996 47.8504 0.758657 47.6757 0.449957 47.3661C0.159327 47.0365 -0.000728887 46.6119 -4.30899e-05 46.1725C-0.00780775 45.8297 0.0861473 45.4924 0.269957 45.203C0.43292 44.93 0.659196 44.7003 0.929657 44.5333C1.19156 44.3686 1.63796 44.184 2.24906 43.9707C2.74406 43.7862 3.09236 43.6502 3.25796 43.5341C3.44414 43.4297 3.59939 43.2778 3.70796 43.094C3.82752 42.846 3.88732 42.5735 3.88256 42.2982C3.89302 42.0006 3.79731 41.709 3.61256 41.4755C3.44786 41.2522 3.19586 41.155 2.89256 41.155C2.62256 41.155 2.42726 41.2225 2.32016 41.3486C2.18443 41.5451 2.09799 41.7714 2.06816 42.0084C1.94216 42.6196 1.61276 42.9292 1.08806 42.9292C0.88694 42.9302 0.691696 42.8615 0.535457 42.7348C0.453016 42.6677 0.387969 42.5816 0.345826 42.484C0.303682 42.3864 0.285685 42.28 0.293357 42.174C0.293357 41.6699 0.574157 41.2918 1.12676 41.029C1.67936 40.7662 2.34986 40.6509 3.12566 40.6509C3.78536 40.6509 4.32806 40.7482 4.74566 40.9615C5.16326 41.1748 5.42426 41.3882 5.55026 41.6699C5.65736 41.931 5.72486 42.3486 5.72486 42.9112L5.70596 44.7934C5.70596 45.7926 5.74376 46.4335 5.81216 46.7045C5.87066 46.9961 6.01556 47.141 6.22886 47.141C6.27498 47.1443 6.32128 47.1379 6.36476 47.1221C6.46196 47.1221 6.54926 47.1122 6.57896 47.1122C6.79226 47.1122 6.90836 47.1707 6.90836 47.2869C6.90886 47.3318 6.89628 47.3759 6.87214 47.4138C6.84801 47.4516 6.81337 47.4817 6.77246 47.5002C6.67526 47.5587 6.41246 47.6271 5.94806 47.7045C5.54285 47.7917 5.13032 47.8406 4.71596 47.8504C4.35596 47.8504 4.09496 47.7729 3.96896 47.6271C3.84296 47.4813 3.74576 47.2482 3.71696 46.898H3.71876ZM3.83126 43.716C3.68546 43.8699 3.38126 44.076 2.90066 44.3272C2.47406 44.5603 2.16356 44.7637 2.01866 44.9483C1.87376 45.1328 1.79546 45.4046 1.79546 45.7584C1.79546 46.1266 1.87196 46.4182 2.02856 46.6117C2.09606 46.7019 2.18391 46.7748 2.28495 46.8246C2.38599 46.8743 2.49735 46.8995 2.60996 46.898C2.91056 46.898 3.20216 46.7522 3.47306 46.4713C3.74396 46.1905 3.86996 45.6855 3.86996 44.9681C3.86996 44.7448 3.86006 44.3281 3.83126 43.7169V43.716Z" fill="#59595B"/>
<path d="M45.6714 19.1615L45.6039 15.4709C46.9125 15.4223 48.2229 15.3737 49.5324 15.4025C50.7258 15.4412 51.9183 15.5294 53.1702 15.6942C57.0213 16.218 59.5242 18.1858 60.7563 20.6513C61.4036 21.9506 61.707 23.3942 61.6374 24.8442C61.5696 26.3243 61.1437 27.7659 60.3963 29.0452C58.8348 31.7754 55.8 33.9357 51.3459 34.3075C50.3559 34.398 49.3609 34.4205 48.3678 34.375C45.0378 34.2292 42.3243 33.2687 40.3848 31.4837C38.4246 29.6834 37.2411 27.0496 36.9504 23.5669C36.6885 20.5379 36.8919 16.9499 36.8919 13.8551C36.8919 10.7208 37.5327 8.12117 38.6289 6.05442C39.7089 4.03628 41.2389 2.50332 43.0623 1.51406C44.8758 0.495084 46.98 0 49.23 0C52.4115 0 55.3995 0.970364 58.1832 2.45382V6.77455C57.7332 6.85106 57.2913 6.92037 56.8548 6.98878C56.2725 5.15427 55.0116 4.17491 53.1783 3.66992C51.9783 3.34917 50.7221 3.29814 49.5 3.5205C48.2008 3.73431 46.9714 4.25557 45.9144 5.04085C42.4512 7.64049 42.6942 11.2204 42.5961 15.0325C42.4503 19.9231 42.2568 27.2746 44.6436 29.1595C45.972 30.3531 48.1743 31.0319 49.9401 30.8761C52.1127 30.7114 53.7732 29.6348 54.8289 28.1694C55.4885 27.2369 55.9235 26.1645 56.0997 25.0359C56.2903 23.9556 56.19 22.844 55.809 21.8152C55.3041 20.4857 54.2853 19.4001 52.7238 18.8366C51.7824 18.526 50.3568 18.1768 49.0761 18.2443C48.1356 18.283 47.4282 18.526 46.7874 19.2246C46.4184 19.2048 46.0404 19.1858 45.6714 19.157V19.1615Z" fill="#102948"/>
<path d="M29.0249 17.9581L26.9873 18.0553H26.9774C26.4635 18.0643 25.9199 18.0841 25.3772 18.0841C23.3009 18.1138 21.2255 18.1426 19.2851 18.8042C18.5797 19.0356 17.9353 19.4227 17.3997 19.9369C16.8641 20.4511 16.4509 21.0792 16.1909 21.7747C15.8112 22.8005 15.7076 23.908 15.8903 24.9865C16.0659 26.1183 16.5008 27.1941 17.1611 28.1298C17.7269 28.9131 18.4583 29.5623 19.3032 30.031C20.1482 30.4997 21.0859 30.7766 22.0499 30.842C23.0061 30.9091 23.9664 30.7983 24.8822 30.5152C25.7626 30.237 26.5778 29.7839 27.2789 29.183L27.2888 29.1632C29.6072 27.3224 29.402 24.3231 29.1788 20.9367C29.1113 19.9663 29.033 18.9672 29.0258 17.9581H29.0249ZM18.8405 15.6573C20.2085 15.4773 21.5666 15.4773 22.9427 15.4926C24.2423 15.4926 25.5419 15.5025 26.8226 15.3395C27.2159 15.2962 27.6012 15.1984 27.9674 15.0488C28.2494 14.9343 28.5065 14.7662 28.7243 14.5537C28.9171 14.3164 29.0559 14.0399 29.1311 13.7436C29.2403 13.3191 29.2921 12.882 29.285 12.4438C29.285 8.97096 27.9845 6.65127 26.171 5.27404C25.1305 4.48794 23.91 3.97458 22.6205 3.78069C21.3932 3.57741 20.1364 3.64282 18.9368 3.97242C17.036 4.49631 15.6788 5.52518 15.0668 7.4362C14.6303 7.36779 14.1857 7.30028 13.7384 7.23277V2.91204C16.6085 1.36738 19.7225 0.360107 23.0003 0.360107C25.1828 0.360107 27.2492 0.833587 29.0249 1.80035C30.8692 2.81295 32.3738 4.34724 33.3503 6.2111C34.4177 8.23014 35.0288 10.7713 35.0288 13.857V20.7351C35.0486 21.2301 35.0666 21.7252 35.0774 22.2104C35.2232 26.4501 35.3294 30.0318 39.4325 33.3003L40.0247 33.7846L39.2777 33.9106C37.0475 34.3102 35.3978 34.1635 34.1558 33.6198C33.0587 33.1446 32.2829 32.3596 31.7402 31.3884C31.1353 31.9734 30.4534 32.4731 29.7134 32.8736C28.7788 33.3679 27.7747 33.7178 26.7353 33.9115C25.7417 34.0968 24.7374 34.2195 23.7284 34.2787C22.7013 34.35 21.6703 34.3434 20.6441 34.2589C16.2008 33.8809 13.1552 31.7385 11.5937 29.0002C10.859 27.7197 10.4368 26.2837 10.3616 24.8091C10.2977 23.3598 10.6011 21.9178 11.2436 20.6171C12.4658 18.1453 14.9885 16.1857 18.8396 15.6609L18.8405 15.6573Z" fill="#CF3C3A"/>
</g>
<defs>
<clipPath id="clip0">
<rect width="72" height="52" fill="white"/>
</clipPath>
</defs>
</svg>
