<svg width="178" height="43" viewBox="0 0 178 43" fill="none" xmlns="http://www.w3.org/2000/svg">
<path d="M36.3339 20.0092L36.262 16.1604C37.6106 16.1102 38.9592 16.0584 40.3078 16.0889C41.535 16.1299 42.7623 16.2212 44.0539 16.3931C48.0158 16.9408 50.5901 18.9975 51.8578 21.5654C52.5235 22.9217 52.8361 24.4284 52.7659 25.9421C52.6957 27.4878 52.2577 28.9932 51.4892 30.3294C49.8769 33.1803 46.7511 35.4454 42.1719 35.8257C41.1538 35.9218 40.1305 35.9472 39.1091 35.9018C35.6866 35.7497 32.892 34.7472 30.8961 32.8821C28.9002 31.017 27.6625 28.2514 27.3628 24.614C27.093 21.4528 27.3028 17.7045 27.3028 14.4718C27.3028 11.1995 27.9621 8.48408 29.089 6.32541C30.1143 4.32186 31.7016 2.67178 33.6502 1.58363C35.5128 0.517229 37.681 0 39.9961 0C43.2687 0 46.3435 1.01316 49.2071 2.56333V7.07235C48.7485 7.15298 48.2885 7.22447 47.8405 7.29597C47.2411 5.3807 45.945 4.35842 44.0584 3.83054C42.8242 3.49751 41.5327 3.44556 40.2763 3.67841C38.9382 3.90229 37.6723 4.44788 36.5842 5.26965C33.0209 7.98511 33.2711 11.7228 33.1707 15.7055C33.0209 20.8124 32.8216 28.4841 35.2685 30.4618C36.6351 31.7077 38.9008 32.4166 40.7169 32.2553C41.7095 32.193 42.6759 31.9069 43.546 31.418C44.4161 30.9291 45.168 30.2496 45.7472 29.4288C46.4257 28.4551 46.8729 27.3351 47.0538 26.1566C47.2501 25.0283 47.1467 23.8673 46.7541 22.7931C46.4854 22.0681 46.0612 21.4128 45.5123 20.8748C44.9634 20.3367 44.3035 19.9293 43.5804 19.6821C42.6124 19.3581 41.1454 18.993 39.8343 19.0645C38.8663 19.1055 38.1381 19.3581 37.4787 20.0883C37.0996 20.0685 36.71 20.0472 36.3309 20.0168L36.3339 20.0092Z" fill="#102948"/>
<path d="M19.21 18.8272L17.1122 18.9291H17.1017C16.5727 18.9398 16.0138 18.9595 15.4534 18.9595C13.3181 18.99 11.1828 19.0204 9.18691 19.7095C8.46121 19.951 7.79827 20.355 7.2471 20.8916C6.69594 21.4283 6.27066 22.0838 6.00272 22.8098C5.61168 23.8816 5.50522 25.039 5.69404 26.1658C5.87452 27.3477 6.32171 28.4712 7.00068 29.4486C7.58247 30.2676 8.3348 30.9463 9.20419 31.4367C10.0736 31.927 11.0387 32.2169 12.031 32.2858C13.0147 32.3562 14.0029 32.2412 14.9454 31.9465C15.8509 31.6577 16.6893 31.1857 17.4104 30.5592L17.4209 30.5394C19.8064 28.615 19.5966 25.4842 19.3688 21.9473C19.2984 20.9341 19.219 19.8905 19.2085 18.8363L19.21 18.8272ZM8.73138 16.4297C10.1384 16.2365 11.535 16.2365 12.9525 16.2578C14.2891 16.2578 15.6272 16.2684 16.9443 16.095C17.3489 16.0495 17.7453 15.9471 18.1221 15.7907C18.4121 15.6715 18.6763 15.4958 18.8998 15.2735C19.0972 15.0267 19.2403 14.7399 19.3194 14.4323C19.4317 13.9881 19.4856 13.5308 19.4797 13.0722C19.4797 9.44556 18.1431 7.02371 16.276 5.5846C15.2054 4.76371 13.9496 4.22768 12.6228 4.0253C11.3591 3.81303 10.0651 3.88206 8.83028 4.22763C6.8823 4.77528 5.47676 5.8493 4.84892 7.84519L3.48234 7.63221V3.11407C6.44326 1.50305 9.63944 0.456421 13.0124 0.456421C15.2601 0.456421 17.3834 0.952352 19.21 1.96551C21.1068 3.0212 22.6549 4.62138 23.6604 6.56581C24.7587 8.67276 25.3866 11.3274 25.3866 14.5494V21.7328C25.4061 22.25 25.427 22.7657 25.436 23.2723C25.5859 27.6992 25.6953 31.4384 29.9164 34.8522L30.5247 35.3587L29.756 35.4911C27.4604 35.9064 25.7642 35.7543 24.4875 35.1868C23.4257 34.7158 22.5507 33.896 22.0031 32.8593C21.3804 33.4699 20.6787 33.9914 19.9173 34.4095C18.9558 34.9263 17.9226 35.2921 16.8529 35.4941C15.8305 35.6884 14.797 35.817 13.7587 35.879C12.7018 35.9538 11.6408 35.9472 10.585 35.8592C6.01471 35.4637 2.87996 33.2244 1.27363 30.3675C0.516665 29.027 0.0832687 27.5235 0.00894672 25.9802C-0.0572586 24.4663 0.255133 22.9601 0.917003 21.602C2.1742 19.0158 4.7695 16.9712 8.73138 16.4297Z" fill="#CF3C3A"/>
<path d="M79.0771 25.5344C79.0771 23.003 79.0771 21.29 79.0606 20.4397C79.0126 19.5908 78.9497 19.1101 78.8403 18.9503C78.7309 18.7906 78.4298 18.6948 77.9098 18.6141C77.5786 18.5655 77.4213 18.4225 77.4213 18.246C77.4213 18.0939 77.4528 17.9904 77.5951 17.9737C77.706 17.925 78.0686 17.8931 78.6995 17.8931H82.1549L82.1144 27.2473L82.0335 33.0616C82.0335 33.9591 82.1279 34.5357 82.2852 34.7593C82.4426 34.9829 82.7902 35.1442 83.3342 35.2081C83.6503 35.2568 83.8077 35.3678 83.8077 35.5762C83.8077 35.8318 83.6578 35.9444 83.3027 35.9444H79.0756V34.1341C78.7581 34.7474 78.2945 35.2704 77.727 35.6553C77.1587 35.9946 76.5085 36.1663 75.8494 36.1513C75.1948 36.1593 74.5461 36.0251 73.9468 35.7578C73.3475 35.4904 72.8114 35.096 72.3745 34.6011C71.3811 33.5438 70.8596 32.199 70.8596 30.5484C70.8596 28.7381 71.444 27.2488 72.5948 26.0957C73.7231 24.9259 75.0088 24.3402 76.3979 24.3402C76.9022 24.3433 77.4005 24.4516 77.8619 24.6583C78.3233 24.8651 78.7379 25.1658 79.0801 25.542L79.0771 25.5344ZM74.378 30.1712C74.378 31.8446 74.5982 33.0707 75.0253 33.8557C75.4523 34.6406 76.0188 35.0255 76.6976 35.0255C77.3449 35.0255 77.9128 34.6574 78.3698 33.9196C78.8268 33.1818 79.0636 31.8217 79.0636 29.8989C79.0636 28.297 78.8583 27.1271 78.4792 26.3269C78.1001 25.5268 77.5007 25.1419 76.7125 25.1419C75.9244 25.1419 75.34 25.542 74.9609 26.3908C74.5818 27.2397 74.378 28.5054 74.378 30.1712Z" fill="#59595B"/>
<path d="M169.724 25.9664C170.137 25.4719 170.641 25.0638 171.207 24.7646C171.728 24.5044 172.3 24.3676 172.88 24.3645C174.095 24.3645 175.246 24.8924 176.352 25.9984C177.424 27.0724 178 28.4658 178 30.1636C178.007 31.7078 177.415 33.1929 176.352 34.2968C175.262 35.4667 173.986 36.0432 172.502 36.0432C171.978 36.0491 171.457 35.9737 170.956 35.8196C170.456 35.6494 169.979 35.418 169.535 35.1305C169.535 38.6294 169.63 40.6892 169.82 41.281C170.01 41.8727 170.514 42.1785 171.35 42.1937C171.666 42.2104 171.799 42.3458 171.799 42.5619C171.799 42.7779 171.594 42.8981 171.2 42.8981C170.963 42.8981 170.616 42.8981 170.111 42.8813C169.117 42.8174 168.216 42.7687 167.476 42.7687C166.956 42.7687 166.355 42.7855 165.63 42.8494C165.268 42.8813 165.046 42.8981 164.92 42.8981C164.494 42.8981 164.258 42.7855 164.258 42.5619C164.258 42.3382 164.494 42.2089 164.999 42.177C165.787 42.0963 166.261 41.6004 166.42 40.7029C166.579 39.8053 166.64 36.7309 166.64 31.4597L166.577 27.1667C166.577 26.333 166.466 25.7884 166.261 25.5648C166.142 25.4289 165.996 25.3201 165.833 25.2456C165.67 25.1711 165.493 25.1326 165.314 25.1328C164.998 25.0841 164.809 24.973 164.809 24.7327C164.809 24.4923 165.014 24.3645 165.377 24.3645C166.907 24.3645 168.359 24.3326 169.731 24.252L169.748 25.5815C169.748 25.6302 169.731 25.7732 169.731 25.9664H169.724ZM174.323 30.6123C174.323 29.0105 174.102 27.7767 173.629 26.9126C173.179 26.0151 172.571 25.5831 171.831 25.5831C171.058 25.5831 170.482 26.047 170.111 26.9765C169.7 27.9212 169.526 29.3314 169.526 31.2361C169.526 32.7254 169.7 33.7507 170.094 34.2953C170.457 34.8719 171.041 35.1442 171.846 35.1442C172.682 35.1442 173.298 34.776 173.723 34.0063C174.117 33.2533 174.323 32.1321 174.323 30.6108V30.6123Z" fill="#59595B"/>
<path d="M156.69 24.5258C156.738 25.4233 156.753 26.6555 156.753 28.2422C156.753 30.5971 156.785 32.1351 156.833 32.7908C156.881 33.4464 157.038 33.9287 157.321 34.2801C157.451 34.4319 157.611 34.5544 157.79 34.6399C157.97 34.7253 158.165 34.7716 158.363 34.776C158.858 34.7578 159.332 34.5719 159.711 34.2481C160.185 33.9294 160.551 33.4713 160.76 32.9353C160.997 32.3739 161.108 31.4612 161.108 30.2122L161.124 27.2975C161.124 26.5293 161.076 26.0166 160.999 25.7762C160.921 25.5359 160.636 25.3761 160.162 25.3761C159.642 25.3275 159.389 25.1997 159.389 24.976C159.381 24.9109 159.395 24.8449 159.429 24.7893C159.464 24.7337 159.517 24.6922 159.578 24.6718C159.909 24.6398 160.225 24.6231 160.556 24.6231C161.755 24.6231 162.876 24.5744 163.918 24.5273C163.965 24.8802 163.997 26.7544 163.997 30.1666C163.997 32.8896 164.013 34.3957 164.06 34.6513C164.106 34.9068 164.391 35.0361 164.896 35.0833C165.212 35.132 165.338 35.2354 165.338 35.4682C165.338 35.7238 165.188 35.8363 164.818 35.8363H164.502C164.265 35.8196 163.997 35.8196 163.649 35.8196H161.755C161.635 35.8335 161.514 35.8391 161.393 35.8363C161.243 35.8363 161.124 35.8196 161.076 35.7405C161.045 35.5771 161.029 35.4111 161.028 35.2446C161.028 34.7834 161.059 34.3229 161.123 33.8663C160.591 34.5244 159.95 35.083 159.229 35.5169C158.596 35.8726 157.886 36.06 157.163 36.0615C154.954 36.0615 153.849 34.812 153.849 32.3131V28.2407C153.849 26.8153 153.801 25.9983 153.7 25.7412C153.605 25.5176 153.337 25.3564 152.911 25.3092C152.517 25.2453 152.344 25.1327 152.344 24.973C152.344 24.7174 152.493 24.6049 152.832 24.6049C155.152 24.6049 156.445 24.5729 156.713 24.5242L156.69 24.5258Z" fill="#59595B"/>
<path d="M153.046 29.8913C153.046 31.5099 152.447 32.9338 151.263 34.2162C150.064 35.45 148.549 36.0904 146.735 36.0904C145.063 36.0904 143.642 35.5626 142.506 34.5053C141.37 33.448 140.802 32.0378 140.802 30.2929C140.802 28.4993 141.387 27.0572 142.601 25.9512C143.814 24.8453 145.283 24.3007 147.003 24.3007C148.786 24.3007 150.222 24.8285 151.349 25.8539C152.484 26.9188 153.052 28.2407 153.052 29.8913H153.046ZM149.456 30.7721C149.474 29.4347 149.233 28.1068 148.746 26.864C148.272 25.7261 147.593 25.1343 146.711 25.1343C145.962 25.1343 145.338 25.5344 144.913 26.3361C144.487 27.1698 144.282 28.3137 144.282 29.7802C144.282 31.3821 144.534 32.6798 145.007 33.7051C145.481 34.7304 146.128 35.2431 146.979 35.2431C147.8 35.2431 148.431 34.8263 148.825 34.0094C149.219 33.1924 149.456 32.1352 149.456 30.7736V30.7721Z" fill="#59595B"/>
<path d="M135.405 26.9264C135.855 26.0456 136.336 25.3732 136.904 24.9244C137.442 24.4935 138.112 24.267 138.798 24.284C139.445 24.284 139.965 24.4604 140.376 24.8453C140.562 25.0346 140.71 25.2595 140.81 25.507C140.91 25.7546 140.961 26.0198 140.96 26.2875C140.973 26.7188 140.821 27.1384 140.534 27.4573C140.404 27.6094 140.243 27.731 140.062 27.814C139.881 27.8969 139.684 27.9393 139.485 27.938C139.218 27.9549 138.952 27.8758 138.736 27.7144C138.474 27.4756 138.259 27.1873 138.105 26.8655C137.789 26.289 137.521 25.9999 137.269 25.9999C136.953 25.9999 136.59 26.3361 136.18 26.9766C135.786 27.649 135.58 28.9314 135.58 30.8208C135.58 33.2229 135.675 34.5525 135.832 34.8248C135.99 35.0971 136.321 35.2097 136.89 35.2097C137.364 35.2097 137.584 35.3618 137.584 35.6265C137.584 35.8501 137.364 35.9946 136.89 35.9946C136.511 35.9955 136.133 35.9644 135.759 35.9018C135.34 35.8562 134.919 35.8349 134.497 35.8379C133.645 35.8379 132.793 35.8866 131.95 35.9505C131.587 35.9825 131.382 35.9825 131.319 35.9825C130.956 35.9825 130.782 35.8379 130.782 35.5656C130.782 35.342 130.971 35.1975 131.413 35.1975C131.855 35.1975 132.107 35.0849 132.281 34.8932C132.455 34.7016 132.533 34.3319 132.533 33.7082L132.597 30.4253C132.597 29.7529 132.566 28.936 132.534 27.9259C132.503 27.8133 132.534 27.1728 132.455 26.4366C132.344 25.2667 132.218 25.5877 131.65 25.2515C131.609 25.2131 131.578 25.1656 131.559 25.1127C131.54 25.0599 131.533 25.0032 131.539 24.9472C131.539 24.6917 131.759 24.5791 132.187 24.5791C132.975 24.5624 133.402 24.4985 135.333 24.2901L135.405 26.9264Z" fill="#59595B"/>
<path d="M126.759 25.4705C127.769 24.5577 128.668 24.0922 129.441 24.0922C129.894 24.0777 130.335 24.2412 130.672 24.5486C130.828 24.6686 130.955 24.8235 131.042 25.0013C131.13 25.1792 131.176 25.3751 131.177 25.5739C131.177 25.9069 131.052 26.2276 130.829 26.4714C130.713 26.599 130.571 26.6995 130.413 26.766C130.255 26.8324 130.084 26.8632 129.913 26.8563C129.377 26.8563 128.966 26.5673 128.715 25.9588C128.565 25.5739 128.399 25.3655 128.241 25.3655C128.084 25.3655 127.721 25.5739 127.231 26.0059C127.667 26.6855 127.902 27.4771 127.91 28.2878C127.91 29.0974 127.661 29.8868 127.2 30.5469C126.726 31.236 126.175 31.732 125.511 32.0043C124.832 32.3085 123.917 32.517 122.664 32.6295C121.638 32.7249 121.007 32.8851 120.77 33.1102C120.55 33.3658 120.407 33.6062 120.407 33.9104C120.407 34.2466 120.659 34.487 121.133 34.5996C121.606 34.7121 122.899 34.776 125.014 34.8551C128.28 34.9358 129.904 36.0402 129.904 38.0909C129.904 39.5011 129.289 40.6542 128.075 41.5989C126.86 42.5117 125.014 42.9924 122.553 42.9924C120.707 42.9924 119.381 42.7201 118.545 42.1755C117.709 41.6308 117.329 40.9737 117.329 40.2206C117.325 39.834 117.413 39.4521 117.586 39.1076C117.759 38.7631 118.012 38.4664 118.323 38.243C118.985 37.6984 120.012 37.2663 121.336 36.9621C120.326 36.8495 119.553 36.6411 119.033 36.2897C118.793 36.1426 118.597 35.9325 118.465 35.6816C118.334 35.4307 118.271 35.1483 118.284 34.8643C118.282 34.5636 118.345 34.2662 118.468 33.9925C118.59 33.7188 118.77 33.4754 118.994 33.2791C119.468 32.8471 120.193 32.5261 121.125 32.3025C120.147 31.9815 119.405 31.5494 118.916 30.9561C118.415 30.3396 118.149 29.5603 118.167 28.761C118.167 27.48 118.656 26.406 119.651 25.5252C120.646 24.6444 121.907 24.2443 123.374 24.2443C124.018 24.2333 124.659 24.3362 125.268 24.5486C125.82 24.7446 126.325 25.0555 126.752 25.4613L126.759 25.4705ZM121.284 28.2407C121.284 29.3619 121.458 30.2275 121.837 30.8512C122.216 31.4749 122.658 31.7807 123.185 31.7807C123.442 31.7798 123.693 31.7038 123.909 31.5619C124.124 31.42 124.295 31.2182 124.401 30.9805C124.669 30.4526 124.811 29.6509 124.811 28.6103C124.811 27.4892 124.661 26.5916 124.306 25.9512C123.99 25.3107 123.557 24.9897 123.076 24.9897C122.556 24.9897 122.129 25.262 121.783 25.8553C121.437 26.4486 121.294 27.2336 121.294 28.2422L121.284 28.2407ZM119.875 39.8875C119.875 40.4808 120.175 41.0086 120.759 41.4574C121.344 41.9062 122.149 42.1298 123.236 42.1298C124.515 42.1298 125.587 41.8256 126.44 41.2323C127.293 40.639 127.718 39.9346 127.718 39.1025C127.718 38.4621 127.387 37.9646 126.693 37.6603C125.859 37.3253 124.968 37.1619 124.071 37.1796C122.778 37.1796 121.768 37.4519 121.026 37.9646C120.253 38.4605 119.874 39.1345 119.874 39.8875H119.875Z" fill="#59595B"/>
<path d="M107.841 26.9264C108.267 26.0456 108.772 25.3732 109.34 24.9244C109.874 24.5074 110.529 24.2822 111.202 24.2839C111.881 24.2839 112.401 24.4604 112.78 24.8453C112.975 25.0297 113.13 25.2529 113.236 25.5011C113.342 25.7493 113.397 26.017 113.396 26.2874C113.402 26.7175 113.251 27.1346 112.971 27.4573C112.839 27.6083 112.678 27.7293 112.497 27.8122C112.316 27.8951 112.12 27.938 111.922 27.938C111.653 27.958 111.387 27.8786 111.172 27.7144C110.91 27.4756 110.696 27.1873 110.542 26.8655C110.225 26.289 109.957 25.9999 109.705 25.9999C109.389 25.9999 109.027 26.3361 108.616 26.9766C108.222 27.649 108.017 28.9314 108.017 30.8208C108.017 33.2229 108.08 34.5525 108.237 34.8248C108.394 35.0971 108.757 35.2097 109.295 35.2097C109.768 35.2097 110.02 35.3618 110.02 35.6265C110.02 35.8501 109.8 35.9946 109.326 35.9946C108.945 35.9959 108.564 35.9649 108.187 35.9018C107.763 35.8562 107.336 35.8349 106.909 35.8379C106.042 35.8379 105.221 35.8866 104.353 35.9505C104.022 35.9825 103.8 35.9825 103.754 35.9825C103.391 35.9825 103.201 35.8379 103.201 35.5656C103.201 35.342 103.406 35.1975 103.831 35.1975C104.257 35.1975 104.542 35.0849 104.699 34.8932C104.856 34.7016 104.936 34.3319 104.936 33.7082L105.015 30.4238C105.015 29.7514 104.984 28.9344 104.921 27.9243C104.858 26.9142 104.826 26.3392 104.771 26.1627C104.727 25.9561 104.609 25.7735 104.44 25.65C104.238 25.4748 103.981 25.3783 103.715 25.3777C103.514 25.381 103.315 25.3427 103.13 25.2652C103.089 25.2306 103.057 25.1859 103.038 25.1353C103.018 25.0847 103.012 25.0299 103.019 24.9761C103.019 24.7205 103.225 24.608 103.65 24.608C104.455 24.576 105.812 24.4954 107.736 24.287L107.841 26.9264Z" fill="#59595B"/>
<path d="M96.5746 29.8426V30.3872C96.5746 31.6529 96.8593 32.6935 97.4587 33.5819C97.7302 33.984 98.0957 34.3115 98.5225 34.5351C98.9493 34.7586 99.424 34.8712 99.9041 34.8628C100.953 34.8628 101.987 34.4064 102.997 33.4845C103.112 33.3564 103.259 33.2623 103.422 33.2122C103.659 33.2122 103.77 33.3248 103.77 33.5804C103.77 33.7568 103.518 34.093 102.997 34.6057C102.451 35.1247 101.799 35.5152 101.088 35.7497C100.331 36.0107 99.5366 36.1458 98.7369 36.1498C96.9852 36.1498 95.6126 35.5884 94.5877 34.4992C93.614 33.4531 93.0817 32.0621 93.1042 30.623C93.1042 28.8447 93.6721 27.3386 94.8244 26.1384C95.9767 24.9381 97.3718 24.3463 99.116 24.3463C100.725 24.3463 101.941 24.859 102.792 25.9801C103.643 27.1013 104.053 28.1099 104.053 29.12C104.053 29.4243 103.974 29.6327 103.817 29.6646C103.667 29.7453 103.106 29.7605 102.207 29.7605L96.5746 29.8426ZM96.669 28.8812C97.9307 28.8812 98.6724 28.8979 98.8777 28.8979C99.8712 28.8979 100.456 28.834 100.676 28.6895C100.896 28.545 101.007 28.2575 101.007 27.8239C101.025 27.1427 100.814 26.4757 100.408 25.933C99.9821 25.3564 99.5085 25.0841 98.9406 25.0841C97.6145 25.0841 96.8428 26.365 96.669 28.8873V28.8812Z" fill="#59595B"/>
<path d="M89.5857 32.3268C90.1536 31.125 90.6751 29.8441 91.1636 28.4978C91.6521 27.1515 91.8888 26.2874 91.8888 25.9664C91.8888 25.6454 91.6835 25.4051 91.2729 25.294C90.8938 25.1982 90.72 25.0385 90.72 24.8376C90.72 24.6368 90.8699 24.5167 91.1935 24.5167H94.538C94.8227 24.5167 94.9486 24.6444 94.9486 24.8848C94.9486 25.0765 94.7748 25.1891 94.4122 25.253C93.576 25.3975 92.8973 26.1657 92.3608 27.5592C91.73 29.193 91.1456 30.6823 90.5777 32.0439C90.0098 33.4054 89.5842 34.3988 89.268 35.0073C89.1755 35.2413 89.0536 35.4621 88.9054 35.6645C88.8408 35.7095 88.7634 35.7319 88.6851 35.7284C88.5847 35.7284 88.4739 35.6477 88.354 35.488C87.9163 34.704 87.5313 33.8908 87.2017 33.054L84.6933 27.0146C84.2677 25.9892 84.3621 25.6211 83.0675 25.3168C82.531 24.9168 83.1619 24.6125 83.7298 24.5958L86.9484 24.4999C87.5164 24.4832 87.8011 24.6125 87.8011 24.8042C87.8011 25.0445 87.6422 25.1891 87.3275 25.2362C86.878 25.2849 86.6488 25.4766 86.6488 25.8767C86.6488 26.1003 87.0114 26.9978 87.7381 28.5997C88.4634 30.1697 89.0957 31.4034 89.5842 32.3162L89.5857 32.3268Z" fill="#59595B"/>
<path d="M66.9277 34.5692C66.4553 35.0509 65.9049 35.4466 65.3004 35.739C64.789 36.0005 64.2247 36.1375 63.6521 36.1391C62.7681 36.1391 62.1057 35.8501 61.6008 35.3389C61.129 34.7919 60.871 34.0883 60.8755 33.3613C60.8647 32.7938 61.0212 32.2359 61.3251 31.7594C61.5899 31.3085 61.9579 30.9292 62.3979 30.6534C62.8235 30.3811 63.5502 30.0769 64.5437 29.7239C65.3484 29.4197 65.9163 29.1961 66.192 29.0029C66.4918 28.8312 66.7419 28.5826 66.9172 28.2818C67.112 27.8728 67.2095 27.4231 67.2019 26.9689C67.2171 26.4728 67.0577 25.9875 66.7524 25.5998C66.4842 25.2317 66.0736 25.0719 65.5851 25.0719C65.1356 25.0719 64.8359 25.1845 64.6546 25.3929C64.4328 25.7168 64.2919 26.0906 64.244 26.4821C64.0387 27.4907 63.4948 28.0034 62.6497 28.0034C62.3225 28.0047 62.005 27.8913 61.7506 27.6824C61.616 27.5712 61.5099 27.4286 61.4413 27.2667C61.3727 27.1049 61.3436 26.9286 61.3565 26.7529C61.3565 25.9193 61.8061 25.2956 62.7141 24.862C63.6222 24.4284 64.7025 24.2368 65.9642 24.2368C67.0371 24.2368 67.9212 24.3965 68.5985 24.7494C69.2758 25.1024 69.7028 25.4538 69.9081 25.9193C70.082 26.3513 70.1928 27.0404 70.1928 27.9699L70.1614 31.0779C70.1614 32.7284 70.2243 33.7857 70.3352 34.233C70.4296 34.7137 70.6663 34.954 71.014 34.954C71.0888 34.9587 71.1637 34.9479 71.2343 34.9221C71.3841 34.9221 71.5339 34.9054 71.5819 34.9054C71.9295 34.9054 72.1183 35.0012 72.1183 35.1944C72.119 35.2685 72.0986 35.3412 72.0595 35.4039C72.0204 35.4665 71.9644 35.5163 71.8981 35.5473C71.7482 35.6432 71.3137 35.7558 70.5495 35.8835C69.8907 36.028 69.2199 36.1085 68.5461 36.1239C67.9617 36.1239 67.5361 35.9961 67.3308 35.7557C67.1255 35.5154 66.9682 35.1305 66.9202 34.554L66.9277 34.5692ZM67.109 29.2995C66.8723 29.5551 66.3838 29.8928 65.5941 30.3081C64.9003 30.693 64.3954 31.0292 64.1586 31.3334C63.9219 31.6377 63.796 32.0865 63.796 32.663C63.796 33.2715 63.9219 33.7522 64.1751 34.0732C64.2845 34.2235 64.4272 34.3453 64.5918 34.4289C64.7564 34.5124 64.9381 34.5553 65.1221 34.554C65.6106 34.554 66.0841 34.3136 66.5261 33.8496C66.9682 33.3856 67.1735 32.552 67.1735 31.3669C67.1735 30.9988 67.157 30.3096 67.1105 29.301L67.109 29.2995Z" fill="#59595B"/>
</svg>
