<svg width="37" height="55" viewBox="0 0 37 55" fill="none" xmlns="http://www.w3.org/2000/svg">
<g clip-path="url(#clip0)">
<path d="M18.5712 1.81163e-05C4.78919 -0.0187132 -4.28953 14.4915 2.06979 26.6897C6.81859 35.7898 11.9578 44.684 16.951 53.6538C17.9665 55.4699 19.107 55.4455 20.1379 53.5927C25.0742 44.7328 30.1323 35.9421 34.8519 26.9682C41.3184 14.6748 32.3841 0.0228214 18.5712 1.81163e-05Z" fill="#11325B"/>
<path d="M18.4198 32.4777C16.5625 32.477 14.7238 32.1063 13.0105 31.3871C11.2971 30.6679 9.74311 29.6146 8.43868 28.2882C7.13424 26.9617 6.10532 25.3887 5.41159 23.6602C4.71787 21.9317 4.37315 20.0823 4.39744 18.2191C4.47862 10.6532 10.855 4.52485 18.6097 4.55172C26.3945 4.5786 32.5598 10.7559 32.6434 18.6084C32.723 26.1709 26.2386 32.4948 18.4198 32.4777Z" fill="white"/>
<path d="M18.0056 22.0932V16.2238C18.0062 16.1304 18.0005 16.0371 17.9885 15.9445C17.8972 15.2934 17.7029 14.661 17.413 14.0713C16.0184 11.4042 13.2503 11.6648 12.1065 11.8179C10.9628 11.971 9.4326 12.6803 9.4326 12.6803V14.5168L10.0008 14.5779C10.0617 13.5811 12.3996 12.3521 14.0962 13.3823C15.7927 14.4126 15.701 15.6244 15.8082 16.7133C15.9153 17.8021 14.9867 17.785 14.9867 17.785L11.8573 17.8143C11.6508 17.8133 11.4446 17.8308 11.2412 17.8665C10.9516 17.9219 10.67 18.013 10.4026 18.1377C9.74269 18.4511 9.18734 18.9497 8.80373 19.573C8.42011 20.1963 8.22464 20.9178 8.24093 21.6502C8.25712 22.6149 8.65382 23.5339 9.34411 24.2058C10.1559 24.9876 11.0407 25.3867 13.2406 25.4632C15.4404 25.5398 16.7092 24.3133 16.7092 24.3133C17.6135 25.8607 20.0098 25.1871 20.0098 25.1871C18.5397 24.4542 18.0056 22.0932 18.0056 22.0932ZM15.6831 21.5704C15.6831 22.7472 14.8357 23.7693 13.6749 23.9362C13.2312 23.9912 12.7815 23.9734 12.3436 23.8833C11.9856 23.8174 11.6486 23.6661 11.361 23.4424C11.0734 23.2186 10.8436 22.9288 10.6908 22.5973C10.5497 22.2795 10.4633 21.94 10.4351 21.5932C10.3182 20.3129 11.1998 19.1198 12.4734 18.9773C12.5238 18.9719 12.5752 18.9678 12.6277 18.9651C13.881 18.904 15.684 18.8421 15.684 18.8421L15.6831 21.5704Z" fill="#B22327"/>
<path d="M28.2897 19.4643C27.1053 17.7622 25.1871 17.8779 25.1871 17.8779H22.2843V19.527L22.7713 19.5498C23.6691 19.0254 24.3997 19.0457 24.9128 19.207C25.3881 19.3201 25.8111 19.5917 26.1125 19.9774C26.2768 20.1757 26.3986 20.4058 26.4705 20.6534C26.5183 20.8031 26.5496 20.9577 26.5639 21.1143C26.5639 21.1404 26.5639 21.1656 26.5639 21.1958V21.2104C26.5925 21.713 26.4833 22.2138 26.2481 22.6584C25.5484 24.0226 23.9598 24.0535 22.5319 23.7554C21.104 23.4574 21.1567 21.4026 21.1567 21.4026V15.9184C21.1526 15.4195 21.2955 14.9305 21.5675 14.5127C21.6102 14.4487 21.6546 14.3868 21.7006 14.3271C22.0226 13.919 22.4318 13.5887 22.8979 13.3604C23.3641 13.132 23.8753 13.0115 24.394 13.0077C24.6888 13.0013 24.9837 13.016 25.2764 13.0517C26.2384 13.1747 26.8382 14.3857 26.8382 14.3857H27.4803V12.5126C25.1831 11.3015 23.493 11.5255 22.9434 11.6542C22.7981 11.6884 22.652 11.7136 22.5043 11.7356C20.6583 12.0247 19.5738 13.8531 19.116 14.8369C18.9499 15.1939 18.8637 15.5831 18.8635 15.977V21.2707C18.978 22.3514 19.2605 23.5795 20.5828 24.6048C21.9052 25.6302 23.7227 25.5251 25.4039 25.372C26.8829 25.2368 27.8115 24.069 28.0129 23.7913C28.0399 23.7541 28.0641 23.7149 28.0851 23.674C28.2897 23.2863 29.3685 21.0158 28.2897 19.4643Z" fill="#11325B"/>
</g>
<defs>
<clipPath id="clip0">
<rect width="37" height="55" fill="white"/>
</clipPath>
</defs>
</svg>
