<svg width="20" height="20" viewBox="0 0 20 20" fill="none" xmlns="http://www.w3.org/2000/svg">
<path d="M9.62959 2.59258C9.62959 2.38784 9.79545 2.22216 10 2.22216C10.2045 2.22216 10.3703 2.38784 10.3704 2.59258V5.94654C10.3704 6.15128 10.2045 6.31695 10 6.31695C9.79545 6.31695 9.62959 6.15128 9.62959 5.94654V2.59258Z" fill="black"/>
<path fill-rule="evenodd" clip-rule="evenodd" d="M3 7C3 3.13401 6.13401 0 10 0C13.866 0 17 3.13401 17 7V13C17 16.866 13.866 20 10 20C6.13401 20 3 16.866 3 13V7ZM16 7V13C16 16.3137 13.3137 19 10 19C6.68629 19 4 16.3137 4 13V7C4 3.68629 6.68629 1 10 1C13.3137 1 16 3.68629 16 7Z" fill="black"/>
</svg>
