<svg width="21" height="22" viewBox="0 0 21 22" fill="none" xmlns="http://www.w3.org/2000/svg">
<path d="M19.6464 21.3536C19.8417 21.5488 20.1583 21.5488 20.3536 21.3536C20.5488 21.1583 20.5488 20.8417 20.3536 20.6464L19.6464 21.3536ZM15.5 8.5C15.5 12.366 12.366 15.5 8.5 15.5V16.5C12.9183 16.5 16.5 12.9183 16.5 8.5H15.5ZM8.5 15.5C4.63401 15.5 1.5 12.366 1.5 8.5H0.5C0.5 12.9183 4.08172 16.5 8.5 16.5V15.5ZM1.5 8.5C1.5 4.63401 4.63401 1.5 8.5 1.5V0.5C4.08172 0.5 0.5 4.08172 0.5 8.5H1.5ZM8.5 1.5C12.366 1.5 15.5 4.63401 15.5 8.5H16.5C16.5 4.08172 12.9183 0.5 8.5 0.5V1.5ZM12.6464 14.3536L19.6464 21.3536L20.3536 20.6464L13.3536 13.6464L12.6464 14.3536Z" fill="black"/>
</svg>
