<svg width="100" height="100" viewBox="0 0 100 100" fill="none" xmlns="http://www.w3.org/2000/svg">
<path d="M50 99.2186H10.9375C5.3125 99.2186 0.78125 94.6874 0.78125 89.0624V49.9999C0.78125 48.6717 1.79688 47.6561 3.125 47.6561H14.375C13.125 45.5467 12.5 43.1249 12.5 40.6249C12.5 36.7186 14.0625 33.1249 16.875 30.4686C19.6875 27.8124 23.3594 26.4061 27.2656 26.6405C34.4531 26.953 40.3125 32.8905 40.625 40.1561C40.7031 42.8124 40.0781 45.4686 38.75 47.8124L50 47.6561C51.3281 47.6561 52.3438 48.6717 52.3438 49.9999V61.2499C52.3438 62.9686 51.4062 64.5311 50 65.3124C48.5156 66.1717 46.7969 66.1717 45.3906 65.3124C43.8281 64.453 42.1094 63.9842 40.3125 64.0624C35.4688 64.2186 31.5625 68.1249 31.3281 72.9686C31.1719 75.5467 32.1094 78.0467 33.9062 79.9217C35.7031 81.7967 38.125 82.8124 40.7031 82.8124C42.3438 82.8124 43.9844 82.3436 45.3906 81.5624C46.7969 80.703 48.5938 80.703 50 81.5624C51.4844 82.4217 52.3438 83.9842 52.3438 85.6249V96.8749C52.3438 98.203 51.3281 99.2186 50 99.2186ZM5.46875 52.3436V89.0624C5.46875 92.1092 7.89062 94.5311 10.9375 94.5311H47.6562V85.6249C45.5469 86.8749 43.125 87.4999 40.625 87.4999C36.7188 87.4999 33.125 85.9374 30.4688 83.1249C27.8125 80.3124 26.4062 76.6405 26.6406 72.7342C26.9531 65.5467 32.8906 59.6874 40.1562 59.3749C42.8125 59.2967 45.4688 59.9217 47.8125 61.2499L47.6562 52.3436H38.75C37.0312 52.3436 35.4688 51.4061 34.6875 49.9999C33.9062 48.5936 33.8281 46.7967 34.6875 45.3905C35.5469 43.828 36.0156 42.1092 35.9375 40.3124C35.7812 35.4686 31.875 31.5624 27.0312 31.328C24.4531 31.1717 21.9531 32.1092 20.0781 33.9061C18.2031 35.6249 17.1875 38.0467 17.1875 40.6249C17.1875 42.2655 17.6562 43.9061 18.4375 45.3124C19.2969 46.7186 19.2969 48.5155 18.4375 49.9217C17.5781 51.328 16.0156 52.2655 14.375 52.2655H5.46875V52.3436Z" fill="#FF741F"/>
<path d="M89.0625 0.78125H50C48.6719 0.78125 47.6562 1.79688 47.6562 3.125V14.375C47.6562 16.0938 48.5938 17.6562 50 18.4375C51.4844 19.2969 53.2031 19.2969 54.6094 18.4375C56.0156 17.5781 57.6563 17.1875 59.2969 17.1875C61.875 17.1875 64.2969 18.2031 66.0937 20.0781C67.8906 21.9531 68.8281 24.375 68.6719 27.0312C68.4375 31.875 64.4531 35.7812 59.6875 35.9375C57.8906 36.0156 56.1719 35.5469 54.6094 34.6875C53.2031 33.8281 51.4062 33.8281 50 34.6875C48.5156 35.5469 47.6562 37.1094 47.6562 38.75V42.1875C47.6562 43.5156 48.6719 44.5312 50 44.5312C51.3281 44.5312 52.3438 43.5156 52.3438 42.1875L52.2656 38.6719C54.5313 40 57.1875 40.7031 59.9219 40.5469C67.1094 40.2344 73.0469 34.375 73.4375 27.1875C73.5938 23.2812 72.2656 19.6094 69.6094 16.7969C66.875 14.0625 63.2812 12.5 59.375 12.5C56.875 12.5 54.4531 13.125 52.3438 14.375V5.46875H89.0625C92.1094 5.46875 94.5312 7.89062 94.5312 10.9375V47.6562H85.625C83.9062 47.6562 82.3438 48.5938 81.5625 50C80.7031 51.4844 80.7031 53.2031 81.5625 54.6094C82.4219 56.0156 82.8125 57.6562 82.8125 59.2969C82.8125 61.875 81.7969 64.2969 79.9219 66.0938C78.0469 67.8906 75.5469 68.8281 72.9688 68.6719C68.125 68.4375 64.2188 64.4531 64.0625 59.6875C63.9844 57.8906 64.4531 56.1719 65.3125 54.6094C66.1719 53.2031 66.1719 51.4062 65.3125 50C64.4531 48.5156 62.8906 47.6562 61.25 47.6562H57.8125C56.4844 47.6562 55.4688 48.6719 55.4688 50C55.4688 51.3281 56.4844 52.3438 57.8125 52.3438L61.3281 52.2656C60 54.6094 59.2969 57.1875 59.4531 59.9219C59.7656 67.1094 65.625 73.0469 72.8125 73.4375C76.7187 73.5938 80.3906 72.2656 83.2031 69.6094C86.0156 66.9531 87.5781 63.2812 87.5781 59.4531C87.5781 56.9531 86.9531 54.5312 85.7031 52.4219H94.5312V89.1406C94.5312 92.1875 92.1094 94.6094 89.0625 94.6094H57.8125C56.4844 94.6094 55.4688 95.625 55.4688 96.9531C55.4688 98.2812 56.4844 99.2969 57.8125 99.2969H89.0625C94.6875 99.2969 99.2188 94.7656 99.2188 89.1406V10.9375C99.2188 5.3125 94.6875 0.78125 89.0625 0.78125Z" fill="#131921"/>
</svg>
