<svg version="1.2" baseProfile="tiny-ps" xmlns="http://www.w3.org/2000/svg" viewBox="0 0 105 97" width="105" height="97">
	<title>img2-svg</title>
	<defs>
		<clipPath clipPathUnits="userSpaceOnUse" id="cp1">
			<path d="M6.96 -6.91L106.39 3.72L95.77 103.16L-3.67 92.53L6.96 -6.91Z" />
		</clipPath>
	</defs>
	<style>
		tspan { white-space:pre }
		.shp0 { fill: #131921 } 
		.shp1 { fill: #ff741f } 
	</style>
	<g id="Clip-Path" clip-path="url(#cp1)">
		<g id="Layer">
			<path id="Layer" fill-rule="evenodd" class="shp0" d="M97.99 82.34C97.87 83.49 96.98 84.57 95.79 84.83L47.98 96.28C47.68 96.35 47.28 96.4 46.99 96.37C46.71 96.34 46.33 96.2 46.06 96.08L1.75 74.78C0.63 74.27 -0.02 73.13 0.11 71.87L6.29 14.08C6.42 12.92 7.31 11.85 8.5 11.59L56.31 0.13C57.81 -0.29 59.36 0.65 59.77 2.26C60.19 3.76 59.25 5.32 57.65 5.73L11.83 16.72L6.09 70.47L44.85 89.22L50.59 35.47C50.6 35.38 50.6 35.38 50.6 35.38C50.74 34.12 51.62 33.15 52.81 32.88L92.66 23.31L78.63 16.55L35 26.99L34.08 35.56C33.91 37.2 32.53 38.32 30.9 38.14C29.26 37.97 28.15 36.58 28.33 34.94L29.46 24.35C29.58 23.19 30.47 22.12 31.67 21.86L78.37 10.77C79.07 10.56 79.83 10.73 80.39 10.99L80.48 11L102.64 21.65C103.57 22.04 104.14 22.98 104.23 23.96L104.22 24.06C104.21 24.15 104.19 24.35 104.18 24.44L97.99 82.34ZM97.98 27.97L56.14 38.01L50.62 89.74L92.45 79.7L97.98 27.97Z" />
			<path id="Layer" class="shp1" d="M46.48 96.31C46.19 96.28 45.82 96.15 45.55 96.02L1.73 74.77C0.63 74.26 -0.01 73.03 0.11 71.87L6.29 14.07C6.43 12.82 7.3 11.84 8.48 11.57L55.81 0.07C57.39 -0.35 58.91 0.69 59.23 2.19C59.63 3.79 58.6 5.34 57.13 5.67L11.77 16.7L6.03 70.46L48.02 90.83C49.48 91.57 50.07 93.29 49.34 94.67C48.84 95.79 47.62 96.44 46.48 96.31Z" />
		</g>
	</g>
</svg>