<svg width="100" height="100" viewBox="0 0 100 100" fill="none" xmlns="http://www.w3.org/2000/svg">
<path d="M50.9375 68.2031C47.5 68.2031 44.6875 65.3906 44.6875 61.9531V55.7031H57.1875V61.9531C57.1875 65.4687 54.375 68.2031 50.9375 68.2031Z" fill="#FF741F"/>
<path d="M92.9688 52.8906C91.6406 52.8906 90.625 53.9062 90.625 55.2344V89.0625C90.625 92.1094 88.2031 94.5313 85.1562 94.5313H14.8438C11.7969 94.5313 9.375 92.1094 9.375 89.0625V55.2344C9.375 53.9062 8.35938 52.8906 7.03125 52.8906C5.70312 52.8906 4.6875 53.9062 4.6875 55.2344V89.0625C4.6875 94.6875 9.21875 99.2188 14.8438 99.2188H85.1562C90.7812 99.2188 95.3125 94.6875 95.3125 89.0625V55.2344C95.3125 53.9062 94.2969 52.8906 92.9688 52.8906Z" fill="#131921"/>
<path d="M85.1562 17.9688H67.8125V15.625C67.8125 9.60938 62.8906 4.6875 56.875 4.6875H43.125C39.2969 4.6875 35.8594 6.64063 33.8281 9.84375C33.125 10.9375 33.4375 12.4219 34.6094 13.0469C35.7031 13.75 37.1875 13.4375 37.8125 12.2656C38.9844 10.3906 40.9375 9.29687 43.125 9.29687H56.875C60.3125 9.29687 63.125 12.1094 63.125 15.5469V17.8906H14.8438C9.21875 17.8906 4.6875 22.4219 4.6875 28.0469V43.4375C4.6875 44.2969 5.15625 45 5.85938 45.4688C19.4531 53.6719 34.6875 57.8125 50 57.8125C65.3125 57.8125 80.5469 53.75 94.1406 45.5469C94.8438 45.1562 95.3125 44.375 95.3125 43.5156V28.125C95.3125 22.5 90.7812 17.9688 85.1562 17.9688ZM90.625 42.1875C65.4688 56.7188 34.5312 56.7188 9.375 42.1875V28.125C9.375 25.0781 11.7969 22.6562 14.8438 22.6562H85.1562C88.2031 22.6562 90.625 25.0781 90.625 28.125V42.1875Z" fill="#131921"/>
</svg>
