<svg width="100" height="100" viewBox="0 0 100 100" fill="none" xmlns="http://www.w3.org/2000/svg">
<path d="M11.7955 29.4526C10.7017 29.4526 9.76424 28.6713 9.52986 27.5776C9.06111 25.4682 9.52987 23.2026 10.7799 21.4838C12.0299 19.6869 14.0611 18.5932 16.1705 18.3588L20.0767 17.9682C21.3267 17.8119 22.4986 18.7494 22.6549 20.0776C22.8111 21.3276 21.8736 22.4994 20.5455 22.6557L16.6392 23.0463C15.7799 23.1244 15.0767 23.5151 14.5299 24.2182C14.0611 24.9213 13.9049 25.7807 14.0611 26.5619C14.3736 27.8119 13.5142 29.0619 12.2642 29.3744C12.108 29.4526 11.9517 29.4526 11.7955 29.4526Z" fill="#FF741F"/>
<path d="M62.6592 91.7963C62.1123 91.7963 61.6436 91.6401 61.1748 91.4057L53.8311 87.1088C51.4873 85.7026 48.4405 85.7026 46.0967 87.1088C45.003 87.7338 43.5186 87.4213 42.8936 86.2494C42.2686 85.1557 42.5811 83.6713 43.753 83.0463C47.503 80.8588 52.4248 80.8588 56.253 83.0463L61.7998 86.3276L64.378 80.3901C66.1748 76.3276 70.003 73.5151 74.4561 73.0463L82.8936 72.2651C84.1436 72.1088 85.3154 73.0463 85.4717 74.3744C85.6279 75.6244 84.6904 76.7963 83.3623 76.9526L74.9248 77.7338C72.1905 77.9682 69.7686 79.7651 68.6748 82.2651L65.3155 89.9994C64.8467 91.0932 63.7529 91.7963 62.6592 91.7963Z" fill="#FF741F"/>
<path d="M84.9243 58.3597C84.2993 58.3597 83.5961 58.1253 83.2055 57.5784C82.3461 56.6409 82.4243 55.1565 83.4399 54.2972L88.2836 50.0003L83.4399 45.7034C80.0805 42.7347 78.5961 38.2034 79.6118 33.8284L81.2524 26.5628C81.018 26.1722 80.8618 25.6253 80.9399 25.1565C81.0961 23.9065 82.1899 22.8909 83.518 23.0472C84.3774 23.1253 85.0805 23.5159 85.6274 24.219C86.0961 24.9222 86.3305 25.7034 86.0961 26.5628L84.2993 34.844C83.6743 37.5003 84.6118 40.3128 86.643 42.1878L92.9711 47.8128C93.5961 48.3597 93.9868 49.1409 93.9868 50.0003C93.9868 50.8597 93.6743 51.6409 92.9711 52.1878L86.643 57.8128C86.018 58.2034 85.4711 58.3597 84.9243 58.3597Z" fill="#FF741F"/>
<path d="M46.4085 33.9062C45.3148 33.9062 44.2991 33.125 44.1429 32.0312C43.9085 30.7812 44.6898 29.5312 46.0179 29.2969C47.346 29.0625 48.6741 28.9062 50.0804 28.9062C51.4085 28.9062 52.4241 29.9219 52.4241 31.25C52.4241 32.5781 51.4085 33.5937 50.0804 33.5937C49.0648 33.5937 47.971 33.6719 46.9554 33.9062C46.721 33.9062 46.5648 33.9062 46.4085 33.9062Z" fill="#FF741F"/>
<path d="M36.7188 65.6254C36.0938 65.6254 35.5469 65.391 35.0781 64.9223C31.0938 60.9379 28.9062 55.6254 28.9062 50.0004C28.9062 45.8598 30.0781 41.7973 32.4219 38.3598C33.125 37.266 34.6094 36.9535 35.7031 37.7348C36.7969 38.4379 37.1094 39.9223 36.3281 41.016C34.5312 43.6723 33.5938 46.7973 33.5938 50.0004C33.5938 54.3754 35.3125 58.516 38.4375 61.5629C39.375 62.5004 39.375 63.9848 38.4375 64.8441C37.9688 65.391 37.3438 65.6254 36.7188 65.6254Z" fill="#FF741F"/>
<path d="M32.5781 93.3594C31.6406 93.3594 30.7812 92.8125 30.3906 91.9532L27.0312 84.2188C26.6406 83.2813 25.7031 82.5782 24.6094 82.5L16.1719 81.7188C13.9844 81.4844 12.0312 80.3907 10.7812 78.5938C9.53125 76.7969 9.0625 74.6094 9.53125 72.5L11.3281 64.2188C11.5625 63.2032 11.1719 62.1094 10.3906 61.4063L4.0625 55.7813C2.42187 54.375 1.48438 52.2657 1.48438 50.0782C1.48438 47.8907 2.42187 45.8594 4.0625 44.375L10.3906 38.75C11.1719 38.0469 11.5625 36.9532 11.3281 35.9375C11.0156 34.6875 11.875 33.4375 13.125 33.125C14.375 32.8125 15.625 33.6719 15.9375 34.9219C16.5625 37.5782 15.625 40.3907 13.5938 42.2657L7.26562 47.8907C6.64062 48.4375 6.25 49.2188 6.25 50.0782C6.25 50.9375 6.5625 51.7188 7.26562 52.2657L13.5938 57.8907C15.625 59.6875 16.5625 62.5 15.9375 65.2344L14.0625 73.4375C13.9062 74.2969 14.0625 75.0782 14.5313 75.7813C15 76.4844 15.7812 76.875 16.6406 76.9532L25.0781 77.7344C27.8125 77.9688 30.2344 79.7657 31.3281 82.2657L34.6875 90C35.2344 91.1719 34.6875 92.5782 33.4375 93.0469C33.2031 93.2813 32.8906 93.3594 32.5781 93.3594Z" fill="#131921"/>
<path d="M62.6592 96.4838C61.3311 96.4838 60.003 96.0932 58.8311 95.4682L51.5655 91.1713C50.628 90.6244 49.5342 90.6244 48.5967 91.1713L41.3311 95.4682C40.2373 96.0932 38.753 95.7807 38.128 94.6088C37.503 93.5151 37.8155 92.0307 38.9873 91.4057L46.253 87.1088C48.5967 85.7026 51.5655 85.7026 53.9873 87.1088L61.253 91.4057C61.9561 91.7963 62.8155 91.9526 63.5967 91.6401C64.378 91.4057 65.003 90.7807 65.3936 89.9994L68.753 82.2651C69.2998 81.0932 70.628 80.5463 71.7998 81.0151C72.9717 81.5619 73.5186 82.8901 73.0498 84.0619L69.6905 91.7963C68.8311 93.8276 67.1123 95.312 65.0811 96.0151C64.2217 96.3276 63.4405 96.4838 62.6592 96.4838Z" fill="#131921"/>
<path d="M83.5951 81.6409C82.4233 81.6409 81.4076 80.7034 81.2514 79.5315C81.0951 78.2815 82.0326 77.1097 83.3608 76.9534C84.2201 76.8753 84.9233 76.4847 85.4701 75.7815C85.9389 75.0784 86.1733 74.2972 85.9389 73.4378L84.142 65.1565C83.517 62.5003 84.4545 59.6878 86.4858 57.8128L92.8139 52.1878C93.4389 51.6409 93.8295 50.8597 93.8295 50.0003C93.8295 49.1409 93.517 48.3597 92.8139 47.8128L86.4858 42.1878C84.4545 40.3909 83.517 37.5784 84.142 34.844L85.9389 26.5628C86.0951 25.7034 85.9389 24.9222 85.4701 24.219C85.0014 23.5159 84.2201 23.1253 83.3608 23.0472C82.1108 22.8909 81.0951 21.7972 81.2514 20.469C81.4076 19.219 82.5014 18.2034 83.8295 18.3597C86.017 18.594 87.9701 19.6878 89.2201 21.4847C90.4701 23.2815 90.9389 25.469 90.4701 27.5784L88.6733 35.8597C88.4389 36.8753 88.8295 37.969 89.6108 38.6722L95.9389 44.2972C97.5795 45.7034 98.517 47.8128 98.517 50.0003C98.517 52.1878 97.5795 54.219 95.9389 55.7034L89.6108 61.3284C88.8295 62.0315 88.4389 63.1253 88.6733 64.1409L90.4701 72.4222C90.9389 74.5315 90.4701 76.7972 89.2201 78.5159C87.9701 80.3128 85.9389 81.4065 83.8295 81.6409C83.7514 81.6409 83.6733 81.6409 83.5951 81.6409Z" fill="#131921"/>
<path d="M70.8627 19.1411C69.9252 19.1411 69.0659 18.5942 68.6752 17.7348L65.3158 10.0004C65.0033 9.21919 64.3784 8.67231 63.519 8.35981C62.7377 8.12544 61.8784 8.20356 61.1752 8.59419L53.9096 12.8911C51.5658 14.2973 48.5971 14.2973 46.1752 12.8911L38.8315 8.59419C38.1283 8.20356 37.269 8.04731 36.4877 8.35981C35.7065 8.59419 35.0815 9.21919 34.6908 10.0004C34.144 11.1723 32.8158 11.7192 31.644 11.2504C30.4721 10.7036 29.9252 9.37544 30.394 8.20356C31.2533 6.09419 32.9721 4.53169 35.0033 3.90669C37.0346 3.20356 39.3002 3.51606 41.1752 4.60981L48.4408 8.90669C49.3783 9.45356 50.4721 9.45356 51.4096 8.90669L58.6752 4.60981C60.5502 3.51606 62.8158 3.28169 64.8471 3.90669C66.8783 4.53169 68.5971 6.09419 69.4565 8.12544L72.8158 15.8598C73.3627 17.0317 72.8158 18.4379 71.5658 18.9067C71.4877 19.0629 71.1752 19.1411 70.8627 19.1411Z" fill="#131921"/>
<path d="M96.875 99.2191C96.25 99.2191 95.7031 98.9847 95.2344 98.5159L86.9531 90.3128C86.0156 89.3753 86.0156 87.8909 86.9531 87.0316C87.8906 86.1722 89.375 86.0941 90.2344 87.0316L98.5156 95.2347C99.4531 96.1722 99.4531 97.6566 98.5156 98.5159C98.0469 98.9847 97.5 99.2191 96.875 99.2191Z" fill="#131921"/>
<path d="M90.625 11.7188C90 11.7188 89.4531 11.4844 88.9844 11.0156C88.0469 10.0781 88.0469 8.59375 88.9844 7.73437L95.2344 1.48438C96.1719 0.546875 97.6562 0.546875 98.5156 1.48438C99.4531 2.42188 99.4531 3.90625 98.5156 4.76562L92.2656 11.0156C91.7969 11.4844 91.25 11.7188 90.625 11.7188Z" fill="#131921"/>
<path d="M10.3906 12.7344C9.76562 12.7344 9.21875 12.5 8.75 12.0312L1.48438 4.76562C0.546875 3.82812 0.546875 2.34375 1.48438 1.48438C2.34375 0.546875 3.90625 0.546875 4.76562 1.48438L12.0312 8.75C12.9688 9.6875 12.9688 11.1719 12.0312 12.0312C11.6406 12.5 11.0156 12.7344 10.3906 12.7344Z" fill="#FF741F"/>
<path d="M18.75 5.46875C20.0444 5.46875 21.0938 4.41942 21.0938 3.125C21.0938 1.83058 20.0444 0.78125 18.75 0.78125C17.4556 0.78125 16.4062 1.83058 16.4062 3.125C16.4062 4.41942 17.4556 5.46875 18.75 5.46875Z" fill="#FF741F"/>
</svg>
