<svg xmlns="http://www.w3.org/2000/svg" viewBox="0 0 265.96 341.46"><defs><style>.cls-1{fill:#f4a337}.cls-2{fill:#bd0308}.cls-3{isolation:isolate}</style></defs><title>logodeu</title><g id="Слой_2" data-name="Слой 2"><g id="Слой_1-2" data-name="Слой 1"><g id="Слой_2-2" data-name="Слой 2"><path class="cls-1" d="M64 173.28c-41 11-44.25 45.5-44.25 45.5v42.5H0l8 13.25h12.5V298h13v-24h17.75v24H64v-24h5v-13.5h-5zm-14 87.5H34.5v-40.25A36.54 36.54 0 0 1 50 196zm183.5-87.5c-41 11-44.25 45.5-44.25 45.5v42.5H169.5l8 13.25H190V298h13v-24h17.75v24h12.75v-24h5v-13.46h-5zm-14 87.5H204v-40.24A36.54 36.54 0 0 1 219.5 196zm-94.28-73.35h15.25V298h13.5V187.43h15.5v-14.15h-44.25v14.15zm-30.85-9.74a66.87 66.87 0 0 0-12.62-4.41V298h43.5v-12.72H94.37zm156.84-4.4v124.75h14.75V173.29h-14.75z" id="Слой_1-2-2" data-name="Слой 1-2"/></g><path class="cls-2" d="M138.19 75.44c0-2.29.05-4.59 0-6.88-.06-1.74-.21-1.83-1.89-1.46a7.58 7.58 0 0 1-8.58-3.42c-1-1.52-.74-2.21 1-2.67a15.16 15.16 0 0 0 6.1-2.71 9.08 9.08 0 0 0 3.1-6.09 2 2 0 0 0-.86-2.06c-.67-.44-1.22.17-1.72.52-3.35 2.35-7.21 3-11.13 3.57s-8.06.47-12 1.6a14.52 14.52 0 0 0-6.25 3.3c-3.13 3-3.72 6.62-2.61 10.6a6.38 6.38 0 0 0 5.56 4.07 5.87 5.87 0 0 0 5.26-4.14 3.76 3.76 0 0 0-1.4-4.15c-.43-.34-.91-.62-1.32-1a.74.74 0 0 1 .15-1.31c2.74-1.38 6-1.84 8.9.87a6.42 6.42 0 0 1 1.22 8.24c-.49.88-1 1.74-1.58 2.58s-.26 1.17.54 1.17c4.86 0 7.56 3.08 9.53 7a9.8 9.8 0 0 1 .12 8.91c-2.62 5.51-7.26 8-13.19 8.43a32.16 32.16 0 0 1-16.63-3.74A108.46 108.46 0 0 0 88.1 91c-4.49-1.56-10.33-1.07-13 3.67a8.74 8.74 0 0 0-.7 6.92c.61 2.23 3.16 3.52 5.74 3.26 2.74-.28 4.45-1.77 4.86-4.25a10.59 10.59 0 0 1 .18-1.08c.24-.87.77-1.05 1.56-.64 1.52.79 2.06 2.26 2.62 3.73 1.17 3.12.84 5.93-1.65 8.33-.79.76-.43 1.3.41 1.63a7.08 7.08 0 0 0 1.6.38c6.76.94 11.17 4.89 13.94 10.92.16.35.45.77.1 1.15s-.7.07-1-.09c-4-2.2-8.45-2.87-12.82-3.89-6.43-1.5-12.66-3.54-17.18-8.8a41.06 41.06 0 0 1-6.5-11.42c-.64-1.55-.72-1.6-2.16-.82a6.89 6.89 0 0 1-8.5-1c-1-.92-1-1.67.21-2 3.21-1 5.65-3.18 8.08-5.33a39 39 0 0 0 3.78-3.8c2.84-3.4 6.69-4.87 10.89-5.56h.14c3.33-.5 3.2-.47 2.51-3.72A10.45 10.45 0 0 1 83 69.83c.74-1 1.22-.7 1.68.19a15.73 15.73 0 0 1 1 2.11c1.89 5.64 5.89 9.63 10.35 13.22A31.63 31.63 0 0 0 110.51 92c2.54.45 5.09 1 7.74.27 2.23-.57 4-1.85 4.16-3.6a5.27 5.27 0 0 0-3.47-5.63c-2.51-.86-5.14-.86-7.74-1.08-8.66-.74-12.88-5.45-14.87-12.64a15.87 15.87 0 0 1 4.05-16 18.25 18.25 0 0 1 9.56-5.6 78 78 0 0 1 12.22-1.55c.41 0 .91 0 1.11-.41s-.23-.84-.54-1.15a10.66 10.66 0 0 1-2.22-3.11c-1.56-3.45-.48-6.32 2.1-8.5a8.62 8.62 0 0 1 5.9-2.28c1.92.07 2.17.38 1.34 2.09a8.23 8.23 0 0 0-.92 4.77c.42 3.24 5 4.61 7.27 2.76a7.75 7.75 0 0 0 2.7-7.4 28.86 28.86 0 0 0-2-7.13 19.5 19.5 0 0 1 1-17.35c1.39-2.63 3.22-5 4.4-7.75.43-1 1.15-1 1.84 0 1.06 1.6 2.08 3.24 3 4.92a45.52 45.52 0 0 1 3.16 6.54c1.7 4.83 1.11 9.37-.71 13.83a29.54 29.54 0 0 0-2 7.27 8.23 8.23 0 0 0 1.66 6 4.63 4.63 0 0 0 5.64 1.6 4.53 4.53 0 0 0 2.75-5.25 10.75 10.75 0 0 0-1.08-3.1c-.61-1.26-.34-1.69 1-1.75 4.23-.2 8.25 2.66 9 6.52.54 2.65-.56 4.82-2.19 6.81-.42.51-1.32.92-1 1.64s1.28.45 2 .49c5.45.32 10.93.68 15.85 3.28 5.08 2.69 8.56 6.86 9.39 12.66 1.36 9.5-4 18-13 19.58a44.58 44.58 0 0 1-5.61.5 17.45 17.45 0 0 0-4.44.86c-3.1 1-4.48 5.19-2.5 7.48a3.58 3.58 0 0 0 1.78 1.24c2.2.52 4.32 1.23 6.72.78a41.81 41.81 0 0 0 10-3 34.07 34.07 0 0 0 16.2-14.88 48.11 48.11 0 0 0 2-4.49c.59-1.36 1.14-1.39 2-.17a10.65 10.65 0 0 1 1.39 9.32c-.1.35-.21.7-.31 1.06-.26 1 .07 1.48 1.1 1.6 1.73.2 3.42.63 5.12 1a13.79 13.79 0 0 1 7.15 4.11c2.76 2.74 5.37 5.66 8.65 7.84a13.21 13.21 0 0 0 3.9 2c.47.12 1.06.25 1.16.84s-.42.78-.76 1.06c-3.07 2.61-5.34 2.88-8.89 1-1.17-.63-1.52 0-1.89.89a42.46 42.46 0 0 1-5.94 10.8 21.49 21.49 0 0 1-6.46 5.46c-4.84 2.71-10.15 3.85-15.49 5-2.95.64-5.93 1.25-8.55 2.91-.3.19-.67.39-1 .09s-.15-.69 0-1c2.68-5.95 7-9.89 13.6-10.94a4.61 4.61 0 0 0 .82-.11c2-.36 2.31-1 1-2.54-3-3.42-1.49-7.7.36-10.55a2.63 2.63 0 0 1 .72-.63c1.26-.89 2-.64 2.11.9.22 2.7 2 3.92 4.24 4.62s6-1 6.56-3.27a8.57 8.57 0 0 0-.61-6.43 9.07 9.07 0 0 0-8-4.72c-3.88-.21-7.14 1.41-10.46 2.94-4.69 2.17-9.18 4.82-14.22 6.17-5.24 1.4-10.53 1.71-15.65-.43-4.65-1.95-8.89-6.9-7.95-13.13.63-4.2 4.68-9.4 9.67-9.83 1.44-.12 1.65-.62.91-1.85a13.17 13.17 0 0 1-1.88-3.49 6.56 6.56 0 0 1 3-7.47 7.38 7.38 0 0 1 7.81 0c.61.42.66.83.16 1.33a6.5 6.5 0 0 1-.77.58c-2.16 1.55-2.65 3.37-1.55 5.73a5.39 5.39 0 0 0 5.48 2.78c4.19-.61 5.91-5.09 5.39-8.16a11.57 11.57 0 0 0-9.37-9.68c-4.63-1-9.36-1.13-14-1.86a20.6 20.6 0 0 1-9-3.2c-.54-.38-1.14-1-1.84-.46a2.33 2.33 0 0 0-.79 2.22c.4 4 2.85 6.28 6.38 7.66a21 21 0 0 0 2.89.89c1.61.37 1.94 1.08 1 2.48-2 3.17-4.66 4.29-8.48 3.62-2-.35-2.11-.32-2.12 1.64a124.87 124.87 0 0 0 .56 16.33 63.64 63.64 0 0 0 2.3 12.39c2.51 7.59 8 11.43 15.62 12.63a42.86 42.86 0 0 0 16.76-.9c.44-.11.85-.35 1.3-.44.63-.13 1.4-.8 1.87 0s-.36 1.14-.79 1.58a33.25 33.25 0 0 1-2.64 2.61c-3.17 2.65-6.34 5.33-10.59 6.07-3.06.53-6-.11-9-.85a42.73 42.73 0 0 1-8.75-3.23 18.14 18.14 0 0 1-4.33-2.88c-.43-.4-.9-1.09-1.64-.67s-.71 1.2-.61 2a14.23 14.23 0 0 0 5.24 9.37 30.19 30.19 0 0 0 12.6 6.16c.53.13 1.23.17 1.35.77s-.55.77-1 1a20.26 20.26 0 0 1-11.82 1.56 10.63 10.63 0 0 1-2.57-.93c-1.53-.73-1.85-.62-1.94 1.1a20.67 20.67 0 0 1-1.76 7.59 20 20 0 0 1-3.94 5.76 1.63 1.63 0 0 1-2.7 0 19.7 19.7 0 0 1-5.52-11.43c-.09-.73-.12-1.46-.21-2.19-.17-1.37-.47-1.56-1.64-1-3.71 1.89-7.53 1.64-11.39.64a30.11 30.11 0 0 1-3.24-1.13c-.45-.17-1.09-.36-1-.95s.71-.66 1.2-.75a28.83 28.83 0 0 0 10.44-4.62c3.63-2.35 6.31-5.42 7.33-9.74a6.33 6.33 0 0 0 .26-2.31c-.16-1.16-.94-1.5-1.82-.74-5.07 4.43-11.27 6.17-17.67 7.34a14 14 0 0 1-10-2 36.44 36.44 0 0 1-7.82-6.46c-.5-.54-1.47-1.1-1-1.88s1.34 0 2 .16c7.71 2.09 15.42 2.72 23.09-.13a16.34 16.34 0 0 0 9.74-9.5 46.82 46.82 0 0 0 2.84-13 89.91 89.91 0 0 0 .73-10.75z"/><g class="cls-3" id="Слой_1-2-3" data-name="Слой 1-2"><g class="cls-3"><path class="cls-1" d="M62.75 310.93a20 20 0 0 1 8.85 2v3.54a15.88 15.88 0 0 0-8.35-2.15c-6.2 0-12.61 3.46-12.61 11.89 0 8.9 6.49 11.89 12.69 11.89a12.91 12.91 0 0 0 5.44-1.1v-11.73h3.54v14.21a22.53 22.53 0 0 1-9.23 2c-8.09 0-16-4.13-16-15.26-.01-10.22 7.83-15.29 15.67-15.29zM96 338.29a5.09 5.09 0 0 0 1.56-.29v2.74a7.46 7.46 0 0 1-2.53.46 3.58 3.58 0 0 1-3.71-2.45 11.88 11.88 0 0 1-7.88 2.7c-3.58 0-7.12-1.9-7.12-6.16 0-5.23 4.81-6.83 9.15-6.83a27.5 27.5 0 0 1 5.61.63v-.72c0-3-2.07-5.06-5.78-5.06a18.57 18.57 0 0 0-7.38 1.52v-3.29a24 24 0 0 1 7.72-1.35c5.4 0 8.81 3 8.81 8.6v7.93a1.36 1.36 0 0 0 1.55 1.57zm-15.09-21a2.34 2.34 0 0 1-2.32-2.32 2.32 2.32 0 1 1 4.64 0 2.34 2.34 0 0 1-2.35 2.29zm3.25 21.29a9.53 9.53 0 0 0 6.91-3v-3.71a28.23 28.23 0 0 0-5.14-.59c-3 0-6.16.88-6.16 3.84-.03 2.37 2.12 3.43 4.36 3.43zm5.27-21.29a2.34 2.34 0 0 1-2.32-2.32 2.32 2.32 0 1 1 4.64 0 2.34 2.34 0 0 1-2.35 2.29zm18.01 2.92a15.64 15.64 0 0 1 7.17 1.73v3.21a14 14 0 0 0-7-1.9c-2.19 0-4.51.72-4.51 2.7 0 4.38 12.86 2.53 12.86 9.82 0 4.22-4 5.69-8.35 5.69a15.54 15.54 0 0 1-7.84-2v-3.29a14.73 14.73 0 0 0 7.67 2.15c2.87 0 5.14-.46 5.14-2.49 0-4.26-12.9-2.57-12.9-9.82.04-4.16 3.96-5.8 7.76-5.8zm17.79-6.62v7.13h8.09v3.12h-8.09v10.46c0 3.08 1.39 4 4.34 4a11.9 11.9 0 0 0 4.47-.93v3.12a16.69 16.69 0 0 1-5.44.93c-3.92 0-6.7-2.11-6.7-6.54v-11h-3.79v-3.12h3.79v-6.28zm21.29 6.62c7.8 0 10.67 6.37 9.4 12.1h-16.1c.42 4.26 4.26 6 8.35 6a14.14 14.14 0 0 0 6.66-1.64V340a16.21 16.21 0 0 1-7.17 1.48c-6 0-11.21-3.42-11.21-10.62s5.26-10.65 10.07-10.65zm.21 3.12c-3.46 0-6.66 2.07-6.91 6h13.11c.29-2.12-1.06-6-6.2-6zm17.58-11.89v11.85a9.54 9.54 0 0 1 7-3.08c4.85 0 8.43 3.33 8.43 8.26v12.48h-3.37v-12.06c0-3.79-2.32-5.57-5.44-5.57s-5.23 2-6.58 4v13.58h-3.37v-29.46zm39.38 26.85a5.09 5.09 0 0 0 1.56-.29v2.74a7.46 7.46 0 0 1-2.53.46 3.58 3.58 0 0 1-3.71-2.45 11.88 11.88 0 0 1-7.88 2.7c-3.58 0-7.12-1.9-7.12-6.16 0-5.23 4.81-6.83 9.15-6.83a27.5 27.5 0 0 1 5.61.63v-.72c0-3-2.07-5.06-5.78-5.06a18.57 18.57 0 0 0-7.38 1.52v-3.29a24 24 0 0 1 7.72-1.35c5.4 0 8.81 3 8.81 8.6v7.93a1.36 1.36 0 0 0 1.55 1.57zm-11.85.25a9.53 9.53 0 0 0 6.91-3v-3.71a28.23 28.23 0 0 0-5.14-.59c-3 0-6.16.88-6.16 3.84.01 2.41 2.16 3.47 4.39 3.47zm35.29-17.83v20.24h-3v-3a9.42 9.42 0 0 1-7.29 3.5c-5.27 0-8.43-3.33-8.43-8.26v-12.48h3.37v12.06c0 3.79 1.9 5.56 5.44 5.56 3 0 5.23-2 6.58-4v-13.62zm12.77-.5a15.64 15.64 0 0 1 7.17 1.73v3.21a14 14 0 0 0-7-1.9c-2.19 0-4.51.72-4.51 2.7 0 4.38 12.86 2.53 12.86 9.82 0 4.22-4 5.69-8.35 5.69a15.54 15.54 0 0 1-7.84-2v-3.29a14.73 14.73 0 0 0 7.67 2.15c2.87 0 5.14-.46 5.14-2.49 0-4.26-12.9-2.57-12.9-9.82.05-4.16 3.97-5.8 7.76-5.8z"/></g></g></g></g></svg>