<svg width="20" height="20" viewBox="0 0 20 20" fill="none" xmlns="http://www.w3.org/2000/svg">
<path d="M10.5 0.999996C10.5 0.723853 10.2761 0.499996 10 0.499996C9.72386 0.499996 9.5 0.723853 9.5 0.999996H10.5ZM10 14.5L9.64645 14.8535C9.84171 15.0488 10.1583 15.0488 10.3536 14.8535L10 14.5ZM14.3536 10.8535C14.5488 10.6583 14.5488 10.3417 14.3536 10.1464C14.1583 9.95118 13.8417 9.95118 13.6464 10.1464L14.3536 10.8535ZM6.35355 10.1464C6.15829 9.95118 5.84171 9.95118 5.64645 10.1464C5.45118 10.3417 5.45118 10.6583 5.64645 10.8535L6.35355 10.1464ZM20 10C20 9.72385 19.7761 9.5 19.5 9.5C19.2239 9.5 19 9.72385 19 10H20ZM9.5 0.999996V14.5H10.5V0.999996H9.5ZM10.3536 14.8535L14.3536 10.8535L13.6464 10.1464L9.64645 14.1464L10.3536 14.8535ZM10.3536 14.1464L6.35355 10.1464L5.64645 10.8535L9.64645 14.8535L10.3536 14.1464ZM0 10V16H1V10H0ZM3.5 19.5H16.5V18.5H3.5V19.5ZM20 16V10H19V16H20ZM16.5 19.5C18.433 19.5 20 17.933 20 16H19C19 17.3807 17.8807 18.5 16.5 18.5V19.5ZM0 16C0 17.933 1.567 19.5 3.5 19.5V18.5C2.11929 18.5 1 17.3807 1 16H0Z" fill="black"/>
</svg>
