<svg width="20" height="20" viewBox="0 0 20 20" fill="none" xmlns="http://www.w3.org/2000/svg">
<g clip-path="url(#clip0)">
<path fill-rule="evenodd" clip-rule="evenodd" d="M9.40213 19.3028C9.43089 19.3439 9.45842 19.3831 9.48467 19.4204C9.4863 19.4227 9.48793 19.425 9.48955 19.4273C9.70423 19.7319 9.83151 19.9034 9.83587 19.9092C9.87841 19.9664 9.94546 20 10.0165 20L10.0226 20C10.0959 19.9979 10.1635 19.9604 10.2042 19.8993C10.2137 19.885 10.3342 19.7028 10.534 19.3895L10.5368 19.3852C10.5594 19.3497 10.583 19.3126 10.6076 19.2738L10.6086 19.2722C11.1614 18.4013 12.2023 16.7133 13.2334 14.7826C15.2538 11 16.2782 8.13305 16.2782 6.26162C16.2781 2.80893 13.4681 0 10.0142 0H9.98569C6.53173 0 3.72182 2.80898 3.72182 6.26162C3.72182 8.52482 4.75252 11.5117 6.78528 15.1394C7.80657 16.962 8.83756 18.4954 9.40087 19.301L9.40213 19.3028ZM7.65765 14.6506C8.39477 15.966 9.13861 17.1301 9.70059 17.9684C9.80159 18.119 9.89657 18.2589 9.98444 18.3871C10.5587 17.4695 11.4591 15.9821 12.3514 14.3115C14.37 10.5322 15.2782 7.8607 15.2782 6.26166M7.65765 14.6506C5.64919 11.0662 4.72182 8.26337 4.72182 6.26162C4.72182 3.36159 7.08368 1 9.98569 1H10.0142C12.9161 1 15.2781 3.36157 15.2782 6.26166M9.98777 19.0006C9.98531 19.0007 9.98286 19.0008 9.98041 19.0009L9.99382 19.0004L9.99506 19.0003M9.98777 19.0006C9.9899 19.0005 9.99382 19.0004 9.99382 19.0004L9.98777 19.0006ZM10 8C11.1046 8 12 7.10457 12 6C12 4.89543 11.1046 4 10 4C8.89543 4 8 4.89543 8 6C8 7.10457 8.89543 8 10 8ZM10 9C11.6569 9 13 7.65685 13 6C13 4.34315 11.6569 3 10 3C8.34315 3 7 4.34315 7 6C7 7.65685 8.34315 9 10 9Z" fill="black"/>
</g>
<defs>
<clipPath id="clip0">
<path d="M0 0H20V20H0V0Z" fill="white"/>
</clipPath>
</defs>
</svg>
