<svg width="20" height="20" viewBox="0 0 20 20" fill="none" xmlns="http://www.w3.org/2000/svg">
<path fill-rule="evenodd" clip-rule="evenodd" d="M14 10C14 12.2091 12.2091 14 10 14C7.79086 14 6 12.2091 6 10C6 7.79086 7.79086 6 10 6C12.2091 6 14 7.79086 14 10ZM13 10C13 11.6569 11.6569 13 10 13C8.34315 13 7 11.6569 7 10C7 8.34315 8.34315 7 10 7C11.6569 7 13 8.34315 13 10Z" fill="black"/>
<path fill-rule="evenodd" clip-rule="evenodd" d="M19.4104 9.71445C17.4869 6.94966 15.5335 5.23823 13.6132 4.32721C11.6845 3.41216 9.81924 3.31928 8.11353 3.7418C4.7359 4.57846 2.03443 7.41801 0.57685 9.73365C0.474383 9.89643 0.474383 10.1036 0.57685 10.2664C2.03443 12.582 4.7359 15.4215 8.11353 16.2582C9.81924 16.6807 11.6845 16.5878 13.6132 15.6728C15.5335 14.7618 17.4869 13.0503 19.4104 10.2855C19.5299 10.1139 19.5299 9.88609 19.4104 9.71445ZM8.35397 15.2875C5.45454 14.5693 3.01726 12.1497 1.59508 10C3.01726 7.85029 5.45454 5.43067 8.35397 4.71246C9.84701 4.34262 11.4749 4.41953 13.1846 5.23069C14.8406 6.01635 16.6007 7.50427 18.388 10C16.6007 12.4957 14.8406 13.9836 13.1846 14.7693C11.4749 15.5805 9.84701 15.6574 8.35397 15.2875Z" fill="black"/>
</svg>
