<svg width="20" height="20" viewBox="0 0 20 20" fill="none" xmlns="http://www.w3.org/2000/svg">
<path fill-rule="evenodd" clip-rule="evenodd" d="M7.24807 5.56588C7.09332 5.47745 6.90319 5.47808 6.74904 5.56754C6.59488 5.65701 6.5 5.82176 6.5 6V14C6.5 14.1782 6.59488 14.343 6.74904 14.4325C6.90319 14.5219 7.09332 14.5226 7.24807 14.4341L14.2481 10.4341C14.4039 10.3451 14.5 10.1794 14.5 10C14.5 9.82057 14.4039 9.6549 14.2481 9.56588L7.24807 5.56588ZM12.9922 10L7.5 13.1384V6.86159L12.9922 10Z" fill="black"/>
<path fill-rule="evenodd" clip-rule="evenodd" d="M0 5C0 3.34315 1.34315 2 3 2H17C18.6569 2 20 3.34315 20 5V15C20 16.6569 18.6569 18 17 18H3C1.34315 18 0 16.6569 0 15V5ZM3 3H17C18.1046 3 19 3.89543 19 5V15C19 16.1046 18.1046 17 17 17H3C1.89543 17 1 16.1046 1 15V5C1 3.89543 1.89543 3 3 3Z" fill="black"/>
</svg>
