<svg width="18" height="13" viewBox="0 0 18 13" fill="none" xmlns="http://www.w3.org/2000/svg">
<path d="M5.97656 11.9688C5.76823 12.2031 5.5599 12.2031 5.35156 11.9688L0.195312 6.8125C-0.0390625 6.60417 -0.0390625 6.39583 0.195312 6.1875L5.35156 1.03125C5.5599 0.796875 5.76823 0.796875 5.97656 1.03125L6.75781 1.77344C6.99219 2.00781 6.99219 2.22917 6.75781 2.4375L3.59375 5.48438H17.0703C17.3828 5.48438 17.5391 5.64062 17.5391 5.95312V7.04688C17.5391 7.35938 17.3828 7.51562 17.0703 7.51562H3.59375L6.75781 10.5625C6.99219 10.7708 6.99219 10.9922 6.75781 11.2266L5.97656 11.9688Z" fill="black"/>
</svg>
