<svg width="15" height="16" viewBox="0 0 15 16" fill="none" xmlns="http://www.w3.org/2000/svg">
<path d="M13.125 0.875C13.6328 0.875 14.0723 1.06055 14.4434 1.43164C14.8145 1.80273 15 2.24219 15 2.75V11.1875C15 11.6953 14.8145 12.1348 14.4434 12.5059C14.0723 12.877 13.6328 13.0625 13.125 13.0625H8.90625L5.24414 15.8164C5.18555 15.8555 5.11719 15.875 5.03906 15.875C4.80469 15.875 4.6875 15.7578 4.6875 15.5234V13.0625H1.875C1.36719 13.0625 0.927734 12.877 0.556641 12.5059C0.185547 12.1348 0 11.6953 0 11.1875V2.75C0 2.24219 0.185547 1.80273 0.556641 1.43164C0.927734 1.06055 1.36719 0.875 1.875 0.875H13.125ZM13.5938 11.1875V2.75C13.5938 2.61328 13.5449 2.50586 13.4473 2.42773C13.3691 2.33008 13.2617 2.28125 13.125 2.28125H1.875C1.73828 2.28125 1.62109 2.33008 1.52344 2.42773C1.44531 2.50586 1.40625 2.61328 1.40625 2.75V11.1875C1.40625 11.3242 1.44531 11.4414 1.52344 11.5391C1.62109 11.6172 1.73828 11.6562 1.875 11.6562H6.09375V13.4141L8.05664 11.9492L8.4375 11.6562H13.125C13.2617 11.6562 13.3691 11.6172 13.4473 11.5391C13.5449 11.4414 13.5938 11.3242 13.5938 11.1875ZM3.07617 6.32422C3.27148 6.12891 3.49609 6.03125 3.75 6.03125C4.00391 6.03125 4.21875 6.12891 4.39453 6.32422C4.58984 6.5 4.6875 6.71484 4.6875 6.96875C4.6875 7.22266 4.58984 7.44727 4.39453 7.64258C4.21875 7.81836 4.00391 7.90625 3.75 7.90625C3.49609 7.90625 3.27148 7.81836 3.07617 7.64258C2.90039 7.44727 2.8125 7.22266 2.8125 6.96875C2.8125 6.71484 2.90039 6.5 3.07617 6.32422ZM6.82617 6.32422C7.02148 6.12891 7.24609 6.03125 7.5 6.03125C7.75391 6.03125 7.96875 6.12891 8.14453 6.32422C8.33984 6.5 8.4375 6.71484 8.4375 6.96875C8.4375 7.22266 8.33984 7.44727 8.14453 7.64258C7.96875 7.81836 7.75391 7.90625 7.5 7.90625C7.24609 7.90625 7.02148 7.81836 6.82617 7.64258C6.65039 7.44727 6.5625 7.22266 6.5625 6.96875C6.5625 6.71484 6.65039 6.5 6.82617 6.32422ZM10.5762 6.32422C10.7715 6.12891 10.9961 6.03125 11.25 6.03125C11.5039 6.03125 11.7188 6.12891 11.8945 6.32422C12.0898 6.5 12.1875 6.71484 12.1875 6.96875C12.1875 7.22266 12.0898 7.44727 11.8945 7.64258C11.7188 7.81836 11.5039 7.90625 11.25 7.90625C10.9961 7.90625 10.7715 7.81836 10.5762 7.64258C10.4004 7.44727 10.3125 7.22266 10.3125 6.96875C10.3125 6.71484 10.4004 6.5 10.5762 6.32422Z" fill="black"/>
</svg>
