<svg width="13" height="13" viewBox="0 0 13 13" fill="none" xmlns="http://www.w3.org/2000/svg">
<path d="M8.16406 6.5L12.3438 10.7188C12.6562 11.0052 12.6562 11.2917 12.3438 11.5781L11.3672 12.5547C11.0807 12.8672 10.7943 12.8672 10.5078 12.5547L6.28906 8.375L2.07031 12.5547C1.78385 12.8672 1.4974 12.8672 1.21094 12.5547L0.234375 11.5781C-0.078125 11.2917 -0.078125 11.0052 0.234375 10.7188L4.41406 6.5L0.234375 2.28125C-0.078125 1.99479 -0.078125 1.70833 0.234375 1.42188L1.21094 0.445312C1.4974 0.132812 1.78385 0.132812 2.07031 0.445312L6.28906 4.625L10.5078 0.445312C10.7943 0.132812 11.0807 0.132812 11.3672 0.445312L12.3438 1.42188C12.6562 1.70833 12.6562 1.99479 12.3438 2.28125L8.16406 6.5Z" fill="black"/>
</svg>
