<svg width="15" height="12" viewBox="0 0 15 12" fill="none" xmlns="http://www.w3.org/2000/svg">
<path d="M13.5938 0.75C13.9844 0.75 14.3164 0.886719 14.5898 1.16016C14.8633 1.43359 15 1.76563 15 2.15625V10.5938C15 10.9844 14.8633 11.3164 14.5898 11.5898C14.3164 11.8633 13.9844 12 13.5938 12H1.40625C1.01562 12 0.683594 11.8633 0.410156 11.5898C0.136719 11.3164 0 10.9844 0 10.5938V2.15625C0 1.76563 0.136719 1.43359 0.410156 1.16016C0.683594 0.886719 1.01562 0.75 1.40625 0.75H13.5938ZM13.5938 2.15625H1.40625V3.35742C2.08984 3.9043 3.4082 4.93945 5.36133 6.46289C5.36133 6.48242 5.49805 6.60938 5.77148 6.84375C6.04492 7.05859 6.25 7.21484 6.38672 7.3125C6.52344 7.39062 6.69922 7.48828 6.91406 7.60547C7.14844 7.72266 7.34375 7.78125 7.5 7.78125C7.65625 7.78125 7.8418 7.72266 8.05664 7.60547C8.29102 7.48828 8.47656 7.39062 8.61328 7.3125C8.75 7.21484 8.95508 7.05859 9.22852 6.84375C9.50195 6.60938 9.63867 6.48242 9.63867 6.46289C11.5918 4.93945 12.9102 3.9043 13.5938 3.35742V2.15625ZM1.40625 10.5938H13.5938V5.14453C12.9102 5.69141 11.8848 6.50195 10.5176 7.57617C10.4785 7.5957 10.332 7.71289 10.0781 7.92773C9.84375 8.14258 9.6582 8.29883 9.52148 8.39648C9.38477 8.49414 9.18945 8.62109 8.93555 8.77734C8.68164 8.91406 8.4375 9.02148 8.20312 9.09961C7.96875 9.1582 7.73438 9.1875 7.5 9.1875C7.26562 9.1875 7.02148 9.1582 6.76758 9.09961C6.5332 9.02148 6.28906 8.9043 6.03516 8.74805C5.80078 8.5918 5.61523 8.46484 5.47852 8.36719C5.3418 8.26953 5.14648 8.12305 4.89258 7.92773C4.6582 7.71289 4.52148 7.5957 4.48242 7.57617C3.11523 6.50195 2.08984 5.69141 1.40625 5.14453V10.5938Z" fill="black"/>
</svg>
