<svg width="12" height="16" viewBox="0 0 12 16" fill="none" xmlns="http://www.w3.org/2000/svg">
<path d="M1.64062 2.51562C2.73438 1.42188 4.0625 0.875 5.625 0.875C7.1875 0.875 8.51562 1.42188 9.60938 2.51562C10.7031 3.60937 11.25 4.9375 11.25 6.5C11.25 6.8125 11.2402 7.08594 11.2207 7.32031C11.2012 7.53516 11.1328 7.79883 11.0156 8.11133C10.8984 8.42383 10.791 8.6875 10.6934 8.90234C10.5957 9.11719 10.4004 9.46875 10.1074 9.95703C9.81445 10.4453 9.55078 10.8652 9.31641 11.2168C9.10156 11.5684 8.73047 12.1543 8.20312 12.9746C7.69531 13.7949 7.23633 14.5371 6.82617 15.2012C6.55273 15.6504 6.15234 15.875 5.625 15.875C5.09766 15.875 4.69727 15.6504 4.42383 15.2012C4.01367 14.5371 3.54492 13.7949 3.01758 12.9746C2.50977 12.1543 2.13867 11.5684 1.9043 11.2168C1.68945 10.8652 1.43555 10.4453 1.14258 9.95703C0.849609 9.46875 0.654297 9.11719 0.556641 8.90234C0.458984 8.6875 0.351562 8.42383 0.234375 8.11133C0.117188 7.79883 0.0488281 7.53516 0.0292969 7.32031C0.00976562 7.08594 0 6.8125 0 6.5C0 4.9375 0.546875 3.60937 1.64062 2.51562ZM5.625 14.4688C6.01562 13.8438 6.43555 13.1797 6.88477 12.4766C7.33398 11.7734 7.66602 11.2461 7.88086 10.8945C8.11523 10.5234 8.35938 10.1328 8.61328 9.72266C8.86719 9.3125 9.04297 9.00977 9.14062 8.81445C9.25781 8.59961 9.375 8.375 9.49219 8.14062C9.60938 7.90625 9.6875 7.71094 9.72656 7.55469C9.76562 7.39844 9.79492 7.24219 9.81445 7.08594C9.83398 6.91016 9.84375 6.71484 9.84375 6.5C9.84375 5.32812 9.43359 4.33203 8.61328 3.51172C7.79297 2.69141 6.79688 2.28125 5.625 2.28125C4.45312 2.28125 3.45703 2.69141 2.63672 3.51172C1.81641 4.33203 1.40625 5.32812 1.40625 6.5C1.40625 6.71484 1.41602 6.91016 1.43555 7.08594C1.45508 7.24219 1.48438 7.4082 1.52344 7.58398C1.5625 7.74023 1.64062 7.93555 1.75781 8.16992C1.875 8.4043 1.99219 8.62891 2.10938 8.84375C2.22656 9.03906 2.41211 9.3418 2.66602 9.75195C2.91992 10.1621 3.1543 10.5527 3.36914 10.9238C3.60352 11.2754 3.93555 11.8027 4.36523 12.5059C4.81445 13.1895 5.23438 13.8438 5.625 14.4688ZM3.95508 8.16992C3.50586 7.70117 3.28125 7.14453 3.28125 6.5C3.28125 5.85547 3.50586 5.30859 3.95508 4.85938C4.42383 4.39062 4.98047 4.15625 5.625 4.15625C6.26953 4.15625 6.81641 4.39062 7.26562 4.85938C7.73438 5.30859 7.96875 5.85547 7.96875 6.5C7.96875 7.14453 7.73438 7.70117 7.26562 8.16992C6.81641 8.61914 6.26953 8.84375 5.625 8.84375C4.98047 8.84375 4.42383 8.61914 3.95508 8.16992Z" fill="black"/>
</svg>
