<svg width="9" height="16" viewBox="0 0 9 16" fill="none" xmlns="http://www.w3.org/2000/svg">
<path d="M1.23047 2.10547C2.05078 1.28516 3.04688 0.875 4.21875 0.875C5.39062 0.875 6.38672 1.28516 7.20703 2.10547C8.02734 2.92578 8.4375 3.92188 8.4375 5.09375C8.4375 6.12891 8.0957 7.03711 7.41211 7.81836C6.74805 8.59961 5.91797 9.07812 4.92188 9.25391V15.0254L4.42383 15.7578C4.38477 15.8359 4.31641 15.875 4.21875 15.875C4.12109 15.875 4.05273 15.8359 4.01367 15.7578L3.51562 15.0254V9.25391C2.51953 9.07812 1.67969 8.59961 0.996094 7.81836C0.332031 7.03711 0 6.12891 0 5.09375C0 3.92188 0.410156 2.92578 1.23047 2.10547ZM2.22656 7.08594C2.77344 7.63281 3.4375 7.90625 4.21875 7.90625C5 7.90625 5.66406 7.63281 6.21094 7.08594C6.75781 6.53906 7.03125 5.875 7.03125 5.09375C7.03125 4.3125 6.75781 3.64844 6.21094 3.10156C5.66406 2.55469 5 2.28125 4.21875 2.28125C3.4375 2.28125 2.77344 2.55469 2.22656 3.10156C1.67969 3.64844 1.40625 4.3125 1.40625 5.09375C1.40625 5.875 1.67969 6.53906 2.22656 7.08594ZM4.21875 3.21875C4.35547 3.21875 4.46289 3.26758 4.54102 3.36523C4.63867 3.44336 4.6875 3.55078 4.6875 3.6875C4.6875 3.82422 4.63867 3.94141 4.54102 4.03906C4.46289 4.11719 4.35547 4.15625 4.21875 4.15625C3.96484 4.15625 3.74023 4.25391 3.54492 4.44922C3.36914 4.625 3.28125 4.83984 3.28125 5.09375C3.28125 5.23047 3.23242 5.34766 3.13477 5.44531C3.05664 5.52344 2.94922 5.5625 2.8125 5.5625C2.67578 5.5625 2.55859 5.52344 2.46094 5.44531C2.38281 5.34766 2.34375 5.23047 2.34375 5.09375C2.34375 4.58594 2.5293 4.14648 2.90039 3.77539C3.27148 3.4043 3.71094 3.21875 4.21875 3.21875Z" fill="black"/>
</svg>
