<svg width="15" height="16" viewBox="0 0 15 16" fill="none" xmlns="http://www.w3.org/2000/svg">
<path d="M14.1797 10.543C14.3359 10.6016 14.4727 10.6992 14.5898 10.8359C14.7266 10.9727 14.8242 11.1289 14.8828 11.3047C14.9609 11.4609 15 11.6172 15 11.7734C15 11.8711 14.9902 11.9688 14.9707 12.0664L14.3262 14.8203C14.2676 15.1133 14.1113 15.3574 13.8574 15.5527C13.6035 15.7676 13.3301 15.875 13.0371 15.875C11.2598 15.875 9.57031 15.5332 7.96875 14.8496C6.36719 14.166 4.98047 13.248 3.80859 12.0957C2.65625 10.9238 1.72852 9.53711 1.02539 7.93555C0.341797 6.31445 0 4.625 0 2.86719V2.83789C0 2.54492 0.0976563 2.27148 0.292969 2.01758C0.507812 1.76367 0.761719 1.60742 1.05469 1.54883L3.80859 0.904297C3.90625 0.884766 4.00391 0.875 4.10156 0.875C4.35547 0.875 4.59961 0.953125 4.83398 1.10938C5.06836 1.26562 5.23438 1.46094 5.33203 1.69531L6.5918 4.6543C6.66992 4.83008 6.70898 5.00586 6.70898 5.18164C6.70898 5.61133 6.54297 5.96289 6.21094 6.23633L5.03906 7.17383C5.27344 7.60352 5.5957 8.0625 6.00586 8.55078C6.41602 9.01953 6.85547 9.45898 7.32422 9.86914C7.8125 10.2793 8.27148 10.6016 8.70117 10.8359L9.63867 9.66406C9.91211 9.33203 10.2637 9.16602 10.6934 9.16602C10.8691 9.16602 11.0449 9.19531 11.2207 9.25391L14.1797 10.543ZM12.9785 14.4688L13.5938 11.8027L10.6934 10.5723L9.08203 12.5645C7.63672 11.9004 6.47461 11.1387 5.5957 10.2793C4.73633 9.41992 3.97461 8.25781 3.31055 6.79297L5.30273 5.18164L4.07227 2.28125L1.40625 2.89648C1.40625 4.47852 1.70898 5.98242 2.31445 7.4082C2.93945 8.81445 3.76953 10.0352 4.80469 11.0703C5.83984 12.1055 7.06055 12.9355 8.4668 13.5605C9.89258 14.166 11.3965 14.4688 12.9785 14.4688Z" fill="black"/>
</svg>
