<svg width="9" height="10" viewBox="0 0 9 10" fill="none" xmlns="http://www.w3.org/2000/svg">
<path d="M3.02344 9.125C2.30859 9.125 1.69336 8.86719 1.17773 8.35156C0.673828 7.84766 0.421875 7.23828 0.421875 6.52344C0.421875 5.79688 0.679688 5.18164 1.19531 4.67773L5.15039 0.705078C5.53711 0.318359 6.00586 0.125 6.55664 0.125C7.11914 0.125 7.59375 0.324219 7.98047 0.722656C8.37891 1.10938 8.57812 1.58398 8.57812 2.14648C8.57812 2.69727 8.37891 3.16602 7.98047 3.55273L4.6582 6.89258C4.37695 7.16211 4.04297 7.29688 3.65625 7.29688C3.26953 7.29688 2.93555 7.16211 2.6543 6.89258C2.37305 6.61133 2.23242 6.27734 2.23242 5.89062C2.23242 5.50391 2.37305 5.16992 2.6543 4.88867L5.48438 2.05859C5.57812 1.96484 5.67188 1.96484 5.76562 2.05859L6.06445 2.35742C6.16992 2.46289 6.16992 2.5625 6.06445 2.65625L3.25195 5.48633C3.13477 5.5918 3.07617 5.72656 3.07617 5.89062C3.07617 6.04297 3.13477 6.17773 3.25195 6.29492C3.36914 6.40039 3.50391 6.45312 3.65625 6.45312C3.82031 6.45312 3.95508 6.40039 4.06055 6.29492L7.40039 2.95508C7.62305 2.73242 7.73438 2.46289 7.73438 2.14648C7.73438 1.81836 7.61719 1.54297 7.38281 1.32031C7.16016 1.08594 6.88477 0.96875 6.55664 0.96875C6.24023 0.96875 5.96484 1.08008 5.73047 1.30273L1.77539 5.25781C1.43555 5.60938 1.26562 6.03125 1.26562 6.52344C1.26562 7.00391 1.43555 7.41992 1.77539 7.77148C2.12695 8.11133 2.54297 8.28125 3.02344 8.28125C3.51562 8.28125 3.9375 8.10547 4.28906 7.75391C5.41406 6.62891 6.55664 5.48047 7.7168 4.30859C7.82227 4.21484 7.92188 4.21484 8.01562 4.30859L8.31445 4.60742C8.41992 4.71289 8.41992 4.8125 8.31445 4.90625C7.17773 6.05469 6.03516 7.20312 4.88672 8.35156C4.37109 8.86719 3.75 9.125 3.02344 9.125Z" fill="black"/>
</svg>
